<svg xmlns="http://www.w3.org/2000/svg" xmlns:xlink="http://www.w3.org/1999/xlink" width="536.667" height="129" viewBox="0 0 536.667 129">
  <defs>
    <clipPath id="clip-path">
      <circle id="楕円形_121" data-name="楕円形 121" cx="64.5" cy="64.5" r="64.5" transform="translate(-0.473 -0.479)" fill="none" stroke="#333" stroke-width="3"/>
    </clipPath>
  </defs>
  <g id="グループ_10046" data-name="グループ 10046" transform="translate(-59.001 -830.083)">
    <g id="グループ_9989" data-name="グループ 9989" transform="translate(61.169 830.562)">
      <circle id="楕円形_155" data-name="楕円形 155" cx="64.5" cy="64.5" r="64.5" transform="translate(-0.473 -0.479)" fill="#fff"/>
      <g id="マスクグループ_18" data-name="マスクグループ 18" transform="translate(-1.694 0)" clip-path="url(#clip-path)">
        <g id="グループ_9739" data-name="グループ 9739" transform="translate(3.046 10.734)">
          <path id="パス_89653" data-name="パス 89653" d="M97.848,271.293a4.442,4.442,0,0,1,3.556-1.041,4.2,4.2,0,0,1,3.018,2.006,5.936,5.936,0,0,1,.621,2.387,17.781,17.781,0,0,1-1.813,9.426,11.3,11.3,0,0,1-2.922,3.839,7.492,7.492,0,0,1-3.485,1.57l-.6.094c-.286,1.069-.607,1.97-.765,2.449-.979,2.65-6.271,11.576-13.037,15.342a39.855,39.855,0,0,0,.577,5.1c.346,1.987.241,3.756,2.989,4.75.136.045,4.351,2.048,6.707,3.162,0,0-6.239,14.584-24.752,14.584s-24.039-15.149-24.039-15.149c2.582-1.182,5.533-2.559,5.638-2.6,2.755-.994,2.642-2.763,3-4.75a38.853,38.853,0,0,0,.6-5.44,27.358,27.358,0,0,1-7.019-6.125,30.235,30.235,0,0,1-5.763-11.25l-1.136-.175a7.492,7.492,0,0,1-3.485-1.57,11.3,11.3,0,0,1-2.922-3.839A17.788,17.788,0,0,1,31,274.646a5.925,5.925,0,0,1,.622-2.387,4.2,4.2,0,0,1,3.017-2.006,4.441,4.441,0,0,1,3.557,1.041s-2.371-28,29.413-28C100.064,243.291,97.848,271.293,97.848,271.293Z" transform="translate(-7.654 -219.19)" fill="#fff"/>
          <path id="パス_89654" data-name="パス 89654" d="M73.231,350.057c-1.044,1.268-2.082,2.623-3.069,3.944,2.264,1.685,5.02,1.93,7.463,1.93a14.124,14.124,0,0,0,7.447-1.585,67.7,67.7,0,0,0-6.186-7.465H76.092A41.623,41.623,0,0,0,73.231,350.057Z" transform="translate(-17.349 -244.799)" fill="#fff"/>
          <path id="パス_89655" data-name="パス 89655" d="M89.107,352.291a81.052,81.052,0,0,0-7.358-9.046c-.236.093,8.241-3.8,11.383-6a8.555,8.555,0,0,0,3.375-5.078,33.65,33.65,0,0,0,6.67,7.005,2.028,2.028,0,0,1,.588,2.157,2.95,2.95,0,0,1-.491.862,35.124,35.124,0,0,1-13.342,11.216Z" transform="translate(-20.213 -241.162)" fill="#fff"/>
          <path id="パス_89656" data-name="パス 89656" d="M63.413,352.381c-.272.368-.537.728-.795,1.076A35.113,35.113,0,0,1,49.276,342.24a2.936,2.936,0,0,1-.492-.862,2.829,2.829,0,0,1,.588-2.157c1.57-2.639,4.927-5.044,6.7-6.85a10.765,10.765,0,0,0,4.06,5.254c3.141,2.2,10.9,5.76,10.665,5.667a81.448,81.448,0,0,0-7.384,9.089Z" transform="translate(-12.058 -241.213)" fill="#fff"/>
          <path id="パス_89661" data-name="パス 89661" d="M44.957,250.906q.2-.393.411-.775a16.9,16.9,0,0,1,9.22-7.463l8.987-2c2.677-2.381,6.268-4.4,10.02-3.936,3.107.382,5.659,2.391,7.563,4.606a39.107,39.107,0,0,1,5.866,9.989,25.511,25.511,0,0,0,3.131,5.83,7.692,7.692,0,0,0,5.5,3.1l2.537,3.613a4.441,4.441,0,0,1,3.556-1.041,4.374,4.374,0,0,1,1.466.5c.3-1.17.492-1.935.492-1.935,2.635-10.354,1.284-22.746-5.535-30.97l-4.837-5.5a20.462,20.462,0,0,1-6.248-2.671c-2.718-1.668-5.684-3.7-8.346-5.461a21.365,21.365,0,0,0-28.961,5.156l-5.361,4.688c-4.126,1.784-7.812,6.189-9.508,9.953A25.5,25.5,0,0,0,32.4,246.867c-.37,5.115.141,11.655,2.659,15.951a4.422,4.422,0,0,1,3.482,1.046l4.14-1.106A23.186,23.186,0,0,1,44.957,250.906Z" transform="translate(-7.987 -211.764)" fill="#333"/>
          <path id="パス_89662" data-name="パス 89662" d="M2.041,375.165a53.722,53.722,0,0,1,4.071-10.038c1.859-3.26,3.75-6.533,6.58-8.754a41.461,41.461,0,0,1,9.417-6.048c3.11-1.271,10.1-4.377,15.073-6.566a1.255,1.255,0,0,0,.053.423,2.937,2.937,0,0,0,.492.862,35.116,35.116,0,0,0,13.342,11.216c.7-.948,1.461-1.983,2.252-3.041,2.263,1.685,5.019,1.93,7.463,1.93a14.127,14.127,0,0,0,7.447-1.586c.7.939,1.37,1.853,2,2.7A35.12,35.12,0,0,0,83.57,345.045a2.948,2.948,0,0,0,.491-.862,2.216,2.216,0,0,0,.084-.463c4.881,2.108,12.3,5.3,15.5,6.606a41.46,41.46,0,0,1,9.417,6.048c2.83,2.221,4.721,5.5,6.58,8.754a53.663,53.663,0,0,1,4.07,10.038Z" transform="translate(-0.509 -244.018)" fill="#ff7c64"/>
          <path id="パス_89679" data-name="パス 89679" d="M58.158,329.478q-.075,1.016-.215,2.023l.054-.4c-.075.559-.164,1.117-.26,1.673a1.627,1.627,0,0,0,.151,1.16,1.506,1.506,0,0,0,2.06.54,1.468,1.468,0,0,0,.692-.9c.233-1.355.421-2.724.527-4.1a1.506,1.506,0,0,0-2.57-1.064,1.683,1.683,0,0,0-.441,1.064Z" transform="translate(-14.267 -240.125)" fill="#333"/>
          <path id="パス_89680" data-name="パス 89680" d="M97.461,329.848c.121,1.381.3,2.763.551,4.127a1.506,1.506,0,0,0,2.751.36,1.694,1.694,0,0,0,.151-1.16c-.11-.606-.2-1.216-.285-1.826l.053.4q-.127-.947-.212-1.9a1.617,1.617,0,0,0-.44-1.064,1.506,1.506,0,0,0-2.13,0,1.479,1.479,0,0,0-.441,1.064Z" transform="translate(-24.098 -240.216)" fill="#333"/>
          <path id="パス_89681" data-name="パス 89681" d="M109.837,344.524q4.517,1.95,9.045,3.885c2.6,1.11,5.284,2.1,7.813,3.363a40.878,40.878,0,0,1,8.246,5.571c2.678,2.3,4.487,5.508,6.154,8.573a56.536,56.536,0,0,1,3.634,9.161c.612,1.828,3.522,1.044,2.9-.8-2.114-6.31-4.639-12.807-9.235-17.778a31.276,31.276,0,0,0-4.233-3.557,40.66,40.66,0,0,0-4.078-2.76,73.086,73.086,0,0,0-8.281-3.771q-5.233-2.226-10.453-4.484a1.555,1.555,0,0,0-2.06.54,1.516,1.516,0,0,0,.54,2.06Z" transform="translate(-26.973 -243.528)" fill="#333"/>
          <path id="パス_89682" data-name="パス 89682" d="M2.99,375.09a62.659,62.659,0,0,1,3.177-8.281,35.248,35.248,0,0,1,5.284-8.165,33.639,33.639,0,0,1,7.829-5.918,76.645,76.645,0,0,1,7.818-3.591c3.451-1.5,6.892-3.027,10.334-4.547a1.515,1.515,0,0,0,.54-2.06,1.542,1.542,0,0,0-2.06-.54q-4.712,2.081-9.429,4.152c-2.74,1.2-5.587,2.248-8.205,3.695a37.8,37.8,0,0,0-4.266,2.785,40.14,40.14,0,0,0-4.041,3.237,34.817,34.817,0,0,0-6.037,8.732A61.839,61.839,0,0,0,.09,374.3c-.614,1.842,2.292,2.635,2.9.8Z" transform="translate(-0.005 -243.542)" fill="#333"/>
          <path id="パス_89683" data-name="パス 89683" d="M120.053,280.71a2.855,2.855,0,0,1,4.21.661,6.173,6.173,0,0,1,.477,2.794,15.65,15.65,0,0,1-.263,3.253c-.726,3.772-2.73,8.219-6.913,8.958a1.518,1.518,0,0,0-1.054,1.852,1.54,1.54,0,0,0,1.852,1.054c5.947-1.054,8.79-7.742,9.308-13.117.257-2.666.184-5.962-2.076-7.788a5.989,5.989,0,0,0-7.672.2c-1.488,1.245.652,3.365,2.129,2.13Z" transform="translate(-28.795 -227.545)" fill="#333"/>
          <path id="パス_89684" data-name="パス 89684" d="M110.484,299.774a14.933,14.933,0,0,1-.693,3.692c-.139.467-.291.929-.446,1.39-.045.134-.316.836-.151.458a26.95,26.95,0,0,1-1.929,3.552A35.4,35.4,0,0,1,99.388,318a15.029,15.029,0,0,1-5.842,2.967c-1.886.439-1.089,3.342.8,2.9,4.458-1.037,8.191-4.216,11.141-7.582a38.355,38.355,0,0,0,6.214-9.244,19.864,19.864,0,0,0,1.793-7.266c.075-1.938-2.94-1.935-3.011,0Z" transform="translate(-22.864 -232.795)" fill="#333"/>
          <path id="パス_89685" data-name="パス 89685" d="M38.759,278.584a5.987,5.987,0,0,0-7.672-.2c-2.258,1.826-2.334,5.123-2.076,7.788.518,5.376,3.365,12.063,9.307,13.117a1.549,1.549,0,0,0,1.853-1.054,1.518,1.518,0,0,0-1.054-1.852c-4.183-.742-6.186-5.189-6.913-8.958a15.532,15.532,0,0,1-.266-3.086,6.429,6.429,0,0,1,.48-2.961,2.855,2.855,0,0,1,4.21-.661c1.476,1.235,3.618-.884,2.129-2.13Z" transform="translate(-7.151 -227.546)" fill="#333"/>
          <path id="パス_89686" data-name="パス 89686" d="M40.234,299.117a34.066,34.066,0,0,0,7.316,16.426c4.042,4.752,9.393,8.26,15.686,8.924a1.515,1.515,0,0,0,1.506-1.506,1.539,1.539,0,0,0-1.506-1.506c-5.582-.59-10.266-4.088-13.765-8.289a31.313,31.313,0,0,1-6.333-14.852,1.517,1.517,0,0,0-1.852-1.054,1.539,1.539,0,0,0-1.054,1.852Z" transform="translate(-9.938 -232.52)" fill="#333"/>
          <path id="パス_89687" data-name="パス 89687" d="M43.142,229.231c-4.952,2.209-8.566,6.926-10.62,11.813A34.209,34.209,0,0,0,30.4,256.977a27.393,27.393,0,0,0,2.284,9.446,1.518,1.518,0,0,0,2.06.54,1.539,1.539,0,0,0,.54-2.06c-2.149-4.617-2.247-10.141-1.813-15.123a23.729,23.729,0,0,1,4.769-12.708,17.372,17.372,0,0,1,6.423-5.24,1.517,1.517,0,0,0,.54-2.06,1.542,1.542,0,0,0-2.06-.54Z" transform="translate(-7.483 -215.667)" fill="#333"/>
          <path id="パス_89688" data-name="パス 89688" d="M57.082,250.375a18.1,18.1,0,0,0-9.977,7.9,24.4,24.4,0,0,0-3.047,13.639c.1,1.928,3.114,1.939,3.011,0-.4-7.7,2.836-16.177,10.813-18.642,1.845-.57,1.058-3.478-.8-2.9Z" transform="translate(-10.881 -220.923)" fill="#333"/>
          <path id="パス_89689" data-name="パス 89689" d="M74.4,248.926c2.041-1.79,4.616-3.413,7.4-3.549a9.374,9.374,0,0,1,6.975,3.068,27.889,27.889,0,0,1,5.093,7.4c1.387,2.738,2.353,5.745,4.053,8.314a10.11,10.11,0,0,0,7.479,4.793,1.513,1.513,0,0,0,1.506-1.506,1.543,1.543,0,0,0-1.506-1.506c-2.83-.352-4.553-2.492-5.8-4.877-1.482-2.834-2.559-5.848-4.149-8.634-2.867-5.023-7.556-10.568-13.962-10.041a16.268,16.268,0,0,0-9.227,4.411c-1.46,1.28.678,3.4,2.13,2.129Z" transform="translate(-17.751 -218.959)" fill="#333"/>
          <path id="パス_89690" data-name="パス 89690" d="M56.314,222.209a19.9,19.9,0,0,1,26.507-4.867c3.179,1.994,6.191,4.256,9.446,6.132a18.56,18.56,0,0,0,11.391,2.7,1.551,1.551,0,0,0,1.506-1.506,1.515,1.515,0,0,0-1.506-1.506c-7.97.908-13.709-5.269-20.12-8.9a22.917,22.917,0,0,0-29.824,6.427,1.515,1.515,0,0,0,.541,2.06,1.542,1.542,0,0,0,2.06-.54Z" transform="translate(-13.233 -211.276)" fill="#333"/>
          <path id="パス_89691" data-name="パス 89691" d="M118.258,236.605c6.6,8.046,7.6,19.709,5.148,29.505-.471,1.882,2.431,2.682,2.9.8,2.742-10.933,1.391-23.512-5.922-32.434-1.229-1.5-3.348.641-2.13,2.129Z" transform="translate(-29.149 -216.885)" fill="#333"/>
          <path id="パス_89692" data-name="パス 89692" d="M68.472,245.612c-.006-.435.028-.86.059-1.293.018-.247-.062.351.011-.075.015-.09.03-.179.047-.269.041-.226.091-.445.151-.665.108-.422.262-.821.4-1.232.075-.233-.143.309.033-.081.037-.083.075-.166.114-.248q.147-.309.313-.607a10.608,10.608,0,0,1,.656-1.037c-.005.007.233-.311.128-.175s.117-.141.139-.167c.131-.157.267-.309.408-.458a11.919,11.919,0,0,1,.945-.883c.209-.178-.063.041.071-.058.092-.068.184-.134.277-.2.187-.129.376-.251.574-.368a1.506,1.506,0,1,0-1.52-2.6,12.115,12.115,0,0,0-5.815,10.415,1.506,1.506,0,1,0,3.011,0Z" transform="translate(-16.187 -217.139)" fill="#333"/>
          <path id="パス_89693" data-name="パス 89693" d="M89.927,351.028a79.141,79.141,0,0,0-7.593-9.351,1.5,1.5,0,0,0-1.464-.387h-.005l1.16,2.752c.724-.434,1.557-.739,2.316-1.106,1.638-.792,3.269-1.6,4.877-2.451a33.726,33.726,0,0,0,4.441-2.626,10.817,10.817,0,0,0,3.82-5.8l-2.517.665a43.2,43.2,0,0,0,4.828,5.5c.512.465,1.047.9,1.594,1.324.284.221.507.315.482.7-.027.421-.478.828-.726,1.156-.35.456-.715.9-1.087,1.341a32.745,32.745,0,0,1-11.36,8.863l2.06.54-.824-1.116a1.551,1.551,0,0,0-2.06-.54,1.518,1.518,0,0,0-.54,2.06l.824,1.116a1.567,1.567,0,0,0,2.06.54A35.316,35.316,0,0,0,103.137,343.7c.851-1.082,1.749-2.118,1.741-3.572-.008-1.483-.869-2.3-1.94-3.153A36.972,36.972,0,0,1,97.09,330.6c-.738-.946-2.215-.3-2.517.665a7.653,7.653,0,0,1-3.157,4.5c-1.39.9-2.867,1.686-4.338,2.452s-2.936,1.49-4.423,2.206c-.705.34-1.48.625-2.153,1.028-1.422.851-.5,3.312,1.16,2.751h.005l-1.465-.387a74,74,0,0,1,7.125,8.74,1.552,1.552,0,0,0,2.06.54A1.516,1.516,0,0,0,89.927,351.028Z" transform="translate(-19.732 -240.66)" fill="#333"/>
          <path id="パス_89694" data-name="パス 89694" d="M61.616,351.133q-.4.537-.795,1.076l2.06-.54a32.929,32.929,0,0,1-11.558-9.1c-.367-.439-.726-.885-1.069-1.344-.376-.505-.622-.688-.33-1.29a10.3,10.3,0,0,1,1.921-2.548c1.512-1.575,3.255-2.9,4.8-4.441l-2.517-.664a12.892,12.892,0,0,0,3.99,5.581,30.48,30.48,0,0,0,4.456,2.762c1.542.828,3.107,1.614,4.681,2.379.753.366,1.581.671,2.3,1.1l1.16-2.752h-.005a1.5,1.5,0,0,0-1.465.387,79.593,79.593,0,0,0-7.624,9.392,1.516,1.516,0,0,0,.541,2.06,1.54,1.54,0,0,0,2.06-.54,74.317,74.317,0,0,1,7.151-8.781l-1.465.387h.005c1.646.555,2.6-1.893,1.16-2.751-.616-.368-1.323-.629-1.968-.941-1.472-.711-2.936-1.441-4.384-2.2-3.177-1.677-6.291-3.352-7.686-6.877a1.527,1.527,0,0,0-2.517-.664c-1.747,1.745-3.75,3.217-5.386,5.078A10.233,10.233,0,0,0,46.9,339.39c-.527,1.677.37,2.874,1.348,4.134a35.512,35.512,0,0,0,13.111,10.744,1.567,1.567,0,0,0,2.06-.54l.795-1.076a1.516,1.516,0,0,0-.54-2.06,1.542,1.542,0,0,0-2.06.542Z" transform="translate(-11.56 -240.725)" fill="#333"/>
          <path id="パス_89695" data-name="パス 89695" d="M70.281,357.994a15.622,15.622,0,0,0,7.414,1.477A16.379,16.379,0,0,0,85.3,357.89c1.72-.894.2-3.493-1.52-2.6a13.128,13.128,0,0,1-6.087,1.169,12.452,12.452,0,0,1-5.894-1.065c-1.717-.893-3.242,1.705-1.52,2.6Z" transform="translate(-17.192 -246.833)" fill="#333"/>
          <path id="パス_89696" data-name="パス 89696" d="M72.731,311.42a11.942,11.942,0,0,0,5.748,1.331,9.354,9.354,0,0,0,5.8-1.713,1.515,1.515,0,0,0,0-2.13,1.544,1.544,0,0,0-2.129,0c.457-.356.1-.086-.013-.011s-.234.142-.355.206c-.063.033-.127.063-.19.095-.242.125.044-.053.063-.021,0,0-.452.166-.489.178a8.648,8.648,0,0,1-1.371.312c.226-.033-.033,0-.126.011-.134.013-.269.024-.4.033-.324.021-.65.029-.974.027-.291,0-.582-.011-.872-.032-.134-.009-.266-.02-.4-.033-.017,0-.5-.07-.189-.02a9.92,9.92,0,0,1-1.28-.284c-.179-.054-.354-.118-.527-.178-.384-.132.226.115-.122-.047-.219-.1-.436-.212-.65-.325a1.506,1.506,0,0,0-1.52,2.6Z" transform="translate(-17.801 -235.307)" fill="#333"/>
          <path id="パス_90665" data-name="パス 90665" d="M.742,2.937A11.941,11.941,0,0,0,6.49,4.268a9.354,9.354,0,0,0,5.8-1.713,1.515,1.515,0,0,0,0-2.13,1.544,1.544,0,0,0-2.129,0c.457-.356.1-.086-.013-.011S9.917.557,9.8.621c-.063.033-.127.063-.19.095C9.364.84,9.651.663,9.67.694c0,0-.452.166-.489.178a8.644,8.644,0,0,1-1.371.312c.226-.033-.033,0-.126.011-.134.013-.269.024-.4.033-.324.021-.65.029-.974.027-.291,0-.582-.011-.872-.032-.134-.009-.266-.02-.4-.033-.017,0-.5-.07-.189-.02A9.917,9.917,0,0,1,3.565.888C3.386.834,3.212.77,3.038.709c-.384-.132.226.115-.122-.047C2.7.558,2.481.45,2.266.337a1.506,1.506,0,0,0-1.52,2.6Z" transform="translate(55.255 58.283) rotate(180)" fill="#333"/>
          <path id="パス_90666" data-name="パス 90666" d="M.742,2.937A11.941,11.941,0,0,0,6.49,4.268a9.354,9.354,0,0,0,5.8-1.713,1.515,1.515,0,0,0,0-2.13,1.544,1.544,0,0,0-2.129,0c.457-.356.1-.086-.013-.011S9.917.557,9.8.621c-.063.033-.127.063-.19.095C9.364.84,9.651.663,9.67.694c0,0-.452.166-.489.178a8.644,8.644,0,0,1-1.371.312c.226-.033-.033,0-.126.011-.134.013-.269.024-.4.033-.324.021-.65.029-.974.027-.291,0-.582-.011-.872-.032-.134-.009-.266-.02-.4-.033-.017,0-.5-.07-.189-.02A9.917,9.917,0,0,1,3.565.888C3.386.834,3.212.77,3.038.709c-.384-.132.226.115-.122-.047C2.7.558,2.481.45,2.266.337a1.506,1.506,0,0,0-1.52,2.6Z" transform="translate(78.684 58.283) rotate(180)" fill="#333"/>
          <path id="パス_89697" data-name="パス 89697" d="M79.258,293.781a27.053,27.053,0,0,1,.634,2.9l-.053-.4a1.781,1.781,0,0,1,.011.4l.053-.4a.93.93,0,0,1-.044.181l.151-.36a.753.753,0,0,1-.064.116l.236-.3a.615.615,0,0,1-.095.093l.3-.236a1.9,1.9,0,0,1-.23.122l.359-.151a1.657,1.657,0,0,1-.387.113l.4-.053a1.54,1.54,0,0,1-.364,0l.4.053c-.137-.019-.271-.052-.408-.071a1.149,1.149,0,0,0-.6-.027,1.129,1.129,0,0,0-.56.179,1.506,1.506,0,0,0-.537,2.051,1.438,1.438,0,0,0,.9.692c.314.042.618.122.937.136a3,3,0,0,0,1.382-.329,2,2,0,0,0,1.107-1.318,3.3,3.3,0,0,0-.014-1.417c-.158-.935-.376-1.861-.614-2.778a1.506,1.506,0,1,0-2.9.8Z" transform="translate(-19.351 -231.2)" fill="#333"/>
        </g>
      </g>
      <g id="楕円形_145" data-name="楕円形 145" transform="translate(-0.473 -0.479)" fill="none" stroke="#333" stroke-width="3">
        <circle cx="64.5" cy="64.5" r="64.5" stroke="none"/>
        <circle cx="64.5" cy="64.5" r="63" fill="none"/>
      </g>
    </g>
    <g id="グループ_9978" data-name="グループ 9978" transform="translate(214.427 863.656)">
      <g id="合体_65" data-name="合体 65" transform="translate(0 0)" fill="#faf4ed">
        <path d="M 365.2407531738281 75.09629821777344 L 29.11230278015137 75.09629821777344 C 25.23905372619629 75.09629821777344 21.59770202636719 73.58795166015625 18.85895347595215 70.84915161132812 C 16.12035369873047 68.11039733886719 14.61210250854492 64.46914672851562 14.61210250854492 60.59609985351562 L 14.61210250854492 24.49994850158691 L 14.61210250854492 23.54744911193848 L 13.75000286102295 23.14234924316406 C 11.52575302124023 22.09719848632812 9.642353057861328 20.7244987487793 8.152153015136719 19.06239891052246 C 5.563121318817139 16.17552185058594 3.920330286026001 12.83866882324219 2.974702119827271 10.45527172088623 C 5.180422782897949 11.98636245727539 8.296117782592773 13.67446804046631 12.39670276641846 14.82949924468994 C 12.56770324707031 14.87769889831543 12.73645305633545 14.92469882965088 12.9038028717041 14.97084903717041 L 14.52640247344971 15.41824913024902 L 14.78475284576416 13.7549991607666 C 15.30965328216553 10.37509918212891 17.03260231018066 7.274549007415771 19.63620376586914 5.024448871612549 C 22.26605224609375 2.751649141311646 25.63140296936035 1.499999165534973 29.11230278015137 1.499999165534973 L 365.2407531738281 1.499999165534973 C 369.1139526367188 1.499999165534973 372.7553100585938 3.008349180221558 375.4940490722656 5.747148990631104 C 378.232666015625 8.485898971557617 379.7409057617188 12.12714958190918 379.7409057617188 16.00019836425781 L 379.7409057617188 60.59609985351562 C 379.7409057617188 64.46914672851562 378.232666015625 68.11039733886719 375.4940490722656 70.84915161132812 C 372.7553100585938 73.58795166015625 369.1139526367188 75.09629821777344 365.2407531738281 75.09629821777344 Z" stroke="none"/>
        <path d="M 365.2407531738281 73.59629821777344 C 368.7133178710938 73.59629821777344 371.9779663085938 72.24399566650391 374.433349609375 69.78849792480469 C 376.8887023925781 67.33304595947266 378.2409057617188 64.06845092773438 378.2409057617188 60.59609985351562 L 378.2409057617188 16.00019836425781 C 378.2409057617188 12.5278491973877 376.8887023925781 9.263249397277832 374.433349609375 6.807799339294434 C 371.9779663085938 4.352299213409424 368.7133178710938 2.999999046325684 365.2407531738281 2.999999046325684 L 29.11230278015137 2.999999046325684 C 25.99145317077637 2.999999046325684 22.97445297241211 4.121999263763428 20.61700248718262 6.159348964691162 C 18.28225326538086 8.177148818969727 16.73735237121582 10.95639896392822 16.26695251464844 13.98519897460938 L 15.75035285949707 17.31169891357422 L 12.50505256652832 16.41684913635254 C 12.33505249023438 16.36999893188477 12.16365242004395 16.3222484588623 11.99000263214111 16.27334976196289 C 10.07332515716553 15.73345565795898 8.215597152709961 15.03339958190918 6.463183403015137 14.19561576843262 C 7.237414360046387 15.5067138671875 8.164935111999512 16.82998275756836 9.269002914428711 18.06104850769043 C 10.62430286407471 19.57269859313965 12.34655284881592 20.82554817199707 14.38790321350098 21.78474998474121 L 16.11210250854492 22.59489822387695 L 16.11210250854492 60.59609985351562 C 16.11210250854492 64.06849670410156 17.46430206298828 67.33304595947266 19.91965293884277 69.78849792480469 C 22.37505340576172 72.24399566650391 25.6397533416748 73.59629821777344 29.11230278015137 73.59629821777344 L 365.2407531738281 73.59629821777344 M 365.2407531738281 76.59629821777344 L 29.11230278015137 76.59629821777344 C 20.27520370483398 76.59629821777344 13.11210250854492 69.43229675292969 13.11210250854492 60.59609985351562 L 13.11210250854492 24.49994850158691 C 11.03635311126709 23.52459907531738 8.870903015136719 22.11109924316406 7.035303115844727 20.06369972229004 C 1.495802879333496 13.88699913024902 2.880859483411768e-06 5.867999076843262 2.880859483411768e-06 5.867999076843262 C 2.880859483411768e-06 5.867999076843262 4.016702651977539 10.91069889068604 12.8034029006958 13.38569927215576 C 12.97180271148682 13.43314933776855 13.13785266876221 13.47939872741699 13.30250263214111 13.52479934692383 C 14.49230289459229 5.86384916305542 21.11715316772461 -8.911133022593276e-07 29.11230278015137 -8.911133022593276e-07 L 365.2407531738281 -8.911133022593276e-07 C 374.0777893066406 -8.911133022593276e-07 381.2409057617188 7.163999080657959 381.2409057617188 16.00019836425781 L 381.2409057617188 60.59609985351562 C 381.2409057617188 69.43229675292969 374.0777893066406 76.59629821777344 365.2407531738281 76.59629821777344 Z" stroke="none" fill="#333"/>
      </g>
      <rect id="長方形_14859" data-name="長方形 14859" width="180.877" height="8.032" transform="translate(28.071 55.979)" fill="#dcf7b1"/>
      <g id="グループ_9714" data-name="グループ 9714" transform="translate(31.318 10.423)">
        <path id="パス_94224" data-name="パス 94224" d="M-117.154-11.077v-1.577a5.366,5.366,0,0,1-.912.057h-10.773a7.148,7.148,0,0,1-1.387-.076l.551,1.577a3.346,3.346,0,0,1,1.045-.1h4.389v8.683h-6.194a9.353,9.353,0,0,1-1.045-.076l.57,1.672q.532-.038,1.045-.038h13.205a3.682,3.682,0,0,1,.76.076V-2.6a5.232,5.232,0,0,1-1.026.1h-5.852v-8.683h4.9A3.167,3.167,0,0,1-117.154-11.077Zm12.1,2.451.114.551V-.342a3.661,3.661,0,0,1-.1.912h1.691a4.114,4.114,0,0,1-.1-.912V-8.189l-.323-.76.038-.437a36.9,36.9,0,0,0,5.073-3.9q.627-.627.969-.95h.019l-1.6-1.1a2.179,2.179,0,0,1-.8,1.311,27.735,27.735,0,0,1-12.312,6.631l.741,1.558,1.9-.627A36.914,36.914,0,0,0-105.051-8.626Zm25.27,4.142.95-1.634a5.54,5.54,0,0,1-.874-.4A30.293,30.293,0,0,0-85.633-8.93L-88.6-9.709V-14.4a2.726,2.726,0,0,1,.1-.893l-1.672-.323a6.49,6.49,0,0,1,.076,1.14V-.342l-.076.722H-88.5a2.812,2.812,0,0,1-.1-.912V-8.208A24.467,24.467,0,0,1-84.113-6.84a33.729,33.729,0,0,1,3.61,1.8A3.041,3.041,0,0,1-79.781-4.484Zm16.663-10.564a7.022,7.022,0,0,1,1.577,3.5l1.273-.456a7.135,7.135,0,0,0-1.748-3.382Zm3.458-.722-1.14.3a6.068,6.068,0,0,1,1.577,3.515l1.254-.456A7.619,7.619,0,0,0-59.66-15.77ZM-60.724.456l.342-1.843a4.114,4.114,0,0,1-.912.1l-7.676.114q-1.843,0-1.843-2.641V-6.8L-60.287-9.69l-1.064-1.691a14.7,14.7,0,0,1-1.786.684,69.575,69.575,0,0,1-7.676,2.356v-4.921a2.591,2.591,0,0,1,.076-.589l-1.653-.323a3.769,3.769,0,0,1,.1,1.235V-3.61Q-72.314.342-69.065.342h7.391A2.886,2.886,0,0,1-60.724.456ZM-54.7-10.051A11.917,11.917,0,0,1-52.744-5.89l1.482-.342a13.021,13.021,0,0,0-2.09-4.313ZM-48.754-6.9l1.463-.494A11.506,11.506,0,0,0-49.362-11.7l-1.425.551A11.367,11.367,0,0,1-48.754-6.9ZM-52.972-.646-51.851.817q9.177-1.71,10.222-11.305l-1.52-.7Q-43.947-1.691-52.972-.646Zm30.191-3.838.95-1.634a5.54,5.54,0,0,1-.874-.4A30.293,30.293,0,0,0-28.633-8.93L-31.6-9.709V-14.4a2.726,2.726,0,0,1,.1-.893l-1.672-.323a6.49,6.49,0,0,1,.076,1.14V-.342l-.076.722H-31.5a2.812,2.812,0,0,1-.1-.912V-8.208A24.467,24.467,0,0,1-27.113-6.84a33.729,33.729,0,0,1,3.61,1.8A3.041,3.041,0,0,1-22.781-4.484ZM-9.272.057q.152,0,.437-.019,6.441-.589,6.46-7.3a6.5,6.5,0,0,0-1.539-4.294,6.112,6.112,0,0,0-4.921-2.185h-.209a6.707,6.707,0,0,0-2.584.494,7.6,7.6,0,0,0-2.907,2.09,8.026,8.026,0,0,0-2.28,5.263q0,4.56,2.033,4.56,3.914-.038,6.213-11.153a4.408,4.408,0,0,1,3.99,2.527,5.538,5.538,0,0,1,.7,2.755,5.54,5.54,0,0,1-2.09,4.75,5.151,5.151,0,0,1-2.983.8h-.475a3.629,3.629,0,0,1-.893-.133Zm-2.7-11.59a4.223,4.223,0,0,1,1.995-.722q-2.3,9.462-4.655,9.462-.779,0-.779-3.23Q-15.409-9.234-11.97-11.533ZM.836-.684,1.691,1.2H3.116q1.5,0,1.5-1.349V-5.586q.817-.361,1.615-.7V-7.771l-1.615.646v-3.249h.969a2.289,2.289,0,0,1,.684.1v-1.634a3.621,3.621,0,0,1-.874.1H4.617v-2.926a2.692,2.692,0,0,1,.1-.931H3.078a2.692,2.692,0,0,1,.1.931v2.926H2.3a5.034,5.034,0,0,1-1.254-.1v1.634a3.454,3.454,0,0,1,1.2-.1h.931v3.667A18.416,18.416,0,0,1,.38-5.871l1.159,1.71q.817-.475,1.634-.931V-.608q0,.4-.418.4A4.59,4.59,0,0,1,.836-.684Zm12.008-8.17H11.21a4.022,4.022,0,0,1,.095.893V-7.3H7.467a3.9,3.9,0,0,1-.931-.1v1.577a8.8,8.8,0,0,1,1.615-.095h2.736A12.136,12.136,0,0,1,5.206-1.425L6.688-.057l.551-.418a11.713,11.713,0,0,0,4.066-3.952V.323a3.933,3.933,0,0,1-.095.874h1.634a1.991,1.991,0,0,1-.1-.874V-4.484A12.278,12.278,0,0,0,16.682-.532q.646.418.665.513l1.311-1.406a11.817,11.817,0,0,1-5.491-4.484h3.952a2.837,2.837,0,0,1,.76.095V-7.391a8.8,8.8,0,0,1-1.615.1H12.749V-7.98A1.991,1.991,0,0,1,12.844-8.854ZM6.669-13.965,7.6-12.616a12.217,12.217,0,0,1,1.653-.19q4.5-.7,6.1-1.083,1.577-.38,1.767-.4l-1.292-1.33a.943.943,0,0,1-.475.266A52.154,52.154,0,0,1,6.669-13.965Zm.19,1.995Q8.493-9.519,8.493-8.626l1.558-.38a9.337,9.337,0,0,0-1.805-3.249Zm4.883,2.755L13.3-9.443a12.443,12.443,0,0,0-1.064-3.192l-1.52.133A7.983,7.983,0,0,1,11.742-9.215Zm4.712-4.047a9.47,9.47,0,0,1-1.083,2.755A7.537,7.537,0,0,1,14.193-8.8l1.52.4a21.31,21.31,0,0,0,2.223-4.237ZM27.778,0a3.432,3.432,0,0,1-.095.893h1.634a2.692,2.692,0,0,1-.1-.931v-4.6H34.1V-.8a.48.48,0,0,1-.513.494,8.512,8.512,0,0,1-2.869-.589L31.9,1.178l2.375-.019A1.092,1.092,0,0,0,35.53-.057V-14.934H21.546q.152,2.964.152,3.952v3.116q0,6.422-1.938,7.581l1.349,1.5q1.634-1.862,1.9-5.852h4.769Zm1.444-6.156V-9.082H34.1v2.926Zm-1.444,0H23.1q.038-.8.038-1.71V-9.082h4.636Zm1.444-4.427V-13.49H34.1v2.907Zm-1.444,0H23.123l-.038-2.888q.1-.019,4.693-.019Zm11.362-.95.285,1.691a4.95,4.95,0,0,1,1.121-.1h2.983v4.294a4.4,4.4,0,0,1-.1.855h1.615a6.488,6.488,0,0,1-.076-.988V-9.994h4.959v2.223q0,5.453-6.232,6.745L44.9.342q6.517-1.767,6.517-7.277v-3.078h3.61l.836.038-.19-1.653a1.721,1.721,0,0,1-.874.19l-3.382.019v-3.268a3.8,3.8,0,0,1,.1-.912l-1.672-.266a4.283,4.283,0,0,1,.095.912v3.534H44.973v-3.23a5.149,5.149,0,0,1,.076-.95l-1.615-.266a4.844,4.844,0,0,1,.1.988v3.458H40.014A1.758,1.758,0,0,1,39.14-11.533ZM65.949-8.626l.114.551V-.342a3.661,3.661,0,0,1-.1.912h1.691a4.114,4.114,0,0,1-.1-.912V-8.189l-.323-.76.038-.437a36.9,36.9,0,0,0,5.073-3.9q.627-.627.969-.95h.019l-1.6-1.1a2.179,2.179,0,0,1-.8,1.311A27.735,27.735,0,0,1,58.634-7.391l.741,1.558,1.9-.627A36.913,36.913,0,0,0,65.949-8.626Zm25.27,4.142.95-1.634a5.54,5.54,0,0,1-.874-.4A30.293,30.293,0,0,0,85.367-8.93L82.4-9.709V-14.4a2.726,2.726,0,0,1,.1-.893l-1.672-.323a6.49,6.49,0,0,1,.076,1.14V-.342L80.826.38H82.5a2.812,2.812,0,0,1-.1-.912V-8.208A24.467,24.467,0,0,1,86.887-6.84a33.729,33.729,0,0,1,3.61,1.8A3.041,3.041,0,0,1,91.219-4.484ZM112.86-5.757a22.637,22.637,0,0,0-4.351-7.22l-1.14.912A16.359,16.359,0,0,1,111.378-5ZM97.109-10.849l.513,1.729q2.394-.285,2.888-.4a21.665,21.665,0,0,1-3.8,8.626l1.444.76a21.176,21.176,0,0,0,3.743-9.5q1.824-.228,2.413-.228,1.273,0,1.273,1.786v.114q0,6.289-2.261,6.346a5.644,5.644,0,0,1-2.052-.627l.247,1.748a12.141,12.141,0,0,0,1.653.418h.665q2.413,0,3.116-6.118a13.92,13.92,0,0,0,.076-1.558q-.171-3.515-2.907-3.515l-1.881.228q.418-1.9.589-2.945.152-1.064.19-1.216l-1.881-.361q.019.133.019.874t-.418,3.8q-1.083.095-1.919.095Q97.964-10.792,97.109-10.849Zm29.013-1.083.057-1.558a25.935,25.935,0,0,1-6.346-2.052l-.057,1.748Q124.279-12.35,126.122-11.932Zm-1.311,3.4q-2.679,0-5.719,2.717a20.85,20.85,0,0,1,1.254-5.434l-1.672-.285q-.589,2.945-.988,6.783l1.235.874a6.423,6.423,0,0,1,2.223-1.976,8.612,8.612,0,0,1,3.61-1.2h.057q3.325,0,3.325,2.432,0,3.192-6.346,3.5-.7.038-2.337.038.475.722.988,1.444,9.158,0,9.158-4.807Q129.6-8.531,124.811-8.531ZM-158.1,15.626a2.686,2.686,0,0,1,.1-.722h-1.615a4.114,4.114,0,0,1,.1.912V26.38a3.388,3.388,0,0,1-.1.855H-158a3.3,3.3,0,0,1-.1-.836h13.471a3.55,3.55,0,0,1,.8.076V24.86a3.863,3.863,0,0,1-.893.095H-158.1Zm10.583.1v1.273h-7.068V15.721Zm0,3.8h-7.068V18.286h7.068Zm0,2.641h-7.068V20.794h7.068Zm-12.654-10.7V13.08a3.863,3.863,0,0,1,.893-.1h7.182v1.406h-3.952v8.93a2.023,2.023,0,0,1-.1.817h1.653a2.16,2.16,0,0,1-.1-.7h7.049a1.382,1.382,0,0,1-.1.7H-146a2.085,2.085,0,0,1-.076-.817v-8.93h-4.579V12.985h5.681a4.022,4.022,0,0,1,.893.1V11.465a3.863,3.863,0,0,1-.893.1h-5.681v-.608a2.829,2.829,0,0,1,.1-.817h-1.634a3.532,3.532,0,0,1,.1.855v.57h-7.182A2.523,2.523,0,0,1-160.17,11.465Zm18.506,13.851.855,1.9h1.425q1.5,0,1.5-1.368V20.414q.817-.342,1.615-.7V18.229l-1.615.646V15.626h.969a2.289,2.289,0,0,1,.684.1V14.087a3.621,3.621,0,0,1-.874.1h-.779V11.256a2.692,2.692,0,0,1,.1-.931h-1.634a2.692,2.692,0,0,1,.1.931v2.926h-.874a5.034,5.034,0,0,1-1.254-.1v1.634a3.454,3.454,0,0,1,1.2-.1h.931v3.667a18.416,18.416,0,0,1-2.793.836l1.159,1.71q.817-.475,1.634-.931v4.484q0,.4-.418.4A4.59,4.59,0,0,1-141.664,25.316Zm11.134-.95a9.431,9.431,0,0,1-4.1,1.178,18.185,18.185,0,0,1-1.938-.152l1.254,1.824a4.188,4.188,0,0,1,.76-.114,9.85,9.85,0,0,0,5.339-2.052,16.217,16.217,0,0,1,2.831,1.881l.589.608,1.349-1.2a14.375,14.375,0,0,1-1.292-.836,20.2,20.2,0,0,0-2.451-1.463,5.12,5.12,0,0,0,.855-1.311,6.068,6.068,0,0,0,.437-1.33h1.615a3.053,3.053,0,0,1,.779.095V19.863a3,3,0,0,1-.855.1h-5.149a12.007,12.007,0,0,0,.437-1.691h4.788a2.916,2.916,0,0,1,.779.095V16.709a3.235,3.235,0,0,1-.855.114h-2.28a4.832,4.832,0,0,0,.684-1.767l.247-1.254h.76a3.684,3.684,0,0,1,.855.095V12.282a4.246,4.246,0,0,1-.969.1h-3.344V11.2a2.556,2.556,0,0,1,.1-.855h-1.634a2.661,2.661,0,0,1,.1.855v1.178h-3.477a2.8,2.8,0,0,1-.836-.1V13.9a3.6,3.6,0,0,1,.836-.095h1.805l-1.444.475a1.437,1.437,0,0,1,.4.551,16.678,16.678,0,0,1,.874,1.995h-2.09a3.081,3.081,0,0,1-.969-.095v1.634a2.867,2.867,0,0,1,.969-.095h3.249a7.708,7.708,0,0,1-.551,1.691h-2.755a2.708,2.708,0,0,1-.912-.1V21.5a2.867,2.867,0,0,1,.969-.095h1.824a7.526,7.526,0,0,1-2.3,1.919l1.387,1.007q.3-.3.912-.836A12.524,12.524,0,0,1-130.53,24.366Zm2.337-10.564-.019.323a5.473,5.473,0,0,1-.836,2.7h-2.318a11.462,11.462,0,0,0-.589-1.843,12,12,0,0,1-.437-1.178Zm-3.781,8.664a9.327,9.327,0,0,0,.741-1.064h3a4.1,4.1,0,0,1-1.178,2.052A14.091,14.091,0,0,0-131.974,22.466Zm21.945-11.989a9.021,9.021,0,0,1,1.672,4.256l1.349-.475a9.494,9.494,0,0,0-1.824-4.161Zm3.591-.76-1.216.323a8.493,8.493,0,0,1,1.691,4.275l1.33-.494A10.089,10.089,0,0,0-106.438,9.717Zm-3.116,4.674V12.7a18.87,18.87,0,0,1-3.344.3,25.292,25.292,0,0,1-6.631-.646l.19,1.653,3.23.247a35.8,35.8,0,0,0,3.591.133Zm.494,10.45a9.126,9.126,0,0,0,1.159-.38l-.836-1.615a5.77,5.77,0,0,1-1.5.7,19.6,19.6,0,0,1-4.845.589h-.076q-4.37,0-4.37-2.413a2.417,2.417,0,0,1,.38-1.216,4.16,4.16,0,0,1,1.159-1.216l-.855-1.178a5.765,5.765,0,0,0-1.6,1.691,3.82,3.82,0,0,0-.57,1.995,3.041,3.041,0,0,0,1.2,2.47,7.579,7.579,0,0,0,4.959,1.349A19.1,19.1,0,0,0-109.06,24.841Zm15.808-12.692V10.99a2.474,2.474,0,0,1,.1-.836h-1.634a1.775,1.775,0,0,1,.1.817v1.178h-7.619q.228,2.812.228,5.4,0,7.353-1.653,8.531l1.539,1.368a4.336,4.336,0,0,1,.361-.969q1.216-2.888,1.216-9.291l-.133-3.705H-87.78a2.855,2.855,0,0,1,.874.1v-1.52a1.991,1.991,0,0,1-.874.095Zm2.546,10.3q.057.646.057,1.216,0,2.052-1.178,2.052h-2.546q-.475,0-.475-.855V17.678a3.477,3.477,0,0,1,.1-.874h-1.634a1.991,1.991,0,0,1,.1.874v7.638q0,1.843,1.634,1.843h3.192q1.672,0,2.071-2.014l.266-1.577Zm-1.311-3.42,1.387-1.045a19.866,19.866,0,0,0-2.85-3.344l-.608-.646-1.292.741A12.2,12.2,0,0,1-92.017,19.027Zm4.123,6,1.672-.76a14.326,14.326,0,0,0-2.223-5.548l-1.311.494q1.007,1.007,1.729,4.427A5.9,5.9,0,0,1-87.894,25.031Zm-12.939-.836,1.577,1.292a16.058,16.058,0,0,0,1.6-5,4.5,4.5,0,0,1,.3-1.311l-1.577-.4Q-99.18,23.3-100.833,24.195Zm23.674-2.071h-2.983a15.451,15.451,0,0,0,1.976-1.482H-73.3q.114.1.646.57a10.58,10.58,0,0,0,1.083.912h-4.1a8.17,8.17,0,0,1,.266-1.026l-1.634-.266a2.556,2.556,0,0,1,.038.513A2.407,2.407,0,0,1-77.159,22.124Zm4.883-12.084H-73.91a1.263,1.263,0,0,1,.1.665v.513h-4.351V10.7a3.062,3.062,0,0,1,.076-.665h-1.615a1.322,1.322,0,0,1,.1.684v.494h-3.705a4,4,0,0,1-.95-.095v1.5a4.472,4.472,0,0,1,.95-.095h3.724a2.057,2.057,0,0,1-.114.874h1.634a1.991,1.991,0,0,1-.1-.874h4.351a2.539,2.539,0,0,1-.1.874h1.634a1.991,1.991,0,0,1-.1-.874h3.686a4.305,4.305,0,0,1,.95.095v-1.5a4.472,4.472,0,0,1-.95.095h-3.686V10.7A1.63,1.63,0,0,1-72.276,10.04ZM-67.07,22.6a8.214,8.214,0,0,1-4.446-1.957h3a3.3,3.3,0,0,1,.893.095v-1.5a4.325,4.325,0,0,1-.931.076h-8.322l.627-.722h4.237l-.057.38h1.615a4.376,4.376,0,0,1-.1-.931V13.593H-81.453V18a4.246,4.246,0,0,1-.095.969h1.615l-.038-.38h2.147a8.073,8.073,0,0,1-.741.722H-83.5a2.44,2.44,0,0,1-.874-.1v1.52a3.6,3.6,0,0,1,.836-.095h3.249a13.816,13.816,0,0,1-4.636,2.014l.912,1.577q.608-.323,1.311-.665t1.444-.779v.741a3.684,3.684,0,0,1,.855-.095h2.565A6.616,6.616,0,0,1-83.2,25.772l1.121,1.653q.019-.076.722-.228a7.288,7.288,0,0,0,5.206-3.762l3.61-.019q-.361,2.356-.646,2.394l-.57.057a7.483,7.483,0,0,1-2.451-.38l.855,1.672,2.242.057h.019q1.5,0,1.843-2.565l.228-1.843.019-.285a10.043,10.043,0,0,0,3.078,1.672Zm-12.939-5.187v-.684h8.037v.684Zm0-1.862v-.7h8.037v.7Zm21.337,2.337a1.608,1.608,0,0,0,.494,1.178A1.608,1.608,0,0,0-57,19.559a1.608,1.608,0,0,0,1.178-.494,1.608,1.608,0,0,0,.494-1.178,1.608,1.608,0,0,0-.494-1.178A1.608,1.608,0,0,0-57,16.215a1.608,1.608,0,0,0-1.178.494A1.608,1.608,0,0,0-58.672,17.887Zm24.643-7.41a9.021,9.021,0,0,1,1.672,4.256l1.349-.475A9.494,9.494,0,0,0-32.832,10.1Zm3.591-.76-1.216.323a8.493,8.493,0,0,1,1.691,4.275l1.33-.494A10.089,10.089,0,0,0-30.438,9.717Zm-3.116,4.674V12.7A18.87,18.87,0,0,1-36.9,13a25.292,25.292,0,0,1-6.631-.646l.19,1.653,3.23.247a35.8,35.8,0,0,0,3.591.133Zm.494,10.45a9.126,9.126,0,0,0,1.159-.38l-.836-1.615a5.77,5.77,0,0,1-1.5.7,19.6,19.6,0,0,1-4.845.589h-.076q-4.37,0-4.37-2.413a2.417,2.417,0,0,1,.38-1.216,4.16,4.16,0,0,1,1.159-1.216l-.855-1.178a5.765,5.765,0,0,0-1.6,1.691,3.82,3.82,0,0,0-.57,1.995,3.041,3.041,0,0,0,1.2,2.47,7.579,7.579,0,0,0,4.959,1.349A19.1,19.1,0,0,0-33.06,24.841Zm21.736,2.413,1.159-1.653a10.075,10.075,0,0,1-6.27-5.168q-1.52-2.66-1.767-8.037,0-.361-.038-1.52h-4.37a3.388,3.388,0,0,1-.855-.095V12.4a7.877,7.877,0,0,1,1.311-.076h2.432a20.789,20.789,0,0,1-.931,6.156q-2.109,5.586-7.163,7.125l1.235,1.653q.589-.4.8-.513a13.543,13.543,0,0,0,6.84-9.025q1.767,6.251,6.061,8.588a8.738,8.738,0,0,0,.836.475A2.7,2.7,0,0,1-11.324,27.254ZM7.657,17.735a2.36,2.36,0,0,1,.7.095V16.215a7.352,7.352,0,0,1-1.273.076H4.522V11.237a4.372,4.372,0,0,1,.1-.893H3a3.684,3.684,0,0,1,.1.855v5.092H.133a1.99,1.99,0,0,1-.874-.1V17.83a5.909,5.909,0,0,1,1.273-.095H3.1v7.239H-.76L-1.6,24.9v1.615a3.361,3.361,0,0,1,.817-.1h8.8a1.938,1.938,0,0,1,.817.1V24.9a3.414,3.414,0,0,1-.741.076H4.522V17.735Zm-8.341,3.04a3.736,3.736,0,0,1-.741-.494l-2.128-1.748A17.287,17.287,0,0,0-1.52,15.7a10.37,10.37,0,0,0,.646-1.235l-.988-1.14H-3.876V11.37A4.716,4.716,0,0,1-3.8,10.306H-5.415a2.22,2.22,0,0,1,.1.665v2.356H-7.068a3.621,3.621,0,0,1-.874-.095v1.615a6.259,6.259,0,0,1,1.1-.1H-2.6A17,17,0,0,1-8.93,21.288L-7.9,22.865l2.584-2.413v5.89a3.772,3.772,0,0,1-.1.874H-3.8l-.076-.931V20.167l2.356,2.47Zm12.122-4.123q.532,8.075,3.952,9.519l1.349-.418a11.015,11.015,0,0,1,.228-1.14,13.591,13.591,0,0,1,1.045-2.7l.3-.627-1.273-1.463a14.258,14.258,0,0,0-1.368,4.37q-2.185-.722-2.812-7.752a9.805,9.805,0,0,1-.038-1.121q0-.874.171-2.489l-1.786-.266q.1.893.152,2.185Zm13.794,5.8,1.558-1.064a12.279,12.279,0,0,0-.779-3.781,11.164,11.164,0,0,0-3.192-4.427l-1.064.627a10.9,10.9,0,0,1,2.793,4.1A15.217,15.217,0,0,1,25.232,22.447Zm20.425,3.4V24.119l-.4.1a23.505,23.505,0,0,1-3.363.247q-3.819,0-3.819-1.254a1.671,1.671,0,0,1,1.14-1.6l-.722-.893a2.671,2.671,0,0,0-1.786,2.6q0,2.584,5.4,2.584h1.843Q45.163,25.905,45.657,25.848Zm-.646-8.018V16.253a9.434,9.434,0,0,0-1.52-.095,19.136,19.136,0,0,0-5.947.8l.171,1.254a21.047,21.047,0,0,1,4.408-.646A14.192,14.192,0,0,1,45.011,17.83ZM30.248,26.171l1.672.361a58.093,58.093,0,0,0,3.838-11.913q3.173-.114,5.757-.4V12.586a31.833,31.833,0,0,1-5.624.57l.532-2.812a8.1,8.1,0,0,1-1.558-.133q.019.3.019,1.007a8.9,8.9,0,0,1-.323,2q-.665.057-1.976.057t-2.223-.019l.361,1.482q1.71,0,3.5-.076A50.619,50.619,0,0,1,30.248,26.171Zm34.01-.323V24.119l-.4.1a23.505,23.505,0,0,1-3.363.247q-3.819,0-3.819-1.254a1.671,1.671,0,0,1,1.14-1.6l-.722-.893a2.671,2.671,0,0,0-1.786,2.6q0,2.584,5.4,2.584h1.843Q63.764,25.905,64.258,25.848Zm-.646-8.018V16.253a9.434,9.434,0,0,0-1.52-.095,19.136,19.136,0,0,0-5.947.8l.171,1.254a21.047,21.047,0,0,1,4.408-.646A14.192,14.192,0,0,1,63.612,17.83ZM48.849,26.171l1.672.361a58.093,58.093,0,0,0,3.838-11.913q3.173-.114,5.757-.4V12.586a31.833,31.833,0,0,1-5.624.57l.532-2.812a8.1,8.1,0,0,1-1.558-.133q.019.3.019,1.007a8.894,8.894,0,0,1-.323,2q-.665.057-1.976.057t-2.223-.019l.361,1.482q1.71,0,3.5-.076A50.619,50.619,0,0,1,48.849,26.171ZM60.705,11.028a9.021,9.021,0,0,1,1.672,4.256l1.349-.475A9.494,9.494,0,0,0,61.9,10.648Zm3.591-.76-1.216.323a8.493,8.493,0,0,1,1.691,4.275l1.33-.494A10.089,10.089,0,0,0,64.3,10.268Zm4.142,6.384q.532,8.075,3.952,9.519l1.349-.418a11.016,11.016,0,0,1,.228-1.14,13.591,13.591,0,0,1,1.045-2.7l.3-.627-1.273-1.463a14.258,14.258,0,0,0-1.368,4.37q-2.185-.722-2.812-7.752a9.8,9.8,0,0,1-.038-1.121q0-.874.171-2.489l-1.786-.266q.095.893.152,2.185Zm13.794,5.8,1.558-1.064a12.278,12.278,0,0,0-.779-3.781,11.164,11.164,0,0,0-3.192-4.427l-1.064.627a10.9,10.9,0,0,1,2.793,4.1A15.217,15.217,0,0,1,82.232,22.447Zm20.425,3.4V24.119l-.4.1a23.505,23.505,0,0,1-3.363.247q-3.819,0-3.819-1.254a1.671,1.671,0,0,1,1.14-1.6l-.722-.893a2.671,2.671,0,0,0-1.786,2.6q0,2.584,5.4,2.584h1.843Q102.163,25.905,102.657,25.848Zm-.646-8.018V16.253a9.434,9.434,0,0,0-1.52-.095,19.136,19.136,0,0,0-5.947.8l.171,1.254a21.047,21.047,0,0,1,4.408-.646A14.192,14.192,0,0,1,102.011,17.83ZM87.248,26.171l1.672.361a58.093,58.093,0,0,0,3.838-11.913q3.173-.114,5.757-.4V12.586a31.833,31.833,0,0,1-5.624.57l.532-2.812a8.1,8.1,0,0,1-1.558-.133q.019.3.019,1.007a8.894,8.894,0,0,1-.323,2q-.665.057-1.976.057t-2.223-.019l.361,1.482q1.71,0,3.5-.076A50.619,50.619,0,0,1,87.248,26.171Zm25.517-8.531a26.731,26.731,0,0,0,.418-3.021h8.569a2.412,2.412,0,0,1,.684.095V13.061a1.706,1.706,0,0,1-.8.1H114.7V10.8a2.254,2.254,0,0,1,.076-.646h-1.615a2.22,2.22,0,0,1,.1.665v2.337h-6.8a2.44,2.44,0,0,1-.874-.1v1.653a3.445,3.445,0,0,1,.836-.095h5.168q-.8,8.455-5.947,11.115l1.273,1.558a14.11,14.11,0,0,0,5.491-8.151h6.65a39.495,39.495,0,0,1-.817,6.327q-.038.19-1.406.19a8.236,8.236,0,0,1-2.622-.418l1.007,1.919H117.9q1.786,0,2.052-1.5a53.394,53.394,0,0,0,.817-7.315l-.95-.7Zm23.218,1.539-1.52.418,1.1,1.995a16.677,16.677,0,0,0,4.617,5.206,8.562,8.562,0,0,0,.836.532l1.1-1.482a8,8,0,0,1-4.047-2.907,21.171,21.171,0,0,0,1.824-1.615l1.216-1.216-1.539-.608a9.445,9.445,0,0,1-2.242,2.375A9.238,9.238,0,0,1,135.983,19.179Zm-3.249,6.973,2.166-.76a4.679,4.679,0,0,1,.912-.266v-1.71a4.089,4.089,0,0,1-1.083.551,21.024,21.024,0,0,1-2.185.722v-6H138.3l-.076.608h1.615a4.208,4.208,0,0,1-.1-.931V10.61h-8.626v14.5a8.692,8.692,0,0,1-1.976.266h-.665l.874,1.71a5.292,5.292,0,0,1,1.064-.285Q131.176,26.627,132.734,26.152Zm-3.99-2.888a2.75,2.75,0,0,0,1.406-2.7,8.219,8.219,0,0,0-1.919-4.617V15.93l1.862-4.332-.912-1.045h-4.826V26.532a2.412,2.412,0,0,1-.1.684h1.634a2.359,2.359,0,0,1-.095-.855V12h2.565l-1.653,4.427a6.725,6.725,0,0,1,.722.646,4.866,4.866,0,0,1,1.159,3.572q0,1.406-.855,1.406a3.869,3.869,0,0,1-1.387-.665l.456,1.9a2.183,2.183,0,0,0,.931.171A2.505,2.505,0,0,0,128.744,23.264Zm3.8-8H138.3v2.052h-5.757Zm0-1.33V12.054H138.3v1.881Zm20.178,11.1v-3.7h4.009a3.8,3.8,0,0,1,.912.095V19.787a9.417,9.417,0,0,1-1.463.1h-3.458V16.994h4.066a4.4,4.4,0,0,1,1.1.1V15.474a6.066,6.066,0,0,1-1.159.076H147.06a2.779,2.779,0,0,1-.95-.1v1.634a4.05,4.05,0,0,1,.931-.1h4.237v7.524a4.387,4.387,0,0,1-2.869-2.831,4.81,4.81,0,0,1-.3-1.254q.057-.475.133-1.254a2.766,2.766,0,0,1,.133-.874l-1.615-.057.038.38a11.735,11.735,0,0,1-.076,1.463q-.532,4.161-3.648,5.719a3.124,3.124,0,0,1,1.159,1.5,9.686,9.686,0,0,0,3.4-4.788,5.823,5.823,0,0,0,1.881,2.508,8.446,8.446,0,0,0,3.572,1.558,36.956,36.956,0,0,0,6.061.57,6.349,6.349,0,0,1,1.064.114,9.384,9.384,0,0,1,.589-1.786,3.089,3.089,0,0,1-1.2.152A28.332,28.332,0,0,1,152.722,25.031Zm5.928-9.519a1.765,1.765,0,0,1-.1.627h1.615a2.511,2.511,0,0,1-.076-.646V12h-7.372v-1.1q0-.779.1-.855h-1.634a1.845,1.845,0,0,1,.1.836V12h-7.391v3.211a3.123,3.123,0,0,1-.095.931h1.615a3.24,3.24,0,0,1-.1-.931V13.441H158.65Z" transform="translate(161 21)" fill="#333"/>
      </g>
    </g>
  </g>
</svg>
