<svg xmlns="http://www.w3.org/2000/svg" xmlns:xlink="http://www.w3.org/1999/xlink" width="529.076" height="125.389" viewBox="0 0 529.076 125.389">
  <defs>
    <clipPath id="clip-path">
      <ellipse id="楕円形_108" data-name="楕円形 108" cx="62.694" cy="62.694" rx="62.694" ry="62.694" fill="none" stroke="#333" stroke-width="3"/>
    </clipPath>
  </defs>
  <g id="グループ_10033" data-name="グループ 10033" transform="translate(-157.611 -241.437)">
    <g id="グループ_9716" data-name="グループ 9716" transform="translate(305.446 273.206)">
      <g id="合体_65" data-name="合体 65" transform="translate(0 0)" fill="#faf4ed">
        <path d="M 365.2407531738281 75.09629821777344 L 29.11230278015137 75.09629821777344 C 25.23905372619629 75.09629821777344 21.59770202636719 73.58795166015625 18.85895347595215 70.84915161132812 C 16.12035369873047 68.11039733886719 14.61210250854492 64.46914672851562 14.61210250854492 60.59609985351562 L 14.61210250854492 24.49994850158691 L 14.61210250854492 23.54744911193848 L 13.75000286102295 23.14234924316406 C 11.52575302124023 22.09719848632812 9.642353057861328 20.7244987487793 8.152153015136719 19.06239891052246 C 5.563121318817139 16.17552185058594 3.920330286026001 12.83866882324219 2.974702119827271 10.45527172088623 C 5.180422782897949 11.98636245727539 8.296117782592773 13.67446804046631 12.39670276641846 14.82949924468994 C 12.56770324707031 14.87769889831543 12.73645305633545 14.92469882965088 12.9038028717041 14.97084903717041 L 14.52640247344971 15.41824913024902 L 14.78475284576416 13.7549991607666 C 15.30965328216553 10.37509918212891 17.03260231018066 7.274549007415771 19.63620376586914 5.024448871612549 C 22.26605224609375 2.751649141311646 25.63140296936035 1.499999165534973 29.11230278015137 1.499999165534973 L 365.2407531738281 1.499999165534973 C 369.1139526367188 1.499999165534973 372.7553100585938 3.008349180221558 375.4940490722656 5.747148990631104 C 378.232666015625 8.485898971557617 379.7409057617188 12.12714958190918 379.7409057617188 16.00019836425781 L 379.7409057617188 60.59609985351562 C 379.7409057617188 64.46914672851562 378.232666015625 68.11039733886719 375.4940490722656 70.84915161132812 C 372.7553100585938 73.58795166015625 369.1139526367188 75.09629821777344 365.2407531738281 75.09629821777344 Z" stroke="none"/>
        <path d="M 365.2407531738281 73.59629821777344 C 368.7133178710938 73.59629821777344 371.9779663085938 72.24399566650391 374.433349609375 69.78849792480469 C 376.8887023925781 67.33304595947266 378.2409057617188 64.06845092773438 378.2409057617188 60.59609985351562 L 378.2409057617188 16.00019836425781 C 378.2409057617188 12.5278491973877 376.8887023925781 9.263249397277832 374.433349609375 6.807799339294434 C 371.9779663085938 4.352299213409424 368.7133178710938 2.999999046325684 365.2407531738281 2.999999046325684 L 29.11230278015137 2.999999046325684 C 25.99145317077637 2.999999046325684 22.97445297241211 4.121999263763428 20.61700248718262 6.159348964691162 C 18.28225326538086 8.177148818969727 16.73735237121582 10.95639896392822 16.26695251464844 13.98519897460938 L 15.75035285949707 17.31169891357422 L 12.50505256652832 16.41684913635254 C 12.33505249023438 16.36999893188477 12.16365242004395 16.3222484588623 11.99000263214111 16.27334976196289 C 10.07332515716553 15.73345565795898 8.215597152709961 15.03339958190918 6.463183403015137 14.19561576843262 C 7.237414360046387 15.5067138671875 8.164935111999512 16.82998275756836 9.269002914428711 18.06104850769043 C 10.62430286407471 19.57269859313965 12.34655284881592 20.82554817199707 14.38790321350098 21.78474998474121 L 16.11210250854492 22.59489822387695 L 16.11210250854492 60.59609985351562 C 16.11210250854492 64.06849670410156 17.46430206298828 67.33304595947266 19.91965293884277 69.78849792480469 C 22.37505340576172 72.24399566650391 25.6397533416748 73.59629821777344 29.11230278015137 73.59629821777344 L 365.2407531738281 73.59629821777344 M 365.2407531738281 76.59629821777344 L 29.11230278015137 76.59629821777344 C 20.27520370483398 76.59629821777344 13.11210250854492 69.43229675292969 13.11210250854492 60.59609985351562 L 13.11210250854492 24.49994850158691 C 11.03635311126709 23.52459907531738 8.870903015136719 22.11109924316406 7.035303115844727 20.06369972229004 C 1.495802879333496 13.88699913024902 2.880859483411768e-06 5.867999076843262 2.880859483411768e-06 5.867999076843262 C 2.880859483411768e-06 5.867999076843262 4.016702651977539 10.91069889068604 12.8034029006958 13.38569927215576 C 12.97180271148682 13.43314933776855 13.13785266876221 13.47939872741699 13.30250263214111 13.52479934692383 C 14.49230289459229 5.86384916305542 21.11715316772461 -8.911133022593276e-07 29.11230278015137 -8.911133022593276e-07 L 365.2407531738281 -8.911133022593276e-07 C 374.0777893066406 -8.911133022593276e-07 381.2409057617188 7.163999080657959 381.2409057617188 16.00019836425781 L 381.2409057617188 60.59609985351562 C 381.2409057617188 69.43229675292969 374.0777893066406 76.59629821777344 365.2407531738281 76.59629821777344 Z" stroke="none" fill="#333"/>
      </g>
      <rect id="長方形_14859" data-name="長方形 14859" width="180.877" height="8.032" transform="translate(28.071 55.979)" fill="#dcf7b1"/>
      <g id="グループ_9714" data-name="グループ 9714" transform="translate(31.318 10.423)">
        <path id="パス_94216" data-name="パス 94216" d="M-117.154-11.077v-1.577a5.366,5.366,0,0,1-.912.057h-10.773a7.148,7.148,0,0,1-1.387-.076l.551,1.577a3.346,3.346,0,0,1,1.045-.1h4.389v8.683h-6.194a9.353,9.353,0,0,1-1.045-.076l.57,1.672q.532-.038,1.045-.038h13.205a3.682,3.682,0,0,1,.76.076V-2.6a5.232,5.232,0,0,1-1.026.1h-5.852v-8.683h4.9A3.167,3.167,0,0,1-117.154-11.077Zm12.1,2.451.114.551V-.342a3.661,3.661,0,0,1-.1.912h1.691a4.114,4.114,0,0,1-.1-.912V-8.189l-.323-.76.038-.437a36.9,36.9,0,0,0,5.073-3.9q.627-.627.969-.95h.019l-1.6-1.1a2.179,2.179,0,0,1-.8,1.311,27.735,27.735,0,0,1-12.312,6.631l.741,1.558,1.9-.627A36.914,36.914,0,0,0-105.051-8.626Zm25.27,4.142.95-1.634a5.54,5.54,0,0,1-.874-.4A30.293,30.293,0,0,0-85.633-8.93L-88.6-9.709V-14.4a2.726,2.726,0,0,1,.1-.893l-1.672-.323a6.49,6.49,0,0,1,.076,1.14V-.342l-.076.722H-88.5a2.812,2.812,0,0,1-.1-.912V-8.208A24.467,24.467,0,0,1-84.113-6.84a33.729,33.729,0,0,1,3.61,1.8A3.041,3.041,0,0,1-79.781-4.484Zm16.663-10.564a7.022,7.022,0,0,1,1.577,3.5l1.273-.456a7.135,7.135,0,0,0-1.748-3.382Zm3.458-.722-1.14.3a6.068,6.068,0,0,1,1.577,3.515l1.254-.456A7.619,7.619,0,0,0-59.66-15.77ZM-60.724.456l.342-1.843a4.114,4.114,0,0,1-.912.1l-7.676.114q-1.843,0-1.843-2.641V-6.8L-60.287-9.69l-1.064-1.691a14.7,14.7,0,0,1-1.786.684,69.575,69.575,0,0,1-7.676,2.356v-4.921a2.591,2.591,0,0,1,.076-.589l-1.653-.323a3.769,3.769,0,0,1,.1,1.235V-3.61Q-72.314.342-69.065.342h7.391A2.886,2.886,0,0,1-60.724.456ZM-54.7-10.051A11.917,11.917,0,0,1-52.744-5.89l1.482-.342a13.021,13.021,0,0,0-2.09-4.313ZM-48.754-6.9l1.463-.494A11.506,11.506,0,0,0-49.362-11.7l-1.425.551A11.367,11.367,0,0,1-48.754-6.9ZM-52.972-.646-51.851.817q9.177-1.71,10.222-11.305l-1.52-.7Q-43.947-1.691-52.972-.646Zm30.191-3.838.95-1.634a5.54,5.54,0,0,1-.874-.4A30.293,30.293,0,0,0-28.633-8.93L-31.6-9.709V-14.4a2.726,2.726,0,0,1,.1-.893l-1.672-.323a6.49,6.49,0,0,1,.076,1.14V-.342l-.076.722H-31.5a2.812,2.812,0,0,1-.1-.912V-8.208A24.467,24.467,0,0,1-27.113-6.84a33.729,33.729,0,0,1,3.61,1.8A3.041,3.041,0,0,1-22.781-4.484ZM-9.272.057q.152,0,.437-.019,6.441-.589,6.46-7.3a6.5,6.5,0,0,0-1.539-4.294,6.112,6.112,0,0,0-4.921-2.185h-.209a6.707,6.707,0,0,0-2.584.494,7.6,7.6,0,0,0-2.907,2.09,8.026,8.026,0,0,0-2.28,5.263q0,4.56,2.033,4.56,3.914-.038,6.213-11.153a4.408,4.408,0,0,1,3.99,2.527,5.538,5.538,0,0,1,.7,2.755,5.54,5.54,0,0,1-2.09,4.75,5.151,5.151,0,0,1-2.983.8h-.475a3.629,3.629,0,0,1-.893-.133Zm-2.7-11.59a4.223,4.223,0,0,1,1.995-.722q-2.3,9.462-4.655,9.462-.779,0-.779-3.23Q-15.409-9.234-11.97-11.533ZM.836-.684,1.691,1.2H3.116q1.5,0,1.5-1.349V-5.586q.817-.361,1.615-.7V-7.771l-1.615.646v-3.249h.969a2.289,2.289,0,0,1,.684.1v-1.634a3.621,3.621,0,0,1-.874.1H4.617v-2.926a2.692,2.692,0,0,1,.1-.931H3.078a2.692,2.692,0,0,1,.1.931v2.926H2.3a5.034,5.034,0,0,1-1.254-.1v1.634a3.454,3.454,0,0,1,1.2-.1h.931v3.667A18.416,18.416,0,0,1,.38-5.871l1.159,1.71q.817-.475,1.634-.931V-.608q0,.4-.418.4A4.59,4.59,0,0,1,.836-.684Zm12.008-8.17H11.21a4.022,4.022,0,0,1,.095.893V-7.3H7.467a3.9,3.9,0,0,1-.931-.1v1.577a8.8,8.8,0,0,1,1.615-.095h2.736A12.136,12.136,0,0,1,5.206-1.425L6.688-.057l.551-.418a11.713,11.713,0,0,0,4.066-3.952V.323a3.933,3.933,0,0,1-.095.874h1.634a1.991,1.991,0,0,1-.1-.874V-4.484A12.278,12.278,0,0,0,16.682-.532q.646.418.665.513l1.311-1.406a11.817,11.817,0,0,1-5.491-4.484h3.952a2.837,2.837,0,0,1,.76.095V-7.391a8.8,8.8,0,0,1-1.615.1H12.749V-7.98A1.991,1.991,0,0,1,12.844-8.854ZM6.669-13.965,7.6-12.616a12.217,12.217,0,0,1,1.653-.19q4.5-.7,6.1-1.083,1.577-.38,1.767-.4l-1.292-1.33a.943.943,0,0,1-.475.266A52.154,52.154,0,0,1,6.669-13.965Zm.19,1.995Q8.493-9.519,8.493-8.626l1.558-.38a9.337,9.337,0,0,0-1.805-3.249Zm4.883,2.755L13.3-9.443a12.443,12.443,0,0,0-1.064-3.192l-1.52.133A7.983,7.983,0,0,1,11.742-9.215Zm4.712-4.047a9.47,9.47,0,0,1-1.083,2.755A7.537,7.537,0,0,1,14.193-8.8l1.52.4a21.31,21.31,0,0,0,2.223-4.237ZM27.778,0a3.432,3.432,0,0,1-.095.893h1.634a2.692,2.692,0,0,1-.1-.931v-4.6H34.1V-.8a.48.48,0,0,1-.513.494,8.512,8.512,0,0,1-2.869-.589L31.9,1.178l2.375-.019A1.092,1.092,0,0,0,35.53-.057V-14.934H21.546q.152,2.964.152,3.952v3.116q0,6.422-1.938,7.581l1.349,1.5q1.634-1.862,1.9-5.852h4.769Zm1.444-6.156V-9.082H34.1v2.926Zm-1.444,0H23.1q.038-.8.038-1.71V-9.082h4.636Zm1.444-4.427V-13.49H34.1v2.907Zm-1.444,0H23.123l-.038-2.888q.1-.019,4.693-.019Zm11.362-.95.285,1.691a4.95,4.95,0,0,1,1.121-.1h2.983v4.294a4.4,4.4,0,0,1-.1.855h1.615a6.488,6.488,0,0,1-.076-.988V-9.994h4.959v2.223q0,5.453-6.232,6.745L44.9.342q6.517-1.767,6.517-7.277v-3.078h3.61l.836.038-.19-1.653a1.721,1.721,0,0,1-.874.19l-3.382.019v-3.268a3.8,3.8,0,0,1,.1-.912l-1.672-.266a4.283,4.283,0,0,1,.095.912v3.534H44.973v-3.23a5.149,5.149,0,0,1,.076-.95l-1.615-.266a4.844,4.844,0,0,1,.1.988v3.458H40.014A1.758,1.758,0,0,1,39.14-11.533ZM65.949-8.626l.114.551V-.342a3.661,3.661,0,0,1-.1.912h1.691a4.114,4.114,0,0,1-.1-.912V-8.189l-.323-.76.038-.437a36.9,36.9,0,0,0,5.073-3.9q.627-.627.969-.95h.019l-1.6-1.1a2.179,2.179,0,0,1-.8,1.311A27.735,27.735,0,0,1,58.634-7.391l.741,1.558,1.9-.627A36.913,36.913,0,0,0,65.949-8.626Zm25.27,4.142.95-1.634a5.54,5.54,0,0,1-.874-.4A30.293,30.293,0,0,0,85.367-8.93L82.4-9.709V-14.4a2.726,2.726,0,0,1,.1-.893l-1.672-.323a6.49,6.49,0,0,1,.076,1.14V-.342L80.826.38H82.5a2.812,2.812,0,0,1-.1-.912V-8.208A24.467,24.467,0,0,1,86.887-6.84a33.729,33.729,0,0,1,3.61,1.8A3.041,3.041,0,0,1,91.219-4.484ZM112.86-5.757a22.637,22.637,0,0,0-4.351-7.22l-1.14.912A16.359,16.359,0,0,1,111.378-5ZM97.109-10.849l.513,1.729q2.394-.285,2.888-.4a21.665,21.665,0,0,1-3.8,8.626l1.444.76a21.176,21.176,0,0,0,3.743-9.5q1.824-.228,2.413-.228,1.273,0,1.273,1.786v.114q0,6.289-2.261,6.346a5.644,5.644,0,0,1-2.052-.627l.247,1.748a12.141,12.141,0,0,0,1.653.418h.665q2.413,0,3.116-6.118a13.92,13.92,0,0,0,.076-1.558q-.171-3.515-2.907-3.515l-1.881.228q.418-1.9.589-2.945.152-1.064.19-1.216l-1.881-.361q.019.133.019.874t-.418,3.8q-1.083.095-1.919.095Q97.964-10.792,97.109-10.849Zm29.013-1.083.057-1.558a25.935,25.935,0,0,1-6.346-2.052l-.057,1.748Q124.279-12.35,126.122-11.932Zm-1.311,3.4q-2.679,0-5.719,2.717a20.85,20.85,0,0,1,1.254-5.434l-1.672-.285q-.589,2.945-.988,6.783l1.235.874a6.423,6.423,0,0,1,2.223-1.976,8.612,8.612,0,0,1,3.61-1.2h.057q3.325,0,3.325,2.432,0,3.192-6.346,3.5-.7.038-2.337.038.475.722.988,1.444,9.158,0,9.158-4.807Q129.6-8.531,124.811-8.531ZM-158.1,15.626a2.686,2.686,0,0,1,.1-.722h-1.615a4.114,4.114,0,0,1,.1.912V26.38a3.388,3.388,0,0,1-.1.855H-158a3.3,3.3,0,0,1-.1-.836h13.471a3.55,3.55,0,0,1,.8.076V24.86a3.863,3.863,0,0,1-.893.095H-158.1Zm10.583.1v1.273h-7.068V15.721Zm0,3.8h-7.068V18.286h7.068Zm0,2.641h-7.068V20.794h7.068Zm-12.654-10.7V13.08a3.863,3.863,0,0,1,.893-.1h7.182v1.406h-3.952v8.93a2.023,2.023,0,0,1-.1.817h1.653a2.16,2.16,0,0,1-.1-.7h7.049a1.382,1.382,0,0,1-.1.7H-146a2.085,2.085,0,0,1-.076-.817v-8.93h-4.579V12.985h5.681a4.022,4.022,0,0,1,.893.1V11.465a3.863,3.863,0,0,1-.893.1h-5.681v-.608a2.829,2.829,0,0,1,.1-.817h-1.634a3.532,3.532,0,0,1,.1.855v.57h-7.182A2.523,2.523,0,0,1-160.17,11.465Zm18.506,13.851.855,1.9h1.425q1.5,0,1.5-1.368V20.414q.817-.342,1.615-.7V18.229l-1.615.646V15.626h.969a2.289,2.289,0,0,1,.684.1V14.087a3.621,3.621,0,0,1-.874.1h-.779V11.256a2.692,2.692,0,0,1,.1-.931h-1.634a2.692,2.692,0,0,1,.1.931v2.926h-.874a5.034,5.034,0,0,1-1.254-.1v1.634a3.454,3.454,0,0,1,1.2-.1h.931v3.667a18.416,18.416,0,0,1-2.793.836l1.159,1.71q.817-.475,1.634-.931v4.484q0,.4-.418.4A4.59,4.59,0,0,1-141.664,25.316Zm11.134-.95a9.431,9.431,0,0,1-4.1,1.178,18.185,18.185,0,0,1-1.938-.152l1.254,1.824a4.188,4.188,0,0,1,.76-.114,9.85,9.85,0,0,0,5.339-2.052,16.217,16.217,0,0,1,2.831,1.881l.589.608,1.349-1.2a14.375,14.375,0,0,1-1.292-.836,20.2,20.2,0,0,0-2.451-1.463,5.12,5.12,0,0,0,.855-1.311,6.068,6.068,0,0,0,.437-1.33h1.615a3.053,3.053,0,0,1,.779.095V19.863a3,3,0,0,1-.855.1h-5.149a12.007,12.007,0,0,0,.437-1.691h4.788a2.916,2.916,0,0,1,.779.095V16.709a3.235,3.235,0,0,1-.855.114h-2.28a4.832,4.832,0,0,0,.684-1.767l.247-1.254h.76a3.684,3.684,0,0,1,.855.095V12.282a4.246,4.246,0,0,1-.969.1h-3.344V11.2a2.556,2.556,0,0,1,.1-.855h-1.634a2.661,2.661,0,0,1,.1.855v1.178h-3.477a2.8,2.8,0,0,1-.836-.1V13.9a3.6,3.6,0,0,1,.836-.095h1.805l-1.444.475a1.437,1.437,0,0,1,.4.551,16.678,16.678,0,0,1,.874,1.995h-2.09a3.081,3.081,0,0,1-.969-.095v1.634a2.867,2.867,0,0,1,.969-.095h3.249a7.708,7.708,0,0,1-.551,1.691h-2.755a2.708,2.708,0,0,1-.912-.1V21.5a2.867,2.867,0,0,1,.969-.095h1.824a7.526,7.526,0,0,1-2.3,1.919l1.387,1.007q.3-.3.912-.836A12.524,12.524,0,0,1-130.53,24.366Zm2.337-10.564-.019.323a5.473,5.473,0,0,1-.836,2.7h-2.318a11.462,11.462,0,0,0-.589-1.843,12,12,0,0,1-.437-1.178Zm-3.781,8.664a9.327,9.327,0,0,0,.741-1.064h3a4.1,4.1,0,0,1-1.178,2.052A14.091,14.091,0,0,0-131.974,22.466Zm21.945-11.989a9.021,9.021,0,0,1,1.672,4.256l1.349-.475a9.494,9.494,0,0,0-1.824-4.161Zm3.591-.76-1.216.323a8.493,8.493,0,0,1,1.691,4.275l1.33-.494A10.089,10.089,0,0,0-106.438,9.717Zm-3.116,4.674V12.7a18.87,18.87,0,0,1-3.344.3,25.292,25.292,0,0,1-6.631-.646l.19,1.653,3.23.247a35.8,35.8,0,0,0,3.591.133Zm.494,10.45a9.126,9.126,0,0,0,1.159-.38l-.836-1.615a5.77,5.77,0,0,1-1.5.7,19.6,19.6,0,0,1-4.845.589h-.076q-4.37,0-4.37-2.413a2.417,2.417,0,0,1,.38-1.216,4.16,4.16,0,0,1,1.159-1.216l-.855-1.178a5.765,5.765,0,0,0-1.6,1.691,3.82,3.82,0,0,0-.57,1.995,3.041,3.041,0,0,0,1.2,2.47,7.579,7.579,0,0,0,4.959,1.349A19.1,19.1,0,0,0-109.06,24.841Zm15.808-12.692V10.99a2.474,2.474,0,0,1,.1-.836h-1.634a1.775,1.775,0,0,1,.1.817v1.178h-7.619q.228,2.812.228,5.4,0,7.353-1.653,8.531l1.539,1.368a4.336,4.336,0,0,1,.361-.969q1.216-2.888,1.216-9.291l-.133-3.705H-87.78a2.855,2.855,0,0,1,.874.1v-1.52a1.991,1.991,0,0,1-.874.095Zm2.546,10.3q.057.646.057,1.216,0,2.052-1.178,2.052h-2.546q-.475,0-.475-.855V17.678a3.477,3.477,0,0,1,.1-.874h-1.634a1.991,1.991,0,0,1,.1.874v7.638q0,1.843,1.634,1.843h3.192q1.672,0,2.071-2.014l.266-1.577Zm-1.311-3.42,1.387-1.045a19.866,19.866,0,0,0-2.85-3.344l-.608-.646-1.292.741A12.2,12.2,0,0,1-92.017,19.027Zm4.123,6,1.672-.76a14.326,14.326,0,0,0-2.223-5.548l-1.311.494q1.007,1.007,1.729,4.427A5.9,5.9,0,0,1-87.894,25.031Zm-12.939-.836,1.577,1.292a16.058,16.058,0,0,0,1.6-5,4.5,4.5,0,0,1,.3-1.311l-1.577-.4Q-99.18,23.3-100.833,24.195Zm23.674-2.071h-2.983a15.451,15.451,0,0,0,1.976-1.482H-73.3q.114.1.646.57a10.58,10.58,0,0,0,1.083.912h-4.1a8.17,8.17,0,0,1,.266-1.026l-1.634-.266a2.556,2.556,0,0,1,.038.513A2.407,2.407,0,0,1-77.159,22.124Zm4.883-12.084H-73.91a1.263,1.263,0,0,1,.1.665v.513h-4.351V10.7a3.062,3.062,0,0,1,.076-.665h-1.615a1.322,1.322,0,0,1,.1.684v.494h-3.705a4,4,0,0,1-.95-.095v1.5a4.472,4.472,0,0,1,.95-.095h3.724a2.057,2.057,0,0,1-.114.874h1.634a1.991,1.991,0,0,1-.1-.874h4.351a2.539,2.539,0,0,1-.1.874h1.634a1.991,1.991,0,0,1-.1-.874h3.686a4.305,4.305,0,0,1,.95.095v-1.5a4.472,4.472,0,0,1-.95.095h-3.686V10.7A1.63,1.63,0,0,1-72.276,10.04ZM-67.07,22.6a8.214,8.214,0,0,1-4.446-1.957h3a3.3,3.3,0,0,1,.893.095v-1.5a4.325,4.325,0,0,1-.931.076h-8.322l.627-.722h4.237l-.057.38h1.615a4.376,4.376,0,0,1-.1-.931V13.593H-81.453V18a4.246,4.246,0,0,1-.095.969h1.615l-.038-.38h2.147a8.073,8.073,0,0,1-.741.722H-83.5a2.44,2.44,0,0,1-.874-.1v1.52a3.6,3.6,0,0,1,.836-.095h3.249a13.816,13.816,0,0,1-4.636,2.014l.912,1.577q.608-.323,1.311-.665t1.444-.779v.741a3.684,3.684,0,0,1,.855-.095h2.565A6.616,6.616,0,0,1-83.2,25.772l1.121,1.653q.019-.076.722-.228a7.288,7.288,0,0,0,5.206-3.762l3.61-.019q-.361,2.356-.646,2.394l-.57.057a7.483,7.483,0,0,1-2.451-.38l.855,1.672,2.242.057h.019q1.5,0,1.843-2.565l.228-1.843.019-.285a10.043,10.043,0,0,0,3.078,1.672Zm-12.939-5.187v-.684h8.037v.684Zm0-1.862v-.7h8.037v.7Zm21.337,2.337a1.608,1.608,0,0,0,.494,1.178A1.608,1.608,0,0,0-57,19.559a1.608,1.608,0,0,0,1.178-.494,1.608,1.608,0,0,0,.494-1.178,1.608,1.608,0,0,0-.494-1.178A1.608,1.608,0,0,0-57,16.215a1.608,1.608,0,0,0-1.178.494A1.608,1.608,0,0,0-58.672,17.887Zm24.643-7.41a9.021,9.021,0,0,1,1.672,4.256l1.349-.475A9.494,9.494,0,0,0-32.832,10.1Zm3.591-.76-1.216.323a8.493,8.493,0,0,1,1.691,4.275l1.33-.494A10.089,10.089,0,0,0-30.438,9.717Zm-3.116,4.674V12.7A18.87,18.87,0,0,1-36.9,13a25.292,25.292,0,0,1-6.631-.646l.19,1.653,3.23.247a35.8,35.8,0,0,0,3.591.133Zm.494,10.45a9.126,9.126,0,0,0,1.159-.38l-.836-1.615a5.77,5.77,0,0,1-1.5.7,19.6,19.6,0,0,1-4.845.589h-.076q-4.37,0-4.37-2.413a2.417,2.417,0,0,1,.38-1.216,4.16,4.16,0,0,1,1.159-1.216l-.855-1.178a5.765,5.765,0,0,0-1.6,1.691,3.82,3.82,0,0,0-.57,1.995,3.041,3.041,0,0,0,1.2,2.47,7.579,7.579,0,0,0,4.959,1.349A19.1,19.1,0,0,0-33.06,24.841Zm21.736,2.413,1.159-1.653a10.075,10.075,0,0,1-6.27-5.168q-1.52-2.66-1.767-8.037,0-.361-.038-1.52h-4.37a3.388,3.388,0,0,1-.855-.095V12.4a7.877,7.877,0,0,1,1.311-.076h2.432a20.789,20.789,0,0,1-.931,6.156q-2.109,5.586-7.163,7.125l1.235,1.653q.589-.4.8-.513a13.543,13.543,0,0,0,6.84-9.025q1.767,6.251,6.061,8.588a8.738,8.738,0,0,0,.836.475A2.7,2.7,0,0,1-11.324,27.254ZM7.657,17.735a2.36,2.36,0,0,1,.7.095V16.215a7.352,7.352,0,0,1-1.273.076H4.522V11.237a4.372,4.372,0,0,1,.1-.893H3a3.684,3.684,0,0,1,.1.855v5.092H.133a1.99,1.99,0,0,1-.874-.1V17.83a5.909,5.909,0,0,1,1.273-.095H3.1v7.239H-.76L-1.6,24.9v1.615a3.361,3.361,0,0,1,.817-.1h8.8a1.938,1.938,0,0,1,.817.1V24.9a3.414,3.414,0,0,1-.741.076H4.522V17.735Zm-8.341,3.04a3.736,3.736,0,0,1-.741-.494l-2.128-1.748A17.287,17.287,0,0,0-1.52,15.7a10.37,10.37,0,0,0,.646-1.235l-.988-1.14H-3.876V11.37A4.716,4.716,0,0,1-3.8,10.306H-5.415a2.22,2.22,0,0,1,.1.665v2.356H-7.068a3.621,3.621,0,0,1-.874-.095v1.615a6.259,6.259,0,0,1,1.1-.1H-2.6A17,17,0,0,1-8.93,21.288L-7.9,22.865l2.584-2.413v5.89a3.772,3.772,0,0,1-.1.874H-3.8l-.076-.931V20.167l2.356,2.47Zm12.122-4.123q.532,8.075,3.952,9.519l1.349-.418a11.015,11.015,0,0,1,.228-1.14,13.591,13.591,0,0,1,1.045-2.7l.3-.627-1.273-1.463a14.258,14.258,0,0,0-1.368,4.37q-2.185-.722-2.812-7.752a9.805,9.805,0,0,1-.038-1.121q0-.874.171-2.489l-1.786-.266q.1.893.152,2.185Zm13.794,5.8,1.558-1.064a12.279,12.279,0,0,0-.779-3.781,11.164,11.164,0,0,0-3.192-4.427l-1.064.627a10.9,10.9,0,0,1,2.793,4.1A15.217,15.217,0,0,1,25.232,22.447Zm20.425,3.4V24.119l-.4.1a23.505,23.505,0,0,1-3.363.247q-3.819,0-3.819-1.254a1.671,1.671,0,0,1,1.14-1.6l-.722-.893a2.671,2.671,0,0,0-1.786,2.6q0,2.584,5.4,2.584h1.843Q45.163,25.905,45.657,25.848Zm-.646-8.018V16.253a9.434,9.434,0,0,0-1.52-.095,19.136,19.136,0,0,0-5.947.8l.171,1.254a21.047,21.047,0,0,1,4.408-.646A14.192,14.192,0,0,1,45.011,17.83ZM30.248,26.171l1.672.361a58.093,58.093,0,0,0,3.838-11.913q3.173-.114,5.757-.4V12.586a31.833,31.833,0,0,1-5.624.57l.532-2.812a8.1,8.1,0,0,1-1.558-.133q.019.3.019,1.007a8.9,8.9,0,0,1-.323,2q-.665.057-1.976.057t-2.223-.019l.361,1.482q1.71,0,3.5-.076A50.619,50.619,0,0,1,30.248,26.171Zm34.01-.323V24.119l-.4.1a23.505,23.505,0,0,1-3.363.247q-3.819,0-3.819-1.254a1.671,1.671,0,0,1,1.14-1.6l-.722-.893a2.671,2.671,0,0,0-1.786,2.6q0,2.584,5.4,2.584h1.843Q63.764,25.905,64.258,25.848Zm-.646-8.018V16.253a9.434,9.434,0,0,0-1.52-.095,19.136,19.136,0,0,0-5.947.8l.171,1.254a21.047,21.047,0,0,1,4.408-.646A14.192,14.192,0,0,1,63.612,17.83ZM48.849,26.171l1.672.361a58.093,58.093,0,0,0,3.838-11.913q3.173-.114,5.757-.4V12.586a31.833,31.833,0,0,1-5.624.57l.532-2.812a8.1,8.1,0,0,1-1.558-.133q.019.3.019,1.007a8.894,8.894,0,0,1-.323,2q-.665.057-1.976.057t-2.223-.019l.361,1.482q1.71,0,3.5-.076A50.619,50.619,0,0,1,48.849,26.171ZM60.705,11.028a9.021,9.021,0,0,1,1.672,4.256l1.349-.475A9.494,9.494,0,0,0,61.9,10.648Zm3.591-.76-1.216.323a8.493,8.493,0,0,1,1.691,4.275l1.33-.494A10.089,10.089,0,0,0,64.3,10.268Zm4.142,6.384q.532,8.075,3.952,9.519l1.349-.418a11.016,11.016,0,0,1,.228-1.14,13.591,13.591,0,0,1,1.045-2.7l.3-.627-1.273-1.463a14.258,14.258,0,0,0-1.368,4.37q-2.185-.722-2.812-7.752a9.8,9.8,0,0,1-.038-1.121q0-.874.171-2.489l-1.786-.266q.095.893.152,2.185Zm13.794,5.8,1.558-1.064a12.278,12.278,0,0,0-.779-3.781,11.164,11.164,0,0,0-3.192-4.427l-1.064.627a10.9,10.9,0,0,1,2.793,4.1A15.217,15.217,0,0,1,82.232,22.447Zm20.425,3.4V24.119l-.4.1a23.505,23.505,0,0,1-3.363.247q-3.819,0-3.819-1.254a1.671,1.671,0,0,1,1.14-1.6l-.722-.893a2.671,2.671,0,0,0-1.786,2.6q0,2.584,5.4,2.584h1.843Q102.163,25.905,102.657,25.848Zm-.646-8.018V16.253a9.434,9.434,0,0,0-1.52-.095,19.136,19.136,0,0,0-5.947.8l.171,1.254a21.047,21.047,0,0,1,4.408-.646A14.192,14.192,0,0,1,102.011,17.83ZM87.248,26.171l1.672.361a58.093,58.093,0,0,0,3.838-11.913q3.173-.114,5.757-.4V12.586a31.833,31.833,0,0,1-5.624.57l.532-2.812a8.1,8.1,0,0,1-1.558-.133q.019.3.019,1.007a8.894,8.894,0,0,1-.323,2q-.665.057-1.976.057t-2.223-.019l.361,1.482q1.71,0,3.5-.076A50.619,50.619,0,0,1,87.248,26.171Zm25.517-8.531a26.731,26.731,0,0,0,.418-3.021h8.569a2.412,2.412,0,0,1,.684.095V13.061a1.706,1.706,0,0,1-.8.1H114.7V10.8a2.254,2.254,0,0,1,.076-.646h-1.615a2.22,2.22,0,0,1,.1.665v2.337h-6.8a2.44,2.44,0,0,1-.874-.1v1.653a3.445,3.445,0,0,1,.836-.095h5.168q-.8,8.455-5.947,11.115l1.273,1.558a14.11,14.11,0,0,0,5.491-8.151h6.65a39.495,39.495,0,0,1-.817,6.327q-.038.19-1.406.19a8.236,8.236,0,0,1-2.622-.418l1.007,1.919H117.9q1.786,0,2.052-1.5a53.394,53.394,0,0,0,.817-7.315l-.95-.7Zm23.218,1.539-1.52.418,1.1,1.995a16.677,16.677,0,0,0,4.617,5.206,8.562,8.562,0,0,0,.836.532l1.1-1.482a8,8,0,0,1-4.047-2.907,21.171,21.171,0,0,0,1.824-1.615l1.216-1.216-1.539-.608a9.445,9.445,0,0,1-2.242,2.375A9.238,9.238,0,0,1,135.983,19.179Zm-3.249,6.973,2.166-.76a4.679,4.679,0,0,1,.912-.266v-1.71a4.089,4.089,0,0,1-1.083.551,21.024,21.024,0,0,1-2.185.722v-6H138.3l-.076.608h1.615a4.208,4.208,0,0,1-.1-.931V10.61h-8.626v14.5a8.692,8.692,0,0,1-1.976.266h-.665l.874,1.71a5.292,5.292,0,0,1,1.064-.285Q131.176,26.627,132.734,26.152Zm-3.99-2.888a2.75,2.75,0,0,0,1.406-2.7,8.219,8.219,0,0,0-1.919-4.617V15.93l1.862-4.332-.912-1.045h-4.826V26.532a2.412,2.412,0,0,1-.1.684h1.634a2.359,2.359,0,0,1-.095-.855V12h2.565l-1.653,4.427a6.725,6.725,0,0,1,.722.646,4.866,4.866,0,0,1,1.159,3.572q0,1.406-.855,1.406a3.869,3.869,0,0,1-1.387-.665l.456,1.9a2.183,2.183,0,0,0,.931.171A2.505,2.505,0,0,0,128.744,23.264Zm3.8-8H138.3v2.052h-5.757Zm0-1.33V12.054H138.3v1.881Zm20.178,11.1v-3.7h4.009a3.8,3.8,0,0,1,.912.095V19.787a9.417,9.417,0,0,1-1.463.1h-3.458V16.994h4.066a4.4,4.4,0,0,1,1.1.1V15.474a6.066,6.066,0,0,1-1.159.076H147.06a2.779,2.779,0,0,1-.95-.1v1.634a4.05,4.05,0,0,1,.931-.1h4.237v7.524a4.387,4.387,0,0,1-2.869-2.831,4.81,4.81,0,0,1-.3-1.254q.057-.475.133-1.254a2.766,2.766,0,0,1,.133-.874l-1.615-.057.038.38a11.735,11.735,0,0,1-.076,1.463q-.532,4.161-3.648,5.719a3.124,3.124,0,0,1,1.159,1.5,9.686,9.686,0,0,0,3.4-4.788,5.823,5.823,0,0,0,1.881,2.508,8.446,8.446,0,0,0,3.572,1.558,36.956,36.956,0,0,0,6.061.57,6.349,6.349,0,0,1,1.064.114,9.384,9.384,0,0,1,.589-1.786,3.089,3.089,0,0,1-1.2.152A28.332,28.332,0,0,1,152.722,25.031Zm5.928-9.519a1.765,1.765,0,0,1-.1.627h1.615a2.511,2.511,0,0,1-.076-.646V12h-7.372v-1.1q0-.779.1-.855h-1.634a1.845,1.845,0,0,1,.1.836V12h-7.391v3.211a3.123,3.123,0,0,1-.095.931h1.615a3.24,3.24,0,0,1-.1-.931V13.441H158.65Z" transform="translate(161 21)" fill="#333"/>
      </g>
    </g>
    <g id="グループ_9896" data-name="グループ 9896" transform="translate(157.611 241.438)">
      <ellipse id="楕円形_160" data-name="楕円形 160" cx="62.694" cy="62.694" rx="62.694" ry="62.694" transform="translate(0 0)" fill="#fff"/>
      <g id="マスクグループ_5" data-name="マスクグループ 5" transform="translate(0 0)" clip-path="url(#clip-path)">
        <g id="グループ_9725" data-name="グループ 9725" transform="translate(4.692 15.269)">
          <path id="パス_90143" data-name="パス 90143" d="M96.615,275.077A4.411,4.411,0,0,1,99.8,273.91a4.089,4.089,0,0,1,3.673,2.041c1.248,2.165,1.2,6.154.357,8.623a13.32,13.32,0,0,1-3.909,6.34,4.859,4.859,0,0,1-3.746,1.081l-.359-.061a28.546,28.546,0,0,1-1.289,3.5c-.9,2.453-5.691,10.745-11.869,14.6,0,2.416,0,4.311,0,4.311a6.679,6.679,0,0,0,.285,2.367,5.759,5.759,0,0,0,1.726,2.513,19.378,19.378,0,0,0,5.779,2.924l3.035,1.2s-6.043,11.63-25.15,11.63-24.366-11.63-24.366-11.63l3.043-1.2a19.378,19.378,0,0,0,5.779-2.924,5.747,5.747,0,0,0,1.726-2.513,6.681,6.681,0,0,0,.285-2.367s0-1.611,0-3.993a26.408,26.408,0,0,1-7.466-6.427,33.516,33.516,0,0,1-6.36-12,4.768,4.768,0,0,1-4.053-1.015,13.321,13.321,0,0,1-3.909-6.34c-.838-2.468-.891-6.457.357-8.623a4.089,4.089,0,0,1,3.673-2.041,4.4,4.4,0,0,1,3.186,1.167s-6.976-27.595,27.285-27.595,29.1,27.595,29.1,27.595Z" transform="translate(-8.386 -226.944)" fill="#fff"/>
          <path id="パス_90146" data-name="パス 90146" d="M61.608,335.093c-1.278-1.008-2.183-1.724-2.335-1.846-1.4,1.562-3.118,3.851-4.484,5.432A4.88,4.88,0,0,0,53.74,341l.023.1.105.58c.015.081.036.168.059.263.087.388.183.782.278,1.177,2.274,9.622,4.964,19.564,7.859,29.105H86.095c2.9-9.541,5.586-19.484,7.859-29.105.044-.185.089-.368.13-.549l-.047-.013a4.328,4.328,0,0,0-.938-3.875c-1.366-1.583-3.087-3.871-4.484-5.432-.593.48-12.689,10.018-13.606,10.668H72.879c-.683-.484-7.554-5.888-11.272-8.82Z" transform="translate(-13.907 -249.139)" fill="#fff"/>
          <path id="パス_90161" data-name="パス 90161" d="M7.624,363.753c7.573-10.443,20.6-17.557,32.851-19.187.01.085.036.187.062.3.087.388.183.782.278,1.177,2.311,9.78,5.053,19.893,8,29.577H2a34.27,34.27,0,0,1,5.625-11.864Z" transform="translate(-0.517 -252.068)" fill="#fff"/>
          <path id="パス_90162" data-name="パス 90162" d="M137.439,362.853c-7.6-9.87-20.088-16.591-31.9-18.238-.013.08-.036.168-.057.262-.087.388-.183.782-.278,1.177-2.311,9.78-5.053,19.893-8,29.577,15.366,0,46.55,0,46.55,0A34.647,34.647,0,0,0,137.439,362.853Z" transform="translate(-25.153 -252.08)" fill="#fff"/>
          <path id="パス_90163" data-name="パス 90163" d="M114.974,374.139c1.689-3.158,3.327-6.288,4.9-9.358a2.048,2.048,0,0,0,.278-.987,1.806,1.806,0,0,0-.5-1.118c-1.915-2.084-4.014-4.08-6.068-6.01l5.461-3.115a.881.881,0,0,0,.483-.49.918.918,0,0,0-.139-.592,20.765,20.765,0,0,0-4.5-5.505,63.284,63.284,0,0,0-7.91-6.2.536.536,0,0,0-.819.322s-.236.964-.472,1.929l-.105.58c-.015.081-.036.168-.059.263-.087.388-.183.782-.278,1.177-2.274,9.622-4.964,19.564-7.859,29.105" transform="translate(-25.204 -251.06)" fill="#fff"/>
          <path id="パス_90164" data-name="パス 90164" d="M96.043,333.24c1.4,1.562,3.118,3.851,4.484,5.432a4.328,4.328,0,0,1,.938,3.875C100.94,343.6,95.139,352.9,91.232,355.4c-1.234-1.645-6.348-8.743-8.794-11.494.917-.65,13.013-10.187,13.606-10.668Z" transform="translate(-21.334 -249.137)" fill="#fff"/>
          <path id="パス_90165" data-name="パス 90165" d="M59.257,333.24c-1.4,1.562-3.118,3.851-4.484,5.432a4.328,4.328,0,0,0-.938,3.875C54.36,343.6,60.162,352.9,64.068,355.4c1.234-1.645,6.348-8.743,8.794-11.494-.917-.65-13.013-10.187-13.606-10.668Z" transform="translate(-13.89 -249.137)" fill="#fff"/>
          <path id="パス_90166" data-name="パス 90166" d="M39.44,374.139c-1.689-3.158-3.327-6.288-4.9-9.358a2.048,2.048,0,0,1-.278-.987,1.806,1.806,0,0,1,.5-1.118c1.915-2.084,4.014-4.08,6.068-6.01l-5.461-3.115a.881.881,0,0,1-.483-.49.918.918,0,0,1,.139-.592,20.765,20.765,0,0,1,4.5-5.505,63.285,63.285,0,0,1,7.91-6.2.536.536,0,0,1,.819.322l.472,1.929.105.58c.015.081.036.168.059.263.087.388.183.782.278,1.177,2.274,9.622,4.964,19.564,7.859,29.105" transform="translate(-8.867 -251.06)" fill="#fff"/>
          <path id="パス_90173" data-name="パス 90173" d="M90.412,231.1c-4.444-7.372-14.6-9.3-22.368-9.3a34.446,34.446,0,0,0-21.523,7.164,29.217,29.217,0,0,0-5.571,5.322c-3.794,4.3-7.467,13.393-7.229,21.838A46.889,46.889,0,0,0,35.4,267.714a4.917,4.917,0,0,1,1.982-.454,4.4,4.4,0,0,1,3.186,1.167l1.132,1.087.062-.663a29.881,29.881,0,0,1,7.614-16.843,3.331,3.331,0,0,1,3.127-1.037,58.732,58.732,0,0,0,13.978.448c5.7-.312,11.728-.878,16.363-3.309l4.871,3.333a11.949,11.949,0,0,1,2.894,2.721,25.5,25.5,0,0,1,5.148,15.414l1.2-1.152a4.412,4.412,0,0,1,3.186-1.167,4.918,4.918,0,0,1,1.986.455l.109-.592c.97-5.22,1.789-10.6,1.074-15.885-.856-6.331-3.748-12.827-9.148-16.207l-3.748-3.93Z" transform="translate(-8.723 -220.298)" fill="#333"/>
          <path id="パス_90174" data-name="パス 90174" d="M85.112,372.371c-.707-5.686-1.247-9.944-1.247-10.158a23.723,23.723,0,0,1,.548-3.071c.337-1.616.475-2.362.819-4.057,0,0,.01-.07.027-.192-1.936-2.608-4.251-5.664-5.67-7.26H77.459c-1.422,1.6-3.743,4.665-5.681,7.276.025.111.039.176.039.176.344,1.7.483,2.442.819,4.057a23.726,23.726,0,0,1,.548,3.071c0,.263-.812,6.6-1.747,14.2H85.613c-.173-1.4-.34-2.756-.5-4.04Z" transform="translate(-18.487 -252.861)" fill="#ff7c64"/>
          <path id="パス_90239" data-name="パス 90239" d="M91.194,229.828c-2.944-4.789-8.05-7.523-13.38-8.848a42.063,42.063,0,0,0-17.355-.56,37.042,37.042,0,0,0-16.853,8.04A32.068,32.068,0,0,0,33.7,243.319c-2.582,7.72-2.382,15.843-.379,23.674.473,1.847,3.333,1.064,2.859-.788a38.972,38.972,0,0,1-.381-19.542,30.555,30.555,0,0,1,8.23-14.615,33.7,33.7,0,0,1,14.636-8.2,37.964,37.964,0,0,1,16.008-.507c5.376.95,10.984,3.134,13.967,7.984,1,1.622,3.563.135,2.56-1.5h0Z" transform="translate(-8.226 -219.773)" fill="#333"/>
          <path id="パス_90240" data-name="パス 90240" d="M124.267,271.606c1.233-6.661,2.112-13.447.405-20.111-1.393-5.437-4.351-10.585-9.161-13.656-1.613-1.03-3.1,1.535-1.5,2.56,4.24,2.707,6.693,7.384,7.867,12.157,1.486,6.044.643,12.232-.474,18.261-.345,1.865,2.511,2.665,2.859.788h0Z" transform="translate(-29.327 -224.386)" fill="#333"/>
          <path id="パス_90241" data-name="パス 90241" d="M85.565,254.577a25.263,25.263,0,0,1-9.737,3.155,92.481,92.481,0,0,1-11.275.8,57.833,57.833,0,0,1-5.966-.13c-1.819-.145-3.834-.841-5.637-.405-1.829.442-2.925,2.023-4.006,3.433a32.94,32.94,0,0,0-2.915,4.5,30.359,30.359,0,0,0-3.456,11.338,1.493,1.493,0,0,0,1.482,1.482,1.515,1.515,0,0,0,1.482-1.482A26.37,26.37,0,0,1,48.3,267.98a32.051,32.051,0,0,1,2.72-4.409c.77-1.051,1.743-2.823,3.24-2.756.857.038,1.737.272,2.592.378.981.122,1.967.2,2.954.256,1.932.1,3.869.086,5.8.019a100.216,100.216,0,0,0,10.849-.855,27.4,27.4,0,0,0,10.6-3.477c1.62-1,.132-3.568-1.5-2.56h0Z" transform="translate(-11.016 -228.72)" fill="#333"/>
          <path id="パス_90242" data-name="パス 90242" d="M105.334,262.531c2.611,1.848,4.323,4.825,5.528,7.737a23.306,23.306,0,0,1,1.777,9.252,1.483,1.483,0,0,0,2.965,0,26.262,26.262,0,0,0-2.153-10.686,20.184,20.184,0,0,0-6.62-8.863c-1.56-1.1-3.043,1.465-1.5,2.56h0Z" transform="translate(-27.09 -230.106)" fill="#333"/>
          <path id="パス_90244" data-name="パス 90244" d="M80.022,298.6a25.917,25.917,0,0,1,.611,2.8L80.58,301a1.683,1.683,0,0,1,.01.386l.053-.394a.926.926,0,0,1-.042.173l.15-.354a.658.658,0,0,1-.062.112l.232-.3a.611.611,0,0,1-.091.09l.3-.232a1.76,1.76,0,0,1-.222.117l.354-.15a1.589,1.589,0,0,1-.374.109l.394-.053a1.5,1.5,0,0,1-.351,0l.394.053c-.132-.019-.262-.05-.394-.068a1.131,1.131,0,0,0-.591-.027,1.106,1.106,0,0,0-.551.176,1.482,1.482,0,0,0-.531,2.028,1.418,1.418,0,0,0,.886.681c.3.041.6.119.911.132a2.922,2.922,0,0,0,1.348-.322,1.954,1.954,0,0,0,1.081-1.289,3.209,3.209,0,0,0-.013-1.382c-.152-.9-.36-1.793-.592-2.677a1.483,1.483,0,0,0-2.859.788h0Z" transform="translate(-20.46 -239.685)" fill="#333"/>
          <path id="パス_90245" data-name="パス 90245" d="M60.338,287.767c-.467,1.517-.162,5.007,2.711,5.3,3.8-.023,4-4.242,2.722-6.226-1.047-1.624-4.126-2.3-5.434.922Z" transform="translate(-15.568 -236.779)" fill="#333"/>
          <path id="パス_90246" data-name="パス 90246" d="M99.454,287.767c.467,1.517.163,5.007-2.711,5.3-3.8-.023-4-4.242-2.722-6.226,1.047-1.624,4.126-2.3,5.434.922Z" transform="translate(-24.148 -236.779)" fill="#333"/>
          <path id="パス_90247" data-name="パス 90247" d="M40.755,282.734a6.274,6.274,0,0,0-6.789-1.024,5.961,5.961,0,0,0-3.146,4.044,15.7,15.7,0,0,0,2.3,12.394c1.57,2.336,4.023,4.424,7.025,4.034a1.531,1.531,0,0,0,1.482-1.482,1.491,1.491,0,0,0-1.482-1.482c-4.116.534-6.441-5.437-6.725-8.746-.148-1.731-.153-3.911.912-5.388-.145.2.148-.165.156-.173.07-.067.18-.186.245-.237a2.737,2.737,0,0,1,1.062-.481,3.163,3.163,0,0,1,2.864.637c1.419,1.267,3.524-.823,2.1-2.1h0Z" transform="translate(-7.86 -235.654)" fill="#333"/>
          <path id="パス_90248" data-name="パス 90248" d="M119.412,284.826a3.139,3.139,0,0,1,2.735-.664,2.8,2.8,0,0,1,1.191.508c.087.069.486.526.4.41,1.064,1.477,1.06,3.657.912,5.388-.284,3.309-2.608,9.279-6.725,8.746a1.49,1.49,0,0,0-1.482,1.482,1.521,1.521,0,0,0,1.482,1.482c4.936.64,7.924-4.745,9.154-8.724,1.087-3.515,1.132-9.125-2.328-11.4a6.241,6.241,0,0,0-7.437.675c-1.427,1.273.676,3.364,2.1,2.1h0Z" transform="translate(-30.134 -235.65)" fill="#333"/>
          <path id="パス_90249" data-name="パス 90249" d="M110.511,303.751a32.681,32.681,0,0,1-1.918,5.819c.156-.379-.127.274-.194.414-.13.272-.267.542-.407.809-.345.657-.716,1.3-1.1,1.938a35.134,35.134,0,0,1-7.565,9.007,14,14,0,0,1-5.62,2.924c-1.857.433-1.071,3.292.788,2.859,4.3-1,7.872-4.131,10.679-7.4a38.37,38.37,0,0,0,5.941-8.97c.079-.173.153-.348.227-.524.019-.045.216-.519.153-.372-.08.187.037-.076.044-.092q.115-.264.225-.529c.116-.277.227-.555.333-.836a28.339,28.339,0,0,0,1.276-4.257c.386-1.862-2.471-2.658-2.859-.788h0Z" transform="translate(-23.975 -241.23)" fill="#333"/>
          <path id="パス_90250" data-name="パス 90250" d="M41.269,304.4a35.467,35.467,0,0,0,7.712,15.3c3.646,4.223,8.325,7.562,13.94,8.4a1.531,1.531,0,0,0,1.823-1.035,1.493,1.493,0,0,0-1.035-1.823c-5.173-.772-9.273-3.747-12.632-7.637a32.352,32.352,0,0,1-6.95-13.993c-.422-1.86-3.282-1.073-2.859.788h0Z" transform="translate(-10.668 -241.196)" fill="#333"/>
          <path id="パス_90251" data-name="パス 90251" d="M83.037,364.585c-3.152,0-6.3-.066-9.457-.067a1.482,1.482,0,0,0,0,2.965c3.152,0,6.3.066,9.457.067a1.482,1.482,0,0,0,0-2.965Z" transform="translate(-18.657 -257.231)" fill="#333"/>
          <path id="パス_90252" data-name="パス 90252" d="M90.937,378.5c-.531-4.312-1.084-8.623-1.605-12.936a7.174,7.174,0,0,1,.055-2.553c.365-1.815.751-3.628,1.118-5.443.377-1.863-2.481-2.66-2.859-.788-.374,1.853-.775,3.7-1.14,5.555a9.279,9.279,0,0,0-.156,3.088c.524,4.361,1.085,8.717,1.623,13.077a1.529,1.529,0,0,0,1.482,1.482,1.492,1.492,0,0,0,1.482-1.482h0Z" transform="translate(-22.329 -254.953)" fill="#333"/>
          <path id="パス_90253" data-name="パス 90253" d="M72.4,378.5c.537-4.36,1.1-8.716,1.623-13.077a9.276,9.276,0,0,0-.156-3.088c-.365-1.854-.766-3.7-1.14-5.555-.378-1.869-3.236-1.078-2.859.788.359,1.778.732,3.553,1.095,5.33a7.382,7.382,0,0,1,.078,2.666c-.521,4.314-1.074,8.623-1.605,12.936a1.491,1.491,0,0,0,1.482,1.482A1.519,1.519,0,0,0,72.4,378.5h0Z" transform="translate(-17.966 -254.953)" fill="#333"/>
          <path id="パス_90254" data-name="パス 90254" d="M53.234,342.582l-.024,0-.418.056.394-.053-.026,0a1.524,1.524,0,0,0-1.483,1.483l.053.394a1.482,1.482,0,0,0,.381.655l.3.232a1.473,1.473,0,0,0,.748.2l.024,0,.418-.056-.394.053.026,0a1.523,1.523,0,0,0,1.483-1.483l-.053-.394a1.482,1.482,0,0,0-.381-.654l-.3-.232a1.473,1.473,0,0,0-.748-.2Z" transform="translate(-13.373 -251.554)" fill="#333"/>
          <path id="パス_90255" data-name="パス 90255" d="M2.91,376.043c2.791-11.074,11.478-19.659,21.365-24.837a50.424,50.424,0,0,1,8.827-3.6c1.822-.551,1.045-3.413-.788-2.859-11.432,3.455-22.247,10.8-28.4,21.2a35.216,35.216,0,0,0-3.859,9.309c-.466,1.851,2.392,2.64,2.859.788h0Z" transform="translate(0 -252.097)" fill="#333"/>
          <path id="パス_90256" data-name="パス 90256" d="M107.7,345.547h.024l-.394-.053a.267.267,0,0,1,.035.007,2.239,2.239,0,0,0,.428.059c.026,0,.051.007.077.007l-1.482-1.482v.007a1.524,1.524,0,0,0,1.483,1.483l.394-.053a1.481,1.481,0,0,0,.655-.381l.232-.3a1.473,1.473,0,0,0,.2-.748v-.007a1.647,1.647,0,0,0-.434-1.049l-.3-.232a1.474,1.474,0,0,0-.748-.2c-.03,0-.059-.007-.089-.007l.394.053-.042-.01c-.136-.028-.274-.041-.411-.056l-.022,0a1.432,1.432,0,0,0-1.356.912,1.113,1.113,0,0,0-.127.571l.053.394a1.482,1.482,0,0,0,.381.654l.3.232a1.473,1.473,0,0,0,.748.2h0Z" transform="translate(-27.487 -251.555)" fill="#333"/>
          <path id="パス_90257" data-name="パス 90257" d="M117.525,347.767c10.551,3.295,20.546,10.116,26.24,19.744a32.314,32.314,0,0,1,3.544,8.573c.466,1.849,3.327,1.066,2.859-.788-2.951-11.7-12.057-20.953-22.5-26.488a54.982,54.982,0,0,0-9.36-3.9c-1.826-.57-2.606,2.291-.788,2.859h0Z" transform="translate(-30.146 -252.137)" fill="#333"/>
          <path id="パス_90258" data-name="パス 90258" d="M94.482,333.755c1.051,1.187,2.029,2.435,3.024,3.668.78.966,1.866,1.918,2.084,3.2.125.732.033.759-.342,1.384-.389.648-.8,1.285-1.21,1.918-1.177,1.8-2.411,3.576-3.754,5.26a20.545,20.545,0,0,1-4.316,4.406l2.028.532c-2.961-3.954-5.752-8.087-9.026-11.794l-.3,2.328c2.45-1.755,4.779-3.707,7.148-5.569,2.256-1.773,4.526-3.53,6.758-5.331a1.492,1.492,0,0,0,0-2.1,1.517,1.517,0,0,0-2.1,0c-2.182,1.76-4.4,3.477-6.6,5.209q-2.238,1.759-4.48,3.513-.791.617-1.584,1.232c.319-.246-.225.173-.33.252s-.2.155-.308.229a1.511,1.511,0,0,0-.3,2.328c3.107,3.519,5.752,7.441,8.563,11.194a1.512,1.512,0,0,0,2.028.532c3.218-2.112,5.6-5.591,7.766-8.7.886-1.273,1.746-2.568,2.548-3.9a5.148,5.148,0,0,0,.181-5.1,17.274,17.274,0,0,0-2.453-3.247c-.962-1.194-1.912-2.4-2.929-3.549-1.267-1.431-3.358.672-2.1,2.1Z" transform="translate(-20.821 -248.604)" fill="#333"/>
          <path id="パス_90259" data-name="パス 90259" d="M71.3,342.345c-3.275,3.707-6.057,7.844-9.023,11.8l2.028-.532a19.161,19.161,0,0,1-4-4.007c-1.355-1.663-2.595-3.421-3.779-5.209-.439-.663-.869-1.33-1.285-2.008a2.24,2.24,0,0,1-.343-2.458,13.9,13.9,0,0,1,2.251-2.963c.865-1.076,1.726-2.157,2.643-3.19H57.7c2.23,1.8,4.5,3.557,6.758,5.329,2.369,1.862,4.7,3.8,7.143,5.568a1.493,1.493,0,0,0,2.028-.532,1.515,1.515,0,0,0-.532-2.028c-.1-.075-.2-.153-.307-.23l-.245-.188-.084-.064q-.793-.615-1.583-1.232-2.243-1.751-4.478-3.512c-2.2-1.732-4.425-3.445-6.6-5.209a1.509,1.509,0,0,0-2.1,0c-1.053,1.186-2.032,2.433-3.027,3.667a14.663,14.663,0,0,0-2.562,3.612,4.819,4.819,0,0,0,.177,4.265c.426.735.887,1.451,1.351,2.162,1.329,2.038,2.743,4.023,4.261,5.926a22.092,22.092,0,0,0,4.91,4.859,1.518,1.518,0,0,0,2.028-.532c2.814-3.751,5.451-7.678,8.559-11.2,1.259-1.425-.83-3.53-2.1-2.1Z" transform="translate(-13.379 -248.622)" fill="#333"/>
          <path id="パス_90260" data-name="パス 90260" d="M115.73,374.374q1.428-2.672,2.83-5.358.71-1.362,1.414-2.727a8.545,8.545,0,0,0,1.093-2.553c.27-1.891-1.419-3.218-2.606-4.424-1.416-1.438-2.881-2.826-4.351-4.209l-.3,2.328,3.052-1.74a14.465,14.465,0,0,0,3-1.811c1.631-1.6-.414-3.993-1.469-5.316a45.893,45.893,0,0,0-9.333-8.317,9.041,9.041,0,0,0-2.3-1.467A2.008,2.008,0,0,0,104.287,340a37.7,37.7,0,0,0-1.152,4.813q-1.577,6.623-3.346,13.2-2.054,7.644-4.351,15.22c-.554,1.83,2.306,2.612,2.859.788q2.636-8.7,4.954-17.487,1.142-4.334,2.2-8.689c.333-1.367.68-2.733.981-4.107.107-.492.2-.985.319-1.475l.2-.809.087-.354q.083-.3-.113.193l-.654.381q-.616-.09-.118.153l.342.233q.415.285.825.575.752.534,1.488,1.087,1.758,1.321,3.41,2.776a38.025,38.025,0,0,1,3.15,3.072,17.031,17.031,0,0,1,1.238,1.512c.23.322.9,1.079.918,1.468l.2-.748c.079-.153-.219.111-.272.142-.269.15-.535.305-.8.458l-1.445.824-2.891,1.649a1.5,1.5,0,0,0-.3,2.328c1.21,1.138,2.416,2.278,3.595,3.45q.885.879,1.747,1.783c.489.515.9.649.632,1.245-1.394,3.143-3.2,6.168-4.817,9.2-.9,1.683,1.66,3.182,2.56,1.5h0Z" transform="translate(-24.68 -250.547)" fill="#333"/>
          <path id="パス_90261" data-name="パス 90261" d="M57.94,373.234Q53.89,359.87,50.6,346.29c-.423-1.749-.792-3.51-1.219-5.256a3.289,3.289,0,0,0-.826-1.837c-.949-.858-2.032-.469-2.955.158a52.457,52.457,0,0,0-9.79,8.241c-1.161,1.3-3.792,4.019-2.608,5.907.6.952,2.092,1.488,3.033,2.026l3.334,1.907-.3-2.328c-1.426,1.339-2.848,2.685-4.223,4.077-1.219,1.233-3,2.611-2.73,4.553a7.879,7.879,0,0,0,1.007,2.392q.7,1.365,1.412,2.728,1.442,2.767,2.915,5.518c.9,1.683,3.461.188,2.56-1.5q-1.214-2.27-2.41-4.55c-.8-1.535-1.713-3.066-2.408-4.653-.246-.562.04-.615.513-1.116q.855-.906,1.74-1.785c1.218-1.213,2.467-2.394,3.719-3.571a1.5,1.5,0,0,0-.3-2.328l-2.88-1.647-1.365-.78-.606-.347c-.088-.05-.6-.388-.556-.3l.2.748c.018-.386.7-1.169.915-1.466a16.911,16.911,0,0,1,1.129-1.389,37.205,37.205,0,0,1,3.164-3.112q1.642-1.455,3.4-2.78.763-.575,1.54-1.127.366-.26.735-.514.236-.162.472-.322.506-.245-.1-.161l-.654-.381q-.2-.487-.107-.165c.024.1.049.2.073.3.085.348.173.695.256,1.043.1.423.171.849.263,1.274.279,1.289.612,2.57.923,3.851q1.076,4.426,2.236,8.832,2.327,8.843,4.979,17.6c.551,1.821,3.415,1.045,2.859-.788h0Z" transform="translate(-8.355 -250.55)" fill="#333"/>
          <path id="パス_90663" data-name="パス 90663" d="M-6270.093-12833.54c1.3-1.3,9.122-1.3,10.425,0s-2.2,3.273-4.81,3.273S-6271.4-12832.237-6270.093-12833.54Z" transform="translate(6325.673 12904.161)" fill="none" stroke="#333" stroke-width="2"/>
        </g>
      </g>
      <g id="楕円形_133" data-name="楕円形 133" transform="translate(0 0)" fill="none" stroke="#333" stroke-width="3">
        <ellipse cx="62.694" cy="62.694" rx="62.694" ry="62.694" stroke="none"/>
        <ellipse cx="62.694" cy="62.694" rx="61.194" ry="61.194" fill="none"/>
      </g>
    </g>
  </g>
</svg>
