<svg xmlns="http://www.w3.org/2000/svg" xmlns:xlink="http://www.w3.org/1999/xlink" width="397" height="125.389" viewBox="0 0 397 125.389">
  <defs>
    <clipPath id="clip-path">
      <ellipse id="楕円形_114" data-name="楕円形 114" cx="63.18" cy="62.694" rx="63.18" ry="62.694" fill="none" stroke="#333" stroke-width="3"/>
    </clipPath>
  </defs>
  <g id="グループ_10034" data-name="グループ 10034" transform="translate(-283 -402.25)">
    <g id="グループ_9762" data-name="グループ 9762" transform="translate(283.012 402.25)">
      <ellipse id="楕円形_105" data-name="楕円形 105" cx="63.18" cy="62.694" rx="63.18" ry="62.694" transform="translate(0 0)" fill="#fff"/>
      <g id="マスクグループ_11" data-name="マスクグループ 11" transform="translate(-0.012 0)" clip-path="url(#clip-path)">
        <g id="グループ_9731" data-name="グループ 9731" transform="translate(9.631 16.367)">
          <path id="パス_90361" data-name="パス 90361" d="M36.789,298.176a34.224,34.224,0,0,1-1.8-4.811,4.707,4.707,0,0,1-4-1.018,13.141,13.141,0,0,1-3.833-6.27c-.818-2.439-.854-6.375.386-8.506a4.035,4.035,0,0,1,3.633-2,4.348,4.348,0,0,1,3.139,1.163l.2.193.4-.3c2.427-1.841,21.3-19.58,23.2-21.769.126-.014.222-.027.222-.027,13.457-1.771,21.749,9.757,25.945,18.81a44.8,44.8,0,0,1,4.067,22.127c-.207.527-.391.969-.538,1.264-.937,2.507-6.021,11.2-12.464,14.768.023,1.345-.018,1.832.105,3.525a8.239,8.239,0,0,0,.4,2.324,5.672,5.672,0,0,0,1.7,2.479,19.127,19.127,0,0,0,5.7,2.885s-3.833,10.773-23.1,10.773-20.848-9.9-20.848-9.9c.858-.337,2.286-.877,2.286-.877a19.134,19.134,0,0,0,5.7-2.885,5.674,5.674,0,0,0,1.7-2.479,8.238,8.238,0,0,0,.4-2.324c.114-1.568.087-2.1.1-3.241a25.026,25.026,0,0,1-8.276-6.853,32.2,32.2,0,0,1-4.43-7.051Z" transform="translate(-6.878 -229.945)" fill="#fff"/>
          <path id="パス_90362" data-name="パス 90362" d="M129.6,372.339c-3.637-14.489-18.138-25.326-32.679-28.81-1.647-1.286-3.382-2.455-4.78-3.361a.5.5,0,0,0-.758.309c-2.416,10.627-5.427,21.514-8.769,31.865l46.986,0Z" transform="translate(-21.378 -252.055)" fill="#fff"/>
          <path id="パス_90363" data-name="パス 90363" d="M48.988,372.343c-3.342-10.351-6.354-21.238-8.769-31.865a.5.5,0,0,0-.758-.309c-1.4.906-3.134,2.075-4.781,3.36C20.14,347.013,5.639,357.85,2,372.339Z" transform="translate(-0.518 -252.055)" fill="#fff"/>
          <path id="パス_90370" data-name="パス 90370" d="M35.017,314.533q2.115-.716,4.249-1.23c1.648-1.285,3.383-2.453,4.782-3.36a.5.5,0,0,1,.758.309c.148.649.3,1.3.457,1.953.087-.066.173-.126.26-.2a5.67,5.67,0,0,0,1.7-2.479,8.238,8.238,0,0,0,.4-2.324c.114-1.568.087-2.1.1-3.241a25.026,25.026,0,0,1-8.276-6.853,32.2,32.2,0,0,1-4.43-7.051,34.222,34.222,0,0,1-1.8-4.811,4.706,4.706,0,0,1-4-1.018,13.141,13.141,0,0,1-3.833-6.27c-.818-2.439-.854-6.375.386-8.506a4.035,4.035,0,0,1,3.633-2,4.348,4.348,0,0,1,3.139,1.163l.2.193.4-.3c2.427-1.841,21.3-19.58,23.2-21.769.126-.014.222-.027.222-.027,13.458-1.771,21.749,9.757,25.945,18.81a44.8,44.8,0,0,1,4.067,22.127c-.207.527-.391.969-.538,1.264-.937,2.507-6.021,11.2-12.464,14.768.023,1.345-.018,1.832.105,3.524a8.239,8.239,0,0,0,.4,2.324,6.709,6.709,0,0,0,.831,1.544c.063-.273.13-.549.192-.822a.5.5,0,0,1,.758-.309c1.4.906,3.134,2.075,4.78,3.361.585.14,1.17.3,1.754.46,7.324-1.252,13.453-5.666,16.241-13.067,1.979-5.254,2.3-11.9,1.958-17.444-1.042-16.9-3.376-36.815-15.356-49.893-9.009-9.834-23.362-12.31-35.836-8.121-8.537,2.867-14.967,7.054-18.993,15.347-2.976,6.13-4.239,13.177-4.622,19.942-.179,3.161-.429,6.316-.788,9.462-.923,8.093-4.651,15.216-5.214,23.373-.3,4.306.4,9.186,2.586,12.906,2.722,4.622,7.534,7.2,12.641,8.265Z" transform="translate(-5.104 -221.828)" fill="#dcf7b1"/>
          <path id="パス_90372" data-name="パス 90372" d="M62.917,374.943c-2.606-8.071-5.011-16.468-7.09-24.809A38.084,38.084,0,0,0,69.6,352.266a38.472,38.472,0,0,0,13.108-1.894c-2.065,8.264-4.449,16.577-7.03,24.571Z" transform="translate(-14.447 -254.655)" fill="#ff7c64"/>
          <path id="パス_90395" data-name="パス 90395" d="M34.843,282.476a6.206,6.206,0,0,0-6.719-1.032A5.909,5.909,0,0,0,25,285.437a15.513,15.513,0,0,0,2.227,12.252c1.545,2.317,3.965,4.387,6.935,4.013a1.53,1.53,0,0,0,1.482-1.482,1.491,1.491,0,0,0-1.482-1.482c-4.051.51-6.31-5.389-6.577-8.641-.139-1.706-.135-3.852.921-5.3-.151.208.144-.156.153-.165.057-.053.2-.2.24-.228a2.684,2.684,0,0,1,1.046-.467,3.1,3.1,0,0,1,2.8.64c1.415,1.273,3.519-.818,2.1-2.1h0Z" transform="translate(-6.352 -236.735)" fill="#333"/>
          <path id="パス_90396" data-name="パス 90396" d="M54.216,287.549c-.46,1.5-.16,4.94,2.676,5.234,3.748-.022,3.948-4.186,2.686-6.143-1.033-1.6-4.071-2.269-5.361.909Z" transform="translate(-13.985 -237.877)" fill="#333"/>
          <path id="パス_90397" data-name="パス 90397" d="M92.656,287.549c.461,1.5.161,4.94-2.675,5.233-3.748-.022-3.948-4.186-2.686-6.143C88.328,285.036,91.366,284.37,92.656,287.549Z" transform="translate(-22.41 -237.877)" fill="#333"/>
          <path id="パス_90398" data-name="パス 90398" d="M54.411,341.3c.1-.076.565-.437.323-.249q-.171.131.086-.067c.084-.062.167-.128.246-.2a4.849,4.849,0,0,0,.4-.382,7.262,7.262,0,0,0,.818-1.06,7.133,7.133,0,0,0,1.01-2.49,25.649,25.649,0,0,0,.3-4.605,1.482,1.482,0,0,0-2.965,0c0,.518,0,1.035-.024,1.554-.015.354-.036.707-.061,1.061-.013.186-.025.373-.04.559-.007.092-.015.184-.024.276,0,.035-.048.4-.022.219.023-.16-.022.122-.027.149-.017.092-.036.184-.057.275a4.741,4.741,0,0,1-.157.54c-.01.027-.114.288-.043.119s-.036.076-.05.1c-.077.165-.16.327-.25.486q-.119.209-.253.407c-.045.066-.092.13-.139.195.077-.1.11-.132.005-.02-.125.133-.247.268-.382.393-.024.023-.218.208-.081.081.219-.2-.555.429-.114.091a1.633,1.633,0,0,0-.681.886,1.514,1.514,0,0,0,.15,1.142,1.5,1.5,0,0,0,2.028.532h0Z" transform="translate(-13.503 -249.645)" fill="#333"/>
          <path id="パス_90399" data-name="パス 90399" d="M90.4,332.256c0,2.511-.019,5.274,1.522,7.389a1.519,1.519,0,0,0,2.028.532,1.5,1.5,0,0,0,.532-2.028,6.014,6.014,0,0,1-.489-.79,2.988,2.988,0,0,1-.2-.426c.116.357-.047-.142-.067-.205a4.414,4.414,0,0,1-.2-.932c.033.4-.007-.121-.013-.195-.014-.155-.024-.311-.036-.465-.068-.96-.1-1.918-.1-2.88a1.482,1.482,0,0,0-2.965,0h0Z" transform="translate(-23.394 -249.645)" fill="#333"/>
          <path id="パス_90400" data-name="パス 90400" d="M87.675,328.383c3.679-.84,6.829-3.294,9.391-5.969a41.561,41.561,0,0,0,6.153-8.336,29.459,29.459,0,0,0,1.894-4.1,1.494,1.494,0,0,0-1.035-1.823,1.515,1.515,0,0,0-1.823,1.035c-.194.509-.414,1.007-.626,1.508.178-.422-.179.377-.248.518-.322.655-.675,1.295-1.044,1.924A39.641,39.641,0,0,1,97.1,317.88c-2.628,3.283-5.97,6.676-10.212,7.644-1.86.425-1.073,3.284.788,2.859h0Z" transform="translate(-22.21 -243.778)" fill="#333"/>
          <path id="パス_90401" data-name="パス 90401" d="M35.25,303.883a35.016,35.016,0,0,0,7.566,15.143c3.582,4.179,8.189,7.487,13.725,8.336a1.53,1.53,0,0,0,1.823-1.036,1.493,1.493,0,0,0-1.035-1.823c-5.1-.781-9.121-3.728-12.417-7.573a31.893,31.893,0,0,1-6.8-13.834c-.416-1.861-3.275-1.074-2.859.788h0Z" transform="translate(-9.111 -242.207)" fill="#333"/>
          <path id="パス_90403" data-name="パス 90403" d="M73.535,298.242a25.615,25.615,0,0,1,.6,2.758l-.053-.394a1.681,1.681,0,0,1,.01.381l.053-.394a.961.961,0,0,1-.041.171l.15-.354a.7.7,0,0,1-.061.11l.232-.3a.6.6,0,0,1-.09.089l.3-.232a1.809,1.809,0,0,1-.219.116l.354-.15a1.591,1.591,0,0,1-.368.108l.394-.053a1.494,1.494,0,0,1-.345,0l.394.053c-.13-.019-.258-.05-.388-.067a1.131,1.131,0,0,0-.591-.027,1.107,1.107,0,0,0-.551.176,1.482,1.482,0,0,0-.531,2.028,1.418,1.418,0,0,0,.886.681c.3.041.6.118.9.131a2.9,2.9,0,0,0,1.34-.32,1.949,1.949,0,0,0,1.076-1.283,3.187,3.187,0,0,0-.013-1.375c-.15-.889-.356-1.769-.584-2.641a1.484,1.484,0,0,0-1.823-1.036,1.511,1.511,0,0,0-1.035,1.823h0Z" transform="translate(-18.784 -240.74)" fill="#333"/>
          <path id="パス_90404" data-name="パス 90404" d="M63.6,245.728c.417.932.84,1.862,1.253,2.8q.38.858.749,1.722c.036.084.156.386-.015-.036.027.065.054.13.082.194q.087.207.171.414.153.375.3.753a1.6,1.6,0,0,0,.681.886,1.515,1.515,0,0,0,1.142.15A1.5,1.5,0,0,0,69,250.783c-.85-2.222-1.868-4.379-2.837-6.551a1.487,1.487,0,0,0-2.028-.532,1.527,1.527,0,0,0-.532,2.028h0Z" transform="translate(-16.413 -227.06)" fill="#333"/>
          <path id="パス_90405" data-name="パス 90405" d="M59.5,253.307c-2.393,2.766-5.26,5.208-7.909,7.72-3.822,3.625-7.666,7.23-11.562,10.776-.761.693-1.525,1.384-2.3,2.065-.275.242-.551.484-.829.72-.147.125-.838.672-.328.282a1.532,1.532,0,0,0-.532,2.028,1.492,1.492,0,0,0,2.028.532c3.05-2.334,5.8-5.12,8.612-7.73q5.828-5.419,11.562-10.939c1.13-1.095,2.321-2.167,3.353-3.359,1.243-1.436-.846-3.542-2.1-2.1h0Z" transform="translate(-9.274 -229.472)" fill="#333"/>
          <path id="パス_90406" data-name="パス 90406" d="M68.918,255.8a18.645,18.645,0,0,1,12.369,2.647,29.025,29.025,0,0,1,8.56,8.713,44.864,44.864,0,0,1,7.626,27.718,40.394,40.394,0,0,1-5.219,17.3,1.484,1.484,0,0,0,2.56,1.5,44.725,44.725,0,0,0,4.166-33.5c-2.344-8.835-7.369-18.006-14.912-23.427a21.365,21.365,0,0,0-15.151-3.912,1.529,1.529,0,0,0-1.482,1.482,1.491,1.491,0,0,0,1.482,1.482h0Z" transform="translate(-17.451 -229.433)" fill="#333"/>
          <path id="パス_90407" data-name="パス 90407" d="M34.508,312.537c.408,0-.452-.136-.432-.13-.182-.044-.362-.09-.543-.137q-.675-.178-1.339-.4a19.069,19.069,0,0,1-2.476-1,16.428,16.428,0,0,1-4.409-3.075A16.713,16.713,0,0,1,20.83,297.54c-.9-8.655,3.08-16.558,4.658-24.876a123.215,123.215,0,0,0,1.353-13.956,56.009,56.009,0,0,1,2.406-13.014,30.928,30.928,0,0,1,5.123-10.015,26.193,26.193,0,0,1,7.515-6.3c12.294-6.982,28.9-7.3,39.8,2.538,5.422,4.895,9.075,11.618,11.473,18.44a97.082,97.082,0,0,1,4.587,21.906c.814,7.6,1.715,15.585.184,23.141a21.543,21.543,0,0,1-4.447,9.876,18.919,18.919,0,0,1-7.866,5.461,24.935,24.935,0,0,1-5.106,1.242,1.491,1.491,0,0,0-1.035,1.823,1.521,1.521,0,0,0,1.823,1.035A22.387,22.387,0,0,0,98.646,302.7c3.676-7.65,3.224-16.495,2.585-24.725-1.209-15.564-3.872-32.312-14.165-44.695a33.015,33.015,0,0,0-19.5-11.367,40.233,40.233,0,0,0-22.876,2.82c-6.882,2.891-12.584,7.577-15.942,14.337a46.53,46.53,0,0,0-4.067,12.969c-.813,4.813-.918,9.683-1.372,14.534a54.351,54.351,0,0,1-1.047,7.075c-.509,2.234-1.161,4.432-1.807,6.629-1.291,4.394-2.546,8.854-2.711,13.46a23.986,23.986,0,0,0,2.689,12.516,18.214,18.214,0,0,0,8.673,7.589,25.663,25.663,0,0,0,2.7,1.015,10.107,10.107,0,0,0,2.7.643,1.483,1.483,0,0,0,0-2.965h0Z" transform="translate(-4.585 -221.32)" fill="#333"/>
          <path id="パス_90408" data-name="パス 90408" d="M55.471,351.22a41.676,41.676,0,0,0,13.6,2.051,44.385,44.385,0,0,0,13.6-1.925c1.808-.585,1.035-3.448-.788-2.859a41.528,41.528,0,0,1-12.812,1.819,38.995,38.995,0,0,1-12.81-1.945c-1.812-.61-2.59,2.253-.788,2.859h0Z" transform="translate(-14.09 -254.174)" fill="#333"/>
          <path id="パス_90409" data-name="パス 90409" d="M33.776,342.79c-11.691,2.792-23.305,10.1-29.791,20.627a33.479,33.479,0,0,0-3.932,9.213c-.474,1.849,2.385,2.638,2.859.788,2.844-11.1,11.928-19.494,21.979-24.335a45.023,45.023,0,0,1,9.674-3.433c1.855-.443,1.07-3.3-.788-2.859Z" transform="translate(0 -252.742)" fill="#333"/>
          <path id="パス_90410" data-name="パス 90410" d="M101.008,345.649c11.069,2.577,21.91,9.412,27.957,19.174a30.753,30.753,0,0,1,3.688,8.594c.473,1.847,3.333,1.064,2.859-.788-3.048-11.9-12.78-21.1-23.614-26.236a50.377,50.377,0,0,0-10.1-3.6c-1.856-.432-2.648,2.426-.788,2.859h0Z" transform="translate(-25.865 -252.743)" fill="#333"/>
          <path id="パス_90411" data-name="パス 90411" d="M95.986,372.58c2.155-3.925,4.276-7.869,6.331-11.848a10.32,10.32,0,0,0,1.245-2.76,3.082,3.082,0,0,0-1.012-2.654c-1.448-1.593-3.033-3.069-4.6-4.54l-.3,2.328,2.486-1.423a10.309,10.309,0,0,0,2.465-1.525c1.351-1.443-.3-3.434-1.262-4.577a26.422,26.422,0,0,0-4.176-3.822,50.332,50.332,0,0,0-4.57-3.229,2.119,2.119,0,0,0-2.271-.153c-.852.5-.967,1.5-1.17,2.372q-.686,2.952-1.413,5.893-1.454,5.842-3.1,11.634-1.875,6.616-3.986,13.163c-.586,1.82,2.276,2.6,2.859.788q2.549-7.916,4.759-15.935,1.1-3.985,2.106-7.992.5-1.994.98-3.992.249-1.038.491-2.078c.067-.288.133-.576.2-.864.03-.125.285-.864.068-.659l-.655.381q-.594-.1-.248.083l.244.161c.211.139.422.279.632.421q.672.451,1.335.916c.918.645,1.826,1.307,2.694,2.018a26.989,26.989,0,0,1,2.387,2.178,12.529,12.529,0,0,1,.987,1.13,6.385,6.385,0,0,1,.655.959l.2-.748q.376-.322-.157.031l-.622.356-1.087.623-2.33,1.334a1.5,1.5,0,0,0-.3,2.328c1.324,1.242,2.64,2.493,3.9,3.8.208.215.872.7.932.989-.065-.3-.3.362-.37.488q-.678,1.324-1.367,2.642-2.7,5.177-5.522,10.29c-.919,1.674,1.64,3.171,2.56,1.5h0Z" transform="translate(-20.851 -251.544)" fill="#333"/>
          <path id="パス_90412" data-name="パス 90412" d="M59.312,371.437q-3.9-12.111-7-24.462-.753-3.009-1.453-6.03c-.213-.921-.307-2.039-1.213-2.569a2.211,2.211,0,0,0-2.431.258,44.936,44.936,0,0,0-7.78,6.059c-1.018,1.05-2.8,2.844-2.554,4.451.173,1.14,1.284,1.585,2.175,2.095l3.266,1.865-.3-2.328c-1.532,1.437-3.055,2.887-4.49,4.421a3.319,3.319,0,0,0-1.152,2.582,8.514,8.514,0,0,0,1.274,2.957c2.055,3.977,4.173,7.921,6.325,11.845.918,1.674,3.479.179,2.56-1.5q-2.806-5.119-5.516-10.288-.647-1.241-1.287-2.487c-.1-.2-.231-.406-.316-.617s-.1-.173-.127-.033c.035-.211.626-.675.8-.861,1.3-1.353,2.656-2.645,4.023-3.927a1.5,1.5,0,0,0-.3-2.328l-2.333-1.332-1.089-.622-.622-.355q-.533-.351-.159-.036l.2.748c-.009.241.162-.213.2-.284.116-.192.24-.381.372-.563a11.189,11.189,0,0,1,.864-1.026,25.815,25.815,0,0,1,2.526-2.338c.857-.706,1.749-1.366,2.657-2.006q.659-.465,1.33-.915.316-.212.632-.421l.305-.2q.488-.247-.208-.109l-.654-.381c-.152-.144.05.594.071.686q.119.516.239,1.031.241,1.033.489,2.065.456,1.9.933,3.8,1.024,4.069,2.14,8.116,2.195,7.964,4.732,15.829c.583,1.809,3.447,1.036,2.859-.788h0Z" transform="translate(-9.412 -251.544)" fill="#333"/>
          <path id="パス_90856" data-name="パス 90856" d="M-6270.093-12832.625c1.3-2.522,9.122-2.522,10.425,0s-2.2,6.341-4.81,6.341S-6271.4-12830.1-6270.093-12832.625Z" transform="translate(6320.9 12899.528)" fill="none" stroke="#333" stroke-width="2"/>
        </g>
      </g>
      <g id="楕円形_140" data-name="楕円形 140" transform="translate(0 0)" fill="none" stroke="#333" stroke-width="3">
        <ellipse cx="63.18" cy="62.694" rx="63.18" ry="62.694" stroke="none"/>
        <ellipse cx="63.18" cy="62.694" rx="61.68" ry="61.194" fill="none"/>
      </g>
    </g>
    <g id="グループ_9717" data-name="グループ 9717" transform="translate(431.502 446.221)">
      <g id="合体_64" data-name="合体 64" transform="translate(0 0)" fill="#faf4ed">
        <path d="M 232.4979248046875 44.40451812744141 L 24.71222114562988 44.40451812744141 C 20.83925437927246 44.40451812744141 17.19815444946289 42.89628601074219 14.45965385437012 40.15768432617188 C 11.72108745574951 37.41901779174805 10.21288776397705 33.77761840820312 10.21288776397705 29.9042854309082 L 10.21288776397705 17.29945182800293 L 10.21288776397705 16.60748481750488 L 9.686453819274902 16.15835189819336 C 8.874920845031738 15.46595096588135 8.133586883544922 14.68741798400879 7.483020782470703 13.84445190429688 C 5.264578342437744 10.97029781341553 3.800386190414429 7.654778957366943 2.873878240585327 4.962602138519287 C 4.833717823028564 6.480961799621582 7.520799160003662 8.105850219726562 10.99222087860107 9.242051124572754 L 11.04418754577637 9.259084701538086 L 11.0524206161499 9.261751174926758 L 12.11875438690186 9.609951019287109 L 12.75415420532227 8.685551643371582 C 15.46455383300781 4.742384910583496 19.93485450744629 2.388284683227539 24.71222114562988 2.388284683227539 L 232.4979248046875 2.388284683227539 C 236.3709564208984 2.388284683227539 240.0122222900391 3.896517992019653 242.7509613037109 6.635151386260986 C 245.4897918701172 9.373885154724121 246.9981231689453 13.01525115966797 246.9981231689453 16.88848495483398 L 246.9981231689453 29.9042854309082 C 246.9981231689453 33.77754974365234 245.4897918701172 37.41891860961914 242.7509613037109 40.15764999389648 C 240.0122222900391 42.89628601074219 236.3709564208984 44.40451812744141 232.4979248046875 44.40451812744141 Z" stroke="none"/>
        <path d="M 232.4979248046875 42.90451812744141 C 235.9702911376953 42.90451812744141 239.2348937988281 41.55231857299805 241.6903228759766 39.09695053100586 C 244.1458282470703 36.64155197143555 245.4981231689453 33.37685012817383 245.4981231689453 29.9042854309082 L 245.4981231689453 16.88848495483398 C 245.4981231689453 13.41591835021973 244.1458282470703 10.15125179290771 241.6903228759766 7.695817947387695 C 239.2348937988281 5.240484714508057 235.9702911376953 3.888284683227539 232.4979248046875 3.888284683227539 L 24.71222114562988 3.888284683227539 C 20.42898750305176 3.888284683227539 16.4207878112793 5.999284744262695 13.9902868270874 9.535218238830566 L 12.71945381164551 11.38405132293701 L 10.52562046051025 10.66765117645264 C 8.890337944030762 10.13241863250732 7.417941093444824 9.491852760314941 6.102993965148926 8.802212715148926 C 6.808985710144043 10.20193481445312 7.657258987426758 11.61526584625244 8.670520782470703 12.92801856994629 C 9.257853507995605 13.68908500671387 9.927220344543457 14.3919849395752 10.66005420684814 15.0172176361084 L 11.71288776397705 15.91548442840576 L 11.71288776397705 29.9042854309082 C 11.71288776397705 33.376953125 13.06505393981934 36.64168548583984 15.52032089233398 39.09704971313477 C 17.97552108764648 41.55231857299805 21.23992156982422 42.90451812744141 24.71222114562988 42.90451812744141 L 232.4979248046875 42.90451812744141 M 232.4979248046875 45.90451812744141 L 24.71222114562988 45.90451812744141 C 15.87598705291748 45.90451812744141 8.712887763977051 38.74141693115234 8.712887763977051 29.9042854309082 L 8.712887763977051 17.29945182800293 C 7.868954181671143 16.57941818237305 7.051020622253418 15.7398509979248 6.295520782470703 14.76088523864746 C 1.33832061290741 8.338484764099121 2.062174462480471e-05 -1.523234004707774e-05 2.062174462480471e-05 -1.523234004707774e-05 C 2.062174462480471e-05 -1.523234004707774e-05 3.594587326049805 5.242484569549561 11.45882034301758 7.816484928131104 C 11.47848701477051 7.822951316833496 11.49842071533203 7.829451560974121 11.51802062988281 7.835851669311523 C 14.40218734741211 3.639918088912964 19.23595428466797 0.8882847428321838 24.71222114562988 0.8882847428321838 L 232.4979248046875 0.8882847428321838 C 241.3341217041016 0.8882847428321838 248.4981231689453 8.051384925842285 248.4981231689453 16.88848495483398 L 248.4981231689453 29.9042854309082 C 248.4981231689453 38.74141693115234 241.3341217041016 45.90451812744141 232.4979248046875 45.90451812744141 Z" stroke="none" fill="#333"/>
      </g>
      <rect id="長方形_14860" data-name="長方形 14860" width="198.89" height="5.111" transform="translate(29.109 27.621)" fill="#dcf7b1"/>
      <path id="パス_94217" data-name="パス 94217" d="M-96.254-11.59a11.087,11.087,0,0,1-3.591,5.282L-98.648-5a7.027,7.027,0,0,0,1.083-1.311V.38a2.578,2.578,0,0,1-.1.836h1.729A2.372,2.372,0,0,1-96.045.3v-8.55a14.06,14.06,0,0,0,1.292-2.85Zm-.3-4.389a11,11,0,0,1-3.192,4.313l1.292,1.178a15.781,15.781,0,0,0,3.515-5.054Zm8.854,1.235h-1.71a4.022,4.022,0,0,1,.1.893v2.888h-1.045v-3.781a3.9,3.9,0,0,1,.1-.931h-1.71a4.209,4.209,0,0,1,.1.931v3.781h-1.1v-2.888a3.568,3.568,0,0,1,.1-.893H-94.6a4.022,4.022,0,0,1,.1.893v4.028a2.63,2.63,0,0,1-.1.741h1.71a3.361,3.361,0,0,1-.076-.532h3.629l-.076.532h.988q-.057.076-.209.247l1.235,1.2a5.786,5.786,0,0,1,.7-1.311,17.948,17.948,0,0,0,.912,4.978A8.833,8.833,0,0,1-90.212-.133l1.368,1.5A10.119,10.119,0,0,0-85.215-2.28a7.4,7.4,0,0,0,2.451,3.686L-81.7-.19a7.721,7.721,0,0,1-2.736-3.553,13.094,13.094,0,0,0,1.653-6.9,4.887,4.887,0,0,1,.988.1V-12.16a4.513,4.513,0,0,1-1.121.1H-85.6q.19-1.121.437-2.356l.247-1.235-1.482-.228v.266q0,.19-.038.589A11.259,11.259,0,0,1-87.8-10.108v-3.743A2.943,2.943,0,0,1-87.7-14.744Zm-4.332,8.3h1.52v3.249a15.589,15.589,0,0,1-1.729.323l.836,1.71a2.2,2.2,0,0,1,.741-.323q.608-.19,3.211-1.292l.019-1.786a7.768,7.768,0,0,1-1.729.912V-6.441h.418a2.289,2.289,0,0,1,.684.1v-1.71a3.532,3.532,0,0,1-.855.1h-4.959a2.882,2.882,0,0,1-.855-.1v1.71a3.532,3.532,0,0,1,.855-.1h.475q-.038,4.408-2.413,5.814l1.539,1.2Q-92.093-1.444-92.036-6.441Zm6.992.722a17.317,17.317,0,0,1-.551-4.465v-.456h1.463A17.945,17.945,0,0,1-85.044-5.719Zm11.229.057-1.235.171a21.015,21.015,0,0,1,.912,5.054l1.5-1.026a4.978,4.978,0,0,1-.228-.874q-.057-.323-.437-1.691A12.284,12.284,0,0,0-73.815-5.662Zm-5.4-.057q-.456,4.085-1.444,5.187L-79.268.7q.019-.114.152-.551a28.289,28.289,0,0,0,1.121-4.978,2.238,2.238,0,0,1,.171-.8Zm4.636-2.565q-1.235.247-2.565.475a33.451,33.451,0,0,0,4.009-5.225,4.577,4.577,0,0,1,.551-.76l-1.691-.38a4.387,4.387,0,0,1-.684,1.406,20.154,20.154,0,0,1-1.52,2.2l-.95-1.311a13.072,13.072,0,0,0,1.881-2.565q.171-.323.722-1.121l-1.729-.361a7.5,7.5,0,0,1-1.691,3.116q-.741-.741-.741-.893l-1.52.779a6.664,6.664,0,0,1,1.121.988A19.364,19.364,0,0,1-77.311-9.5a17.7,17.7,0,0,1-1.653,1.862q-.855.038-1.2.038l-.627-.038.608,1.615h.019a4.29,4.29,0,0,1,1.178-.209q.988-.114,1.957-.285V.456a2.246,2.246,0,0,1-.1.7h1.634a3.6,3.6,0,0,1-.1-.836V-6.783l1.425-.323a4.64,4.64,0,0,1,.247,1.349l1.539-.589a3.429,3.429,0,0,1-.285-.608L-72.9-7.6a11.716,11.716,0,0,0-1.14-2.451l-1.292.418A3.725,3.725,0,0,1-74.575-8.284Zm9.918,4.845a3.133,3.133,0,0,1,.8.095V-4.959a5.144,5.144,0,0,1-1.178.095H-67.3v-1.9a2.769,2.769,0,0,1,.1-.855h-1.634a3.532,3.532,0,0,1,.1.855v1.9h-2.641a2.868,2.868,0,0,1-.8-.095v1.615a5.739,5.739,0,0,1,1.2-.095h2.242V-.494H-72.39a3.252,3.252,0,0,1-.855-.1V1.026A4.568,4.568,0,0,1-72.39.95h8.759a2.685,2.685,0,0,1,.836.1V-.589a7.564,7.564,0,0,1-1.482.1H-67.3V-3.439Zm-4.256-6.27A11.872,11.872,0,0,1-72.789-7.7l.931,1.634q.608-.4.76-.475a22.158,22.158,0,0,0,3.306-2.185,19.145,19.145,0,0,0,2.47,1.71,19.052,19.052,0,0,1,1.729,1.1l.8-1.672a3.166,3.166,0,0,1-.817-.266,13.118,13.118,0,0,1-3.1-1.843A23.944,23.944,0,0,0-63.65-13.7l-.988-1.216H-71.4a3.661,3.661,0,0,1-.912-.095V-13.4a4.062,4.062,0,0,1,.741-.1l.4.836A10.983,10.983,0,0,0-68.913-9.709Zm-1.064-3.781h4.465a14.957,14.957,0,0,1-2.3,2.85A8.392,8.392,0,0,1-69.977-13.49Zm12.483,5.054V-6.8h-1.919V-8.436Zm0-1.349h-1.919v-1.482h1.919Zm0-2.85h-1.919v-1.558h1.919ZM-61.655.228l1.216.779q.038-.361.152-.931.114-.589.228-1.615t.152-2.033a3.227,3.227,0,0,1,.133-1.121l-1.159-.228Q-60.99-.95-61.655.228Zm3.382-.475V-.38a17.229,17.229,0,0,0-.437-4.256l-.893.114a27.1,27.1,0,0,1,.228,3A14.677,14.677,0,0,1-59.451.19Zm.114-4.389A9.527,9.527,0,0,1-57.7-2.185,7.445,7.445,0,0,1-57.8-.817l1.216-.494a8.963,8.963,0,0,0-.7-3.458Zm1.9,2.907,1.178-.4A9.418,9.418,0,0,0-55.841-5l-.988.095a7.683,7.683,0,0,1,.589,2.793Q-56.24-1.919-56.259-1.729Zm8.075-3.838q-.019-.152-.019-1.862h2.071v1.862Zm-1.482,0h-2.109V-7.429h2.128Zm-3.648,2.185h1.634a2.391,2.391,0,0,1-.095-.76h1.919a6.327,6.327,0,0,1-4.2,4.028,14.068,14.068,0,0,0,.3-2.071q.114-1.406.152-1.824l.152-1.9L-54.34-6.8h-1.786V-8.436h1.178a3.053,3.053,0,0,1,.779.1V-9.88a3.123,3.123,0,0,1-.76.1h-1.2v-1.482h1.463l.494.076v-1.52a5.965,5.965,0,0,1-1.121.076h-.836v-1.558h1.33a2.692,2.692,0,0,1,.931.1v-1.539a5.225,5.225,0,0,1-.931.076h-5.966V-5.434h5.852l.057.038Q-55-1.1-55.442-.3a.707.707,0,0,1-.665.323,10.044,10.044,0,0,1-1.729-.266l.741,1.577h1.406A1.6,1.6,0,0,0-54.112.1l.893,1.33A5.221,5.221,0,0,1-52.44.912a8.3,8.3,0,0,0,3.515-3.9,9.244,9.244,0,0,0,3.686,4.009,4.951,4.951,0,0,1,.608.4l1.045-1.539a5.862,5.862,0,0,1-4.427-4.028h1.881a4.445,4.445,0,0,1-.1.76h1.634a4.67,4.67,0,0,1-.095-.988V-8.854H-48.2v-1.235h1.14a4.147,4.147,0,0,1,.95.1v-.741q.3.3.722.665a4.776,4.776,0,0,1,.627.627l.874-1.5A16.667,16.667,0,0,1-48.2-15.789h-1.5Q-51.775-12.008-54-10.982l.855,1.558q0-.076.513-.513.532-.437.893-.76v.7a4.878,4.878,0,0,1,1.026-.1h1.064v1.235h-3.572V-4.37A2.957,2.957,0,0,1-53.314-3.382Zm2.413-8.132a19.6,19.6,0,0,0,1.976-2.717,23.457,23.457,0,0,0,2.071,2.7q-.38.019-.893.019Zm15.5,3.4A1.608,1.608,0,0,0-34.9-6.935a1.608,1.608,0,0,0,1.178.494,1.608,1.608,0,0,0,1.178-.494,1.608,1.608,0,0,0,.494-1.178,1.608,1.608,0,0,0-.494-1.178,1.608,1.608,0,0,0-1.178-.494,1.608,1.608,0,0,0-1.178.494A1.608,1.608,0,0,0-35.4-8.113Zm25.251-2.527,1.615-.513a3.346,3.346,0,0,0-.988-1.463h2.375a3.036,3.036,0,0,1,.836.1v-1.52a4.347,4.347,0,0,1-.988.1h-4.731a5.894,5.894,0,0,0,.7-1.805l-1.52-.342a9.256,9.256,0,0,1-2.622,4.427l1.349,1.007a8.227,8.227,0,0,0,1.482-1.957h1.52A4.877,4.877,0,0,1-10.146-10.64Zm-7.923-.019,1.615-.475a4.44,4.44,0,0,0-.912-1.482h1.71a2.913,2.913,0,0,1,.836.1v-1.52a4.246,4.246,0,0,1-.969.1h-4.275a10.14,10.14,0,0,0,.741-1.786l-1.6-.38A8.911,8.911,0,0,1-23.655-11.4l1.216,1.235a20.976,20.976,0,0,0,1.881-2.451h1.6A5.907,5.907,0,0,1-18.069-10.659Zm-3.61,11.7A9.88,9.88,0,0,1-20.121.209a19.353,19.353,0,0,0,4.826-3.382V.361a3.123,3.123,0,0,1-.095.855h1.634a4.2,4.2,0,0,1-.095-.988V-3.781H-8.4l.057.076a9.4,9.4,0,0,1-.513,2.318,3.855,3.855,0,0,1-1.444.171,8.422,8.422,0,0,1-2.527-.456L-11.78.209h1.862q1.786,0,2.261-.779A6.22,6.22,0,0,0-7.2-1.824a10.785,10.785,0,0,0,.342-2.261l-.893-1.007h-6.1V-6.5h4.256a3.921,3.921,0,0,1-.076.836h1.615a3.684,3.684,0,0,1-.1-.855v-4.066H-20.007a4.9,4.9,0,0,1-.969-.076v1.5a5.432,5.432,0,0,1,1.121-.1h4.56v1.444h-5.757A18.4,18.4,0,0,1-21.6-5.377q-.266.7-.532,1.368A3.864,3.864,0,0,1-22.8-2.888l1.71.266a6.292,6.292,0,0,1,.418-1.159h4.2a18.22,18.22,0,0,1-6.8,3.515Zm6.384-6.137h-4.883A7.255,7.255,0,0,0-19.931-6.1a2.635,2.635,0,0,1,.095-.4h4.541Zm1.444-2.717V-9.253h4.256v1.444ZM.1-12.1a2.589,2.589,0,0,1,1.577.475,1.783,1.783,0,0,1,.646,1.539q0,1.672-2.09,3.135-3.572,2.546-4.2,5.4V0H4.085V-1.634H-2.128q.323-1.9,4.617-5.187a4,4,0,0,0,1.5-3.4,3.09,3.09,0,0,0-.361-1.425A3.609,3.609,0,0,0,.1-13.68H-.247q-2.774,0-3.762,3.838l1.14.76Q-2.147-12.1.1-12.1ZM15.77-8.474q0,6.118-2.85,7.923L14.5.836,15.143-.1a12.994,12.994,0,0,0,2.033-6.764q0-.3.019-1.558h2.736V.437a2.868,2.868,0,0,1-.1.8H21.47a2.28,2.28,0,0,1-.1-.836V-8.417h1.558a2.686,2.686,0,0,1,.722.1V-9.937a5.47,5.47,0,0,1-.969.076H17.157l-.076-2.527a16.166,16.166,0,0,0,5.13-1.159q1.254-.551,1.254-.57l-1.6-1.121a6.841,6.841,0,0,1-1.121.684,14.305,14.305,0,0,1-4.541.836l-.836-.019.247,2.014v.019A31.783,31.783,0,0,1,15.77-8.474ZM13.585-1.862l.665-1.8a13.7,13.7,0,0,1-3.059-1.919H14.1a2.067,2.067,0,0,1,.684.095V-7.125a5.783,5.783,0,0,1-1.254.1H11.191V-8.417h2.736a3.532,3.532,0,0,1,.855.1V-9.937a3.8,3.8,0,0,1-.912.1H12.6a6.683,6.683,0,0,0,.95-2.831,4.469,4.469,0,0,1,1.064.1v-1.615a5.537,5.537,0,0,1-1.216.1h-2.2v-.874a1.991,1.991,0,0,1,.1-.874H9.652a1.991,1.991,0,0,1,.1.874v.874H7.106a2.916,2.916,0,0,1-.779-.1v1.615a4.509,4.509,0,0,1,1.045-.1,4.67,4.67,0,0,1,.874,2.831H6.878a4.4,4.4,0,0,1-.855-.1v1.615a3.361,3.361,0,0,1,.817-.1H9.747V-7.03H6.84a2.713,2.713,0,0,1-.817-.1v1.634a3.829,3.829,0,0,1,1.159-.095H9.5A9.317,9.317,0,0,1,5.6-1.71L6.612-.19A15.226,15.226,0,0,0,9.747-3.8V.361a2.252,2.252,0,0,1-.1.874h1.634a2.44,2.44,0,0,1-.1-.874V-4.294A19.488,19.488,0,0,1,13.585-1.862ZM12.179-12.673a7.1,7.1,0,0,1-.988,2.831H9.671q-.057-.285-.1-.57a6.986,6.986,0,0,0-.684-2.261Zm14.1,7.068a16.572,16.572,0,0,0,2.983-3.04,34.667,34.667,0,0,0,3,2.584l.893-1.52A32.759,32.759,0,0,1,30.1-9.842q.418-.665.817-1.387l-1.653-.38a11.153,11.153,0,0,1-4.085,4.674Zm8.189-7.961v-1.52a2.237,2.237,0,0,1,.095-.779H32.946a2.44,2.44,0,0,1,.1.779v1.52H27.322a2.92,2.92,0,0,1-.912-.1v1.634a4.114,4.114,0,0,1,.912-.095H40.166a3.525,3.525,0,0,1,.912.095v-1.615a5.21,5.21,0,0,1-.988.076ZM33.041.418a3.361,3.361,0,0,1-.1.817h1.615a3.216,3.216,0,0,1-.095-.817v-3.61h6.783a4.209,4.209,0,0,1,.931.1V-4.712a4.209,4.209,0,0,1-.931.1H34.466V-5.776a2.951,2.951,0,0,1,.095-.817H32.946a3.216,3.216,0,0,1,.1.817v1.159H26.2a3.8,3.8,0,0,1-.912-.1V-3.1h.019a4.022,4.022,0,0,1,.893-.1h6.84ZM35.15-6.4A13.753,13.753,0,0,0,37.259-8.74a23.293,23.293,0,0,0,3.724,2.964l1.064-1.216a17.389,17.389,0,0,1-4.028-2.869q.418-.665.817-1.406l-1.558-.342a9.1,9.1,0,0,1-3.344,3.952Zm13.908.722h-1.9v-1.14h1.9Zm0,3.553v1.1h-1.9v-1.1Zm0-1.254h-1.9V-4.408h1.9Zm4.389-4.294a5.492,5.492,0,0,1,.627-.988,9.021,9.021,0,0,0,1.045-2h4.693L58.786-8.873l-.418.57,1.577.494a3.284,3.284,0,0,1,.285-.665l1.406-2.451L60.648-12.1H55.461q.228-1.159.342-2.3a7.794,7.794,0,0,1,.152-1.254l-1.577-.171q.019.057.076.608-.171,4.75-2.147,6.251A5.927,5.927,0,0,1,53.447-7.676Zm2.508-.076Q55.594-2.489,52.991-.8l-.3.171V-1.14q-.1.114-.893.114H50.407v-1.1h.95a5.423,5.423,0,0,1,1.026.095V-3.477a7.445,7.445,0,0,1-1.368.1h-.608V-4.408h1.14a3.445,3.445,0,0,1,.836.095V-5.8a2.143,2.143,0,0,1-.874.114h-1.1v-1.14h1.748a2.105,2.105,0,0,1,.665.1V-8.189A3.361,3.361,0,0,1,52-8.094H50.654A2.6,2.6,0,0,0,51.718-9.1l-1.463-.513a4.608,4.608,0,0,1-1.026,1.52H47.424a10.712,10.712,0,0,0,1.007-1.767h3.914a2.686,2.686,0,0,1,.722.1v-1.52a3.933,3.933,0,0,1-.874.1h-3.23a10.252,10.252,0,0,0,.4-1.634h2.831a2.412,2.412,0,0,1,.684.095v-1.5a4.084,4.084,0,0,1-1.045.095H47.253A5.887,5.887,0,0,0,47.9-15.58l-1.444-.4a5.062,5.062,0,0,1-2.508,3.534,14.344,14.344,0,0,1,1.311,1.083,4.874,4.874,0,0,0,1.292-1.463H47.9a6.08,6.08,0,0,1-.437,1.634H45.144a3.477,3.477,0,0,1-.874-.1v1.52a1.917,1.917,0,0,1,.855-.1h1.729A5.934,5.934,0,0,1,43.795-6.8,6.191,6.191,0,0,1,44.878-5.4l.855-.741v6.4a4.472,4.472,0,0,1-.095.95h1.615a4.552,4.552,0,0,1-.1-.931h4.864a2.22,2.22,0,0,1,.665.095V.114q.3.665.513,1.2A8.976,8.976,0,0,0,56.772-4.9,8.828,8.828,0,0,0,60.99,1.349q.361-.836.76-1.6-4.313-2.28-4.313-8.512a3.58,3.58,0,0,1,.095-1.178H55.9a8.037,8.037,0,0,1,.076.893Zm21.85,4.579a2.17,2.17,0,0,0,1.786-.589,2.611,2.611,0,0,0,.475-1.444V-13.7H74.195V-2.09a2.9,2.9,0,0,1-.1.931h1.634a4.209,4.209,0,0,1-.1-.931V-12.255h3v7.106a.775.775,0,0,1-.076.38.565.565,0,0,1-.4.133q-.3.019-.608.019A7.8,7.8,0,0,1,76.1-4.94a8.474,8.474,0,0,1,.684,1.729ZM67.963-4.351h-.38l.7,1.691a6.012,6.012,0,0,1,.95-.3l3.477-.779a2.847,2.847,0,0,1,.988-.133V-5.567a4.659,4.659,0,0,1-.95.3l-1.824.437V-12.9a10,10,0,0,0,2.28-.608,16.352,16.352,0,0,0,2.128-1.159l-1.653-1.064a2.26,2.26,0,0,1-.836.722,7.8,7.8,0,0,1-2.052.722l-.684.133-.627.1V-4.5a7.712,7.712,0,0,1-.95.1A3.1,3.1,0,0,0,67.963-4.351Zm-.019-6.992a6.186,6.186,0,0,1-.779-.855,12.763,12.763,0,0,0-1.6-1.615l-.627-.532-.627-.608-1.2.931a1.785,1.785,0,0,1,.665.4l.874.779A18.366,18.366,0,0,1,66.006-11.4q.8.95.8,1.235ZM71.1-.247q-3.192,0-3.667-2.66V-8.113H64.2a3.215,3.215,0,0,1-.95-.1v1.615a4.528,4.528,0,0,1,.988-.076h1.748v3.952q0,.247-.418.665A12.439,12.439,0,0,1,63.707-.684a2.173,2.173,0,0,1-1.178.361L63.84,1.235a12.131,12.131,0,0,1,1.216-.95,9.759,9.759,0,0,0,1.577-1.349,4.934,4.934,0,0,0,4.5,2.242h8.322q.361.038.7.095l.665-1.824q-1.311.133-4.18.209-2.869.095-3.99.095ZM91.9-14.06H89.547l.38,4.978V-5.4l-.133,1.6h1.862l-.133-1.6V-9.082ZM89.547,0H91.9V-2.147H89.547Z" transform="translate(131.109 27.732)" fill="#333"/>
    </g>
  </g>
</svg>
