<svg xmlns="http://www.w3.org/2000/svg" xmlns:xlink="http://www.w3.org/1999/xlink" width="125.389" height="125.389" viewBox="0 0 125.389 125.389">
  <defs>
    <clipPath id="clip-path">
      <ellipse id="楕円形_227" data-name="楕円形 227" cx="62.694" cy="62.694" rx="62.694" ry="62.694" transform="translate(-16039.244 -21483.861)" fill="#fff"/>
    </clipPath>
  </defs>
  <g id="グループ_9819" data-name="グループ 9819" transform="translate(16036.158 21436.219)">
    <ellipse id="楕円形_154" data-name="楕円形 154" cx="62.694" cy="62.694" rx="62.694" ry="62.694" transform="translate(-16036.158 -21436.219)" fill="#fff"/>
    <g id="マスクグループ_52" data-name="マスクグループ 52" transform="translate(3.086 47.643)" clip-path="url(#clip-path)">
      <g id="グループ_9812" data-name="グループ 9812" transform="translate(305.669 -634.037)">
        <path id="パス_91357" data-name="パス 91357" d="M328.479,59.967a4.539,4.539,0,0,1,3.278-1.2,4.208,4.208,0,0,1,3.78,2.1c1.284,2.228,1.23,6.332.368,8.872a13.705,13.705,0,0,1-4.022,6.523,5,5,0,0,1-3.854,1.113l-.37-.063a29.436,29.436,0,0,1-1.326,3.6c-.945,2.566-6.018,11.337-12.527,15.22v4.235a6.873,6.873,0,0,0,.294,2.435,5.926,5.926,0,0,0,1.776,2.586,19.938,19.938,0,0,0,5.946,3.009l1.63.643c-6.394,5.875-14.2,9.685-23.687,9.685a34.545,34.545,0,0,1-24.258-9.69l1.619-.638a19.937,19.937,0,0,0,5.946-3.009,5.913,5.913,0,0,0,1.776-2.586,6.874,6.874,0,0,0,.294-2.435s0-1.624,0-4.277a27.545,27.545,0,0,1-7.368-6.438,34.47,34.47,0,0,1-6.544-12.347,4.9,4.9,0,0,1-4.17-1.043,13.705,13.705,0,0,1-4.022-6.523c-.862-2.54-.917-6.644.368-8.872a4.207,4.207,0,0,1,3.78-2.1,4.532,4.532,0,0,1,3.278,1.2S260.488,26.3,299.468,26.3s29.008,33.668,29.008,33.668Z" transform="translate(-16581.691 -20847.576)" fill="#fff"/>
        <path id="パス_91359" data-name="パス 91359" d="M232.006,163.063c3.927-14.9,19.77-25.985,35.465-29.323a34.669,34.669,0,0,0,25.08,10.485c9.907,0,17.979-4.153,24.525-10.475,15.681,3.343,31.506,14.422,35.431,29.313" transform="translate(-16574.475 -20873.076)" fill="#fff"/>
        <path id="パス_91364" data-name="パス 91364" d="M335.277,25.771a10.414,10.414,0,0,0-.688-1.4,10.255,10.255,0,0,0-9.16-5.412,10.363,10.363,0,0,0-4.121-8.515C318.627,8.5,314.516,7.7,309.89,9.013c-.877-2.942-3.729-6.933-11.64-6.933S287.478,6.071,286.6,9.013c-4.625-1.31-8.737-.514-11.418,1.431a10.362,10.362,0,0,0-4.121,8.515,10.25,10.25,0,0,0-9.15,5.412c-3.083,5.23-.534,11.236.887,11.911-6.606,3.267-7.8,14.329-.924,19.277.053.728.381-2.4,4.109-2.527a4.466,4.466,0,0,1,3.549,1.489c0-1.952,0-4.1,0-4.1a12.116,12.116,0,0,0,8.62-1.512,6.4,6.4,0,0,0,3.178-6.194c2.524,2.158,7.366,1.878,10.45.178s4.837-2.976,6.473-5.571c1.636,2.6,3.388,3.87,6.473,5.571s7.925,1.981,10.45-.178a6.4,6.4,0,0,0,3.178,6.194,12.116,12.116,0,0,0,8.62,1.512v4.1a4.442,4.442,0,0,1,3.544-1.493c3.716.131,4.054,3.234,4.1,2.53,6.883-4.941,5.687-16.01-.912-19.28,1.286-.615,3.519-5.661,1.575-10.511Z" transform="translate(-16580.467 -20841.828)" fill="#ff7c64"/>
        <path id="パス_91388" data-name="パス 91388" d="M261.963,53.6c-5.2-4.012-4.9-13.416,1.129-16.492a1.536,1.536,0,0,0,0-2.634c-.119-.064-.233-.212-.023,0a1.689,1.689,0,0,1-.219-.231c-.142-.214.2.314-.074-.11q-.117-.18-.222-.366a7.85,7.85,0,0,1-.732-1.907,9.857,9.857,0,0,1,.153-5.518,9.1,9.1,0,0,1,8.61-6.351,1.538,1.538,0,0,0,1.525-1.525,8.716,8.716,0,0,1,3.468-7.27c2.92-2.119,6.792-2.119,10.14-1.2a1.554,1.554,0,0,0,1.876-1.065,7.465,7.465,0,0,1,1.746-2.974,9.1,9.1,0,0,1,4.293-2.36c3.763-.982,9.067-.828,12.106,1.92a6.97,6.97,0,0,1,1.45,1.726,5.766,5.766,0,0,1,.753,1.69,1.553,1.553,0,0,0,1.876,1.065c3.348-.913,7.221-.914,10.14,1.2a8.715,8.715,0,0,1,3.468,7.27,1.54,1.54,0,0,0,1.525,1.525,9.079,9.079,0,0,1,8.565,6.2,9.856,9.856,0,0,1,.229,5.548,8.068,8.068,0,0,1-.715,1.948c-.066.121-.4.635-.293.5-.082.1-.172.19-.262.283.137-.14.156-.1-.021,0a1.536,1.536,0,0,0,0,2.634,9.24,9.24,0,0,1,4.757,7.689,10.28,10.28,0,0,1-3.936,9.042,1.533,1.533,0,0,0,0,2.157,1.565,1.565,0,0,0,2.157,0c6.781-5.244,6.518-17.457-1.438-21.522v2.634c1.441-.778,2.186-2.727,2.6-4.2a12.855,12.855,0,0,0-.137-7.518,12.21,12.21,0,0,0-11.507-8.443l1.525,1.525a11.776,11.776,0,0,0-4.761-9.745c-3.619-2.678-8.51-2.816-12.709-1.672l1.876,1.065A11.225,11.225,0,0,0,302.722.651c-4.912-1.284-11.148-.795-15.078,2.7a10.475,10.475,0,0,0-2.991,4.761l1.876-1.065c-4.2-1.145-9.09-1.007-12.709,1.672a11.775,11.775,0,0,0-4.761,9.745l1.525-1.525a12.222,12.222,0,0,0-11.551,8.591,12.892,12.892,0,0,0-.091,7.37c.416,1.476,1.164,3.429,2.608,4.2V34.473c-3.823,1.951-5.937,6.046-6.266,10.212a13.206,13.206,0,0,0,5.137,11.549,1.533,1.533,0,0,0,2.087-.548,1.564,1.564,0,0,0-.548-2.087h0Z" transform="translate(-16579.99 -20841.334)" fill="#333"/>
        <path id="パス_91389" data-name="パス 91389" d="M272.473,62.392a13.6,13.6,0,0,0,9.8-1.665,8.081,8.081,0,0,0,3.879-7.917l-2.55,1.484c2.924,2.383,7.215,2.456,10.641,1.162a17.838,17.838,0,0,0,8.677-6.865h-2.634a17.846,17.846,0,0,0,8.677,6.865c3.425,1.293,7.716,1.22,10.641-1.162l-2.55-1.484a8.08,8.08,0,0,0,3.879,7.917,13.6,13.6,0,0,0,9.8,1.665c1.929-.353,1.111-3.293-.811-2.942a10.559,10.559,0,0,1-6.952-1.058c-1.64-.925-3.243-2.741-2.97-4.771a1.541,1.541,0,0,0-2.55-1.484c-2.062,1.68-5.582,1.264-7.856.306a14.7,14.7,0,0,1-6.671-5.391,1.544,1.544,0,0,0-2.634,0,14.717,14.717,0,0,1-6.671,5.391c-2.273.957-5.794,1.374-7.856-.306a1.541,1.541,0,0,0-2.55,1.484c.274,2.034-1.331,3.841-2.97,4.771a10.539,10.539,0,0,1-6.952,1.058c-1.92-.351-2.743,2.588-.811,2.942Z" transform="translate(-16583.818 -20852.326)" fill="#333"/>
        <path id="パス_91390" data-name="パス 91390" d="M303.683,101.7a11.87,11.87,0,0,0,5.716,1.324,9.314,9.314,0,0,0,5.778-1.708,1.528,1.528,0,0,0,0-2.157,1.573,1.573,0,0,0-2.157,0c.465-.362.114-.092-.005-.015s-.232.141-.352.2c-.063.033-.126.062-.188.094-.2.1-.071-.056.07-.024-.1-.021-.386.145-.486.176a8.638,8.638,0,0,1-1.359.31c.229-.034-.015,0-.117.01-.133.013-.267.024-.4.033q-.483.031-.966.027c-.288,0-.577-.011-.865-.031-.132-.009-.264-.02-.4-.033-.025,0-.5-.076-.179-.019a11.242,11.242,0,0,1-1.269-.281c-.178-.053-.351-.117-.527-.177-.386-.132.236.121-.113-.043q-.326-.154-.645-.322a1.525,1.525,0,0,0-1.539,2.634h0Z" transform="translate(-16591.313 -20864.766)" fill="#333"/>
        <path id="パス_91391" data-name="パス 91391" d="M310.056,84.4a26.682,26.682,0,0,1,.628,2.877l-.054-.406a1.734,1.734,0,0,1,.011.4l.054-.406a.952.952,0,0,1-.043.178l.154-.365a.673.673,0,0,1-.063.115l.239-.309a.633.633,0,0,1-.094.092l.309-.239a1.807,1.807,0,0,1-.228.121l.365-.154a1.636,1.636,0,0,1-.384.112l.406-.054a1.542,1.542,0,0,1-.361,0l.406.054c-.136-.019-.269-.052-.4-.07a1.164,1.164,0,0,0-.609-.027,1.138,1.138,0,0,0-.567.181,1.524,1.524,0,0,0-.547,2.087,1.459,1.459,0,0,0,.911.7c.313.042.619.122.937.136a3.006,3.006,0,0,0,1.387-.331,2.011,2.011,0,0,0,1.113-1.326,3.3,3.3,0,0,0-.014-1.422c-.156-.927-.371-1.845-.609-2.754a1.526,1.526,0,0,0-2.942.811h0Z" transform="translate(-16592.766 -20860.904)" fill="#333"/>
        <path id="パス_91392" data-name="パス 91392" d="M290.35,73.573c-.48,1.561-.167,5.152,2.79,5.458,3.909-.024,4.117-4.365,2.8-6.406-1.078-1.671-4.245-2.367-5.591.949Z" transform="translate(-16588.279 -20858.238)" fill="#333"/>
        <path id="パス_91393" data-name="パス 91393" d="M329.638,73.573c.48,1.561.168,5.152-2.79,5.458-3.909-.024-4.117-4.365-2.8-6.406C325.124,70.953,328.292,70.258,329.638,73.573Z" transform="translate(-16596.148 -20858.238)" fill="#333"/>
        <path id="パス_91394" data-name="パス 91394" d="M271.061,68.52a6.455,6.455,0,0,0-6.985-1.054,6.133,6.133,0,0,0-3.237,4.161,16.152,16.152,0,0,0,2.366,12.752c1.615,2.4,4.139,4.552,7.228,4.151a1.575,1.575,0,0,0,1.525-1.525,1.534,1.534,0,0,0-1.525-1.525c-4.235.55-6.627-5.594-6.92-9-.153-1.782-.157-4.024.938-5.544-.149.207.153-.17.161-.178.072-.069.185-.191.252-.244a2.816,2.816,0,0,1,1.093-.495,3.254,3.254,0,0,1,2.947.655c1.46,1.3,3.626-.847,2.157-2.157h0Z" transform="translate(-16581.209 -20857.207)" fill="#333"/>
        <path id="パス_91395" data-name="パス 91395" d="M349.5,70.674a3.23,3.23,0,0,1,2.814-.683,2.879,2.879,0,0,1,1.226.523c.09.071.5.541.413.422,1.1,1.519,1.091,3.763.938,5.544-.292,3.4-2.684,9.548-6.92,9A1.533,1.533,0,0,0,346.451,87a1.565,1.565,0,0,0,1.525,1.525c5.078.659,8.154-4.883,9.419-8.976,1.118-3.617,1.165-9.389-2.4-11.728a6.421,6.421,0,0,0-7.652.694c-1.468,1.309.7,3.461,2.157,2.157h0Z" transform="translate(-16601.639 -20857.203)" fill="#333"/>
        <path id="パス_91396" data-name="パス 91396" d="M341.034,89.522a33.622,33.622,0,0,1-1.974,5.987c.161-.39-.131.282-.2.426-.134.28-.275.557-.419.832-.355.676-.737,1.341-1.134,1.994a36.151,36.151,0,0,1-7.784,9.267,14.4,14.4,0,0,1-5.782,3.009c-1.911.445-1.1,3.388.811,2.942,4.424-1.031,8.1-4.25,10.988-7.614a39.48,39.48,0,0,0,6.113-9.23c.081-.178.157-.358.233-.539.02-.047.223-.534.158-.383-.082.192.038-.078.046-.095q.118-.271.231-.544c.119-.285.233-.571.342-.86a29.165,29.165,0,0,0,1.313-4.38c.4-1.916-2.543-2.735-2.942-.811h0Z" transform="translate(-16595.99 -20862.32)" fill="#333"/>
        <path id="パス_91397" data-name="パス 91397" d="M271.276,90.2a36.492,36.492,0,0,0,7.935,15.744c3.751,4.345,8.565,7.781,14.343,8.642a1.575,1.575,0,0,0,1.876-1.065,1.537,1.537,0,0,0-1.065-1.876c-5.323-.794-9.541-3.855-13-7.858a33.288,33.288,0,0,1-7.151-14.4c-.435-1.913-3.377-1.1-2.942.811h0Z" transform="translate(-16583.785 -20862.289)" fill="#333"/>
        <path id="パス_91398" data-name="パス 91398" d="M287.216,118.957v2.274a9.912,9.912,0,0,1-.113,2.412,4.881,4.881,0,0,1-2.37,2.91,35.049,35.049,0,0,1-6.029,2.656,1.572,1.572,0,0,0-1.065,1.876,1.536,1.536,0,0,0,1.876,1.065c2.448-.97,5.052-1.761,7.229-3.276a7.9,7.9,0,0,0,3.273-4.321,11.008,11.008,0,0,0,.25-3v-2.6a1.526,1.526,0,0,0-3.051,0h0Z" transform="translate(-16585.293 -20869.217)" fill="#333"/>
        <path id="パス_91399" data-name="パス 91399" d="M327.79,118.077a46.991,46.991,0,0,0,.057,5.152,7.406,7.406,0,0,0,3.012,5.1c2.281,1.722,5.07,2.57,7.7,3.614a1.536,1.536,0,0,0,1.876-1.065,1.561,1.561,0,0,0-1.065-1.876,31.583,31.583,0,0,1-6.473-2.947,4.346,4.346,0,0,1-2.033-3.243c-.107-1.569-.021-3.168-.021-4.74a1.526,1.526,0,0,0-3.051,0h0Z" transform="translate(-16597.197 -20869.01)" fill="#333"/>
        <path id="パス_91400" data-name="パス 91400" d="M233,163c3.182-11.849,13.591-20.408,24.47-25.107a53.5,53.5,0,0,1,9.93-3.151l-1.484-.392a36.938,36.938,0,0,0,19.275,10.309,35.87,35.87,0,0,0,22.348-3,41.235,41.235,0,0,0,10.139-7.294l-1.484.392c11.742,2.537,23.528,9.111,30.272,19.293A30.541,30.541,0,0,1,350.56,163a1.527,1.527,0,0,0,2.942-.811c-2.6-9.669-9.722-17.421-17.992-22.735a56.808,56.808,0,0,0-13.972-6.463q-1.767-.543-3.569-.966a2.893,2.893,0,0,0-2.138-.061,11.284,11.284,0,0,0-1.595,1.435,37.838,37.838,0,0,1-5.963,4.388,32.813,32.813,0,0,1-29.855,1.615,34.241,34.241,0,0,1-9.4-6.3,5.661,5.661,0,0,0-1.432-1.222,3.762,3.762,0,0,0-2.225.2,56.736,56.736,0,0,0-14.22,5.534c-8.628,4.765-16.314,11.968-19.989,21.265a30.45,30.45,0,0,0-1.089,3.311A1.527,1.527,0,0,0,233,163h0Z" transform="translate(-16574 -20872.607)" fill="#333"/>
      </g>
    </g>
    <g id="楕円形_139" data-name="楕円形 139" transform="translate(-16036.158 -21436.219)" fill="none" stroke="#333" stroke-width="3">
      <ellipse cx="62.694" cy="62.694" rx="62.694" ry="62.694" stroke="none"/>
      <ellipse cx="62.694" cy="62.694" rx="61.194" ry="61.194" fill="none"/>
    </g>
  </g>
</svg>
