<svg xmlns="http://www.w3.org/2000/svg" xmlns:xlink="http://www.w3.org/1999/xlink" width="126" height="126" viewBox="0 0 126 126">
  <defs>
    <clipPath id="clip-path">
      <circle id="楕円形_128" data-name="楕円形 128" cx="63" cy="63" r="63" transform="translate(-0.027 -0.45)" fill="none" stroke="#333" stroke-width="3"/>
    </clipPath>
  </defs>
  <g id="グループ_9990" data-name="グループ 9990" transform="translate(0.027 0.451)">
    <circle id="楕円形_162" data-name="楕円形 162" cx="63" cy="63" r="63" transform="translate(-0.027 -0.45)" fill="#fff"/>
    <g id="マスクグループ_25" data-name="マスクグループ 25" transform="translate(0)" clip-path="url(#clip-path)">
      <g id="グループ_9746" data-name="グループ 9746" transform="translate(3.873 12.403)">
        <path id="パス_89649" data-name="パス 89649" d="M96.819,58.075a4.38,4.38,0,0,1,3.5-1.025,4.132,4.132,0,0,1,2.972,1.976,5.838,5.838,0,0,1,.611,2.35,17.5,17.5,0,0,1-1.785,9.281,11.13,11.13,0,0,1-2.877,3.776,7.377,7.377,0,0,1-3.431,1.546l-.588.091c-.282,1.054-.6,1.941-.753,2.413-.957,2.594-6.126,11.315-12.744,15.053.1,1.2.267,2.408.475,3.6.341,1.957.237,3.7,2.943,4.677.133.044,4.284,2.016,6.6,3.113,0,0-3.41,14.4-24.494,14.4s-23.548-14.96-23.548-14.96c2.542-1.164,5.448-2.52,5.552-2.557,2.713-.978,2.6-2.72,2.95-4.677.233-1.346.405-2.571.508-3.922a27.049,27.049,0,0,1-6.829-5.983,29.768,29.768,0,0,1-5.675-11.077l-1.118-.171a7.377,7.377,0,0,1-3.431-1.549,11.129,11.129,0,0,1-2.877-3.776A17.512,17.512,0,0,1,31,61.373a5.827,5.827,0,0,1,.612-2.35,4.131,4.131,0,0,1,2.971-1.976,4.381,4.381,0,0,1,3.5,1.025s.069-23.081,29.608-23.081C98,34.994,96.819,58.075,96.819,58.075Z" transform="translate(-8.008 -9.033)" fill="#fff"/>
        <path id="パス_89650" data-name="パス 89650" d="M2.041,158.769a53.051,53.051,0,0,1,4.008-9.885c1.83-3.209,3.692-6.433,6.479-8.62A40.823,40.823,0,0,1,21.8,134.31c4.049-1.654,7.8-3.285,11.771-4.991a2.943,2.943,0,0,1,2.747.216C41.3,132.722,51.8,135.7,59.974,135.7c8.053,0,18.367-2.886,23.434-6.022a3.474,3.474,0,0,1,3.2-.253c3.884,1.669,7.566,3.267,11.535,4.892a40.825,40.825,0,0,1,9.273,5.955c2.787,2.187,4.648,5.411,6.479,8.62a52.838,52.838,0,0,1,4.008,9.883Z" transform="translate(-0.53 -33.381)" fill="#fff"/>
        <path id="パス_89659" data-name="パス 89659" d="M55.839,3a29.341,29.341,0,0,0-14.718,7.923l3.372,1.792c-4.813,2.588-8.619,8.254-10.315,13.237-1.895,5.565-2.457,13.49-.194,22.852a4.143,4.143,0,0,1,1.006-.285,4.326,4.326,0,0,1,3.75,1.271c8.466-8.1,15.843-12.906,23.285-18.753.043.5,1.631,4.46,2,4.61.5.2,5.84-3.145,9.691-5.521.356.062,6.3,1.465,6.3,1.465a22.7,22.7,0,0,1,7.13,4.175A40.763,40.763,0,0,1,97.087,49.7a4.288,4.288,0,0,1,4.4-.988c2.175-5.588,2.494-13.686-.253-21.368-1.932-5.4-6.749-11.062-10.17-12.639l-4.939-3.551c-4.209-5.764-10.571-8.8-19.549-9.078A43.306,43.306,0,0,0,55.839,3Z" transform="translate(-8.414 -0.507)" fill="#ff7c64"/>
        <path id="パス_89725" data-name="パス 89725" d="M48.393,125.476q2.243-1.027,4.479-2.066c.343-.159.709-.3,1.038-.478-.8.431.275-.1.371-.148.153-.067.3-.135.451-.213a5.484,5.484,0,0,0,1.067-.755,5.559,5.559,0,0,0,1.608-3.4c.279-1.767.579-3.53.724-5.315a1.5,1.5,0,0,0-1.482-1.482,1.512,1.512,0,0,0-1.482,1.482c-.122,1.5-.377,2.979-.609,4.467a9.462,9.462,0,0,1-.345,1.5c.116-.357-.047.086-.092.165a3.066,3.066,0,0,1-.19.3c.2-.275-.05.033-.087.07-.062.061-.125.119-.191.175.106-.074.115-.085.028-.024a16.22,16.22,0,0,1-2.49,1.193q-2.15.993-4.3,1.982a1.494,1.494,0,0,0-.531,2.028,1.516,1.516,0,0,0,2.028.531Z" transform="translate(-11.947 -28.863)" fill="#333"/>
        <path id="パス_89726" data-name="パス 89726" d="M97.458,113.471a47.125,47.125,0,0,0,.815,5.73,5.074,5.074,0,0,0,2.912,3.645c.047.021.689.371.778.319.013-.007-.457-.208-.243-.1.148.074.311.143.465.215q.856.4,1.709.806,2.161,1.021,4.318,2.044a1.524,1.524,0,0,0,2.029-.531,1.494,1.494,0,0,0-.532-2.028c-2.244-1.061-4.466-2.217-6.755-3.178a5.476,5.476,0,0,1-.789-.367c-.059-.034-.415-.284-.33-.213s-.2-.206-.237-.242c-.11-.129-.11-.125,0,.013-.046-.065-.09-.132-.13-.2s-.236-.524-.106-.173a5.819,5.819,0,0,1-.231-.8,40.667,40.667,0,0,1-.709-4.941,1.522,1.522,0,0,0-1.482-1.482,1.493,1.493,0,0,0-1.482,1.482Z" transform="translate(-25.222 -28.959)" fill="#333"/>
        <path id="パス_89727" data-name="パス 89727" d="M2.943,158.649a57.6,57.6,0,0,1,4.808-11.175,25.327,25.327,0,0,1,4.378-5.885,39.093,39.093,0,0,1,5.411-4.083,42.42,42.42,0,0,1,6.789-3.379c2.615-1.093,5.218-2.213,7.821-3.335,1.015-.436,1.933-1.062,2.98-.437.793.474,1.592.923,2.427,1.321a46.345,46.345,0,0,0,6.078,2.356,56.054,56.054,0,0,0,14.131,2.594A49.358,49.358,0,0,0,71.809,135a43.988,43.988,0,0,0,11.645-4.452c1.186-.7,2.018-.3,3.206.211l3.923,1.684c2.579,1.1,5.247,2.069,7.751,3.335,4.649,2.347,9.024,5.651,11.827,10.081a46.566,46.566,0,0,1,3.27,5.93c.989,2.224,1.748,4.559,2.52,6.867.6,1.8,3.466,1.029,2.859-.788a61.419,61.419,0,0,0-5.106-11.883,29.015,29.015,0,0,0-4.621-6.277,41.3,41.3,0,0,0-5.771-4.454,39.783,39.783,0,0,0-6.981-3.573c-2.734-1.135-5.452-2.307-8.172-3.476a7.782,7.782,0,0,0-3.854-1.024,8.64,8.64,0,0,0-3.278,1.344,35.947,35.947,0,0,1-5.787,2.408,52.674,52.674,0,0,1-14.4,2.747,47.6,47.6,0,0,1-14.165-1.843,48.331,48.331,0,0,1-6.5-2.2,27.821,27.821,0,0,1-2.555-1.244,7.275,7.275,0,0,0-3.175-1.293,8.691,8.691,0,0,0-3.793,1.143q-2.106.905-4.214,1.808c-2.644,1.127-5.378,2.113-7.923,3.456a45.341,45.341,0,0,0-6.612,4.462,24.435,24.435,0,0,0-5.733,6.4,46.04,46.04,0,0,0-3.354,6.116c-1.052,2.406-1.9,4.892-2.731,7.38-.606,1.814,2.256,2.594,2.859.788Z" transform="translate(-0.002 -32.867)" fill="#333"/>
        <path id="パス_89728" data-name="パス 89728" d="M110.206,85.4a14.7,14.7,0,0,1-.682,3.636c-.136.46-.287.915-.439,1.37-.044.132-.311.822-.148.451a26.534,26.534,0,0,1-1.9,3.5,34.877,34.877,0,0,1-7.761,8.984,14.806,14.806,0,0,1-5.749,2.92c-1.858.432-1.072,3.291.788,2.859,4.389-1.021,8.065-4.151,10.97-7.466a37.765,37.765,0,0,0,6.119-9.1,19.556,19.556,0,0,0,1.767-7.148C113.245,83.492,110.277,83.495,110.206,85.4Z" transform="translate(-23.93 -21.709)" fill="#333"/>
        <path id="パス_89729" data-name="パス 89729" d="M40.233,84.732a33.535,33.535,0,0,0,7.2,16.174c3.98,4.679,9.249,8.133,15.445,8.787a1.492,1.492,0,0,0,1.482-1.482,1.516,1.516,0,0,0-1.482-1.482c-5.5-.58-10.108-4.024-13.554-8.162a30.833,30.833,0,0,1-6.236-14.623,1.494,1.494,0,0,0-1.823-1.038,1.516,1.516,0,0,0-1.038,1.823Z" transform="translate(-10.401 -21.42)" fill="#333"/>
        <path id="パス_89730" data-name="パス 89730" d="M120,66.3a2.811,2.811,0,0,1,4.145.651,6.078,6.078,0,0,1,.469,2.751,15.422,15.422,0,0,1-.259,3.2c-.715,3.713-2.688,8.092-6.807,8.82a1.5,1.5,0,0,0-1.038,1.823,1.517,1.517,0,0,0,1.823,1.038c5.851-1.038,8.655-7.622,9.165-12.916.253-2.625.181-5.87-2.044-7.668a5.9,5.9,0,0,0-7.554.2c-1.465,1.226.642,3.313,2.1,2.1Z" transform="translate(-30.139 -16.213)" fill="#333"/>
        <path id="パス_89731" data-name="パス 89731" d="M38.608,64.205a5.9,5.9,0,0,0-7.554-.2c-2.224,1.8-2.3,5.044-2.044,7.668.51,5.294,3.313,11.878,9.164,12.916A1.525,1.525,0,0,0,40,83.551a1.5,1.5,0,0,0-1.038-1.823c-4.119-.731-6.091-5.109-6.807-8.82a15.306,15.306,0,0,1-.262-3.039,6.32,6.32,0,0,1,.472-2.915,2.81,2.81,0,0,1,4.144-.651c1.454,1.216,3.563-.871,2.1-2.1Z" transform="translate(-7.483 -16.213)" fill="#333"/>
        <path id="パス_89732" data-name="パス 89732" d="M110.234,19.9a16.677,16.677,0,0,1,5.435,4.767,24.812,24.812,0,0,1,4.338,7.819,30.523,30.523,0,0,1,.354,18.673c-.588,1.82,2.274,2.6,2.859.789a32.036,32.036,0,0,0-6.011-30.043,17.68,17.68,0,0,0-5.479-4.564c-1.714-.815-3.22,1.737-1.5,2.56Z" transform="translate(-28.331 -4.425)" fill="#333"/>
        <path id="パス_89733" data-name="パス 89733" d="M75.867,37.321c-3.021,1.853-6,3.822-9.127,5.49-.242.129-.487.251-.732.371-.048.024-.334.191-.133.062.182-.117-.036.029-.105.027a6.248,6.248,0,0,1,1.156.338c.185.055.148.268.023-.016-.116-.253-.259-.5-.378-.749a12.086,12.086,0,0,1-1.186-3.129c-.181-1.236-1.721-1.248-2.478-.654-7.56,5.93-15.443,11.393-22.476,17.978-1.4,1.307.7,3.4,2.1,2.1C49.56,52.55,57.441,47.088,65,41.157l-2.478-.649a15.241,15.241,0,0,0,1.6,4.071,2.033,2.033,0,0,0,3.22,1.242,42.432,42.432,0,0,0,4.411-2.488c1.878-1.136,3.741-2.3,5.612-3.45,1.623-1,.136-3.562-1.5-2.56Z" transform="translate(-10.345 -9.578)" fill="#333"/>
        <path id="パス_89734" data-name="パス 89734" d="M95.692,42.827a24.514,24.514,0,0,1,9.611,6.927,41.814,41.814,0,0,1,6.36,10.017,1.5,1.5,0,0,0,2.028.532,1.517,1.517,0,0,0,.532-2.029A44.287,44.287,0,0,0,107.2,47.433,27.438,27.438,0,0,0,96.48,39.968a1.493,1.493,0,0,0-1.823,1.038,1.517,1.517,0,0,0,1.038,1.823Z" transform="translate(-24.485 -10.308)" fill="#333"/>
        <path id="パス_89735" data-name="パス 89735" d="M45.257,13.47c-5.263,1.992-9.181,6.662-11.607,11.612a34.031,34.031,0,0,0-3.142,15.594,53.422,53.422,0,0,0,1.506,11.4c.44,1.853,3.3,1.07,2.859-.788-2.39-10.081-2.264-21.663,4.708-29.984a16.254,16.254,0,0,1,6.464-4.976,1.524,1.524,0,0,0,1.038-1.823,1.494,1.494,0,0,0-1.823-1.038Z" transform="translate(-7.89 -3.45)" fill="#333"/>
        <path id="パス_89736" data-name="パス 89736" d="M89.895,9.868A23.911,23.911,0,0,0,73.874.5a41.137,41.137,0,0,0-20.7,1.981A30.734,30.734,0,0,0,42.56,9.343a1.484,1.484,0,0,0,2.1,2.1A29.519,29.519,0,0,1,62.244,3.292c5.969-.7,12.6-.494,18.08,2.224a19.384,19.384,0,0,1,7.01,5.856,1.528,1.528,0,0,0,2.029.532,1.494,1.494,0,0,0,.531-2.029Z" transform="translate(-10.902 0.029)" fill="#333"/>
        <path id="パス_89737" data-name="パス 89737" d="M72.72,97.02a11.749,11.749,0,0,0,5.66,1.313,9.21,9.21,0,0,0,5.714-1.686,1.491,1.491,0,0,0,0-2.1,1.522,1.522,0,0,0-2.1,0c.451-.351.1-.085-.012-.01s-.231.14-.35.2c-.062.032-.125.061-.187.093-.239.123.044-.052.062-.02,0,0-.445.163-.482.175a8.432,8.432,0,0,1-1.35.308c.222-.033-.033,0-.125.011-.132.013-.265.024-.4.033-.319.021-.64.029-.959.027-.287,0-.573-.011-.859-.031-.131-.009-.262-.019-.393-.033-.017,0-.492-.068-.186-.02A9.641,9.641,0,0,1,75.5,95c-.176-.053-.348-.116-.519-.176-.378-.13.222.114-.12-.047-.216-.1-.429-.208-.64-.32a1.483,1.483,0,0,0-1.5,2.56Z" transform="translate(-18.631 -24.338)" fill="#333"/>
        <path id="パス_89738" data-name="パス 89738" d="M79.241,79.4a26.677,26.677,0,0,1,.624,2.856l-.053-.394a1.712,1.712,0,0,1,.011.394l.053-.394a.921.921,0,0,1-.043.177l.148-.354a.681.681,0,0,1-.062.114l.232-.3a.609.609,0,0,1-.093.092l.3-.232a1.944,1.944,0,0,1-.226.12l.354-.148a1.631,1.631,0,0,1-.381.111l.394-.053a1.523,1.523,0,0,1-.358,0l.394.053c-.135-.019-.267-.051-.4-.07a1.123,1.123,0,0,0-.593-.026,1.106,1.106,0,0,0-.551.176,1.482,1.482,0,0,0-.531,2.028,1.416,1.416,0,0,0,.886.681c.309.042.609.12.923.134a2.945,2.945,0,0,0,1.361-.324,1.969,1.969,0,0,0,1.09-1.3,3.245,3.245,0,0,0-.013-1.395c-.156-.921-.371-1.832-.6-2.735a1.483,1.483,0,1,0-2.859.789Z" transform="translate(-20.252 -20.04)" fill="#333"/>
        <path id="パス_89739" data-name="パス 89739" d="M59.172,68.32c-.477,1.55-.166,5.114,2.771,5.419,3.881-.023,4.087-4.334,2.781-6.361C63.653,65.719,60.508,65.028,59.172,68.32Z" transform="translate(-15.267 -17.056)" fill="#333"/>
        <path id="パス_89740" data-name="パス 89740" d="M98.974,68.32c.477,1.55.166,5.114-2.771,5.419-3.881-.024-4.087-4.334-2.781-6.361C94.492,65.718,97.637,65.028,98.974,68.32Z" transform="translate(-23.991 -17.056)" fill="#333"/>
      </g>
    </g>
    <g id="楕円形_151" data-name="楕円形 151" transform="translate(-0.027 -0.45)" fill="none" stroke="#333" stroke-width="3">
      <circle cx="63" cy="63" r="63" stroke="none"/>
      <circle cx="63" cy="63" r="61.5" fill="none"/>
    </g>
  </g>
</svg>
