<svg xmlns="http://www.w3.org/2000/svg" xmlns:xlink="http://www.w3.org/1999/xlink" width="127" height="126" viewBox="0 0 127 126">
  <defs>
    <clipPath id="clip-path">
      <ellipse id="楕円形_117" data-name="楕円形 117" cx="63.5" cy="63" rx="63.5" ry="63" transform="translate(-0.222 -0.45)" fill="none" stroke="#333" stroke-width="3"/>
    </clipPath>
  </defs>
  <g id="グループ_9894" data-name="グループ 9894" transform="translate(0.222 0.45)">
    <ellipse id="楕円形_161" data-name="楕円形 161" cx="63.5" cy="63" rx="63.5" ry="63" transform="translate(-0.222 -0.45)" fill="#fff"/>
    <g id="マスクグループ_12" data-name="マスクグループ 12" transform="translate(0)" clip-path="url(#clip-path)">
      <g id="グループ_9730" data-name="グループ 9730" transform="translate(9.956 18.223)">
        <path id="パス_90364" data-name="パス 90364" d="M82.472,46.232a56.183,56.183,0,0,0-7.741-10.118C68.3,41.48,64.807,43.737,53.188,49.256c-7.022,3.335-14.741,5.469-20.774,7.348a4.518,4.518,0,0,0-2.3-.547,4.031,4.031,0,0,0-3.63,2c-1.239,2.13-1.2,6.062-.385,8.5a13.126,13.126,0,0,0,3.829,6.265,4.7,4.7,0,0,0,3.992,1.017A33.042,33.042,0,0,0,40.14,85.69a25.009,25.009,0,0,0,8.269,6.847c-.013,1.139.014,1.67-.1,3.238a8.223,8.223,0,0,1-.4,2.321,5.668,5.668,0,0,1-1.7,2.478,16.719,16.719,0,0,1-4.828,2.554l6.887,3.8a37.637,37.637,0,0,0,13.487,2.061,37.729,37.729,0,0,0,13.495-2.061l5.895-3.851a16.368,16.368,0,0,1-4.7-2.5,5.668,5.668,0,0,1-1.7-2.478,8.223,8.223,0,0,1-.4-2.321c-.123-1.69-.083-2.176-.105-3.519C80.686,88.689,85.766,80,86.7,77.5a28.233,28.233,0,0,0,1.284-3.444l.354.062a4.79,4.79,0,0,0,3.7-1.052,13.126,13.126,0,0,0,3.878-6.235c.835-2.43.9-6.363-.319-8.5A4.033,4.033,0,0,0,91.98,56.3a4.15,4.15,0,0,0-3.925,2.2,54.589,54.589,0,0,0-5.582-12.266Z" transform="translate(-6.602 -10.624)" fill="#fff"/>
        <path id="パス_90365" data-name="パス 90365" d="M110.571,86.14a3.532,3.532,0,0,0-3.764,3.4A3.471,3.471,0,0,0,110.571,93a3.433,3.433,0,0,0,3.764-3.461A3.529,3.529,0,0,0,110.571,86.14Z" transform="translate(-27.64 -23.57)" fill="#fff"/>
        <path id="パス_90366" data-name="パス 90366" d="M62.917,154.961c-2.606-8.071-5.011-16.468-7.09-24.808A38.084,38.084,0,0,0,69.6,132.285a38.471,38.471,0,0,0,13.108-1.894c-2.065,8.264-4.449,16.577-7.03,24.571H62.917Z" transform="translate(-14.447 -34.959)" fill="#fff"/>
        <path id="パス_90368" data-name="パス 90368" d="M98.219,56.049c-1.505-7.271-2.5-14.635-3.57-21.978-.964-6.609-2.688-12.5-7.463-17.591a24.321,24.321,0,0,0-8.2-7.851c-5.863-3.49-13.057-4.872-19.813-4.872a39.057,39.057,0,0,0-25.1,9.811C22.409,24.742,23.869,41.181,21.216,55.759c-1.054,6.079-2.394,12.052.506,17.437,3.32,6.165,14.313,9.993,22.748,9.993l.763.01a27,27,0,0,1-6.526-5.881,33.042,33.042,0,0,1-6.223-11.853,4.7,4.7,0,0,1-3.992-1.017,13.126,13.126,0,0,1-3.829-6.265c-.817-2.436-.853-6.37.385-8.5a4.033,4.033,0,0,1,3.63-2,4.518,4.518,0,0,1,2.3.547c6.032-1.88,13.753-4.014,20.774-7.348,11.62-5.519,15.112-7.777,21.543-13.142a56.183,56.183,0,0,1,7.741,10.118,54.541,54.541,0,0,1,5.582,12.266,4.15,4.15,0,0,1,3.925-2.2,4.033,4.033,0,0,1,3.614,2.026c1.222,2.139,1.155,6.072.319,8.5A13.13,13.13,0,0,1,90.6,64.69a5,5,0,0,1-.766.508,3.326,3.326,0,0,1,2.028,3.02A3.433,3.433,0,0,1,88.1,71.68a3.7,3.7,0,0,1-3.241-1.625c-1.506,3.154-5.942,10.118-11.476,13.482,8.295-.05,18.135-2.221,23.265-9.022,4.344-5.76,2.938-11.874,1.574-18.466Z" transform="translate(-5.168 -2.25)" fill="#fff"/>
        <path id="パス_90373" data-name="パス 90373" d="M129.6,152.358c-3.637-14.489-18.138-25.326-32.679-28.81-1.647-1.286-3.382-2.455-4.78-3.361a.5.5,0,0,0-.758.309c-2.416,10.627-5.427,21.514-8.769,31.865Z" transform="translate(-21.378 -32.359)" fill="#ff7c64"/>
        <path id="パス_90374" data-name="パス 90374" d="M48.988,152.362c-3.342-10.351-6.354-21.238-8.769-31.865a.5.5,0,0,0-.758-.309c-1.4.907-3.134,2.075-4.781,3.36C20.14,127.032,5.639,137.869,2,152.358Z" transform="translate(-0.518 -32.36)" fill="#ff7c64"/>
        <path id="パス_90421" data-name="パス 90421" d="M86.555,109.273c4.135-.943,7.6-3.9,10.343-7.01a39.537,39.537,0,0,0,5.99-8.815,1.522,1.522,0,0,0-.532-2.028,1.5,1.5,0,0,0-2.028.532,36.69,36.69,0,0,1-5.388,8.057c-2.443,2.8-5.446,5.555-9.173,6.4-1.86.424-1.073,3.284.788,2.859h0Z" transform="translate(-21.92 -24.887)" fill="#333"/>
        <path id="パス_90422" data-name="パス 90422" d="M108.441,83.633c-.1.474-.215.944-.348,1.408a1.131,1.131,0,0,0-.027.591,1.106,1.106,0,0,0,.176.551,1.659,1.659,0,0,0,.886.681l.394.053a1.473,1.473,0,0,0,.748-.2l.3-.232a1.482,1.482,0,0,0,.381-.655c.133-.465.253-.934.348-1.408a1.131,1.131,0,0,0,.027-.591,1.106,1.106,0,0,0-.176-.551,1.659,1.659,0,0,0-.886-.681l-.394-.053a1.473,1.473,0,0,0-.748.2l-.3.232a1.482,1.482,0,0,0-.381.654Z" transform="translate(-27.959 -22.639)" fill="#333"/>
        <path id="パス_90423" data-name="パス 90423" d="M34.174,84.011a34.979,34.979,0,0,0,7.56,15.13c3.579,4.176,8.182,7.481,13.715,8.329a1.53,1.53,0,0,0,1.823-1.035,1.493,1.493,0,0,0-1.035-1.823c-5.091-.781-9.113-3.725-12.406-7.566a31.868,31.868,0,0,1-6.8-13.822c-.416-1.861-3.275-1.074-2.859.788Z" transform="translate(-8.833 -22.54)" fill="#333"/>
        <path id="パス_90424" data-name="パス 90424" d="M33.769,62.62a6.2,6.2,0,0,0-6.715-1.033,5.9,5.9,0,0,0-3.123,3.99,15.5,15.5,0,0,0,2.226,12.243c1.543,2.316,3.963,4.384,6.93,4.01a1.53,1.53,0,0,0,1.482-1.482,1.491,1.491,0,0,0-1.482-1.482c-4.047.509-6.3-5.383-6.57-8.632-.139-1.7-.135-3.848.92-5.3-.151.208.143-.156.153-.165.056-.053.2-.2.239-.228a2.675,2.675,0,0,1,1.044-.466,3.1,3.1,0,0,1,2.8.639c1.415,1.273,3.519-.818,2.1-2.1h0Z" transform="translate(-6.076 -17.072)" fill="#333"/>
        <path id="パス_90425" data-name="パス 90425" d="M111.455,65.017a3.1,3.1,0,0,1,4.118.139,2.307,2.307,0,0,1,.314.451,4.551,4.551,0,0,1,.422,1.071,9.845,9.845,0,0,1,.31,2.71c-.023,3.273-1.494,7.732-4.521,9.423-1.666.931-.173,3.493,1.5,2.56,2.39-1.335,3.877-3.86,4.854-6.331a15.214,15.214,0,0,0,1.084-6.941c-.192-2.173-.816-4.387-2.66-5.718a6.155,6.155,0,0,0-7.514.54c-1.433,1.266.671,3.356,2.1,2.1h0Z" transform="translate(-28.176 -17.153)" fill="#333"/>
        <path id="パス_90426" data-name="パス 90426" d="M66.159,95.412a11.391,11.391,0,0,0,5.487,1.271A8.944,8.944,0,0,0,77.2,95.041a1.485,1.485,0,0,0,0-2.1,1.529,1.529,0,0,0-2.1,0c.453-.353.116-.093,0-.018s-.222.135-.337.2c-.059.031-.121.059-.181.09-.168.087-.134-.031.073-.025a1.96,1.96,0,0,0-.465.169,8.338,8.338,0,0,1-1.3.3c.224-.034,0,0-.107.008-.127.013-.256.023-.384.032-.308.02-.617.027-.926.026q-.415,0-.829-.03c-.127-.009-.254-.019-.38-.031-.028,0-.487-.075-.166-.018a10.992,10.992,0,0,1-1.216-.27c-.17-.051-.337-.112-.5-.17-.374-.127.234.119-.1-.04q-.312-.148-.618-.308a1.483,1.483,0,0,0-1.5,2.56h0Z" transform="translate(-16.935 -25.223)" fill="#333"/>
        <path id="パス_90427" data-name="パス 90427" d="M72.427,78.374a25.58,25.58,0,0,1,.6,2.756l-.053-.394a1.674,1.674,0,0,1,.01.38l.053-.394a.961.961,0,0,1-.042.171l.15-.354a.713.713,0,0,1-.06.11l.232-.3a.637.637,0,0,1-.09.089l.3-.232a1.856,1.856,0,0,1-.218.116l.354-.15a1.6,1.6,0,0,1-.368.107l.394-.053a1.5,1.5,0,0,1-.345,0l.394.053c-.13-.018-.258-.05-.388-.067a1.131,1.131,0,0,0-.591-.027,1.106,1.106,0,0,0-.551.176,1.482,1.482,0,0,0-.531,2.028,1.418,1.418,0,0,0,.886.681c.3.041.6.118.9.131a2.9,2.9,0,0,0,1.34-.32A1.946,1.946,0,0,0,75.886,81.6a3.183,3.183,0,0,0-.013-1.374c-.15-.888-.355-1.768-.583-2.639a1.483,1.483,0,0,0-1.823-1.035,1.511,1.511,0,0,0-1.035,1.823h0Z" transform="translate(-18.498 -21.073)" fill="#333"/>
        <path id="パス_90428" data-name="パス 90428" d="M53.126,67.691c-.46,1.5-.16,4.936,2.674,5.229,3.745-.022,3.944-4.182,2.684-6.138-1.033-1.6-4.067-2.267-5.357.909Z" transform="translate(-13.703 -18.214)" fill="#333"/>
        <path id="パス_90429" data-name="パス 90429" d="M91.533,67.691c.46,1.5.16,4.936-2.673,5.229-3.745-.022-3.945-4.182-2.684-6.138,1.032-1.6,4.067-2.267,5.357.909Z" transform="translate(-22.12 -18.214)" fill="#333"/>
        <path id="パス_90430" data-name="パス 90430" d="M76.229,34.571a72.84,72.84,0,0,1-10.89,7.671,117.491,117.491,0,0,1-17.951,8.345c-3.628,1.3-7.317,2.409-11,3.536-1.82.557-1.044,3.419.788,2.859A145.045,145.045,0,0,0,57.616,49.5,101.605,101.605,0,0,0,72,41.58c2.191-1.526,4.274-3.2,6.324-4.911,1.467-1.223-.64-3.31-2.1-2.1h0Z" transform="translate(-9.148 -10.13)" fill="#333"/>
        <path id="パス_90431" data-name="パス 90431" d="M90.352,36.641a55.911,55.911,0,0,1,11.315,17.209,1.532,1.532,0,0,0,1.823,1.035,1.491,1.491,0,0,0,1.035-1.823A59.716,59.716,0,0,0,92.448,34.544c-1.333-1.369-3.43.729-2.1,2.1Z" transform="translate(-23.271 -10.102)" fill="#333"/>
        <path id="パス_90432" data-name="パス 90432" d="M110.048,84.14a5.236,5.236,0,0,0-5,3.394,4.865,4.865,0,0,0,1.832,5.494,5.9,5.9,0,0,0,5.921.28,4.869,4.869,0,0,0,2.4-5.2,5.128,5.128,0,0,0-5.152-3.97,1.482,1.482,0,1,0,0,2.965c.113,0,.225.01.339.013.282.007-.031-.019-.067-.017a1.775,1.775,0,0,1,.517.11c.1.028.195.063.293.095.281.09-.08-.033-.076-.035.062-.033.448.242.512.285l.079.054q.153.112,0,0l-.076-.057c.048.04.1.082.142.125a3.892,3.892,0,0,0,.318.339c-.1.007-.18-.279-.041-.04.039.066.083.129.121.2a2.2,2.2,0,0,0,.106.2q.072.153-.058-.144c.022.057.043.115.062.173.028.085.059.408.112.448-.021-.016-.028-.383-.016-.116,0,.095.012.188.013.284,0,.066,0,.133,0,.2l-.006.1q-.024.247.021-.107a2.23,2.23,0,0,0-.112.5c-.013.044-.084.176-.073.215-.04-.135.146-.286.025-.067-.071.129-.145.254-.221.38-.123.2-.1-.01.047-.055a1.008,1.008,0,0,0-.116.131c-.06.064-.123.126-.188.185-.033.03-.066.059-.1.087q-.129.107.125-.095c-.082,0-.3.193-.385.24a1.366,1.366,0,0,0-.251.122c.01-.03.345-.119.089-.044-.158.046-.312.1-.473.135a.917.917,0,0,1-.3.056l.186-.026q-.107.011-.213.018a5.185,5.185,0,0,1-.547.006c-.071,0-.142-.011-.213-.014-.36-.014.329.07-.018,0-.164-.034-.326-.068-.486-.117-.062-.019-.123-.043-.185-.062-.15-.058-.121-.044.087.042-.058-.026-.114-.053-.17-.082-.139-.071-.266-.156-.4-.237-.168-.1.062-.039.082.067-.007-.038-.171-.15-.2-.18-.064-.062-.308-.38-.184-.185.138.216-.021-.038-.042-.068-.05-.076-.1-.153-.138-.233l-.042-.081q-.1-.215.037.1a.969.969,0,0,0-.064-.173c-.05-.15-.081-.3-.119-.457-.079-.326.01.348,0,.007,0-.067-.009-.133-.01-.2,0-.1,0-.193,0-.291,0-.047.007-.093.012-.14.012-.116.005-.062-.021.164a2.441,2.441,0,0,0,.142-.533c.076-.248-.019.09-.045.1.044-.016.142-.275.171-.323s.067-.1.1-.154c.145-.24-.23.23.024-.027.029-.029.361-.369.368-.359s-.286.2.005,0c.081-.054.164-.105.248-.153a2.1,2.1,0,0,0,.219-.113c.1-.047.059-.03-.125.049.063-.025.127-.048.19-.07a5.4,5.4,0,0,1,.609-.155c.165-.036.074-.079-.07.009a1.249,1.249,0,0,1,.451-.022,1.482,1.482,0,0,0,0-2.965Z" transform="translate(-27.117 -23.052)" fill="#333"/>
        <path id="パス_90433" data-name="パス 90433" d="M105.327,23.012c3.348,4.089,4.942,9.109,5.808,14.25,1.065,6.324,1.8,12.7,2.944,19.011.528,2.92,1.2,5.814,1.706,8.738a21.272,21.272,0,0,1,.237,7.488c-.935,4.96-4.679,8.559-9.064,10.714a35.771,35.771,0,0,1-15.407,3.155,1.483,1.483,0,0,0,0,2.965c9.906-.088,22.333-3.1,26.5-13.256,2.227-5.43.72-11.328-.392-16.828-1.376-6.8-2.321-13.676-3.321-20.539-.946-6.489-2.69-12.637-6.913-17.794-1.21-1.477-3.3.632-2.1,2.1h0Z" transform="translate(-23.321 -6.56)" fill="#333"/>
        <path id="パス_90434" data-name="パス 90434" d="M43.947,81.179A34.662,34.662,0,0,1,31.419,78.7c-3.344-1.322-7.009-3.371-8.841-6.6-2.565-4.518-1.6-9.97-.746-14.818.8-4.573,1.378-9.158,1.894-13.771.961-8.606,2.1-17.619,7.084-24.957,4.748-6.993,12.849-11.344,20.974-13.1a38.668,38.668,0,0,1,16.874.368A28.112,28.112,0,0,1,83.484,14.15c1.272,1.428,3.362-.675,2.1-2.1A29.926,29.926,0,0,0,71.759,3.587,42.835,42.835,0,0,0,55.432,1.908C46.368,2.8,36.789,6.939,30.705,13.879c-6.44,7.347-8.412,16.9-9.562,26.328-.569,4.656-.96,9.339-1.76,13.964-.93,5.378-2.33,11.136-.623,16.508,1.373,4.319,4.619,7.3,8.545,9.369a37,37,0,0,0,13.347,3.917,32.851,32.851,0,0,0,3.3.18,1.483,1.483,0,0,0,0-2.965h0Z" transform="translate(-4.646 -1.724)" fill="#333"/>
        <path id="パス_90435" data-name="パス 90435" d="M54.543,120.58a7.716,7.716,0,0,0,2.025-4.538,33.07,33.07,0,0,0,.18-3.685,1.482,1.482,0,1,0-2.965,0c-.009,1.107-.039,2.211-.142,3.314q-.011.123-.024.247c0,.034-.043.3-.013.113s-.016.079-.022.112c-.015.082-.031.164-.049.245-.036.163-.079.324-.131.483-.026.079-.055.156-.084.234-.012.032-.118.272-.04.1s-.033.065-.047.095c-.034.071-.069.142-.105.211q-.108.207-.231.4-.061.1-.127.193c-.019.028-.171.232-.055.083s-.044.049-.067.075c-.064.073-.13.144-.2.214a1.482,1.482,0,0,0,2.1,2.1h0Z" transform="translate(-13.462 -29.97)" fill="#333"/>
        <path id="パス_90436" data-name="パス 90436" d="M89.27,112.356a32.1,32.1,0,0,0,.195,3.8,7.5,7.5,0,0,0,2.211,4.613,1.482,1.482,0,0,0,2.1-2.1c-.117-.109-.231-.22-.338-.339-.053-.059-.1-.121-.154-.179.081.09.109.153.019.019a7.008,7.008,0,0,1-.506-.869c-.035-.073-.067-.146-.1-.219-.092-.195.075.224.008.016-.053-.167-.118-.328-.163-.5s-.082-.342-.112-.516c-.005-.03-.045-.307-.022-.129.025.2-.019-.2-.019-.195-.112-1.135-.141-2.271-.15-3.41a1.482,1.482,0,1,0-2.965,0h0Z" transform="translate(-23.101 -29.97)" fill="#333"/>
        <path id="パス_90437" data-name="パス 90437" d="M55.471,131.24a41.674,41.674,0,0,0,13.6,2.051,44.383,44.383,0,0,0,13.6-1.925c1.808-.585,1.035-3.448-.788-2.859a41.528,41.528,0,0,1-12.812,1.819,38.994,38.994,0,0,1-12.81-1.945c-1.812-.61-2.59,2.253-.788,2.859h0Z" transform="translate(-14.09 -34.479)" fill="#333"/>
        <path id="パス_90438" data-name="パス 90438" d="M2.911,153.436C5.8,142.156,15.12,133.677,25.375,128.873a48.669,48.669,0,0,1,9.189-3.205c1.854-.448,1.069-3.309-.788-2.859C21.982,125.664,10.6,132.83,4.1,143.241a33.546,33.546,0,0,0-4.051,9.408c-.474,1.849,2.385,2.638,2.859.788h0Z" transform="translate(0 -33.047)" fill="#333"/>
        <path id="パス_90439" data-name="パス 90439" d="M101.009,125.668c11.049,2.674,21.8,9.3,27.9,19.069a30.8,30.8,0,0,1,3.748,8.7c.472,1.847,3.332,1.064,2.859-.788-3.061-11.98-12.9-21.221-23.819-26.335a52.494,52.494,0,0,0-9.9-3.5c-1.854-.448-2.645,2.41-.788,2.859h0Z" transform="translate(-25.866 -33.047)" fill="#333"/>
        <path id="パス_90440" data-name="パス 90440" d="M83.513,152.238q2.535-7.863,4.732-15.829,1.091-3.96,2.1-7.943.5-1.981.977-3.968.248-1.032.489-2.065.1-.429.2-.859c.028-.122.211-.952.111-.858l-.654.381q-.695-.138-.208.109l.2.133q.315.207.628.417.667.447,1.325.907c.947.664,1.877,1.35,2.77,2.085a26.328,26.328,0,0,1,2.437,2.243,12,12,0,0,1,.885,1.027c.136.182.263.371.382.563.056.089.271.584.263.377l.2-.748q.375-.316-.159.036l-.622.355-1.089.622-2.333,1.332a1.5,1.5,0,0,0-.3,2.328c1.325,1.243,2.643,2.495,3.9,3.8.206.213.874.706.932.99-.064-.308-.311.366-.374.488q-.678,1.323-1.366,2.641-2.7,5.176-5.516,10.288c-.918,1.674,1.642,3.172,2.56,1.5,2.152-3.925,4.271-7.869,6.325-11.845a10.237,10.237,0,0,0,1.247-2.76,3.087,3.087,0,0,0-1.01-2.654c-1.449-1.6-3.036-3.072-4.607-4.544l-.3,2.328,2.8-1.6c.776-.443,1.9-.846,2.384-1.647.9-1.481-.6-3.222-1.52-4.31a35.989,35.989,0,0,0-7.618-6.291,6.947,6.947,0,0,0-1.868-1.1,1.987,1.987,0,0,0-2.25,1.064,14.768,14.768,0,0,0-.786,3.1q-.366,1.552-.746,3.1-1.51,6.154-3.23,12.254-1.949,6.92-4.156,13.762c-.587,1.82,2.275,2.6,2.859.788h0Z" transform="translate(-20.851 -31.842)" fill="#333"/>
        <path id="パス_90441" data-name="パス 90441" d="M59.312,151.456q-3.9-12.111-7-24.462-.753-3.009-1.453-6.03c-.213-.921-.307-2.039-1.213-2.569a2.211,2.211,0,0,0-2.431.258,44.934,44.934,0,0,0-7.78,6.059c-1.018,1.05-2.8,2.844-2.554,4.451.173,1.14,1.284,1.585,2.175,2.095l3.266,1.865-.3-2.328c-1.532,1.437-3.055,2.887-4.49,4.421a3.319,3.319,0,0,0-1.152,2.582,8.514,8.514,0,0,0,1.274,2.957c2.055,3.977,4.173,7.921,6.325,11.845.918,1.674,3.479.179,2.56-1.5q-2.806-5.119-5.516-10.288-.647-1.241-1.287-2.487c-.1-.2-.231-.406-.316-.617s-.1-.173-.127-.033c.035-.21.626-.674.8-.861,1.3-1.353,2.656-2.645,4.023-3.927a1.5,1.5,0,0,0-.3-2.328l-2.333-1.332-1.089-.622-.622-.355q-.533-.351-.159-.036l.2.748c-.009.241.162-.213.2-.284.116-.192.24-.381.372-.563a11.194,11.194,0,0,1,.864-1.026,25.817,25.817,0,0,1,2.526-2.338c.857-.706,1.749-1.366,2.657-2.006q.659-.465,1.33-.915.316-.212.632-.421l.305-.2q.488-.247-.208-.109l-.654-.381c-.152-.144.05.594.071.686q.119.516.239,1.031.241,1.033.489,2.065.456,1.9.933,3.8,1.024,4.069,2.14,8.116,2.195,7.964,4.732,15.829c.583,1.809,3.447,1.035,2.859-.788h0Z" transform="translate(-9.412 -31.849)" fill="#333"/>
      </g>
    </g>
    <g id="楕円形_138" data-name="楕円形 138" transform="translate(-0.222 -0.45)" fill="none" stroke="#333" stroke-width="3">
      <ellipse cx="63.5" cy="63" rx="63.5" ry="63" stroke="none"/>
      <ellipse cx="63.5" cy="63" rx="62" ry="61.5" fill="none"/>
    </g>
  </g>
</svg>
