<svg xmlns="http://www.w3.org/2000/svg" xmlns:xlink="http://www.w3.org/1999/xlink" width="127" height="129" viewBox="0 0 127 129">
  <defs>
    <clipPath id="clip-path">
      <ellipse id="楕円形_125" data-name="楕円形 125" cx="63.5" cy="64.5" rx="63.5" ry="64.5" transform="translate(0.333 -0.479)" fill="none" stroke="#333" stroke-width="3"/>
    </clipPath>
  </defs>
  <g id="グループ_9899" data-name="グループ 9899" transform="translate(15221.501 21999.716)">
    <g id="グループ_9844" data-name="グループ 9844" transform="translate(-15221.834 -21999.236)">
      <ellipse id="楕円形_167" data-name="楕円形 167" cx="63.5" cy="64.5" rx="63.5" ry="64.5" transform="translate(0.333 -0.479)" fill="#fff"/>
      <g id="マスクグループ_23" data-name="マスクグループ 23" transform="translate(0 0)" clip-path="url(#clip-path)">
        <g id="グループ_9743" data-name="グループ 9743" transform="translate(7.104 16.948)">
          <path id="パス_89749" data-name="パス 89749" d="M78.31,232.748l-4.186-2.431A41.076,41.076,0,0,0,57.7,227.17a40.249,40.249,0,0,0-25.861,10.11c-7.416,7.1-12.12,20.068-11.527,37.949.2,9.017-.054,16.411-.439,24.1a60.048,60.048,0,0,1-2.188,13.1c-1.192,4.3-3.593,8.436-7.37,10.814,0,0,1.306,11.283,26.064,11.283,48.178,0,67.67-6.757,67.67-6.757-2.382-1.8-4.843-3.7-6.2-6.359a18.53,18.53,0,0,1-1.558-6.533,328.229,328.229,0,0,1-.979-40.677c-.052-6.1-.083-10.528-.226-12.421-.837-11.124-5.031-18.877-10.69-24.336a23.721,23.721,0,0,0-5.315-4.242Z" transform="translate(-2.552 -225.659)" fill="#fff"/>
          <path id="パス_89750" data-name="パス 89750" d="M85.133,327.063c-1.721-.815-3.254-1.539-3.333-1.567-2.735-.988-2.627-2.747-2.972-4.714a39.819,39.819,0,0,1-.581-5.256c6.887-3.375,12.376-12.81,13.353-15.46.178-.542.575-1.648.878-2.919,1.22-.181,2.846-.173,3.771-.918a10.748,10.748,0,0,0,2.808-3.681,17.13,17.13,0,0,0,1.746-9.056,5.681,5.681,0,0,0-.6-2.288,4,4,0,0,0-2.9-1.927,4.264,4.264,0,0,0-3.41,1l-3.538-3.312c-3.862-1.526-7.6-7.157-9.734-11.234a48.677,48.677,0,0,1-3.162-9.4l-5.746-.175a19.148,19.148,0,0,1-2.733,6.981,14.8,14.8,0,0,1-7.7,6.836H43.41a27.791,27.791,0,0,0-2.93,7.151c-1.747,7.359-1.71,15.912-.423,24.612a27.283,27.283,0,0,0,4.156,6.863,27.727,27.727,0,0,0,9.227,7.459,37.09,37.09,0,0,1-.563,4.727c-.345,1.967-.237,3.726-2.972,4.714-.181.065-8.833,4.112-9.36,4.291,0,0,1.949,14.249,24.365,14.249s25.106-14.67,25.106-14.67C89.861,329.3,87.342,328.108,85.133,327.063Z" transform="translate(-9.676 -232.825)" fill="#fff"/>
          <path id="パス_89751" data-name="パス 89751" d="M110.155,379.161c-1.28-5.13-4.169-13.8-7.864-17.766a29.358,29.358,0,0,0-9.569-6.885c-3.607-1.476-17.5-7.425-20.428-8.74-.175-1.087-.668-3.49-.844-4.438s-.776-2.853-1.777-2.8c-3.293.165-8.577,2.492-13.023,2.621-6.248.182-11.923-1.722-13.243-1.673-1.694.063-2.579,4.8-3.586,6.746-3.2,1.355-16.436,6.667-20.391,8.286a29.358,29.358,0,0,0-9.567,6.881C6.167,365.361,3.28,374.031,2,379.161Z" transform="translate(-0.498 -253.19)" fill="#fff"/>
          <path id="パス_89762" data-name="パス 89762" d="M50.559,346.174c3.719,3.538,6.936,6.022,12.236,7.358l1.8.165a31.951,31.951,0,0,1-1.189-3.011c4.8-1.561,15.111-4.851,17.95-6.915,2.069,1.953,6.638,4.465,9.875,6.248-4.663,5.109-11.548,12.421-18.121,14.706l1.362,1.807c-5.349,4.6-12.339,6.748-19.162,8.554-.339.09-.785.138-.959-.167a.808.808,0,0,1-.035-.527,72.44,72.44,0,0,1,1.577-7.36s.242-1.018.519-2.183c-5.577-1.072-9.151-4.411-13.357-8.838a49.4,49.4,0,0,1-4.366-5.6,64.4,64.4,0,0,0,10.291-5.763C49.522,345.177,50.046,345.685,50.559,346.174Z" transform="translate(-9.568 -254.486)" fill="#ff7c64"/>
          <path id="パス_89835" data-name="パス 89835" d="M56.019,335.842q-.075,1.129-.226,2.25l.053-.4c-.017.131-.036.262-.055.392a1.689,1.689,0,0,0,.151,1.16,1.506,1.506,0,0,0,2.06.54,1.45,1.45,0,0,0,.692-.9c.151-1.01.264-2.023.332-3.042a1.506,1.506,0,0,0-2.57-1.065l-.236.3a1.5,1.5,0,0,0-.206.76Z" transform="translate(-13.785 -252.154)" fill="#333"/>
          <path id="パス_89836" data-name="パス 89836" d="M92.315,337.281c-.09-.8-.157-1.6-.2-2.409a1.581,1.581,0,0,0-.441-1.065,1.506,1.506,0,0,0-2.57,1.065c.038.8.105,1.608.2,2.409a1.673,1.673,0,0,0,.441,1.064,1.506,1.506,0,0,0,2.129,0A1.456,1.456,0,0,0,92.315,337.281Z" transform="translate(-22.032 -251.914)" fill="#333"/>
          <path id="パス_89837" data-name="パス 89837" d="M106.084,354.128q4.525,1.947,9.062,3.862a37.88,37.88,0,0,1,7.113,3.669,22.282,22.282,0,0,1,5.763,5.553,35.9,35.9,0,0,1,3.613,7.245,72.323,72.323,0,0,1,2.616,8.274c.474,1.878,3.378,1.083,2.9-.8a54.9,54.9,0,0,0-6.064-15.507c-3.086-4.968-8.184-8.423-13.5-10.64-3.341-1.395-6.669-2.821-9.994-4.251a1.556,1.556,0,0,0-2.06.54,1.516,1.516,0,0,0,.54,2.06Z" transform="translate(-26.045 -256.358)" fill="#333"/>
          <path id="パス_89838" data-name="パス 89838" d="M2.957,382.867a54.081,54.081,0,0,1,5.43-14.245c2.663-4.525,7.255-7.853,12.06-9.809q4.885-1.988,9.778-3.96A1.553,1.553,0,0,0,31.279,353a1.516,1.516,0,0,0-1.852-1.054q-4.672,1.889-9.341,3.782a32.833,32.833,0,0,0-7.625,4.17,25.5,25.5,0,0,0-6.006,6.131,39.691,39.691,0,0,0-3.689,7.5,71.174,71.174,0,0,0-2.71,8.537c-.473,1.882,2.431,2.681,2.9.8Z" transform="translate(-0.004 -256.495)" fill="#333"/>
          <path id="パス_89839" data-name="パス 89839" d="M54.305,343.992a13.11,13.11,0,0,1,1.355-3.273c.047-.069.218-.249.233-.293-.058.171-.505-.029-.029.075.351.075.708.127,1.059.2,2.2.452,4.4.9,6.631,1.184a28.132,28.132,0,0,0,8.39-.07c2.517-.443,4.948-1.245,7.43-1.839.6-.144,1.216-.287,1.832-.371a6.4,6.4,0,0,0,.663-.059c-.361.09-.24-.241-.259,0-.009.111.221.418.269.538a5.872,5.872,0,0,1,.218.714c.162.641.263,1.3.391,1.947.376,1.9,3.276,1.1,2.9-.8-.407-2.071-.924-5.51-3.719-5.4s-5.546,1.217-8.227,1.872a26.144,26.144,0,0,1-9.246.531c-2.445-.266-4.818-.872-7.233-1.3-1.366-.242-2.535-.182-3.474.961a14.48,14.48,0,0,0-2.087,4.585c-.635,1.835,2.273,2.623,2.9.8Z" transform="translate(-12.689 -252.699)" fill="#333"/>
          <path id="パス_89840" data-name="パス 89840" d="M111.984,288.436a2.664,2.664,0,0,1,3.994.714,6.675,6.675,0,0,1,.406,2.878,15.178,15.178,0,0,1-.353,3.262,14.2,14.2,0,0,1-2.44,5.571,3.892,3.892,0,0,1-1.874,1.549,20.857,20.857,0,0,1-2.613.376,1.515,1.515,0,0,0-1.054,1.852,1.545,1.545,0,0,0,1.852,1.054,11.82,11.82,0,0,0,3.543-.724,8.179,8.179,0,0,0,2.913-2.824,17.89,17.89,0,0,0,2.9-8.036c.321-2.59.352-5.954-1.761-7.839a5.812,5.812,0,0,0-7.648.038,1.517,1.517,0,0,0,0,2.129,1.538,1.538,0,0,0,2.129,0Z" transform="translate(-26.702 -239.92)" fill="#333"/>
          <path id="パス_89841" data-name="パス 89841" d="M102.822,306.545a14.657,14.657,0,0,1-.708,3.683c-.127.419-.264.835-.4,1.25-.041.123-.084.245-.126.367-.1.288,0,.008-.017.051a29.348,29.348,0,0,1-1.886,3.5,34.893,34.893,0,0,1-7.507,8.866,14.036,14.036,0,0,1-5.593,2.9c-1.886.44-1.088,3.344.8,2.9,4.316-1.007,7.9-4.146,10.724-7.427a38.455,38.455,0,0,0,5.994-9.063,19.271,19.271,0,0,0,1.736-7.024C105.908,304.608,102.9,304.61,102.822,306.545Z" transform="translate(-21.141 -244.924)" fill="#333"/>
          <path id="パス_89842" data-name="パス 89842" d="M38.573,316.964c3.351,7.782,10.674,15.251,19.35,16.561a1.554,1.554,0,0,0,1.852-1.054,1.516,1.516,0,0,0-1.054-1.852c-8.007-1.209-14.465-8.013-17.55-15.177a1.515,1.515,0,0,0-2.06-.54,1.545,1.545,0,0,0-.54,2.06Z" transform="translate(-9.491 -247.299)" fill="#333"/>
          <path id="パス_89843" data-name="パス 89843" d="M77.289,228.371A43.93,43.93,0,0,0,59.138,225.2a41.554,41.554,0,0,0-18.31,5.307,32.681,32.681,0,0,0-10.7,9.153,41.316,41.316,0,0,0-6.3,13.546,72.374,72.374,0,0,0-2.253,21.53c.06,1.933,3.072,1.941,3.011,0-.34-10.84.985-22.546,6.978-31.866a28.013,28.013,0,0,1,8.875-8.64,39.214,39.214,0,0,1,16.417-5.854,41,41,0,0,1,19.642,2.9,1.516,1.516,0,0,0,1.852-1.054,1.542,1.542,0,0,0-1.054-1.852Z" transform="translate(-5.317 -225.165)" fill="#333"/>
          <path id="パス_89844" data-name="パス 89844" d="M118.922,275.684c-.053-6.323.174-12.727-1.137-18.955a37.015,37.015,0,0,0-8.09-16.621,32.141,32.141,0,0,0-7.747-6.725,1.506,1.506,0,0,0-1.52,2.6,31.186,31.186,0,0,1,11.111,12.1A38.881,38.881,0,0,1,115.77,265c.114,3.558.111,7.121.142,10.68a1.506,1.506,0,0,0,3.011,0Z" transform="translate(-24.652 -227.141)" fill="#333"/>
          <path id="パス_89845" data-name="パス 89845" d="M113.553,318.59c-.784.133-1.562.3-2.343.452a2.258,2.258,0,0,0-.407.172,1.291,1.291,0,0,0-.48.44,1.725,1.725,0,0,0-.367,1.034,32.979,32.979,0,0,0,.1,3.867,1.794,1.794,0,0,0,.5,1.2,1.681,1.681,0,0,0,1.2.5c1.088-.085,2.17-.2,3.249-.355l.408-.172a1.3,1.3,0,0,0,.479-.44,1.6,1.6,0,0,0,.367-1.034l-.173-2.447-.084-1.181a2.543,2.543,0,0,0-.3-1.2,1.882,1.882,0,0,0-1.709-.9Z" transform="translate(-27.182 -248.245)" fill="#333"/>
          <path id="パス_89846" data-name="パス 89846" d="M18.324,290.538c.145,6.654.039,13.306-.245,19.955a84.629,84.629,0,0,1-.783,9.827,43.35,43.35,0,0,1-2.422,9.6,15.709,15.709,0,0,1-5.8,7.329c-1.623,1.046-.115,3.654,1.52,2.6,5.664-3.651,7.877-9.958,9.158-16.26,1.387-6.826,1.447-13.889,1.593-20.832q.127-6.109-.008-12.22c-.042-1.935-3.053-1.941-3.011,0Z" transform="translate(-2.073 -240.968)" fill="#333"/>
          <path id="パス_89847" data-name="パス 89847" d="M121.158,289.172c-.283,7.562-.291,15.136-.088,22.7.1,3.729.256,7.458.5,11.181a71.246,71.246,0,0,0,1.138,10.715c1.029,4.647,4.291,7.52,7.924,10.272a1.515,1.515,0,0,0,2.06-.54,1.542,1.542,0,0,0-.541-2.06c-2.956-2.239-5.635-4.549-6.5-8.308a63.475,63.475,0,0,1-1.067-10.08c-.474-7.278-.644-14.578-.634-21.87q.009-6.006.226-12.011c.075-1.938-2.936-1.935-3.011,0Z" transform="translate(-29.899 -240.629)" fill="#333"/>
          <path id="パス_89848" data-name="パス 89848" d="M88.1,256.3a43.945,43.945,0,0,0,5,12.717c2.2,3.548,4.972,7.325,8.947,8.972a1.515,1.515,0,0,0,1.852-1.054,1.543,1.543,0,0,0-1.054-1.852,11.757,11.757,0,0,1-4.007-3.267,32.973,32.973,0,0,1-3.439-4.81A41.3,41.3,0,0,1,91,255.5c-.473-1.877-3.378-1.082-2.9.8Z" transform="translate(-21.77 -232.399)" fill="#333"/>
          <path id="パス_89849" data-name="パス 89849" d="M77.064,254.252c-1.07,5.489-3.783,11.454-9.4,13.527a1.546,1.546,0,0,0-1.054,1.852,1.518,1.518,0,0,0,1.852,1.054c6.655-2.453,10.214-8.995,11.508-15.629a1.545,1.545,0,0,0-1.054-1.853,1.52,1.52,0,0,0-1.852,1.054Z" transform="translate(-16.458 -232.083)" fill="#333"/>
          <path id="パス_89850" data-name="パス 89850" d="M62.779,254.443a19.169,19.169,0,0,1-6.959,13.912,1.516,1.516,0,0,0,0,2.129,1.538,1.538,0,0,0,2.129,0,22.114,22.114,0,0,0,7.841-16.04c.089-1.938-2.922-1.933-3.011,0Z" transform="translate(-13.695 -232.044)" fill="#333"/>
          <path id="パス_89851" data-name="パス 89851" d="M43.246,311.827a88.068,88.068,0,0,1-3.07-24.778,44.744,44.744,0,0,1,1.436-10.614,27.507,27.507,0,0,1,1.6-4.295,40.807,40.807,0,0,1,2.6-4.167c2.34-3.72,3.983-8,3.25-12.445a1.517,1.517,0,0,0-1.852-1.054,1.542,1.542,0,0,0-1.054,1.852c.617,3.736-1.23,7.491-3.207,10.534a31.656,31.656,0,0,0-2.508,4.13,33.31,33.31,0,0,0-1.7,4.541,46.754,46.754,0,0,0-1.539,10.7,75.523,75.523,0,0,0,.482,12.208,106.159,106.159,0,0,0,2.667,14.194c.482,1.875,3.388,1.08,2.9-.8Z" transform="translate(-9.182 -232.398)" fill="#333"/>
          <path id="パス_89852" data-name="パス 89852" d="M111.008,308.614c.1,2.584.241,5.166.39,7.746a1.506,1.506,0,1,0,3.011,0c-.151-2.581-.286-5.163-.39-7.746a1.506,1.506,0,0,0-3.011,0Z" transform="translate(-27.446 -245.422)" fill="#333"/>
          <path id="パス_89853" data-name="パス 89853" d="M62.7,351.875a22.019,22.019,0,0,1-7.142-3.228,47.815,47.815,0,0,1-6.007-5.27,1.527,1.527,0,0,0-1.824-.236A66.249,66.249,0,0,1,37.437,348.9a1.51,1.51,0,0,0-.541,2.06c3.189,4.509,6.818,8.878,11.4,12.05,4.3,2.976,9.37,3.827,14.508,3.36a1.546,1.546,0,0,0,1.506-1.506,1.517,1.517,0,0,0-1.506-1.506c-4.667.425-9.082-.244-12.988-2.949-4.13-2.861-7.448-6.91-10.318-10.97l-.54,2.06a66.262,66.262,0,0,0,10.291-5.763l-1.825-.236a52.264,52.264,0,0,0,6.616,5.739,24.466,24.466,0,0,0,7.861,3.532c1.877.484,2.678-2.419.8-2.9Z" transform="translate(-9.074 -254.281)" fill="#333"/>
          <path id="パス_89854" data-name="パス 89854" d="M74.193,353.865a33.338,33.338,0,0,1-1.709-4.065l-1.054,1.852c3.288-1.07,6.579-2.136,9.831-3.312,2.825-1.023,6-2,8.479-3.754l-1.825-.236c2.936,2.71,6.705,4.569,10.181,6.481l-.3-2.365a108.825,108.825,0,0,1-8.381,8.444c-2.827,2.484-6,4.916-9.636,6.058l1.465.387a31.279,31.279,0,0,1-7.049-9.485c-.874-1.731-3.473-.208-2.6,1.519a38.45,38.45,0,0,0,4.281,6.688,26.84,26.84,0,0,0,2.755,2.977c.571.527,1.114,1.01,1.948.821a10,10,0,0,0,1.57-.573c4.615-1.916,8.535-5.3,12.081-8.752,1.969-1.915,3.839-3.923,5.693-5.951a1.524,1.524,0,0,0-.3-2.365c-3.237-1.781-6.836-3.484-9.571-6.01a1.531,1.531,0,0,0-1.825-.236c-2.342,1.664-5.33,2.575-8,3.538-3.173,1.143-6.381,2.183-9.587,3.226a1.524,1.524,0,0,0-1.054,1.852,39.193,39.193,0,0,0,2.012,4.785C72.453,357.122,75.05,355.6,74.193,353.865Z" transform="translate(-17.192 -253.996)" fill="#333"/>
          <path id="パス_89855" data-name="パス 89855" d="M59.078,373.633c-.4,1.506-.76,3.011-1.067,4.537-.165.82-.32,1.643-.452,2.468a2.969,2.969,0,0,0,.129,2.043c.8,1.361,2.352.944,3.576.614,1.382-.372,2.76-.76,4.127-1.183,5.331-1.649,10.5-3.87,14.782-7.514,1.478-1.257-.66-3.378-2.13-2.129a31.683,31.683,0,0,1-8.952,5.175c-1.626.641-3.285,1.2-4.959,1.7q-1.218.369-2.445.708c-.439.122-1.813.7-2.167.556l.665.388-.134-.143.387.664a4.868,4.868,0,0,1,.271-1.5q.181-.969.387-1.934.4-1.841.885-3.659a1.507,1.507,0,0,0-2.9-.8Z" transform="translate(-14.202 -261.487)" fill="#333"/>
          <path id="パス_89856" data-name="パス 89856" d="M66.647,317.931a11.529,11.529,0,0,0,5.55,1.287,9.048,9.048,0,0,0,5.615-1.663,1.506,1.506,0,0,0,0-2.129,1.552,1.552,0,0,0-2.13,0c.461-.359.119-.1,0-.02s-.226.136-.341.2c-.06.032-.122.06-.183.091-.163.084-.151-.023.075-.026a2.2,2.2,0,0,0-.47.171,8.287,8.287,0,0,1-1.316.3c.226-.034,0,0-.105.008-.129.013-.258.024-.388.032-.312.02-.623.028-.936.026-.279,0-.559-.011-.837-.03q-.192-.014-.384-.032c-.03,0-.494-.075-.166-.017a11.234,11.234,0,0,1-1.229-.273c-.172-.052-.34-.114-.51-.172-.376-.129.239.122-.1-.04-.211-.1-.419-.2-.625-.312a1.506,1.506,0,0,0-1.52,2.6Z" transform="translate(-16.295 -247.374)" fill="#333"/>
          <path id="パス_89857" data-name="パス 89857" d="M72.883,300.957a25.74,25.74,0,0,1,.609,2.785l-.053-.4a1.687,1.687,0,0,1,.011.385l.053-.4a.908.908,0,0,1-.042.173l.151-.36a.762.762,0,0,1-.061.111l.235-.3a.569.569,0,0,1-.091.09l.3-.236a1.718,1.718,0,0,1-.221.117l.36-.151a1.635,1.635,0,0,1-.372.108l.4-.054a1.463,1.463,0,0,1-.349,0l.4.053c-.132-.018-.261-.05-.393-.068a1.689,1.689,0,0,0-1.16.151,1.506,1.506,0,0,0-.54,2.06,1.442,1.442,0,0,0,.9.692c.306.041.6.119.915.132a2.935,2.935,0,0,0,1.355-.324,1.973,1.973,0,0,0,1.091-1.3,3.243,3.243,0,0,0-.014-1.393c-.151-.9-.359-1.787-.589-2.667a1.506,1.506,0,1,0-2.9.8Z" transform="translate(-17.783 -243.431)" fill="#333"/>
          <path id="パス_89858" data-name="パス 89858" d="M53.679,290.33c-.465,1.512-.162,4.989,2.7,5.285,3.785-.023,3.99-4.227,2.71-6.2C58.049,287.792,54.982,287.119,53.679,290.33Z" transform="translate(-13.23 -240.713)" fill="#333"/>
          <path id="パス_89859" data-name="パス 89859" d="M91.99,290.33c.465,1.512.162,4.989-2.7,5.285-3.785-.023-3.99-4.227-2.71-6.2C87.624,287.792,90.689,287.119,91.99,290.33Z" transform="translate(-21.232 -240.713)" fill="#333"/>
        </g>
      </g>
      <g id="楕円形_149" data-name="楕円形 149" transform="translate(0.333 -0.479)" fill="none" stroke="#333" stroke-width="3">
        <ellipse cx="63.5" cy="64.5" rx="63.5" ry="64.5" stroke="none"/>
        <ellipse cx="63.5" cy="64.5" rx="62" ry="63" fill="none"/>
      </g>
    </g>
  </g>
</svg>
