<svg xmlns="http://www.w3.org/2000/svg" xmlns:xlink="http://www.w3.org/1999/xlink" width="126" height="126" viewBox="0 0 126 126">
  <defs>
    <clipPath id="clip-path">
      <circle id="楕円形_110" data-name="楕円形 110" cx="63" cy="63" r="63" transform="translate(0.139 -0.45)" fill="none" stroke="#333" stroke-width="3"/>
    </clipPath>
  </defs>
  <g id="グループ_9849" data-name="グループ 9849" transform="translate(-655.5 -520.284)">
    <g id="グループ_9758" data-name="グループ 9758" transform="translate(655.361 520.734)">
      <circle id="楕円形_164" data-name="楕円形 164" cx="63" cy="63" r="63" transform="translate(0.139 -0.45)" fill="#fff"/>
      <g id="マスクグループ_9" data-name="マスクグループ 9" transform="translate(0 0)" clip-path="url(#clip-path)">
        <g id="グループ_9727" data-name="グループ 9727" transform="translate(5.019 13.136)">
          <path id="パス_90262" data-name="パス 90262" d="M96.614,276.12a4.411,4.411,0,0,1,3.186-1.167,4.089,4.089,0,0,1,3.673,2.041c1.248,2.165,1.2,6.154.357,8.623a13.32,13.32,0,0,1-3.909,6.34,4.859,4.859,0,0,1-3.746,1.081l-.359-.061a28.545,28.545,0,0,1-1.289,3.5c-.9,2.453-5.691,10.745-11.869,14.6,0,2.6,0,4.311,0,4.311a6.679,6.679,0,0,0,.285,2.367,5.759,5.759,0,0,0,1.726,2.513,19.378,19.378,0,0,0,5.779,2.924l3.035,1.2s-6.538,11.63-25.062,11.63-24.454-11.63-24.454-11.63l3.043-1.2a19.378,19.378,0,0,0,5.779-2.924,5.747,5.747,0,0,0,1.726-2.513,6.681,6.681,0,0,0,.285-2.367s0-1.511,0-3.993a26.408,26.408,0,0,1-7.466-6.427,33.517,33.517,0,0,1-6.36-12,4.768,4.768,0,0,1-4.053-1.015,13.32,13.32,0,0,1-3.909-6.34c-.838-2.468-.891-6.457.357-8.623a4.089,4.089,0,0,1,3.673-2.041,4.4,4.4,0,0,1,3.186,1.167s-5-24.591,27.61-24.591S96.612,276.12,96.612,276.12Z" transform="translate(-8.385 -227.996)" fill="#fff"/>
          <path id="パス_90263" data-name="パス 90263" d="M70.066,341.749c1.457,1.139,2.543,1.981,2.792,2.16h2.135c.919-.652,13.008-10.184,13.609-10.666,1.393,1.564,3.113,3.847,4.477,5.433a4.3,4.3,0,0,1,.941,3.869c-.526,1.053-6.33,10.355-10.236,12.86l-3.18-3.246a14.191,14.191,0,0,1-7.116,1.438,13.131,13.131,0,0,1-6.382-1.29l-3.039,3.1c-3.906-2.505-9.71-11.808-10.236-12.86a4.321,4.321,0,0,1,.941-3.869c1.364-1.586,3.083-3.869,4.484-5.433C59.687,333.593,66.192,338.721,70.066,341.749Z" transform="translate(-13.89 -249.142)" fill="#fff"/>
          <path id="パス_90277" data-name="パス 90277" d="M80.8,344.6a3,3,0,0,1-.039.443,2.363,2.363,0,0,1-.113.447c-.525,1.048-6.326,10.351-10.233,12.854l0,0h0l-3.18-3.247c-.066.037-.134.065-.2.1-.13.069-.261.133-.392.195-.173.082-.348.159-.523.23-.125.05-.251.1-.377.143-.185.066-.371.126-.558.182-.121.036-.241.071-.362.1-.2.051-.4.1-.6.137-.111.023-.222.048-.334.068-.219.04-.44.072-.66.1-.09.012-.181.027-.271.037-.268.031-.535.055-.8.074l-.123.01c-.643.042-1.284.058-1.915.058-.551,0-1.12-.016-1.7-.056l-.156-.013c-.22-.017-.441-.038-.662-.064-.113-.013-.226-.031-.339-.047-.162-.023-.324-.047-.486-.076-.141-.025-.281-.056-.422-.086s-.271-.059-.405-.094c-.154-.039-.306-.083-.459-.129-.122-.036-.242-.076-.362-.117-.159-.054-.315-.113-.471-.176-.113-.046-.225-.1-.337-.147-.158-.071-.314-.146-.469-.228-.039-.021-.079-.036-.117-.057l-3.03,3.089-.009.012c-3.907-2.5-9.708-11.806-10.233-12.854l0-.008h0c0-.013-.006-.027-.01-.039a2.355,2.355,0,0,1-.1-.4,3.066,3.066,0,0,1-.039-.44V344.6C23.89,346.851,6.138,358.919,2,375.629H119.113c-4.137-16.71-21.889-28.778-38.31-31.027Z" transform="translate(-0.518 -252.082)" fill="#ff7c64"/>
          <path id="パス_90278" data-name="パス 90278" d="M90.411,231.107c-4.444-7.372-14.6-9.3-22.368-9.3a34.446,34.446,0,0,0-21.523,7.164,29.217,29.217,0,0,0-5.571,5.322c-3.794,4.3-7.467,13.393-7.229,21.838A46.888,46.888,0,0,0,35.4,267.72a4.917,4.917,0,0,1,1.982-.454,4.4,4.4,0,0,1,3.186,1.167L41.7,269.52l.062-.663a29.881,29.881,0,0,1,7.614-16.843,3.331,3.331,0,0,1,3.127-1.037,58.732,58.732,0,0,0,13.978.448c5.7-.312,11.728-.878,16.363-3.309l4.871,3.333a11.949,11.949,0,0,1,2.894,2.721,25.5,25.5,0,0,1,5.148,15.414l1.2-1.152a4.411,4.411,0,0,1,3.186-1.167,4.916,4.916,0,0,1,1.986.455l.109-.592c.97-5.22,1.789-10.6,1.074-15.885-.856-6.331-3.748-12.827-9.148-16.207l-3.748-3.93Z" transform="translate(-8.723 -220.304)" fill="#fce5db"/>
          <path id="パス_90337" data-name="パス 90337" d="M91.193,229.834c-2.944-4.789-8.05-7.523-13.38-8.848a42.064,42.064,0,0,0-17.355-.56,37.042,37.042,0,0,0-16.853,8.04,32.068,32.068,0,0,0-9.912,14.859c-2.582,7.72-2.382,15.843-.379,23.674.473,1.847,3.333,1.064,2.859-.788a38.972,38.972,0,0,1-.381-19.542,30.555,30.555,0,0,1,8.23-14.615,33.7,33.7,0,0,1,14.636-8.2,37.964,37.964,0,0,1,16.008-.507c5.376.949,10.984,3.134,13.967,7.984,1,1.623,3.563.135,2.56-1.5h0Z" transform="translate(-8.225 -219.779)" fill="#333"/>
          <path id="パス_90338" data-name="パス 90338" d="M124.266,271.612c1.233-6.661,2.112-13.447.405-20.111-1.393-5.437-4.351-10.585-9.161-13.656-1.613-1.03-3.1,1.535-1.5,2.56,4.24,2.707,6.693,7.384,7.867,12.157,1.486,6.044.643,12.232-.474,18.261-.345,1.865,2.511,2.665,2.859.788h0Z" transform="translate(-29.327 -224.392)" fill="#333"/>
          <path id="パス_90339" data-name="パス 90339" d="M85.564,254.583a25.262,25.262,0,0,1-9.737,3.155,92.487,92.487,0,0,1-11.275.8,57.824,57.824,0,0,1-5.966-.13c-1.819-.145-3.834-.841-5.637-.405-1.829.442-2.925,2.023-4.006,3.433a32.936,32.936,0,0,0-2.915,4.5,30.359,30.359,0,0,0-3.456,11.338,1.493,1.493,0,0,0,1.482,1.482,1.515,1.515,0,0,0,1.482-1.482,26.37,26.37,0,0,1,2.765-9.292,32.05,32.05,0,0,1,2.72-4.409c.77-1.051,1.743-2.823,3.24-2.756.857.039,1.737.272,2.592.378.981.122,1.967.2,2.954.256,1.932.1,3.869.086,5.8.019a100.2,100.2,0,0,0,10.849-.855,27.4,27.4,0,0,0,10.6-3.477c1.62-1,.132-3.568-1.5-2.56h0Z" transform="translate(-11.016 -228.726)" fill="#333"/>
          <path id="パス_90340" data-name="パス 90340" d="M105.333,262.537c2.611,1.848,4.323,4.825,5.528,7.737a23.306,23.306,0,0,1,1.777,9.252,1.483,1.483,0,0,0,2.965,0,26.261,26.261,0,0,0-2.153-10.686,20.183,20.183,0,0,0-6.62-8.863c-1.56-1.1-3.043,1.465-1.5,2.56h0Z" transform="translate(-27.089 -230.112)" fill="#333"/>
          <path id="パス_90341" data-name="パス 90341" d="M73.655,315.881a11.537,11.537,0,0,0,5.555,1.287,9.052,9.052,0,0,0,5.615-1.66,1.485,1.485,0,0,0,0-2.1,1.529,1.529,0,0,0-2.1,0c.452-.352.11-.09-.005-.015s-.225.137-.342.2c-.061.032-.122.06-.183.091-.2.1-.069-.054.068-.023-.093-.021-.375.141-.472.171a8.394,8.394,0,0,1-1.321.3c.222-.033-.015,0-.113.01-.13.013-.259.024-.389.032q-.469.03-.938.026c-.28,0-.56-.011-.841-.03q-.192-.013-.385-.032c-.024,0-.488-.074-.174-.019a10.947,10.947,0,0,1-1.233-.273c-.173-.052-.341-.113-.512-.172-.375-.128.229.117-.11-.042q-.317-.15-.627-.313a1.483,1.483,0,1,0-1.5,2.56h0Z" transform="translate(-18.875 -243.902)" fill="#333"/>
          <path id="パス_90342" data-name="パス 90342" d="M80.021,298.609a25.917,25.917,0,0,1,.611,2.8l-.053-.394a1.683,1.683,0,0,1,.01.386l.053-.394a.927.927,0,0,1-.042.173l.15-.354a.66.66,0,0,1-.062.112l.232-.3a.615.615,0,0,1-.091.09l.3-.232a1.759,1.759,0,0,1-.222.117l.354-.15a1.591,1.591,0,0,1-.374.109l.394-.053a1.5,1.5,0,0,1-.351,0l.394.053c-.132-.019-.262-.05-.394-.068a1.13,1.13,0,0,0-.591-.027,1.106,1.106,0,0,0-.551.176,1.482,1.482,0,0,0-.531,2.028,1.418,1.418,0,0,0,.886.681c.3.041.6.119.911.132a2.921,2.921,0,0,0,1.348-.322,1.954,1.954,0,0,0,1.081-1.289,3.209,3.209,0,0,0-.013-1.382c-.152-.9-.36-1.793-.592-2.677a1.483,1.483,0,0,0-2.859.788h0Z" transform="translate(-20.459 -239.691)" fill="#333"/>
          <path id="パス_90343" data-name="パス 90343" d="M60.336,287.773c-.467,1.517-.162,5.007,2.711,5.3,3.8-.023,4-4.242,2.722-6.226-1.047-1.624-4.126-2.3-5.434.922Z" transform="translate(-15.568 -236.785)" fill="#333"/>
          <path id="パス_90344" data-name="パス 90344" d="M99.453,287.773c.467,1.517.163,5.007-2.711,5.3-3.8-.023-4-4.242-2.722-6.226C95.066,285.227,98.145,284.551,99.453,287.773Z" transform="translate(-24.147 -236.785)" fill="#333"/>
          <path id="パス_90345" data-name="パス 90345" d="M40.753,282.74a6.274,6.274,0,0,0-6.789-1.024,5.961,5.961,0,0,0-3.146,4.044,15.7,15.7,0,0,0,2.3,12.394c1.57,2.336,4.023,4.424,7.024,4.034a1.531,1.531,0,0,0,1.482-1.482,1.491,1.491,0,0,0-1.482-1.482c-4.116.534-6.441-5.437-6.725-8.746-.148-1.732-.153-3.911.912-5.388-.145.2.148-.165.156-.173.07-.067.18-.186.245-.237a2.735,2.735,0,0,1,1.062-.481,3.163,3.163,0,0,1,2.864.637c1.419,1.267,3.524-.823,2.1-2.1h0Z" transform="translate(-7.86 -235.66)" fill="#333"/>
          <path id="パス_90346" data-name="パス 90346" d="M119.411,284.833a3.139,3.139,0,0,1,2.735-.664,2.8,2.8,0,0,1,1.191.508c.087.069.486.526.4.41,1.064,1.477,1.06,3.657.912,5.388-.284,3.309-2.608,9.279-6.725,8.746a1.49,1.49,0,0,0-1.482,1.482,1.521,1.521,0,0,0,1.482,1.482c4.936.64,7.924-4.745,9.154-8.724,1.087-3.515,1.132-9.125-2.328-11.4a6.241,6.241,0,0,0-7.437.674c-1.427,1.273.676,3.364,2.1,2.1h0Z" transform="translate(-30.134 -235.657)" fill="#333"/>
          <path id="パス_90347" data-name="パス 90347" d="M110.509,303.757a32.679,32.679,0,0,1-1.918,5.819c.156-.38-.127.274-.194.414-.13.272-.267.542-.407.809-.345.657-.716,1.3-1.1,1.938a35.135,35.135,0,0,1-7.565,9.007,14,14,0,0,1-5.62,2.924c-1.857.433-1.071,3.292.788,2.859,4.3-1,7.872-4.131,10.679-7.4a38.37,38.37,0,0,0,5.941-8.97c.079-.173.153-.348.227-.524.019-.045.216-.519.153-.372-.08.187.037-.076.044-.092q.114-.263.225-.528c.116-.277.227-.555.333-.836a28.338,28.338,0,0,0,1.276-4.257c.386-1.862-2.471-2.658-2.859-.788h0Z" transform="translate(-23.974 -241.235)" fill="#333"/>
          <path id="パス_90348" data-name="パス 90348" d="M41.267,304.411a35.467,35.467,0,0,0,7.712,15.3c3.646,4.223,8.325,7.562,13.94,8.4a1.531,1.531,0,0,0,1.823-1.035,1.493,1.493,0,0,0-1.035-1.823c-5.173-.772-9.273-3.747-12.632-7.637a32.352,32.352,0,0,1-6.95-13.993c-.422-1.86-3.282-1.072-2.859.788h0Z" transform="translate(-10.668 -241.202)" fill="#333"/>
          <path id="パス_90349" data-name="パス 90349" d="M2.91,375.515C6.165,362.6,17.43,352.935,29.5,348.3a48.67,48.67,0,0,1,10.749-2.791,1.492,1.492,0,0,0,1.035-1.823,1.522,1.522,0,0,0-1.823-1.035c-13.652,1.889-27.137,9.8-34.716,21.42a35.422,35.422,0,0,0-4.7,10.654c-.466,1.851,2.392,2.64,2.859.788h0Z" transform="translate(0 -251.572)" fill="#333"/>
          <path id="パス_90350" data-name="パス 90350" d="M147.513,374.727c-3.488-13.838-15.409-24.083-28.294-29.139a48.805,48.805,0,0,0-11.12-2.934,1.532,1.532,0,0,0-1.823,1.035,1.493,1.493,0,0,0,1.035,1.823c12.847,1.777,25.676,9,32.873,19.948a32.941,32.941,0,0,1,4.47,10.055c.466,1.849,3.327,1.066,2.859-.788h0Z" transform="translate(-27.491 -251.572)" fill="#333"/>
          <path id="パス_90351" data-name="パス 90351" d="M70.528,359.676a15.4,15.4,0,0,0,7.463,1.491,15.753,15.753,0,0,0,7.531-1.639c1.677-.912.182-3.473-1.5-2.56a12.6,12.6,0,0,1-6.034,1.234,12.328,12.328,0,0,1-5.967-1.086c-1.685-.892-3.185,1.666-1.5,2.56h0Z" transform="translate(-18.06 -255.231)" fill="#333"/>
          <path id="パス_90353" data-name="パス 90353" d="M68.855,347.364q-3.17,3.241-6.345,6.478l1.8-.232A20.857,20.857,0,0,1,59.99,349.2c-1.343-1.684-2.577-3.459-3.755-5.262-.414-.633-.821-1.271-1.21-1.92-.377-.629-.463-.663-.339-1.383.218-1.279,1.3-2.229,2.084-3.2,1-1.233,1.975-2.481,3.027-3.667H57.7c4.144,3.353,8.365,6.621,12.579,9.886a3.808,3.808,0,0,0,2.548,1.215,8.211,8.211,0,0,0,2.051-.053,2.918,2.918,0,0,0,.943-.594c2.33-1.789,4.634-3.611,6.944-5.426,2.127-1.673,4.264-3.335,6.377-5.027h-2.1c1.048,1.187,2.026,2.434,3.02,3.667.777.964,1.868,1.919,2.087,3.2.125.731.032.759-.343,1.383-.389.649-.8,1.287-1.21,1.92-1.178,1.8-2.412,3.577-3.755,5.262a20.858,20.858,0,0,1-4.316,4.407l1.8.232-6.345-6.478c-1.337-1.365-3.433.732-2.1,2.1l6.345,6.478a1.5,1.5,0,0,0,1.8.232c3.218-2.115,5.6-5.592,7.766-8.7.886-1.274,1.748-2.57,2.548-3.9a5.141,5.141,0,0,0,.181-5.1,17.433,17.433,0,0,0-2.453-3.245c-.961-1.194-1.909-2.4-2.924-3.548a1.517,1.517,0,0,0-2.1,0c-2.19,1.752-4.4,3.476-6.608,5.209q-2.237,1.759-4.479,3.512-.791.617-1.584,1.232c.319-.246-.226.173-.33.252s-.2.155-.308.23l.748-.2H72.351l.748.2c-.1-.075-.2-.153-.307-.23l-.245-.187c-.325-.249.146.113-.084-.064q-.793-.615-1.583-1.232-2.243-1.751-4.478-3.512c-2.2-1.732-4.425-3.445-6.6-5.209a1.509,1.509,0,0,0-2.1,0c-.849.956-1.649,1.953-2.45,2.949-.818,1.018-1.738,2-2.486,3.066a5.228,5.228,0,0,0-.457,5.556,66.435,66.435,0,0,0,6.029,8.594,20.79,20.79,0,0,0,4.475,4.325,1.5,1.5,0,0,0,1.8-.232q3.175-3.236,6.345-6.478c1.335-1.365-.76-3.464-2.1-2.1h0Z" transform="translate(-13.38 -248.627)" fill="#333"/>
        </g>
      </g>
      <g id="楕円形_134" data-name="楕円形 134" transform="translate(0.139 -0.45)" fill="none" stroke="#333" stroke-width="3">
        <circle cx="63" cy="63" r="63" stroke="none"/>
        <circle cx="63" cy="63" r="61.5" fill="none"/>
      </g>
    </g>
  </g>
</svg>
