<svg xmlns="http://www.w3.org/2000/svg" xmlns:xlink="http://www.w3.org/1999/xlink" width="125.389" height="125.391" viewBox="0 0 125.389 125.391">
  <defs>
    <clipPath id="clip-path">
      <ellipse id="楕円形_187" data-name="楕円形 187" cx="62.694" cy="62.694" rx="62.694" ry="62.694" transform="translate(-15631.149 -21107.541)" fill="#fff"/>
    </clipPath>
  </defs>
  <g id="グループ_9850" data-name="グループ 9850" transform="translate(-404.612 -558.998)">
    <g id="グループ_9830" data-name="グループ 9830" transform="translate(16051.611 21707)">
      <ellipse id="楕円形_178" data-name="楕円形 178" cx="62.694" cy="62.694" rx="62.694" ry="62.694" transform="translate(-15647 -21148)" fill="#fff"/>
      <g id="マスクグループ_39" data-name="マスクグループ 39" transform="translate(-15.851 -40.46)" clip-path="url(#clip-path)">
        <g id="グループ_9827" data-name="グループ 9827" transform="translate(945.425 -255.354)">
          <path id="パス_91358" data-name="パス 91358" d="M96.7,59.062a4.417,4.417,0,0,1,3.19-1.168,4.094,4.094,0,0,1,3.678,2.044c1.25,2.168,1.2,6.162.358,8.633a13.337,13.337,0,0,1-3.914,6.348A4.865,4.865,0,0,1,96.264,76l-.36-.061a28.644,28.644,0,0,1-1.291,3.5c-.92,2.5-5.856,11.032-12.19,14.811v4.121a6.688,6.688,0,0,0,.286,2.37,5.767,5.767,0,0,0,1.728,2.517,19.4,19.4,0,0,0,5.786,2.928l1.586.626c-6.222,5.718-13.817,9.425-23.05,9.425a33.616,33.616,0,0,1-23.606-9.429l1.576-.621a19.4,19.4,0,0,0,5.786-2.928,5.754,5.754,0,0,0,1.728-2.517,6.69,6.69,0,0,0,.286-2.37s0-1.58,0-4.162a26.8,26.8,0,0,1-7.17-6.265,33.544,33.544,0,0,1-6.368-12.015,4.771,4.771,0,0,1-4.058-1.015,13.337,13.337,0,0,1-3.914-6.348c-.839-2.471-.892-6.466.358-8.633A4.094,4.094,0,0,1,37.054,57.9a4.41,4.41,0,0,1,3.19,1.168S30.54,26.3,68.472,26.3,96.7,59.063,96.7,59.063Z" transform="translate(-16582.355 -20847.982)" fill="#fff"/>
          <path id="パス_91361" data-name="パス 91361" d="M29.924,34.261a19.766,19.766,0,0,0-2.609,4.116,13.246,13.246,0,0,0,.03,10.477c1,2.071,2.405,4.256,4.425,4.99a.258.258,0,0,1,.019-.038,4.094,4.094,0,0,1,3.678-2.044,4.41,4.41,0,0,1,3.2,1.179,10.05,10.05,0,0,1,1.906-6.068c1.276-1.566,2.311-1.912,3.3-3.336,1.026-1.475.905-3.176,1.049-4.8a7.694,7.694,0,0,1,3.554-6.195c2.578-1.6,6.295-1.947,9.722-2.439a102.213,102.213,0,0,1,17.369,0c3.427.493,7.144.839,9.722,2.439a7.694,7.694,0,0,1,3.554,6.195c.143,1.627.022,3.327,1.049,4.8.991,1.424,2.14,2.414,3.441,3.935a9.224,9.224,0,0,1,1.769,5.473,4.382,4.382,0,0,1,3.2-1.184,4.094,4.094,0,0,1,3.678,2.044l.022.037c2.02-.731,3.43-2.917,4.427-4.989a13.29,13.29,0,0,0,.03-10.477c-1.273-3.152-4.264-5.142-4.748-8.719a40.4,40.4,0,0,1,.091-4.941,12.64,12.64,0,0,0-8.456-11.487c-1.818-.606-3.728-.929-5.506-1.657-2.91-1.2-4.658-3.667-7.183-5.567-4.071-3.071-8.809-3.476-13.77-3.476s-9.7.4-13.77,3.476c-2.526,1.9-4.273,4.365-7.193,5.567-1.768.727-3.677,1.051-5.5,1.657a12.64,12.64,0,0,0-8.456,11.487,40.4,40.4,0,0,1,.091,4.941,10.044,10.044,0,0,1-2.14,4.6Z" transform="translate(-16580.77 -20841.854)" fill="#fff"/>
          <path id="パス_91363" data-name="パス 91363" d="M2.006,162.279c3.821-14.5,19.239-25.287,34.512-28.535a33.737,33.737,0,0,0,24.406,10.2c9.641,0,17.5-4.042,23.865-10.193,15.259,3.253,30.659,14.034,34.478,28.525" transform="translate(-16574.518 -20875.686)" fill="#ff7c64"/>
          <path id="パス_91368" data-name="パス 91368" d="M73.664,101.613a11.551,11.551,0,0,0,5.562,1.288,9.063,9.063,0,0,0,5.623-1.662,1.487,1.487,0,0,0,0-2.1,1.531,1.531,0,0,0-2.1,0c.453-.353.111-.09-.005-.015s-.226.137-.343.2c-.061.032-.122.06-.183.091-.2.1-.069-.054.068-.023-.093-.021-.376.141-.473.171a8.406,8.406,0,0,1-1.323.3c.223-.033-.015,0-.114.01-.13.013-.26.024-.39.032q-.47.03-.94.026c-.281,0-.561-.011-.842-.03-.128-.009-.257-.019-.385-.032-.024,0-.489-.074-.174-.019a10.943,10.943,0,0,1-1.235-.274c-.173-.052-.341-.114-.513-.172-.376-.128.229.117-.11-.042q-.317-.15-.628-.313a1.484,1.484,0,1,0-1.5,2.563h0Z" transform="translate(-16592.809 -20866.656)" fill="#333"/>
          <path id="パス_91369" data-name="パス 91369" d="M80.03,84.34a25.954,25.954,0,0,1,.612,2.8l-.053-.395a1.685,1.685,0,0,1,.01.387l.053-.395a.926.926,0,0,1-.042.174l.15-.355a.66.66,0,0,1-.062.112l.232-.3a.614.614,0,0,1-.091.09l.3-.232a1.757,1.757,0,0,1-.222.117l.355-.15a1.592,1.592,0,0,1-.374.109l.395-.053a1.5,1.5,0,0,1-.351,0l.395.053c-.132-.019-.262-.05-.394-.068a1.132,1.132,0,0,0-.592-.027,1.108,1.108,0,0,0-.552.176,1.484,1.484,0,0,0-.532,2.031,1.42,1.42,0,0,0,.887.682c.305.041.6.119.912.132a2.925,2.925,0,0,0,1.35-.322A1.957,1.957,0,0,0,83.5,87.614a3.213,3.213,0,0,0-.013-1.384c-.152-.9-.361-1.8-.593-2.68a1.485,1.485,0,0,0-2.862.789h0Z" transform="translate(-16594.387 -20862.461)" fill="#333"/>
          <path id="パス_91370" data-name="パス 91370" d="M60.345,73.5c-.468,1.519-.163,5.013,2.715,5.311,3.8-.023,4.006-4.247,2.725-6.234-1.049-1.626-4.131-2.3-5.441.923Z" transform="translate(-16589.514 -20859.564)" fill="#333"/>
          <path id="パス_91371" data-name="パス 91371" d="M99.469,73.5c.468,1.519.163,5.013-2.715,5.311-3.8-.023-4.006-4.247-2.726-6.234C95.076,70.955,98.159,70.278,99.469,73.5Z" transform="translate(-16598.063 -20859.564)" fill="#333"/>
          <path id="パス_91372" data-name="パス 91372" d="M40.774,68.471a6.282,6.282,0,0,0-6.8-1.026,5.969,5.969,0,0,0-3.15,4.049,15.718,15.718,0,0,0,2.3,12.41c1.572,2.339,4.028,4.43,7.033,4.04a1.533,1.533,0,0,0,1.484-1.484,1.492,1.492,0,0,0-1.484-1.484c-4.121.535-6.449-5.444-6.734-8.757-.148-1.734-.153-3.916.913-5.395-.145.2.148-.165.157-.173.07-.067.18-.186.246-.237a2.74,2.74,0,0,1,1.064-.482,3.167,3.167,0,0,1,2.868.638c1.421,1.268,3.528-.824,2.1-2.1h0Z" transform="translate(-16581.834 -20858.443)" fill="#333"/>
          <path id="パス_91373" data-name="パス 91373" d="M119.423,70.566a3.143,3.143,0,0,1,2.739-.665,2.8,2.8,0,0,1,1.193.509c.088.069.487.527.4.41,1.066,1.478,1.061,3.662.913,5.395-.284,3.313-2.612,9.291-6.734,8.757a1.492,1.492,0,0,0-1.484,1.484,1.523,1.523,0,0,0,1.484,1.484c4.942.641,7.934-4.751,9.166-8.735,1.088-3.519,1.133-9.137-2.331-11.413a6.249,6.249,0,0,0-7.446.675c-1.429,1.274.677,3.368,2.1,2.1h0Z" transform="translate(-16604.027 -20858.439)" fill="#333"/>
          <path id="パス_91374" data-name="パス 91374" d="M110.54,89.487a32.721,32.721,0,0,1-1.921,5.826c.157-.38-.128.275-.194.414-.131.272-.267.543-.407.81-.346.658-.717,1.3-1.1,1.94a35.179,35.179,0,0,1-7.574,9.018,14.017,14.017,0,0,1-5.627,2.928c-1.86.433-1.072,3.3.789,2.862,4.305-1,7.882-4.136,10.692-7.409a38.418,38.418,0,0,0,5.948-8.982c.079-.174.153-.349.227-.525.019-.045.217-.52.154-.373-.08.187.037-.076.045-.092q.115-.264.225-.529c.116-.278.227-.556.333-.837a28.372,28.372,0,0,0,1.277-4.262c.387-1.864-2.474-2.661-2.862-.789h0Z" transform="translate(-16597.889 -20863.998)" fill="#333"/>
          <path id="パス_91375" data-name="パス 91375" d="M41.275,90.142A35.512,35.512,0,0,0,49,105.463c3.651,4.228,8.335,7.571,13.958,8.41a1.533,1.533,0,0,0,1.826-1.037,1.5,1.5,0,0,0-1.037-1.826c-5.179-.773-9.284-3.752-12.648-7.647a32.393,32.393,0,0,1-6.959-14.011c-.423-1.862-3.286-1.074-2.862.789h0Z" transform="translate(-16584.631 -20863.967)" fill="#333"/>
          <path id="パス_91376" data-name="パス 91376" d="M31.814,51.944c-1.988-.708-3.358-3.262-4.005-5.137a11.931,11.931,0,0,1,.026-7.407c.671-2.164,2.134-3.789,3.378-5.633a10.9,10.9,0,0,0,1.863-7.1,12.877,12.877,0,0,1,.836-6.631,11.58,11.58,0,0,1,4.162-4.794c2.172-1.392,4.727-1.662,7.114-2.52A18.284,18.284,0,0,0,51.4,8.49a16.763,16.763,0,0,1,5.889-3.838,24.1,24.1,0,0,1,7.249-1.133C69.447,3.381,74.705,3.5,78.894,6.4c1.953,1.351,3.495,3.208,5.407,4.615,2.246,1.652,4.891,2.139,7.5,2.925a11.278,11.278,0,0,1,7.95,9.185,27.908,27.908,0,0,1-.1,4.255,9.972,9.972,0,0,0,.766,4.341c.975,2.263,2.8,3.98,3.92,6.161a11.967,11.967,0,0,1,.878,8.046c-.543,2.148-2.022,5.219-4.267,6.017-1.787.636-1.018,3.505.789,2.862,2.548-.907,4.178-3.121,5.339-5.468a14.052,14.052,0,0,0,1.24-8.318,15.36,15.36,0,0,0-2.98-7.06,24.171,24.171,0,0,1-1.966-2.911,7.078,7.078,0,0,1-.752-3.67,30.972,30.972,0,0,0,.1-4.255,13.175,13.175,0,0,0-.881-3.617,14.437,14.437,0,0,0-4.375-5.9,19.291,19.291,0,0,0-7.324-3.2A12.668,12.668,0,0,1,86.27,8.787a24.876,24.876,0,0,1-2.909-2.5A20.07,20.07,0,0,0,76.41,1.84,26.386,26.386,0,0,0,68.385.556C63.033.39,57.249.615,52.635,3.66c-2.241,1.48-3.926,3.633-6.144,5.125-2.421,1.63-5.418,1.787-8.055,2.92a14.209,14.209,0,0,0-8.392,11.418c-.281,2.737.676,5.49-.716,8.039-1.121,2.054-2.835,3.71-3.771,5.876a14.741,14.741,0,0,0,2.3,15.621,7.546,7.546,0,0,0,3.165,2.146c1.8.642,2.579-2.226.789-2.862h0Z" transform="translate(-16580.266 -20841.334)" fill="#333"/>
          <path id="パス_91377" data-name="パス 91377" d="M43.952,61.864a9.235,9.235,0,0,1,.939-4.148,11.472,11.472,0,0,1,2.762-3.009,7.056,7.056,0,0,0,2.239-3.777c.275-1.356.163-2.756.443-4.107.583-2.81,2.571-4.4,5.246-5.172a33.183,33.183,0,0,1,4.611-.9c.679-.1,1.691-.241,2.134-.3-.154.019.255-.028.344-.038.209-.022.417-.04.626-.058a99.511,99.511,0,0,1,13.322-.1c.836.044,1.672.1,2.5.2-.395-.048.124.019.168.025l.629.088c.369.051.738.1,1.107.153.789.111,1.577.227,2.361.37,2.726.5,5.682,1.281,7.056,3.927a10.1,10.1,0,0,1,.815,4.068A8.367,8.367,0,0,0,93,53.987c1.015,1.294,2.362,2.362,3.281,3.721a8.28,8.28,0,0,1,1.138,4.156c.124,1.9,3.093,1.91,2.969,0a13.523,13.523,0,0,0-.881-4.361,13.628,13.628,0,0,0-2.955-3.952c-1.087-1.159-2.088-2.236-2.281-3.876a26.063,26.063,0,0,0-.553-4.371c-1.907-6.515-9.5-7.33-15.242-7.876a92.615,92.615,0,0,0-14.111-.11,55.265,55.265,0,0,0-7.938,1.07c-3.145.653-6.291,1.986-7.938,4.912a11.005,11.005,0,0,0-1.272,4.636c-.128,1.723-.159,3.229-1.482,4.5a14.844,14.844,0,0,0-3.476,3.911,12.688,12.688,0,0,0-1.279,5.516,1.485,1.485,0,0,0,2.969,0h0Z" transform="translate(-16584.568 -20850.768)" fill="#333"/>
          <path id="パス_91378" data-name="パス 91378" d="M89.248,79.367A8.283,8.283,0,0,1,86.9,69.781a5.533,5.533,0,0,1,3.4-3.246,12.579,12.579,0,0,1,4.845-.543,9.534,9.534,0,0,1,5.06,1.991,5.894,5.894,0,0,1,1.9,4.912,7.886,7.886,0,0,1-1.566,5.214,5.844,5.844,0,0,1-3.345,2.169c-2.609.638-5.875.581-8.248-1.144a1.5,1.5,0,0,0-2.031.533A1.517,1.517,0,0,0,87.45,81.7c2.932,2.131,7,2.268,10.43,1.467a8.453,8.453,0,0,0,4.529-2.68,11.451,11.451,0,0,0,1.845-2.773,10.85,10.85,0,0,0,.783-3.871,9.737,9.737,0,0,0-1.922-7.137A11.315,11.315,0,0,0,97.2,63.35c-4.3-1.064-9.77-.078-12.275,3.851-2.8,4.391-1.918,11,2.227,14.264a1.531,1.531,0,0,0,2.1,0,1.494,1.494,0,0,0,0-2.1Z" transform="translate(-16595.479 -20857.434)" fill="#333"/>
          <path id="パス_91379" data-name="パス 91379" d="M67.3,81.475c3.806-3,4.788-8.689,2.89-13.008a8.38,8.38,0,0,0-4.51-4.509,14.427,14.427,0,0,0-6.378-.926A12.839,12.839,0,0,0,52.36,65.71a8.39,8.39,0,0,0-2.972,6.25,11.3,11.3,0,0,0,1.65,7.254,9.285,9.285,0,0,0,4.785,3.757c3.531,1.14,8.115.959,11.172-1.263a1.529,1.529,0,0,0,.533-2.031,1.5,1.5,0,0,0-2.031-.533c-2.253,1.638-5.326,1.74-7.8,1.242a6.537,6.537,0,0,1-5.274-5.908c-.154-1.858-.247-3.911.888-5.5a7.912,7.912,0,0,1,4.41-2.67c2.911-.807,7.348-.457,9.162,2.286A8.248,8.248,0,0,1,65.2,79.377a1.492,1.492,0,0,0,0,2.1,1.521,1.521,0,0,0,2.1,0Z" transform="translate(-16586.727 -20857.443)" fill="#333"/>
          <path id="パス_91380" data-name="パス 91380" d="M110.125,74.124H114.8a1.484,1.484,0,1,0,0-2.969h-4.676a1.484,1.484,0,1,0,0,2.969Z" transform="translate(-16602.012 -20859.547)" fill="#333"/>
          <path id="パス_91381" data-name="パス 91381" d="M49.4,71.155H44.557a1.484,1.484,0,1,0,0,2.969H49.4a1.484,1.484,0,1,0,0-2.969Z" transform="translate(-16585.105 -20859.547)" fill="#333"/>
          <path id="パス_91382" data-name="パス 91382" d="M76.172,75.052h6.411a1.484,1.484,0,1,0,0-2.969H76.172a1.484,1.484,0,0,0,0,2.969Z" transform="translate(-16593.258 -20859.789)" fill="#333"/>
          <path id="パス_91383" data-name="パス 91383" d="M76.608,115.747a1.007,1.007,0,0,1-.891-.606l-.51-1.021a.973.973,0,0,0-1.855.179l-.013.041a.971.971,0,0,1-1.849.181l-.785-1.562a.944.944,0,0,0-1.657-.194c-.208.275-.413.551-.6.815a.929.929,0,0,1-1.578-.031l-1.276-1.855a.926.926,0,0,0-1.376-.243,5.992,5.992,0,0,0-1.993,2.117,1.337,1.337,0,0,0,.013.846l-.465,3.047c.568,1.807,1.968,1.742,2.537,3.55.372,1.183,1.09,2.617,2.361,2.543a4.5,4.5,0,0,0,1.523-.586,1.481,1.481,0,0,1,1.555.028,1.643,1.643,0,0,1,.413.816l.658,2.3a.972.972,0,0,0,1.7.5l.177-.194a.515.515,0,0,1,.327-.206c.235-.01.266.322.408.487.184.213.358.422.528.627a3.453,3.453,0,0,0,2.437,1.325,3.391,3.391,0,0,0,2.886-1.325c.168-.206.343-.414.528-.627.142-.165.174-.5.408-.487a.515.515,0,0,1,.327.206l.177.194a.972.972,0,0,0,1.7-.5l.658-2.3a1.643,1.643,0,0,1,.413-.816,1.48,1.48,0,0,1,1.555-.028,4.469,4.469,0,0,0,1.523.586c1.271.073,1.989-1.361,2.361-2.543.568-1.808,1.969-1.743,2.537-3.55l-.465-3.047a1.337,1.337,0,0,0,.013-.846,5.985,5.985,0,0,0-1.993-2.117.926.926,0,0,0-1.376.243l-1.277,1.855a.929.929,0,0,1-1.578.031c-.191-.264-.4-.54-.6-.815a.944.944,0,0,0-1.657.194l-.785,1.562a.971.971,0,0,1-1.849-.181l-.013-.041a.973.973,0,0,0-1.855-.179l-.51,1.021a1.007,1.007,0,0,1-.891.606Z" transform="translate(-16589.926 -20869.885)" fill="#333"/>
          <path id="パス_91384" data-name="パス 91384" d="M76.112,113.763c.666.079.337.245.281-.092a2.433,2.433,0,0,0-.289-.58,2.912,2.912,0,0,0-1.074-1.233,2.46,2.46,0,0,0-3.454,1.192c-.254.543-.136.189.3.172.347-.013.329.082.364-.025.056-.168-.459-.913-.544-1.081a2.653,2.653,0,0,0-2.585-1.719,2.526,2.526,0,0,0-2.045,1.394l-.2.272a.615.615,0,0,1,.779.221,2.58,2.58,0,0,1-.209-.3,12.9,12.9,0,0,0-1.29-1.838c-1.222-1.406-2.77-.846-3.994.177-1.265,1.056-2.232,2.251-1.844,3.988v-.789c-.228,1.5-.845,3.3-.11,4.7.522,1,1.677,1.533,2.126,2.524.559,1.235.86,2.462,2.062,3.27a3.5,3.5,0,0,0,3.925-.206q.4-.056.145-.086-.436-.5-.224-.018a.776.776,0,0,0,.04.14c.114.394.226.789.338,1.183a4.356,4.356,0,0,0,1.139,2.32,2.325,2.325,0,0,0,1.969.534,3.3,3.3,0,0,0,1.671-1.055l-.655.381.18-.068h-.789l.142.049-.887-.682c1.222,1.644,2.529,3.147,4.771,3.134,2.209-.013,3.5-1.515,4.7-3.134l-.887.682.143-.049h-.789l.18.068-.655-.381a3.3,3.3,0,0,0,1.671,1.055,2.329,2.329,0,0,0,1.969-.534,4.35,4.35,0,0,0,1.139-2.32c.113-.394.223-.789.338-1.183a.851.851,0,0,0,.04-.14q.213-.479-.224.018c-.167.02-.119.048.145.086a3.51,3.51,0,0,0,3.925.206c1.2-.806,1.5-2.035,2.062-3.27.45-.994,1.6-1.527,2.126-2.524.733-1.4.118-3.211-.11-4.7v.789c.39-1.738-.58-2.929-1.844-3.988-1.226-1.026-2.773-1.581-3.994-.177a12.885,12.885,0,0,0-1.29,1.838,2.578,2.578,0,0,1-.209.3.451.451,0,0,1,.545-.233q.474.115.033-.26a2.555,2.555,0,0,0-2.045-1.394,2.649,2.649,0,0,0-2.585,1.719c-.114.226-.571.833-.544,1.081.024.209-.036-.085.063.021a.591.591,0,0,1,.707.094q.139.315-.108-.262a2.465,2.465,0,0,0-3.454-1.192,2.866,2.866,0,0,0-1.074,1.233,2.447,2.447,0,0,0-.289.58c-.056.337-.385.171.281.092a1.53,1.53,0,0,0-1.484,1.484,1.493,1.493,0,0,0,1.484,1.484,2.811,2.811,0,0,0,2.352-1.7c.1-.191.314-.578.28-.635.058.1-.886-.016-.774-.115a3.047,3.047,0,0,0,.462.865,2.42,2.42,0,0,0,3.2.575,4.194,4.194,0,0,0,1.353-1.887,3.609,3.609,0,0,0,.315-.626c.039.051-.564.123-.545.106l-.155-.025.2.272a3.086,3.086,0,0,0,.75.873,2.447,2.447,0,0,0,3.587-.636c.338-.462.651-.946.975-1.417a2.981,2.981,0,0,0,.216-.314c.121-.237.014.058-.1.084-.775.169-.5-.041-.247.269a3.058,3.058,0,0,0,.348.3,5.374,5.374,0,0,1,.669.663.928.928,0,0,1,.093.159c.107.244-.083-.5-.083.374a3.391,3.391,0,0,0,.067.483c.048.328.1.656.15.984l.3,1.974v-.789a3.9,3.9,0,0,1-1.195,1.4,5.61,5.61,0,0,0-1.378,2.262c-.144.405-.37,1.219-.836,1.355.021-.006-.523-.251-.707-.337a4.152,4.152,0,0,0-1.566-.459c-1.714-.1-2.439,1.2-2.848,2.629l-.413,1.444a1.64,1.64,0,0,0-.1.359c-.1-.106.622-.207.64-.223.213.118.2.074-.031-.13l-.147-.137a1.768,1.768,0,0,0-2.7.345,3.5,3.5,0,0,1-1.584,1.51c-1.964.637-2.23-1.932-3.744-2.305a1.793,1.793,0,0,0-1.474.334c-.092.066-.471.334-.473.448,0-.057,1.393-.442.73.068.05-.039.019.189-.013-.148a4.493,4.493,0,0,0-.212-.739c-.321-1.125-.535-2.543-1.662-3.153a3.353,3.353,0,0,0-3.113.218c-.266.129-.567.288-.657.252-.278-.11-.489-.637-.6-.89a8.067,8.067,0,0,0-1.314-2.477c-.5-.538-1.164-.905-1.42-1.625v.789a17.306,17.306,0,0,0,.491-3.638c-.021-.29-.208-.007.016-.3a4.233,4.233,0,0,1,.476-.5,10.437,10.437,0,0,0,.813-.7c.018.071-.609-.16-.589-.159-.181-.013-.066-.16-.037-.021.044.213.353.513.476.692.208.3.411.606.623.905a2.588,2.588,0,0,0,2.6,1.308,2.624,2.624,0,0,0,1.661-1.109c.063-.084.282-.3.3-.4.05-.338.079.008-.209-.085-.381-.124-.332-.235-.307.031a4.874,4.874,0,0,0,.827,1.6,2.456,2.456,0,0,0,3.234.819,2.559,2.559,0,0,0,.839-.793,3.59,3.59,0,0,0,.346-.715c.123.109-.892.2-.825.089-.024.038.156.312.18.359a3.038,3.038,0,0,0,2.5,2,1.493,1.493,0,0,0,1.484-1.484,1.52,1.52,0,0,0-1.484-1.484Z" transform="translate(-16589.432 -20869.385)" fill="#333"/>
          <path id="パス_91385" data-name="パス 91385" d="M49.463,131.756a34.1,34.1,0,0,0,6.959-3.133,7.671,7.671,0,0,0,3.288-4.352,22.127,22.127,0,0,0,.216-5.353,1.485,1.485,0,0,0-2.969,0v2.252a10.158,10.158,0,0,1-.088,2.214,4.8,4.8,0,0,1-2.405,2.978,34.657,34.657,0,0,1-5.79,2.532,1.53,1.53,0,0,0-1.037,1.826,1.5,1.5,0,0,0,1.826,1.037h0Z" transform="translate(-16586.268 -20871.494)" fill="#333"/>
          <path id="パス_91386" data-name="パス 91386" d="M109.055,128.673a31.775,31.775,0,0,1-6.138-2.755,4.384,4.384,0,0,1-2.125-3.064,22.23,22.23,0,0,1-.036-2.622v-2.2a1.485,1.485,0,0,0-2.969,0,35.367,35.367,0,0,0,.125,5.539,7.254,7.254,0,0,0,3.021,4.564c2.176,1.613,4.839,2.405,7.331,3.4a1.494,1.494,0,0,0,1.826-1.037,1.519,1.519,0,0,0-1.037-1.826h0Z" transform="translate(-16599.203 -20871.268)" fill="#333"/>
          <path id="パス_91387" data-name="パス 91387" d="M2.921,162.163c3.1-11.531,13.226-19.859,23.812-24.432a52.063,52.063,0,0,1,9.663-3.066l-1.444-.381a35.946,35.946,0,0,0,18.756,10.032,34.906,34.906,0,0,0,21.747-2.924,40.126,40.126,0,0,0,9.867-7.1l-1.444.381c11.426,2.468,22.9,8.866,29.458,18.774a29.72,29.72,0,0,1,3.983,8.715,1.485,1.485,0,0,0,2.862-.789c-2.527-9.409-9.461-16.952-17.508-22.124a55.282,55.282,0,0,0-13.6-6.289q-1.72-.529-3.473-.94a2.815,2.815,0,0,0-2.081-.059,10.981,10.981,0,0,0-1.552,1.4,36.822,36.822,0,0,1-5.8,4.27A31.931,31.931,0,0,1,47.116,139.2a33.32,33.32,0,0,1-9.15-6.132,5.509,5.509,0,0,0-1.393-1.189,3.661,3.661,0,0,0-2.166.2,55.212,55.212,0,0,0-13.837,5.385C12.174,142.1,4.694,149.1,1.118,158.152a29.631,29.631,0,0,0-1.06,3.222,1.485,1.485,0,0,0,2.862.789h0Z" transform="translate(-16574 -20875.176)" fill="#333"/>
        </g>
      </g>
      <g id="楕円形_175" data-name="楕円形 175" transform="translate(-15647 -21148)" fill="none" stroke="#333" stroke-width="3">
        <ellipse cx="62.694" cy="62.694" rx="62.694" ry="62.694" stroke="none"/>
        <ellipse cx="62.694" cy="62.694" rx="61.194" ry="61.194" fill="none"/>
      </g>
    </g>
  </g>
</svg>
