<svg xmlns="http://www.w3.org/2000/svg" xmlns:xlink="http://www.w3.org/1999/xlink" width="458.193" height="125.389" viewBox="0 0 458.193 125.389">
  <defs>
    <clipPath id="clip-path">
      <ellipse id="楕円形_116" data-name="楕円形 116" cx="62.694" cy="62.694" rx="62.694" ry="62.694" fill="none" stroke="#333" stroke-width="3"/>
    </clipPath>
  </defs>
  <g id="グループ_10048" data-name="グループ 10048" transform="translate(-283 -79.75)">
    <g id="グループ_10036" data-name="グループ 10036">
      <g id="グループ_9761" data-name="グループ 9761" transform="translate(283 79.75)">
        <ellipse id="楕円形_154" data-name="楕円形 154" cx="62.694" cy="62.694" rx="62.694" ry="62.694" transform="translate(0)" fill="#fff"/>
        <g id="マスクグループ_13" data-name="マスクグループ 13" transform="translate(0)" clip-path="url(#clip-path)">
          <g id="グループ_9732" data-name="グループ 9732" transform="translate(7.752 16.946)">
            <path id="パス_90355" data-name="パス 90355" d="M308.837,53.353a4.412,4.412,0,0,1,3.186-1.167,4.092,4.092,0,0,1,3.674,2.041c1.248,2.165,1.2,6.154.357,8.623a13.32,13.32,0,0,1-3.909,6.34,4.859,4.859,0,0,1-3.746,1.081l-.259-.043c-.444,1.294-1,2.445-1.185,3.013-.936,2.541-6.078,11.4-12.6,14.959.043,1.717-.021,2.113.115,3.986a8.239,8.239,0,0,0,.4,2.324,5.672,5.672,0,0,0,1.7,2.479,19.125,19.125,0,0,0,5.7,2.885s1.741.644,2.545.961c0,0-3.747,12.865-23.76,12.865s-22.737-12.948-22.737-12.948c.858-.337,2.286-.877,2.286-.877a19.134,19.134,0,0,0,5.7-2.885,5.674,5.674,0,0,0,1.7-2.479,8.237,8.237,0,0,0,.4-2.324c.125-1.714.082-2.191.107-3.575a28.024,28.024,0,0,1-8.29-6.958,33.118,33.118,0,0,1-6.16-11.424,4.8,4.8,0,0,1-3.957-1.039,13.32,13.32,0,0,1-3.909-6.34c-.838-2.468-.891-6.457.357-8.623a4.09,4.09,0,0,1,3.674-2.041,4.407,4.407,0,0,1,3.186,1.167S245.792,22.5,281.123,22.5s27.713,30.851,27.713,30.851Z" transform="translate(-226.621 -5.823)" fill="#fff"/>
            <path id="パス_90356" data-name="パス 90356" d="M331.045,85.567a3.546,3.546,0,0,0-3.779,3.41,3.485,3.485,0,0,0,3.779,3.475,3.447,3.447,0,0,0,3.779-3.475A3.543,3.543,0,0,0,331.045,85.567Z" transform="translate(-247.759 -22.143)" fill="#fff"/>
            <path id="パス_90357" data-name="パス 90357" d="M300.494,136.04c1.587-5.694,3.044-11.434,4.333-17.1-.05-.069-.1-.135-.156-.2-1.175-1.361-2.655-3.329-3.856-4.673-.51.413-10.913,8.615-11.7,9.175h-1.832c-.789-.559-11.192-8.761-11.7-9.175-1.2,1.343-2.681,3.312-3.856,4.673-.053.062-.105.127-.156.2,2.416,10.624,5.427,21.508,8.767,31.855h15.727c1.559-4.828,3.046-9.774,4.434-14.755Z" transform="translate(-233.345 -29.519)" fill="#fff"/>
            <path id="パス_90367" data-name="パス 90367" d="M304.611,152.354c3.342-10.351,6.354-21.238,8.769-31.865a.5.5,0,0,1,.758-.309,63.146,63.146,0,0,1,5.532,3.96c13.765,4.006,26.994,14.464,30.444,28.211" transform="translate(-241.896 -31.08)" fill="#fff"/>
            <path id="パス_90369" data-name="パス 90369" d="M267.506,152.354c-3.342-10.351-6.354-21.238-8.769-31.865a.5.5,0,0,0-.758-.309,63.141,63.141,0,0,0-5.532,3.96C238.681,128.146,225.452,138.6,222,152.35" transform="translate(-220.518 -31.08)" fill="#fff"/>
            <path id="パス_90375" data-name="パス 90375" d="M245.916,29.459A23.28,23.28,0,0,0,247.934,42.1l2,4.8c.11-.012.223-.019.34-.023a4.407,4.407,0,0,1,3.186,1.167L255.2,43.8a17.474,17.474,0,0,0,9.932-6.224q.461-.554.884-1.133l9.234,4.946a10.62,10.62,0,0,0,7.148-4.155,32.851,32.851,0,0,0,4.017-7.25,40.129,40.129,0,0,0,2.783-8.325l5.605,4.2c.493,4.352.933,7.784,2.41,11.441a23.494,23.494,0,0,0,5.779,8.472,20.36,20.36,0,0,0,4.6,3.218l.2.1,1.089-1.047a4.412,4.412,0,0,1,3.186-1.167,4.819,4.819,0,0,1,2.138.532c.748-2.7,1.474-5.31,1.474-5.31,1.095-7.314,1.112-15.122-2.2-21.915A22.92,22.92,0,0,0,298.394,8L291.8,6.27l-.627-.457a20.773,20.773,0,0,0-9.614-3.525C269.011.673,256.858,5.94,250.3,16.575a30.935,30.935,0,0,0-4.383,12.885Z" transform="translate(-226.669 -0.518)" fill="#fce5db"/>
            <path id="パス_90376" data-name="パス 90376" d="M277.434,113.659c.02-.464.016-.929.022-1.393a1.523,1.523,0,0,0-1.483-1.483l-.394.053a1.482,1.482,0,0,0-.655.381l-.232.3a1.473,1.473,0,0,0-.2.748c-.007.465,0,.929-.022,1.393a1.523,1.523,0,0,0,1.483,1.483l.394-.053a1.482,1.482,0,0,0,.654-.381l.232-.3a1.473,1.473,0,0,0,.2-.748Z" transform="translate(-234.095 -28.668)" fill="#333"/>
            <path id="パス_90377" data-name="パス 90377" d="M309.4,112.266c.007.43,0,.86.015,1.29a1.523,1.523,0,0,0,1.483,1.483l.394-.053a1.482,1.482,0,0,0,.654-.381l.232-.3a1.473,1.473,0,0,0,.2-.748c-.013-.43-.008-.86-.015-1.29a1.523,1.523,0,0,0-1.483-1.483l-.394.053a1.482,1.482,0,0,0-.654.381l-.232.3a1.473,1.473,0,0,0-.2.748Z" transform="translate(-243.135 -28.669)" fill="#333"/>
            <path id="パス_90442" data-name="パス 90442" d="M286.249,94.454a11.391,11.391,0,0,0,5.485,1.271,8.938,8.938,0,0,0,5.548-1.642,1.485,1.485,0,0,0,0-2.1,1.529,1.529,0,0,0-2.1,0c.453-.353.116-.093,0-.019s-.222.135-.337.195c-.059.031-.121.059-.181.09-.168.086-.136-.03.073-.025a1.977,1.977,0,0,0-.465.169,8.307,8.307,0,0,1-1.3.3c.224-.034,0,0-.106.008-.128.013-.256.023-.383.032-.308.02-.617.027-.925.026q-.415,0-.828-.03c-.127-.009-.253-.019-.379-.031-.029,0-.487-.075-.165-.018a11.02,11.02,0,0,1-1.216-.27c-.17-.051-.336-.112-.5-.17-.374-.127.234.119-.1-.04-.208-.1-.414-.2-.617-.308a1.483,1.483,0,0,0-1.5,2.56h0Z" transform="translate(-236.959 -23.697)" fill="#333"/>
            <path id="パス_90667" data-name="パス 90667" d="M.716,2.883A11.391,11.391,0,0,0,6.2,4.154a8.938,8.938,0,0,0,5.548-1.642,1.485,1.485,0,0,0,0-2.1,1.529,1.529,0,0,0-2.1,0c.453-.353.116-.093,0-.019s-.222.135-.337.195c-.059.031-.121.059-.181.09C8.966.769,9,.653,9.206.657a1.976,1.976,0,0,0-.465.169,8.307,8.307,0,0,1-1.3.3c.224-.034,0,0-.106.008-.127.013-.256.023-.383.032-.308.02-.617.027-.925.026q-.415,0-.828-.03c-.127-.009-.253-.019-.379-.031-.029,0-.487-.075-.165-.018A11.018,11.018,0,0,1,3.438.841C3.268.79,3.1.729,2.934.671c-.374-.127.234.119-.1-.04Q2.519.484,2.214.323A1.508,1.508,0,0,0,.186.855,1.5,1.5,0,0,0,.718,2.883h0Z" transform="translate(73.399 53.382) rotate(172)" fill="#333"/>
            <path id="パス_90443" data-name="パス 90443" d="M292.511,77.425a25.574,25.574,0,0,1,.6,2.754l-.053-.394a1.673,1.673,0,0,1,.01.38l.053-.394a.98.98,0,0,1-.042.171l.15-.354a.71.71,0,0,1-.06.11l.232-.3a.6.6,0,0,1-.09.089l.3-.232a1.855,1.855,0,0,1-.218.116l.354-.15a1.6,1.6,0,0,1-.368.107l.394-.053a1.494,1.494,0,0,1-.345,0l.394.053c-.13-.018-.258-.05-.388-.067a1.131,1.131,0,0,0-.591-.027,1.106,1.106,0,0,0-.551.176,1.482,1.482,0,0,0-.531,2.028,1.418,1.418,0,0,0,.886.681c.3.041.6.118.9.131a2.9,2.9,0,0,0,1.339-.319,1.946,1.946,0,0,0,1.075-1.283,3.183,3.183,0,0,0-.013-1.374c-.15-.887-.355-1.767-.583-2.637a1.483,1.483,0,0,0-1.823-1.035,1.511,1.511,0,0,0-1.036,1.823h0Z" transform="translate(-238.52 -19.55)" fill="#333"/>
            <path id="パス_90444" data-name="パス 90444" d="M273.222,66.748c-.46,1.5-.16,4.934,2.671,5.226,3.743-.022,3.942-4.18,2.682-6.134-1.032-1.6-4.065-2.266-5.354.909Z" transform="translate(-233.727 -16.692)" fill="#333"/>
            <path id="パス_90446" data-name="パス 90446" d="M306.865,108.445c4.123-.955,7.577-3.909,10.306-7.016a39.965,39.965,0,0,0,6-8.86,1.522,1.522,0,0,0-.532-2.028,1.5,1.5,0,0,0-2.028.532,37.115,37.115,0,0,1-5.4,8.1c-2.432,2.8-5.422,5.551-9.135,6.412-1.858.431-1.072,3.29.788,2.859h0Z" transform="translate(-242.001 -23.381)" fill="#333"/>
            <path id="パス_90447" data-name="パス 90447" d="M328.63,83.246l-.018.147.053-.394a10.164,10.164,0,0,1-.323,1.462,1.131,1.131,0,0,0-.027.591,1.106,1.106,0,0,0,.176.551,1.659,1.659,0,0,0,.886.681l.394.053a1.473,1.473,0,0,0,.748-.2,1.564,1.564,0,0,0,.681-.886,12.023,12.023,0,0,0,.394-2,1.524,1.524,0,0,0-1.483-1.483l-.394.053a1.482,1.482,0,0,0-.654.381l-.232.3a1.473,1.473,0,0,0-.2.748h0Z" transform="translate(-248.023 -21.158)" fill="#333"/>
            <path id="パス_90448" data-name="パス 90448" d="M254.191,83.5a35.1,35.1,0,0,0,7.612,15c3.718,4.294,8.624,7.913,14.337,8.773a1.53,1.53,0,0,0,1.823-1.035,1.492,1.492,0,0,0-1.035-1.823c-5.271-.793-9.613-4.065-13.029-8.01a31.959,31.959,0,0,1-6.849-13.688c-.433-1.857-3.293-1.071-2.859.788h0Z" transform="translate(-228.837 -21.131)" fill="#333"/>
            <path id="パス_90449" data-name="パス 90449" d="M253.934,62.154a6.274,6.274,0,0,0-6.789-1.024A5.964,5.964,0,0,0,244,65.174a15.7,15.7,0,0,0,2.3,12.394c1.57,2.336,4.023,4.424,7.025,4.034A1.531,1.531,0,0,0,254.8,80.12a1.491,1.491,0,0,0-1.482-1.482c-4.117.534-6.441-5.437-6.725-8.746-.148-1.731-.153-3.911.912-5.388-.145.2.148-.165.156-.173.07-.067.18-.186.245-.237a2.737,2.737,0,0,1,1.062-.481,3.163,3.163,0,0,1,2.864.637c1.419,1.267,3.524-.823,2.1-2.1h0Z" transform="translate(-226.095 -15.672)" fill="#333"/>
            <path id="パス_90450" data-name="パス 90450" d="M331.436,64.247a3.163,3.163,0,0,1,4.259.174c.051.056.1.113.147.172-.076-.1-.087-.1-.03-.024.074.112.143.225.208.343a4.5,4.5,0,0,1,.372.958,10.074,10.074,0,0,1,.339,2.785,13.338,13.338,0,0,1-1.025,4.954,9.336,9.336,0,0,1-3.324,4.544c-1.614,1.01-.128,3.576,1.5,2.56a12.621,12.621,0,0,0,4.688-6.316,15.39,15.39,0,0,0,1.077-7.013c-.2-2.206-.832-4.45-2.709-5.8a6.228,6.228,0,0,0-7.594.567c-1.428,1.272.675,3.363,2.1,2.1h0Z" transform="translate(-248.172 -15.669)" fill="#333"/>
            <path id="パス_90451" data-name="パス 90451" d="M330.522,83.567a5.251,5.251,0,0,0-5.017,3.4,4.88,4.88,0,0,0,1.837,5.509,5.914,5.914,0,0,0,5.939.281,4.883,4.883,0,0,0,2.41-5.212,5.143,5.143,0,0,0-5.167-3.981,1.482,1.482,0,0,0,0,2.965c.113,0,.227.01.34.013.282.007-.028-.019-.066-.016a1.815,1.815,0,0,1,.52.111c.1.028.2.063.294.095.281.09-.077-.033-.074-.034.069-.033.445.241.514.287l.079.055q.155.113,0,0l-.076-.057c.048.041.1.082.142.125.029.027.3.344.319.341-.086.013-.182-.282-.04-.039.039.066.083.129.121.2s.064.144.106.2c.048.1.029.054-.057-.143q.033.086.062.173c.027.083.062.414.113.449-.021-.015-.028-.383-.016-.115,0,.095.012.189.013.285,0,.066,0,.133,0,.2l-.006.1c-.016.165-.009.13.021-.107-.075.1-.073.374-.112.5-.013.042-.085.179-.073.216-.042-.127.148-.288.024-.067-.072.13-.145.256-.222.382-.125.206-.1-.014.047-.054a.974.974,0,0,0-.116.132c-.06.064-.123.127-.189.186-.033.03-.067.059-.1.087-.086.07-.044.039.124-.095-.076,0-.3.2-.386.241a1.594,1.594,0,0,0-.252.122c.006-.03.347-.12.087-.044-.159.047-.314.1-.475.136a.915.915,0,0,1-.3.056l.185-.026c-.071.007-.143.013-.214.018a5.029,5.029,0,0,1-.549.006c-.071,0-.142-.011-.214-.014-.361-.014.328.07-.019,0-.164-.034-.328-.069-.488-.118-.062-.019-.123-.043-.186-.062q-.226-.087.086.042-.087-.039-.171-.082c-.139-.071-.268-.156-.4-.238-.17-.105.067-.033.08.067-.005-.035-.174-.153-.2-.181-.065-.062-.308-.381-.185-.186.136.217-.022-.039-.042-.07-.05-.076-.1-.154-.139-.233l-.042-.081q-.1-.215.037.1a1.115,1.115,0,0,0-.064-.174c-.05-.151-.082-.3-.119-.459-.079-.328.01.348,0,.005,0-.067-.009-.134-.01-.2,0-.1,0-.194,0-.291,0-.047.007-.093.012-.14.012-.116.005-.062-.021.163a2.524,2.524,0,0,0,.142-.535c.076-.249-.019.091-.045.1.041-.013.145-.279.172-.325s.068-.1.1-.155c.145-.24-.229.229.024-.029a4.983,4.983,0,0,1,.37-.361c0,.005-.285.2.006,0,.081-.054.164-.105.249-.153a2.289,2.289,0,0,0,.22-.113c.1-.047.059-.03-.124.049.063-.025.127-.049.191-.07a5.284,5.284,0,0,1,.612-.156c.162-.035.083-.081-.069.009a1.258,1.258,0,0,1,.452-.022,1.482,1.482,0,0,0,0-2.965Z" transform="translate(-247.236 -21.626)" fill="#333"/>
            <path id="パス_90452" data-name="パス 90452" d="M315.867,11A22.138,22.138,0,0,1,327.6,18.532c3.351,4.231,4.826,9.645,5.082,14.965a50.478,50.478,0,0,1-.558,9.788,1.532,1.532,0,0,0,1.035,1.823,1.493,1.493,0,0,0,1.823-1.035c.917-6.22,1.158-12.676-.669-18.765a25.1,25.1,0,0,0-9.472-13.4,25.627,25.627,0,0,0-8.184-3.765A1.484,1.484,0,0,0,315.867,11Z" transform="translate(-244.537 -2.093)" fill="#333"/>
            <path id="パス_90453" data-name="パス 90453" d="M291.414,4.014C287.044.9,281.439-.064,276.166,0A34.508,34.508,0,0,0,262.3,3.094a32.015,32.015,0,0,0-17.774,22.044,26.34,26.34,0,0,0,1.614,17.2c.828,1.718,3.385.216,2.56-1.5-4.071-8.451-1.526-19.1,3.924-26.323A29.771,29.771,0,0,1,274.375,3.037c5.338-.35,11.092.361,15.542,3.537a1.494,1.494,0,0,0,2.028-.532,1.514,1.514,0,0,0-.532-2.028h0Z" transform="translate(-226.158 0)" fill="#333"/>
            <path id="パス_90454" data-name="パス 90454" d="M297.541,27.616a47.782,47.782,0,0,1-4.415,11.727c-1.648,3.168-4.26,6.552-8.1,6.915a1.523,1.523,0,0,0-1.482,1.482,1.493,1.493,0,0,0,1.482,1.482c4.593-.434,8.024-3.67,10.209-7.543A48.685,48.685,0,0,0,300.4,28.4c.41-1.86-2.448-2.654-2.859-.788h0Z" transform="translate(-236.443 -6.871)" fill="#333"/>
            <path id="パス_90455" data-name="パス 90455" d="M272.571,32.475c-2.308,7.486-6.534,15.863-14.987,17.512-1.871.365-1.079,3.223.788,2.859C267.86,51,272.828,41.7,275.43,33.263c.563-1.827-2.3-2.609-2.859-.788h0Z" transform="translate(-229.45 -8.136)" fill="#333"/>
            <path id="パス_90456" data-name="パス 90456" d="M309.917,33.674c.555,4.884,1.245,9.691,3.493,14.127a23.534,23.534,0,0,0,10.034,10.284c1.693.875,3.194-1.683,1.5-2.56a20.871,20.871,0,0,1-8.97-9.22c-2-3.927-2.6-8.3-3.089-12.63a1.527,1.527,0,0,0-1.482-1.482,1.492,1.492,0,0,0-1.482,1.482Z" transform="translate(-243.267 -8.331)" fill="#333"/>
            <path id="パス_90457" data-name="パス 90457" d="M222.911,153.639c2.731-10.661,11.237-18.838,20.79-23.741a49.244,49.244,0,0,1,8.609-3.427c1.826-.537,1.049-3.4-.788-2.859-11.085,3.259-21.643,10.258-27.687,20.27a33.523,33.523,0,0,0-3.782,8.969c-.474,1.849,2.385,2.638,2.859.788h0Z" transform="translate(-220 -31.971)" fill="#333"/>
            <path id="パス_90458" data-name="パス 90458" d="M324.055,126.471c10.349,3.043,20.264,9.553,25.911,18.908a30.618,30.618,0,0,1,3.48,8.26c.472,1.847,3.332,1.064,2.859-.788-2.907-11.369-11.935-20.276-22.145-25.513a53.476,53.476,0,0,0-9.317-3.725c-1.835-.54-2.618,2.321-.788,2.859h0Z" transform="translate(-246.658 -31.971)" fill="#333"/>
            <path id="パス_90459" data-name="パス 90459" d="M321.056,152.586c2.155-3.924,4.275-7.867,6.331-11.842a10.287,10.287,0,0,0,1.245-2.762,3.091,3.091,0,0,0-1.012-2.658c-1.446-1.594-3.037-3.066-4.6-4.54l-.3,2.328q1.632-.933,3.263-1.868c.931-.533,2.159-1.037,2.2-2.288a4.474,4.474,0,0,0-1.173-2.606,19.011,19.011,0,0,0-2.291-2.512,47.152,47.152,0,0,0-5.548-4.3c-.758-.516-1.709-1.4-2.672-1.429a1.992,1.992,0,0,0-2.059,1.872,1.483,1.483,0,0,0,2.965,0v-.007l-.2.748-.015-.01-.654.381q-.6-.1-.25.079l.242.159q.315.207.627.415.667.446,1.325.906c.924.647,1.832,1.316,2.7,2.031a27.167,27.167,0,0,1,2.39,2.181,12.59,12.59,0,0,1,.989,1.133,6.375,6.375,0,0,1,.657.961l.2-.748q.376-.322-.157.031l-.622.356-1.087.623-2.33,1.334a1.5,1.5,0,0,0-.3,2.328c1.322,1.244,2.639,2.494,3.9,3.8.2.211.876.708.932.988-.058-.291-.308.377-.37.5q-.678,1.322-1.367,2.639-2.7,5.174-5.522,10.287c-.919,1.674,1.64,3.171,2.56,1.5h0Z" transform="translate(-244.439 -30.564)" fill="#333"/>
            <path id="パス_90460" data-name="パス 90460" d="M309.828,128.754q-3.155,12.7-7.175,25.172c-.588,1.82,2.274,2.6,2.859.788q4.021-12.457,7.175-25.172c.46-1.852-2.4-2.642-2.859-.788Z" transform="translate(-241.369 -33.046)" fill="#333"/>
            <path id="パス_90461" data-name="パス 90461" d="M264.536,151.1q-2.8-5.119-5.515-10.287-.648-1.24-1.287-2.485c-.069-.133-.405-.915-.445-.654.032-.21.627-.677.8-.861,1.3-1.351,2.659-2.641,4.026-3.922a1.5,1.5,0,0,0-.3-2.328l-2.335-1.334-1.09-.623-.623-.356q-.534-.355-.157-.031l.2.748c-.007.228.164-.219.206-.288.116-.192.24-.38.373-.562a11.178,11.178,0,0,1,.865-1.025,25.89,25.89,0,0,1,2.526-2.337c.857-.706,1.749-1.367,2.656-2.006q.659-.466,1.33-.916.316-.212.632-.422l.305-.2q.488-.248-.208-.106l-.654-.381c-.019,0-.022.012-.01.025.853,1.707,3.412.207,2.56-1.5-1.185-2.37-3.616-.339-5,.623a46.243,46.243,0,0,0-5.09,3.988c-1.244,1.151-2.968,2.754-3.394,4.47-.34,1.369.643,2.066,1.674,2.657l3.736,2.135-.3-2.328c-1.532,1.436-3.057,2.883-4.494,4.416a3.331,3.331,0,0,0-1.152,2.585,8.49,8.49,0,0,0,1.277,2.959c2.055,3.975,4.175,7.918,6.323,11.842.917,1.674,3.478.179,2.56-1.5h0Z" transform="translate(-228.894 -30.574)" fill="#333"/>
            <path id="パス_90462" data-name="パス 90462" d="M281.8,153.923q-4.023-12.461-7.175-25.179c-.46-1.851-3.32-1.067-2.859.788q3.155,12.708,7.175,25.179c.584,1.809,3.447,1.035,2.859-.788Z" transform="translate(-233.383 -33.044)" fill="#333"/>
            <path id="パス_90463" data-name="パス 90463" d="M305.38,114.586c.88,1,1.7,2.039,2.535,3.073.667.827,1.646,1.667,1.812,2.773a1.533,1.533,0,0,1,.005.483c.029-.166.025-.042-.011.046a4.147,4.147,0,0,1-.3.516c-.342.568-.7,1.127-1.063,1.681-1.017,1.552-2.082,3.081-3.245,4.529a17.52,17.52,0,0,1-3.57,3.632l2.028.532c-2.556-3.416-4.97-6.982-7.8-10.186l-.3,2.328c2.117-1.519,4.131-3.2,6.179-4.813,1.943-1.528,3.9-3.042,5.823-4.593a1.492,1.492,0,0,0,0-2.1,1.517,1.517,0,0,0-2.1,0c-1.874,1.511-3.778,2.985-5.67,4.472q-1.908,1.5-3.82,3-.688.538-1.379,1.073c.325-.251-.179.136-.264.2s-.178.136-.269.2a1.511,1.511,0,0,0-.3,2.328c2.659,3.015,4.925,6.371,7.331,9.585a1.512,1.512,0,0,0,2.028.532,19.809,19.809,0,0,0,4.461-4.461q1.979-2.516,3.711-5.214c.938-1.456,1.775-2.717,1.377-4.559a8.685,8.685,0,0,0-2.183-3.6c-.97-1.19-1.909-2.406-2.927-3.557-1.266-1.433-3.357.671-2.1,2.1Z" transform="translate(-238.958 -28.987)" fill="#333"/>
            <path id="パス_90464" data-name="パス 90464" d="M273.746,112.487c-1.018,1.151-1.958,2.367-2.927,3.557a8.6,8.6,0,0,0-2.183,3.6c-.387,1.856.434,3.1,1.377,4.559q1.732,2.692,3.711,5.214a19.825,19.825,0,0,0,4.461,4.461,1.518,1.518,0,0,0,2.028-.532c2.406-3.215,4.673-6.571,7.331-9.585a1.511,1.511,0,0,0-.3-2.328c-.091-.065-.18-.133-.269-.2s-.586-.45-.264-.2q-.692-.535-1.379-1.073-1.913-1.494-3.82-3c-1.892-1.488-3.8-2.962-5.67-4.472a1.527,1.527,0,0,0-2.1,0,1.493,1.493,0,0,0,0,2.1c1.924,1.551,3.88,3.066,5.823,4.593,2.048,1.61,4.062,3.295,6.179,4.813l-.3-2.328c-2.826,3.2-5.238,6.77-7.8,10.186l2.028-.532a17.467,17.467,0,0,1-3.57-3.632c-1.163-1.447-2.228-2.976-3.245-4.529-.363-.554-.72-1.113-1.063-1.681-.317-.527-.38-.534-.308-1.044.156-1.1,1.153-1.955,1.812-2.773.834-1.034,1.655-2.078,2.535-3.073,1.259-1.425-.829-3.53-2.1-2.1Z" transform="translate(-232.561 -28.985)" fill="#333"/>
          </g>
        </g>
        <g id="楕円形_139" data-name="楕円形 139" transform="translate(0)" fill="none" stroke="#333" stroke-width="3">
          <ellipse cx="62.694" cy="62.694" rx="62.694" ry="62.694" stroke="none"/>
          <ellipse cx="62.694" cy="62.694" rx="61.194" ry="61.194" fill="none"/>
        </g>
      </g>
    </g>
    <g id="グループ_10047" data-name="グループ 10047">
      <g id="長方形_14888" data-name="長方形 14888" transform="translate(436.064 104.475)" fill="#faf4ed" stroke="#333" stroke-width="3">
        <rect width="305.129" height="76.596" rx="16" stroke="none"/>
        <rect x="1.5" y="1.5" width="302.129" height="73.596" rx="14.5" fill="none"/>
      </g>
      <g id="パス_89640" data-name="パス 89640" transform="translate(418.978 114.757) rotate(-48)" fill="#faf4ed">
        <path d="M 5.15919303894043 27.77737236022949 C 4.68103551864624 27.06608772277832 3.999104022979736 25.9526195526123 3.356540679931641 24.54969215393066 C 2.320250749588013 22.28714370727539 1.172400712966919 18.7740535736084 1.589050650596619 14.8865327835083 C 1.989639282226562 11.14888954162598 3.284431219100952 7.776779174804688 4.521687984466553 5.282002925872803 C 4.859999656677246 7.945252418518066 5.690400123596191 11.38922119140625 7.575400829315186 15.2085132598877 C 9.962424278259277 20.04498100280762 11.91848278045654 22.97539710998535 13.16369724273682 24.605224609375 L 5.15919303894043 27.77737236022949 Z" stroke="none"/>
        <path d="M 4.076029777526855 10.37456893920898 C 3.619525909423828 11.82748031616211 3.256765365600586 13.40183067321777 3.080511093139648 15.04637336730957 C 2.777880668640137 17.87006378173828 3.317790985107422 20.83141326904297 4.685260772705078 23.84817314147949 C 5.047526359558105 24.64736938476562 5.424236297607422 25.34734153747559 5.764370918273926 25.92404937744141 L 10.82185173034668 23.91979217529297 C 9.597894668579102 22.12079811096191 8.031248092651367 19.52136993408203 6.230300903320312 15.87238311767578 C 5.34886646270752 14.08646583557129 4.626079559326172 12.23765754699707 4.076029777526855 10.37456893920898 M 5.939860343933105 3.814697265625e-06 C 5.939860343933105 3.814697265625e-06 4.880210876464844 6.358453750610352 8.920490264892578 14.54464340209961 C 12.96076107025146 22.73083305358887 15.6625804901123 25.22842407226562 15.6625804901123 25.22842407226562 L 4.627730369567871 29.60148239135742 C 4.627730369567871 29.60148239135742 -0.7865390777587891 22.97608375549316 0.09759044647216797 14.72668266296387 C 0.9817304611206055 6.477283477783203 5.939860343933105 3.814697265625e-06 5.939860343933105 3.814697265625e-06 Z" stroke="none" fill="#333"/>
      </g>
      <rect id="長方形_14859" data-name="長方形 14859" width="131.801" height="8.032" transform="translate(592.199 134.74)" fill="#dcf7b1"/>
      <rect id="長方形_14968" data-name="長方形 14968" width="118.801" height="8.032" transform="translate(454.699 134.742)" fill="#dcf7b1"/>
      <rect id="長方形_14969" data-name="長方形 14969" width="40.801" height="8.032" transform="translate(514.1 160.742)" fill="#dcf7b1"/>
      <path id="パス_94215" data-name="パス 94215" d="M7.274,7.244,8.11,8.859a5.75,5.75,0,0,1,1.273-.1h8.132Q14.19,15.946,5.982,19.936l1.045,1.482a30.919,30.919,0,0,0,7.562-5.738,36.136,36.136,0,0,1,3.933,3.572,19.227,19.227,0,0,1,1.957,2.261l1.406-1.33a4.9,4.9,0,0,1-.722-.57L15.615,14.6a17.31,17.31,0,0,0,3.5-5.852q.228-.152.475-.3l-1.938-1.52-.3.418H9.079A9.027,9.027,0,0,1,7.274,7.244ZM33.038,5.7a.647.647,0,0,1,.019-.209l-1.824.114a6.8,6.8,0,0,1,.19.893l.285,2.812-5.244.456q-.266.019-.931.019l.171,1.653a4.515,4.515,0,0,1,.912-.19l5.244-.475.342,3.363-6.251.684q-.608.057-.76.057H25.02l.266,1.6a3.593,3.593,0,0,1,.855-.171l6.213-.7.551,5.263q.038.684.038,1.064l1.805-.152a3.56,3.56,0,0,1-.19-.912l-.551-5.453,6.042-.684.836-.038-.19-1.615a3.362,3.362,0,0,1-.817.209l-6.023.665-.342-3.306,5.054-.456q.285-.019.513-.019t.418.019l-.171-1.653a4.433,4.433,0,0,1-.893.19l-5.054.437Q33.038,5.895,33.038,5.7ZM48.732,7.757a2.276,2.276,0,0,1,.076-.589L47.117,6.9l.1.931q.019,2.964.019,3.021,0,7.068-3.724,9.025L44.8,21.342a5.949,5.949,0,0,0,.722-.646,12.294,12.294,0,0,0,3.211-8.8ZM58.4,12.07a9.374,9.374,0,0,1-4.959,7.543V7.586a5.273,5.273,0,0,1,.076-.969l-1.653-.266a3.681,3.681,0,0,1,.076.969v13.4l1.349.722a11.521,11.521,0,0,0,6.156-7.125,7.216,7.216,0,0,0,.209-.722ZM64.578,7Q63.8,6.9,63.533,6.864l.513,1.653q.931-.076,1.216-.076l11.305-.019a12.7,12.7,0,0,1-4.313,4.617l1.064,1.311a17.653,17.653,0,0,0,5.016-6.175q.133-.152.266-.285L77.023,6.636,76.7,7Zm7.106,3.686-1.748-.3a7.7,7.7,0,0,1,.076.931v.437q-.513,6.9-4.845,8.341L66.4,21.4q4.75-2.147,5.054-9.652A4.944,4.944,0,0,1,71.684,10.683Zm11.115.266a11.917,11.917,0,0,1,1.957,4.161l1.482-.342a13.021,13.021,0,0,0-2.09-4.313ZM88.746,14.1l1.463-.494A11.506,11.506,0,0,0,88.138,9.3l-1.425.551A11.367,11.367,0,0,1,88.746,14.1Zm-4.218,6.251,1.121,1.463q9.177-1.71,10.222-11.305l-1.52-.7Q93.553,19.309,84.528,20.354ZM114.263,6.693a1.3,1.3,0,0,1,.4-.95,1.33,1.33,0,0,1,1.862,0,1.3,1.3,0,0,1,.4.95,1.236,1.236,0,0,1-.4.931,1.33,1.33,0,0,1-1.862,0A1.236,1.236,0,0,1,114.263,6.693Zm1.33,2.166a2.092,2.092,0,0,0,1.539-.627,2.07,2.07,0,0,0,.627-1.52,2.111,2.111,0,0,0-.627-1.52,2.061,2.061,0,0,0-1.539-.646,2.141,2.141,0,0,0-2.166,2.147,2.07,2.07,0,0,0,.627,1.52A2.061,2.061,0,0,0,115.593,8.859Zm-10.526,12.2q8.873-3.61,9.614-11.837l-.969-.912h-11.8a4.844,4.844,0,0,1-.988-.1V9.866a6.019,6.019,0,0,1,.988-.076H113.1q-.665,5.016-5.8,8.4a14.55,14.55,0,0,1-5.149,2.052l1.2,1.558Q103.357,21.76,105.067,21.057Zm21.261-8.17a1.687,1.687,0,1,0,.494-1.178A1.608,1.608,0,0,0,126.328,12.887ZM147.038,5.7a.646.646,0,0,1,.019-.209l-1.824.114a6.8,6.8,0,0,1,.19.893l.285,2.812-5.244.456q-.266.019-.931.019l.171,1.653a4.515,4.515,0,0,1,.912-.19l5.244-.475.342,3.363-6.251.684q-.608.057-.76.057h-.171l.266,1.6a3.593,3.593,0,0,1,.855-.171l6.213-.7.551,5.263q.038.684.038,1.064l1.805-.152a3.56,3.56,0,0,1-.19-.912l-.551-5.453,6.042-.684.836-.038-.19-1.615a3.362,3.362,0,0,1-.817.209l-6.023.665-.342-3.306,5.054-.456q.285-.019.513-.019t.418.019l-.171-1.653a4.433,4.433,0,0,1-.893.19l-5.054.437Q147.038,5.895,147.038,5.7ZM168.66,17.181l3.781-5.035L171.4,11.139l-7.106,1.254-.8-3.021-1.406.4.779,2.907-3.876.665.418,1.463,3.8-.741,2.09,8.018,1.387-.418-2.052-7.885,5.434-1.007L167.1,16.744Zm11.3-2.926-.057.836,1.672.228a3.845,3.845,0,0,1-.1-.855V7.32a2.433,2.433,0,0,1,.1-.722l-1.672-.475a6.618,6.618,0,0,1,.057.893Zm1.71,5.738,1.311,1.539q7.03-2.584,7.03-7.961V7.016a1.8,1.8,0,0,1,.076-.494l-1.672-.494a3.61,3.61,0,0,1,.114,1.007v5.7Q188.534,18.644,181.675,19.993Zm15.9-13q-.779-.095-1.045-.133l.513,1.653q.931-.076,1.216-.076l11.305-.019a12.7,12.7,0,0,1-4.313,4.617l1.064,1.311a17.653,17.653,0,0,0,5.016-6.175q.133-.152.266-.285l-1.577-1.254L209.7,7Zm7.106,3.686-1.748-.3a7.7,7.7,0,0,1,.076.931v.437q-.513,6.9-4.845,8.341L199.4,21.4q4.75-2.147,5.054-9.652A4.944,4.944,0,0,1,204.684,10.683ZM216.578,7q-.779-.095-1.045-.133l.513,1.653q.931-.076,1.216-.076l11.305-.019a12.7,12.7,0,0,1-4.313,4.617l1.064,1.311a17.653,17.653,0,0,0,5.016-6.175q.133-.152.266-.285l-1.577-1.254L228.7,7Zm7.106,3.686-1.748-.3a7.7,7.7,0,0,1,.076.931v.437q-.513,6.9-4.845,8.341L218.4,21.4q4.75-2.147,5.054-9.652A4.944,4.944,0,0,1,223.684,10.683Zm11.115.266a11.917,11.917,0,0,1,1.957,4.161l1.482-.342a13.021,13.021,0,0,0-2.09-4.313Zm5.947,3.154,1.463-.494A11.506,11.506,0,0,0,240.138,9.3l-1.425.551A11.366,11.366,0,0,1,240.746,14.1Zm-4.218,6.251,1.121,1.463q9.177-1.71,10.222-11.305l-1.52-.7Q245.553,19.309,236.528,20.354ZM266.263,6.693a1.3,1.3,0,0,1,.4-.95,1.33,1.33,0,0,1,1.862,0,1.3,1.3,0,0,1,.4.95,1.236,1.236,0,0,1-.4.931,1.33,1.33,0,0,1-1.862,0A1.236,1.236,0,0,1,266.263,6.693Zm1.33,2.166a2.092,2.092,0,0,0,1.539-.627,2.07,2.07,0,0,0,.627-1.52,2.111,2.111,0,0,0-.627-1.52,2.061,2.061,0,0,0-1.539-.646,2.141,2.141,0,0,0-2.166,2.147,2.07,2.07,0,0,0,.627,1.52A2.061,2.061,0,0,0,267.593,8.859Zm-10.526,12.2q8.873-3.61,9.614-11.837l-.969-.912h-11.8a4.844,4.844,0,0,1-.988-.1V9.866a6.019,6.019,0,0,1,.988-.076H265.1q-.665,5.016-5.8,8.4a14.55,14.55,0,0,1-5.149,2.052l1.2,1.558Q255.357,21.76,257.067,21.057ZM60.17,41.243a22.637,22.637,0,0,0-4.351-7.22l-1.14.912A16.359,16.359,0,0,1,58.688,42ZM44.419,36.151l.513,1.729q2.394-.285,2.888-.4a21.665,21.665,0,0,1-3.8,8.626l1.444.76a21.176,21.176,0,0,0,3.743-9.5q1.824-.228,2.413-.228,1.273,0,1.273,1.786v.114q0,6.289-2.261,6.346a5.644,5.644,0,0,1-2.052-.627l.247,1.748a12.141,12.141,0,0,0,1.653.418h.665q2.413,0,3.116-6.118a13.919,13.919,0,0,0,.076-1.558q-.171-3.515-2.907-3.515l-1.881.228q.418-1.9.589-2.945.152-1.064.19-1.216l-1.881-.361q.019.133.019.874t-.418,3.8q-1.083.1-1.919.1Q45.274,36.208,44.419,36.151Zm11.5-4.769a9.021,9.021,0,0,1,1.672,4.256l1.349-.475A9.494,9.494,0,0,0,57.111,31Zm3.591-.76-1.216.323A8.493,8.493,0,0,1,59.98,35.22l1.33-.494A10.089,10.089,0,0,0,59.505,30.622ZM66.1,37.443h5.016V41.68H66.1Zm-1.615,7.011h1.71a6.829,6.829,0,0,1-.1-1.406h5a4.27,4.27,0,0,1-.076.836h1.615a4.376,4.376,0,0,1-.1-.931V36.018H64.654v6.935Q64.654,44.34,64.483,44.454ZM63.457,31.99a3.24,3.24,0,0,1-.931-.095v1.634a2.692,2.692,0,0,1,.931-.1h12.1v12.92q0,.513-.323.513a.625.625,0,0,1-.19-.038,12.883,12.883,0,0,1-3.477-.456l1.2,1.862h2.755a1.31,1.31,0,0,0,1.463-1.5v-13.3H78.6a3.058,3.058,0,0,1,.893.1V31.9a4.376,4.376,0,0,1-.931.095Zm29.07,12.065a16.847,16.847,0,0,0,5.358-2.261,2.049,2.049,0,0,1,.665-.342l-1.33-1.083q-.874,1.083-4.693,2.375V40.369a1.917,1.917,0,0,1,.1-.855H90.988a1.917,1.917,0,0,1,.1.855v6.479q0,1.368,1.615,1.368h4.6q.988,0,1.444-2.945L97.372,44q0,.114-.038,1.254-.057,1.52-.874,1.52H93.325q-.8,0-.8-.722Zm.1-12.806H90.988a2.692,2.692,0,0,1,.1.931v5.51q0,1.463,1.653,1.463H97.03q1.178,0,1.406-2.983L97.03,34.821v.817q0,2.166-.665,2.166h-3.1q-.741,0-.741-.874V35.581a19.73,19.73,0,0,0,4.465-1.615l1.6-.8-1.406-1.1a7.277,7.277,0,0,1-1.634,1.1,12.625,12.625,0,0,1-3.021,1.2V32.18A2.692,2.692,0,0,1,92.622,31.249Zm-5.035,15.5a6.336,6.336,0,0,1-2.166-.4l1.045,1.862H88.29q1.273,0,1.273-1.406V37.557H82.8v9.728a3.9,3.9,0,0,1-.1.931h1.615a4.209,4.209,0,0,1-.1-.931v-3h3.9v2.2Q88.119,46.734,87.587,46.753Zm3.23-10.146A12.8,12.8,0,0,0,88,32.484L86.789,33a8.594,8.594,0,0,1,1.6,2q-1.919.171-3.781.228a15.349,15.349,0,0,0,2.527-4.009l-1.6-.266a11.511,11.511,0,0,1-2.622,4.275h-.931a8.99,8.99,0,0,1-.912-.038l.57,1.6.836-.133q3.667-.171,4.959-.323,1.273-.152,1.6-.171a5.048,5.048,0,0,1,.437,1.273Zm-6.593,6.346V41.566h3.9v1.387Zm0-2.736V38.868h3.9v1.349Zm22.591,4.446q0-.893,2.185-.893a5.167,5.167,0,0,1,2.071.38q-.057.323-.1.513-.228,1.121-2.2,1.121Q106.815,45.784,106.815,44.663Zm5.681-.171,1.235.475a3.922,3.922,0,0,1,1.463,1.2l1.235-1.083a10.352,10.352,0,0,0-1.9-1.159,13.128,13.128,0,0,0-1.938-.779V39.058l.114-1.254-1.786-.3.19,1.5v3.781a7.019,7.019,0,0,0-2.337-.361q-3.42,0-3.42,2.3,0,2.508,3.42,2.508h.038Q111.964,47.228,112.5,44.492Zm3.344-5.966,1.026-1.178a15.619,15.619,0,0,0-1.672-1.52,9.443,9.443,0,0,0-2.3-1.425l-.817,1.064a14.385,14.385,0,0,1,2.09,1.235A6.128,6.128,0,0,1,115.84,38.526Zm-14.592,3.5,1.539.95a26.352,26.352,0,0,0,3.287-7.106q1.425-.038,4.408-.4l.095-1.406q-3.249.456-4.161.532l.817-3.059-1.71-.228-.209,1.33q-.114.741-.4,1.957-1.33.057-2.128.057h-1.2l.133,1.444q1.121-.038,2.755-.209A20.973,20.973,0,0,1,101.248,42.022Zm32.984-9.006a16.835,16.835,0,0,0-3.211-2.109l-1.026,1.083a25.562,25.562,0,0,1,3.154,2.2Zm-12.293,3.458-1.064,1.064a16.553,16.553,0,0,1,3.629,3.078l1.159-1.14A19.56,19.56,0,0,0,121.939,36.474Zm2.394,10.051,1.026,1.672,1.919.019h.038q1.387,0,1.387-1.71V39.324a17.768,17.768,0,0,0,6.479,8.17l1.368-1.539a17.238,17.238,0,0,1-5.111-4.275,32.472,32.472,0,0,0,4.484-4.484l-1.558-.855a17.793,17.793,0,0,1-3.724,4.18,16.651,16.651,0,0,1-1.938-3.667v-1.1h6.631a2.829,2.829,0,0,1,.817.1V34.213a3.772,3.772,0,0,1-.874.1H128.7v-2.28a3.211,3.211,0,0,1,.1-.874h-1.634a3.235,3.235,0,0,1,.1,1.045v2.109h-6.441a3.525,3.525,0,0,1-.988-.1v1.634a2.957,2.957,0,0,1,.988-.1h6.441V46.525a.218.218,0,0,1-.247.247A12.612,12.612,0,0,1,124.333,46.525Zm1.634-4.1-1.33-.988a12.541,12.541,0,0,1-4.9,4.275l1.159,1.368A19.861,19.861,0,0,0,125.967,42.421Zm20.273-11,.076.874a39.723,39.723,0,0,1-.323,4.617q-1.2,7.524-7.448,9.671l.874,1.672q5.738-2.451,7.638-9.576,1.691,7.049,7.619,9.576l.779-1.672A9.47,9.47,0,0,1,151.332,44a13.338,13.338,0,0,1-3.268-7.106,28.616,28.616,0,0,1-.285-4.6,3.267,3.267,0,0,1,.076-.874Zm27.93,9.823a22.637,22.637,0,0,0-4.351-7.22l-1.14.912A16.359,16.359,0,0,1,172.688,42Zm-15.751-5.092.513,1.729q2.394-.285,2.888-.4a21.665,21.665,0,0,1-3.8,8.626l1.444.76a21.176,21.176,0,0,0,3.743-9.5q1.824-.228,2.413-.228,1.273,0,1.273,1.786v.114q0,6.289-2.261,6.346a5.644,5.644,0,0,1-2.052-.627l.247,1.748a12.141,12.141,0,0,0,1.653.418h.665q2.413,0,3.116-6.118a13.918,13.918,0,0,0,.076-1.558q-.171-3.515-2.907-3.515l-1.881.228q.418-1.9.589-2.945.152-1.064.19-1.216l-1.881-.361q.019.133.019.874t-.418,3.8q-1.083.1-1.919.1Q159.274,36.208,158.419,36.151Zm11.495-4.769a9.021,9.021,0,0,1,1.672,4.256l1.349-.475A9.494,9.494,0,0,0,171.111,31Zm3.591-.76-1.216.323a8.493,8.493,0,0,1,1.691,4.275l1.33-.494A10.089,10.089,0,0,0,173.505,30.622Zm20.045,9.823L192.277,39.1h-4.465q.114-.133.855-1.178l-1.558-.684a2.889,2.889,0,0,1-.836,1.368,13.61,13.61,0,0,1-6.669,3.724l1.273,1.406a13.231,13.231,0,0,0,5.51-3.192h5.13a7.851,7.851,0,0,1-2.831,2.736,9.218,9.218,0,0,0-1.444-.893,11.328,11.328,0,0,1-1.33-.722l-1.482,1.007a6.4,6.4,0,0,1,2.888,1.539q-2.66,1.843-8.208,2.622l1.121,1.558Q189.864,46.582,193.55,40.445Zm-16-.247,1.159,1.52a25.89,25.89,0,0,0,5.32-2.641,19.433,19.433,0,0,0,5.643-5.358l-.874-1.368h-4.427l.646-1.026-1.767-.38q0,1.14-1.862,2.641a10.316,10.316,0,0,1-4.484,2.147l1.311,1.311q3.838-1.444,5.092-3.287H187.7a9.583,9.583,0,0,1-2.736,2.812,18,18,0,0,0-2.375-1.52l-1.387.931a7.455,7.455,0,0,1,2.565,1.577A17.64,17.64,0,0,1,177.552,40.2ZM207.1,36.417l.019-.76h2.964a13.249,13.249,0,0,1-1.482,6.4A12.839,12.839,0,0,1,207.1,36.417Zm-.988,2.641a16.3,16.3,0,0,0,1.634,4.427,8.6,8.6,0,0,1-4.408,3.1l1.121,1.634a9.034,9.034,0,0,1,.76-.532,12.316,12.316,0,0,0,3.363-2.907,17.528,17.528,0,0,0,2.7,2.869q.532.456.779.7l1.064-1.558a8.885,8.885,0,0,1-3.667-3.287,16.508,16.508,0,0,0,2.033-7.847h.722a3.006,3.006,0,0,1,.722.076v-1.6a3.279,3.279,0,0,1-.8.095h-4.826q.057-.57.076-1.463a4.059,4.059,0,0,1,.133-1.1L205.9,31.4a4.743,4.743,0,0,1,.057.741A12.455,12.455,0,0,1,204.8,38.07a3.5,3.5,0,0,1-.988,1.292l1.33,1.463ZM204.817,31.9l-1.6-.437a5.158,5.158,0,0,1-1.881,2.6l1.2.874A7.015,7.015,0,0,0,204.817,31.9Zm-7.524,2.926,1.406-.589a7.671,7.671,0,0,0-1.824-2.584l-1.33.684A8.728,8.728,0,0,1,197.293,34.821Zm4.161,1.71h2.2a4.03,4.03,0,0,1,1.083.1V35.011a7.037,7.037,0,0,1-1.387.095h-2.527V32.142a3.08,3.08,0,0,1,.1-.817h-1.615a3.361,3.361,0,0,1,.1.817v2.964h-3.021a3.712,3.712,0,0,1-.893-.095v1.6a8.591,8.591,0,0,1,1.368-.076h2.128a8.053,8.053,0,0,1-3.914,2.432l1.026,1.5a7.666,7.666,0,0,0,3.306-2.755v.912a3.684,3.684,0,0,1-.1.855h1.615a3.6,3.6,0,0,1-.1-.836v-.931a7.375,7.375,0,0,0,2.2,1.938q.4-.8.912-1.672A4.709,4.709,0,0,1,201.454,36.531Zm-3.268,7.847a6.373,6.373,0,0,1,1.672.589,10.127,10.127,0,0,1-4.731,1.615l1.14,1.634q3.819-1.216,4.883-2.508a5.01,5.01,0,0,1,1.425,1.216,3.659,3.659,0,0,1,.969-1.235,4.256,4.256,0,0,0-1.425-.95,6.858,6.858,0,0,0,1.254-2.47H204a2.63,2.63,0,0,1,.741.095V40.825a6.264,6.264,0,0,1-1.083.076h-3.249q.19-.589.38-1.1l-1.672-.076v.285a4.088,4.088,0,0,1-.209.893h-2.869a4.6,4.6,0,0,1-.893-.076v1.539a2.692,2.692,0,0,1,.931-.095h2.109a6.012,6.012,0,0,1-2.128,1.9l1.387.855Zm.874-.874a6.231,6.231,0,0,0,.836-1.235h2.071a4.99,4.99,0,0,1-1.121,1.862A7.265,7.265,0,0,0,199.06,43.5ZM224.178,32.94h-2.356l.38,4.978V41.6l-.133,1.6h1.862l-.133-1.6V37.918ZM221.822,47h2.356V44.853h-2.356Z" transform="translate(454.7 116.444)" fill="#333"/>
    </g>
  </g>
</svg>
