<svg xmlns="http://www.w3.org/2000/svg" xmlns:xlink="http://www.w3.org/1999/xlink" width="129" height="129" viewBox="0 0 129 129">
  <defs>
    <clipPath id="clip-path">
      <circle id="楕円形_121" data-name="楕円形 121" cx="64.5" cy="64.5" r="64.5" transform="translate(-0.473 -0.479)" fill="none" stroke="#333" stroke-width="3"/>
    </clipPath>
  </defs>
  <g id="グループ_9767" data-name="グループ 9767" transform="translate(0.473 0.479)">
    <circle id="楕円形_155" data-name="楕円形 155" cx="64.5" cy="64.5" r="64.5" transform="translate(-0.473 -0.479)" fill="#fff"/>
    <g id="マスクグループ_18" data-name="マスクグループ 18" transform="translate(0 0)" clip-path="url(#clip-path)">
      <g id="グループ_9739" data-name="グループ 9739" transform="translate(3.046 10.734)">
        <path id="パス_89653" data-name="パス 89653" d="M97.848,271.293a4.442,4.442,0,0,1,3.556-1.041,4.2,4.2,0,0,1,3.018,2.006,5.936,5.936,0,0,1,.621,2.387,17.781,17.781,0,0,1-1.813,9.426,11.3,11.3,0,0,1-2.922,3.839,7.492,7.492,0,0,1-3.485,1.57l-.6.094c-.286,1.069-.607,1.97-.765,2.449-.979,2.65-6.271,11.576-13.037,15.342a39.855,39.855,0,0,0,.577,5.1c.346,1.987.241,3.756,2.989,4.75.136.045,4.351,2.048,6.707,3.162,0,0-6.239,14.584-24.752,14.584s-24.039-15.149-24.039-15.149c2.582-1.182,5.533-2.559,5.638-2.6,2.755-.994,2.642-2.763,3-4.75a38.853,38.853,0,0,0,.6-5.44,27.358,27.358,0,0,1-7.019-6.125,30.235,30.235,0,0,1-5.763-11.25l-1.136-.175a7.492,7.492,0,0,1-3.485-1.57,11.3,11.3,0,0,1-2.922-3.839A17.788,17.788,0,0,1,31,274.646a5.925,5.925,0,0,1,.622-2.387,4.2,4.2,0,0,1,3.017-2.006,4.441,4.441,0,0,1,3.557,1.041s-2.371-28,29.413-28C100.064,243.291,97.848,271.293,97.848,271.293Z" transform="translate(-7.654 -219.19)" fill="#fff"/>
        <path id="パス_89654" data-name="パス 89654" d="M73.231,350.057c-1.044,1.268-2.082,2.623-3.069,3.944,2.264,1.685,5.02,1.93,7.463,1.93a14.124,14.124,0,0,0,7.447-1.585,67.7,67.7,0,0,0-6.186-7.465H76.092A41.623,41.623,0,0,0,73.231,350.057Z" transform="translate(-17.349 -244.799)" fill="#fff"/>
        <path id="パス_89655" data-name="パス 89655" d="M89.107,352.291a81.052,81.052,0,0,0-7.358-9.046c-.236.093,8.241-3.8,11.383-6a8.555,8.555,0,0,0,3.375-5.078,33.65,33.65,0,0,0,6.67,7.005,2.028,2.028,0,0,1,.588,2.157,2.95,2.95,0,0,1-.491.862,35.124,35.124,0,0,1-13.342,11.216Z" transform="translate(-20.213 -241.162)" fill="#fff"/>
        <path id="パス_89656" data-name="パス 89656" d="M63.413,352.381c-.272.368-.537.728-.795,1.076A35.113,35.113,0,0,1,49.276,342.24a2.936,2.936,0,0,1-.492-.862,2.829,2.829,0,0,1,.588-2.157c1.57-2.639,4.927-5.044,6.7-6.85a10.765,10.765,0,0,0,4.06,5.254c3.141,2.2,10.9,5.76,10.665,5.667a81.448,81.448,0,0,0-7.384,9.089Z" transform="translate(-12.058 -241.213)" fill="#fff"/>
        <path id="パス_89661" data-name="パス 89661" d="M44.957,250.906q.2-.393.411-.775a16.9,16.9,0,0,1,9.22-7.463l8.987-2c2.677-2.381,6.268-4.4,10.02-3.936,3.107.382,5.659,2.391,7.563,4.606a39.107,39.107,0,0,1,5.866,9.989,25.511,25.511,0,0,0,3.131,5.83,7.692,7.692,0,0,0,5.5,3.1l2.537,3.613a4.441,4.441,0,0,1,3.556-1.041,4.374,4.374,0,0,1,1.466.5c.3-1.17.492-1.935.492-1.935,2.635-10.354,1.284-22.746-5.535-30.97l-4.837-5.5a20.462,20.462,0,0,1-6.248-2.671c-2.718-1.668-5.684-3.7-8.346-5.461a21.365,21.365,0,0,0-28.961,5.156l-5.361,4.688c-4.126,1.784-7.812,6.189-9.508,9.953A25.5,25.5,0,0,0,32.4,246.867c-.37,5.115.141,11.655,2.659,15.951a4.422,4.422,0,0,1,3.482,1.046l4.14-1.106A23.186,23.186,0,0,1,44.957,250.906Z" transform="translate(-7.987 -211.764)" fill="#333"/>
        <path id="パス_89662" data-name="パス 89662" d="M2.041,375.165a53.722,53.722,0,0,1,4.071-10.038c1.859-3.26,3.75-6.533,6.58-8.754a41.461,41.461,0,0,1,9.417-6.048c3.11-1.271,10.1-4.377,15.073-6.566a1.255,1.255,0,0,0,.053.423,2.937,2.937,0,0,0,.492.862,35.116,35.116,0,0,0,13.342,11.216c.7-.948,1.461-1.983,2.252-3.041,2.263,1.685,5.019,1.93,7.463,1.93a14.127,14.127,0,0,0,7.447-1.586c.7.939,1.37,1.853,2,2.7A35.12,35.12,0,0,0,83.57,345.045a2.948,2.948,0,0,0,.491-.862,2.216,2.216,0,0,0,.084-.463c4.881,2.108,12.3,5.3,15.5,6.606a41.46,41.46,0,0,1,9.417,6.048c2.83,2.221,4.721,5.5,6.58,8.754a53.663,53.663,0,0,1,4.07,10.038Z" transform="translate(-0.509 -244.018)" fill="#0c5fe5"/>
        <path id="パス_89679" data-name="パス 89679" d="M58.158,329.478q-.075,1.016-.215,2.023l.054-.4c-.075.559-.164,1.117-.26,1.673a1.627,1.627,0,0,0,.151,1.16,1.506,1.506,0,0,0,2.06.54,1.468,1.468,0,0,0,.692-.9c.233-1.355.421-2.724.527-4.1a1.506,1.506,0,0,0-2.57-1.064,1.683,1.683,0,0,0-.441,1.064Z" transform="translate(-14.267 -240.125)" fill="#333"/>
        <path id="パス_89680" data-name="パス 89680" d="M97.461,329.848c.121,1.381.3,2.763.551,4.127a1.506,1.506,0,0,0,2.751.36,1.694,1.694,0,0,0,.151-1.16c-.11-.606-.2-1.216-.285-1.826l.053.4q-.127-.947-.212-1.9a1.617,1.617,0,0,0-.44-1.064,1.506,1.506,0,0,0-2.13,0,1.479,1.479,0,0,0-.441,1.064Z" transform="translate(-24.098 -240.216)" fill="#333"/>
        <path id="パス_89681" data-name="パス 89681" d="M109.837,344.524q4.517,1.95,9.045,3.885c2.6,1.11,5.284,2.1,7.813,3.363a40.878,40.878,0,0,1,8.246,5.571c2.678,2.3,4.487,5.508,6.154,8.573a56.536,56.536,0,0,1,3.634,9.161c.612,1.828,3.522,1.044,2.9-.8-2.114-6.31-4.639-12.807-9.235-17.778a31.276,31.276,0,0,0-4.233-3.557,40.66,40.66,0,0,0-4.078-2.76,73.086,73.086,0,0,0-8.281-3.771q-5.233-2.226-10.453-4.484a1.555,1.555,0,0,0-2.06.54,1.516,1.516,0,0,0,.54,2.06Z" transform="translate(-26.973 -243.528)" fill="#333"/>
        <path id="パス_89682" data-name="パス 89682" d="M2.99,375.09a62.659,62.659,0,0,1,3.177-8.281,35.248,35.248,0,0,1,5.284-8.165,33.639,33.639,0,0,1,7.829-5.918,76.645,76.645,0,0,1,7.818-3.591c3.451-1.5,6.892-3.027,10.334-4.547a1.515,1.515,0,0,0,.54-2.06,1.542,1.542,0,0,0-2.06-.54q-4.712,2.081-9.429,4.152c-2.74,1.2-5.587,2.248-8.205,3.695a37.8,37.8,0,0,0-4.266,2.785,40.14,40.14,0,0,0-4.041,3.237,34.817,34.817,0,0,0-6.037,8.732A61.839,61.839,0,0,0,.09,374.3c-.614,1.842,2.292,2.635,2.9.8Z" transform="translate(-0.005 -243.542)" fill="#333"/>
        <path id="パス_89683" data-name="パス 89683" d="M120.053,280.71a2.855,2.855,0,0,1,4.21.661,6.173,6.173,0,0,1,.477,2.794,15.65,15.65,0,0,1-.263,3.253c-.726,3.772-2.73,8.219-6.913,8.958a1.518,1.518,0,0,0-1.054,1.852,1.54,1.54,0,0,0,1.852,1.054c5.947-1.054,8.79-7.742,9.308-13.117.257-2.666.184-5.962-2.076-7.788a5.989,5.989,0,0,0-7.672.2c-1.488,1.245.652,3.365,2.129,2.13Z" transform="translate(-28.795 -227.545)" fill="#333"/>
        <path id="パス_89684" data-name="パス 89684" d="M110.484,299.774a14.933,14.933,0,0,1-.693,3.692c-.139.467-.291.929-.446,1.39-.045.134-.316.836-.151.458a26.95,26.95,0,0,1-1.929,3.552A35.4,35.4,0,0,1,99.388,318a15.029,15.029,0,0,1-5.842,2.967c-1.886.439-1.089,3.342.8,2.9,4.458-1.037,8.191-4.216,11.141-7.582a38.355,38.355,0,0,0,6.214-9.244,19.864,19.864,0,0,0,1.793-7.266c.075-1.938-2.94-1.935-3.011,0Z" transform="translate(-22.864 -232.795)" fill="#333"/>
        <path id="パス_89685" data-name="パス 89685" d="M38.759,278.584a5.987,5.987,0,0,0-7.672-.2c-2.258,1.826-2.334,5.123-2.076,7.788.518,5.376,3.365,12.063,9.307,13.117a1.549,1.549,0,0,0,1.853-1.054,1.518,1.518,0,0,0-1.054-1.852c-4.183-.742-6.186-5.189-6.913-8.958a15.532,15.532,0,0,1-.266-3.086,6.429,6.429,0,0,1,.48-2.961,2.855,2.855,0,0,1,4.21-.661c1.476,1.235,3.618-.884,2.129-2.13Z" transform="translate(-7.151 -227.546)" fill="#333"/>
        <path id="パス_89686" data-name="パス 89686" d="M40.234,299.117a34.066,34.066,0,0,0,7.316,16.426c4.042,4.752,9.393,8.26,15.686,8.924a1.515,1.515,0,0,0,1.506-1.506,1.539,1.539,0,0,0-1.506-1.506c-5.582-.59-10.266-4.088-13.765-8.289a31.313,31.313,0,0,1-6.333-14.852,1.517,1.517,0,0,0-1.852-1.054,1.539,1.539,0,0,0-1.054,1.852Z" transform="translate(-9.938 -232.52)" fill="#333"/>
        <path id="パス_89687" data-name="パス 89687" d="M43.142,229.231c-4.952,2.209-8.566,6.926-10.62,11.813A34.209,34.209,0,0,0,30.4,256.977a27.393,27.393,0,0,0,2.284,9.446,1.518,1.518,0,0,0,2.06.54,1.539,1.539,0,0,0,.54-2.06c-2.149-4.617-2.247-10.141-1.813-15.123a23.729,23.729,0,0,1,4.769-12.708,17.372,17.372,0,0,1,6.423-5.24,1.517,1.517,0,0,0,.54-2.06,1.542,1.542,0,0,0-2.06-.54Z" transform="translate(-7.483 -215.667)" fill="#333"/>
        <path id="パス_89688" data-name="パス 89688" d="M57.082,250.375a18.1,18.1,0,0,0-9.977,7.9,24.4,24.4,0,0,0-3.047,13.639c.1,1.928,3.114,1.939,3.011,0-.4-7.7,2.836-16.177,10.813-18.642,1.845-.57,1.058-3.478-.8-2.9Z" transform="translate(-10.881 -220.923)" fill="#333"/>
        <path id="パス_89689" data-name="パス 89689" d="M74.4,248.926c2.041-1.79,4.616-3.413,7.4-3.549a9.374,9.374,0,0,1,6.975,3.068,27.889,27.889,0,0,1,5.093,7.4c1.387,2.738,2.353,5.745,4.053,8.314a10.11,10.11,0,0,0,7.479,4.793,1.513,1.513,0,0,0,1.506-1.506,1.543,1.543,0,0,0-1.506-1.506c-2.83-.352-4.553-2.492-5.8-4.877-1.482-2.834-2.559-5.848-4.149-8.634-2.867-5.023-7.556-10.568-13.962-10.041a16.268,16.268,0,0,0-9.227,4.411c-1.46,1.28.678,3.4,2.13,2.129Z" transform="translate(-17.751 -218.959)" fill="#333"/>
        <path id="パス_89690" data-name="パス 89690" d="M56.314,222.209a19.9,19.9,0,0,1,26.507-4.867c3.179,1.994,6.191,4.256,9.446,6.132a18.56,18.56,0,0,0,11.391,2.7,1.551,1.551,0,0,0,1.506-1.506,1.515,1.515,0,0,0-1.506-1.506c-7.97.908-13.709-5.269-20.12-8.9a22.917,22.917,0,0,0-29.824,6.427,1.515,1.515,0,0,0,.541,2.06,1.542,1.542,0,0,0,2.06-.54Z" transform="translate(-13.233 -211.276)" fill="#333"/>
        <path id="パス_89691" data-name="パス 89691" d="M118.258,236.605c6.6,8.046,7.6,19.709,5.148,29.505-.471,1.882,2.431,2.682,2.9.8,2.742-10.933,1.391-23.512-5.922-32.434-1.229-1.5-3.348.641-2.13,2.129Z" transform="translate(-29.149 -216.885)" fill="#333"/>
        <path id="パス_89692" data-name="パス 89692" d="M68.472,245.612c-.006-.435.028-.86.059-1.293.018-.247-.062.351.011-.075.015-.09.03-.179.047-.269.041-.226.091-.445.151-.665.108-.422.262-.821.4-1.232.075-.233-.143.309.033-.081.037-.083.075-.166.114-.248q.147-.309.313-.607a10.608,10.608,0,0,1,.656-1.037c-.005.007.233-.311.128-.175s.117-.141.139-.167c.131-.157.267-.309.408-.458a11.919,11.919,0,0,1,.945-.883c.209-.178-.063.041.071-.058.092-.068.184-.134.277-.2.187-.129.376-.251.574-.368a1.506,1.506,0,1,0-1.52-2.6,12.115,12.115,0,0,0-5.815,10.415,1.506,1.506,0,1,0,3.011,0Z" transform="translate(-16.187 -217.139)" fill="#333"/>
        <path id="パス_89693" data-name="パス 89693" d="M89.927,351.028a79.141,79.141,0,0,0-7.593-9.351,1.5,1.5,0,0,0-1.464-.387h-.005l1.16,2.752c.724-.434,1.557-.739,2.316-1.106,1.638-.792,3.269-1.6,4.877-2.451a33.726,33.726,0,0,0,4.441-2.626,10.817,10.817,0,0,0,3.82-5.8l-2.517.665a43.2,43.2,0,0,0,4.828,5.5c.512.465,1.047.9,1.594,1.324.284.221.507.315.482.7-.027.421-.478.828-.726,1.156-.35.456-.715.9-1.087,1.341a32.745,32.745,0,0,1-11.36,8.863l2.06.54-.824-1.116a1.551,1.551,0,0,0-2.06-.54,1.518,1.518,0,0,0-.54,2.06l.824,1.116a1.567,1.567,0,0,0,2.06.54A35.316,35.316,0,0,0,103.137,343.7c.851-1.082,1.749-2.118,1.741-3.572-.008-1.483-.869-2.3-1.94-3.153A36.972,36.972,0,0,1,97.09,330.6c-.738-.946-2.215-.3-2.517.665a7.653,7.653,0,0,1-3.157,4.5c-1.39.9-2.867,1.686-4.338,2.452s-2.936,1.49-4.423,2.206c-.705.34-1.48.625-2.153,1.028-1.422.851-.5,3.312,1.16,2.751h.005l-1.465-.387a74,74,0,0,1,7.125,8.74,1.552,1.552,0,0,0,2.06.54A1.516,1.516,0,0,0,89.927,351.028Z" transform="translate(-19.732 -240.66)" fill="#333"/>
        <path id="パス_89694" data-name="パス 89694" d="M61.616,351.133q-.4.537-.795,1.076l2.06-.54a32.929,32.929,0,0,1-11.558-9.1c-.367-.439-.726-.885-1.069-1.344-.376-.505-.622-.688-.33-1.29a10.3,10.3,0,0,1,1.921-2.548c1.512-1.575,3.255-2.9,4.8-4.441l-2.517-.664a12.892,12.892,0,0,0,3.99,5.581,30.48,30.48,0,0,0,4.456,2.762c1.542.828,3.107,1.614,4.681,2.379.753.366,1.581.671,2.3,1.1l1.16-2.752h-.005a1.5,1.5,0,0,0-1.465.387,79.593,79.593,0,0,0-7.624,9.392,1.516,1.516,0,0,0,.541,2.06,1.54,1.54,0,0,0,2.06-.54,74.317,74.317,0,0,1,7.151-8.781l-1.465.387h.005c1.646.555,2.6-1.893,1.16-2.751-.616-.368-1.323-.629-1.968-.941-1.472-.711-2.936-1.441-4.384-2.2-3.177-1.677-6.291-3.352-7.686-6.877a1.527,1.527,0,0,0-2.517-.664c-1.747,1.745-3.75,3.217-5.386,5.078A10.233,10.233,0,0,0,46.9,339.39c-.527,1.677.37,2.874,1.348,4.134a35.512,35.512,0,0,0,13.111,10.744,1.567,1.567,0,0,0,2.06-.54l.795-1.076a1.516,1.516,0,0,0-.54-2.06,1.542,1.542,0,0,0-2.06.542Z" transform="translate(-11.56 -240.725)" fill="#333"/>
        <path id="パス_89695" data-name="パス 89695" d="M70.281,357.994a15.622,15.622,0,0,0,7.414,1.477A16.379,16.379,0,0,0,85.3,357.89c1.72-.894.2-3.493-1.52-2.6a13.128,13.128,0,0,1-6.087,1.169,12.452,12.452,0,0,1-5.894-1.065c-1.717-.893-3.242,1.705-1.52,2.6Z" transform="translate(-17.192 -246.833)" fill="#333"/>
        <path id="パス_89696" data-name="パス 89696" d="M72.731,311.42a11.942,11.942,0,0,0,5.748,1.331,9.354,9.354,0,0,0,5.8-1.713,1.515,1.515,0,0,0,0-2.13,1.544,1.544,0,0,0-2.129,0c.457-.356.1-.086-.013-.011s-.234.142-.355.206c-.063.033-.127.063-.19.095-.242.125.044-.053.063-.021,0,0-.452.166-.489.178a8.648,8.648,0,0,1-1.371.312c.226-.033-.033,0-.126.011-.134.013-.269.024-.4.033-.324.021-.65.029-.974.027-.291,0-.582-.011-.872-.032-.134-.009-.266-.02-.4-.033-.017,0-.5-.07-.189-.02a9.92,9.92,0,0,1-1.28-.284c-.179-.054-.354-.118-.527-.178-.384-.132.226.115-.122-.047-.219-.1-.436-.212-.65-.325a1.506,1.506,0,0,0-1.52,2.6Z" transform="translate(-17.801 -235.307)" fill="#333"/>
        <path id="パス_90665" data-name="パス 90665" d="M.742,2.937A11.941,11.941,0,0,0,6.49,4.268a9.354,9.354,0,0,0,5.8-1.713,1.515,1.515,0,0,0,0-2.13,1.544,1.544,0,0,0-2.129,0c.457-.356.1-.086-.013-.011S9.917.557,9.8.621c-.063.033-.127.063-.19.095C9.364.84,9.651.663,9.67.694c0,0-.452.166-.489.178a8.644,8.644,0,0,1-1.371.312c.226-.033-.033,0-.126.011-.134.013-.269.024-.4.033-.324.021-.65.029-.974.027-.291,0-.582-.011-.872-.032-.134-.009-.266-.02-.4-.033-.017,0-.5-.07-.189-.02A9.917,9.917,0,0,1,3.565.888C3.386.834,3.212.77,3.038.709c-.384-.132.226.115-.122-.047C2.7.558,2.481.45,2.266.337a1.506,1.506,0,0,0-1.52,2.6Z" transform="translate(55.255 58.283) rotate(180)" fill="#333"/>
        <path id="パス_90666" data-name="パス 90666" d="M.742,2.937A11.941,11.941,0,0,0,6.49,4.268a9.354,9.354,0,0,0,5.8-1.713,1.515,1.515,0,0,0,0-2.13,1.544,1.544,0,0,0-2.129,0c.457-.356.1-.086-.013-.011S9.917.557,9.8.621c-.063.033-.127.063-.19.095C9.364.84,9.651.663,9.67.694c0,0-.452.166-.489.178a8.644,8.644,0,0,1-1.371.312c.226-.033-.033,0-.126.011-.134.013-.269.024-.4.033-.324.021-.65.029-.974.027-.291,0-.582-.011-.872-.032-.134-.009-.266-.02-.4-.033-.017,0-.5-.07-.189-.02A9.917,9.917,0,0,1,3.565.888C3.386.834,3.212.77,3.038.709c-.384-.132.226.115-.122-.047C2.7.558,2.481.45,2.266.337a1.506,1.506,0,0,0-1.52,2.6Z" transform="translate(78.684 58.283) rotate(180)" fill="#333"/>
        <path id="パス_89697" data-name="パス 89697" d="M79.258,293.781a27.053,27.053,0,0,1,.634,2.9l-.053-.4a1.781,1.781,0,0,1,.011.4l.053-.4a.93.93,0,0,1-.044.181l.151-.36a.753.753,0,0,1-.064.116l.236-.3a.615.615,0,0,1-.095.093l.3-.236a1.9,1.9,0,0,1-.23.122l.359-.151a1.657,1.657,0,0,1-.387.113l.4-.053a1.54,1.54,0,0,1-.364,0l.4.053c-.137-.019-.271-.052-.408-.071a1.149,1.149,0,0,0-.6-.027,1.129,1.129,0,0,0-.56.179,1.506,1.506,0,0,0-.537,2.051,1.438,1.438,0,0,0,.9.692c.314.042.618.122.937.136a3,3,0,0,0,1.382-.329,2,2,0,0,0,1.107-1.318,3.3,3.3,0,0,0-.014-1.417c-.158-.935-.376-1.861-.614-2.778a1.506,1.506,0,1,0-2.9.8Z" transform="translate(-19.351 -231.2)" fill="#333"/>
      </g>
    </g>
    <g id="楕円形_145" data-name="楕円形 145" transform="translate(-0.473 -0.479)" fill="none" stroke="#333" stroke-width="3">
      <circle cx="64.5" cy="64.5" r="64.5" stroke="none"/>
      <circle cx="64.5" cy="64.5" r="63" fill="none"/>
    </g>
  </g>
</svg>
