<svg xmlns="http://www.w3.org/2000/svg" xmlns:xlink="http://www.w3.org/1999/xlink" width="529.688" height="125.389" viewBox="0 0 529.688 125.389">
  <defs>
    <clipPath id="clip-path">
      <ellipse id="楕円形_185" data-name="楕円形 185" cx="62.694" cy="62.694" rx="62.694" ry="62.694" transform="translate(-14792.194 -21277.828)" fill="#fff"/>
    </clipPath>
  </defs>
  <g id="グループ_10025" data-name="グループ 10025" transform="translate(-156.999 -241.438)">
    <g id="グループ_9716" data-name="グループ 9716" transform="translate(305.446 273.206)">
      <g id="合体_65" data-name="合体 65" transform="translate(0 0)" fill="#faf4ed">
        <path d="M 365.2407531738281 75.09629821777344 L 29.11230278015137 75.09629821777344 C 25.23905372619629 75.09629821777344 21.59770202636719 73.58795166015625 18.85895347595215 70.84915161132812 C 16.12035369873047 68.11039733886719 14.61210250854492 64.46914672851562 14.61210250854492 60.59609985351562 L 14.61210250854492 24.49994850158691 L 14.61210250854492 23.54744911193848 L 13.75000286102295 23.14234924316406 C 11.52575302124023 22.09719848632812 9.642353057861328 20.7244987487793 8.152153015136719 19.06239891052246 C 5.563121318817139 16.17552185058594 3.920330286026001 12.83866882324219 2.974702119827271 10.45527172088623 C 5.180422782897949 11.98636245727539 8.296117782592773 13.67446804046631 12.39670276641846 14.82949924468994 C 12.56770324707031 14.87769889831543 12.73645305633545 14.92469882965088 12.9038028717041 14.97084903717041 L 14.52640247344971 15.41824913024902 L 14.78475284576416 13.7549991607666 C 15.30965328216553 10.37509918212891 17.03260231018066 7.274549007415771 19.63620376586914 5.024448871612549 C 22.26605224609375 2.751649141311646 25.63140296936035 1.499999165534973 29.11230278015137 1.499999165534973 L 365.2407531738281 1.499999165534973 C 369.1139526367188 1.499999165534973 372.7553100585938 3.008349180221558 375.4940490722656 5.747148990631104 C 378.232666015625 8.485898971557617 379.7409057617188 12.12714958190918 379.7409057617188 16.00019836425781 L 379.7409057617188 60.59609985351562 C 379.7409057617188 64.46914672851562 378.232666015625 68.11039733886719 375.4940490722656 70.84915161132812 C 372.7553100585938 73.58795166015625 369.1139526367188 75.09629821777344 365.2407531738281 75.09629821777344 Z" stroke="none"/>
        <path d="M 365.2407531738281 73.59629821777344 C 368.7133178710938 73.59629821777344 371.9779663085938 72.24399566650391 374.433349609375 69.78849792480469 C 376.8887023925781 67.33304595947266 378.2409057617188 64.06845092773438 378.2409057617188 60.59609985351562 L 378.2409057617188 16.00019836425781 C 378.2409057617188 12.5278491973877 376.8887023925781 9.263249397277832 374.433349609375 6.807799339294434 C 371.9779663085938 4.352299213409424 368.7133178710938 2.999999046325684 365.2407531738281 2.999999046325684 L 29.11230278015137 2.999999046325684 C 25.99145317077637 2.999999046325684 22.97445297241211 4.121999263763428 20.61700248718262 6.159348964691162 C 18.28225326538086 8.177148818969727 16.73735237121582 10.95639896392822 16.26695251464844 13.98519897460938 L 15.75035285949707 17.31169891357422 L 12.50505256652832 16.41684913635254 C 12.33505249023438 16.36999893188477 12.16365242004395 16.3222484588623 11.99000263214111 16.27334976196289 C 10.07332515716553 15.73345565795898 8.215597152709961 15.03339958190918 6.463183403015137 14.19561576843262 C 7.237414360046387 15.5067138671875 8.164935111999512 16.82998275756836 9.269002914428711 18.06104850769043 C 10.62430286407471 19.57269859313965 12.34655284881592 20.82554817199707 14.38790321350098 21.78474998474121 L 16.11210250854492 22.59489822387695 L 16.11210250854492 60.59609985351562 C 16.11210250854492 64.06849670410156 17.46430206298828 67.33304595947266 19.91965293884277 69.78849792480469 C 22.37505340576172 72.24399566650391 25.6397533416748 73.59629821777344 29.11230278015137 73.59629821777344 L 365.2407531738281 73.59629821777344 M 365.2407531738281 76.59629821777344 L 29.11230278015137 76.59629821777344 C 20.27520370483398 76.59629821777344 13.11210250854492 69.43229675292969 13.11210250854492 60.59609985351562 L 13.11210250854492 24.49994850158691 C 11.03635311126709 23.52459907531738 8.870903015136719 22.11109924316406 7.035303115844727 20.06369972229004 C 1.495802879333496 13.88699913024902 2.880859483411768e-06 5.867999076843262 2.880859483411768e-06 5.867999076843262 C 2.880859483411768e-06 5.867999076843262 4.016702651977539 10.91069889068604 12.8034029006958 13.38569927215576 C 12.97180271148682 13.43314933776855 13.13785266876221 13.47939872741699 13.30250263214111 13.52479934692383 C 14.49230289459229 5.86384916305542 21.11715316772461 -8.911133022593276e-07 29.11230278015137 -8.911133022593276e-07 L 365.2407531738281 -8.911133022593276e-07 C 374.0777893066406 -8.911133022593276e-07 381.2409057617188 7.163999080657959 381.2409057617188 16.00019836425781 L 381.2409057617188 60.59609985351562 C 381.2409057617188 69.43229675292969 374.0777893066406 76.59629821777344 365.2407531738281 76.59629821777344 Z" stroke="none" fill="#333"/>
      </g>
      <rect id="長方形_14859" data-name="長方形 14859" width="180.877" height="8.032" transform="translate(28.071 55.979)" fill="#fff37e"/>
      <g id="グループ_9714" data-name="グループ 9714" transform="translate(31.318 10.423)">
        <text id="エイトビットの採用サイトから_直接ご応募_ご入社いただいた方限定" data-name="エイトビットの採用サイトから
直接ご応募・ご入社いただいた方限定" transform="translate(161 21)" fill="#333" font-size="19" font-family="YuGothicUI-Regular, Yu Gothic UI"><tspan x="-101.647" y="0">エイトビットの採用サイトから</tspan><tspan y="0" font-family="SegoeUI, Segoe UI"></tspan><tspan x="-141.906" y="26">直接ご応募・ご入社いただいた方限定</tspan></text>
      </g>
    </g>
    <g id="グループ_9829" data-name="グループ 9829" transform="translate(15162 21451.438)">
      <ellipse id="楕円形_180" data-name="楕円形 180" cx="62.694" cy="62.694" rx="62.694" ry="62.694" transform="translate(-15005 -21210)" fill="#fff"/>
      <g id="マスクグループ_38" data-name="マスクグループ 38" transform="translate(-212.806 67.828)" clip-path="url(#clip-path)">
        <g id="_13710" data-name="13710" transform="translate(-14801.279 -21249.324)">
          <path id="パス_91483" data-name="パス 91483" d="M258.78,163.582l3.508-2.383c6.437,1.406,11.181,5.18,12.1,11.092a42.426,42.426,0,0,1-5.671,24.512,13.216,13.216,0,0,1-3.866,4.406,9.4,9.4,0,0,1-6.158,1.783,8.172,8.172,0,0,1-4.95-2.744,17.248,17.248,0,0,1-3.023-4.8q-.161-.375-.316-.755H230.782a29.411,29.411,0,0,0-4.539-7.22c-1.515-1.8-4.414-3.406-7.488-4.6l-1.356-.238c-.131-.059-1.816-.859-1.9-.885a3.459,3.459,0,0,1-1.73-2.783c-.032-.185-.059-.347-.076-.49,3.154-1.475,5.663-5.5,6.112-6.637a13.247,13.247,0,0,0,.409-1.273,1.528,1.528,0,0,0,1.738-.273,5,5,0,0,0,1.295-1.7,7.853,7.853,0,0,0,.828-3.49,34.334,34.334,0,0,1,3.28-2.324,17.336,17.336,0,0,1,3.206-1.435c7.112,3.766,10.723,4.9,17.3,4.758,6.388-.141,8.546-1.178,10.739-2.386Z" transform="translate(-135.944 -102.547)" fill="#fff"/>
          <path id="パス_91484" data-name="パス 91484" d="M83.011,48.208a2.432,2.432,0,0,1,1.777-.586,2.256,2.256,0,0,1,1.99,1.19,6.745,6.745,0,0,1,.044,4.761A7.346,7.346,0,0,1,84.555,57a2.68,2.68,0,0,1-2.085.53l-.2-.04a15.731,15.731,0,0,1-.772,1.906c-.567,1.4-3.593,6.247-7.292,8.107a15.033,15.033,0,0,0-.156,2.409,2.786,2.786,0,0,0,1.154,2.595c.046.025.857.542,2.058,1.181-7.41,5.273-18.306,3.723-24.133-1.6,1.492-.567,3.482-1.337,3.544-1.354a2.785,2.785,0,0,0,1.695-2.278,16.028,16.028,0,0,0,.335-1.932,15.388,15.388,0,0,1-3.377-3.277,18.486,18.486,0,0,1-3.294-6.73,2.628,2.628,0,0,1-2.217-.631,7.352,7.352,0,0,1-2.043-3.565,6.746,6.746,0,0,1,.35-4.748,2.256,2.256,0,0,1,2.062-1.059,2.431,2.431,0,0,1,1.736.7s-2.474-12.587,17.25-12.587C86.959,34.621,83.011,48.208,83.011,48.208Z" transform="translate(-30.217 -22.019)" fill="#fff"/>
          <path id="パス_91485" data-name="パス 91485" d="M17.989,180.8a13.319,13.319,0,0,1-2.256,1.416,8.76,8.76,0,0,1-7.513.334c-2.672-1.3-4.041-4.184-4.775-6.949-1.4-5.3-1.2-10.86-.509-16.281.6-4.741,1.673-9.661,4.865-13.348,2.87-3.313,10.921-6.884,16.586-8.518,5.909,5.462,17.129,7,24.565,1.377,4.758,1.124,8.312,2.251,11.815,5.023a10.5,10.5,0,0,1,2.624,3.351,23.07,23.07,0,0,1,1.406,4.242,90.171,90.171,0,0,1,2.556,14.083,3.081,3.081,0,0,1-1.177,1.108c-.095.027-1.771.827-1.911.886-3.145,1.2-7.391,3.046-8.94,4.841a19.6,19.6,0,0,0-4.011,7.458H19.148C18.775,180.164,18.39,180.491,17.989,180.8Z" transform="translate(-1.522 -87.44)" fill="#fff"/>
          <path id="パス_91486" data-name="パス 91486" d="M251.822,65.039a2.2,2.2,0,0,1,1.793-.839,2.333,2.333,0,0,1,1.684.624s-2.343-15.181,14.028-15.181c18.174,0,15.812,15.3,15.812,15.3a2.334,2.334,0,0,1,1.689-.611,2.165,2.165,0,0,1,1.94,1.087,6.487,6.487,0,0,1,.171,4.564,7.042,7.042,0,0,1-2.082,3.347,2.57,2.57,0,0,1-1.985.564l-.19-.033a15.1,15.1,0,0,1-.689,1.849c-.537,1.44-3.623,6.679-7.421,8.284a2.772,2.772,0,0,1,.06.728,13.861,13.861,0,0,1-.271,1.812l1.011.231a1.8,1.8,0,0,1,1.268-.106,1.606,1.606,0,0,1,1.349,1.528,30.652,30.652,0,0,0,5.652,2.732l-3.216,1.822c-2.193,1.208-4.351,2.245-10.739,2.387-6.567.146-10.177-.99-17.271-4.746,3.231-1.177,6.525-1.994,8.08-3.037a1.426,1.426,0,0,0,.483-.37,1.112,1.112,0,0,0,.12-.389q.244-1.366.486-2.728A13.288,13.288,0,0,1,259,80.11a17.736,17.736,0,0,1-3.341-6.363,2.524,2.524,0,0,1-2.143-.546,7.036,7.036,0,0,1-2.056-3.363,6.479,6.479,0,0,1,.207-4.563A2.207,2.207,0,0,1,251.822,65.039Z" transform="translate(-159.774 -31.574)" fill="#fff"/>
          <path id="パス_91487" data-name="パス 91487" d="M139.182,227.137a23.48,23.48,0,0,0-2.328,5.226H182a29.083,29.083,0,0,0-4.638-7.458c-1.629-1.928-4.856-3.646-8.181-4.865-1.208,1.934-4.768,3.656-8.386,3.875a23.124,23.124,0,0,1-6.09-.415,9.724,9.724,0,0,1-5.663-3.141c-3.035,1.193-6.748,2.892-8.175,4.545a18.965,18.965,0,0,0-1.681,2.232Z" transform="translate(-87.06 -139.981)" fill="#fff"/>
          <path id="パス_91488" data-name="パス 91488" d="M181.956,147.608a1.97,1.97,0,0,1,1.576-.461,1.859,1.859,0,0,1,1.337.889,2.628,2.628,0,0,1,.275,1.058,7.879,7.879,0,0,1-.8,4.177,5,5,0,0,1-1.295,1.7,1.528,1.528,0,0,1-1.737.273c-.141.554-.327,1.038-.41,1.273-.448,1.135-2.957,5.162-6.112,6.637.017.143.045.305.076.49a3.459,3.459,0,0,0,1.73,2.783c.086.027,1.771.827,1.9.885l.5.224-.114.143c-1.415,1.771-4.737,3.281-8.111,3.485a23.125,23.125,0,0,1-6.09-.415,10,10,0,0,1-5.343-2.772l-.32-.344.764-.321c.14-.059,1.816-.859,1.911-.885a3.479,3.479,0,0,0,1.726-2.783c.014-.059.023-.113.032-.171a12.5,12.5,0,0,1-4.418-3.282,14.165,14.165,0,0,1-2.817-4.8,1.505,1.505,0,0,1-1.547-.342,5.007,5.007,0,0,1-1.3-1.7,7.879,7.879,0,0,1-.8-4.177,2.621,2.621,0,0,1,.275-1.058,1.86,1.86,0,0,1,1.337-.889,1.97,1.97,0,0,1,1.576.461s-2.414-10.562,12.381-10.562S181.956,147.608,181.956,147.608Z" transform="translate(-97.041 -87.231)" fill="#fff"/>
          <path id="パス_91489" data-name="パス 91489" d="M291.654,163.139l-.555-1.875s-.073-.251-.2-.684c-.229.161-.469.31-.728.463a8.363,8.363,0,0,0-2.138,2.388.149.149,0,0,0-.008.018,54.854,54.854,0,0,1-6.783-3.333,32.192,32.192,0,0,0,.86-3.213c.354-1.326.515-2.179.9-3.228.8-2.185,2.274-4.792,3.061-6.675.855-2.1,3.82-8.9,4.525-10.393a1.724,1.724,0,0,1,1.938-1.042c.618.126,1.164.961,1.316,1.443l.218.688a1.475,1.475,0,0,1,.889.059c.731.278.847.919.828,1.6a23.447,23.447,0,0,1-.546,3.117l1.284-1.075a1.8,1.8,0,0,1,1.268-.105,1.593,1.593,0,0,1,1.293,1.193,10.642,10.642,0,0,1-.007,3.144c-.515,3.12-.886,5.825-1.363,8.856a5.784,5.784,0,0,0,.663,4l1.923,3.717.109.209c-2.567,1.107-5.608,2.411-7.957,3.395-.013-.048-.021-.073-.021-.073Z" transform="translate(-178.919 -86.217)" fill="#fff"/>
          <path id="パス_91490" data-name="パス 91490" d="M58.968,135.887q-.17-.109-.327-.216l.1-.433a74.375,74.375,0,0,1,2.333-9.947c.593-1.86,1.214-4.1,2.434-5.293a11.016,11.016,0,0,1,3.041-2.332,33.979,33.979,0,0,1,7.431-2.617,3.541,3.541,0,0,1,2.094.207,1.237,1.237,0,0,1,.607,1.285c-.079.582-1.09,1.239-1.923,1.576-1.986.8-3.752,1.7-5.644,2.586l-.15.07c1.589.182,3.553.461,4.759.615a1.748,1.748,0,0,1,1.581,1.869c-.084.951-.636,1.718-2.155,1.629.408.192.689.327.689.327a1.587,1.587,0,0,1,.92,1.844c-.146.837-1.082,1.085-1.671,1.04l-.061,0,.349.356a1.855,1.855,0,0,1,.354,1.209A1.47,1.47,0,0,1,72.418,131c-.673.139-1.325.255-2.328.407a9.559,9.559,0,0,1-.513,3.4,3.527,3.527,0,0,1-2.328,2.43s-.677,1.348-1.323,2.639C63.974,138.878,60.932,137.165,58.968,135.887Z" transform="translate(-37.301 -73.14)" fill="#fff"/>
          <path id="パス_91491" data-name="パス 91491" d="M190.806,122.561a6.7,6.7,0,0,1-1.8-3.716,20.051,20.051,0,0,0-1.046-3.48A5.923,5.923,0,0,0,186.5,113.3a6.161,6.161,0,0,0-5.467-1.822,4.811,4.811,0,0,0-3.957,2.442v0q-.546-.246-1.112-.445a15.68,15.68,0,0,0-5.22-.856,14.906,14.906,0,0,0-8.843,2.722,14.21,14.21,0,0,0-6.134,11.21,22.379,22.379,0,0,0,.371,4.327.518.518,0,0,1,.1-.021,1.97,1.97,0,0,1,1.576.461l.444.4a6,6,0,0,1,3.26-4l.14-.063h8.537a10.986,10.986,0,0,0,2.248-.655,9.314,9.314,0,0,0,3.056-2.728,7.722,7.722,0,0,1,5.275,3.049,11.166,11.166,0,0,1,1.924,3.929c.705-.007,1.31-.017,1.31-.017a1.968,1.968,0,0,1,1.443-.476,19.372,19.372,0,0,0,.272-4.21,15.273,15.273,0,0,0-.776-4.2l.657.268A7.36,7.36,0,0,0,190.806,122.561Z" transform="translate(-99.089 -70.864)" fill="#0c5fe5"/>
          <path id="パス_91492" data-name="パス 91492" d="M282.562,27.71a18.063,18.063,0,0,0-3.278-1.8,16.371,16.371,0,0,0-7.184-1.3,17.578,17.578,0,0,0-17.719,13.469,24.7,24.7,0,0,0-.033,7.064,9,9,0,0,0,.925,3.131c.073-.009.146-.014.224-.016a2.333,2.333,0,0,1,1.684.624l1.71-2.531a22.985,22.985,0,0,1,4.093-2,6.638,6.638,0,0,0,1.223-.59c-.008.14-.012.233-.012.233a.773.773,0,0,0,.336.826,2.922,2.922,0,0,0,1.149.155,7.556,7.556,0,0,0,4.04-.972c.161-.1.31-.192.45-.291h6.444a9.2,9.2,0,0,0,2.321-2.685,10.974,10.974,0,0,0,1.286-3.562h1.386a19.972,19.972,0,0,0,2.017,6.007,5.14,5.14,0,0,0,2.4,2.853L287.022,49a2.335,2.335,0,0,1,1.689-.611,2.658,2.658,0,0,1,.913.186c1.194-3,.582-7.89.084-10.356a16.251,16.251,0,0,0-4.91-8.635Z" transform="translate(-161.657 -15.631)" fill="#0c5fe5"/>
          <path id="パス_91493" data-name="パス 91493" d="M52.034,15.354a18.678,18.678,0,0,1,7.287-9.728,19.165,19.165,0,0,1,21.471.2l2.359,1.934a18.273,18.273,0,0,1,5.566,13.4,19.824,19.824,0,0,1-.938,6.1,3.016,3.016,0,0,0-.687-.123,2.432,2.432,0,0,0-1.777.586l-2.4-2.033a16.646,16.646,0,0,0-4.281-5.973,9.983,9.983,0,0,0-2.787-1.88l-3.076-.479c-2.11.811-5.108,2.56-6.786,3.423a.565.565,0,0,1-.787-.632,2.979,2.979,0,0,0-.036-1.086c-.1-.456-.437-.659-.712-.526-2.348,1.137-5.739,4.163-7.67,6.179l-2.551,2.007a2.431,2.431,0,0,0-1.736-.7,2.947,2.947,0,0,0-.762.1,20.525,20.525,0,0,1-.564-6.171,20.105,20.105,0,0,1,.871-4.6Z" transform="translate(-32.52 -1.534)" fill="#0c5fe5"/>
          <path id="パス_91494" data-name="パス 91494" d="M118.115,125.18a7.631,7.631,0,0,0,.291,3.752,3.225,3.225,0,0,0,1.222,1.385c.1.066.207.127.311.19a2.263,2.263,0,0,0,1.055.479.873.873,0,1,0,0-1.746h-.007l.441.119c-.308-.179-.618-.356-.917-.549-.045-.029-.089-.06-.132-.091.131.1,0-.01-.029-.033-.045-.041-.088-.083-.13-.128-.016-.017-.146-.168-.068-.073s-.036-.059-.051-.079q-.045-.071-.085-.145c-.026-.049-.049-.1-.073-.149.049.1.036.091,0-.007a2.9,2.9,0,0,1-.083-.287c-.013-.054-.024-.109-.034-.163-.033-.179-.034-.017,0,0a1.246,1.246,0,0,1-.029-.339c-.006-.115-.008-.23-.009-.345,0-.6.021-1.2.076-1.79a.876.876,0,0,0-.873-.873.9.9,0,0,0-.873.873Z" transform="translate(-75.078 -79.076)" fill="#333"/>
          <path id="パス_91495" data-name="パス 91495" d="M241.334,162.547a20.526,20.526,0,0,1,4.22-2.783,41.85,41.85,0,0,1,5.06-1.81c1.069-.335.613-2.021-.464-1.684a45.327,45.327,0,0,0-5.477,1.986,22.322,22.322,0,0,0-4.574,3.056.879.879,0,0,0,0,1.235.894.894,0,0,0,1.235,0Z" transform="translate(-152.583 -99.383)" fill="#333"/>
          <path id="パス_91496" data-name="パス 91496" d="M179.707,209.611v0a.864.864,0,0,0,.119-.441.655.655,0,0,0-.075-.337.877.877,0,0,0-.566-.505h0l.641.842q-.113-1.128-.258-2.248a.958.958,0,0,0-.255-.618.873.873,0,0,0-1.235,0,.839.839,0,0,0-.255.618q.143,1.122.258,2.248a.958.958,0,0,0,.188.529.9.9,0,0,0,.453.313h0l-.522-1.282v0a.957.957,0,0,0-.088.673.89.89,0,0,0,.4.522.881.881,0,0,0,.673.088.842.842,0,0,0,.522-.4Z" transform="translate(-113.125 -131.078)" fill="#333"/>
          <path id="パス_91497" data-name="パス 91497" d="M135.813,141.638a36.523,36.523,0,0,0-11.115-3.773.9.9,0,0,0-1.074.61.881.881,0,0,0,.61,1.074,35.107,35.107,0,0,1,10.7,3.6A.874.874,0,0,0,135.813,141.638Z" transform="translate(-78.624 -87.684)" fill="#333"/>
          <path id="パス_91498" data-name="パス 91498" d="M173.722,208.015c0,.012.046-.255.017-.146-.009.036-.015.073-.021.109s-.016.089-.024.133c-.02.106-.04.211-.064.316a4.89,4.89,0,0,1-.177.614c-.012.033-.088.222-.028.076s-.012.02-.027.052a3.141,3.141,0,0,1-.171.306c-.032.051-.067.1-.1.149-.087.128.112-.129.007-.011a3.7,3.7,0,0,1-.266.278c-.05.046-.1.088-.154.132-.073.061.055-.046.058-.046-.016,0-.061.044-.075.054-.061.041-.128.076-.186.12-.122.093.073-.016.079-.016a1.6,1.6,0,0,0-.425.182c-.3.139-.606.282-.91.425-.255.12-.509.248-.771.359a.873.873,0,0,0-.4.522.892.892,0,0,0,.088.673.881.881,0,0,0,.522.4,1.026,1.026,0,0,0,.673-.088c.558-.239,1.1-.519,1.653-.772l.156-.071c.163-.073-.215.1-.109.046a5.471,5.471,0,0,0,.511-.275,5.133,5.133,0,0,0,.482-.374,3.967,3.967,0,0,0,1.014-1.5,4.712,4.712,0,0,0,.228-.728,4.369,4.369,0,0,0,.165-.92.873.873,0,0,0-1.746,0Z" transform="translate(-108.183 -131.774)" fill="#333"/>
          <path id="パス_91499" data-name="パス 91499" d="M211.285,207.143a5.668,5.668,0,0,0,1.211,3.229,4.087,4.087,0,0,0,.764.638,2.065,2.065,0,0,0,.479.251c.059.02-.264-.117-.163-.069l.07.032c.312.141.621.288.931.434.283.133.565.27.849.4a.9.9,0,0,0,1.195-.313.884.884,0,0,0-.313-1.195c-.542-.245-1.077-.509-1.617-.757-.086-.04-.172-.08-.259-.118a1.608,1.608,0,0,0-.23-.1c.017,0,.19.1.112.034a.742.742,0,0,0-.088-.054l-.167-.109c-.016-.011-.106-.078-.015-.009s-.017-.015-.034-.03a3,3,0,0,1-.279-.27,1.235,1.235,0,0,0-.111-.13s.1.146.052.066c-.019-.031-.043-.06-.063-.09a3.108,3.108,0,0,1-.177-.3c-.024-.047-.045-.094-.069-.141-.063-.129.064.176,0-.007a5.524,5.524,0,0,1-.2-.7c-.024-.111-.046-.223-.066-.335-.015-.082-.029-.165-.042-.248-.01-.058-.051-.347-.02-.107a.962.962,0,0,0-.255-.618.888.888,0,0,0-.618-.255c-.422.019-.937.388-.873.873Z" transform="translate(-134.411 -131.223)" fill="#333"/>
          <path id="パス_91500" data-name="パス 91500" d="M213.579,112.833a3.7,3.7,0,0,1,2.644-1.892,5.584,5.584,0,0,1,3.523.176,6.43,6.43,0,0,1,2.843,2.423,13.828,13.828,0,0,1,1.363,4.153,8.049,8.049,0,0,0,1.989,3.954l.385-1.46a6.9,6.9,0,0,1-4.741.063.879.879,0,0,0-1.074.61.9.9,0,0,0,.61,1.074,8.448,8.448,0,0,0,5.669-.063.883.883,0,0,0,.385-1.46,7.161,7.161,0,0,1-1.644-3.655,12.324,12.324,0,0,0-1.726-4.533,8.407,8.407,0,0,0-3.606-2.8,7.337,7.337,0,0,0-4.311-.2,5.41,5.41,0,0,0-3.818,2.724.9.9,0,0,0,.313,1.194.881.881,0,0,0,1.195-.313Z" transform="translate(-134.842 -69.335)" fill="#333"/>
          <path id="パス_91501" data-name="パス 91501" d="M231.78,164.213a1.055,1.055,0,0,1,1.542.251,2.5,2.5,0,0,1,.182,1.117,6.653,6.653,0,0,1-.1,1.333,7.021,7.021,0,0,1-.94,2.485c-.327.518-.863,1.24-1.5,1.071a.874.874,0,0,0-.464,1.684c1.427.381,2.544-.54,3.322-1.649a8.394,8.394,0,0,0,1.362-3.784c.153-1.254.154-2.848-.862-3.76a2.866,2.866,0,0,0-3.783.016.88.88,0,0,0,0,1.235.892.892,0,0,0,1.235,0Z" transform="translate(-146.248 -103.219)" fill="#333"/>
          <path id="パス_91502" data-name="パス 91502" d="M154.834,163.2a2.868,2.868,0,0,0-3.783-.016c-1.016.912-1.015,2.507-.862,3.76a8.388,8.388,0,0,0,1.361,3.783c.779,1.11,1.892,2.03,3.322,1.65a.874.874,0,0,0-.464-1.684c-.634.169-1.171-.553-1.5-1.071a7.012,7.012,0,0,1-.94-2.485,6.546,6.546,0,0,1-.1-1.262,2.6,2.6,0,0,1,.184-1.188,1.055,1.055,0,0,1,1.542-.251.9.9,0,0,0,1.235,0,.88.88,0,0,0,0-1.235Z" transform="translate(-95.496 -103.364)" fill="#333"/>
          <path id="パス_91503" data-name="パス 91503" d="M215.712,183.215a10.974,10.974,0,0,1-.548,1.985c-.048.139.1-.194.018-.044-.036.061-.062.131-.093.195-.068.137-.141.272-.216.406a16.352,16.352,0,0,1-1.433,2.134c-1.3,1.637-2.975,3.318-5.087,3.78-1.1.24-.633,1.923.464,1.684,2.4-.524,4.374-2.365,5.857-4.229a11.629,11.629,0,0,0,2.722-5.447.9.9,0,0,0-.61-1.074.88.88,0,0,0-1.074.61Z" transform="translate(-132.148 -116.146)" fill="#333"/>
          <path id="パス_91504" data-name="パス 91504" d="M159.329,182.927a15.264,15.264,0,0,0,3.7,6.672,11.721,11.721,0,0,0,6.666,3.761.9.9,0,0,0,1.074-.61.879.879,0,0,0-.61-1.074c-4.582-.646-8.042-4.936-9.147-9.212A.874.874,0,0,0,159.329,182.927Z" transform="translate(-101.339 -115.68)" fill="#333"/>
          <path id="パス_91505" data-name="パス 91505" d="M184.8,131.484a16.973,16.973,0,0,0-2-11.929,15.806,15.806,0,0,0-9.343-6.706,16.894,16.894,0,0,0-11.764,1.26,15.747,15.747,0,0,0-6.434,6.218,15.21,15.21,0,0,0-1.779,5.655,19.941,19.941,0,0,0,.257,5.5.88.88,0,0,0,1.074.61.894.894,0,0,0,.61-1.074,15.475,15.475,0,0,1,.863-8.858,14.087,14.087,0,0,1,5.053-5.824,14.787,14.787,0,0,1,10.059-2.122,14.326,14.326,0,0,1,9.073,5.08c2.676,3.257,3.311,7.66,2.647,11.726a.9.9,0,0,0,.61,1.074A.88.88,0,0,0,184.8,131.484Z" transform="translate(-97.585 -71.449)" fill="#333"/>
          <path id="パス_91506" data-name="パス 91506" d="M238.872,230.613a27.582,27.582,0,0,0-4.834-7.578c-2.006-2.226-4.978-3.573-7.714-4.646a.88.88,0,0,0-1.074.61.893.893,0,0,0,.61,1.074c2.5.979,5.223,2.233,7.025,4.287a26.873,26.873,0,0,1,4.481,7.134.878.878,0,0,0,1.194.313.9.9,0,0,0,.313-1.194Z" transform="translate(-143.279 -138.912)" fill="#333"/>
          <path id="パス_91507" data-name="パス 91507" d="M136.128,231.108a21.3,21.3,0,0,1,3.092-6.232,9,9,0,0,1,2.152-2.068,24.99,24.99,0,0,1,3.22-1.762c1.269-.6,2.567-1.128,3.877-1.629a.9.9,0,0,0,.61-1.074.88.88,0,0,0-1.074-.61,39.875,39.875,0,0,0-7.249,3.394,13.536,13.536,0,0,0-4.633,5.372,31.815,31.815,0,0,0-1.68,4.144c-.369,1.064,1.318,1.521,1.684.464Z" transform="translate(-85.493 -138.495)" fill="#333"/>
          <path id="パス_91508" data-name="パス 91508" d="M212.609,147.067a7.341,7.341,0,0,1,3.271,2.437,10.041,10.041,0,0,1,1.478,2.765q.1.288.188.582c.023.078.045.156.067.235q.024.088.048.177.064.287.061-.347l.313-.313-.044.029.441-.119-.056-.005a.88.88,0,0,0-.873.873.891.891,0,0,0,.873.873c.728.064,1.105-.709.994-1.326a8.079,8.079,0,0,0-.411-1.353,11.825,11.825,0,0,0-1.346-2.642,9.36,9.36,0,0,0-4.539-3.55.881.881,0,0,0-1.074.61.891.891,0,0,0,.61,1.074Z" transform="translate(-134.85 -92.465)" fill="#333"/>
          <path id="パス_91509" data-name="パス 91509" d="M199.5,137.391a6.339,6.339,0,0,1-2.043,3.713,9.735,9.735,0,0,1-1.746,1.28c-.05.031-.182.068.032-.007-.066.023-.131.051-.2.073-.174.062-.35.117-.527.17-.443.131-.893.24-1.346.331a.882.882,0,0,0-.61,1.074.891.891,0,0,0,1.074.61,9.193,9.193,0,0,0,2.456-.744,9.684,9.684,0,0,0,2.1-1.553,8,8,0,0,0,2.492-4.483.9.9,0,0,0-.61-1.074.88.88,0,0,0-1.074.61Z" transform="translate(-122.798 -86.991)" fill="#333"/>
          <path id="パス_91510" data-name="パス 91510" d="M171.625,137.814a12.393,12.393,0,0,1-2.5,3.539,8.117,8.117,0,0,1-3.7,1.564,7.574,7.574,0,0,0-3.547,1.966,6.886,6.886,0,0,0-1.811,3.446.9.9,0,0,0,.61,1.074.881.881,0,0,0,1.074-.61,5.275,5.275,0,0,1,1.752-3.046,8.133,8.133,0,0,1,3.413-1.416,7.6,7.6,0,0,0,3.659-1.96,14.435,14.435,0,0,0,2.555-3.679.9.9,0,0,0-.313-1.195.882.882,0,0,0-1.195.313Z" transform="translate(-101.812 -87.395)" fill="#333"/>
          <path id="パス_91511" data-name="パス 91511" d="M169.1,220.5c2.1,2.212,5.09,3.035,8.032,3.353a18.073,18.073,0,0,0,9.249-1.185,9.277,9.277,0,0,0,3.5-2.466.9.9,0,0,0,0-1.235.879.879,0,0,0-1.235,0c-1.495,1.827-4.032,2.718-6.288,3.1a18.689,18.689,0,0,1-4.352.122,16.952,16.952,0,0,1-4.193-.771,8.433,8.433,0,0,1-3.476-2.149c-.776-.816-2.009.42-1.235,1.235Z" transform="translate(-107.419 -139.139)" fill="#333"/>
          <path id="パス_91512" data-name="パス 91512" d="M343.208,89.718a1.554,1.554,0,0,1,1.277-.339,1.491,1.491,0,0,1,.655.255c-.051-.036.3.316.182.165a4.171,4.171,0,0,1,.5,2.814,7.044,7.044,0,0,1-.847,2.675c-.445.831-1.314,2.074-2.417,1.924a.9.9,0,0,0-1.074.61.88.88,0,0,0,.61,1.074c2.783.379,4.414-2.268,5.158-4.575a7.968,7.968,0,0,0,.24-3.614,3.66,3.66,0,0,0-1.431-2.553,3.386,3.386,0,0,0-4.087.33c-.841.749.4,1.98,1.235,1.235Z" transform="translate(-217.226 -55.735)" fill="#333"/>
          <path id="パス_91513" data-name="パス 91513" d="M319.947,123.677a13.487,13.487,0,0,0,4.965-4.152,19.414,19.414,0,0,0,2.7-4.271c.049-.114.092-.231.143-.344-.089.2.019-.032.051-.105q.2-.449.364-.909a14.5,14.5,0,0,0,.577-1.969c.229-1.1-1.455-1.564-1.684-.464a17.36,17.36,0,0,1-.975,2.943c-.1.242.047-.083-.049.121-.06.128-.12.255-.182.383-.155.307-.321.608-.495.9a19.738,19.738,0,0,1-3.529,4.493,9.75,9.75,0,0,1-2.765,1.864.879.879,0,0,0-.313,1.195.9.9,0,0,0,1.195.313Z" transform="translate(-202.713 -70.504)" fill="#333"/>
          <path id="パス_91514" data-name="パス 91514" d="M260.385,111.468a18.848,18.848,0,0,0,4.06,8.136,12.4,12.4,0,0,0,7.414,4.511.9.9,0,0,0,1.074-.61.88.88,0,0,0-.61-1.074,10.957,10.957,0,0,1-6.643-4.063A17.022,17.022,0,0,1,262.068,111c-.244-1.1-1.928-.632-1.684.464Z" transform="translate(-165.635 -70.214)" fill="#333"/>
          <path id="パス_91515" data-name="パス 91515" d="M281.46,25.435A18,18,0,0,0,271.065,22.2a27.471,27.471,0,0,0-4.519.284,18.088,18.088,0,0,0-4.162,1.326c-5.152,2.32-9.537,7.254-10.464,12.932a22.654,22.654,0,0,0-.16,5.13,14.1,14.1,0,0,0,1.028,4.979.88.88,0,0,0,1.195.313.894.894,0,0,0,.313-1.195,8.575,8.575,0,0,1-.573-2.1c-.092-.525-.146-1.062-.194-1.681a25.838,25.838,0,0,1-.012-4.251,14.46,14.46,0,0,1,2.863-7.108,16.817,16.817,0,0,1,13.519-6.89c.893.014,1.788-.016,2.681.054a15.083,15.083,0,0,1,2.808.5,17.3,17.3,0,0,1,5.192,2.448c.929.637,1.8-.876.881-1.508Z" transform="translate(-160.115 -14.11)" fill="#333"/>
          <path id="パス_91516" data-name="パス 91516" d="M342.509,56.211c1.022-2.433.9-5.342.62-7.913a29.434,29.434,0,0,0-.574-3.565,17.366,17.366,0,0,0-1.859-4.607,16.446,16.446,0,0,0-3.168-3.923c-.826-.76-2.064.473-1.235,1.235a15.349,15.349,0,0,1,4.433,7.193,24.861,24.861,0,0,1,.822,7.132,10.873,10.873,0,0,1-.723,3.983.879.879,0,0,0,.61,1.074.9.9,0,0,0,1.074-.61Z" transform="translate(-213.769 -22.872)" fill="#333"/>
          <path id="パス_91517" data-name="パス 91517" d="M327.3,58.46a20.28,20.28,0,0,0,1.859,5.857c.728,1.579,1.517,3.14,3.2,3.846a.878.878,0,0,0,1.074-.61.9.9,0,0,0-.61-1.074c-1.179-.494-1.743-2.13-2.228-3.193a17.187,17.187,0,0,1-1.552-4.827.9.9,0,0,0-.873-.873A.878.878,0,0,0,327.3,58.46Z" transform="translate(-208.222 -36.628)" fill="#333"/>
          <path id="パス_91518" data-name="パス 91518" d="M254.395,88.142a3.4,3.4,0,0,0-3.717-.558,3.274,3.274,0,0,0-1.713,2.251,8.434,8.434,0,0,0,1.237,6.583,4.142,4.142,0,0,0,3.773,2.169.9.9,0,0,0,.873-.873.878.878,0,0,0-.873-.873c-1.237.159-2.069-.873-2.6-1.864a7.044,7.044,0,0,1-.847-2.671A4.406,4.406,0,0,1,251,89.487c-.109.16.055-.059.087-.091s.205-.171.143-.127a1.422,1.422,0,0,1,.525-.218,1.575,1.575,0,0,1,1.4.327c.832.752,2.07-.479,1.235-1.235Z" transform="translate(-158.253 -55.51)" fill="#333"/>
          <path id="パス_91519" data-name="パス 91519" d="M328.473,154.827a30.707,30.707,0,0,0,6.044,2.889.876.876,0,0,0,1.074-.61.9.9,0,0,0-.61-1.074,28.11,28.11,0,0,1-5.626-2.713.881.881,0,0,0-1.195.313A.891.891,0,0,0,328.473,154.827Z" transform="translate(-208.697 -97.459)" fill="#333"/>
          <path id="パス_91520" data-name="パス 91520" d="M267.527,149.118a31.34,31.34,0,0,0,4.45-1.664c.655-.33,1.419-.72,1.639-1.47a11.62,11.62,0,0,0,.222-1.206l.239-1.341a.9.9,0,0,0-.61-1.074.881.881,0,0,0-1.074.61c-.139.782-.269,1.564-.418,2.346a2.011,2.011,0,0,1-.042.2s.063-.118.069-.1-.31.192-.345.214a7.2,7.2,0,0,1-.707.386,15.757,15.757,0,0,1-1.663.669c-.736.263-1.48.5-2.223.746a.892.892,0,0,0-.61,1.074A.882.882,0,0,0,267.527,149.118Z" transform="translate(-169.494 -90.544)" fill="#333"/>
          <path id="パス_91521" data-name="パス 91521" d="M329.925,165.825c-.449.248-.9.489-1.365.707q-.182.085-.364.166c-.058.025-.285.1-.028.013-.065.022-.13.053-.194.079-.274.109-.55.208-.83.3a.873.873,0,0,0,.464,1.684,18.863,18.863,0,0,0,3.2-1.441.882.882,0,0,0,.313-1.195.892.892,0,0,0-1.195-.313Z" transform="translate(-207.715 -105.418)" fill="#333"/>
          <path id="パス_91522" data-name="パス 91522" d="M276.31,166.739a29.432,29.432,0,0,1-7.671-2.549.9.9,0,0,0-1.195.313.881.881,0,0,0,.313,1.195,31.107,31.107,0,0,0,8.088,2.726.9.9,0,0,0,1.074-.61A.881.881,0,0,0,276.31,166.739Z" transform="translate(-170.067 -104.378)" fill="#333"/>
          <path id="パス_91523" data-name="パス 91523" d="M314.9,61.6a9.953,9.953,0,0,0,3.15-4.045,13.609,13.609,0,0,0,1.1-5.2c.045-1.124-1.7-1.122-1.746,0a14.653,14.653,0,0,1-.27,2.51,9.634,9.634,0,0,1-.587,1.8,8.376,8.376,0,0,1-2.523,3.42.9.9,0,0,0-.313,1.195.88.88,0,0,0,1.194.313Z" transform="translate(-199.504 -32.765)" fill="#333"/>
          <path id="パス_91524" data-name="パス 91524" d="M279.416,60.944a1.6,1.6,0,0,0,.98,1.67,4.83,4.83,0,0,0,1.839.182,8.74,8.74,0,0,0,3.565-.864,8.04,8.04,0,0,0,2.883-2.437,11.78,11.78,0,0,0,1.859-3.292,18.374,18.374,0,0,0,.808-4.1.878.878,0,0,0-.873-.873.894.894,0,0,0-.873.873,16.146,16.146,0,0,1-.766,3.694,9.912,9.912,0,0,1-1.9,3.089,6.361,6.361,0,0,1-4.7,2.167c-.28.006-.564.01-.844-.007a1.469,1.469,0,0,1-.325-.028c.1.042.08.144.1-.073a.881.881,0,0,0-.873-.873.89.89,0,0,0-.873.873Z" transform="translate(-177.751 -32.584)" fill="#333"/>
          <path id="パス_91525" data-name="パス 91525" d="M266.232,68.86c1.937-1.293,4.3-1.766,6.157-3.174a9.956,9.956,0,0,0,3.339-5.818c.268-1.091-1.416-1.557-1.684-.464a8.193,8.193,0,0,1-2.913,5.05,15.658,15.658,0,0,1-2.93,1.419,17.757,17.757,0,0,0-2.85,1.479c-.931.621-.057,2.134.881,1.508Z" transform="translate(-168.557 -37.388)" fill="#333"/>
          <path id="パス_91526" data-name="パス 91526" d="M98.264,145.5a19.791,19.791,0,0,0,10.413-2.855c.952-.592.077-2.1-.881-1.508a18.044,18.044,0,0,1-9.532,2.617.874.874,0,0,0,0,1.746Z" transform="translate(-61.972 -89.695)" fill="#333"/>
          <path id="パス_91527" data-name="パス 91527" d="M63.349,136.553q-.122-.09-.241-.182l.177.137q-.418-.324-.814-.676a.844.844,0,0,0-.954-.182.657.657,0,0,0-.281.182.873.873,0,0,0,0,1.235c.395.351.808.68,1.232.995a.652.652,0,0,0,.325.1.663.663,0,0,0,.348-.016.978.978,0,0,0,.522-.4.883.883,0,0,0,.09-.674l-.088-.209a.885.885,0,0,0-.313-.313Z" transform="translate(-38.789 -86.245)" fill="#333"/>
          <path id="パス_91528" data-name="パス 91528" d="M51,65.855a3.508,3.508,0,0,0-3.886-.624,3.42,3.42,0,0,0-1.751,2.264,8.774,8.774,0,0,0,1.066,6.781,4.311,4.311,0,0,0,3.895,2.406.9.9,0,0,0,.873-.873.879.879,0,0,0-.873-.873c-1.326.132-2.18-1.05-2.7-2.117a7.374,7.374,0,0,1-.77-2.82,4.5,4.5,0,0,1,.594-2.883c-.124.165.091-.087.119-.114.114-.109-.044.012.109-.091a1.508,1.508,0,0,1,.63-.244,1.686,1.686,0,0,1,1.46.422c.812.777,2.049-.456,1.235-1.235Z" transform="translate(-28.672 -41.282)" fill="#333"/>
          <path id="パス_91529" data-name="パス 91529" d="M143.251,70.03a1.68,1.68,0,0,1,1.5-.273,1.256,1.256,0,0,1,.764.476,4.446,4.446,0,0,1,.423,2.936,7.535,7.535,0,0,1-.982,2.8c-.509.886-1.455,2.114-2.627,1.92a.9.9,0,0,0-1.074.61.88.88,0,0,0,.61,1.074c2.867.473,4.612-2.278,5.446-4.62.694-1.951.8-5.057-1.07-6.409a3.492,3.492,0,0,0-4.22.249.88.88,0,0,0,0,1.237.892.892,0,0,0,1.235,0Z" transform="translate(-89.838 -43.223)" fill="#333"/>
          <path id="パス_91530" data-name="パス 91530" d="M123.727,92.634a14.959,14.959,0,0,1-.606,1.9c-.087.224-.176.446-.277.664-.041.09-.089.178-.13.268-.269.592.062-.107-.073.166a17.616,17.616,0,0,1-1.076,1.885,18.948,18.948,0,0,1-4.244,4.747,7.856,7.856,0,0,1-3.21,1.548.873.873,0,0,0,.464,1.684,11.763,11.763,0,0,0,6.033-3.913,21.171,21.171,0,0,0,3.451-4.878c.035-.071.068-.141.1-.213a2.647,2.647,0,0,0,.115-.262c-.065.129.023-.036.036-.065.036-.073.069-.149.1-.224.077-.174.151-.349.223-.524a15.637,15.637,0,0,0,.776-2.316c.262-1.091-1.422-1.558-1.684-.464Z" transform="translate(-72.182 -58.528)" fill="#333"/>
          <path id="パス_91531" data-name="パス 91531" d="M56.851,90.193a18.454,18.454,0,0,0,7.7,11.969c.951.606,1.827-.905.881-1.508-3.72-2.367-6.081-6.677-6.9-10.925a.882.882,0,0,0-1.074-.61A.892.892,0,0,0,56.851,90.193Z" transform="translate(-36.144 -56.67)" fill="#333"/>
          <path id="パス_91532" data-name="パス 91532" d="M79.73,3.537A20.144,20.144,0,0,0,60.872,1.453a19.778,19.778,0,0,0-10.93,11.4,20.878,20.878,0,0,0-.624,11.687c.243,1.1,1.928.632,1.684-.465A18.388,18.388,0,0,1,54.994,7.734,18.173,18.173,0,0,1,78.85,5.046a.88.88,0,0,0,1.194-.313.891.891,0,0,0-.313-1.194Z" transform="translate(-31.017 0)" fill="#333"/>
          <path id="パス_91533" data-name="パス 91533" d="M143.418,35.323a22.8,22.8,0,0,0,.867-4.8,22.246,22.246,0,0,0-.278-4.829,18.292,18.292,0,0,0-2.86-7.323,19.013,19.013,0,0,0-2.5-2.978c-.808-.782-2.044.451-1.235,1.235a16.728,16.728,0,0,1,3.695,5.267,18.851,18.851,0,0,1,1.464,7.923,20.094,20.094,0,0,1-.831,5.044.874.874,0,0,0,1.684.464Z" transform="translate(-87.244 -9.624)" fill="#333"/>
          <path id="パス_91534" data-name="パス 91534" d="M117.1,44.03a12.473,12.473,0,0,1,3.9,3.047,13.683,13.683,0,0,1,2.768,4.285.9.9,0,0,0,1.074.61.88.88,0,0,0,.61-1.074,15.806,15.806,0,0,0-3.125-4.953,13.861,13.861,0,0,0-4.345-3.423.9.9,0,0,0-1.194.313.881.881,0,0,0,.313,1.195Z" transform="translate(-74.221 -26.973)" fill="#333"/>
          <path id="パス_91535" data-name="パス 91535" d="M65.763,49.925a34.816,34.816,0,0,1,6.349-5.4c.249-.157.5-.308.761-.448a2.091,2.091,0,0,0,.194-.1c.121-.086.086.017.008-.032-.036-.023-.585.2-.38-.093-.03.044.017.146.022.195.028.315-.043.625-.015.936a1.438,1.438,0,0,0,.595,1.046c.709.506,1.382.16,2.054-.2.582-.309,1.158-.625,1.737-.938a38.73,38.73,0,0,1,4.28-2.1.9.9,0,0,0,.61-1.074.879.879,0,0,0-1.074-.61,37.675,37.675,0,0,0-4.016,1.914c-.634.337-1.264.682-1.9,1.023q-.381.206-.764.409c-.2.106-.315.077-.044.163s.257.23.281-.115a2.17,2.17,0,0,0-.865-2.13c-.7-.383-1.4.073-2.007.429a26.911,26.911,0,0,0-3.55,2.61,45.251,45.251,0,0,0-3.514,3.282c-.779.811.455,2.047,1.235,1.235Z" transform="translate(-40.888 -26.124)" fill="#333"/>
          <path id="パス_91536" data-name="パス 91536" d="M75.763,121.237l-.005.036.031-.232-.039.283a.663.663,0,0,0-.016.348.9.9,0,0,0,.625.726l.232.031a.873.873,0,0,0,.441-.119l.176-.136a.873.873,0,0,0,.225-.385l.073-.552a.9.9,0,0,0-.873-.873l-.232.031a.873.873,0,0,0-.385.225l-.136.176a.873.873,0,0,0-.119.441Z" transform="translate(-48.166 -76.567)" fill="#333"/>
          <path id="パス_91537" data-name="パス 91537" d="M63.536,133.333q-.747.288-1.5.571a.979.979,0,0,0-.522.4.873.873,0,0,0,.313,1.195.856.856,0,0,0,.673.088q.749-.283,1.5-.571a.978.978,0,0,0,.522-.4.873.873,0,0,0-.313-1.195A.854.854,0,0,0,63.536,133.333Z" transform="translate(-39.055 -84.797)" fill="#333"/>
          <path id="パス_91538" data-name="パス 91538" d="M21.99,135.583a60.969,60.969,0,0,0-8.215,3.193,30.989,30.989,0,0,0-7.011,4.278,16.6,16.6,0,0,0-4.541,7.183,41.61,41.61,0,0,0-1.864,9.409,46.785,46.785,0,0,0-.083,10.679c.373,3.051,1.027,6.339,2.81,8.913a8.424,8.424,0,0,0,3.171,2.848,8.48,8.48,0,0,0,4.648.761,13.918,13.918,0,0,0,8.288-4.547,44.38,44.38,0,0,0,5.53-7A48.517,48.517,0,0,0,28.3,164.29q.478-1.112.94-2.232a.878.878,0,0,0-.61-1.074.9.9,0,0,0-1.074.61,67,67,0,0,1-3.311,7.1A40.958,40.958,0,0,1,19.8,175c-1.87,2.223-3.992,4.537-6.786,5.571-2.611.966-5.606.811-7.635-1.263-1.928-1.972-2.667-4.88-3.135-7.514a40.147,40.147,0,0,1-.333-10.08,50.029,50.029,0,0,1,1.4-9.093,17.526,17.526,0,0,1,3.766-7.458,21.078,21.078,0,0,1,5.843-4.019,56.523,56.523,0,0,1,7.7-3.281q.909-.313,1.827-.593c1.072-.327.615-2.014-.464-1.684Z" transform="translate(0 -86.222)" fill="#333"/>
          <path id="パス_91539" data-name="パス 91539" d="M194.1,189.471c-.033.033-.166.139-.023.028s-.024.013-.067.039-.109.064-.166.092c-.036.019-.08.033-.115.054a.616.616,0,1,0,.059-.028,3.858,3.858,0,0,1-.552.151c-.046.009-.245.064-.02.008a1.065,1.065,0,0,1-.17.017c-.135.011-.27.016-.406.017s-.247,0-.37-.014a1.322,1.322,0,0,0-.2-.02c.034-.028.182.029.011,0a3.372,3.372,0,0,1-.56-.148c-.071-.026-.182-.1.036.019-.031-.017-.065-.029-.1-.045-.063-.031-.124-.064-.184-.1s-.087-.063-.133-.09c.248.146.116.094.043.023a.873.873,0,1,0-1.235,1.235,4.516,4.516,0,0,0,5.384,0,.873.873,0,1,0-1.235-1.235Z" transform="translate(-120.678 -120.37)" fill="#333"/>
          <path id="パス_91540" data-name="パス 91540" d="M195.881,175.653a12.034,12.034,0,0,1,.283,1.3l-.031-.232a.792.792,0,0,1,.005.179l.031-.232a.4.4,0,0,1-.02.08l.088-.208a.3.3,0,0,1-.028.052l.137-.177a.272.272,0,0,1-.043.042l.177-.137a.837.837,0,0,1-.1.055l.208-.088a.754.754,0,0,1-.173.05l.232-.031a.713.713,0,0,1-.162,0l.232.031c-.061-.009-.121-.024-.182-.032a.659.659,0,0,0-.348-.016.65.65,0,0,0-.325.1.873.873,0,0,0-.313,1.195.837.837,0,0,0,.522.4c.158.021.311.061.473.068a1.545,1.545,0,0,0,.719-.175,1.082,1.082,0,0,0,.586-.708,1.681,1.681,0,0,0-.006-.74c-.07-.417-.167-.831-.274-1.24a.9.9,0,0,0-.4-.522.873.873,0,0,0-1.195.313.917.917,0,0,0-.088.673Z" transform="translate(-124.324 -111.039)" fill="#333"/>
          <path id="パス_91541" data-name="パス 91541" d="M178.478,166.274c-.211.687-.073,2.268,1.228,2.4,1.72-.01,1.812-1.921,1.233-2.819A1.363,1.363,0,0,0,178.478,166.274Z" transform="translate(-113.49 -105.119)" fill="#333"/>
          <path id="パス_91542" data-name="パス 91542" d="M211.468,166.274c.212.687.073,2.268-1.228,2.4-1.72-.01-1.812-1.921-1.233-2.82A1.363,1.363,0,0,1,211.468,166.274Z" transform="translate(-132.76 -105.118)" fill="#333"/>
          <path id="パス_91543" data-name="パス 91543" d="M293.115,135.253a2.858,2.858,0,0,0-2.437-2.116,2.66,2.66,0,0,0-2.457,1.6c-.664,1.4-1.268,2.828-1.887,4.246-.759,1.737-1.513,3.475-2.249,5.222-.83,1.969-1.819,3.856-2.7,5.8a23.638,23.638,0,0,0-1.413,4.038c-.364,1.447-.676,2.91-1.147,4.327-.355,1.069,1.331,1.528,1.684.464.748-2.253,1.047-4.642,1.917-6.855.859-2.183,2.057-4.216,2.953-6.384.524-1.266,1.105-2.613,1.71-4.007q1.03-2.376,2.081-4.742a6.607,6.607,0,0,1,.829-1.695.742.742,0,0,1,.418-.255c.255-.07-.12-.011.131-.022.069,0,.344.059.178,0a1.489,1.489,0,0,1,.706.833.894.894,0,0,0,1.074.61.881.881,0,0,0,.61-1.074Z" transform="translate(-177.352 -84.693)" fill="#333"/>
          <path id="パス_91544" data-name="パス 91544" d="M303.956,161.672a27.183,27.183,0,0,1,1.836-4.623,3.979,3.979,0,0,1,.214-.349c-.2.281.052-.06.011-.043.34-.146.235.637.216.793a21.524,21.524,0,0,1-.564,2.594c-.473,1.87-1.034,3.717-1.474,5.595a13.153,13.153,0,0,1-2.452,5.673,16.237,16.237,0,0,1-2.173,1.714,8.1,8.1,0,0,0-1.925,2.307c-.52.995.986,1.879,1.508.882a6.507,6.507,0,0,1,1.71-2c.271-.2.744-.457,1.071-.7a6.546,6.546,0,0,0,1.125-1.059,15.719,15.719,0,0,0,2.866-6.541c.506-2.1,1.144-4.162,1.637-6.263a7.027,7.027,0,0,0,.317-3.389,1.863,1.863,0,0,0-3.138-.744,8.4,8.4,0,0,0-1.326,2.583q-.625,1.537-1.145,3.115c-.353,1.07,1.333,1.528,1.684.464Z" transform="translate(-189.288 -98.557)" fill="#333"/>
          <path id="パス_91545" data-name="パス 91545" d="M302.9,150.363c.879-2.217,1.748-4.438,2.635-6.652q.3-.747.6-1.492.116-.284.233-.567l.076-.182c-.046.109.054-.125.073-.167.127-.291.244-.6.619-.586.528.024.478.557.45.97a14.949,14.949,0,0,1-.3,1.8q-.255,1.252-.565,2.492a.874.874,0,0,0,1.684.464,30.513,30.513,0,0,0,.924-4.683,2.712,2.712,0,0,0-.573-2.1,2.328,2.328,0,0,0-2.651-.461c-1.015.477-1.327,1.757-1.717,2.716-.513,1.262-1.015,2.528-1.516,3.795q-.827,2.091-1.653,4.184a.879.879,0,0,0,.61,1.074.894.894,0,0,0,1.074-.61Z" transform="translate(-191.608 -88.41)" fill="#333"/>
          <path id="パス_91546" data-name="パス 91546" d="M322.193,150.56a.64.64,0,0,1,.347-.047,1.441,1.441,0,0,1,.492.1.738.738,0,0,1,.459.6,5.684,5.684,0,0,1,.063.856c.007.418-.007.837-.039,1.255-.067.871-.282,1.911-.433,2.888-.161,1.041-.316,2.083-.473,3.125-.162,1.082-.314,2.167-.5,3.246a6.955,6.955,0,0,0,.065,3.092,15.023,15.023,0,0,0,1.271,2.822l1.324,2.559c.517,1,2.024.116,1.508-.881l-1.226-2.37a12.259,12.259,0,0,1-1.26-2.858,8.26,8.26,0,0,1,.185-3.083c.172-1.123.339-2.247.507-3.371.176-1.173.355-2.345.546-3.516a16.987,16.987,0,0,0,.267-2.656,3.736,3.736,0,0,0-.757-2.753,2.833,2.833,0,0,0-3.233-.509c-.941.616-.063,2.126.882,1.508Z" transform="translate(-204.156 -94.62)" fill="#333"/>
          <path id="パス_91547" data-name="パス 91547" d="M305.973,204.967l1.155,3.9.168.567a.873.873,0,1,0,1.684-.464l-1.155-3.9-.168-.568a.873.873,0,0,0-1.684.464Z" transform="translate(-194.634 -129.688)" fill="#333"/>
          <path id="パス_91548" data-name="パス 91548" d="M277.486,201.139a25.722,25.722,0,0,0,3.833,2.146c1.371.659,2.767,1.266,4.166,1.866a.9.9,0,0,0,1.195-.313.879.879,0,0,0-.313-1.194c-1.4-.6-2.794-1.207-4.166-1.866a25.809,25.809,0,0,1-3.833-2.146.88.88,0,0,0-1.194.313A.891.891,0,0,0,277.486,201.139Z" transform="translate(-176.259 -126.923)" fill="#333"/>
          <path id="パス_91549" data-name="パス 91549" d="M82.212,129.921c1.05.092,2.095.227,3.139.364q.815.106,1.629.218l.7.093.317.041c.186.024-.115-.043.088.017.067.02.134.036.2.057.182.052-.056-.051.073.029.073.045.149.083.221.129s-.013-.015-.024-.024c.051.041.1.088.143.132.135.128.011,0,.085.111.011.017.078.146.024.022a1.11,1.11,0,0,1,.042.127.357.357,0,0,1,.032.2c0,.081-.045.4-.005.207-.017.083-.04.164-.058.247-.04.184.044-.03-.028.087-.024.039-.136.222-.08.145.075-.1-.179.17-.089.1.063-.052-.115.07-.161.095-.029.016-.146.053-.013.007a.927.927,0,0,1-.123.038,2.177,2.177,0,0,1-.618.057c-.643-.019-1.293-.126-1.932-.191-.686-.07-1.373-.139-2.058-.218a.878.878,0,0,0-.873.873.894.894,0,0,0,.873.873c.685.079,1.372.148,2.058.218s1.367.192,2.047.193a2.625,2.625,0,0,0,1.609-4.824,3.174,3.174,0,0,0-1.346-.439q-.85-.109-1.7-.226c-1.387-.186-2.776-.378-4.171-.5a.88.88,0,0,0-.873.873.891.891,0,0,0,.873.873Z" transform="translate(-51.741 -81.537)" fill="#333"/>
          <path id="パス_91550" data-name="パス 91550" d="M90.448,142.338c.083.041.159.09.24.134s.074.05-.016-.019c.033.028.066.057.1.087s.061.062.09.094q-.1-.14-.019-.022c.032.057.065.112.1.17-.105-.195.005.055.022.109.019.1.019.092,0-.02,0,.05.007.1.008.15s-.036.342,0,.174a1.749,1.749,0,0,1-.054.2q.069-.158,0-.031t.026-.023c-.047.049-.243.182-.055.07-.073.043-.142.084-.216.124.191-.1.035-.017-.024,0-.078.024-.158.04-.238.058-.156.036.192-.009-.058,0a2.779,2.779,0,0,1-.327-.012q-1.858-.146-3.714-.312a.877.877,0,0,0-.873.873.9.9,0,0,0,.873.873q1.741.158,3.483.294a3.3,3.3,0,0,0,1.729-.255,2.146,2.146,0,0,0,1.192-2.037,2.463,2.463,0,0,0-1.386-2.192.873.873,0,0,0-.881,1.508Z" transform="translate(-54.348 -89.511)" fill="#333"/>
          <path id="パス_91551" data-name="パス 91551" d="M82.731,158.919c-.01.337-.022.673-.046,1.01-.01.139-.021.278-.036.416-.008.073-.016.149-.025.223.016-.124,0,.02-.012.071a6.75,6.75,0,0,1-.171.782q-.057.2-.128.4c-.025.067-.051.134-.078.2-.063.155.084-.173-.036.085a6.365,6.365,0,0,1-.374.7c-.036.055-.071.109-.109.163-.012.018-.138.182-.067.094s-.073.083-.073.081c-.032.036-.065.073-.1.105a3.151,3.151,0,0,1-.261.237c.091-.075.056-.04-.019.008-.049.031-.1.063-.146.092s-.081.046-.122.067c0,0-.2.094-.087.045s-.073.026-.1.034c-.069.024-.14.044-.211.064A.873.873,0,0,0,81,165.478a4.246,4.246,0,0,0,2.67-2.414,10.224,10.224,0,0,0,.808-4.145.88.88,0,0,0-.873-.873.891.891,0,0,0-.873.873Z" transform="translate(-50.823 -100.541)" fill="#333"/>
          <path id="パス_91552" data-name="パス 91552" d="M91.33,151.094c.1.1-.113-.192,0,.007l.022.041q.059.123-.03-.079c.015.105.069.213.089.319.014.073.009.222,0-.055,0,.041.009.083.012.124.005.077.009.156.007.234,0,.1-.048.151.016-.056-.015.048-.02.1-.034.148q-.009.032-.02.062-.048.126.038-.088a1.208,1.208,0,0,0-.063.115c-.015.025-.032.05-.049.073q.133-.166.068-.088c-.039.036-.071.079-.109.116-.079.073-.124.052.032-.017a1.471,1.471,0,0,0-.142.093c-.036.021-.134.05-.156.082l.113-.047c-.033.013-.066.025-.1.036a2.929,2.929,0,0,1-.364.092q-.311.063-.623.121c-.519.1-1.04.18-1.564.259a.872.872,0,0,0-.208,1.595,1.015,1.015,0,0,0,.673.088c.588-.089,1.175-.182,1.758-.3a3.571,3.571,0,0,0,1.726-.7,2.143,2.143,0,0,0,.752-1.651,2.591,2.591,0,0,0-.609-1.769.88.88,0,0,0-1.235,0,.892.892,0,0,0,0,1.235Z" transform="translate(-55.871 -95.17)" fill="#333"/>
          <path id="パス_91553" data-name="パス 91553" d="M68.218,119.952c1.4-.655,2.78-1.339,4.19-1.965,1.209-.538,2.849-.971,3.568-2.2a2.129,2.129,0,0,0-1.468-3.053,7.849,7.849,0,0,0-4.084.473,36.374,36.374,0,0,0-4.319,1.587,13.684,13.684,0,0,0-3.679,2.233,8.667,8.667,0,0,0-2.3,3.032,35.032,35.032,0,0,0-1.313,3.741,80.674,80.674,0,0,0-2.256,9.7.9.9,0,0,0,.61,1.074.881.881,0,0,0,1.074-.61c.473-2.586.97-5.168,1.667-7.7.331-1.2.7-2.4,1.091-3.584a12,12,0,0,1,1.3-2.978,8.7,8.7,0,0,1,2.569-2.346,19.366,19.366,0,0,1,3.447-1.592,31.99,31.99,0,0,1,3.89-1.222c.542-.131,1.994-.518,2.27.213.059.155-.014.166-.13.291a2.95,2.95,0,0,1-.728.509c-.615.341-1.293.572-1.936.855-1.465.646-2.9,1.359-4.348,2.037a.88.88,0,0,0-.313,1.194.892.892,0,0,0,1.194.313Z" transform="translate(-35.961 -71.634)" fill="#333"/>
          <path id="パス_91554" data-name="パス 91554" d="M53.607,168.9a37.149,37.149,0,0,0,4.6,2.952c1.594.919,3.206,1.827,4.871,2.613a.9.9,0,0,0,1.195-.313.881.881,0,0,0-.313-1.195c-1.628-.768-3.2-1.655-4.764-2.552-.856-.493-1.707-1-2.543-1.521-.37-.232-.737-.468-1.1-.713q-.214-.146-.423-.294l-.188-.137c-.194-.142,0,0-.1-.073a.9.9,0,0,0-1.235,0,.879.879,0,0,0,0,1.235Z" transform="translate(-33.937 -106.506)" fill="#333"/>
          <path id="パス_91555" data-name="パス 91555" d="M320.923,182c-.718-1.716-1.437-3.432-2.139-5.155-.357-.877-.738-2.3-2.01-1.892-.681.218-1.346.582-2,.865-2.9,1.253-5.8,2.5-8.713,3.723q-.892.373-1.786.74a1.9,1.9,0,0,0-1.015.664,1.658,1.658,0,0,0-.068,1.33c.392,1.71.809,3.412,1.287,5.1,1.073,3.78,2.339,7.715,4.789,10.847a10.433,10.433,0,0,0,4.31,3.376,8.156,8.156,0,0,0,5.449.109,11.842,11.842,0,0,0,4.763-2.864,18.1,18.1,0,0,0,3.113-4.375,43.719,43.719,0,0,0,5.3-22.582,12.922,12.922,0,0,0-1.037-4.772,12.658,12.658,0,0,0-2.377-3.586A17.233,17.233,0,0,0,321.033,159c-.774-.23-1.56-.414-2.353-.565a.9.9,0,0,0-1.074.611.881.881,0,0,0,.61,1.074c4.843.924,9.872,3.441,11.631,8.367a12.139,12.139,0,0,1,.485,1.777,14.1,14.1,0,0,1,.15,2.345,43.491,43.491,0,0,1-.182,5.1,41.418,41.418,0,0,1-4.118,14.366,26.656,26.656,0,0,1-2.46,4.214c-1.776,2.361-4.677,4.247-7.726,4.092-3.183-.163-5.464-2.95-6.868-5.535a42.513,42.513,0,0,1-3.408-9.562q-.288-1.1-.551-2.213-.114-.477-.223-.954a1.956,1.956,0,0,0-.111-.483c-.182-.286-.2.576-.344.434a2.666,2.666,0,0,0,.247-.1c1.118-.457,2.23-.925,3.342-1.4q3.878-1.639,7.74-3.316l.849-.368.4-.173c.048-.021.1-.04.146-.063.266-.13.06.073-.091.011l-.385-.224q-.017-.1.027.039l.095.235.153.378q.159.393.32.784.3.728.6,1.455.651,1.57,1.31,3.136a.9.9,0,0,0,1.074.61.879.879,0,0,0,.61-1.074Z" transform="translate(-192.816 -100.772)" fill="#333"/>
          <path id="パス_91556" data-name="パス 91556" d="M293.443,121.062a6.2,6.2,0,0,0,2.983.7,4.872,4.872,0,0,0,3.037-.895.873.873,0,0,0,0-1.235.9.9,0,0,0-1.235,0c.272-.21.084-.067.015-.022s-.119.073-.182.1c-.089.047-.275.077-.04.026-.084.018-.168.064-.25.089a4.463,4.463,0,0,1-.7.157c.131-.019.045-.007-.036,0s-.137.012-.206.016c-.166.01-.331.013-.5.012-.148,0-.3-.007-.445-.018l-.2-.018c-.255-.022.171.032-.068-.008a5.187,5.187,0,0,1-.652-.148c-.091-.028-.182-.061-.271-.092-.213-.073.156.077-.036-.015q-.167-.08-.331-.167a.873.873,0,1,0-.881,1.508Z" transform="translate(-186.407 -75.948)" fill="#333"/>
          <path id="パス_91557" data-name="パス 91557" d="M300.2,102.932a13.745,13.745,0,0,1,.318,1.481l-.031-.232a.868.868,0,0,1,0,.2l.031-.232a.467.467,0,0,1-.023.092l.088-.208a.354.354,0,0,1-.032.059l.136-.177a.318.318,0,0,1-.048.048l.176-.137a.943.943,0,0,1-.117.062l.208-.088a.872.872,0,0,1-.2.057l.232-.031a.771.771,0,0,1-.185,0l.232.031c-.07-.01-.139-.027-.209-.036a.663.663,0,0,0-.348-.016.653.653,0,0,0-.324.1.873.873,0,0,0-.313,1.195.837.837,0,0,0,.522.4c.169.023.333.066.506.073a1.631,1.631,0,0,0,.759-.182,1.118,1.118,0,0,0,.614-.734,1.8,1.8,0,0,0-.006-.779c-.079-.477-.187-.95-.308-1.419a.9.9,0,0,0-.4-.522.873.873,0,0,0-1.283.986Z" transform="translate(-190.648 -64.772)" fill="#333"/>
          <path id="パス_91558" data-name="パス 91558" d="M279.784,91.079c-.25.8-.1,2.65,1.424,2.813,2.01,0,2.126-2.237,1.453-3.289A1.592,1.592,0,0,0,279.784,91.079Z" transform="translate(-177.931 -57.173)" fill="#333"/>
          <path id="パス_91559" data-name="パス 91559" d="M318.516,91.23c.244.8.076,2.65-1.446,2.8-2.01-.02-2.11-2.253-1.428-3.3A1.592,1.592,0,0,1,318.516,91.23Z" transform="translate(-200.564 -57.261)" fill="#333"/>
          <path id="パス_91560" data-name="パス 91560" d="M93.724,101.514a6.412,6.412,0,0,0,3.023.8,4.969,4.969,0,0,0,3.029-.713.894.894,0,0,0,.313-1.195.883.883,0,0,0-1.194-.313,2.315,2.315,0,0,1-.327.2c-.032.016-.067.03-.1.047-.089.049.2-.073.055-.023-.094.034-.187.068-.283.1s-.222.06-.334.083c-.057.012-.114.022-.17.031-.085.015-.146.017-.025.005a7.436,7.436,0,0,1-.965.036q-.235-.007-.468-.029c-.012,0-.291-.036-.1-.009-.064-.009-.129-.02-.193-.032a5.1,5.1,0,0,1-.686-.171c-.1-.031-.189-.069-.283-.1s.184.088.052.021c-.039-.02-.08-.036-.12-.057-.116-.057-.228-.12-.34-.182a.873.873,0,0,0-.881,1.508Z" transform="translate(-59.344 -63.541)" fill="#333"/>
          <path id="パス_91561" data-name="パス 91561" d="M101.2,82.807c.1.457.2.919.265,1.382l-.031-.232c.016.116.031.232.047.348l-.031-.232a1.018,1.018,0,0,1,.005.266l.031-.232a.5.5,0,0,1-.026.095l.088-.208a.371.371,0,0,1-.036.06l.136-.176a.234.234,0,0,1-.032.033l.176-.136a.672.672,0,0,1-.143.075l.208-.088a.936.936,0,0,1-.182.05l.232-.031a.787.787,0,0,1-.2,0l.232.031c-.08-.012-.158-.035-.238-.048a.948.948,0,0,0-.673.088.873.873,0,0,0-.313,1.195.85.85,0,0,0,.522.4c.174.029.337.07.516.084a1.632,1.632,0,0,0,.809-.186,1.121,1.121,0,0,0,.6-.747,1.942,1.942,0,0,0-.009-.806l.031.232a16.652,16.652,0,0,0-.3-1.68.88.88,0,0,0-1.074-.61.893.893,0,0,0-.61,1.074Z" transform="translate(-63.993 -51.971)" fill="#333"/>
          <path id="パス_91562" data-name="パス 91562" d="M80.22,69.782c-.284.828-.179,2.758,1.4,2.973,2.1.055,2.281-2.268,1.611-3.383A1.659,1.659,0,0,0,80.22,69.782Z" transform="translate(-50.95 -43.619)" fill="#333"/>
          <path id="パス_91563" data-name="パス 91563" d="M120.565,71.084c.231.845,0,2.765-1.589,2.876-2.094-.08-2.131-2.41-1.391-3.481A1.66,1.66,0,0,1,120.565,71.084Z" transform="translate(-74.522 -44.382)" fill="#333"/>
        </g>
      </g>
      <g id="楕円形_181" data-name="楕円形 181" transform="translate(-15005 -21210)" fill="none" stroke="#333" stroke-width="3">
        <ellipse cx="62.694" cy="62.694" rx="62.694" ry="62.694" stroke="none"/>
        <ellipse cx="62.694" cy="62.694" rx="61.194" ry="61.194" fill="none"/>
      </g>
    </g>
  </g>
</svg>
