<svg xmlns="http://www.w3.org/2000/svg" xmlns:xlink="http://www.w3.org/1999/xlink" width="382.82" height="125.389" viewBox="0 0 382.82 125.389">
  <defs>
    <clipPath id="clip-path">
      <ellipse id="楕円形_114" data-name="楕円形 114" cx="63.18" cy="62.694" rx="63.18" ry="62.694" fill="none" stroke="#333" stroke-width="3"/>
    </clipPath>
  </defs>
  <g id="グループ_10026" data-name="グループ 10026" transform="translate(-283.001 -402.25)">
    <g id="グループ_9762" data-name="グループ 9762" transform="translate(283.012 402.25)">
      <ellipse id="楕円形_105" data-name="楕円形 105" cx="63.18" cy="62.694" rx="63.18" ry="62.694" transform="translate(0 0)" fill="#fff"/>
      <g id="マスクグループ_11" data-name="マスクグループ 11" transform="translate(-0.012 0)" clip-path="url(#clip-path)">
        <g id="グループ_9731" data-name="グループ 9731" transform="translate(9.631 16.367)">
          <path id="パス_90361" data-name="パス 90361" d="M36.789,298.176a34.224,34.224,0,0,1-1.8-4.811,4.707,4.707,0,0,1-4-1.018,13.141,13.141,0,0,1-3.833-6.27c-.818-2.439-.854-6.375.386-8.506a4.035,4.035,0,0,1,3.633-2,4.348,4.348,0,0,1,3.139,1.163l.2.193.4-.3c2.427-1.841,21.3-19.58,23.2-21.769.126-.014.222-.027.222-.027,13.457-1.771,21.749,9.757,25.945,18.81a44.8,44.8,0,0,1,4.067,22.127c-.207.527-.391.969-.538,1.264-.937,2.507-6.021,11.2-12.464,14.768.023,1.345-.018,1.832.105,3.525a8.239,8.239,0,0,0,.4,2.324,5.672,5.672,0,0,0,1.7,2.479,19.127,19.127,0,0,0,5.7,2.885s-3.833,10.773-23.1,10.773-20.848-9.9-20.848-9.9c.858-.337,2.286-.877,2.286-.877a19.134,19.134,0,0,0,5.7-2.885,5.674,5.674,0,0,0,1.7-2.479,8.238,8.238,0,0,0,.4-2.324c.114-1.568.087-2.1.1-3.241a25.026,25.026,0,0,1-8.276-6.853,32.2,32.2,0,0,1-4.43-7.051Z" transform="translate(-6.878 -229.945)" fill="#fff"/>
          <path id="パス_90362" data-name="パス 90362" d="M129.6,372.339c-3.637-14.489-18.138-25.326-32.679-28.81-1.647-1.286-3.382-2.455-4.78-3.361a.5.5,0,0,0-.758.309c-2.416,10.627-5.427,21.514-8.769,31.865l46.986,0Z" transform="translate(-21.378 -252.055)" fill="#fff"/>
          <path id="パス_90363" data-name="パス 90363" d="M48.988,372.343c-3.342-10.351-6.354-21.238-8.769-31.865a.5.5,0,0,0-.758-.309c-1.4.906-3.134,2.075-4.781,3.36C20.14,347.013,5.639,357.85,2,372.339Z" transform="translate(-0.518 -252.055)" fill="#fff"/>
          <path id="パス_90370" data-name="パス 90370" d="M35.017,314.533q2.115-.716,4.249-1.23c1.648-1.285,3.383-2.453,4.782-3.36a.5.5,0,0,1,.758.309c.148.649.3,1.3.457,1.953.087-.066.173-.126.26-.2a5.67,5.67,0,0,0,1.7-2.479,8.238,8.238,0,0,0,.4-2.324c.114-1.568.087-2.1.1-3.241a25.026,25.026,0,0,1-8.276-6.853,32.2,32.2,0,0,1-4.43-7.051,34.222,34.222,0,0,1-1.8-4.811,4.706,4.706,0,0,1-4-1.018,13.141,13.141,0,0,1-3.833-6.27c-.818-2.439-.854-6.375.386-8.506a4.035,4.035,0,0,1,3.633-2,4.348,4.348,0,0,1,3.139,1.163l.2.193.4-.3c2.427-1.841,21.3-19.58,23.2-21.769.126-.014.222-.027.222-.027,13.458-1.771,21.749,9.757,25.945,18.81a44.8,44.8,0,0,1,4.067,22.127c-.207.527-.391.969-.538,1.264-.937,2.507-6.021,11.2-12.464,14.768.023,1.345-.018,1.832.105,3.524a8.239,8.239,0,0,0,.4,2.324,6.709,6.709,0,0,0,.831,1.544c.063-.273.13-.549.192-.822a.5.5,0,0,1,.758-.309c1.4.906,3.134,2.075,4.78,3.361.585.14,1.17.3,1.754.46,7.324-1.252,13.453-5.666,16.241-13.067,1.979-5.254,2.3-11.9,1.958-17.444-1.042-16.9-3.376-36.815-15.356-49.893-9.009-9.834-23.362-12.31-35.836-8.121-8.537,2.867-14.967,7.054-18.993,15.347-2.976,6.13-4.239,13.177-4.622,19.942-.179,3.161-.429,6.316-.788,9.462-.923,8.093-4.651,15.216-5.214,23.373-.3,4.306.4,9.186,2.586,12.906,2.722,4.622,7.534,7.2,12.641,8.265Z" transform="translate(-5.104 -221.828)" fill="#fff37e"/>
          <path id="パス_90372" data-name="パス 90372" d="M62.917,374.943c-2.606-8.071-5.011-16.468-7.09-24.809A38.084,38.084,0,0,0,69.6,352.266a38.472,38.472,0,0,0,13.108-1.894c-2.065,8.264-4.449,16.577-7.03,24.571Z" transform="translate(-14.447 -254.655)" fill="#0c5fe5"/>
          <path id="パス_90395" data-name="パス 90395" d="M34.843,282.476a6.206,6.206,0,0,0-6.719-1.032A5.909,5.909,0,0,0,25,285.437a15.513,15.513,0,0,0,2.227,12.252c1.545,2.317,3.965,4.387,6.935,4.013a1.53,1.53,0,0,0,1.482-1.482,1.491,1.491,0,0,0-1.482-1.482c-4.051.51-6.31-5.389-6.577-8.641-.139-1.706-.135-3.852.921-5.3-.151.208.144-.156.153-.165.057-.053.2-.2.24-.228a2.684,2.684,0,0,1,1.046-.467,3.1,3.1,0,0,1,2.8.64c1.415,1.273,3.519-.818,2.1-2.1h0Z" transform="translate(-6.352 -236.735)" fill="#333"/>
          <path id="パス_90396" data-name="パス 90396" d="M54.216,287.549c-.46,1.5-.16,4.94,2.676,5.234,3.748-.022,3.948-4.186,2.686-6.143-1.033-1.6-4.071-2.269-5.361.909Z" transform="translate(-13.985 -237.877)" fill="#333"/>
          <path id="パス_90397" data-name="パス 90397" d="M92.656,287.549c.461,1.5.161,4.94-2.675,5.233-3.748-.022-3.948-4.186-2.686-6.143C88.328,285.036,91.366,284.37,92.656,287.549Z" transform="translate(-22.41 -237.877)" fill="#333"/>
          <path id="パス_90398" data-name="パス 90398" d="M54.411,341.3c.1-.076.565-.437.323-.249q-.171.131.086-.067c.084-.062.167-.128.246-.2a4.849,4.849,0,0,0,.4-.382,7.262,7.262,0,0,0,.818-1.06,7.133,7.133,0,0,0,1.01-2.49,25.649,25.649,0,0,0,.3-4.605,1.482,1.482,0,0,0-2.965,0c0,.518,0,1.035-.024,1.554-.015.354-.036.707-.061,1.061-.013.186-.025.373-.04.559-.007.092-.015.184-.024.276,0,.035-.048.4-.022.219.023-.16-.022.122-.027.149-.017.092-.036.184-.057.275a4.741,4.741,0,0,1-.157.54c-.01.027-.114.288-.043.119s-.036.076-.05.1c-.077.165-.16.327-.25.486q-.119.209-.253.407c-.045.066-.092.13-.139.195.077-.1.11-.132.005-.02-.125.133-.247.268-.382.393-.024.023-.218.208-.081.081.219-.2-.555.429-.114.091a1.633,1.633,0,0,0-.681.886,1.514,1.514,0,0,0,.15,1.142,1.5,1.5,0,0,0,2.028.532h0Z" transform="translate(-13.503 -249.645)" fill="#333"/>
          <path id="パス_90399" data-name="パス 90399" d="M90.4,332.256c0,2.511-.019,5.274,1.522,7.389a1.519,1.519,0,0,0,2.028.532,1.5,1.5,0,0,0,.532-2.028,6.014,6.014,0,0,1-.489-.79,2.988,2.988,0,0,1-.2-.426c.116.357-.047-.142-.067-.205a4.414,4.414,0,0,1-.2-.932c.033.4-.007-.121-.013-.195-.014-.155-.024-.311-.036-.465-.068-.96-.1-1.918-.1-2.88a1.482,1.482,0,0,0-2.965,0h0Z" transform="translate(-23.394 -249.645)" fill="#333"/>
          <path id="パス_90400" data-name="パス 90400" d="M87.675,328.383c3.679-.84,6.829-3.294,9.391-5.969a41.561,41.561,0,0,0,6.153-8.336,29.459,29.459,0,0,0,1.894-4.1,1.494,1.494,0,0,0-1.035-1.823,1.515,1.515,0,0,0-1.823,1.035c-.194.509-.414,1.007-.626,1.508.178-.422-.179.377-.248.518-.322.655-.675,1.295-1.044,1.924A39.641,39.641,0,0,1,97.1,317.88c-2.628,3.283-5.97,6.676-10.212,7.644-1.86.425-1.073,3.284.788,2.859h0Z" transform="translate(-22.21 -243.778)" fill="#333"/>
          <path id="パス_90401" data-name="パス 90401" d="M35.25,303.883a35.016,35.016,0,0,0,7.566,15.143c3.582,4.179,8.189,7.487,13.725,8.336a1.53,1.53,0,0,0,1.823-1.036,1.493,1.493,0,0,0-1.035-1.823c-5.1-.781-9.121-3.728-12.417-7.573a31.893,31.893,0,0,1-6.8-13.834c-.416-1.861-3.275-1.074-2.859.788h0Z" transform="translate(-9.111 -242.207)" fill="#333"/>
          <path id="パス_90403" data-name="パス 90403" d="M73.535,298.242a25.615,25.615,0,0,1,.6,2.758l-.053-.394a1.681,1.681,0,0,1,.01.381l.053-.394a.961.961,0,0,1-.041.171l.15-.354a.7.7,0,0,1-.061.11l.232-.3a.6.6,0,0,1-.09.089l.3-.232a1.809,1.809,0,0,1-.219.116l.354-.15a1.591,1.591,0,0,1-.368.108l.394-.053a1.494,1.494,0,0,1-.345,0l.394.053c-.13-.019-.258-.05-.388-.067a1.131,1.131,0,0,0-.591-.027,1.107,1.107,0,0,0-.551.176,1.482,1.482,0,0,0-.531,2.028,1.418,1.418,0,0,0,.886.681c.3.041.6.118.9.131a2.9,2.9,0,0,0,1.34-.32,1.949,1.949,0,0,0,1.076-1.283,3.187,3.187,0,0,0-.013-1.375c-.15-.889-.356-1.769-.584-2.641a1.484,1.484,0,0,0-1.823-1.036,1.511,1.511,0,0,0-1.035,1.823h0Z" transform="translate(-18.784 -240.74)" fill="#333"/>
          <path id="パス_90404" data-name="パス 90404" d="M63.6,245.728c.417.932.84,1.862,1.253,2.8q.38.858.749,1.722c.036.084.156.386-.015-.036.027.065.054.13.082.194q.087.207.171.414.153.375.3.753a1.6,1.6,0,0,0,.681.886,1.515,1.515,0,0,0,1.142.15A1.5,1.5,0,0,0,69,250.783c-.85-2.222-1.868-4.379-2.837-6.551a1.487,1.487,0,0,0-2.028-.532,1.527,1.527,0,0,0-.532,2.028h0Z" transform="translate(-16.413 -227.06)" fill="#333"/>
          <path id="パス_90405" data-name="パス 90405" d="M59.5,253.307c-2.393,2.766-5.26,5.208-7.909,7.72-3.822,3.625-7.666,7.23-11.562,10.776-.761.693-1.525,1.384-2.3,2.065-.275.242-.551.484-.829.72-.147.125-.838.672-.328.282a1.532,1.532,0,0,0-.532,2.028,1.492,1.492,0,0,0,2.028.532c3.05-2.334,5.8-5.12,8.612-7.73q5.828-5.419,11.562-10.939c1.13-1.095,2.321-2.167,3.353-3.359,1.243-1.436-.846-3.542-2.1-2.1h0Z" transform="translate(-9.274 -229.472)" fill="#333"/>
          <path id="パス_90406" data-name="パス 90406" d="M68.918,255.8a18.645,18.645,0,0,1,12.369,2.647,29.025,29.025,0,0,1,8.56,8.713,44.864,44.864,0,0,1,7.626,27.718,40.394,40.394,0,0,1-5.219,17.3,1.484,1.484,0,0,0,2.56,1.5,44.725,44.725,0,0,0,4.166-33.5c-2.344-8.835-7.369-18.006-14.912-23.427a21.365,21.365,0,0,0-15.151-3.912,1.529,1.529,0,0,0-1.482,1.482,1.491,1.491,0,0,0,1.482,1.482h0Z" transform="translate(-17.451 -229.433)" fill="#333"/>
          <path id="パス_90407" data-name="パス 90407" d="M34.508,312.537c.408,0-.452-.136-.432-.13-.182-.044-.362-.09-.543-.137q-.675-.178-1.339-.4a19.069,19.069,0,0,1-2.476-1,16.428,16.428,0,0,1-4.409-3.075A16.713,16.713,0,0,1,20.83,297.54c-.9-8.655,3.08-16.558,4.658-24.876a123.215,123.215,0,0,0,1.353-13.956,56.009,56.009,0,0,1,2.406-13.014,30.928,30.928,0,0,1,5.123-10.015,26.193,26.193,0,0,1,7.515-6.3c12.294-6.982,28.9-7.3,39.8,2.538,5.422,4.895,9.075,11.618,11.473,18.44a97.082,97.082,0,0,1,4.587,21.906c.814,7.6,1.715,15.585.184,23.141a21.543,21.543,0,0,1-4.447,9.876,18.919,18.919,0,0,1-7.866,5.461,24.935,24.935,0,0,1-5.106,1.242,1.491,1.491,0,0,0-1.035,1.823,1.521,1.521,0,0,0,1.823,1.035A22.387,22.387,0,0,0,98.646,302.7c3.676-7.65,3.224-16.495,2.585-24.725-1.209-15.564-3.872-32.312-14.165-44.695a33.015,33.015,0,0,0-19.5-11.367,40.233,40.233,0,0,0-22.876,2.82c-6.882,2.891-12.584,7.577-15.942,14.337a46.53,46.53,0,0,0-4.067,12.969c-.813,4.813-.918,9.683-1.372,14.534a54.351,54.351,0,0,1-1.047,7.075c-.509,2.234-1.161,4.432-1.807,6.629-1.291,4.394-2.546,8.854-2.711,13.46a23.986,23.986,0,0,0,2.689,12.516,18.214,18.214,0,0,0,8.673,7.589,25.663,25.663,0,0,0,2.7,1.015,10.107,10.107,0,0,0,2.7.643,1.483,1.483,0,0,0,0-2.965h0Z" transform="translate(-4.585 -221.32)" fill="#333"/>
          <path id="パス_90408" data-name="パス 90408" d="M55.471,351.22a41.676,41.676,0,0,0,13.6,2.051,44.385,44.385,0,0,0,13.6-1.925c1.808-.585,1.035-3.448-.788-2.859a41.528,41.528,0,0,1-12.812,1.819,38.995,38.995,0,0,1-12.81-1.945c-1.812-.61-2.59,2.253-.788,2.859h0Z" transform="translate(-14.09 -254.174)" fill="#333"/>
          <path id="パス_90409" data-name="パス 90409" d="M33.776,342.79c-11.691,2.792-23.305,10.1-29.791,20.627a33.479,33.479,0,0,0-3.932,9.213c-.474,1.849,2.385,2.638,2.859.788,2.844-11.1,11.928-19.494,21.979-24.335a45.023,45.023,0,0,1,9.674-3.433c1.855-.443,1.07-3.3-.788-2.859Z" transform="translate(0 -252.742)" fill="#333"/>
          <path id="パス_90410" data-name="パス 90410" d="M101.008,345.649c11.069,2.577,21.91,9.412,27.957,19.174a30.753,30.753,0,0,1,3.688,8.594c.473,1.847,3.333,1.064,2.859-.788-3.048-11.9-12.78-21.1-23.614-26.236a50.377,50.377,0,0,0-10.1-3.6c-1.856-.432-2.648,2.426-.788,2.859h0Z" transform="translate(-25.865 -252.743)" fill="#333"/>
          <path id="パス_90411" data-name="パス 90411" d="M95.986,372.58c2.155-3.925,4.276-7.869,6.331-11.848a10.32,10.32,0,0,0,1.245-2.76,3.082,3.082,0,0,0-1.012-2.654c-1.448-1.593-3.033-3.069-4.6-4.54l-.3,2.328,2.486-1.423a10.309,10.309,0,0,0,2.465-1.525c1.351-1.443-.3-3.434-1.262-4.577a26.422,26.422,0,0,0-4.176-3.822,50.332,50.332,0,0,0-4.57-3.229,2.119,2.119,0,0,0-2.271-.153c-.852.5-.967,1.5-1.17,2.372q-.686,2.952-1.413,5.893-1.454,5.842-3.1,11.634-1.875,6.616-3.986,13.163c-.586,1.82,2.276,2.6,2.859.788q2.549-7.916,4.759-15.935,1.1-3.985,2.106-7.992.5-1.994.98-3.992.249-1.038.491-2.078c.067-.288.133-.576.2-.864.03-.125.285-.864.068-.659l-.655.381q-.594-.1-.248.083l.244.161c.211.139.422.279.632.421q.672.451,1.335.916c.918.645,1.826,1.307,2.694,2.018a26.989,26.989,0,0,1,2.387,2.178,12.529,12.529,0,0,1,.987,1.13,6.385,6.385,0,0,1,.655.959l.2-.748q.376-.322-.157.031l-.622.356-1.087.623-2.33,1.334a1.5,1.5,0,0,0-.3,2.328c1.324,1.242,2.64,2.493,3.9,3.8.208.215.872.7.932.989-.065-.3-.3.362-.37.488q-.678,1.324-1.367,2.642-2.7,5.177-5.522,10.29c-.919,1.674,1.64,3.171,2.56,1.5h0Z" transform="translate(-20.851 -251.544)" fill="#333"/>
          <path id="パス_90412" data-name="パス 90412" d="M59.312,371.437q-3.9-12.111-7-24.462-.753-3.009-1.453-6.03c-.213-.921-.307-2.039-1.213-2.569a2.211,2.211,0,0,0-2.431.258,44.936,44.936,0,0,0-7.78,6.059c-1.018,1.05-2.8,2.844-2.554,4.451.173,1.14,1.284,1.585,2.175,2.095l3.266,1.865-.3-2.328c-1.532,1.437-3.055,2.887-4.49,4.421a3.319,3.319,0,0,0-1.152,2.582,8.514,8.514,0,0,0,1.274,2.957c2.055,3.977,4.173,7.921,6.325,11.845.918,1.674,3.479.179,2.56-1.5q-2.806-5.119-5.516-10.288-.647-1.241-1.287-2.487c-.1-.2-.231-.406-.316-.617s-.1-.173-.127-.033c.035-.211.626-.675.8-.861,1.3-1.353,2.656-2.645,4.023-3.927a1.5,1.5,0,0,0-.3-2.328l-2.333-1.332-1.089-.622-.622-.355q-.533-.351-.159-.036l.2.748c-.009.241.162-.213.2-.284.116-.192.24-.381.372-.563a11.189,11.189,0,0,1,.864-1.026,25.815,25.815,0,0,1,2.526-2.338c.857-.706,1.749-1.366,2.657-2.006q.659-.465,1.33-.915.316-.212.632-.421l.305-.2q.488-.247-.208-.109l-.654-.381c-.152-.144.05.594.071.686q.119.516.239,1.031.241,1.033.489,2.065.456,1.9.933,3.8,1.024,4.069,2.14,8.116,2.195,7.964,4.732,15.829c.583,1.809,3.447,1.036,2.859-.788h0Z" transform="translate(-9.412 -251.544)" fill="#333"/>
          <path id="パス_90856" data-name="パス 90856" d="M-6270.093-12832.625c1.3-2.522,9.122-2.522,10.425,0s-2.2,6.341-4.81,6.341S-6271.4-12830.1-6270.093-12832.625Z" transform="translate(6320.9 12899.528)" fill="none" stroke="#333" stroke-width="2"/>
        </g>
      </g>
      <g id="楕円形_140" data-name="楕円形 140" transform="translate(0 0)" fill="none" stroke="#333" stroke-width="3">
        <ellipse cx="63.18" cy="62.694" rx="63.18" ry="62.694" stroke="none"/>
        <ellipse cx="63.18" cy="62.694" rx="61.68" ry="61.194" fill="none"/>
      </g>
    </g>
    <g id="グループ_9717" data-name="グループ 9717" transform="translate(431.502 446.221)">
      <g id="合体_64" data-name="合体 64" transform="translate(0 0)" fill="#faf4ed">
        <path d="M 218.3183898925781 44.40450286865234 L 24.71220779418945 44.40450286865234 C 20.8392391204834 44.40450286865234 17.19814491271973 42.89628219604492 14.45964527130127 40.15768814086914 C 11.72108268737793 37.41900253295898 10.21289539337158 33.77762603759766 10.21289539337158 29.9043140411377 L 10.21289539337158 17.29947090148926 L 10.21289539337158 16.60750198364258 L 9.686489105224609 16.15837669372559 C 8.874926567077637 15.46590805053711 8.133551597595215 14.68740749359131 7.483020305633545 13.84447002410889 C 5.264575004577637 10.97031593322754 3.800369739532471 7.654771327972412 2.873854398727417 4.962593078613281 C 4.833695411682129 6.480955123901367 7.520811080932617 8.105881690979004 10.99220848083496 9.242094993591309 L 11.05255222320557 9.261782646179199 L 12.11880207061768 9.609845161437988 L 12.75414562225342 8.685532569885254 C 15.46452045440674 4.74240779876709 19.93483352661133 2.388314008712769 24.71220779418945 2.388314008712769 L 218.3183898925781 2.388314008712769 C 222.1917724609375 2.388314008712769 225.8331451416016 3.896532773971558 228.57177734375 6.635157585144043 C 231.3103942871094 9.373783111572266 232.8186187744141 13.01515769958496 232.8186187744141 16.88850212097168 L 232.8186187744141 29.9043140411377 C 232.8186187744141 33.77765655517578 231.3103942871094 37.41903305053711 228.57177734375 40.15765762329102 C 225.8331451416016 42.89628219604492 222.1917724609375 44.40450286865234 218.3183898925781 44.40450286865234 Z" stroke="none"/>
        <path d="M 218.3183898925781 42.90450286865234 C 221.7910766601562 42.90450286865234 225.0558013916016 41.55231475830078 227.5111083984375 39.09700012207031 C 229.9664306640625 36.64168930053711 231.3186187744141 33.37700271606445 231.3186187744141 29.9043140411377 L 231.3186187744141 16.88850212097168 C 231.3186187744141 13.41581439971924 229.9664306640625 10.15112686157227 227.5111083984375 7.69581413269043 C 225.0558013916016 5.240501403808594 221.7910766601562 3.888314008712769 218.3183898925781 3.888314008712769 L 24.71220779418945 3.888314008712769 C 20.42895889282227 3.888314008712769 16.4207706451416 5.999313831329346 13.99030208587646 9.535220146179199 L 12.71958255767822 11.38387680053711 L 10.52558326721191 10.66765785217285 C 8.890317916870117 10.13242340087891 7.417903423309326 9.491842269897461 6.102962970733643 8.802204132080078 C 6.808953285217285 10.2019214630127 7.657230377197266 11.61525821685791 8.670489311218262 12.92800140380859 C 9.257833480834961 13.68903255462646 9.927239418029785 14.39197063446045 10.66011428833008 15.01728248596191 L 11.71289539337158 15.9155330657959 L 11.71289539337158 29.9043140411377 C 11.71289539337158 33.37696838378906 13.06508255004883 36.64168930053711 15.5203332901001 39.0970344543457 C 17.97552108764648 41.55231475830078 21.23992729187012 42.90450286865234 24.71220779418945 42.90450286865234 L 218.3183898925781 42.90450286865234 M 218.3183898925781 45.90450286865234 L 24.71220779418945 45.90450286865234 C 15.87598896026611 45.90450286865234 8.712895393371582 38.74140930175781 8.712895393371582 29.9043140411377 L 8.712895393371582 17.29947090148926 C 7.868957996368408 16.57940673828125 7.051020622253418 15.73984527587891 6.295520305633545 14.76090812683105 C 1.338301777839661 8.3385009765625 -1.074218744179234e-05 1.434326122762286e-06 -1.074218744179234e-05 1.434326122762286e-06 C -1.074218744179234e-05 1.434326122762286e-06 3.594614267349243 5.242501258850098 11.45880222320557 7.816501617431641 C 11.47848892211914 7.822938919067383 11.4983959197998 7.829439163208008 11.51802062988281 7.835844993591309 C 14.40217685699463 3.639907598495483 19.23595809936523 0.8883139491081238 24.71220779418945 0.8883139491081238 L 218.3183898925781 0.8883139491081238 C 227.155517578125 0.8883139491081238 234.3186187744141 8.051407814025879 234.3186187744141 16.88850212097168 L 234.3186187744141 29.9043140411377 C 234.3186187744141 38.74140930175781 227.155517578125 45.90450286865234 218.3183898925781 45.90450286865234 Z" stroke="none" fill="#333"/>
      </g>
      <rect id="長方形_14860" data-name="長方形 14860" width="175.974" height="5.111" transform="translate(35.025 27.621)" fill="#fff37e"/>
      <path id="パス_94209" data-name="パス 94209" d="M-87.039-16.473a16.665,16.665,0,0,1-3.648,5.985L-89.4-9.405a27.777,27.777,0,0,0,2.3-3.458h4.959v2.755H-87.8v5.225h-2.052a4.693,4.693,0,0,1-.874-.1v1.615a3.6,3.6,0,0,1,.836-.1h7.752V.323a3.568,3.568,0,0,1-.1.893h1.615a4.311,4.311,0,0,1-.076-.874v-3.8H-74.5a3.772,3.772,0,0,1,.874.1V-4.978a3.445,3.445,0,0,1-.836.1h-6.232V-8.664h4.5a5.151,5.151,0,0,1,1.1.1V-10.2a3.234,3.234,0,0,1-1.045.1h-4.56v-2.755h5.434a3.772,3.772,0,0,1,.874.1v-1.615a3.684,3.684,0,0,1-.855.095h-11.1q.475-.931.912-1.938Zm.684,11.59V-8.664h4.218v3.781Zm24.8-8.3h4.712l.057.038-.114.589a20.541,20.541,0,0,1-2.432,7.106A18.893,18.893,0,0,1-61.56-13.186Zm6.232-.19-.646-1.254H-63.1a2.3,2.3,0,0,1-.95-.095v1.634a4.282,4.282,0,0,1,.912-.095h.228A20.151,20.151,0,0,0-60.23-4.123q-.551.779-1.007,1.33A11.025,11.025,0,0,1-65.018.133l1.444,1.33q.38-.38,1.539-1.368a20.024,20.024,0,0,0,2.66-2.926A24.876,24.876,0,0,0-56.867.133l1.292,1.273L-54.169.133l-.969-.551A16.224,16.224,0,0,1-58.5-4.085a25.215,25.215,0,0,0,3.116-8.569A4.174,4.174,0,0,0-55.328-13.376ZM-71.136-3.42a4.549,4.549,0,0,1-1.2.171l.988,1.71.741-.4,4.085-1.634v4.1l-.1.7h1.634a2.44,2.44,0,0,1-.1-.874V-14.8a3.477,3.477,0,0,1,.1-.874h-1.634a2.44,2.44,0,0,1,.1.874v9.842l-2.223.836v-9.443a3.123,3.123,0,0,1,.1-.855h-1.634a3.532,3.532,0,0,1,.1.855v9.88ZM-48.374.057q-.019-.3-.019-1.349A14.737,14.737,0,0,1-46.74-8.531l2.337-3.477v-1.748H-52.5v1.577h6.612l-1.881,2.755a13.924,13.924,0,0,0-1.976,4.18,20.586,20.586,0,0,0-.57,5.3Zm6.916-2.128a3.443,3.443,0,0,0,1.311,1.71,3.642,3.642,0,0,0,2.128.646H-38a3.414,3.414,0,0,0,2.337-.646,4.356,4.356,0,0,0,1.083-1.71,13.062,13.062,0,0,0,.76-4.6v-.019a12.576,12.576,0,0,0-.8-4.655,5.106,5.106,0,0,0-1.1-1.71A3.339,3.339,0,0,0-38-13.68h-.019a3.314,3.314,0,0,0-3.4,2.356,13.18,13.18,0,0,0-.76,4.636A13.642,13.642,0,0,0-41.458-2.071Zm3.477-10.089a1.955,1.955,0,0,1,2,1.52,14.31,14.31,0,0,1,.456,3.971q0,3.781-1.349,5.073A1.463,1.463,0,0,1-38-1.254a1.584,1.584,0,0,1-1.121-.3Q-40.47-2.907-40.47-6.65a10.337,10.337,0,0,1,.646-3.99Q-39.159-12.16-37.981-12.16Zm6.973,10.089A3.443,3.443,0,0,0-29.7-.361a3.642,3.642,0,0,0,2.128.646h.019a3.414,3.414,0,0,0,2.337-.646,4.356,4.356,0,0,0,1.083-1.71,13.062,13.062,0,0,0,.76-4.6v-.019a12.576,12.576,0,0,0-.8-4.655,5.106,5.106,0,0,0-1.1-1.71,3.339,3.339,0,0,0-2.28-.627h-.019a3.314,3.314,0,0,0-3.4,2.356,13.18,13.18,0,0,0-.76,4.636A13.642,13.642,0,0,0-31.008-2.071Zm3.477-10.089a1.955,1.955,0,0,1,2,1.52,14.31,14.31,0,0,1,.456,3.971q0,3.781-1.349,5.073a1.463,1.463,0,0,1-1.121.342,1.584,1.584,0,0,1-1.121-.3Q-30.02-2.907-30.02-6.65a10.337,10.337,0,0,1,.646-3.99Q-28.709-12.16-27.531-12.16ZM-6.669-8.8l-.893-1.235h-6.061q.152-.988.228-1.9.1-.931.171-1.349h8.341a2.614,2.614,0,0,1,.7.1V-14.82a2.969,2.969,0,0,1-.874.1H-20.577a3.058,3.058,0,0,1-.893-.1v1.634a2.44,2.44,0,0,1,.874-.1h5.719q-.152,9.538-6.688,12.939a14.536,14.536,0,0,1,1.33,1.6,8.728,8.728,0,0,1,.855-.7,13.74,13.74,0,0,0,5.491-8.987H-8.36l.114.076A24.2,24.2,0,0,1-9.272-.855q-.057.38-1.349.38a9.5,9.5,0,0,1-2.546-.342L-12.1,1.2h2.432a2.728,2.728,0,0,0,.931-.114q1.5-.608,1.957-6.916.133-1.919.133-2.261Q-6.65-8.455-6.669-8.8ZM13.965-.551V-14.459H-1.52V.323a2.607,2.607,0,0,1-.1.912H.019V1.2a3.772,3.772,0,0,1-.1-.874V-5.719h12.6V-.532q0,.4-.76.4a10.858,10.858,0,0,1-2.679-.4l.931,1.786h2.432Q13.965,1.254,13.965-.551ZM6.916-7.2v-5.833h5.6V-7.2Zm-1.5,0H-.076v-5.833H5.415Zm21.85-2.052a17.734,17.734,0,0,0-2.641-3.477,6.235,6.235,0,0,0-.646-.684l-1.577.836a9.442,9.442,0,0,1,3.61,4.693l1.615-.608A7.944,7.944,0,0,1,27.265-9.253ZM32.148,1.1,34.1.646l-.456-.874a22.966,22.966,0,0,0-3.04-4.123q1.444-2.66,1.653-9.291.038-1.235.1-1.615v-.019l-1.767-.19a8.957,8.957,0,0,1,.114,1.007q.019.589.019,1.254A19.117,19.117,0,0,1,29.45-5.453a8,8,0,0,1-4.693,4.2,11.329,11.329,0,0,1-2.831.779L23.2,1.349l.817-.456A19.994,19.994,0,0,0,26.98-.589H27a10.433,10.433,0,0,0,2.774-2.584A11.069,11.069,0,0,1,31.806.038Q32.148,1.064,32.148,1.1ZM17.917-.494q.3-.114,6.042-2.736l.874-.4V-5.491a5.384,5.384,0,0,1-.912.627A25.293,25.293,0,0,1,20.026-3v-11.21a3.712,3.712,0,0,1,.095-.893H18.506a4.792,4.792,0,0,1,.076.893V-2.47a3.378,3.378,0,0,1-1.292.38l-1.14.076L17.195-.133ZM50.331-8.17a2.038,2.038,0,0,1,.646.1V-9.709a3.712,3.712,0,0,1-.779.1H43.871v-5.263a3.432,3.432,0,0,1,.1-.893H42.332a2.523,2.523,0,0,1,.095.893V-1.216H36.67a3.388,3.388,0,0,1-.855-.1V.323a1.917,1.917,0,0,1,.855-.1H51.851a2.289,2.289,0,0,1,.684.1V-1.311h-.019a3.6,3.6,0,0,1-.836.1H43.871V-8.17Zm7.942-1.387h5.016V-5.32H58.273ZM56.658-2.546h1.71a6.829,6.829,0,0,1-.1-1.406h5a4.27,4.27,0,0,1-.076.836h1.615a4.376,4.376,0,0,1-.1-.931v-6.935H56.829v6.935Q56.829-2.66,56.658-2.546ZM55.632-15.01a3.24,3.24,0,0,1-.931-.1v1.634a2.692,2.692,0,0,1,.931-.1h12.1V-.646q0,.513-.323.513a.625.625,0,0,1-.19-.038,12.883,12.883,0,0,1-3.477-.456l1.2,1.862H67.7a1.31,1.31,0,0,0,1.463-1.5v-13.3h1.615a3.058,3.058,0,0,1,.893.1v-1.634a4.376,4.376,0,0,1-.931.1Zm27.721.95H81l.38,4.978V-5.4l-.133,1.6h1.862l-.133-1.6V-9.082ZM81,0h2.356V-2.147H81Z" transform="translate(124.109 30.481)" fill="#333"/>
    </g>
  </g>
</svg>
