<svg xmlns="http://www.w3.org/2000/svg" xmlns:xlink="http://www.w3.org/1999/xlink" width="128" height="128" viewBox="0 0 128 128">
  <defs>
    <clipPath id="clip-path">
      <circle id="楕円形_106" data-name="楕円形 106" cx="64" cy="64" r="64" transform="translate(0.415 -0.045)" fill="none" stroke="#333" stroke-width="3"/>
    </clipPath>
  </defs>
  <g id="グループ_9768" data-name="グループ 9768" transform="translate(-0.415 0.045)">
    <circle id="楕円形_166" data-name="楕円形 166" cx="64" cy="64" r="64" transform="translate(0.415 -0.044)" fill="#fff"/>
    <g id="マスクグループ_4" data-name="マスクグループ 4" transform="translate(0 0.001)" clip-path="url(#clip-path)">
      <g id="グループ_9723" data-name="グループ 9723" transform="translate(3.316 18.057)">
        <path id="パス_90147" data-name="パス 90147" d="M327.618,55.507a4.48,4.48,0,0,1,3.235-1.185,4.153,4.153,0,0,1,3.731,2.073c1.268,2.2,1.214,6.25.363,8.757a13.528,13.528,0,0,1-3.97,6.439,4.935,4.935,0,0,1-3.8,1.1l-.365-.062A28.989,28.989,0,0,1,325.5,76.18c-.918,2.492-5.78,10.912-12.054,14.832,0,2.454,0,4.378,0,4.378a6.784,6.784,0,0,0,.29,2.4,5.85,5.85,0,0,0,1.753,2.553,19.68,19.68,0,0,0,5.869,2.97l3.083,1.216s-6.137,11.812-25.543,11.812-24.746-11.812-24.746-11.812l3.09-1.216a19.68,19.68,0,0,0,5.869-2.97,5.837,5.837,0,0,0,1.753-2.553,6.785,6.785,0,0,0,.29-2.4s0-1.637,0-4.055a26.819,26.819,0,0,1-7.582-6.527,34.038,34.038,0,0,1-6.459-12.186,4.842,4.842,0,0,1-4.116-1.031,13.528,13.528,0,0,1-3.97-6.439c-.851-2.507-.9-6.558.363-8.757a4.153,4.153,0,0,1,3.731-2.073,4.473,4.473,0,0,1,3.235,1.185s-7.084-28.025,27.711-28.025,29.554,28.025,29.554,28.025Z" transform="translate(-238.012 -7.337)" fill="#fff"/>
        <path id="パス_90152" data-name="パス 90152" d="M350.939,156.113c-4.208-16.995-22.281-29.262-38.978-31.522H270.977c-16.7,2.26-34.769,14.528-38.978,31.522" transform="translate(-230.496 -31.344)" fill="#fff"/>
        <path id="パス_90153" data-name="パス 90153" d="M326.255,113.247c1.418,1.586,3.166,3.911,4.554,5.517a4.4,4.4,0,0,1,.953,3.936c-.533,1.064-6.425,10.513-10.393,13.055-1.253-1.67-6.447-8.879-8.931-11.673.931-.66,13.216-10.346,13.818-10.834Z" transform="translate(-250.382 -28.54)" fill="#fff"/>
        <path id="パス_90154" data-name="パス 90154" d="M289.344,113.247c-1.418,1.586-3.166,3.911-4.554,5.517a4.4,4.4,0,0,0-.953,3.936c.533,1.064,6.425,10.513,10.393,13.055,1.253-1.67,6.447-8.879,8.931-11.673-.931-.66-13.216-10.346-13.818-10.834Z" transform="translate(-243.271 -28.54)" fill="#fff"/>
        <path id="パス_90168" data-name="パス 90168" d="M284.919,28.948c-4.853.215-8.216,1.864-10.552,6.023-1.944,3.461-.486,12.517-3.041,14.962a4.348,4.348,0,0,0-3.683-1.7,5.2,5.2,0,0,0-1.707.329,44.249,44.249,0,0,1-1.391-11.328c-.238-8.439,2.937-16.949,6.917-20.844A31.754,31.754,0,0,1,277.6,9.994a35.191,35.191,0,0,1,21.783-7.16c8.145,0,16.4,2.005,22.412,9.416,8.141,6.277,11.929,11.029,12.52,24.981a36.651,36.651,0,0,1-1.353,11.281,5.307,5.307,0,0,0-1.583-.282,4.269,4.269,0,0,0-4.024,2.266c.482-3.93-2.027-17.774-9.472-20.406,0,0-5.465-3.123-15.448-3.184a63.9,63.9,0,0,0-17.516,2.043Z" transform="translate(-238.539 -1.243)" fill="#fff37e"/>
        <path id="パス_90170" data-name="パス 90170" d="M315.326,152.764c-.718-5.775-1.267-10.1-1.267-10.317a24.1,24.1,0,0,1,.557-3.119c.342-1.641.483-2.4.832-4.121,0,0,.01-.072.027-.195-1.966-2.648-4.317-5.753-5.758-7.374h-2.164c-1.444,1.624-3.8,4.738-5.77,7.39.026.113.04.178.04.178.349,1.722.49,2.48.832,4.121a24.088,24.088,0,0,1,.557,3.119c0,.267-.824,6.705-1.774,14.42h14.4c-.175-1.421-.346-2.8-.508-4.1Z" transform="translate(-247.662 -32.098)" fill="#fff37e"/>
        <path id="パス_90188" data-name="パス 90188" d="M345.971,57.693a31.663,31.663,0,0,0-2.417-11.281c-1.6-3.927-4.063-7.8-8.217-9.332-1.821-.671-2.607,2.239-.8,2.9,3.254,1.2,5.2,4.819,6.366,7.867a29.2,29.2,0,0,1,2.058,9.843,1.506,1.506,0,0,0,3.011,0h0Z" transform="translate(-255.592 -9.685)" fill="#333"/>
        <path id="パス_90189" data-name="パス 90189" d="M325.651,33.3a13.617,13.617,0,0,0-2.28-5.187,8.873,8.873,0,0,0-1.848-1.582,11.935,11.935,0,0,0-2.391-1.323,1.51,1.51,0,0,0-1.852,1.052,1.551,1.551,0,0,0,1.052,1.852c-.5-.2.018.016.145.081.167.087.332.178.495.274.338.2.668.412.991.635.163.113.321.23.48.347s-.255-.208-.053-.04c.065.053.13.105.194.16.237.2.422.482.659.674-.114-.093-.192-.26-.039-.047.048.067.094.135.139.2.085.131.164.265.239.4s.153.288.223.436c.04.084.077.169.115.254.131.287-.108-.283,0,0,.323.858.589,1.73.831,2.614a1.506,1.506,0,0,0,2.9-.8h0Z" transform="translate(-251.567 -6.757)" fill="#333"/>
        <path id="パス_90190" data-name="パス 90190" d="M313.328,32.788a17.526,17.526,0,0,0-3.385-3.538,19.1,19.1,0,0,0-3.592-2.1,18.393,18.393,0,0,0-3.683-1.172,15.224,15.224,0,0,0-4.084-.5,1.539,1.539,0,0,0-1.506,1.506,1.52,1.52,0,0,0,1.506,1.506,11.176,11.176,0,0,1,3.284.39c.613.138,1.222.3,1.822.479.248.075.5.155.741.242.108.038.215.081.324.118.394.136-.254-.126.077.03a14.639,14.639,0,0,1,5.9,4.56,1.553,1.553,0,0,0,2.06.54,1.516,1.516,0,0,0,.54-2.06h0Z" transform="translate(-246.585 -6.839)" fill="#333"/>
        <path id="パス_90191" data-name="パス 90191" d="M286.631,35.523c-4.559.23-8.586,1.852-11.209,5.726-2.2,3.254-1.927,7.386-2.249,11.142a17.812,17.812,0,0,1-.434,2.9,8.208,8.208,0,0,1-.318.983,1.928,1.928,0,0,1-.5.728c-1.405,1.339.726,3.467,2.129,2.129,1.539-1.466,1.828-3.822,2.048-5.824.256-2.33.225-4.7.586-7.014a8.586,8.586,0,0,1,3.156-5.537,11.306,11.306,0,0,1,6.792-2.22c1.929-.1,1.94-3.109,0-3.011h0Z" transform="translate(-240.251 -9.324)" fill="#333"/>
        <path id="パス_90192" data-name="パス 90192" d="M303.667,95.927a11.717,11.717,0,0,0,5.642,1.307,9.193,9.193,0,0,0,5.7-1.685,1.508,1.508,0,0,0,0-2.129,1.553,1.553,0,0,0-2.129,0c.459-.358.112-.091-.005-.015s-.229.139-.348.2c-.062.032-.124.061-.186.093-.2.1-.07-.055.069-.023-.094-.021-.381.143-.48.174a8.524,8.524,0,0,1-1.341.306c.226-.034-.015,0-.115.01-.132.013-.263.024-.4.032q-.476.03-.953.026c-.285,0-.569-.011-.854-.031-.13-.009-.26-.02-.391-.032-.025,0-.5-.075-.177-.019a11.093,11.093,0,0,1-1.253-.278c-.175-.053-.346-.115-.52-.175-.381-.13.233.119-.111-.043q-.322-.152-.637-.318a1.506,1.506,0,1,0-1.519,2.6h0Z" transform="translate(-248.033 -23.533)" fill="#333"/>
        <path id="パス_90193" data-name="パス 90193" d="M310.037,78.639a26.33,26.33,0,0,1,.62,2.839l-.053-.4a1.707,1.707,0,0,1,.011.392l.053-.4a.943.943,0,0,1-.043.176l.152-.36a.672.672,0,0,1-.062.114l.236-.3a.622.622,0,0,1-.093.091l.3-.236a1.786,1.786,0,0,1-.225.119l.36-.152a1.616,1.616,0,0,1-.379.111l.4-.053a1.523,1.523,0,0,1-.356,0l.4.053c-.134-.019-.266-.051-.4-.069a1.149,1.149,0,0,0-.6-.027,1.123,1.123,0,0,0-.56.178,1.5,1.5,0,0,0-.54,2.06,1.44,1.44,0,0,0,.9.692c.309.041.61.12.925.134a2.967,2.967,0,0,0,1.369-.327,1.985,1.985,0,0,0,1.1-1.309,3.259,3.259,0,0,0-.014-1.4c-.154-.915-.366-1.821-.6-2.718a1.506,1.506,0,1,0-2.9.8h0Z" transform="translate(-249.547 -19.511)" fill="#333"/>
        <path id="パス_90194" data-name="パス 90194" d="M290.341,67.81c-.474,1.541-.165,5.085,2.754,5.387,3.858-.023,4.064-4.308,2.764-6.323-1.064-1.649-4.19-2.336-5.519.936Z" transform="translate(-244.874 -16.734)" fill="#333"/>
        <path id="パス_90195" data-name="パス 90195" d="M329.55,67.81c.474,1.541.166,5.085-2.754,5.387-3.858-.023-4.064-4.308-2.765-6.323C325.094,65.224,328.221,64.537,329.55,67.81Z" transform="translate(-253.07 -16.734)" fill="#333"/>
        <path id="パス_90196" data-name="パス 90196" d="M270.917,62.766a6.372,6.372,0,0,0-6.895-1.04,6.054,6.054,0,0,0-3.195,4.107,15.943,15.943,0,0,0,2.335,12.587c1.594,2.373,4.085,4.493,7.134,4.1a1.555,1.555,0,0,0,1.506-1.506,1.514,1.514,0,0,0-1.506-1.506c-4.18.543-6.542-5.522-6.83-8.882-.151-1.758-.155-3.972.926-5.472-.147.2.151-.168.159-.175.071-.068.183-.189.249-.241a2.78,2.78,0,0,1,1.079-.489,3.212,3.212,0,0,1,2.909.647c1.442,1.286,3.579-.836,2.129-2.129h0Z" transform="translate(-237.511 -15.66)" fill="#333"/>
        <path id="パス_90197" data-name="パス 90197" d="M349.458,64.892a3.188,3.188,0,0,1,2.778-.674,2.842,2.842,0,0,1,1.21.516c.089.07.494.534.408.416,1.081,1.5,1.076,3.714.926,5.472-.288,3.36-2.649,9.424-6.83,8.882a1.513,1.513,0,0,0-1.506,1.506,1.544,1.544,0,0,0,1.506,1.506c5.013.65,8.048-4.819,9.3-8.86,1.1-3.57,1.15-9.268-2.364-11.576a6.338,6.338,0,0,0-7.553.685c-1.449,1.293.686,3.416,2.129,2.129h0Z" transform="translate(-258.788 -15.656)" fill="#333"/>
        <path id="パス_90198" data-name="パス 90198" d="M340.79,83.774a33.188,33.188,0,0,1-1.948,5.909c.159-.385-.129.279-.2.42-.133.276-.271.55-.413.821-.351.668-.727,1.323-1.119,1.968a35.683,35.683,0,0,1-7.683,9.147,14.217,14.217,0,0,1-5.708,2.97c-1.886.44-1.088,3.344.8,2.9,4.367-1.018,7.995-4.2,10.845-7.515a38.967,38.967,0,0,0,6.034-9.11c.08-.176.155-.354.23-.532.02-.046.22-.527.156-.378-.081.19.038-.077.045-.093q.116-.268.228-.537c.117-.282.23-.564.338-.849a28.778,28.778,0,0,0,1.3-4.323c.392-1.891-2.51-2.7-2.9-.8h0Z" transform="translate(-252.905 -20.986)" fill="#333"/>
        <path id="パス_90199" data-name="パス 90199" d="M271.27,84.441a36.021,36.021,0,0,0,7.833,15.54c3.7,4.289,8.454,7.68,14.158,8.531a1.555,1.555,0,0,0,1.852-1.052,1.517,1.517,0,0,0-1.052-1.852c-5.254-.784-9.417-3.805-12.829-7.757a32.857,32.857,0,0,1-7.059-14.212c-.429-1.889-3.333-1.089-2.9.8h0Z" transform="translate(-240.193 -20.954)" fill="#333"/>
        <path id="パス_90200" data-name="パス 90200" d="M321.507,9.678c-8.214-9.036-22.1-10.671-33.4-7.409a34.96,34.96,0,0,0-14.905,8.637,32.628,32.628,0,0,0-3.106,3.576c-.752,1.006-1.643,1.891-2.36,2.935a28.8,28.8,0,0,0-3.666,7.96,43.107,43.107,0,0,0-.216,22.629c.477,1.877,3.381,1.082,2.9-.8a40.767,40.767,0,0,1-.4-18.7,29.661,29.661,0,0,1,2.928-7.866,17.334,17.334,0,0,1,1.943-2.868c.862-1,1.652-2.054,2.523-3.05,7.375-8.422,18.65-11.85,29.661-10.671a24.7,24.7,0,0,1,15.964,7.759c1.306,1.437,3.43-.7,2.129-2.129h0Z" transform="translate(-238.025 -0.721)" fill="#333"/>
        <path id="パス_90201" data-name="パス 90201" d="M354.036,52.147a42.315,42.315,0,0,0,1.331-8.884,51.8,51.8,0,0,0-.576-8.628A27.124,27.124,0,0,0,350.52,22.8a29.476,29.476,0,0,0-4.4-4.918c-1.432-1.3-3.567.823-2.129,2.129a22.811,22.811,0,0,1,6.123,8.325,38.216,38.216,0,0,1,2.254,13.656,37.487,37.487,0,0,1-1.233,9.353c-.46,1.882,2.443,2.685,2.9.8h0Z" transform="translate(-258.064 -4.864)" fill="#333"/>
        <path id="パス_90209" data-name="パス 90209" d="M313.208,144.594c-3.2,0-6.4-.067-9.6-.069a1.506,1.506,0,1,0,0,3.011c3.2,0,6.4.067,9.6.069a1.506,1.506,0,0,0,0-3.011Z" transform="translate(-247.825 -36.272)" fill="#333"/>
        <path id="パス_90210" data-name="パス 90210" d="M321.01,158.865c-.54-4.38-1.1-8.757-1.63-13.138a7.287,7.287,0,0,1,.056-2.593c.37-1.844.763-3.684,1.135-5.528.382-1.892-2.52-2.7-2.9-.8-.38,1.882-.787,3.759-1.158,5.642a9.423,9.423,0,0,0-.158,3.136c.532,4.429,1.1,8.853,1.648,13.281a1.553,1.553,0,0,0,1.506,1.506,1.515,1.515,0,0,0,1.506-1.506h0Z" transform="translate(-251.332 -34.096)" fill="#333"/>
        <path id="パス_90211" data-name="パス 90211" d="M302.445,158.865c.546-4.428,1.116-8.852,1.648-13.281a9.42,9.42,0,0,0-.158-3.136c-.371-1.883-.778-3.76-1.158-5.642-.384-1.9-3.287-1.095-2.9.8.365,1.806.743,3.609,1.112,5.413a7.5,7.5,0,0,1,.079,2.708c-.529,4.381-1.091,8.758-1.631,13.138a1.514,1.514,0,0,0,1.506,1.506,1.543,1.543,0,0,0,1.506-1.506h0Z" transform="translate(-247.165 -34.096)" fill="#333"/>
        <path id="パス_90212" data-name="パス 90212" d="M232.957,156.029c3.305-13.112,14.746-22.933,27.009-27.636a49.428,49.428,0,0,1,10.917-2.834,1.515,1.515,0,0,0,1.052-1.852,1.546,1.546,0,0,0-1.852-1.052c-13.865,1.918-27.56,9.952-35.258,21.754a35.975,35.975,0,0,0-4.771,10.82c-.473,1.88,2.429,2.681,2.9.8h0Z" transform="translate(-230.002 -30.86)" fill="#333"/>
        <path id="パス_90213" data-name="パス 90213" d="M378.159,155.228c-3.543-14.054-15.65-24.459-28.736-29.593a49.566,49.566,0,0,0-11.293-2.98,1.556,1.556,0,0,0-1.852,1.052,1.516,1.516,0,0,0,1.052,1.852c13.048,1.8,26.076,9.137,33.386,20.259a33.453,33.453,0,0,1,4.54,10.211c.473,1.878,3.378,1.082,2.9-.8Z" transform="translate(-256.264 -30.86)" fill="#333"/>
        <path id="パス_90214" data-name="パス 90214" d="M324.7,113.8c1.067,1.205,2.06,2.473,3.071,3.726.792.981,1.9,1.947,2.117,3.247.126.744.034.771-.347,1.405-.4.658-.808,1.305-1.229,1.948-1.2,1.83-2.449,3.632-3.812,5.342a20.865,20.865,0,0,1-4.383,4.475l2.06.541c-3.007-4.016-5.842-8.213-9.167-11.978l-.3,2.364c2.488-1.783,4.853-3.765,7.259-5.656,2.291-1.8,4.6-3.585,6.864-5.414a1.516,1.516,0,0,0,0-2.129,1.541,1.541,0,0,0-2.129,0c-2.216,1.787-4.469,3.531-6.707,5.291q-2.273,1.786-4.55,3.567-.8.627-1.609,1.251c.324-.25-.229.176-.335.256s-.207.157-.312.233a1.534,1.534,0,0,0-.3,2.364c3.156,3.573,5.842,7.557,8.7,11.369a1.535,1.535,0,0,0,2.06.54c3.268-2.145,5.69-5.678,7.887-8.836.9-1.293,1.774-2.608,2.587-3.958a5.228,5.228,0,0,0,.184-5.175,17.546,17.546,0,0,0-2.491-3.3c-.977-1.213-1.941-2.438-2.974-3.6-1.287-1.454-3.41.683-2.129,2.129Z" transform="translate(-249.892 -28.031)" fill="#333"/>
        <path id="パス_90215" data-name="パス 90215" d="M287.793,111.674c-.86.972-1.672,1.984-2.485,3-.831,1.034-1.768,2.026-2.526,3.114a5.316,5.316,0,0,0-.462,5.647,67.472,67.472,0,0,0,6.121,8.725,21.088,21.088,0,0,0,4.545,4.391,1.542,1.542,0,0,0,2.06-.541c2.854-3.811,5.54-7.8,8.7-11.368a1.534,1.534,0,0,0-.3-2.364c-.105-.075-.208-.154-.312-.233s-.659-.507-.335-.256q-.806-.623-1.609-1.251-2.279-1.778-4.55-3.567c-2.238-1.76-4.491-3.5-6.707-5.291a1.551,1.551,0,0,0-2.129,0,1.516,1.516,0,0,0,0,2.129c2.268,1.829,4.574,3.613,6.864,5.414,2.406,1.891,4.77,3.873,7.259,5.656l-.3-2.364c-3.325,3.765-6.159,7.962-9.167,11.978l2.06-.54a20.865,20.865,0,0,1-4.383-4.475c-1.363-1.71-2.617-3.512-3.812-5.342-.42-.643-.833-1.29-1.229-1.948-.382-.637-.471-.675-.347-1.405.222-1.3,1.323-2.264,2.117-3.248,1.011-1.253,2-2.52,3.071-3.726,1.281-1.446-.842-3.583-2.129-2.129Z" transform="translate(-242.784 -28.031)" fill="#333"/>
      </g>
    </g>
    <g id="楕円形_130" data-name="楕円形 130" transform="translate(0.415 -0.044)" fill="none" stroke="#333" stroke-width="3">
      <circle cx="64" cy="64" r="64" stroke="none"/>
      <circle cx="64" cy="64" r="62.5" fill="none"/>
    </g>
  </g>
</svg>
