<svg xmlns="http://www.w3.org/2000/svg" xmlns:xlink="http://www.w3.org/1999/xlink" width="125.39" height="125.389" viewBox="0 0 125.39 125.389">
  <defs>
    <clipPath id="clip-path">
      <ellipse id="楕円形_173" data-name="楕円形 173" cx="62.694" cy="62.694" rx="62.694" ry="62.694" transform="translate(-15977.163 -21667.104)" fill="#fff"/>
    </clipPath>
  </defs>
  <g id="グループ_9819" data-name="グループ 9819" transform="translate(16036.158 21436.219)">
    <ellipse id="楕円形_154" data-name="楕円形 154" cx="62.694" cy="62.694" rx="62.694" ry="62.694" transform="translate(-16036.158 -21436.219)" fill="#fff"/>
    <g id="マスクグループ_35" data-name="マスクグループ 35" transform="translate(-58.995 230.884)" clip-path="url(#clip-path)">
      <g id="グループ_9805" data-name="グループ 9805" transform="translate(-37.585 -469.367)">
        <path id="パス_90989" data-name="パス 90989" d="M230.113,94.837c.312-.137,8.861-4.465,9.7-6.544.642-1.588.4-3.842.471-5.447a20.531,20.531,0,0,1-6.62-5.412,21.76,21.76,0,0,1-4.277-8.713c-.371-.017-.6-.03-.6-.03a5.306,5.306,0,0,1-2.464-1.11,8,8,0,0,1-2.066-2.712,12.568,12.568,0,0,1-1.282-6.665,4.186,4.186,0,0,1,.439-1.688,2.968,2.968,0,0,1,2.134-1.419,3.172,3.172,0,0,1,2.326.581c4.9-5.224,10.642-9.358,15.6-14.228-.259,2.192-1.638,6.832-.175,6.4a28.525,28.525,0,0,0,15-10.425c.816,2.723,1.85,6.59,2.8,8.373,1.469,2.754,5.01,9.681,9.375,9.857a3.128,3.128,0,0,1,2.277-.555,2.97,2.97,0,0,1,2.134,1.419,4.2,4.2,0,0,1,.439,1.688,12.578,12.578,0,0,1-1.282,6.665,8,8,0,0,1-2.067,2.712,5.232,5.232,0,0,1-2.715,1.142,22.31,22.31,0,0,1-.711,2.431c-.739,2.006-4.992,9.3-10.264,11.586.089,1.614-.179,3.931.478,5.553.841,2.079,8.591,6.407,8.9,6.544,0,0-8.92,11.138-20.36,11.138S230.113,94.837,230.113,94.837Z" transform="translate(-16125.998 -21209)" fill="#fff"/>
        <path id="パス_90990" data-name="パス 90990" d="M269.456,319.333a21.85,21.85,0,0,0,2.474,9.968l-15.87-.308.061-8.916" transform="translate(-16125.998 -21209)" fill="#fff"/>
        <path id="パス_90991" data-name="パス 90991" d="M234.55,319.333a21.863,21.863,0,0,1-2.474,9.968l15.87-.308-.061-8.916" transform="translate(-16125.998 -21209)" fill="#fff"/>
        <path id="パス_90992" data-name="パス 90992" d="M218.2,349.761c-.083-.108-.161-.22-.235-.336a6.3,6.3,0,0,1-.417-5.281,17.273,17.273,0,0,1,2.71-4.728q3.923-5.358,8.292-10.369c1.135-1.3,2.419-2.66,4.116-2.98a2.555,2.555,0,0,0,1.27,2.678,5.993,5.993,0,0,0,3.061.691A16.992,16.992,0,0,0,248.89,324.7c-.02,3.577.016,4.768,0,8.347a7.512,7.512,0,0,1-.314,2.581c-.736,1.989-2.917,2.947-4.667,4.145-4.553,3.116-6.951,8.8-11.723,11.572a12.32,12.32,0,0,1-11.388.408,7.2,7.2,0,0,1-2.6-1.995Z" transform="translate(-16125.998 -21209)" fill="#fff"/>
        <path id="パス_90993" data-name="パス 90993" d="M285.632,349.761c.083-.108.162-.22.235-.336a6.3,6.3,0,0,0,.417-5.281,17.273,17.273,0,0,0-2.71-4.728q-3.923-5.358-8.292-10.369c-1.135-1.3-2.418-2.66-4.116-2.98a2.554,2.554,0,0,1-1.269,2.678,6,6,0,0,1-3.062.691,16.994,16.994,0,0,1-11.893-4.733c.02,3.577-.016,4.768,0,8.347a7.512,7.512,0,0,0,.313,2.581c.736,1.989,2.917,2.947,4.667,4.145,4.554,3.116,6.952,8.8,11.723,11.572a12.32,12.32,0,0,0,11.388.408A7.189,7.189,0,0,0,285.632,349.761Z" transform="translate(-16125.998 -21209)" fill="#fff"/>
        <path id="パス_90994" data-name="パス 90994" d="M275.592,165.764c1.048,3.678,2.345,9.786,3.191,14.581,4.134,23.429.138,47.345-1.656,70.274-1.861,23.782-3,47.563-4.858,71.345a107.978,107.978,0,0,1-20.973.151,108,108,0,0,1-20.983-.151c-1.861-23.782-3-47.563-4.858-71.345-1.794-22.929-5.791-46.845-1.657-70.274.847-4.795,2.143-10.9,3.192-14.581" transform="translate(-16125.998 -21209)" fill="#fff"/>
        <path id="パス_90995" data-name="パス 90995" d="M212.808,119.327c-.716,10.805-1.237,17.979-.549,23,.429,3.13,2.063,5.36,4.126,6.253a51.678,51.678,0,0,0,10.2,3.345,195.547,195.547,0,0,1-3.56,19.5h54.721c-.785-4.861-2.7-16.53-3.315-20.5l3.135-9.205a29.456,29.456,0,0,0,3.566,2.81c2.291,1.491,6.012,1.776,8.933,1.215,2.245-.431,3.964-3.2,4.132-5.19,1.064-12.548-3.721-28.959-13.08-37.633l-11.29-8.094c-3.216,2.724-12.482,5.465-19.291,5.448a39.188,39.188,0,0,1-19.323-5.448c-2.592.3-8.095,2.961-12.376,7.408-4.731,4.916-5.527,12.369-6.03,17.086" transform="translate(-16125.998 -21209)" fill="#fff"/>
        <path id="パス_90996" data-name="パス 90996" d="M249.325,144.174a7.486,7.486,0,0,0,4.5-.09,33.329,33.329,0,0,0,4.409-2.05,46.182,46.182,0,0,1,4.35-1.87,3.942,3.942,0,0,1,2.909-.271c1.372.61,1.621,2.585.89,3.889a8.16,8.16,0,0,1-3.43,2.8c1.319.046,2.646.6,4.206.136a23.228,23.228,0,0,0,4.907-1.847,6.166,6.166,0,0,1,2.382-.949,2.177,2.177,0,0,1,2.186,1.062c.588,1.229-.535,2.563-1.56,3.475-2.759,2.45-5.586,4.945-8.993,6.37-3.407,1.409-7.56,1.575-10.6-.513a9.316,9.316,0,0,0-2.7-1.658,13.984,13.984,0,0,0-4.132.334" transform="translate(-16125.998 -21209)" fill="#fff"/>
        <path id="パス_90997" data-name="パス 90997" d="M231.515,152.94c7.131,1.365,11.293,1.966,17.959,1.9a100.187,100.187,0,0,0,1.5-13.289c-8.167-1.927-17.4-4.02-25.076-6.254" transform="translate(-16125.998 -21209)" fill="#fff"/>
        <path id="パス_90998" data-name="パス 90998" d="M251.134,85.718c1.642-4.272,6.152-6.474,9.166-7.388a18.042,18.042,0,0,1,20.689,8.9c2.863,5.723,3.127,12.5-.065,17.487-1.043,1.628-3.948,4.661-2.824,6.027-6.607,3.242-23.018,2.954-21.319.9a7.832,7.832,0,0,1-3.625-2.132,12.136,12.136,0,0,1-2.442-4.292,27.347,27.347,0,0,1,.257-19.209Z" transform="translate(-16125.998 -21209)" fill="#fff"/>
        <path id="パス_90999" data-name="パス 90999" d="M243.3,116.586a3.751,3.751,0,0,0-.324-2.642,1.6,1.6,0,0,0-1.61-1c-.53.128-.849.653-1.109,1.132-1.38-.9-3.147-1.54-4.657-.88a3.764,3.764,0,0,0-1.787,4.557,5.731,5.731,0,0,0,3.857,3.444Z" transform="translate(-16125.998 -21209)" fill="#fff"/>
        <path id="パス_91000" data-name="パス 91000" d="M280.285,126.893c-1.235-3.424-3.362-9.437-4.707-9.936a7.715,7.715,0,0,0-1.765-.072,1.1,1.1,0,0,0-.79.463c-1.31,1.522-.765,3.03-.019,4.814a30.636,30.636,0,0,1-5.867-2.292c-1.855-.944-4.58-2.694-5.618-1.5a2.3,2.3,0,0,0-1.9,3.093c-.628.8-.483,1.947-.133,3.124,1.9,6.378,5.344,8.111,11.765,9.914a35.817,35.817,0,0,1,3.216,1.962" transform="translate(-16125.998 -21209)" fill="#fff"/>
        <path id="パス_91001" data-name="パス 91001" d="M249.325,144.174a7.486,7.486,0,0,0,4.5-.09,33.329,33.329,0,0,0,4.409-2.05,46.182,46.182,0,0,1,4.35-1.87,3.942,3.942,0,0,1,2.909-.271c1.372.61,1.621,2.585.89,3.889a8.16,8.16,0,0,1-3.43,2.8c1.319.046,2.646.6,4.206.136a23.228,23.228,0,0,0,4.907-1.847,6.166,6.166,0,0,1,2.382-.949,2.177,2.177,0,0,1,2.186,1.062c.588,1.229-.535,2.563-1.56,3.475-2.759,2.45-5.586,4.945-8.993,6.37-3.407,1.409-7.56,1.575-10.6-.513a9.316,9.316,0,0,0-2.7-1.658,13.984,13.984,0,0,0-4.132.334" transform="translate(-16125.998 -21209)" fill="#fff"/>
        <path id="パス_91002" data-name="パス 91002" d="M284.706,128.636c-1.842-1.49-2.811-2.191-3.741-3.036-2.012,2.133-7.877,7.212-9.659,9.7,2.01,2.122,6.466,7.086,9.827,9.239,2.291,1.491,6.012,1.776,8.933,1.215,2.245-.431,3.964-3.2,4.132-5.19" transform="translate(-16125.998 -21209)" fill="#fff"/>
        <path id="パス_91017" data-name="パス 91017" d="M239.815,88.293c.642-1.588.4-3.842.471-5.447a20.531,20.531,0,0,1-6.62-5.412,21.76,21.76,0,0,1-4.277-8.713c-.371-.017-.6-.03-.6-.03a5.306,5.306,0,0,1-2.464-1.11,8,8,0,0,1-2.066-2.712,12.568,12.568,0,0,1-1.282-6.665,4.186,4.186,0,0,1,.439-1.688A2.968,2.968,0,0,1,225.55,55.1a3.172,3.172,0,0,1,2.326.581c4.9-5.224,10.642-9.358,15.6-14.228-.259,2.192-1.638,6.832-.175,6.4a28.525,28.525,0,0,0,15-10.425c.816,2.723,1.85,6.59,2.8,8.373,1.469,2.754,5.01,9.681,9.375,9.857a3.128,3.128,0,0,1,2.277-.555,2.97,2.97,0,0,1,2.134,1.419,4.2,4.2,0,0,1,.439,1.688,12.578,12.578,0,0,1-1.282,6.665,8,8,0,0,1-2.067,2.712,5.232,5.232,0,0,1-2.715,1.142,22.3,22.3,0,0,1-.711,2.431,27.545,27.545,0,0,1-4.092,6.512,18.282,18.282,0,0,1,15.906,8.442c0-.111.02-.222.019-.332a23.1,23.1,0,0,0-1.271-7.4,58.514,58.514,0,0,1-1.824-6.99,81.412,81.412,0,0,1-1.395-14.7,73.948,73.948,0,0,0-.143-9.981c-.456-6.4-3.319-13.555-7.439-17.53-1.781-1.719-2.3-2.52-4.237-3.573l-3.036-1.648-1.617-.623c-2.864-1.1-5.527-1.634-10.553-1.634a29.305,29.305,0,0,0-18.827,7.36c-5.4,5.169-8.824,14.61-8.392,27.629,0,9.487-.721,16.33-1.734,20.219a48.715,48.715,0,0,0-1.3,9.8c-.037,4.424,4.421,9.276,10.994,7.777,0,0,.775-.2,2.137-.481C234.349,92.6,239.192,89.832,239.815,88.293Z" transform="translate(-16125.998 -21209)" fill="#0c5fe5"/>
        <path id="パス_91019" data-name="パス 91019" d="M271.306,135.3c.124-.173.271-.361.432-.557a2.83,2.83,0,0,0-.489-.234c-6.421-1.8-9.866-3.536-11.765-9.914-.35-1.177-.5-2.32.133-3.124a2.3,2.3,0,0,1,1.9-3.093c1.038-1.2,3.763.552,5.618,1.5A30.636,30.636,0,0,0,273,122.162c-.746-1.784-1.291-3.292.019-4.814a1.1,1.1,0,0,1,.79-.463,7.715,7.715,0,0,1,1.765.072c1.29.478,3.3,6.017,4.546,9.492.322-.315.61-.6.841-.849.75.681,1.533,1.276,2.771,2.259a33.574,33.574,0,0,0-3.189-13.639c-.5-1.047-1.7-2.788-2.844-3.122l-.8.16c-5.557,2.077-15.48,2.332-18.978,1.448l-1.7-.432-.383.358c-2.707,2.523-5.518,5.207-6.647,8.731a26.892,26.892,0,0,0-4.462-3.185,1.944,1.944,0,0,0-1.382-.359,2,2,0,0,0-.918.68l-3.117,3.419,4.469,4.9a27.479,27.479,0,0,0,6.693,5.894,7.047,7.047,0,0,0,.778.375,16.584,16.584,0,0,0-.267,1.961,10.692,10.692,0,0,0-2.675.843,7.4,7.4,0,0,0-3.639,3.554c-.084.188-.153.381-.218.576,2.217.521,4.408,1.033,6.527,1.533a25.475,25.475,0,0,1-.145,2.886,7.844,7.844,0,0,0,3-.352,33.326,33.326,0,0,0,4.409-2.05,46.189,46.189,0,0,1,4.35-1.87,3.942,3.942,0,0,1,2.909-.271c1.372.61,1.621,2.585.89,3.889a8.16,8.16,0,0,1-3.43,2.8c1.319.046,2.646.6,4.206.136a23.283,23.283,0,0,0,4.907-1.847,6.166,6.166,0,0,1,2.382-.949,2.177,2.177,0,0,1,2.186,1.062,1.606,1.606,0,0,1,.146.7,16.161,16.161,0,0,0,2.575-2.46,91.6,91.6,0,0,1-8.059-7.928Z" transform="translate(-16125.998 -21209)" fill="#0c5fe5"/>
        <path id="パス_91056" data-name="パス 91056" d="M220.053,56.679c-.007,6.449-.06,13.181-1.6,19.485a49.055,49.055,0,0,0-1.423,9.9,9.728,9.728,0,0,0,2.919,7.373,10.912,10.912,0,0,0,10.086,2.574c2.014-.423,1.162-3.508-.851-3.085-3.3.694-6.783-.486-8.346-3.623a7.948,7.948,0,0,1-.554-4.27,46.726,46.726,0,0,1,.806-6.076c.6-3.025,1.259-5.965,1.576-9.046a130.844,130.844,0,0,0,.586-13.236,1.6,1.6,0,1,0-3.2,0Z" transform="translate(-16125.998 -21209)" fill="#333"/>
        <path id="パス_91057" data-name="パス 91057" d="M274.3,56.681a81.521,81.521,0,0,0,1.776,16.683c.953,4.249,2.831,8.331,2.7,12.757-.059,2.06,3.141,2.059,3.2,0,.131-4.579-1.681-8.733-2.7-13.1a76.451,76.451,0,0,1-1.776-16.34C277.471,54.624,274.271,54.618,274.3,56.681Z" transform="translate(-16125.998 -21209)" fill="#333"/>
        <path id="パス_91058" data-name="パス 91058" d="M271.373,56.964a1.492,1.492,0,0,1,2.084.276,3.369,3.369,0,0,1,.313,1.7,10.4,10.4,0,0,1-.142,2.13c-.462,2.528-1.722,5.578-4.537,6.082a1.614,1.614,0,0,0-1.117,1.968,1.635,1.635,0,0,0,1.968,1.118c4.5-.807,6.65-5.876,6.989-9.955.178-2.136-.03-4.524-1.872-5.9a4.769,4.769,0,0,0-5.949.323,1.612,1.612,0,0,0,0,2.262,1.634,1.634,0,0,0,2.263,0Z" transform="translate(-16125.998 -21209)" fill="#333"/>
        <path id="パス_91059" data-name="パス 91059" d="M265.6,78.783c2.725-3.328,5.335-7.323,5.479-11.772a1.614,1.614,0,0,0-1.6-1.6,1.633,1.633,0,0,0-1.6,1.6,5.764,5.764,0,0,1-.192,1.42c-.107.471-.239.937-.384,1.4q-.154.486-.323.967c-.127.366.127-.26-.028.065-.078.166-.155.332-.237.5a28.258,28.258,0,0,1-3.377,5.164,1.647,1.647,0,0,0,0,2.263,1.612,1.612,0,0,0,2.262,0Z" transform="translate(-16125.998 -21209)" fill="#333"/>
        <path id="パス_91060" data-name="パス 91060" d="M229.2,54.7a4.77,4.77,0,0,0-5.949-.323c-1.845,1.371-2.05,3.768-1.873,5.9.339,4.079,2.49,9.148,6.99,9.955a1.646,1.646,0,0,0,1.968-1.117,1.615,1.615,0,0,0-1.118-1.969c-2.814-.5-4.075-3.554-4.536-6.082a10.31,10.31,0,0,1-.145-2.008,3.953,3.953,0,0,1,.265-1.735,1.477,1.477,0,0,1,2.135-.359,1.644,1.644,0,0,0,2.263,0,1.613,1.613,0,0,0,0-2.262Z" transform="translate(-16125.998 -21209)" fill="#333"/>
        <path id="パス_91061" data-name="パス 91061" d="M227.025,64.454a27.277,27.277,0,0,0,4.23,12.435c2.911,4.19,7.338,7.92,12.51,8.717a1.653,1.653,0,0,0,1.969-1.118,1.612,1.612,0,0,0-1.118-1.968c-4.467-.688-8.318-3.835-10.785-7.521a24.61,24.61,0,0,1-3.606-10.545,1.65,1.65,0,0,0-1.6-1.6,1.609,1.609,0,0,0-1.6,1.6Z" transform="translate(-16125.998 -21209)" fill="#333"/>
        <path id="パス_91062" data-name="パス 91062" d="M256.831,38.092c.652,2.2,1.24,4.422,2.05,6.567a30.191,30.191,0,0,0,2.179,4.39c1.835,3.186,4.292,6.928,8.033,8a1.6,1.6,0,0,0,.851-3.086c-2.941-.842-4.911-4.38-6.328-6.89a24.351,24.351,0,0,1-1.822-3.733c-.716-2-1.272-4.06-1.877-6.1-.585-1.969-3.674-1.13-3.086.851Z" transform="translate(-16125.998 -21209)" fill="#333"/>
        <path id="パス_91063" data-name="パス 91063" d="M257.158,36.307a28.825,28.825,0,0,1-10.281,8.5,24.73,24.73,0,0,1-3.054,1.2,2.877,2.877,0,0,0-.758.234q-.623.116.455.338a.676.676,0,0,1,.711.407,3.013,3.013,0,0,1,.023-.578c.107-1.666.605-3.309.82-4.965.188-1.447-1.832-2.011-2.731-1.131-5.031,4.923-10.448,9.434-15.6,14.228-1.511,1.406.756,3.665,2.263,2.263,5.15-4.794,10.568-9.306,15.6-14.228l-2.731-1.132c-.248,1.909-.988,3.862-.814,5.805a2.265,2.265,0,0,0,1.507,2.138c1.12.327,2.571-.425,3.587-.817a30.938,30.938,0,0,0,13.266-10C260.672,36.964,258.421,34.683,257.158,36.307Z" transform="translate(-16125.998 -21209)" fill="#333"/>
        <path id="パス_91064" data-name="パス 91064" d="M259.85,21.781c-8.289-3.146-18.067-1.925-25.71,2.362-6.489,3.641-10.448,9.593-12.418,16.687a53.391,53.391,0,0,0-1.669,15.849c.061,2.054,3.262,2.063,3.2,0-.232-7.777.682-16.137,4.948-22.846,3.785-5.952,10.965-9.563,17.844-10.379A27.69,27.69,0,0,1,259,24.867c1.928.731,2.761-2.361.851-3.086Z" transform="translate(-16125.998 -21209)" fill="#333"/>
        <path id="パス_91065" data-name="パス 91065" d="M277.5,56.679a46.088,46.088,0,0,0-1.764-18.007,29.128,29.128,0,0,0-4.383-8.466,22.643,22.643,0,0,0-6.465-5.992c-1.8-1.008-3.413,1.755-1.615,2.763a19.607,19.607,0,0,1,5.76,5.431,26.674,26.674,0,0,1,3.867,7.885,44.533,44.533,0,0,1,1.4,16.386c-.164,2.053,3.036,2.042,3.2,0Z" transform="translate(-16125.998 -21209)" fill="#333"/>
        <path id="パス_91066" data-name="パス 91066" d="M238.577,83.179c-.011.891.02,1.783-.024,2.673a6.918,6.918,0,0,1-.114,1.05c-.042.2-.109.4-.154.6-.079.354.127-.127-.029.1a2.158,2.158,0,0,0-.119.19c-.146.263.232-.245.05-.066-.152.148-.288.311-.443.457s-.341.308-.519.453c-.1.08-.194.157-.292.234.283-.223-.008,0-.126.089A49.772,49.772,0,0,1,230.8,92.6c-.558.3-1.116.614-1.693.875a1.613,1.613,0,0,0-.574,2.19,1.64,1.64,0,0,0,2.189.574,47.89,47.89,0,0,0,4.534-2.471,37.373,37.373,0,0,0,3.261-2.121,9.174,9.174,0,0,0,2.44-2.33,6.679,6.679,0,0,0,.758-2.9c.1-1.076.051-2.159.064-3.238a1.6,1.6,0,1,0-3.2,0Z" transform="translate(-16125.998 -21209)" fill="#333"/>
        <path id="パス_91067" data-name="パス 91067" d="M232.607,321.856a21.9,21.9,0,0,1-1.37,5.11,1.6,1.6,0,0,0,2.351,1.807,1.864,1.864,0,0,0,.735-.956,21.959,21.959,0,0,0,1.37-5.11,1.765,1.765,0,0,0-.161-1.233,1.6,1.6,0,0,0-2.19-.574A1.539,1.539,0,0,0,232.607,321.856Z" transform="translate(-16125.998 -21209)" fill="#333"/>
        <path id="パス_91068" data-name="パス 91068" d="M249.35,325.711c-.01-1.116-.02-2.233-.02-3.35a1.647,1.647,0,0,0-.469-1.131,1.6,1.6,0,0,0-2.731,1.131c0,1.117.01,2.234.02,3.35a1.658,1.658,0,0,0,.469,1.132,1.6,1.6,0,0,0,2.731-1.132Z" transform="translate(-16125.998 -21209)" fill="#333"/>
        <path id="パス_91069" data-name="パス 91069" d="M272.593,326.966a21.517,21.517,0,0,1-1.38-5.2,1.6,1.6,0,0,0-2.925-.382,1.891,1.891,0,0,0-.161,1.233,21.6,21.6,0,0,0,1.38,5.2,1.758,1.758,0,0,0,.735.956,1.6,1.6,0,0,0,2.19-.574,1.552,1.552,0,0,0,.161-1.233Z" transform="translate(-16125.998 -21209)" fill="#333"/>
        <path id="パス_91070" data-name="パス 91070" d="M254.5,322.431c0,1.094-.01,2.187-.02,3.28a1.644,1.644,0,0,0,.469,1.132,1.6,1.6,0,0,0,2.731-1.132c.01-1.093.02-2.186.02-3.28a1.647,1.647,0,0,0-.469-1.131,1.6,1.6,0,0,0-2.731,1.131Z" transform="translate(-16125.998 -21209)" fill="#333"/>
        <path id="パス_91071" data-name="パス 91071" d="M219.58,348.954c-2.712-3.877,1.971-8.691,4.212-11.6q2.251-2.925,4.649-5.736c1.276-1.5,2.623-3.529,4.649-4l-1.968-1.969a4.3,4.3,0,0,0,2.351,4.673c1.88.973,4.274.815,6.3.527a18.507,18.507,0,0,0,10.246-5.007l-2.731-1.131c-.009,1.834,0,3.668,0,5.5,0,1.778.492,4.289-.756,5.741-1.144,1.331-2.979,2.056-4.354,3.129a26,26,0,0,0-3.887,3.9c-2.317,2.768-4.542,6.049-7.972,7.527-3.447,1.485-8.46,1.175-10.992-1.877-1.317-1.586-3.57.688-2.263,2.263,2.288,2.757,6.4,3.868,9.868,3.634a14.648,14.648,0,0,0,9.259-4.267c2.358-2.267,4.15-5.042,6.465-7.349,2.229-2.221,5.885-3.352,7.241-6.342.857-1.886.6-4.167.591-6.188,0-1.893-.013-3.785,0-5.678a1.618,1.618,0,0,0-2.732-1.132,15.161,15.161,0,0,1-6.4,3.672,14.673,14.673,0,0,1-4.148.593c-.717,0-3.224-.061-3.006-1.344a1.623,1.623,0,0,0-1.968-1.968c-2.506.589-4.153,2.6-5.753,4.468q-2.986,3.489-5.766,7.147c-2.992,3.922-7.4,9.435-3.9,14.43C217.989,352.244,220.764,350.646,219.58,348.954Z" transform="translate(-16125.998 -21209)" fill="#333"/>
        <path id="パス_91072" data-name="パス 91072" d="M287.014,350.569c3.494-5-.912-10.509-3.9-14.43q-2.714-3.557-5.612-6.967c-1.642-1.924-3.324-4.041-5.907-4.648a1.623,1.623,0,0,0-1.968,1.968c.206,1.208-2.078,1.33-2.788,1.344a14.692,14.692,0,0,1-4.366-.593,15.174,15.174,0,0,1-6.4-3.672,1.619,1.619,0,0,0-2.732,1.132c.009,1.664,0,3.329,0,4.993a30.277,30.277,0,0,0,.158,5.521c.665,3.611,4.29,4.675,6.737,6.816,2.466,2.158,4.278,4.929,6.5,7.313a15.251,15.251,0,0,0,8.749,5.017c3.883.6,8.651-.307,11.275-3.47,1.306-1.574-.945-3.85-2.262-2.263-2.533,3.052-7.545,3.363-10.993,1.877-3.43-1.478-5.655-4.759-7.972-7.527a26,26,0,0,0-3.887-3.9c-1.378-1.075-3.208-1.8-4.354-3.129-1.244-1.448-.76-3.964-.756-5.741,0-1.834.013-3.668,0-5.5l-2.731,1.131a18.511,18.511,0,0,0,10.246,5.007,11.114,11.114,0,0,0,6.109-.446,4.292,4.292,0,0,0,2.543-4.754l-1.969,1.969c2.026.476,3.373,2.5,4.649,4q2.392,2.813,4.65,5.736c2.24,2.912,6.924,7.726,4.212,11.6C283.067,350.645,285.84,352.246,287.014,350.569Z" transform="translate(-16125.998 -21209)" fill="#333"/>
        <path id="パス_91073" data-name="パス 91073" d="M250.315,196.4c0,9.563-.052,19.128-.09,28.691-.035,9.077-.088,18.155-.092,27.232q0,11.253-.039,22.506-.031,15.1-.04,30.2,0,5.7.02,11.4c.008,1.836-.071,3.706.066,5.538a1.825,1.825,0,0,0,.489,1.309c1.469,1.445,3.734-.816,2.263-2.263.292.288.445,1.465.44.763,0-.282-.015-.563-.02-.845-.018-1.022-.024-2.044-.03-3.067-.022-3.526-.025-7.052-.027-10.578q-.007-14.74.033-29.48.022-12.054.045-24.107c0-8.189.045-16.379.077-24.569q.059-15.213.1-30.427V196.4a1.6,1.6,0,1,0-3.2,0Z" transform="translate(-16125.998 -21209)" fill="#333"/>
        <path id="パス_91074" data-name="パス 91074" d="M222.869,176.618a139.583,139.583,0,0,0-2.472,27.91c.088,9.363.9,18.7,1.791,28.013,1.821,18.967,3.1,37.956,4.3,56.971.683,10.821,1.382,21.641,2.226,32.452a1.654,1.654,0,0,0,1.6,1.6,116.952,116.952,0,0,0,19.963.231c2.042-.152,2.058-3.353,0-3.2a116.956,116.956,0,0,1-19.963-.231l1.6,1.6c-1.487-19.061-2.52-38.152-3.828-57.224-.638-9.309-1.377-18.6-2.279-27.889s-1.822-18.615-2.118-27.961a141.224,141.224,0,0,1,2.267-31.421c.389-2.012-2.7-2.874-3.086-.851Z" transform="translate(-16125.998 -21209)" fill="#333"/>
        <path id="パス_91075" data-name="パス 91075" d="M275.447,171.847a139.658,139.658,0,0,1,3.528,28.559,270.7,270.7,0,0,1-1.485,29.015c-.9,9.707-1.853,19.4-2.555,29.127-.716,9.9-1.334,19.815-1.96,29.725-.709,11.234-1.43,22.467-2.3,33.688l1.6-1.6a116.116,116.116,0,0,1-19.97.23c-2.054-.154-2.044,3.047,0,3.2a116.122,116.122,0,0,0,19.97-.23,1.652,1.652,0,0,0,1.6-1.6c1.564-20.049,2.626-40.132,4.035-60.193.686-9.757,1.556-19.489,2.489-29.226.932-9.717,1.773-19.459,1.8-29.228A145.612,145.612,0,0,0,278.533,171c-.45-2.009-3.536-1.159-3.086.851Z" transform="translate(-16125.998 -21209)" fill="#333"/>
        <path id="パス_91076" data-name="パス 91076" d="M223.026,173.025h54.721a1.6,1.6,0,1,0,0-3.2H223.026a1.6,1.6,0,1,0,0,3.2Z" transform="translate(-16125.998 -21209)" fill="#333"/>
        <path id="パス_91077" data-name="パス 91077" d="M230.4,96.213a38.947,38.947,0,0,0,19.038,5.648c2.059.09,2.055-3.11,0-3.2a35.645,35.645,0,0,1-17.422-5.211c-1.736-1.12-3.342,1.649-1.616,2.763Z" transform="translate(-16125.998 -21209)" fill="#333"/>
        <path id="パス_91078" data-name="パス 91078" d="M230.789,93.29a18.573,18.573,0,0,0-6.862,2.855,27.36,27.36,0,0,0-7.666,6.688c-3.554,4.746-4.441,10.758-5.053,16.494-.218,2.045,2.984,2.03,3.2,0,.539-5.049,1.32-10.381,4.4-14.586a23.561,23.561,0,0,1,6.735-5.833,16.286,16.286,0,0,1,6.1-2.532,1.612,1.612,0,0,0,1.118-1.969,1.641,1.641,0,0,0-1.968-1.117Z" transform="translate(-16125.998 -21209)" fill="#333"/>
        <path id="パス_91079" data-name="パス 91079" d="M272.89,151.356c1.061,6.838,2.21,13.663,3.315,20.5a1.612,1.612,0,0,0,1.968,1.117A1.637,1.637,0,0,0,279.29,171c-1.1-6.832-2.253-13.657-3.315-20.5a1.611,1.611,0,0,0-1.968-1.118,1.639,1.639,0,0,0-1.117,1.969Z" transform="translate(-16125.998 -21209)" fill="#333"/>
        <path id="パス_91080" data-name="パス 91080" d="M224.445,111.62c.3,7.925,1.284,15.782,2.087,23.667.206,2.029,3.408,2.05,3.2,0-.8-7.885-1.782-15.742-2.087-23.667C227.567,109.567,224.366,109.557,224.445,111.62Z" transform="translate(-16125.998 -21209)" fill="#333"/>
        <path id="パス_91081" data-name="パス 91081" d="M225,151.824A145.755,145.755,0,0,1,221.483,171a1.6,1.6,0,1,0,3.086.851,149.249,149.249,0,0,0,3.631-20.027,1.608,1.608,0,0,0-1.6-1.6,1.64,1.64,0,0,0-1.6,1.6Z" transform="translate(-16125.998 -21209)" fill="#333"/>
        <path id="パス_91082" data-name="パス 91082" d="M252.677,86.143c1.271-3.123,4.488-5.092,7.561-6.115A15.874,15.874,0,0,1,270.5,80.2a17.04,17.04,0,0,1,10.957,18.611,13.626,13.626,0,0,1-2.568,6.024c-1.152,1.554-2.5,3.138-2.639,5.149-.141,2.055,3.06,2.047,3.2,0a5.113,5.113,0,0,1,1.192-2.172c.546-.769,1.154-1.5,1.667-2.29a16.151,16.151,0,0,0,2.351-6.678,21.215,21.215,0,0,0-3.137-13.915c-4.53-7.014-13.864-10.613-21.885-8.069-4.355,1.381-8.279,4.1-10.043,8.431a1.612,1.612,0,0,0,1.117,1.968,1.638,1.638,0,0,0,1.969-1.118Z" transform="translate(-16125.998 -21209)" fill="#333"/>
        <path id="パス_91083" data-name="パス 91083" d="M249.428,85.582a29.058,29.058,0,0,0-.8,18.4c.791,2.725,1.956,5.587,4.229,7.409a9.752,9.752,0,0,0,7.922,1.921c2.024-.359,1.167-3.444-.85-3.086-5.394.957-7.7-4.488-8.647-8.785a26.109,26.109,0,0,1,1.231-15.01c.741-1.923-2.352-2.756-3.086-.851Z" transform="translate(-16125.998 -21209)" fill="#333"/>
        <path id="パス_91084" data-name="パス 91084" d="M254.7,111.5c-2.913,2.719-5.757,5.578-7.059,9.438l2.674-.706a31.928,31.928,0,0,0-2.923-2.272,8.184,8.184,0,0,0-3.483-1.741c-1.332-.118-2.171.657-3.008,1.576l-2.728,2.992a1.64,1.64,0,0,0,0,2.263c1.762,1.929,3.512,3.869,5.287,5.786a28.672,28.672,0,0,0,5.316,4.724,7.423,7.423,0,0,0,3.355,1.361,4.674,4.674,0,0,0,3.293-1.227,11.622,11.622,0,0,0,2.8-3.509c1.065-1.769-1.7-3.379-2.763-1.615-.307.509-.573,1.04-.877,1.548-.17.284.094-.042-.175.222-.239.235-.488.458-.744.675-.779.658-1.26.888-2.232.4a13.159,13.159,0,0,1-2.373-1.585c-3.192-2.628-5.845-5.994-8.624-9.038v2.263l1.819-2c.346-.38.691-.761,1.039-1.14q.227-.254.46-.5-.268-.048.015.066a7.94,7.94,0,0,1,2.158,1.345,24.775,24.775,0,0,1,2.126,1.666,1.622,1.622,0,0,0,2.674-.706c1.109-3.29,3.766-5.72,6.235-8.025,1.509-1.408-.757-3.667-2.262-2.263Z" transform="translate(-16125.998 -21209)" fill="#333"/>
        <path id="パス_91085" data-name="パス 91085" d="M245.993,140.447a6.164,6.164,0,0,1,4.391-3.628c1.963-.546,4.631-.864,6.428.274,1.746,1.1,3.353-1.663,1.616-2.763-2.576-1.631-6.315-1.376-9.121-.531a9.374,9.374,0,0,0-6.4,5.8,1.6,1.6,0,0,0,3.086.851Z" transform="translate(-16125.998 -21209)" fill="#333"/>
        <path id="パス_91086" data-name="パス 91086" d="M244.845,117.012a5.065,5.065,0,0,0-1.3-4.9,2.861,2.861,0,0,0-2.726-.668,3.547,3.547,0,0,0-1.938,1.828l2.189-.574a6.955,6.955,0,0,0-5.459-1.194,4.955,4.955,0,0,0-3.382,3.537,5.7,5.7,0,0,0,.828,4.732,7.972,7.972,0,0,0,4.193,2.97,1.615,1.615,0,0,0,1.969-1.118,1.635,1.635,0,0,0-1.118-1.968c-.154-.049-.3-.109-.457-.158-.107-.042-.087-.032.061.029-.063-.028-.126-.057-.189-.088a6.593,6.593,0,0,1-.785-.444c-.061-.041-.387-.286-.124-.076-.107-.086-.212-.176-.313-.269a5.035,5.035,0,0,1-.56-.6c.217.278-.064-.116-.1-.177-.071-.116-.124-.245-.2-.357-.049-.105-.042-.081.021.071-.034-.085-.066-.171-.094-.258-.039-.119-.073-.239-.1-.361s-.01-.426-.019-.071c0-.124-.016-.252-.015-.377s.012-.251.019-.377c-.025.414.012-.031.036-.132.029-.122.07-.24.1-.361.108-.383-.1.124.054-.133.064-.106.117-.217.183-.321.056-.088.3-.331.042-.069.084-.086.174-.174.254-.263.226-.247-.211.1.06-.05.107-.061.211-.126.32-.183-.3.159.149-.04.235-.062s.146-.035.22-.048c-.153.019-.171.023-.053.013.173.008.352,0,.526,0,.335.006-.179-.062.179.026.151.037.3.069.451.114s.3.1.445.151c.329.121-.085-.063.2.09.323.175.644.344.954.543a1.617,1.617,0,0,0,2.189-.574c.09-.163.186-.321.286-.478-.13.2-.047-.01.01,0-.022,0-.239.085-.008.01a.767.767,0,0,1-.607.014c.129.044.132.089.011-.018.03.026.282.3.159.147-.106-.133.054.1.071.125s.139.279.088.159.049.157.057.184c.031.1.054.206.079.31.061.255-.008-.211.012.05.008.107.012.213.012.32,0,.028-.008.337,0,.186s-.052.259-.053.26a1.6,1.6,0,1,0,3.086.851Z" transform="translate(-16125.998 -21209)" fill="#333"/>
        <path id="パス_91087" data-name="パス 91087" d="M278.229,142.11a16.4,16.4,0,0,1-2.482,2.375l.324-.251q-.359.278-.729.536a1.72,1.72,0,0,0-.735.956,1.638,1.638,0,0,0,.161,1.233,1.617,1.617,0,0,0,.957.735,1.581,1.581,0,0,0,1.233-.161,18.222,18.222,0,0,0,3.533-3.16,1.713,1.713,0,0,0,.469-1.132,1.6,1.6,0,0,0-1.6-1.6,1.577,1.577,0,0,0-1.131.469Z" transform="translate(-16125.998 -21209)" fill="#333"/>
        <path id="パス_91088" data-name="パス 91088" d="M277.275,112.644c.738.26,1.433,1.483,1.809,2.214a25.709,25.709,0,0,1,1.6,4.077,32.4,32.4,0,0,1,1.47,8.936c.049,2.056,3.249,2.064,3.2,0a35.5,35.5,0,0,0-1.872-10.662c-.959-2.8-2.279-6.569-5.353-7.65a1.6,1.6,0,0,0-.85,3.085Z" transform="translate(-16125.998 -21209)" fill="#333"/>
        <path id="パス_91089" data-name="パス 91089" d="M262.066,95.666l-1.708-.006a1.646,1.646,0,0,0-1.6,1.6l.057.426a1.6,1.6,0,0,0,.412.706,1.662,1.662,0,0,0,1.131.468l1.708.006A1.781,1.781,0,0,0,263.2,98.4a1.192,1.192,0,0,0,.331-.515,1.21,1.21,0,0,0,.138-.616l-.057-.426a1.6,1.6,0,0,0-.412-.706,1.662,1.662,0,0,0-1.131-.468Z" transform="translate(-16125.998 -21209)" fill="#333"/>
        <path id="パス_91090" data-name="パス 91090" d="M252.636,95.921a3.341,3.341,0,0,1-.442.093l.425-.057a3.185,3.185,0,0,1-.822,0l.425.058-.157-.025a1.645,1.645,0,0,0-1.968,1.117l-.057.425a1.583,1.583,0,0,0,.218.808l.25.324a1.6,1.6,0,0,0,.706.411,5.017,5.017,0,0,0,1.14.105,7.049,7.049,0,0,0,.769-.093,3.243,3.243,0,0,0,.364-.082,1.648,1.648,0,0,0,1.117-1.968l-.161-.382a1.6,1.6,0,0,0-.574-.574l-.382-.161a1.6,1.6,0,0,0-.851,0Z" transform="translate(-16125.998 -21209)" fill="#333"/>
        <path id="パス_91091" data-name="パス 91091" d="M256.567,103.927a1.434,1.434,0,0,0-.283-.072,5.615,5.615,0,0,0-.733-.084,2.425,2.425,0,0,0-.307.013c-.181.02-.363.042-.543.074-.043.008-.086.018-.128.03a1.794,1.794,0,0,0-.956.736,1.192,1.192,0,0,0-.19.6,1.216,1.216,0,0,0,.029.638l.161.382a1.611,1.611,0,0,0,.574.574l.382.161a1.617,1.617,0,0,0,.851,0,1.365,1.365,0,0,1,.2-.041l-.425.057a2.369,2.369,0,0,1,.618,0l-.425-.057a1.5,1.5,0,0,1,.324.078,1.216,1.216,0,0,0,.638.029,1.192,1.192,0,0,0,.6-.19,1.794,1.794,0,0,0,.736-.956l.057-.426a1.588,1.588,0,0,0-.219-.807l-.25-.324a1.6,1.6,0,0,0-.706-.412Z" transform="translate(-16125.998 -21209)" fill="#333"/>
        <path id="パス_91092" data-name="パス 91092" d="M273.1,99.4a3.137,3.137,0,0,1,.293-.192c.244-.144-.159.02.013,0,.287-.03.085-.12,0-.029a1.928,1.928,0,0,1,.378-.009l-.175-.028a2.232,2.232,0,0,1,.242.056c.277.049-.117-.091.011,0,.273.189.011.027.015-.027a1.473,1.473,0,0,1,.122.114q.123.132-.079-.114c.163.235,0-.14.025.019.014.072.1.227.074.3-.023-.2-.028-.241-.014-.115.008.066.014.132.021.2.01.11.019.22.026.33.016.241.025.482.021.723,0,.109-.006.218-.013.327,0,.049-.055.47-.017.24s-.028.127-.038.173c-.028.128-.06.255-.1.38-.032.106-.072.209-.108.314-.058.169.117-.211-.032.05-.113.2-.219.395-.347.584-.189.277.018.04,0,.008a2.13,2.13,0,0,1-.243.267c-.073.074-.156.138-.23.211-.141.14.2-.111-.007,0a2.85,2.85,0,0,0-.559.3c.033-.08.3-.114,0-.006-.091.034-.183.066-.276.1a4.551,4.551,0,0,1-.62.15,1.606,1.606,0,0,0-1.117,1.968,1.646,1.646,0,0,0,1.968,1.118,6.1,6.1,0,0,0,4.92-5.853c.087-1.382-.026-3.134-1.165-4.082a3.819,3.819,0,0,0-4.614-.236,1.754,1.754,0,0,0-.736.956,1.634,1.634,0,0,0,.162,1.233,1.616,1.616,0,0,0,2.189.574Z" transform="translate(-16125.998 -21209)" fill="#333"/>
        <path id="パス_91093" data-name="パス 91093" d="M257.893,82.591c-.024.064-.049.129-.075.192l.161-.382a4.561,4.561,0,0,1-.585,1l.25-.324a4.686,4.686,0,0,1-.821.814l.324-.25a4.584,4.584,0,0,1-.961.563l.382-.161c-.114.048-.23.091-.348.13a1.687,1.687,0,0,0-.956.735,1.6,1.6,0,0,0,1.807,2.351,6.068,6.068,0,0,0,3.908-3.813,1.6,1.6,0,0,0-2.351-1.807l-.323.251a1.589,1.589,0,0,0-.412.706Z" transform="translate(-16125.998 -21209)" fill="#333"/>
        <path id="パス_91094" data-name="パス 91094" d="M262.3,84.256c.019.112.036.223.052.335l-.058-.425a5.857,5.857,0,0,1,.011,1.449l.057-.426a4.009,4.009,0,0,1-.274,1.031l.162-.382a3.086,3.086,0,0,1-.367.625l.25-.323a2.676,2.676,0,0,1-.425.426l.323-.25a2.57,2.57,0,0,1-.529.309l.382-.161c-.065.027-.132.051-.2.074a1.7,1.7,0,0,0-.956.735,1.6,1.6,0,0,0,1.807,2.351,4.182,4.182,0,0,0,1.66-.995A4.612,4.612,0,0,0,265.2,87a6.705,6.705,0,0,0,.18-3.59,1.607,1.607,0,0,0-.735-.957,1.639,1.639,0,0,0-1.233-.161,1.619,1.619,0,0,0-.956.735,1.812,1.812,0,0,0-.161,1.233Z" transform="translate(-16125.998 -21209)" fill="#333"/>
        <path id="パス_91095" data-name="パス 91095" d="M257.5,114.249a31.414,31.414,0,0,0,9.142.443,37.64,37.64,0,0,0,10.686-1.891c1.918-.7,1.09-3.8-.85-3.085a34.542,34.542,0,0,1-9.836,1.776,29.693,29.693,0,0,1-8.291-.329C256.351,110.676,255.5,113.763,257.5,114.249Z" transform="translate(-16125.998 -21209)" fill="#333"/>
        <path id="パス_91096" data-name="パス 91096" d="M272.548,133.36a20.879,20.879,0,0,0-3.428-1.176,19.7,19.7,0,0,1-2.681-1.084,9.473,9.473,0,0,1-3.8-3.281,12.7,12.7,0,0,1-1.293-2.691,9.49,9.49,0,0,1-.539-1.915c-.089-.741.463-1.218.388-1.964-.088-.883-.115-1.1.754-1.335a6.363,6.363,0,0,0,.676-.4c-.021,0-.068.05-.02.047a3.793,3.793,0,0,1,1.545.551,54.307,54.307,0,0,0,8.439,3.594c1.064.313,2.45-.812,1.968-1.968a8.424,8.424,0,0,1-.709-2.082,1.606,1.606,0,0,1,.081-.807c.039-.1.411-.567.064-.365.215-.125.728.028.974,0l.238.014q-.552-.216-.248-.046-.237-.178-.021.023l.087.1c.037.059.234.363.315.5a42.423,42.423,0,0,1,3.093,7.378c.7,1.922,3.788,1.092,3.086-.851s-1.424-3.886-2.251-5.783c-.6-1.374-1.293-3.185-2.6-4.056a4.081,4.081,0,0,0-4.884.588c-1.624,1.894-1.2,4.129-.316,6.242l1.968-1.968a36.884,36.884,0,0,1-6.871-2.863c-1.835-.966-4.388-2.256-6.175-.516l1.131-.469a3.955,3.955,0,0,0-3.443,5.116l.161-1.233c-1.292,1.965-.366,4.485.455,6.457a13.373,13.373,0,0,0,2.879,4.444,13.611,13.611,0,0,0,3.985,2.658q1.267.57,2.587,1.014a18.252,18.252,0,0,1,2.788.9c1.81.985,3.427-1.777,1.616-2.763Z" transform="translate(-16125.998 -21209)" fill="#333"/>
        <path id="パス_91097" data-name="パス 91097" d="M250.83,146.052c3.991.211,7.316-2.391,10.856-3.83.9-.365,3.659-1.865,3.5.107-.116,1.446-1.939,2.275-3.037,2.875-1.475.807-.692,2.879.808,2.982.954.065,1.9.323,2.859.317a11.21,11.21,0,0,0,2.6-.458,19.451,19.451,0,0,0,2.667-.734c.793-.318,1.5-.879,2.307-1.14,2.509-.81-.173,1.743-.723,2.23a37.028,37.028,0,0,1-4.063,3.268c-2.8,1.852-6.281,3.192-9.672,2.413-1.788-.411-2.9-1.548-4.436-2.415-1.631-.919-3.307-.678-5.084-.42a1.612,1.612,0,0,0-1.118,1.968,1.639,1.639,0,0,0,1.968,1.117,4.1,4.1,0,0,1,2.79.2c.923.529,1.675,1.288,2.636,1.768a11.846,11.846,0,0,0,6.145,1.16c4.247-.314,7.926-2.435,11.141-5.1,1.509-1.251,3.388-2.58,4.3-4.357a3.419,3.419,0,0,0-1.777-4.9c-2.317-.872-3.947.727-6.018,1.39a18.364,18.364,0,0,1-3.235.794,18.151,18.151,0,0,1-3.3-.3l.808,2.981c1.882-1.03,3.961-2.368,4.485-4.607.458-1.957-.314-4.289-2.327-5.011-2.4-.861-5.294.813-7.426,1.8-2.476,1.139-4.829,2.858-7.668,2.707-2.058-.108-2.052,3.092,0,3.2Z" transform="translate(-16125.998 -21209)" fill="#333"/>
        <path id="パス_91098" data-name="パス 91098" d="M211.208,119.327c-.321,4.838-.689,9.68-.828,14.527-.1,3.379-.307,7.172.665,10.452a9.306,9.306,0,0,0,3.5,5.076,23.946,23.946,0,0,0,5.692,2.434,87.509,87.509,0,0,0,13.178,3.1,85.29,85.29,0,0,0,16.06,1.52,1.622,1.622,0,0,0,1.542-1.175,71.317,71.317,0,0,0,1.062-7.336,38.659,38.659,0,0,0,.5-6.378A1.641,1.641,0,0,0,251.4,140c-8.383-1.976-16.8-3.858-25.076-6.254-1.982-.573-2.828,2.514-.851,3.086,8.277,2.4,16.693,4.278,25.077,6.254l-1.175-1.543a37.254,37.254,0,0,1-.463,6.073,64.883,64.883,0,0,1-.981,6.79l1.543-1.174a74.969,74.969,0,0,1-13.068-1.028,114.856,114.856,0,0,1-12.87-2.7,52.36,52.36,0,0,1-5.582-1.984,5.917,5.917,0,0,1-3.584-3.362c-1.168-2.9-.878-6.58-.808-9.642.117-5.071.511-10.136.846-15.2.137-2.056-3.064-2.047-3.2,0Z" transform="translate(-16125.998 -21209)" fill="#333"/>
        <path id="パス_91099" data-name="パス 91099" d="M280.517,104.561c6.148,6.075,9.633,14.547,11.279,22.916a47.742,47.742,0,0,1,.842,12.583c-.115,1.607-1.067,3.528-2.692,4.072a11.288,11.288,0,0,1-6.519-.27c-2.42-.8-4.462-2.964-6.257-4.692a67.026,67.026,0,0,1-4.732-5.009l.25,1.939c2.606-3.541,6.384-6.2,9.406-9.37h-2.263c1.2,1.066,2.5,2.03,3.747,3.038,1.589,1.28,3.867-.971,2.262-2.263-1.251-1.008-2.543-1.971-3.746-3.038a1.629,1.629,0,0,0-2.263,0c-3.227,3.385-7.119,6.23-9.906,10.018a1.623,1.623,0,0,0,.25,1.939,67.036,67.036,0,0,0,4.732,5.009,25.854,25.854,0,0,0,6.3,4.968,14.425,14.425,0,0,0,7.588,1.132,7.149,7.149,0,0,0,5.779-3.4c1.246-1.969,1.329-4.2,1.362-6.457a50.035,50.035,0,0,0-.432-7.143,56.718,56.718,0,0,0-3.91-14.684A41.328,41.328,0,0,0,282.78,102.3c-1.466-1.448-3.73.813-2.263,2.263Z" transform="translate(-16125.998 -21209)" fill="#333"/>
        <path id="パス_91100" data-name="パス 91100" d="M244.6,73.381a8.6,8.6,0,0,0,10.228,0,1.6,1.6,0,1,0-2.262-2.263c-.062.06-.312.26-.052.061s-.058.032-.137.08a3.473,3.473,0,0,1-.317.176c-.07.035-.156.063-.222.1.1-.06.345-.131.1-.045a7.341,7.341,0,0,1-1.059.29c-.07.013-.469.1-.058.017a2.52,2.52,0,0,1-.325.034q-.389.032-.778.031c-.237,0-.475-.008-.711-.026a1.508,1.508,0,0,1-.393-.039c.153.076.226.034,0-.006a6.636,6.636,0,0,1-1.074-.284c-.135-.05-.325-.19.052.028-.058-.033-.125-.056-.186-.086-.12-.059-.238-.123-.352-.194-.087-.053-.168-.122-.255-.172.45.26.2.164.067.031a1.6,1.6,0,1,0-2.262,2.263Z" transform="translate(-16125.998 -21209)" fill="#333"/>
        <path id="パス_91101" data-name="パス 91101" d="M248.736,63.928a18.986,18.986,0,0,1,.448,2.051l-.057-.425a1.276,1.276,0,0,1,.008.283l.057-.425a.783.783,0,0,1-.031.127l.161-.382a.5.5,0,0,1-.045.082l.25-.324a.417.417,0,0,1-.067.066l.324-.25a1.406,1.406,0,0,1-.163.086l.383-.161a1.193,1.193,0,0,1-.274.079l.425-.057a1.1,1.1,0,0,1-.257,0l.426.057c-.1-.014-.192-.037-.289-.05a1.216,1.216,0,0,0-.638-.029,1.192,1.192,0,0,0-.6.19,1.6,1.6,0,0,0-.574,2.189l.25.324a1.614,1.614,0,0,0,.706.412c.269.036.53.1.8.115a2.672,2.672,0,0,0,1.248-.306,1.924,1.924,0,0,0,1.029-1.252,2.912,2.912,0,0,0-.01-1.287c-.112-.66-.265-1.315-.435-1.963a1.6,1.6,0,0,0-1.968-1.118,1.62,1.62,0,0,0-.956.736,1.678,1.678,0,0,0-.161,1.232Z" transform="translate(-16125.998 -21209)" fill="#333"/>
        <path id="パス_91102" data-name="パス 91102" d="M238.42,57.974c-.343,1.113-.119,3.674,1.989,3.892,2.787-.017,2.936-3.113,2-4.568C241.638,56.106,239.38,55.611,238.42,57.974Z" transform="translate(-16125.998 -21209)" fill="#333"/>
        <path id="パス_91103" data-name="パス 91103" d="M260.738,57.974c.343,1.113.119,3.674-1.989,3.892-2.787-.017-2.936-3.113-2-4.568C257.52,56.106,259.778,55.611,260.738,57.974Z" transform="translate(-16125.998 -21209)" fill="#333"/>
      </g>
    </g>
    <g id="楕円形_139" data-name="楕円形 139" transform="translate(-16036.158 -21436.219)" fill="none" stroke="#333" stroke-width="3">
      <ellipse cx="62.694" cy="62.694" rx="62.694" ry="62.694" stroke="none"/>
      <ellipse cx="62.694" cy="62.694" rx="61.194" ry="61.194" fill="none"/>
    </g>
  </g>
</svg>
