<svg xmlns="http://www.w3.org/2000/svg" xmlns:xlink="http://www.w3.org/1999/xlink" width="125.389" height="125.389" viewBox="0 0 125.389 125.389">
  <defs>
    <clipPath id="clip-path">
      <ellipse id="楕円形_182" data-name="楕円形 182" cx="62.694" cy="62.694" rx="62.694" ry="62.694" transform="translate(-14871.187 -21323.805)" fill="#fff"/>
    </clipPath>
  </defs>
  <g id="グループ_9826" data-name="グループ 9826" transform="translate(14871 21437)">
    <ellipse id="楕円形_184" data-name="楕円形 184" cx="62.694" cy="62.694" rx="62.694" ry="62.694" transform="translate(-14871 -21437)" fill="#fff"/>
    <g id="マスクグループ_37" data-name="マスクグループ 37" transform="translate(0.187 -113.195)" clip-path="url(#clip-path)">
      <g id="グループ_9825" data-name="グループ 9825" transform="translate(-0.449 2.896)">
        <g id="グループ_9823" data-name="グループ 9823" transform="translate(-14853.081 -21323.805)">
          <g id="グループ_9821" data-name="グループ 9821" transform="translate(0 0)">
            <path id="パス_90972" data-name="パス 90972" d="M165.971,39.477a3.178,3.178,0,0,1,2.541-.743,3,3,0,0,1,2.16,1.429,4.247,4.247,0,0,1,.444,1.7,12.707,12.707,0,0,1-1.3,6.734,8.07,8.07,0,0,1-2.088,2.743c-.739.59-2.074.549-3,.712-.183.628-.366,1.147-.462,1.443-.672,1.824-4.217,7.968-8.8,10.867a15.475,15.475,0,0,0,.556,5.509c1.036,2.56,6.612,5.775,7,5.942,0,0-2.12,12.405-20.539,12.405-13.544,0-15.855-12.855-15.855-12.855.384-.166,5.09-2.937,6.125-5.492.7-1.728.549-4.1.56-6a22.9,22.9,0,0,1-4.291-4.033,21.758,21.758,0,0,1-4.21-8.375l-.238.059a3.361,3.361,0,0,1-2.97-.884,8.07,8.07,0,0,1-2.088-2.743,12.707,12.707,0,0,1-1.3-6.733,4.247,4.247,0,0,1,.444-1.706,3,3,0,0,1,2.156-1.433,3.171,3.171,0,0,1,2.54.743S122.3,17.93,144.786,17.93,165.971,39.477,165.971,39.477Z" transform="translate(-99.198 -1.539)" fill="#fff"/>
            <path id="パス_90973" data-name="パス 90973" d="M135.249,325.976a16.09,16.09,0,0,1-8.776,2.285,5.654,5.654,0,0,1-2.876-.719,2.412,2.412,0,0,1-1.14-2.56c-.165.026.156-.047,0,0,.407-1.359.65-2.061,1.068-3.212a54.733,54.733,0,0,0,14.283.446v1.828A14.279,14.279,0,0,1,135.249,325.976Z" transform="translate(-99.561 -27.614)" fill="#fff"/>
            <path id="パス_90974" data-name="パス 90974" d="M106.876,347.267c-.076-.1-.147-.211-.215-.322a5.953,5.953,0,0,1-.28-5,16.307,16.307,0,0,1,2.661-4.406q3.819-4.975,8.053-9.613c1.1-1.206,2.341-2.459,3.952-2.725a2.412,2.412,0,0,0,1.14,2.56,5.654,5.654,0,0,0,2.876.719A16.045,16.045,0,0,0,136.4,324.27c-.091,3.378-.091,4.5-.183,7.882a7.062,7.062,0,0,1-.352,2.431c-.737,1.862-2.818,2.721-4.5,3.813-4.367,2.845-6.754,8.161-11.319,10.675a11.635,11.635,0,0,1-10.762.14,6.79,6.79,0,0,1-2.412-1.944Z" transform="translate(-98.149 -27.829)" fill="#fff"/>
            <path id="パス_90975" data-name="パス 90975" d="M114.4,177.787c.572,14.886,3.721,122.518,4.723,130.318,3.221,2.361,16.531,2.576,22.113,1.073.217-.059,4.373-102.022,4.253-109.756l.328-20.468Z" transform="translate(-98.874 -15.258)" fill="#fff"/>
            <path id="パス_90976" data-name="パス 90976" d="M99.022,125.973c-.033,5.011,1.139,11.31,1.8,12.731,1.666,3.61,7.6,14.116,12.576,22.568l-.136,1.133c-.294,2.21-.209,6.05-.444,10.187h60l13.427-13.3a237.813,237.813,0,0,0,4.469-29.93c.2-7.313-3.114-31.164-5.689-35.349-3.25-5.282-7.475-6.531-11.7-9.21a99.4,99.4,0,0,0-13.9-6.665l-1.071-.435a24.427,24.427,0,0,0-2.5-3.8c-.082-.1-.112-.258-.239-.3a.442.442,0,0,0-.382.148c-1.209,1.025-8.192,5.491-8.9,6.354-.463,1.082-1.073,2.422-1.232,2.976-.139.464-1.359,2.863-2.152,4.518-.8-1.663-2.031-4.086-2.178-4.552-.168-.553-.785-1.9-1.255-2.983-.694-.879-7.367-5.54-8.533-6.595-.1-.091-.234-.2-.366-.16s-.14.183-.213.284a27.072,27.072,0,0,0-2.216,4.3l-.591.241A100.634,100.634,0,0,0,113.7,84.8c-4.228,2.679-9.807,5.282-12.651,11.784-.969,2.214-2.032,19.773-2.032,29.389Z" transform="translate(-97.553 -6.291)" fill="#fff"/>
            <path id="パス_90987" data-name="パス 90987" d="M122.119,178.511c.678.865.753,3.154,1.621,4.845a18.756,18.756,0,0,0,4.471,5.547c1.731,1.339,4.626,2.775,6.8,1.107,2.062.9,4.426-.487,3.181-3.748,1.358.625,2.811-1.554,2.133-2.864a28.316,28.316,0,0,1-1.988-5.478l1.635-.775c1.646-.539,3.171-2.032,2.665-2.868a6.7,6.7,0,0,0-2.963-2.026c-1.745-.786-5.654-2.743-5.654-2.743" transform="translate(-99.536 -14.547)" fill="#fff"/>
            <path id="パス_90988" data-name="パス 90988" d="M177.034,178.472a32.72,32.72,0,0,1,1.929-5.087,6.1,6.1,0,0,1-2.365.157,2.57,2.57,0,0,1-2.194-1.423,2.1,2.1,0,0,1,.95-2.771,39.747,39.747,0,0,1,7.239-3.518,12.942,12.942,0,0,1,5.282.3,6.97,6.97,0,0,1,4.012,2.743,9.259,9.259,0,0,1,1.524,4.165c.247,2.113-.256,2.051-.347,4.177a9.089,9.089,0,0,1-1.485,4.124,11.582,11.582,0,0,1-3.46,3.916c-1.1.74-1.874.514-3.19.351-1.2-.147-2.533-.376-3.228-1.359a7.211,7.211,0,0,0-.437-.655c-.468-.534-1.25-.623-1.9-.9C177.782,182.028,176.317,180.766,177.034,178.472Z" transform="translate(-104.006 -14.219)" fill="#fff"/>
            <path id="パス_91015" data-name="パス 91015" d="M155.9,21.419c2.417.484,3.819,2.294,4.532,5.076.754,2.94,3.54,8.969,3.318,11.663.065-.005.142-.009.142-.009l2.011-.1a3.205,3.205,0,0,1,2.541-.731,3.108,3.108,0,0,1,1.463.625l1.743-3.228c1.017-2.524,1.957-4.081.777-5.917-1.836-3.017-.75-4.927-1.219-6.805-.985-3.946-2.09-5.089-3.861-6.7-1-.914-2.349-3.639-3.565-4.218a2.6,2.6,0,0,0-3.462,1.043l-3.65-3.561c-.393-2.1-4.845-4.726-8.928-5.928-3.285-.966-6.941-1.686-9.867.094-2.225,1.358-4,3.878-6.606,3.916-.662.009-1.322-.153-1.981-.091-1.554.153-2.709,1.508-3.423,2.894a19.283,19.283,0,0,1-2.215,4.1l.393,1.536a35.273,35.273,0,0,0-4.9,5.172c-1.1,1.428-2.145,3.24-1.554,4.947a9.078,9.078,0,0,1,.929,2.323,9.075,9.075,0,0,1-.366,3.163c-1.378,3.2.62,4.345,1.471,6.352a3.077,3.077,0,0,1,1.136-.406,3.208,3.208,0,0,1,2.541.731l3.595-.471c-1.219-3.657,6.254-5.682,7.618-9.04s8.742-4.976,11.58-7.11Z" transform="translate(-99.133 -0.14)" fill="#0c5fe5"/>
            <path id="パス_91104" data-name="パス 91104" d="M146.089,21.136c-3.209,2.346-7.384,2.959-10.466,5.554-1.3,1.1-1.73,2.673-2.961,3.771-1.364,1.217-2.974,2.126-4.365,3.311-1.526,1.3-2.7,3.1-2.078,5.167.539,1.8,3.363,1.032,2.821-.778-.172-.572-.055-.928.5-1.534a13.552,13.552,0,0,1,2.194-1.823c1.737-1.244,3.784-2.489,4.748-4.479.907-1.873,3.025-2.777,4.857-3.616,2.077-.952,4.372-1.686,6.231-3.045a1.509,1.509,0,0,0,.525-2,1.472,1.472,0,0,0-2-.525Z" transform="translate(-99.873 -1.797)" fill="#333"/>
            <path id="パス_91105" data-name="パス 91105" d="M158.993,24.55c3.04.665,3.357,3.83,4.233,6.325.527,1.5,1.1,2.992,1.591,4.506a16.556,16.556,0,0,1,.964,4.037c.079,1.875,3,1.885,2.925,0-.145-3.416-1.776-6.713-2.86-9.9a20.544,20.544,0,0,0-1.806-4.785,6.77,6.77,0,0,0-4.268-3c-1.835-.4-2.619,2.418-.778,2.821Z" transform="translate(-102.61 -1.861)" fill="#333"/>
            <path id="パス_91106" data-name="パス 91106" d="M165.474,13.578c1.169-2.317,3.657,2.218,4.263,2.952.566.687,1.285,1.226,1.869,1.9a7.983,7.983,0,0,1,1.4,2.412,9.206,9.206,0,0,1,.765,3.308,15.539,15.539,0,0,0,.169,3.382,8.583,8.583,0,0,0,.719,2,4.707,4.707,0,0,1,.749,1.688c.083,1.259-.815,2.712-1.273,3.833a1.474,1.474,0,0,0,1.022,1.8,1.5,1.5,0,0,0,1.8-1.021c.633-1.554,1.5-3.163,1.358-4.893-.133-1.651-1.392-2.855-1.608-4.49-.171-1.294.106-2.589-.141-3.883a15.008,15.008,0,0,0-1.582-4.388,11.565,11.565,0,0,0-2.176-2.709,23.656,23.656,0,0,1-2.468-3.062,4.893,4.893,0,0,0-3.5-2.316,3.912,3.912,0,0,0-3.888,2.011c-.847,1.677,1.677,3.158,2.526,1.476Z" transform="translate(-103.025 -0.864)" fill="#333"/>
            <path id="パス_91107" data-name="パス 91107" d="M158.537,8.026c-.751-3.1-4.779-4.947-7.419-6.042-3.492-1.447-7.924-2.706-11.655-1.5a14.071,14.071,0,0,0-4.543,2.892A8.628,8.628,0,0,1,132.81,4.8a5.551,5.551,0,0,1-2.468.144,5.4,5.4,0,0,0-4.56,2.468c-1.119,1.529-1.5,3.5-2.706,4.96-1.188,1.441.869,3.522,2.069,2.068a23.891,23.891,0,0,0,2.444-4.4,4.991,4.991,0,0,1,1.39-1.8,2.711,2.711,0,0,1,1.958-.328,6.787,6.787,0,0,0,4.449-1.231c1.237-.846,2.285-1.951,3.551-2.751,2.907-1.836,6.765-.772,9.775.252A21.176,21.176,0,0,1,153.3,6.378c.877.561,2.146,1.342,2.408,2.425.442,1.828,3.265,1.055,2.821-.778Z" transform="translate(-99.587 0)" fill="#333"/>
            <path id="パス_91108" data-name="パス 91108" d="M129.242,10.328a37.973,37.973,0,0,0-7.263,5.252c-2.12,1.957-4.508,4.326-5.641,7.022a5.22,5.22,0,0,0-.087,4.224,5.75,5.75,0,0,1,.676,1.667,6.651,6.651,0,0,1-.11,1.761c-.254,1.387-.891,2.5-.664,3.972a7.889,7.889,0,0,0,1.382,3.041c1.019,1.574,3.553.11,2.526-1.477A4.941,4.941,0,0,1,119,33.542c-.068-1.1.624-2.251.756-3.364a6.621,6.621,0,0,0-.2-3.18,9.556,9.556,0,0,1-.8-1.828,3.108,3.108,0,0,1,.424-1.8,22.022,22.022,0,0,1,5-5.855,34.761,34.761,0,0,1,6.531-4.662c1.646-.914.171-3.444-1.476-2.526Z" transform="translate(-98.998 -0.869)" fill="#333"/>
            <path id="パス_91109" data-name="パス 91109" d="M141.212,15.117c.486.008.971.034,1.454.083.112.011.223.025.335.037.246.03-.346-.06.08.013.223.038.446.073.668.118a14.351,14.351,0,0,1,1.448.366c.215.068.428.14.64.218.126.048.251.1.376.147-.194-.08-.014,0,.08.04a10.124,10.124,0,0,1,1.218.664c.183.118.366.241.537.373-.243-.183.091.079.108.1.082.07.162.143.241.216q.26.242.5.508c.057.065.112.131.167.2.261.307-.133-.225.084.117.118.183.241.366.349.549.065.116.126.233.183.352.027.055.176.411.069.144a1.509,1.509,0,0,0,1.8,1.021,1.473,1.473,0,0,0,1.022-1.8,9.215,9.215,0,0,0-4.677-4.909,16.112,16.112,0,0,0-6.674-1.481,1.463,1.463,0,1,0,0,2.925Z" transform="translate(-101.049 -1.046)" fill="#333"/>
            <path id="パス_91110" data-name="パス 91110" d="M153.732,14.065c.118.071.232.147.346.226a1.091,1.091,0,1,0-.1-.08,1.508,1.508,0,0,0,.154.132c.192.171.35.366.526.549-.3-.324-.023-.024.052.091s.141.226.2.343.106.215.158.323c.078.161-.123-.328-.04-.091.022.063.047.125.069.189a5.248,5.248,0,0,1,.191.739c.009.053.016.107.027.159-.091-.419-.029-.218-.018-.108.013.135.021.274.024.406.005.261-.035.516-.04.774,0-.1.053-.347.009-.1-.013.068-.026.134-.041.2-.029.134-.066.268-.105.4a1.463,1.463,0,0,0,2.821.778,6.564,6.564,0,0,0-2.757-7.457,1.463,1.463,0,0,0-1.476,2.526Z" transform="translate(-102.187 -0.973)" fill="#333"/>
            <path id="パス_91111" data-name="パス 91111" d="M133.923,18.147a9.05,9.05,0,0,0-4.4,1.247,25.027,25.027,0,0,0-3.179,2.888,1.463,1.463,0,0,0-.3,1.6,1.508,1.508,0,0,0,1.337.9c-.214-.02-.39-.091-.442-.3-.017-.07.069-.314.05-.334a2.131,2.131,0,0,1-.2.332q-.159.263-.3.536c-.3.57-.576,1.151-.86,1.729-.309.629-.618,1.259-.95,1.877-.145.274-.3.544-.457.806a2.421,2.421,0,0,0-.189.29c0-.01.215-.237.006-.021-1.311,1.353.755,3.424,2.068,2.068a7.969,7.969,0,0,0,1.215-1.885c.427-.814.823-1.646,1.23-2.468.313-.64.7-1.241,1-1.877a2.546,2.546,0,0,0-2.171-3.678l1.035,2.5q1.006-.968,2.018-1.936c.108-.1.214-.206.325-.3.054-.048.116-.091.168-.144.183-.183-.3.194,0,0,.177-.112.35-.227.538-.325.1-.051.2-.1.3-.144-.324.144.1-.029.173-.053a8.045,8.045,0,0,1,1.986-.377,1.5,1.5,0,0,0,1.463-1.463,1.475,1.475,0,0,0-1.463-1.463Z" transform="translate(-99.665 -1.557)" fill="#333"/>
            <path id="パス_91112" data-name="パス 91112" d="M171.25,42.322a1.646,1.646,0,0,1,2.419.421,4.559,4.559,0,0,1,.27,2.011,10.768,10.768,0,0,1-.248,2.334,10.165,10.165,0,0,1-1.783,4.064,2.582,2.582,0,0,1-1.21,1,17.228,17.228,0,0,1-1.989.286,1.472,1.472,0,0,0-1.021,1.8,1.5,1.5,0,0,0,1.8,1.022,9.62,9.62,0,0,0,2.776-.578,6.462,6.462,0,0,0,2.3-2.228,13.63,13.63,0,0,0,2.207-6.152c.246-2.024.23-4.6-1.411-6.073a4.678,4.678,0,0,0-6.175.026,1.474,1.474,0,0,0,0,2.069,1.494,1.494,0,0,0,2.068,0Z" transform="translate(-103.442 -3.354)" fill="#333"/>
            <path id="パス_91113" data-name="パス 91113" d="M166.812,52.13a11.928,11.928,0,0,1-.7,3.219c-.091.268-.178.534-.28.8.165-.428-.146.3-.2.411a28.333,28.333,0,0,1-2.352,3.847c-2.022,2.834-4.778,5.9-8.3,6.727-1.828.431-1.056,3.253.778,2.821,4.229-.994,7.483-4.525,9.933-7.911,2.112-2.918,3.9-6.228,4.045-9.911.077-1.882-2.849-1.879-2.925,0Z" transform="translate(-102.267 -4.353)" fill="#333"/>
            <path id="パス_91114" data-name="パス 91114" d="M124.253,39.49a4.679,4.679,0,0,0-6.175-.026c-1.745,1.568-1.653,4.33-1.358,6.462.533,3.854,3.3,9.753,8.1,8.761a1.463,1.463,0,1,0-.777-2.82c-1.073.221-2.088-.875-2.644-1.654a10.772,10.772,0,0,1-1.7-4.122,10.626,10.626,0,0,1-.2-2.219,4.3,4.3,0,0,1,.274-1.891,1.651,1.651,0,0,1,2.419-.422,1.5,1.5,0,0,0,2.068,0,1.475,1.475,0,0,0,0-2.069Z" transform="translate(-99.058 -3.288)" fill="#333"/>
            <path id="パス_91115" data-name="パス 91115" d="M122.866,49.293a27.383,27.383,0,0,0,4.253,12.486c2.919,4.205,7.36,7.937,12.547,8.736a1.511,1.511,0,0,0,1.8-1.021,1.472,1.472,0,0,0-1.021-1.8c-4.552-.7-8.476-3.915-10.988-7.669a24.591,24.591,0,0,1-3.664-10.732,1.512,1.512,0,0,0-1.463-1.463,1.471,1.471,0,0,0-1.463,1.463Z" transform="translate(-99.6 -4.105)" fill="#333"/>
            <path id="パス_91116" data-name="パス 91116" d="M166.05,21.013c-.457-.059-.167-.017-.067.012.056.016.292.1.053.009s-.011,0,.042.034.136.1.2.133c-.091-.043-.25-.208-.074-.048a2.025,2.025,0,0,1,.149.145,2.392,2.392,0,0,0,.167.19c-.083-.07-.183-.25-.049-.058.174.251.274.532.433.79-.191-.317-.075-.171-.029-.054.02.054.041.107.062.16.05.128.1.256.156.383a19.828,19.828,0,0,0,1.737,3.463,1.464,1.464,0,1,0,2.529-1.476,13.838,13.838,0,0,1-.924-1.652q-.228-.457-.436-.928c-.069-.153-.134-.306-.2-.457.2.452-.005-.019-.053-.14a7.109,7.109,0,0,0-1.21-2.161,3.885,3.885,0,0,0-.985-.814,3.811,3.811,0,0,0-1.5-.457,1.463,1.463,0,0,0-1.035,2.5,1.722,1.722,0,0,0,1.035.428Z" transform="translate(-103.181 -1.552)" fill="#333"/>
            <path id="パス_91117" data-name="パス 91117" d="M123.348,320.181h-.009a1.448,1.448,0,0,0-.886.314,1.549,1.549,0,0,0-.525.76q-.188.527-.4,1.041l.147-.349q-.266.628-.57,1.239c-.1.2-.208.4-.317.6a2.477,2.477,0,0,0-.443,1.181,1.51,1.51,0,0,0,.429,1.035,1.463,1.463,0,0,0,2.5-1.035v-.009l-.2.739a22.772,22.772,0,0,0,1.683-3.668l-1.411,1.073h.009a1.508,1.508,0,0,0,1.034-.428,1.463,1.463,0,0,0-1.034-2.5Z" transform="translate(-99.383 -27.478)" fill="#333"/>
            <path id="パス_91119" data-name="パス 91119" d="M108,346.394c-2.5-3.748,2.153-8.3,4.349-11.009q2.178-2.688,4.479-5.272c1.244-1.4,2.534-3.225,4.465-3.633l-1.8-1.8a4.036,4.036,0,0,0,2.476,4.543,10.855,10.855,0,0,0,5.693.439,17.51,17.51,0,0,0,9.625-4.5l-2.5-1.035c-.049,1.765-.081,3.531-.118,5.3-.034,1.623.336,3.956-.815,5.266-1.106,1.261-2.873,1.891-4.205,2.887a24.972,24.972,0,0,0-3.706,3.542c-2.278,2.59-4.469,5.7-7.786,7.025s-8.061.924-10.4-2.051c-1.162-1.479-3.219.6-2.069,2.069,2.045,2.605,5.831,3.7,9.029,3.611a13.782,13.782,0,0,0,9.05-3.909c2.3-2.133,4.067-4.762,6.364-6.9,2.112-1.963,5.485-2.909,6.781-5.647.845-1.784.64-3.97.677-5.9.037-1.766.069-3.531.118-5.3a1.479,1.479,0,0,0-2.5-1.034,14.4,14.4,0,0,1-6.089,3.312c-1.015.274-7.262,1.358-6.815-.951a1.483,1.483,0,0,0-1.8-1.8c-2.416.51-4.043,2.468-5.611,4.224q-2.811,3.145-5.44,6.445c-2.913,3.657-7.2,8.736-3.993,13.542C106.512,349.43,109.047,347.966,108,346.394Z" transform="translate(-98.01 -27.693)" fill="#333"/>
            <path id="パス_91120" data-name="パス 91120" d="M112.8,177.655c.263,6.881.463,13.764.682,20.646q.557,17.47,1.118,34.94.609,18.763,1.263,37.523c.34,9.576.677,19.152,1.132,28.724.118,2.491.223,4.987.428,7.473.026.3.051.606.087.908.174,1.48,1.714,1.984,2.972,2.377a37.957,37.957,0,0,0,11.558,1.212,53.1,53.1,0,0,0,6.05-.387,1.512,1.512,0,0,0,1.463-1.463,1.471,1.471,0,0,0-1.463-1.463,55.866,55.866,0,0,1-10.592.265c-2.445-.161-5.683-.244-7.771-1.7l.724,1.263c-.607-4.795-.594-9.725-.8-14.546-.4-9.59-.743-19.182-1.077-28.775q-.6-17.2-1.145-34.41-.509-15.724-1.006-31.448c-.211-6.634-.413-13.269-.652-19.9l-.046-1.232c-.072-1.876-3-1.885-2.925,0Z" transform="translate(-98.736 -15.126)" fill="#333"/>
            <path id="パス_91121" data-name="パス 91121" d="M157.356,68.974a15.731,15.731,0,0,0,.549,5.363,1.566,1.566,0,0,0,.672.874,1.463,1.463,0,0,0,2.149-1.652,7.844,7.844,0,0,1-.366-1.6l.052.389a25.538,25.538,0,0,1-.124-3.376,1.463,1.463,0,1,0-2.925,0Z" transform="translate(-102.557 -5.794)" fill="#333"/>
            <path id="パス_91122" data-name="パス 91122" d="M133.1,68.743a26.082,26.082,0,0,1-.13,3.616l.053-.389c-.044.309-.1.615-.173.914a1.463,1.463,0,1,0,2.821.778,20.334,20.334,0,0,0,.354-4.924,1.463,1.463,0,1,0-2.925,0Z" transform="translate(-100.453 -5.774)" fill="#333"/>
            <path id="パス_91123" data-name="パス 91123" d="M180.045,121.449c.307-6.46.534-12.929,1.006-19.381.137-1.878-2.789-1.869-2.925,0-.472,6.451-.7,12.921-1.006,19.381C177.028,123.331,179.954,123.326,180.045,121.449Z" transform="translate(-104.256 -8.639)" fill="#333"/>
            <path id="パス_91124" data-name="パス 91124" d="M127.074,77.041a95.441,95.441,0,0,0-13.713,6.483c-3.608,2.194-7.443,4.3-10.313,7.46a16.821,16.821,0,0,0-3.618,5.729,17.475,17.475,0,0,0-.565,3.233c-.495,3.869-.738,7.771-.959,11.665-.274,4.888-.477,9.786-.482,14.683a1.463,1.463,0,1,0,2.925,0,241.208,241.208,0,0,1,1.209-24.31c.13-1.263.245-2.434.494-3.667a10.631,10.631,0,0,1,2.052-4.032c2.456-3.334,6.074-5.352,9.527-7.479a95.446,95.446,0,0,1,14.222-6.94,1.511,1.511,0,0,0,1.021-1.8,1.471,1.471,0,0,0-1.8-1.022Z" transform="translate(-97.417 -6.608)" fill="#333"/>
            <path id="パス_91125" data-name="パス 91125" d="M164.571,79.861a115.761,115.761,0,0,1,10.661,4.861c1.656.879,3.221,1.9,4.852,2.824,1.565.882,3.163,1.711,4.647,2.729a15.688,15.688,0,0,1,4.125,4.109,10.27,10.27,0,0,1,.731,1.236,7.813,7.813,0,0,1,.328.847,51.623,51.623,0,0,1,1.722,6.783,180.107,180.107,0,0,1,2.67,18.087c.239,2.416.452,4.845.478,7.276a69.225,69.225,0,0,1-.8,9.225,203.886,203.886,0,0,1-3.621,21.376c-.431,1.828,2.39,2.613,2.821.778,1.5-6.392,2.489-12.943,3.371-19.445.488-3.6,1.006-7.242,1.151-10.879a53.916,53.916,0,0,0-.333-6.848,190.516,190.516,0,0,0-2.646-18.986,66.181,66.181,0,0,0-1.764-7.463,15.311,15.311,0,0,0-4.412-6.785,27.952,27.952,0,0,0-5.322-3.644c-1.789-1-3.524-2.083-5.308-3.089a109.4,109.4,0,0,0-12.575-5.82,1.474,1.474,0,0,0-1.8,1.022,1.5,1.5,0,0,0,1.021,1.8Z" transform="translate(-103.087 -6.607)" fill="#333"/>
            <path id="パス_91126" data-name="パス 91126" d="M145.377,88.972q0,5.183.011,10.366a1.463,1.463,0,0,0,2.925,0q-.008-5.183-.011-10.366a1.463,1.463,0,1,0-2.925,0Z" transform="translate(-101.532 -7.51)" fill="#333"/>
            <path id="パス_91127" data-name="パス 91127" d="M146.933,86.984c-.442-.921-.9-1.835-1.346-2.751-.188-.386-.377-.772-.56-1.159-.07-.149-.138-.3-.208-.448-.16-.337.05.173-.03-.073-.338-1.037-.83-2.029-1.267-3.027a3.273,3.273,0,0,0-1.027-1.234c-1.179-.984-2.429-1.889-3.663-2.8l-2.045-1.511-.857-.64-.386-.291c-.087-.067-.436-.336-.191-.144a4.718,4.718,0,0,0-1.745-1.138c-1.3-.274-1.92,1-2.528,1.915-.709,1.075-2.115,2.8-1.707,4.185a17.392,17.392,0,0,0,2.051,3.758,55.886,55.886,0,0,0,3.265,4.9,1.941,1.941,0,0,0,3.36-.058c.366-.571.769-1.109,1.177-1.646a18.538,18.538,0,0,0,2.979-4.571,1.475,1.475,0,0,0-1.021-1.8,1.493,1.493,0,0,0-1.8,1.021c-.083.229.147-.242-.045.091-.065.112-.123.229-.183.341-.166.286-.348.563-.534.836-.412.608-.852,1.2-1.294,1.783-.668.887-1.308,1.781-1.933,2.693l.525-.525.091-.051h.778q.559.577.321.274c-.054-.071-.108-.143-.161-.215-.111-.15-.22-.3-.329-.452-.21-.294-.416-.591-.62-.89q-.64-.943-1.248-1.907c-.731-1.156-1.44-2.327-2.1-3.524-.183-.335-.338-.7-.538-1.028-.128-.209.112.322.069.159-.067-.25-.144.623.009.566,0,0,.135-.366.051-.161s.081-.154.1-.188c.3-.568.629-1.119.974-1.66a8.867,8.867,0,0,1,.939-1.4l-1.423.377c-.254-.042-.319-.245-.076-.037.091.078.183.152.28.226.307.244.619.483.931.719.64.489,1.292.969,1.941,1.448q1.1.815,2.207,1.634c.609.457,1.32.989,1.716,1.3a6.147,6.147,0,0,1,1.152.975c.123.165-.034-.177.065.261a5.625,5.625,0,0,0,.4.914c.183.421.348.846.512,1.274.674,1.774,1.629,3.448,2.448,5.157a1.475,1.475,0,0,0,2,.525,1.494,1.494,0,0,0,.525-2Z" transform="translate(-100.152 -6.156)" fill="#333"/>
            <path id="パス_91128" data-name="パス 91128" d="M148.055,88.5a55.821,55.821,0,0,0,2.468-5.254c.166-.467.36-.921.558-1.371a5.1,5.1,0,0,0,.3-.686c.116-.451-.068-.085.069-.26a3,3,0,0,1,.512-.43c-.311.245.112-.081.169-.123q.189-.14.38-.274c1.405-1.014,2.846-1.976,4.278-2.949.652-.444,1.3-.888,1.951-1.34.258-.183.515-.366.768-.549.174-.128.342-.264.515-.393.036-.027.3-.209.107-.074l-.738.2.2-.025-1.035-.428a1.865,1.865,0,0,1,.4.5c.2.265.39.532.581.8.4.567.788,1.143,1.139,1.737a6.266,6.266,0,0,0,.337.629c-.114-.151.023-.719,0-.762-.044-.079.091-.169-.008.009-.045.081-.083.166-.125.249-.1.2-.214.4-.324.6-.657,1.18-1.371,2.332-2.1,3.467q-.646,1.006-1.328,1.983a8.4,8.4,0,0,1-1.188,1.554l.645-.376.549.114.525.525c-.687-.923-1.261-1.978-1.891-2.944-.423-.647-.844-1.3-1.246-1.958-.169-.274-.336-.558-.493-.842-.068-.123-.135-.245-.2-.37-.037-.072-.254-.566-.091-.165a1.507,1.507,0,0,0-1.8-1.021,1.473,1.473,0,0,0-1.021,1.8,25.632,25.632,0,0,0,2.476,4.269c.424.645.856,1.286,1.267,1.94.425.675.767,1.349,1.623,1.549,1.337.312,2.082-.832,2.764-1.758.613-.83,1.188-1.685,1.753-2.55a47.975,47.975,0,0,0,2.623-4.388,2.4,2.4,0,0,0,.366-1.785,7.575,7.575,0,0,0-1.121-2.1c-.518-.788-1.1-1.528-1.646-2.291a1.964,1.964,0,0,0-1.238-.9,2.169,2.169,0,0,0-1.711.634c-.157.125.266-.192-.006,0-.1.071-.2.145-.3.217q-.395.285-.8.561c-.648.451-1.3.894-1.955,1.338-1.355.921-2.718,1.828-4.044,2.793a13.654,13.654,0,0,0-1.554,1.2,8.97,8.97,0,0,0-1.473,3c-.091.217-.175.434-.25.656-.048.143-.132.366-.016.091-.178.43-.391.847-.594,1.266-.519,1.068-1.052,2.129-1.564,3.2a1.5,1.5,0,0,0,.525,2,1.475,1.475,0,0,0,2-.525Z" transform="translate(-101.528 -6.184)" fill="#333"/>
            <path id="パス_91129" data-name="パス 91129" d="M115.914,104.044c.3,8.457.627,16.932.635,25.394a1.463,1.463,0,1,0,2.925,0c-.008-8.463-.335-16.937-.635-25.394-.067-1.877-2.992-1.886-2.925,0Z" transform="translate(-99.003 -8.808)" fill="#333"/>
            <path id="パス_91130" data-name="パス 91130" d="M116.609,131.821c.067,2.92,1.343,5.818,2.544,8.431,1.371,2.986,2.972,5.877,4.561,8.751,3.139,5.676,6.525,11.217,9.587,16.936.889,1.66,3.415.183,2.526-1.476-2.94-5.493-6.186-10.819-9.214-16.264-1.606-2.888-3.194-5.8-4.628-8.776-1.108-2.3-2.391-5.011-2.45-7.6-.044-1.88-2.969-1.886-2.925,0Z" transform="translate(-99.063 -11.192)" fill="#333"/>
            <path id="パス_91131" data-name="パス 91131" d="M97.422,130.779A43.534,43.534,0,0,0,99,143.121a34.421,34.421,0,0,0,3.023,6.161c3.409,6.288,6.991,12.486,10.632,18.642,1.671,2.827,3.35,5.651,5.119,8.419,1.011,1.582,3.543.116,2.526-1.477-3.414-5.343-6.582-10.853-9.739-16.35q-2.641-4.6-5.211-9.24c-1.145-2.083-2.37-4.17-3.33-6.346a2.532,2.532,0,0,1-.175-.5c-.1-.336-.19-.679-.274-1.022-.237-.985-.421-1.985-.584-2.986a47.572,47.572,0,0,1-.64-7.651,1.463,1.463,0,1,0-2.925,0Z" transform="translate(-97.416 -11.098)" fill="#333"/>
            <path id="パス_91132" data-name="パス 91132" d="M118.173,173.226a37.763,37.763,0,0,1,12.7-9.332,1.512,1.512,0,0,0,1.021-1.8,1.471,1.471,0,0,0-1.8-1.021A41.055,41.055,0,0,0,116.1,171.158c-1.288,1.371.776,3.445,2.069,2.069Z" transform="translate(-98.985 -13.819)" fill="#333"/>
            <path id="パス_91133" data-name="パス 91133" d="M112.958,170.632a42.8,42.8,0,0,0-.245,4.371c-.049,1.939-.091,3.879-.2,5.816a1.479,1.479,0,0,0,1.463,1.463h8.112a1.463,1.463,0,0,0,0-2.925h-8.112l1.463,1.463c.108-1.937.15-3.877.2-5.816a42.8,42.8,0,0,1,.245-4.371,1.47,1.47,0,0,0-1.463-1.463,1.5,1.5,0,0,0-1.463,1.463Z" transform="translate(-98.712 -14.518)" fill="#333"/>
            <path id="パス_91134" data-name="パス 91134" d="M142.2,59.166a8.543,8.543,0,0,0,10.116,0,1.463,1.463,0,0,0-2.068-2.068c-.057.055-.3.251-.069.073s-.08.048-.153.091c-.1.064-.212.123-.322.183a1.425,1.425,0,0,0-.223.105c.091-.075.286-.109.059-.03a7.463,7.463,0,0,1-1.07.293c-.048.009-.446.064-.1.023-.109.013-.218.025-.328.034-.261.022-.524.032-.785.032-.24,0-.48-.008-.719-.027-.133-.01-.264-.023-.4-.039.2.025.1.014-.04-.012a6.532,6.532,0,0,1-1.084-.287c-.156-.057-.242-.172.016.014a1.349,1.349,0,0,0-.183-.091c-.122-.059-.241-.124-.357-.2-.087-.053-.168-.127-.258-.175.393.208.172.139.037.008a1.463,1.463,0,1,0-2.069,2.068Z" transform="translate(-101.223 -4.863)" fill="#333"/>
            <path id="パス_91135" data-name="パス 91135" d="M146.785,48.856a19.111,19.111,0,0,1,.457,2.072l-.052-.389a1.247,1.247,0,0,1,.007.286l.052-.389a.682.682,0,0,1-.031.129l.147-.349a.446.446,0,0,1-.045.082l.229-.3a.518.518,0,0,1-.068.067l.3-.229a1.217,1.217,0,0,1-.164.087l.349-.147a1.178,1.178,0,0,1-.274.08l.389-.052a1.072,1.072,0,0,1-.26,0l.389.052c-.1-.014-.194-.037-.292-.051a1.111,1.111,0,0,0-.583-.026,1.1,1.1,0,0,0-.544.174,1.463,1.463,0,0,0-.525,2,1.4,1.4,0,0,0,.874.672c.259.035.509.1.773.112a2.525,2.525,0,0,0,1.183-.289,1.794,1.794,0,0,0,.969-1.172,2.783,2.783,0,0,0-.01-1.219c-.112-.667-.267-1.329-.439-1.984a1.463,1.463,0,0,0-1.8-1.022,1.482,1.482,0,0,0-.874.673,1.536,1.536,0,0,0-.148,1.127Z" transform="translate(-101.591 -4.034)" fill="#333"/>
            <path id="パス_91136" data-name="パス 91136" d="M135.279,42.335c-.346,1.124-.121,3.712,2.011,3.931,2.816-.017,2.966-3.145,2.018-4.615C138.529,40.449,136.248,39.948,135.279,42.335Z" transform="translate(-100.654 -3.488)" fill="#333"/>
            <path id="パス_91137" data-name="パス 91137" d="M159.528,42.335c.346,1.124.121,3.712-2.011,3.931-2.816-.017-2.966-3.145-2.018-4.616C156.278,40.449,158.563,39.948,159.528,42.335Z" transform="translate(-102.356 -3.488)" fill="#333"/>
            <path id="パス_91172" data-name="パス 91172" d="M178.3,178.725a24.774,24.774,0,0,1,1.781-4.739,1.48,1.48,0,0,0-1.652-2.148,3.818,3.818,0,0,1-2.338-.005c-.526-.242-.76-.759-.335-1.2a7.588,7.588,0,0,1,1.794-1.12c.849-.464,1.718-.892,2.6-1.294a20.983,20.983,0,0,1,2.475-1.049,8.463,8.463,0,0,1,2.9-.119,7.014,7.014,0,0,1,4.321,1.727,7.161,7.161,0,0,1,1.96,4.126,17.4,17.4,0,0,1-.347,4.177,10.379,10.379,0,0,1-2.5,5.171,7.73,7.73,0,0,1-1.719,1.606,2.875,2.875,0,0,1-2.133.192,3.744,3.744,0,0,1-2.34-.758,11.023,11.023,0,0,0-.8-1.049,4.015,4.015,0,0,0-1.338-.741c-1.371-.516-2.8-1.037-2.326-2.778a1.463,1.463,0,0,0-2.821-.778,4.7,4.7,0,0,0,2.366,5.568,9.189,9.189,0,0,0,1.49.64,1.371,1.371,0,0,1,.959.7,4.782,4.782,0,0,0,2.98,1.853,13.564,13.564,0,0,0,3.186.393,5.624,5.624,0,0,0,3.52-1.695,14.792,14.792,0,0,0,4.036-6.279,32.2,32.2,0,0,0,.549-3.474,8.893,8.893,0,0,0,.112-3.1,9.924,9.924,0,0,0-2.925-6,10.486,10.486,0,0,0-6.933-2.468,8.964,8.964,0,0,0-3.356.41q-1.884.731-3.705,1.615c-2.2,1.067-5.569,2.468-5.119,5.472.472,3.127,3.979,3.721,6.561,3.063l-1.652-2.148a28.479,28.479,0,0,0-2.076,5.438C174.936,179.751,177.759,180.523,178.3,178.725Z" transform="translate(-103.868 -14.081)" fill="#333"/>
            <path id="パス_91173" data-name="パス 91173" d="M182.84,175.852c-.985,1.913-1.862,3.881-2.847,5.794a1.463,1.463,0,1,0,2.526,1.476c.985-1.913,1.862-3.881,2.848-5.794a1.463,1.463,0,1,0-2.527-1.476Z" transform="translate(-104.486 -15.029)" fill="#333"/>
            <path id="パス_91174" data-name="パス 91174" d="M187.4,178.338c-.892,2.011-2.136,3.854-3.116,5.823a1.463,1.463,0,0,0,2.527,1.476c.979-1.969,2.222-3.811,3.115-5.823a1.594,1.594,0,0,0,.147-1.127,1.463,1.463,0,0,0-2.673-.349Z" transform="translate(-104.854 -15.243)" fill="#333"/>
            <path id="パス_91175" data-name="パス 91175" d="M141.338,178.418a5.985,5.985,0,0,0,3.526-2.712,2.435,2.435,0,0,0,.014-2.3,5.033,5.033,0,0,0-1.637-1.6,21.445,21.445,0,0,0-2.757-1.371c-.97-.457-1.933-.93-2.9-1.4q-.927-.457-1.853-.919a1.463,1.463,0,0,0-1.476,2.526q1.856.929,3.722,1.828,1.165.562,2.341,1.1a10.823,10.823,0,0,1,1.342.7c.1.065.2.135.3.2.176.117-.165-.157-.016-.01.041.041.091.077.132.116.084.079.161.164.24.246s.091.194-.023-.031c.107.209,0-.048-.027-.123.016.052.046.189,0-.051-.061-.339-.034.309.008-.274a.632.632,0,0,1-.037.121c-.034.121.143-.188.036-.1a.575.575,0,0,0-.075.126c-.144.265.136-.12.007,0-.1.091-.183.2-.274.293-.059.057-.121.11-.183.165-.091.086-.114.091,0,.007-.144.1-.287.2-.438.292q-.2.121-.414.225c-.034.017-.292.129-.133.065s-.21.071-.2.069a1.463,1.463,0,1,0,.778,2.821Z" transform="translate(-100.516 -14.41)" fill="#333"/>
            <path id="パス_91176" data-name="パス 91176" d="M120.712,179.752a5.9,5.9,0,0,1,.655,2.022,13.37,13.37,0,0,0,.966,2.827,19.078,19.078,0,0,0,3.526,4.774c2.406,2.441,6.52,4.692,9.745,2.4l-1.127.147a4.031,4.031,0,0,0,4.255-.689,4.519,4.519,0,0,0,.726-4.86l-1.8,1.8c2.473.908,4.7-2.125,4.039-4.388-.353-1.206-1.042-2.349-1.443-3.554a30.493,30.493,0,0,1-1.018-3.806c-.357-1.847-3.178-1.065-2.82.777a30.062,30.062,0,0,0,1.622,5.473c.183.463.379.923.59,1.371a1.94,1.94,0,0,1,.262.64,1.1,1.1,0,0,1-.247.574.681.681,0,0,1-.249.2c.142-.086.4.026.039-.107a1.471,1.471,0,0,0-1.8,1.8c.233.658.5,1.577.026,2.011-.237.217-.689.158-1.225.01-1.2-.332-1.983.762-3.226.613a6.757,6.757,0,0,1-2.914-1.287,14.577,14.577,0,0,1-3.757-4.192,10.376,10.376,0,0,1-1.322-3.188,8.319,8.319,0,0,0-.98-2.85c-1.07-1.531-3.608-.071-2.526,1.476Z" transform="translate(-99.392 -15.051)" fill="#333"/>
            <path id="パス_91177" data-name="パス 91177" d="M133.468,180.915a49.457,49.457,0,0,0,3.828,7.045,1.5,1.5,0,0,0,2,.525,1.478,1.478,0,0,0,.525-2,49.415,49.415,0,0,1-3.828-7.046,1.474,1.474,0,0,0-2-.525,1.5,1.5,0,0,0-.525,2Z" transform="translate(-100.494 -15.337)" fill="#333"/>
            <path id="パス_91178" data-name="パス 91178" d="M128.661,183.7a24.074,24.074,0,0,0,2.1,3.973,28.113,28.113,0,0,0,3.1,4.2,1.475,1.475,0,0,0,2.069,0,1.5,1.5,0,0,0,0-2.069c-.243-.262-.475-.533-.7-.811-.053-.065-.1-.131-.156-.2-.2-.249.156.209-.024-.029-.127-.17-.254-.34-.379-.512-.485-.67-.943-1.358-1.383-2.06-.409-.653-.8-1.316-1.169-1.993-.15-.274-.3-.555-.433-.837-.065-.132-.125-.264-.187-.4-.051-.11-.111-.34.046.113-.019-.054-.044-.107-.065-.161a1.5,1.5,0,0,0-1.8-1.021,1.479,1.479,0,0,0-1.022,1.8Z" transform="translate(-100.093 -15.607)" fill="#333"/>
            <path id="パス_91179" data-name="パス 91179" d="M121.96,179.865a54.76,54.76,0,0,1,12.778-10.272,1.464,1.464,0,0,0-1.477-2.526,57.368,57.368,0,0,0-13.369,10.73c-1.288,1.371.777,3.444,2.069,2.068Z" transform="translate(-99.31 -14.32)" fill="#333"/>
          </g>
          <g id="グループ_9822" data-name="グループ 9822" transform="translate(24.45 55.989)">
            <path id="パス_90977" data-name="パス 90977" d="M177.366,142.326a2.6,2.6,0,0,1,2.08-.609,2.455,2.455,0,0,1,1.763,1.173,3.474,3.474,0,0,1,.366,1.4,10.4,10.4,0,0,1-1.06,5.511,6.606,6.606,0,0,1-1.709,2.243,1.994,1.994,0,0,1-2,.467l-.3-.091a17.255,17.255,0,0,1-.536,1.665c-.586,1.486-3.849,6.727-7.963,8.709a22.852,22.852,0,0,0,.489,3.329c.228,1.28.316,2.285,2,3.135.42.207,1.623.783,2.227,1.066.111.048.193.091.255.117-1.273,1.2-5.8,3.4-12.141,3.4a23.5,23.5,0,0,1-12.327-3.565l-.466-.336c.731-.346,2.4-1.135,2.495-1.169,1.78-.646,1.711-1.787,1.932-3.066.2-1.165.267-1.714.342-2.5a16.638,16.638,0,0,1-5.691-4.273,18.7,18.7,0,0,1-3.7-6.3l-.442.12a2.482,2.482,0,0,1-2.252-.711,6.606,6.606,0,0,1-1.709-2.242,10.4,10.4,0,0,1-1.06-5.511,3.483,3.483,0,0,1,.366-1.4,2.456,2.456,0,0,1,1.764-1.173,2.6,2.6,0,0,1,2.08.609s-.9-14.9,15.757-15.511C177.427,126.1,177.366,142.326,177.366,142.326Z" transform="translate(-123.358 -115.265)" fill="#fff"/>
            <path id="パス_90978" data-name="パス 90978" d="M147.057,331.81a2.05,2.05,0,0,1-.274-.485,21.413,21.413,0,0,0,.9-3.214.092.092,0,0,0,.031,0,87.6,87.6,0,0,0,10.239-.412q.457-.048.88-.1v1.744a10.211,10.211,0,0,1-.846.757,12.734,12.734,0,0,1-8.037,2.777,4.488,4.488,0,0,1-2.285-.516A2.193,2.193,0,0,1,147.057,331.81Z" transform="translate(-124.119 -132.499)" fill="#fff"/>
            <path id="パス_90979" data-name="パス 90979" d="M176.434,332.1a2.157,2.157,0,0,0,.512-.722l-.012-.027a13.992,13.992,0,0,1-.811-2.77c-.007-.036-.042-.216-.091-.467a91.7,91.7,0,0,1-10.25-.386c-.322-.034-.64-.069-.939-.107.041.95.073,1.722.073,1.722a9.752,9.752,0,0,0,.832.743,12.716,12.716,0,0,0,8.057,2.791,4.48,4.48,0,0,0,2.285-.516,2.1,2.1,0,0,0,.344-.261Z" transform="translate(-125.669 -132.501)" fill="#fff"/>
            <path id="パス_90980" data-name="パス 90980" d="M156.9,330.266a10.211,10.211,0,0,0,.846-.757c-.014,2.675.014,3.565,0,6.236a5.527,5.527,0,0,1-.234,1.932c-.549,1.486-2.179,2.2-3.486,3.094-3.4,2.33-5.2,6.582-8.758,8.648a9.221,9.221,0,0,1-8.511.309,5.414,5.414,0,0,1-1.945-1.492c-.062-.082-.117-.165-.172-.254a4.705,4.705,0,0,1-.316-3.946,13.123,13.123,0,0,1,2.028-3.534q2.925-4,6.194-7.748a5.88,5.88,0,0,1,3.08-2.228,1.494,1.494,0,0,0,.069.963,2.16,2.16,0,0,0,.88,1.039,4.488,4.488,0,0,0,2.285.516A12.735,12.735,0,0,0,156.9,330.266Z" transform="translate(-123.024 -132.663)" fill="#fff"/>
            <path id="パス_90981" data-name="パス 90981" d="M165.755,330.252a9.76,9.76,0,0,1-.832-.743c.014,2.675-.014,3.565,0,6.236a5.526,5.526,0,0,0,.233,1.932c.549,1.486,2.179,2.2,3.486,3.094,3.4,2.33,5.2,6.582,8.765,8.648a9.22,9.22,0,0,0,8.511.309,5.447,5.447,0,0,0,1.939-1.492c.062-.082.117-.165.183-.254a4.731,4.731,0,0,0,.309-3.946,13.125,13.125,0,0,0-2.029-3.534q-2.925-4-6.194-7.748a5.884,5.884,0,0,0-3.08-2.228,1.554,1.554,0,0,1-.083,1,2.161,2.161,0,0,1-.866,1.006,4.479,4.479,0,0,1-2.285.516A12.716,12.716,0,0,1,165.755,330.252Z" transform="translate(-125.675 -132.663)" fill="#fff"/>
            <path id="パス_90982" data-name="パス 90982" d="M160.464,242.5l-21.692.021v.061c-.006,8.546.158,22.117.372,27.582.516,13.206,1.1,32.453,1.457,42.975.117,3.554.213,6.111.274,7.1a26.926,26.926,0,0,0,6.152.57,87.609,87.609,0,0,0,10.239-.412c1.148-.123,2.187-.268,3.032-.447.893.183,2.011.344,3.244.474a91.615,91.615,0,0,0,10.257.385h.069a25.575,25.575,0,0,0,5.851-.57c.062-.99.193-3.541.366-7.088.014-.33.027-.667.048-1.011.488-10.7,1.231-29.162,1.32-41.977.041-6.091.66-19.132.654-27.684Z" transform="translate(-123.431 -125.194)" fill="#fff"/>
            <path id="パス_90983" data-name="パス 90983" d="M142.975,327.22a10.063,10.063,0,0,1-1.931-.347c-.062-.99-.158-3.547-.274-7.1,1.725,0,7.285.3,9.769.3.887,0,7.164-.144,9.15-.165h1.385c1.977.02,8.261.165,9.155.165,2.623,0,8.685-.334,10.03-.282-.172,3.547-.3,6.1-.366,7.088a25.571,25.571,0,0,1-5.851.57h-.069a91.622,91.622,0,0,1-10.257-.385c-1.237-.131-2.351-.289-3.244-.474a30.287,30.287,0,0,1-3.032.447,87.6,87.6,0,0,1-10.239.412C145.585,327.415,144.12,327.341,142.975,327.22Z" transform="translate(-123.603 -131.827)" fill="#fff"/>
            <path id="パス_90984" data-name="パス 90984" d="M139.789,176.934a20.28,20.28,0,0,0-8.391,6.9,25.089,25.089,0,0,0-2.977,8.312c-.117.557-.233,1.168-.35,1.828-1.719,9.965-2.908,31.562-3.72,40.6a1.371,1.371,0,0,0,1.265,1.485c.708.055,1.4.11,2.076.158,1.973.137,3.822.24,5.513.344,1.359.074,2.605.164,3.764.245v-.169c0-.474,0-.935-.007-1.386,9.926.183,33.752.076,44.191.251-.007.434-.006.887-.007,1.357,1.071-.125,2.322-.19,3.665-.274,1.684-.091,3.533-.2,5.506-.336,1.1-.069,2.2-.158,3.341-.254-.852-8.333-2.152-33.708-4.114-43.4-.034-.152-.062-.3-.091-.447a25.069,25.069,0,0,0-2.977-8.312c-3.17-4.959-9.024-7.385-14.505-9.516a.926.926,0,0,1-.152.166c-1.273,1.2-5.8,3.4-12.141,3.4a23.5,23.5,0,0,1-12.327-3.565l-.512-.37-1,.391C143.819,175.126,141.753,175.954,139.789,176.934Z" transform="translate(-122.193 -119.313)" fill="#fff"/>
            <path id="パス_90985" data-name="パス 90985" d="M190.571,244.114c-.406,3.559.24,7,.426,10.575.041.927.8,1.406,1.422.684.3-.345,1.561-2.1,1.946-2.46.2,1.463.282,1.725.378,2.71a53.286,53.286,0,0,1,.344,5.444c.021.9.158,1.592.427,1.725a2.242,2.242,0,0,0,2.777-.268,6.034,6.034,0,0,0,1.492-2.863,24.335,24.335,0,0,0,.233-4.32,16.836,16.836,0,0,0-1.127-4.7c-1.2-3.061-2.234-3.821-2.771-6.882-.014-.1-.034-.2-.048-.307Z" transform="translate(-127.865 -125.278)" fill="#fff"/>
            <path id="パス_90986" data-name="パス 90986" d="M133.044,244.114c.4,3.559-.248,7-.426,10.575-.048.927-.8,1.406-1.423.684-.3-.345-1.561-2.1-1.945-2.46-.2,1.463-.289,1.725-.378,2.71a49.8,49.8,0,0,0-.344,5.444c-.027.9-.165,1.592-.426,1.725a2.252,2.252,0,0,1-2.785-.268,6.018,6.018,0,0,1-1.485-2.863,23.682,23.682,0,0,1-.24-4.32,17.1,17.1,0,0,1,1.127-4.7c1.244-3.157,2.3-3.866,2.818-7.189Z" transform="translate(-122.127 -125.278)" fill="#fff"/>
            <path id="パス_91016" data-name="パス 91016" d="M179.651,130.954a20.881,20.881,0,0,0-3.792-7.637c-.847-1.092-2.512-1.561-3.84-2.071-3.768-5.3-7.74-5.364-12.018-5.4-11.957-.091-17.655,5.84-19.556,10.593-1.038,2.6-2.53,9.258-1.05,14.58a2.537,2.537,0,0,1,.76-.242,2.564,2.564,0,0,1,2.09.628c1.54.236,1.762-1.966,3-2.588a3.515,3.515,0,0,1,1.762-.163c4.937.246,9.267-3.017,13.116-6.11a1.676,1.676,0,0,0,1.269,1.78,3.931,3.931,0,0,0,2.352-.233,12.811,12.811,0,0,0,4.926-3.583c2.007-.151,7.268,4.247,8.767,10.879a2.6,2.6,0,0,1,2.08-.609,2.365,2.365,0,0,1,.491.128A25.084,25.084,0,0,0,179.651,130.954Z" transform="translate(-123.431 -114.326)" fill="#0c5fe5"/>
            <path id="パス_91118" data-name="パス 91118" d="M137.714,321.735a4.548,4.548,0,0,0-.08.59l.052-.389-.146.994-.071.486-.036.243a4.112,4.112,0,0,0-.073.539,1.51,1.51,0,0,0,.429,1.035,1.621,1.621,0,0,0,1.034.428,1.474,1.474,0,0,0,1.034-.428,1.518,1.518,0,0,0,.429-1.035v-.009l-.052.389.146-.994.071-.486.036-.243a4.107,4.107,0,0,0,.073-.54l-.052.389.027-.192a1.1,1.1,0,0,0,.026-.583,1.082,1.082,0,0,0-.173-.544,1.639,1.639,0,0,0-.875-.672,1.48,1.48,0,0,0-1.127.147l-.3.229a1.462,1.462,0,0,0-.377.645Z" transform="translate(-123.31 -131.904)" fill="#333"/>
            <path id="パス_91138" data-name="パス 91138" d="M146.164,327.735a13.818,13.818,0,0,1-.378,1.616c-.076.251-.161.5-.251.746-.1.268-.221.529-.312.8a1.463,1.463,0,0,0,2.821.778c.087-.262.207-.516.3-.774s.183-.512.261-.772a14.021,14.021,0,0,0,.378-1.617,1.577,1.577,0,0,0-.147-1.126,1.463,1.463,0,0,0-2-.525,1.431,1.431,0,0,0-.673.874Z" transform="translate(-123.98 -132.418)" fill="#333"/>
            <path id="パス_91139" data-name="パス 91139" d="M157.42,327.68c.008.9.021,1.793.021,2.689a1.506,1.506,0,0,0,.429,1.034,1.463,1.463,0,0,0,2.068,0,1.517,1.517,0,0,0,.429-1.034c0-.9-.013-1.792-.021-2.689a1.514,1.514,0,0,0-.428-1.034,1.463,1.463,0,0,0-2.5,1.034Z" transform="translate(-125.032 -132.38)" fill="#333"/>
            <path id="パス_91140" data-name="パス 91140" d="M157.794,331.165c.293-.244.571-.492.846-.756l-2.5-1.035c-.007,1.56,0,3.119,0,4.679a11.754,11.754,0,0,1-.074,2.727,2.787,2.787,0,0,1-1.292,1.545,24.682,24.682,0,0,0-3.828,2.9c-1.1,1.122-2.054,2.377-3.066,3.582-2.15,2.551-4.713,4.588-8.257,4.171-1.525-.183-3.686-.87-4.164-2.522-.526-1.813.773-3.628,1.767-5.015,1.305-1.82,2.69-3.585,4.114-5.313.723-.878,1.454-1.752,2.21-2.6a4.727,4.727,0,0,1,2.317-1.719l-1.8-1.8c-.535,3.515,2.992,4.56,5.83,4.33a14.648,14.648,0,0,0,7.889-3.169c1.482-1.159-.6-3.216-2.068-2.069a11.447,11.447,0,0,1-4.321,2.056c-.481.117-4.683.772-4.509-.371a1.485,1.485,0,0,0-1.8-1.8c-2.2.548-3.6,2.426-4.988,4.078q-2.413,2.864-4.648,5.875c-1.4,1.882-2.809,3.835-3,6.248a5.644,5.644,0,0,0,2.794,5.331,10.654,10.654,0,0,0,12-.939c3.017-2.387,4.749-6.039,8.039-8.113,1.993-1.256,3.585-2.553,3.753-5.066.155-2.322.006-4.694.017-7.022a1.479,1.479,0,0,0-2.5-1.034c-.274.265-.548.513-.846.756C154.276,330.3,156.355,332.36,157.794,331.165Z" transform="translate(-122.888 -132.528)" fill="#333"/>
            <path id="パス_91141" data-name="パス 91141" d="M175.544,328.467a16.838,16.838,0,0,0,.894,3.191,1.633,1.633,0,0,0,.672.874,1.463,1.463,0,0,0,2-.525,1.415,1.415,0,0,0,.148-1.127,16.781,16.781,0,0,1-.894-3.19,1.479,1.479,0,0,0-.672-.875,1.5,1.5,0,0,0-1.127-.147,1.477,1.477,0,0,0-.874.672,1.636,1.636,0,0,0-.148,1.127Z" transform="translate(-126.584 -132.415)" fill="#333"/>
            <path id="パス_91142" data-name="パス 91142" d="M164.248,327.808c0,.864-.014,1.728-.014,2.592a1.509,1.509,0,0,0,.428,1.035,1.463,1.463,0,0,0,2.069,0,1.522,1.522,0,0,0,.429-1.035c0-.864.013-1.728.014-2.592a1.509,1.509,0,0,0-.429-1.034,1.463,1.463,0,0,0-2.069,0A1.521,1.521,0,0,0,164.248,327.808Z" transform="translate(-125.616 -132.391)" fill="#333"/>
            <path id="パス_91143" data-name="パス 91143" d="M166.651,329.082c-.289-.239-.562-.482-.832-.742a1.479,1.479,0,0,0-2.5,1.034c.008,2.011-.011,4.014,0,6.021a5.832,5.832,0,0,0,2.547,5.273c.743.532,1.563.952,2.285,1.514a15.806,15.806,0,0,1,2.125,2.094c1.29,1.475,2.435,3.081,3.858,4.436a10.9,10.9,0,0,0,11.7,2.446,6.113,6.113,0,0,0,4-4.288,8.5,8.5,0,0,0-1.792-6.407c-1.563-2.275-3.3-4.449-5.064-6.576-1.554-1.884-3.169-4.285-5.68-4.906a1.485,1.485,0,0,0-1.8,1.8c.163,1.159-4.032.487-4.517.366a11.422,11.422,0,0,1-4.327-2.068c-1.463-1.15-3.548.906-2.069,2.069a14.671,14.671,0,0,0,7.9,3.181c2.87.24,6.323-.814,5.831-4.33l-1.8,1.8c1.651.41,2.8,2.261,3.84,3.491q1.959,2.336,3.794,4.773c1.125,1.5,2.631,3.19,2.855,5.127.218,1.9-1.15,2.944-2.811,3.464-3.406,1.068-6.491-.343-8.8-2.846-2.186-2.367-3.916-5.028-6.684-6.789a8.02,8.02,0,0,1-2.011-1.473,3.918,3.918,0,0,1-.452-2.57c-.005-1.869.011-3.737,0-5.606l-2.5,1.035c.274.26.543.5.832.742C166.023,332.342,168.1,330.284,166.651,329.082Z" transform="translate(-125.537 -132.528)" fill="#333"/>
            <path id="パス_91144" data-name="パス 91144" d="M182.531,243.342c0,9.955-.549,19.906-.686,29.861-.146,10.7-.542,21.4-.991,32.1-.208,4.962-.4,9.929-.709,14.887l1.074-1.407c-2.69.823-5.894.566-8.674.521a55.837,55.837,0,0,1-9.97-.81c-1.838-.366-2.626,2.454-.778,2.821a60.126,60.126,0,0,0,10.748.914c3.042.048,6.505.274,9.452-.625a1.512,1.512,0,0,0,1.073-1.411c.59-9.6.914-19.234,1.241-28.851.338-10.038.388-20.081.718-30.118.2-5.957.426-11.916.427-17.878a1.463,1.463,0,1,0-2.925,0Z" transform="translate(-125.317 -125.143)" fill="#333"/>
            <path id="パス_91145" data-name="パス 91145" d="M137.168,242.387c0,20.752.879,41.481,1.554,62.222.167,5.163.242,10.341.549,15.5a1.514,1.514,0,0,0,1.073,1.411c2.955.9,6.45.673,9.5.625a59.343,59.343,0,0,0,10.708-.914c1.844-.37,1.064-3.19-.778-2.821a55.042,55.042,0,0,1-9.93.81c-1.684.026-3.37.014-5.052-.069a15.192,15.192,0,0,1-3.663-.448l1.075,1.411c-.606-10.094-.7-20.241-1.036-30.351-.331-10-.781-19.994-.932-30q-.132-8.685-.137-17.369a1.463,1.463,0,0,0-2.925,0Z" transform="translate(-123.294 -125.061)" fill="#333"/>
            <path id="パス_91146" data-name="パス 91146" d="M160.824,258.84c-.006,16.984-.183,33.968-.194,50.952V317c.005,1.481-.328,3.553.274,4.965a1.474,1.474,0,0,0,2,.525,1.5,1.5,0,0,0,.525-2c.4.953.157.653.166.215.007-.315-.014-.64-.017-.952-.015-1.043-.019-2.087-.022-3.13q-.01-3.116,0-6.231,0-6.535.023-13.073c.018-7.69.007-15.381.067-23.072.039-5.137.1-10.274.105-15.41a1.463,1.463,0,1,0-2.925,0Z" transform="translate(-125.3 -126.472)" fill="#333"/>
            <path id="パス_91147" data-name="パス 91147" d="M169.276,166.706c.106,1.072.332,2.126.517,3.187a4.713,4.713,0,0,0,3.079,4.129,23.6,23.6,0,0,0,2.507,1.167,1.474,1.474,0,0,0,1.8-1.026,1.5,1.5,0,0,0-1.022-1.8c.565.194-.02-.02-.17-.091l-.526-.249q-.518-.247-1.036-.5a9.047,9.047,0,0,1-.955-.5c-.043-.027-.323-.247-.148-.091s-.108-.1-.137-.133c-.046-.045-.125-.176-.177-.191.091.028.195.282.035.034-.042-.066-.082-.134-.118-.2-.074-.141-.056-.268.02.07-.033-.147-.1-.293-.141-.44-.091-.343-.143-.694-.2-1.042-.082-.467-.171-.932-.256-1.4-.035-.193-.069-.387-.1-.581-.01-.062-.019-.123-.028-.183q.042.332.021.16c-.009-.107-.025-.213-.035-.32a1.5,1.5,0,0,0-1.463-1.463,1.478,1.478,0,0,0-1.463,1.463Z" transform="translate(-126.049 -118.566)" fill="#333"/>
            <path id="パス_91148" data-name="パス 91148" d="M152.135,166.456c-.036.374-.091.746-.122,1.12,0,.01.047-.329.02-.162-.007.048-.014.1-.02.144-.016.1-.031.2-.048.307-.04.255-.086.51-.128.764-.056.333-.091.668-.158,1a4.348,4.348,0,0,1-.1.428c-.01.034-.024.069-.033.1-.059.21.059-.134.069-.149-.045.069-.073.154-.115.225-.031.053-.183.266-.032.066s-.02.01-.065.054-.256.223-.073.075-.1.053-.156.087-.366.183-.2.107-.011,0-.049.016c-.155.062-.309.129-.457.2-.457.208-.914.427-1.371.64s-.891.433-1.346.63a1.463,1.463,0,0,0-.525,2,1.508,1.508,0,0,0,2,.525c.914-.394,1.8-.843,2.7-1.264.262-.123-.162.077-.208.085a3.2,3.2,0,0,0,.934-.412,3.89,3.89,0,0,0,1.28-1.177,4.955,4.955,0,0,0,.694-2.182c.161-1.076.343-2.144.446-3.228a1.467,1.467,0,0,0-1.463-1.463,1.5,1.5,0,0,0-1.463,1.463Z" transform="translate(-124.139 -118.544)" fill="#333"/>
            <path id="パス_91149" data-name="パス 91149" d="M138.635,242.345c11.747.193,23.494.1,35.245.161,2.792.015,5.584.033,8.376.08a1.464,1.464,0,0,0,0-2.925c-11.746-.194-23.494-.1-35.245-.162-2.792-.015-5.584-.033-8.376-.079A1.464,1.464,0,0,0,138.635,242.345Z" transform="translate(-123.298 -124.931)" fill="#333"/>
            <path id="パス_91150" data-name="パス 91150" d="M162.846,321.228c2.86.032,5.721.116,8.58.158,3.233.048,6.468-.207,9.7-.282,1.879-.044,1.886-2.969,0-2.925-3.233.076-6.466.33-9.7.282-2.86-.041-5.72-.126-8.58-.158a1.463,1.463,0,0,0,0,2.925Z" transform="translate(-125.372 -131.69)" fill="#333"/>
            <path id="パス_91151" data-name="パス 91151" d="M159.774,318.3c-2.893,0-5.788.113-8.685.157-3.25.05-6.5-.2-9.75-.282-1.883-.044-1.882,2.882,0,2.925,3.249.077,6.5.332,9.75.282,2.893-.044,5.788-.157,8.685-.157a1.463,1.463,0,0,0,0-2.925Z" transform="translate(-123.53 -131.69)" fill="#333"/>
            <path id="パス_91152" data-name="パス 91152" d="M135.42,197.9c.006,4.987.262,9.976.457,14.958.187,4.928.188,9.858.357,14.786.125,3.657.225,7.321.225,10.984a1.463,1.463,0,0,0,2.925,0c0-6.428-.38-12.846-.41-19.273-.02-4.449-.274-8.9-.429-13.342-.091-2.7-.192-5.407-.2-8.112a1.463,1.463,0,1,0-2.925,0Z" transform="translate(-123.144 -121.243)" fill="#333"/>
            <path id="パス_91153" data-name="パス 91153" d="M185.922,195.912c-.006,5.131-.25,10.265-.43,15.393-.175,4.991-.183,9.982-.352,14.972-.135,4.061-.261,8.119-.264,12.182a1.463,1.463,0,1,0,2.925,0c0-6.872.341-13.738.415-20.609.049-4.608.3-9.22.45-13.826.086-2.7.177-5.408.183-8.112a1.463,1.463,0,1,0-2.925,0Z" transform="translate(-127.388 -121.072)" fill="#333"/>
            <path id="パス_91154" data-name="パス 91154" d="M188.972,243.977a30.99,30.99,0,0,0,.035,5.824c.081.971.183,1.941.261,2.912a9.828,9.828,0,0,0,.359,2.9,2.194,2.194,0,0,0,3.722.621c.7-.751,1.188-1.687,1.914-2.423l-2.445-.645c.281,2.024.541,4.017.622,6.087a13.9,13.9,0,0,0,.25,3.321,2.967,2.967,0,0,0,3.148,1.889c2.818-.1,4.142-3.357,4.388-5.753a18.2,18.2,0,0,0-.553-7.111c-.885-3.008-2.834-5.541-3.329-8.666a1.474,1.474,0,0,0-1.8-1.022,1.5,1.5,0,0,0-1.021,1.8c.469,2.988,2.251,5.347,3.175,8.17a15.578,15.578,0,0,1,.588,6.986,5.051,5.051,0,0,1-.517,1.577,2.861,2.861,0,0,1-.649.914c-.241.183-.305.109-.561.183l-.268-.072q.371.773.191.229c0-.325-.065-.675-.075-1.006-.013-.451-.021-.9-.037-1.352a69.4,69.4,0,0,0-.731-6.948,1.473,1.473,0,0,0-2.445-.645,20.094,20.094,0,0,0-1.58,1.988c-.322.423-.536.416.171.647q.731.515.517-.195-.016-.274-.037-.549-.04-.549-.091-1.1a44.98,44.98,0,0,1-.281-8.553,1.473,1.473,0,0,0-1.463-1.463,1.5,1.5,0,0,0-1.463,1.463Z" transform="translate(-127.729 -125.141)" fill="#333"/>
            <path id="パス_91155" data-name="パス 91155" d="M131.445,243.979a45.745,45.745,0,0,1-.284,8.553c-.031.366-.346,1.766-.142,2.022q1.463.074,1.042-.388c-.038-.046-.076-.091-.112-.138.033.075-.214-.282-.225-.3a20.078,20.078,0,0,0-1.578-1.988,1.473,1.473,0,0,0-2.445.645,67.84,67.84,0,0,0-.731,6.948c-.016.451-.022.9-.035,1.352-.009.331-.079.681-.079,1.006q-.183.548.193-.229a1.076,1.076,0,0,1-.418.081c-.964-.091-1.463-1.965-1.573-2.659a15.385,15.385,0,0,1,.693-7.334c.945-2.7,2.585-4.963,3.062-7.842.305-1.841-2.513-2.633-2.82-.777-.437,2.635-1.86,4.738-2.819,7.188a17.567,17.567,0,0,0-1.14,7.58c.144,2.359.809,5.485,3.264,6.5a3.632,3.632,0,0,0,3.91-.731c.751-.953.64-2.369.671-3.516a59.433,59.433,0,0,1,.647-6.785l-2.445.645c.71.725,1.2,1.637,1.882,2.386a2.194,2.194,0,0,0,3.748-.583,8.959,8.959,0,0,0,.345-2.717c.079-.972.176-1.942.259-2.913a32.068,32.068,0,0,0,.056-6.005,1.5,1.5,0,0,0-1.463-1.463,1.473,1.473,0,0,0-1.463,1.463Z" transform="translate(-121.991 -125.142)" fill="#333"/>
            <path id="パス_91160" data-name="パス 91160" d="M148.639,175.472c3.813,2.7,9.1,3.858,13.692,3.748a25.977,25.977,0,0,0,8.141-1.435,12.119,12.119,0,0,0,4.524-2.5,1.463,1.463,0,0,0-2.069-2.069,5.293,5.293,0,0,1-1.316.9,14.6,14.6,0,0,1-2.188.943,23.613,23.613,0,0,1-7.509,1.242,20.827,20.827,0,0,1-11.8-3.36c-1.54-1.09-3,1.446-1.476,2.526Z" transform="translate(-124.223 -119.203)" fill="#333"/>
            <path id="パス_91161" data-name="パス 91161" d="M140.588,140.183a22.737,22.737,0,0,1,1.267-13.8,14.9,14.9,0,0,1,6.8-6.871c4.259-2.211,9.3-2.609,14.015-2.258a9.89,9.89,0,0,1,5.633,2.072,12,12,0,0,1,1.28,1.234c.506.555.914,1.412,1.56,1.807.975.6,2.218.654,3.131,1.411a12.69,12.69,0,0,1,2.743,4.336,19.208,19.208,0,0,1,1.321,4.138,24.663,24.663,0,0,1,.131,8.031,1.471,1.471,0,0,0,1.463,1.463,1.5,1.5,0,0,0,1.463-1.463,25.231,25.231,0,0,0-.936-11.381,22.489,22.489,0,0,0-3.216-6.116c-1.288-1.732-3.017-2.354-4.976-3.092l.874.672a13.53,13.53,0,0,0-9.923-5.99,31.571,31.571,0,0,0-12.034,1c-5.7,1.692-10.726,5.668-12.616,11.437a26.584,26.584,0,0,0-.809,14.152c.442,1.828,3.264,1.054,2.821-.778Z" transform="translate(-123.293 -114.184)" fill="#333"/>
            <path id="パス_91162" data-name="パス 91162" d="M171.663,133.216c-.58-.076-.015.021.129.067a2.2,2.2,0,0,1,.213.077c0-.013-.328-.159-.051-.018a8.986,8.986,0,0,1,1.06.622c.118.081.233.167.348.252-.2-.149-.052-.04.059.05.183.151.366.308.542.469A15.339,15.339,0,0,1,175.2,136c.2.23.4.465.584.708-.15-.195.124.171.123.17q.154.211.3.427a17.786,17.786,0,0,1,1.049,1.729,15.715,15.715,0,0,1,1.472,3.981,1.463,1.463,0,1,0,2.821-.778,19.326,19.326,0,0,0-4.373-8.41c-1.431-1.615-3.3-3.246-5.51-3.538a1.471,1.471,0,0,0-1.463,1.463,1.5,1.5,0,0,0,1.463,1.463Z" transform="translate(-126.128 -115.566)" fill="#333"/>
            <path id="パス_91163" data-name="パス 91163" d="M167.944,130.607a15.383,15.383,0,0,1-3.062,2.66c-.418.254-3.164,1.614-3.079.506.108-1.4-1.61-1.746-2.5-1.035-2.785,2.235-5.784,4.593-9.325,5.432a9.781,9.781,0,0,1-2.56.257,5.288,5.288,0,0,0-2.515.283,3.958,3.958,0,0,0-1.509,1.347c-.177.245-.326.508-.5.753s-.549.431-.153.378a1.514,1.514,0,0,0-1.463,1.463,1.469,1.469,0,0,0,1.463,1.463,3.116,3.116,0,0,0,2.011-.936c.44-.457.694-1.255,1.182-1.646.587-.468,1.691-.15,2.428-.191a13.689,13.689,0,0,0,2.76-.442c3.9-1.044,7.169-3.612,10.262-6.094l-2.5-1.034c-.216,2.807,2.882,3.715,5.089,3.082a13.981,13.981,0,0,0,6.045-4.181c1.294-1.365-.77-3.437-2.069-2.068Z" transform="translate(-123.646 -115.554)" fill="#333"/>
            <path id="パス_91164" data-name="パス 91164" d="M181.913,144.624a1.625,1.625,0,0,1,.4-.175.421.421,0,0,1,.212-.03c.038,0,.354.028.2,0a.909.909,0,0,1,.731.472,6.227,6.227,0,0,1,.083,2.993,9.011,9.011,0,0,1-1.209,3.2,4.93,4.93,0,0,1-.879,1.046c-.079.064-.169.111-.25.17-.311.229.082-.007-.109.067-.1.037-.309.035-.114.035-.253,0,.023.031-.274-.048a1.463,1.463,0,1,0-.778,2.821c2.029.541,3.626-.739,4.734-2.319a11.393,11.393,0,0,0,1.838-5.147c.212-1.744.175-3.914-1.228-5.181a4.1,4.1,0,0,0-5.43.021,1.475,1.475,0,0,0,0,2.069,1.5,1.5,0,0,0,2.069,0Z" transform="translate(-126.871 -116.529)" fill="#333"/>
            <path id="パス_91165" data-name="パス 91165" d="M177.793,153.012a8.308,8.308,0,0,1-.56,2.367c-.05.144-.122.291-.157.438-.054.226.17-.329.049-.12-.091.162-.164.34-.251.5a21.807,21.807,0,0,1-1.886,2.894c-1.69,2.194-3.975,4.449-6.683,5.043a1.463,1.463,0,1,0,.778,2.821c3.409-.747,6.14-3.42,8.2-6.092,1.773-2.3,3.3-4.874,3.433-7.856a1.463,1.463,0,0,0-2.925,0Z" transform="translate(-125.874 -117.39)" fill="#333"/>
            <path id="パス_91166" data-name="パス 91166" d="M143.059,142.556a4.1,4.1,0,0,0-5.43-.021c-1.449,1.309-1.437,3.565-1.2,5.353a11.185,11.185,0,0,0,1.92,5.119c1.146,1.575,2.843,2.871,4.884,2.42a1.463,1.463,0,0,0-.778-2.82.54.54,0,0,1-.412-.058c.16.069-.107-.075-.15-.1-.111-.068-.218-.142-.323-.219.163.123-.1-.091-.149-.133q-.165-.151-.32-.314a3.453,3.453,0,0,1-.43-.54,8.9,8.9,0,0,1-1.287-3.26,6.287,6.287,0,0,1,.066-3.086.908.908,0,0,1,.731-.472c-.144.027.083,0,.116,0,.457.005-.04-.036.215.013a1.221,1.221,0,0,1,.484.194,1.5,1.5,0,0,0,2.069,0,1.475,1.475,0,0,0,0-2.069Z" transform="translate(-123.22 -116.529)" fill="#333"/>
            <path id="パス_91167" data-name="パス 91167" d="M141.665,152.684a20.245,20.245,0,0,0,4.658,9.245,16.049,16.049,0,0,0,9.432,5.588,1.514,1.514,0,0,0,1.8-1.022,1.473,1.473,0,0,0-1.022-1.8c-6.249-.889-10.835-6.9-12.046-12.789a1.463,1.463,0,0,0-2.821.777Z" transform="translate(-123.675 -117.329)" fill="#333"/>
            <path id="パス_91168" data-name="パス 91168" d="M158.213,158.858a6.258,6.258,0,0,0,7.546,0,1.463,1.463,0,0,0-2.069-2.069c-.056.056-.245.2,0,.014s.013-.016-.058.027-.144.083-.218.121a.892.892,0,0,0-.152.072c.035-.031.381-.146.151-.068a5.1,5.1,0,0,1-.731.2c-.146.027-.309-.015.057,0a2.067,2.067,0,0,0-.224.022c-.177.016-.356.022-.534.022s-.327-.005-.49-.017a1.664,1.664,0,0,1-.27-.027c.1.026.336.05.1.007a4.459,4.459,0,0,1-.739-.195c-.117-.043-.3-.156.123.057-.042-.021-.086-.039-.128-.06-.082-.04-.164-.084-.242-.133-.06-.037-.116-.08-.176-.119.436.279.234.189.12.078a1.463,1.463,0,1,0-2.068,2.069Z" transform="translate(-125.063 -117.803)" fill="#333"/>
            <path id="パス_91169" data-name="パス 91169" d="M161.4,150.512a15.854,15.854,0,0,1,.374,1.709l-.052-.389a1.017,1.017,0,0,1,.006.236l.052-.389a.618.618,0,0,1-.026.106l.147-.349a.442.442,0,0,1-.037.068l.229-.3a.322.322,0,0,1-.056.056l.3-.229a1.065,1.065,0,0,1-.135.072l.349-.148a.979.979,0,0,1-.229.067l.389-.052a.928.928,0,0,1-.214,0l.389.052c-.08-.012-.16-.031-.24-.042a1.1,1.1,0,0,0-.583-.026,1.079,1.079,0,0,0-.544.173,1.463,1.463,0,0,0-.525,2l.229.3a1.463,1.463,0,0,0,.645.377c.236.032.464.091.7.1a2.351,2.351,0,0,0,1.105-.274,1.723,1.723,0,0,0,.914-1.121,2.571,2.571,0,0,0-.008-1.141c-.091-.549-.22-1.1-.366-1.635a1.463,1.463,0,0,0-2.673-.35,1.537,1.537,0,0,0-.148,1.127Z" transform="translate(-125.321 -117.142)" fill="#333"/>
            <path id="パス_91170" data-name="パス 91170" d="M152.3,145.472c-.279.906-.1,2.991,1.62,3.169,2.27-.014,2.391-2.534,1.627-3.72a1.8,1.8,0,0,0-3.247.551Z" transform="translate(-124.583 -116.752)" fill="#333"/>
            <path id="パス_91171" data-name="パス 91171" d="M171.767,145.472c.279.906.1,2.991-1.62,3.169-2.27-.014-2.391-2.534-1.626-3.72a1.8,1.8,0,0,1,3.246.551Z" transform="translate(-125.948 -116.752)" fill="#333"/>
          </g>
        </g>
        <g id="グループ_9824" data-name="グループ 9824" transform="translate(-14824.869 -21215.883)">
          <path id="パス_91564" data-name="パス 91564" d="M120.315,77.041a67.8,67.8,0,0,0-10.587,6.483c-2.786,2.194-5.747,4.3-7.962,7.46a18.082,18.082,0,0,0-2.794,5.729,22.209,22.209,0,0,0-.436,3.233c-.382,3.869-.57,7.771-.74,11.665-.212,4.888-.368,9.786-.372,14.683a1.167,1.167,0,1,0,2.259,0q-.008-12.178.933-24.31c.1-1.263.189-2.434.381-3.667a12.044,12.044,0,0,1,1.585-4.032c1.9-3.334,4.689-5.352,7.355-7.479a68.4,68.4,0,0,1,10.98-6.94,1.608,1.608,0,0,0,.788-1.8c-.168-.776-.788-1.232-1.389-1.022Z" transform="translate(-97.424 -76.992)" fill="#333"/>
          <path id="パス_91565" data-name="パス 91565" d="M98.847,77.041a67.805,67.805,0,0,1,10.587,6.484c2.786,2.194,5.747,4.3,7.962,7.46a18.082,18.082,0,0,1,2.794,5.729,22.21,22.21,0,0,1,.436,3.233c.382,3.869.57,7.771.74,11.665.212,4.888.368,9.787.372,14.683a1.167,1.167,0,1,1-2.259,0q.008-12.178-.933-24.31c-.1-1.263-.189-2.435-.381-3.667a12.045,12.045,0,0,0-1.585-4.032c-1.9-3.334-4.689-5.352-7.355-7.479a68.4,68.4,0,0,0-10.98-6.941,1.608,1.608,0,0,1-.788-1.8c.168-.776.788-1.232,1.389-1.022Z" transform="translate(-55.327 -76.992)" fill="#333"/>
        </g>
      </g>
    </g>
    <g id="楕円形_183" data-name="楕円形 183" transform="translate(-14871 -21437)" fill="none" stroke="#333" stroke-width="3">
      <ellipse cx="62.694" cy="62.694" rx="62.694" ry="62.694" stroke="none"/>
      <ellipse cx="62.694" cy="62.694" rx="61.194" ry="61.194" fill="none"/>
    </g>
  </g>
</svg>
