<svg xmlns="http://www.w3.org/2000/svg" xmlns:xlink="http://www.w3.org/1999/xlink" width="125.389" height="125.389" viewBox="0 0 125.389 125.389">
  <defs>
    <clipPath id="clip-path">
      <ellipse id="楕円形_186" data-name="楕円形 186" cx="62.694" cy="62.694" rx="62.694" ry="62.694" transform="translate(-15298.531 -21285.219)" fill="#fff"/>
    </clipPath>
  </defs>
  <g id="グループ_9828" data-name="グループ 9828" transform="translate(15313 21220)">
    <ellipse id="楕円形_189" data-name="楕円形 189" cx="62.694" cy="62.694" rx="62.694" ry="62.694" transform="translate(-15313 -21220)" fill="#fff"/>
    <g id="マスクグループ_40" data-name="マスクグループ 40" transform="translate(-14.468 65.219)" clip-path="url(#clip-path)">
      <g id="c" transform="translate(-15302.174 -21274.867)">
        <g id="d">
          <path id="パス_91305" data-name="パス 91305" d="M66.7,213.144c-.026-.147-.051-.294-.077-.442a1.038,1.038,0,0,0-.86-.51c-.44-.02-.88.26-.91.45a84.605,84.605,0,0,1-1.82,8.7,17.936,17.936,0,0,1-6.8,9.5c-2.34,1.73-7.08,3.63-12.44,4.46a106.754,106.754,0,0,1-18.552.72c.09,2.2.506,12.975.506,12.975,2.217,53.845,3.4,102.324,5.51,154.331a58.68,58.68,0,0,0,16.159,2.493c5.846-.057,15.115-.569,19.394-1.674,4.282,1.107,13.531,1.621,19.374,1.679a58.818,58.818,0,0,0,16.156-2.495c2.107-51.876,3.282-100.237,5.5-153.919l.517-13.781s0-.056.007-.166c-7.211.447-16.734.782-22.247-.112-4.8-.79-8.08-1.69-11.13-4.25a19.358,19.358,0,0,1-6.42-9.35c-.395-1.27-1.206-4.856-1.863-8.608Z" fill="#fff"/>
          <path id="パス_91306" data-name="パス 91306" d="M88.484,433.132c-2.9-2.267-5.634-4.568-9.839-6.242-2.152-.857-4.4-1.177-6.054-2.8a8.684,8.684,0,0,1-2.046-4.091,33.446,33.446,0,0,1-.132-13.561s.117-.57.3-1.512a146.435,146.435,0,0,0,14.97.9,54.767,54.767,0,0,0,10.7-1.131l3.1,4.929,13.679,15.274c6.726,6.9,4.421,13.873-3.382,15.131a21.375,21.375,0,0,1-12.1-1.816,29.761,29.761,0,0,1-6.774-3.255c-.841-.6-1.638-1.209-2.423-1.824Z" fill="#fff"/>
          <path id="パス_91307" data-name="パス 91307" d="M45.1,433.132c2.9-2.267,5.634-4.568,9.839-6.242,2.152-.857,4.4-1.177,6.054-2.8a8.684,8.684,0,0,0,2.046-4.091,33.446,33.446,0,0,0,.132-13.561s-.117-.57-.3-1.512a146.436,146.436,0,0,1-14.97.9,54.767,54.767,0,0,1-10.7-1.131l-3.1,4.929L20.425,424.895C13.7,431.8,16,438.768,23.807,440.026a21.375,21.375,0,0,0,12.1-1.816,29.761,29.761,0,0,0,6.774-3.255c.841-.6,1.638-1.209,2.423-1.824Z" fill="#fff"/>
          <path id="パス_91308" data-name="パス 91308" d="M56.1,127.232c-3.951-11.663-7.906-24.044-10.018-31.435h.584a4.31,4.31,0,0,1,.935-3.86c1.361-1.576,3.076-3.856,4.467-5.412C52.654,87,64.7,95.572,65.618,96.22h2.356c.914-.648,12.964-9.216,13.555-9.695,1.391,1.556,3.106,3.836,4.467,5.412a4.313,4.313,0,0,1,.935,3.86h.592c-4.252,14.943-16.031,50.341-20.076,58.865H66.231c-2.053-4.312-6.09-15.494-10.133-27.43Z" fill="#fff"/>
          <path id="パス_91309" data-name="パス 91309" d="M95.56,48.694a4.494,4.494,0,0,1,3.251-1.19,4.175,4.175,0,0,1,3.749,2.083c1.274,2.209,1.22,6.279.365,8.8a13.579,13.579,0,0,1-3.988,6.468,4.956,4.956,0,0,1-3.822,1.1l-.367-.062a29.062,29.062,0,0,1-1.315,3.569C92.461,72.1,87.091,81.35,80.3,84.957c.059.765.142,1.525.256,2.284-3,2.171-11.8,8.429-12.58,8.979H65.617c-.7-.494-7.876-5.6-11.5-8.2.137-.868.247-1.7.322-2.569a25.3,25.3,0,0,1-9.163-7.317,34.2,34.2,0,0,1-6.489-12.242,4.863,4.863,0,0,1-4.136-1.037,13.584,13.584,0,0,1-3.988-6.468c-.855-2.518-.909-6.589.365-8.8A4.175,4.175,0,0,1,34.779,47.5a4.5,4.5,0,0,1,3.251,1.19S29.451,16.745,68.673,16.745c34.877,0,26.888,31.948,26.888,31.948Z" fill="#fff"/>
          <path id="パス_91310" data-name="パス 91310" d="M79.364,174.449c-1.51-5.88-3.322-12.608-4.522-16.561A65.947,65.947,0,0,1,86.1,153.9a42.694,42.694,0,0,1,12.564-2.154c3.341,0,6.916,1.446,9.4,2.319l.749.264c-.634,6.777-1.346,13.382-1.99,18.1l-.734.661s-2.785,2.505-4.848,2.906c-3.045.592-18.035,1.646-20.8.24l-.705-.356q-.179-.7-.365-1.427Z" fill="#fff"/>
          <path id="パス_91311" data-name="パス 91311" d="M32.431,142.295c-.844-.778-1.63-1.489-2.332-2.111a6.421,6.421,0,0,0-3.4-1.6,3.726,3.726,0,0,0-3.016.916,3.1,3.1,0,0,0-.469,3.436,13.8,13.8,0,0,0,3.069,3.453c-2.225-3.4-5.012-2.435-5.955-1.364a2.543,2.543,0,0,0-.394,2.683c.8,1.817,2.671,3.229,4.441,5.11-1.827-.324-3.171-.544-4.195.6a2.957,2.957,0,0,0-.425,2.576,7.048,7.048,0,0,0,1.275,2.052c1.581,2.03,2.812,3.706,4.28,5.537l.472.589c4.715-.872,14.783-2.629,24.676-4.348l-1.714-1.751C44.8,154.094,37.535,147,32.43,142.295Z" fill="#fff"/>
          <path id="パス_91312" data-name="パス 91312" d="M60.992,140.764c-.6-1.688-1.226-3.466-1.863-5.3,1.582-11.169,3.372-23.577,3.362-24.2a28.925,28.925,0,0,0-1.6-6.282l-.82-1.708c2.1-2.78,4.337-5.687,5.548-7.049h2.356c1.162,1.307,3.271,4.036,5.292,6.71l-.444,1.824c-.365,1.5-1.225,5.755-1.225,6.4,0,.374,1.724,13.645,2.926,24.1-2.931,8.482-5.582,15.666-7.119,18.937H66.187c-1.192-2.532-3.053-7.409-5.195-13.419Z" fill="#fff"/>
          <path id="パス_91313" data-name="パス 91313" d="M52.062,86.525c-1.391,1.556-3.106,3.836-4.467,5.412a4.313,4.313,0,0,0-.935,3.86c.523,1.044,4.8,11.295,8.693,13.789,1.23-1.639,7.826-10.625,10.263-13.367C64.7,95.571,52.652,87,52.061,86.524Z" fill="#fff"/>
          <path id="パス_91314" data-name="パス 91314" d="M81.527,86.525c1.391,1.556,3.106,3.836,4.467,5.412a4.313,4.313,0,0,1,.935,3.86c-.523,1.044-4.8,11.295-8.693,13.789-1.23-1.639-7.826-10.625-10.263-13.367.914-.648,12.964-9.216,13.555-9.695Z" fill="#fff"/>
          <g id="e">
            <path id="パス_91315" data-name="パス 91315" d="M129.688,141.795c-1.017-8.935-2.166-17.956-6.419-25.994a36.389,36.389,0,0,0-5.092-7.344,22.3,22.3,0,0,0-1.661-1.664,31.267,31.267,0,0,0-5.385-3.777c-7.076-4.118-15.277-6.327-23.294-8.345-3.953,14.213-16.243,51.246-20.393,59.991H66.228c-4.171-8.761-16.54-45.9-20.494-60.067-14.86,4.533-22,7.1-28.534,11.611-4.444,3.066-7.127,7.09-9.466,12.859-4.009,14.42-4.767,23.39-5.5,37.652A103.682,103.682,0,0,0,3,178.219a24.464,24.464,0,0,0,6.521,13.16c3.083,3.177,8.765,4.553,13.273,4.983-1.21,11.11-2.65,27.45-3.39,36.28a3.453,3.453,0,0,0,.7,1.96,3.879,3.879,0,0,0,1.88,1.22,109.266,109.266,0,0,0,21.81-.52c5.36-.83,10.1-2.73,12.44-4.46a17.936,17.936,0,0,0,6.8-9.5,84.605,84.605,0,0,0,1.82-8.7c.03-.19.47-.47.91-.45a1.038,1.038,0,0,1,.86.51c.67,3.91,1.53,7.73,1.94,9.05a19.358,19.358,0,0,0,6.42,9.35c3.05,2.56,6.33,3.46,11.13,4.25,6.29,1.02,17.8.44,25.14-.08a3.776,3.776,0,0,0,2.2-1.3,4.182,4.182,0,0,0,.72-2.48c-.53-6.68-1.21-13.83-2.09-22.28-.691-7.028-1.141-12.061-1.419-15.227,6.2-.722,13.241-4.784,15.648-9.092,2.972-5.316,3.817-9.688,4.147-16.583A165.238,165.238,0,0,0,129.688,141.795ZM25.781,164.172l-.472-.589c-1.467-1.831-2.7-3.507-4.28-5.537a7.069,7.069,0,0,1-1.275-2.052,2.958,2.958,0,0,1,.425-2.576c1.023-1.139,2.368-.919,4.195-.6-1.77-1.882-3.643-3.294-4.441-5.11a2.541,2.541,0,0,1,.393-2.683,3.283,3.283,0,0,1,3.971-.57,6.135,6.135,0,0,1-1.085-1.519,3.1,3.1,0,0,1,.469-3.436,3.73,3.73,0,0,1,3.016-.916,6.424,6.424,0,0,1,3.4,1.6c.7.621,1.487,1.333,2.332,2.111,5.1,4.7,12.365,11.8,16.311,15.778l1.714,1.751C40.564,161.543,30.5,163.3,25.781,164.172Zm81.039,8.254-.734.661s-2.785,2.505-4.848,2.906c-3.045.592-18.035,1.646-20.8.24l-.705-.356q-.179-.7-.365-1.427c-1.51-5.88-3.322-12.608-4.522-16.561A65.948,65.948,0,0,1,86.1,153.9a42.694,42.694,0,0,1,12.564-2.154c3.341,0,6.916,1.446,9.4,2.319l.749.264c-.634,6.777-1.346,13.382-1.99,18.1Z" fill="#0c5fe5"/>
            <path id="パス_91316" data-name="パス 91316" d="M47.926,10.574c-3.273-1.076-6.8.617-9.592,2.629a12.44,12.44,0,0,0-4.7,5.339,14.512,14.512,0,0,0-.641,5.119,38.241,38.241,0,0,1-.454,7.122c-.529,2.744-1.679,5.363-1.948,8.145s.626,5.97,3.107,7.255v1.458a5.639,5.639,0,0,1,1.081-.137,4.45,4.45,0,0,1,3.441,1.386c0-1.3,0-2.8,0-2.8a11.083,11.083,0,0,0,2.493-3.473c1.187-2.615,1.271-5.565,2.256-8.255a6.271,6.271,0,0,1,1.176-2.1,5.64,5.64,0,0,1,4.324-1.631,10.808,10.808,0,0,1,4.556,1.334L57.933,27.9c1.333-3.693,5.366-6.041,9.291-5.935a13.315,13.315,0,0,1,9.959,5.52c1.612,2.141,2.708,4.69,4.574,6.6.009,2.221.009,4.236.009,4.236,2.019,2.187,10.321,8.007,16.593,8.007v1.189a4.74,4.74,0,0,1,3.975,1.725,1.869,1.869,0,0,0,.843-.837,5.2,5.2,0,0,0,.37-2.33,148.664,148.664,0,0,0-1.7-18.71c-.36-2.73-.75-5.56-2.08-7.91-2.99-5.27-9.43-6.45-14.32-9.61-1.85-1.2-3.52-2.72-5.35-3.96A22.281,22.281,0,0,0,62.437,2.6c-3.75.91-7.6,3.18-8.86,7.13l-5.652.845Z" fill="#dbe8fc"/>
          </g>
        </g>
        <g id="f">
          <path id="パス_91317" data-name="パス 91317" d="M52.438,85.449c-.046.493-.1.985-.168,1.476l.071-.532q-.073.543-.162,1.084a1.526,1.526,0,0,0-.036.8,1.492,1.492,0,0,0,.237.744,2.238,2.238,0,0,0,1.195.919,2.022,2.022,0,0,0,1.541-.2l.4-.313a2,2,0,0,0,.514-.883c.166-1.026.3-2.057.4-3.092a2.055,2.055,0,0,0-2-2,2.018,2.018,0,0,0-1.414.586l-.313.4a1.987,1.987,0,0,0-.273,1.009h0Z" fill="#333"/>
          <path id="パス_91318" data-name="パス 91318" d="M82.477,86.718c-.011-.076-.021-.153-.031-.229l.071.532c-.077-.576-.146-1.152-.2-1.731a2.055,2.055,0,0,0-2-2l-.532.071a2,2,0,0,0-.883.514l-.313.4a1.987,1.987,0,0,0-.273,1.009c.076.833.187,1.663.3,2.492a2.238,2.238,0,0,0,.919,1.195,1.489,1.489,0,0,0,.744.237,1.506,1.506,0,0,0,.8-.036l.478-.2a2.008,2.008,0,0,0,.718-.718l.2-.478a2.018,2.018,0,0,0,0-1.063h0Z" fill="#333"/>
          <path id="パス_91319" data-name="パス 91319" d="M108.666,193.983q.854,9.683,1.844,19.35.571,5.643,1.085,11.292.237,2.643.454,5.287c.087,1.058.488,2.6-.672,3.223-.792.423-2.236.283-3.317.348q-2.43.148-4.863.254c-3.357.144-6.72.226-10.08.15-5.5-.124-12.107-.5-16.578-4.085a17.894,17.894,0,0,1-5.727-7.646,54.107,54.107,0,0,1-2.093-9.05,3.076,3.076,0,0,0-1.168-2.289,3.185,3.185,0,0,0-2.64-.518c-2.157.566-2.13,2.764-2.472,4.575a32.145,32.145,0,0,1-2.275,8.345c-2.947,5.964-8.871,8.564-15.089,9.831-6.562,1.337-13.585,1.275-20.245.954-1.168-.056-2.58.228-3.216-.729-.5-.75-.067-2.3.011-3.217q.385-4.518.788-9.033c.6-6.684,1.214-13.367,1.9-20.043q.237-2.31.486-4.618a2.013,2.013,0,0,0-2-2,2.046,2.046,0,0,0-2,2c-.737,6.788-1.379,13.586-2,20.385q-.452,4.948-.88,9.9-.187,2.154-.37,4.309a7.1,7.1,0,0,0,.439,4c1.659,3.378,5.669,3.027,8.844,3.12,3.637.107,7.284.057,10.916-.169,6.494-.4,13.822-1.355,19.291-5.194a20.322,20.322,0,0,0,7.1-8.631,25.547,25.547,0,0,0,1.38-4.378c.22-.962.42-1.929.609-2.9q.174-.888.335-1.778a7.1,7.1,0,0,1,.213-1.535l-.718.718-.59-.257q-.754-.621-.548-.023c-.076.236.121.675.168.928q.126.68.259,1.359.3,1.54.642,3.073a30.912,30.912,0,0,0,1.066,3.925,21.757,21.757,0,0,0,6.006,8.767c5.009,4.475,11.845,5.558,18.35,5.842,3.5.153,7.017.092,10.521-.037q2.574-.095,5.146-.244a32.856,32.856,0,0,0,4.883-.357,5.484,5.484,0,0,0,3.679-2.812,8.809,8.809,0,0,0,.476-4.865q-.47-5.682-1.027-11.355c-.783-8.058-1.612-16.111-2.323-24.176a2.053,2.053,0,0,0-2-2,2.016,2.016,0,0,0-2,2h0Z" fill="#333"/>
          <path id="パス_91320" data-name="パス 91320" d="M68.484,405.9a36.747,36.747,0,0,0-.16,12.957c.612,3.887,2.236,7.073,6.03,8.629,1.75.718,3.573,1.174,5.276,2.019a31.678,31.678,0,0,1,4.663,2.893c2.912,2.14,5.559,4.607,8.88,6.121,3.823,1.742,7.812,3.335,12.033,3.678,3.475.283,7.412-.208,10.292-2.325a8.57,8.57,0,0,0,3.616-7.379c-.208-3.6-2.269-6.656-4.7-9.181-3.362-3.494-6.465-7.234-9.7-10.845a45.955,45.955,0,0,1-6.408-8.785c-1.229-2.263-4.684-.246-3.454,2.019,3.161,5.822,7.84,10.446,12.158,15.4,1.234,1.416,2.476,2.827,3.766,4.194a21.566,21.566,0,0,1,3.194,3.877c1.093,1.881,1.725,4.3.412,6.238-1.471,2.172-4.457,2.751-6.894,2.839-3.76.136-7.078-1.1-10.521-2.446a33.418,33.418,0,0,1-8.487-5.2,38.089,38.089,0,0,0-8-5.1c-1.715-.757-3.629-1.137-5.285-2.005a5.389,5.389,0,0,1-2.651-3.72,30.19,30.19,0,0,1-.2-12.817c.494-2.514-3.361-3.591-3.857-1.063h0Z" fill="#333"/>
          <path id="パス_91321" data-name="パス 91321" d="M61.248,406.965a31.708,31.708,0,0,1,.043,11.541,8.18,8.18,0,0,1-1.483,3.928c-1.029,1.251-2.792,1.619-4.25,2.114a30.98,30.98,0,0,0-8.58,4.62c-2.608,1.945-5.03,4.184-7.978,5.617-3.265,1.587-6.971,3.115-10.617,3.413-2.706.221-6,.064-8.208-1.738-5.041-4.12,1.823-10.2,4.539-13.239,2.921-3.267,5.787-6.582,8.71-9.846a40.311,40.311,0,0,0,5.311-7.672c1.229-2.263-2.224-4.284-3.454-2.019a38.589,38.589,0,0,1-5.156,7.387c-2.871,3.206-5.675,6.473-8.554,9.672-2.6,2.892-5.6,5.545-6.711,9.42a8.87,8.87,0,0,0,1.606,8.224c2.138,2.562,5.511,3.537,8.716,3.81,4.359.371,8.3-.9,12.293-2.453a30.766,30.766,0,0,0,5.665-2.688c1.472-.954,2.838-2.083,4.216-3.166a31.6,31.6,0,0,1,9.073-5.418c2.007-.689,4.056-1.265,5.686-2.7a9.772,9.772,0,0,0,2.822-5.088A35.858,35.858,0,0,0,65.1,405.9c-.5-2.524-4.352-1.455-3.857,1.063h0Z" fill="#333"/>
          <path id="パス_91322" data-name="パス 91322" d="M66.275,406.076c5.6,1.4,11.654,1.544,17.4,1.7a59.614,59.614,0,0,0,19.2-2.518,2.061,2.061,0,0,0,1.468-1.929c1.012-24.953,1.838-49.914,2.661-74.874.836-25.356,1.681-50.711,2.712-76.06.227-5.589.43-11.178.639-16.768.1-2.574-3.9-2.57-4,0-.634,16.889-1.324,33.776-1.924,50.666-.885,24.921-1.659,49.846-2.518,74.768q-.728,21.135-1.571,42.266l1.468-1.929a56.012,56.012,0,0,1-18.137,2.375c-5.394-.149-11.075-.24-16.336-1.56-2.5-.627-3.563,3.23-1.063,3.857h0Z" fill="#333"/>
          <path id="パス_91323" data-name="パス 91323" d="M23.248,236.019c.662,17.178,1.359,34.355,1.967,51.536.872,24.665,1.639,49.333,2.49,74q.72,20.891,1.553,41.775a2.065,2.065,0,0,0,1.468,1.929,59.856,59.856,0,0,0,19.2,2.516c5.744-.153,11.8-.287,17.4-1.7,2.5-.628,1.438-4.487-1.063-3.857-5.259,1.324-10.944,1.41-16.337,1.553A56.245,56.245,0,0,1,31.791,401.4l1.468,1.929c-1-24.706-1.821-49.419-2.636-74.132-.827-25.078-1.66-50.156-2.671-75.228q-.361-8.975-.7-17.95c-.1-2.566-4.1-2.579-4,0h0Z" fill="#333"/>
          <path id="パス_91324" data-name="パス 91324" d="M64.791,257.752q.014,8.668.006,17.337,0,16.617,0,33.235,0,19.477,0,38.954,0,17.412,0,34.825,0,10.395,0,20.79v1.1c0,2.574,4,2.578,4,0q0-9.165,0-18.33l0-33.745q0-19.491,0-38.983V278.556q0-9.928-.006-19.857c0-.315,0-.631,0-.946,0-2.574-4-2.578-4,0h0Z" fill="#333"/>
          <path id="パス_91325" data-name="パス 91325" d="M50.648,85.111c-1.157,1.31-2.229,2.692-3.331,4.048-1.071,1.318-2.217,2.523-2.63,4.225-.526,2.166.461,3.924,1.345,5.81a63.387,63.387,0,0,0,3.476,6.551,17.539,17.539,0,0,0,4.836,5.568,2.046,2.046,0,0,0,2.736-.718c3.257-4.346,6.353-8.885,9.95-12.962a2.038,2.038,0,0,0-.4-3.141q-3.4-2.414-6.8-4.84-2.2-1.57-4.4-3.146-.751-.539-1.5-1.081c-.216-.156-1.246-.947-.448-.314a2.062,2.062,0,0,0-2.828,0,2.013,2.013,0,0,0,0,2.828c4.475,3.546,9.3,6.705,13.96,10.007l-.4-3.141c-3.821,4.331-7.115,9.154-10.575,13.771l2.736-.718A9.622,9.622,0,0,1,54.6,106.1a24.582,24.582,0,0,1-1.708-2.494,62.06,62.06,0,0,1-3.118-5.829c-.33-.691-.65-1.387-.967-2.085-.1-.214-.221-.43-.3-.652a1.723,1.723,0,0,1-.1-.2c.079.431.1-.251.1-.271a8.906,8.906,0,0,1,1.871-2.872c1.019-1.261,2.019-2.538,3.093-3.753,1.7-1.923-1.12-4.762-2.828-2.828Z" fill="#333"/>
          <path id="パス_91326" data-name="パス 91326" d="M80.113,87.939c1.031,1.167,2,2.392,2.973,3.6.705.874,1.795,1.793,1.975,2.963.013.087.052.584.072.4.018-.167-.027.064-.05.135a6.466,6.466,0,0,1-.3.652c-.317.7-.637,1.393-.967,2.085a62.387,62.387,0,0,1-3.043,5.708,15.387,15.387,0,0,1-3.55,4.375l2.736.718c-3.46-4.618-6.754-9.441-10.575-13.771l-.4,3.141c4.657-3.3,9.484-6.462,13.96-10.007a2.011,2.011,0,0,0,0-2.828,2.049,2.049,0,0,0-2.828,0c.8-.634-.189.127-.4.277q-.774.561-1.553,1.118-2.2,1.577-4.4,3.146-3.4,2.422-6.8,4.84a2.038,2.038,0,0,0-.4,3.141c3.6,4.077,6.693,8.616,9.95,12.962a2.038,2.038,0,0,0,2.736.718,17.539,17.539,0,0,0,4.836-5.568A63.3,63.3,0,0,0,87.557,99.2c.884-1.886,1.876-3.642,1.345-5.81a10.969,10.969,0,0,0-2.63-4.225c-1.1-1.356-2.174-2.738-3.331-4.048-1.708-1.933-4.528.9-2.828,2.828Z" fill="#333"/>
          <path id="パス_91327" data-name="パス 91327" d="M71.244,107.948c-2.828,0-5.656-.059-8.484-.06a2,2,0,0,0,0,4c2.828,0,5.656.059,8.484.06a2,2,0,0,0,0-4Z" fill="#333"/>
          <path id="パス_91328" data-name="パス 91328" d="M70.891,104.222a39.158,39.158,0,0,0-1.274,6.66,20.6,20.6,0,0,0,.376,3.607c.8,6.454,1.613,12.906,2.367,19.366a2.061,2.061,0,0,0,2,2,2.012,2.012,0,0,0,2-2c-.744-6.372-1.543-12.738-2.335-19.1-.152-1.223-.353-2.455-.427-3.685-.022-.363-.079.483,0-.07.034-.223.073-.446.111-.669.1-.558.2-1.113.313-1.669.222-1.127.453-2.254.72-3.372.6-2.5-3.257-3.57-3.857-1.063h0Z" fill="#333"/>
          <path id="パス_91329" data-name="パス 91329" d="M61.316,134.163c.924-6.507,1.873-13.011,2.754-19.524a15.716,15.716,0,0,0,.337-4.153,23.988,23.988,0,0,0-1.792-6.519,2.015,2.015,0,0,0-2.736-.718,2.049,2.049,0,0,0-.718,2.736c-.193-.427.224.681.291.9.16.518.306,1.041.444,1.565s.273,1.073.391,1.614c.056.258.109.518.156.778.118.659.031-.244.04.272a20.784,20.784,0,0,1-.379,3.263c-.854,6.245-1.759,12.483-2.645,18.723a2.067,2.067,0,0,0,1.4,2.46,2.014,2.014,0,0,0,2.46-1.4h0Z" fill="#333"/>
          <path id="パス_91330" data-name="パス 91330" d="M86.434,92.2c-2.084,7.961-4.671,15.8-7.217,23.626-3.068,9.428-6.226,18.834-9.649,28.14-.728,1.979-1.469,3.953-2.247,5.913-.664,1.674-.872,2.224-1.605,3.776l1.727-.991H66.227l1.727.99c-.233-.493-.454-.991-.672-1.491-.063-.144-.124-.288-.185-.433.193.453-.029-.07-.055-.134q-.24-.582-.476-1.165c-.672-1.668-1.313-3.348-1.943-5.032-1.62-4.331-3.16-8.692-4.671-13.062q-4.923-14.233-9.409-28.616c-1.187-3.827-2.368-7.661-3.387-11.537-.654-2.487-4.513-1.433-3.857,1.063,2.11,8.024,4.729,15.929,7.306,23.811,3.107,9.506,6.3,18.991,9.777,28.37,1.275,3.444,2.546,6.921,4.12,10.243a1.974,1.974,0,0,0,1.727.991h1.216a1.971,1.971,0,0,0,1.727-.99c3.305-7,5.695-14.5,8.216-21.8q4.981-14.432,9.514-29.017c1.189-3.845,2.371-7.7,3.39-11.591.652-2.492-3.205-3.556-3.857-1.063h0Z" fill="#333"/>
          <path id="パス_91331" data-name="パス 91331" d="M104.672,171.672a9.256,9.256,0,0,1-4.717,2.514c.561-.083-.2.024-.3.036-.193.023-.387.045-.58.066-.517.056-1.036.106-1.554.152q-1.787.159-3.578.265c-2.59.157-5.188.256-7.784.218-1.089-.016-2.175-.065-3.26-.162a4.311,4.311,0,0,1-.934-.142c-.236-.051-1.119-.4-.519-.114-2.313-1.1-4.345,2.348-2.019,3.454,1.924.914,4.243.913,6.332.957,2.822.06,5.65-.052,8.467-.228,2.316-.145,4.644-.315,6.94-.666,2.41-.368,4.552-1.93,6.337-3.521,1.925-1.717-.912-4.538-2.828-2.828h0Z" fill="#333"/>
          <path id="パス_91332" data-name="パス 91332" d="M76.879,159.15a78.272,78.272,0,0,1,14.732-4.628,26.844,26.844,0,0,1,8.316-.711,33.58,33.58,0,0,1,7.6,2.184c2.431.862,3.476-3,1.063-3.857a38.325,38.325,0,0,0-8.243-2.279,29.827,29.827,0,0,0-9.41.723,81.418,81.418,0,0,0-16.08,5.115,2.014,2.014,0,0,0-.718,2.736,2.051,2.051,0,0,0,2.736.718h0Z" fill="#333"/>
          <path id="パス_91333" data-name="パス 91333" d="M50.156,156.659q-7.585-7.643-15.465-14.995c-2.624-2.438-5.424-5.573-9.373-5.015A4.931,4.931,0,0,0,21,140.536c-.444,2.262.717,4.184,2.255,5.734,3.375,3.4,6.856,6.717,10.3,10.053,1.849,1.792,4.681-1.033,2.828-2.828q-3.835-3.717-7.632-7.475c-1.151-1.132-2.723-2.23-3.559-3.625-.827-1.379.363-2.042,1.665-1.748a7.838,7.838,0,0,1,3.271,2.252q1.626,1.479,3.225,2.989,3.563,3.35,7.06,6.768,3.481,3.39,6.913,6.833c1.816,1.83,4.645-1,2.828-2.828h0Z" fill="#333"/>
          <path id="パス_91334" data-name="パス 91334" d="M23.218,142.077a4.981,4.981,0,0,0-5.034,2.616c-1.071,2.277-.017,4.415,1.477,6.184,1.293,1.531,2.805,2.911,4.2,4.345,1.426,1.46,2.868,2.9,4.387,4.266a2.045,2.045,0,0,0,2.828,0,2.02,2.02,0,0,0,0-2.828c-2.445-2.194-4.684-4.6-6.991-6.933-.543-.549-1.109-1.083-1.6-1.678a3.32,3.32,0,0,1-.785-1.342c.026.249.032-.313.009-.115s.068-.407.011-.066c.015-.091.165-.267.016-.081.032-.04.363-.321.187-.191-.156.115.17-.088.2-.1.119-.061.119-.063,0-.008l.209-.064a2.2,2.2,0,0,1,.879,0,2.01,2.01,0,0,0,2-2,2.051,2.051,0,0,0-2-2h0Z" fill="#333"/>
          <path id="パス_91335" data-name="パス 91335" d="M23.275,150.645a5.025,5.025,0,0,0-4.51,1.36,4.793,4.793,0,0,0-.841,4.783,17.235,17.235,0,0,0,2.864,4.2c1.026,1.344,2.05,2.69,3.107,4.011a2,2,0,0,0,2.828,0,2.058,2.058,0,0,0,0-2.828q-.6-.745-1.181-1.5c.233.3-.135-.176-.146-.19l-.229-.3-.575-.753q-.6-.783-1.2-1.563-.41-.532-.822-1.063s-.4-.522-.163-.208c-.094-.125-.188-.25-.278-.378s-.176-.257-.257-.39c-.023-.039-.261-.467-.155-.255.091.182-.064-.2-.074-.231-.121-.338-.008.292,0,.05,0-.121,0-.248-.007-.369-.006-.377-.076.235-.01.009.01-.035.087-.362.092-.359.12.073-.339.3,0,.027.169-.138-.3.4-.01.02.218-.289-.156.1,0-.019a1.805,1.805,0,0,1,.185-.11l-.221.086c.059-.074.259-.06.337-.1.186-.1-.394,0-.029,0,.128,0,.255-.01.382-.007a8.189,8.189,0,0,1,.912.08,2,2,0,0,0,2-2,2.063,2.063,0,0,0-2-2h0Z" fill="#333"/>
          <path id="パス_91336" data-name="パス 91336" d="M108.538,131.824c-.635,12.574-1.794,25.17-3.336,37.665-.293,2.374-.582,4.665-1.044,7.077-.482,2.515,3.373,3.593,3.857,1.063.984-5.136,1.483-10.386,2.031-15.582q1.083-10.266,1.862-20.563c.244-3.218.468-6.438.63-9.661.13-2.573-3.871-2.566-4,0h0Z" fill="#333"/>
          <path id="パス_91337" data-name="パス 91337" d="M44.863,92.77c-8.993,2.749-18.442,5.357-26.527,10.313a27.749,27.749,0,0,0-9.759,9.649C5.491,117.993,4.238,124,3.069,129.925A184.416,184.416,0,0,0,.02,162.676,77.458,77.458,0,0,0,1.343,180.21c1.089,4.979,3.817,10.353,7.868,13.564,7.1,5.626,17.076,5.009,25.494,3.958a238.184,238.184,0,0,0,33.511-6.7q4.061-1.114,8.073-2.4,1.812-.584,3.61-1.208c1.383-.482,2.707-.842,3.4-2.258.813-1.67-.194-4.035-.612-5.736q-.788-3.205-1.617-6.4c-1.129-4.369-2.285-8.733-3.529-13.072-.487-1.7-.806-4.118-2.192-5.31-1.457-1.253-3.42-.582-5.109-.285-14.677,2.576-29.377,5.028-44.036,7.707-.882.161-1.764.323-2.645.495-2.524.493-1.455,4.349,1.063,3.857,13.195-2.578,26.491-4.688,39.736-6.991,2.833-.493,5.766-.818,8.561-1.5,1.1-.266-.534-.048-.281-.425-.06.09.258.836.286.927.261.859.512,1.721.759,2.583.548,1.911,1.075,3.827,1.594,5.746q1.7,6.289,3.276,12.611.315,1.266.621,2.535.127.526.252,1.053a4.44,4.44,0,0,0,.126.536c.024.1.047.2.071.3a.576.576,0,0,1,.149-.421l.114-.189-.7.247-.7.245q-.894.309-1.792.607-1.848.613-3.711,1.184A235.31,235.31,0,0,1,41.4,192.763c-8.276,1.336-17.02,2.946-25.187.227a13.333,13.333,0,0,1-4.965-2.72,20.992,20.992,0,0,1-4.416-6.275c-2.247-4.7-2.525-10.2-2.74-15.321-.213-5.07.028-10.133.312-15.2.3-5.269.651-10.547,1.384-15.775a136.422,136.422,0,0,1,3.356-16.217,24.926,24.926,0,0,1,7.474-12.328c5.866-5.067,13.919-7.62,21.145-9.974,2.71-.883,5.433-1.725,8.159-2.558,2.455-.75,1.408-4.613-1.063-3.857h0Z" fill="#333"/>
          <path id="パス_91338" data-name="パス 91338" d="M87.406,96.627A118.392,118.392,0,0,1,104.2,101.8c5.025,2.1,9.926,4.847,13.444,9.082,7.527,9.059,9.08,21.311,10.229,32.619a162.192,162.192,0,0,1,.777,18.908c-.083,5.3-.1,10.814-1.655,15.933a23.513,23.513,0,0,1-2.8,6.173,15.228,15.228,0,0,1-4.851,4.276,23.868,23.868,0,0,1-6.737,2.811,45.683,45.683,0,0,1-8.522.907,189.185,189.185,0,0,1-19.477-.326c-6.906-.366-13.824-.795-20.68-1.728a2.07,2.07,0,0,0-2.46,1.4,2.014,2.014,0,0,0,1.4,2.46c6.515.886,13.067,1.4,19.63,1.758,6.127.338,12.265.69,18.4.554,6.029-.134,12.131-.389,17.695-2.918a20.624,20.624,0,0,0,10.662-10.182c2.229-4.83,2.948-9.945,3.206-15.219a169.366,169.366,0,0,0-.189-20.152,153.551,153.551,0,0,0-2.379-18.912,49.663,49.663,0,0,0-6.474-17.164,31.019,31.019,0,0,0-6.5-7.565,42.437,42.437,0,0,0-8.52-5.192c-6.349-3-13.139-4.845-19.926-6.555-2.5-.629-3.562,3.227-1.063,3.857h0Z" fill="#333"/>
          <path id="パス_91339" data-name="パス 91339" d="M32.439,107.054l5.233,2.99-.4-3.141c-1.661,1.558-3.312,3.127-4.888,4.771-1.6,1.666-2.515,3.194-1.455,5.436,1.7,3.6,3.675,7.093,5.584,10.581,3.634,6.639,7.487,13.154,11.264,19.712,1.284,2.23,4.742.218,3.454-2.019-3.471-6.026-7.007-12.016-10.377-18.1q-2.5-4.51-4.872-9.09a17.072,17.072,0,0,0-1.379-2.672q-.271-.814-.25-.112l.233-.247c.384-.185.8-.842,1.1-1.153,1.431-1.467,2.917-2.878,4.412-4.279a2.018,2.018,0,0,0-.4-3.141l-5.233-2.99c-2.239-1.279-4.256,2.176-2.019,3.454h0Z" fill="#333"/>
          <path id="パス_91340" data-name="パス 91340" d="M99.132,103.6,93.9,106.59a2.018,2.018,0,0,0-.4,3.141c1.439,1.349,2.871,2.707,4.252,4.116.342.349.829,1.107,1.262,1.316l.233.247q.021-.7-.25.112a20.5,20.5,0,0,0-1.262,2.46Q95.4,122.518,93,127.02c-3.176,5.924-6.518,11.756-9.871,17.58-1.287,2.235,2.169,4.252,3.454,2.019,3.645-6.332,7.27-12.675,10.7-19.129,1.824-3.435,3.728-6.863,5.388-10.38,1.053-2.23.127-3.784-1.455-5.436s-3.227-3.213-4.888-4.771l-.4,3.141,5.233-2.99c2.235-1.277.222-4.734-2.019-3.454h0Z" fill="#333"/>
          <path id="パス_91341" data-name="パス 91341" d="M36.288,64.212C38.77,75.1,46.959,86.961,58.722,88.736a2.064,2.064,0,0,0,2.46-1.4,2.014,2.014,0,0,0-1.4-2.46c-10.47-1.579-17.437-12.068-19.64-21.73-.572-2.509-4.43-1.447-3.857,1.063h0Z" fill="#333"/>
          <path id="パス_91342" data-name="パス 91342" d="M93.362,63.25a29.051,29.051,0,0,1-1.31,4.367c-.193.508-.355.841-.584,1.411-.2.507.137-.275-.036.086-.063.132-.122.266-.185.4a37.123,37.123,0,0,1-3.2,5.325c-2.785,3.947-6.6,8.256-11.493,9.407-2.5.589-1.444,4.446,1.063,3.857C83.4,86.743,87.842,81.918,91.19,77.292A38,38,0,0,0,94.667,71.6c.207-.427.391-.862.575-1.3.217-.518-.147.344.081-.187.149-.347.3-.694.436-1.045a28.971,28.971,0,0,0,1.461-4.756c.524-2.512-3.331-3.586-3.857-1.063h0Z" fill="#333"/>
          <path id="パス_91343" data-name="パス 91343" d="M96.974,50.108a2.674,2.674,0,0,1,2.317-.552,2.139,2.139,0,0,1,1.1.47c-.276-.2.544.732.235.243a5.268,5.268,0,0,1,.785,2.119,12.063,12.063,0,0,1,.079,3.132,13.236,13.236,0,0,1-1.616,5.024c-.988,1.822-2.48,3.707-4.759,3.412a2.01,2.01,0,0,0-2,2,2.052,2.052,0,0,0,2,2c5.264.683,8.5-5.005,9.81-9.259,1.179-3.815,1.131-9.738-2.6-12.181a6.866,6.866,0,0,0-8.179.764c-1.925,1.717.912,4.538,2.828,2.828h0Z" fill="#333"/>
          <path id="パス_91344" data-name="パス 91344" d="M39.443,47.28a6.9,6.9,0,0,0-7.517-1.121,6.564,6.564,0,0,0-3.434,4.418,16.5,16.5,0,0,0,2.4,13.021c1.689,2.513,4.355,4.778,7.588,4.358a2.066,2.066,0,0,0,2-2,2.011,2.011,0,0,0-2-2c-2.278.3-3.771-1.589-4.759-3.412A13.23,13.23,0,0,1,32.1,55.52a8.612,8.612,0,0,1,.864-5.252c-.317.5.513-.449.235-.243a2.052,2.052,0,0,1,.967-.442,2.7,2.7,0,0,1,2.448.524c1.915,1.709,4.754-1.11,2.828-2.828h0Z" fill="#333"/>
          <path id="パス_91345" data-name="パス 91345" d="M61.184,73.45A12.289,12.289,0,0,0,67.1,74.83a9.742,9.742,0,0,0,6.074-1.836,2,2,0,0,0,0-2.828,2.062,2.062,0,0,0-2.828,0c.69-.537-.037,0-.256.111-.169.089-.626.23,0,.02-.162.054-.319.123-.482.175-.205.066-.413.122-.623.171a4.509,4.509,0,0,0-.725.137c.2-.088.316-.038.014-.008-.132.013-.265.024-.4.033-.319.021-.638.029-.958.027-.286,0-.572-.011-.858-.031-.131-.009-.262-.019-.393-.033-.075-.007-.149-.016-.224-.025-.156-.019-.1-.011.176.023-.113.055-.519-.092-.645-.12q-.309-.069-.614-.159c-.176-.053-.348-.116-.522-.176-.453-.155.415.2.005.006q-.324-.153-.64-.319a2,2,0,0,0-2.018,3.454h0Z" fill="#333"/>
          <path id="パス_91346" data-name="パス 91346" d="M65.839,59.833a26.5,26.5,0,0,1,.623,2.852l-.071-.532a1.731,1.731,0,0,1,.011.394l.071-.532a.973.973,0,0,1-.043.177l.2-.478a.742.742,0,0,1-.062.114l.313-.4a.578.578,0,0,1-.093.092l.4-.313a1.876,1.876,0,0,1-.226.12l.478-.2a1.632,1.632,0,0,1-.381.111l.532-.071a1.579,1.579,0,0,1-.357,0l.532.071c-.135-.019-.267-.052-.4-.07a1.526,1.526,0,0,0-.8-.036,1.492,1.492,0,0,0-.744.237,2,2,0,0,0-.717,2.736,1.913,1.913,0,0,0,1.195.919c.354.048.7.136,1.059.152a3.471,3.471,0,0,0,1.622-.395,2.457,2.457,0,0,0,1.328-1.606A3.8,3.8,0,0,0,70.3,61.5c-.155-.919-.368-1.83-.6-2.731a2,2,0,0,0-2.46-1.4,2.025,2.025,0,0,0-1.195.919,2.1,2.1,0,0,0-.2,1.541h0Z" fill="#333"/>
          <path id="パス_91347" data-name="パス 91347" d="M51.275,51.612c-.476,1.548-.166,5.109,2.767,5.412,3.876-.023,4.082-4.328,2.777-6.353C55.751,49.014,52.609,48.324,51.275,51.612Z" fill="#333"/>
          <path id="パス_91348" data-name="パス 91348" d="M82.314,51.612c.476,1.548.166,5.109-2.766,5.412-3.876-.023-4.082-4.329-2.778-6.353C77.838,49.014,80.979,48.325,82.314,51.612Z" fill="#333"/>
          <path id="パス_91349" data-name="パス 91349" d="M81,69.629a12.934,12.934,0,0,0-1.873-2.779,2.057,2.057,0,0,0-2.83,0,2.012,2.012,0,0,0-.586,1.414l.071.532a2,2,0,0,0,.514.883c.13.15.255.3.377.461l-.313-.4a10.986,10.986,0,0,1,1.183,1.914,1.928,1.928,0,0,0,1.993.955,1.492,1.492,0,0,0,.744-.237,2.016,2.016,0,0,0,.919-1.195l.071-.532A1.987,1.987,0,0,0,81,69.631h0Z" fill="#333"/>
          <path id="パス_91350" data-name="パス 91350" d="M54.031,30.245a11.9,11.9,0,0,0-6.77-1.535,7.057,7.057,0,0,0-5.7,3.866,34,34,0,0,0-1.877,6.763,10.467,10.467,0,0,1-2.883,5.34c-1.858,1.789.973,4.616,2.828,2.828a13.628,13.628,0,0,0,3.416-5.384c.686-1.962.913-4.044,1.47-6.041.454-1.628,1-2.866,2.568-3.3a7.3,7.3,0,0,1,4.928.911,2.048,2.048,0,0,0,2.736-.718,2.019,2.019,0,0,0-.718-2.736h0Z" fill="#333"/>
          <path id="パス_91351" data-name="パス 91351" d="M48.458,8.646c-4.565-1.345-9.024,1.089-12.505,3.87a13.087,13.087,0,0,0-3.9,4.647,16.7,16.7,0,0,0-1.068,6.975,25.652,25.652,0,0,1-.689,7.333c-.61,2.014-1.659,3.882-2.064,5.96-.773,3.96.826,8.451,4.451,10.48,2.249,1.259,4.268-2.195,2.019-3.454-2.727-1.527-3.073-4.873-2.176-7.574.576-1.734,1.429-3.372,1.848-5.158a28.9,28.9,0,0,0,.6-6.155,23.613,23.613,0,0,1,.323-5.675,8.224,8.224,0,0,1,2.854-4.035c2.427-2.087,5.919-4.334,9.239-3.356,2.474.729,3.531-3.13,1.063-3.857h0Z" fill="#333"/>
          <path id="パス_91352" data-name="パス 91352" d="M55.507,10.261C57.108,5.584,62.882,4.046,67.3,4a20.441,20.441,0,0,1,8.159,1.6,35.752,35.752,0,0,1,7.357,4.817c3.919,2.952,8.916,4.109,12.729,7.168,4.054,3.253,3.987,8.579,4.81,13.3.531,3.047,1.467,6,2.067,9.032a27.605,27.605,0,0,1,.524,4.7A2.673,2.673,0,0,1,101.5,47.24c-2.262,1.231-.245,4.686,2.019,3.454,3.033-1.65,3.6-4.7,3.332-7.862a59.186,59.186,0,0,0-1.8-9.129c-.761-3.086-1.091-6.208-1.668-9.325a16.688,16.688,0,0,0-3.193-7.809c-3.628-4.433-9.518-5.609-14.1-8.7C83.2,5.912,80.71,3.573,77.475,2.144A24.828,24.828,0,0,0,68.113.008C61.52-.17,53.962,2.442,51.65,9.2c-.836,2.441,3.027,3.489,3.857,1.063h0Z" fill="#333"/>
          <path id="パス_91353" data-name="パス 91353" d="M59.862,28.429c1.173-3.029,4.637-4.656,7.742-4.45,3.463.23,6.547,2.541,8.439,5.338,2.183,3.227,3.868,6.508,7.362,8.54a21.27,21.27,0,0,0,10.914,2.4c2.573-.016,2.579-4.016,0-4-3.695.023-7.671-.475-10.549-3.026a22.17,22.17,0,0,1-3.72-5.081,18.965,18.965,0,0,0-3.962-4.683,14.1,14.1,0,0,0-11.353-3.284,11.52,11.52,0,0,0-8.73,7.184,2.015,2.015,0,0,0,1.4,2.46,2.045,2.045,0,0,0,2.46-1.4h0Z" fill="#333"/>
          <path id="パス_91354" data-name="パス 91354" d="M80.353,39.729a29.164,29.164,0,0,0,7.208,5.193c3.286,1.812,6.99,3.363,10.8,3.4,2.575.026,2.577-3.974,0-4a13.805,13.805,0,0,1-4.423-.872,27.346,27.346,0,0,1-4.56-2.1,38.927,38.927,0,0,1-3.962-2.538c-.125-.091-.248-.185-.373-.277-.477-.351.293.237-.151-.115-.228-.181-.453-.364-.674-.553a12.524,12.524,0,0,1-1.036-.972c-1.764-1.882-4.589.951-2.828,2.828h0Z" fill="#333"/>
        </g>
      </g>
    </g>
    <g id="楕円形_188" data-name="楕円形 188" transform="translate(-15313 -21220)" fill="none" stroke="#333" stroke-width="3">
      <ellipse cx="62.694" cy="62.694" rx="62.694" ry="62.694" stroke="none"/>
      <ellipse cx="62.694" cy="62.694" rx="61.194" ry="61.194" fill="none"/>
    </g>
  </g>
</svg>
