<svg xmlns="http://www.w3.org/2000/svg" xmlns:xlink="http://www.w3.org/1999/xlink" width="125.389" height="125.389" viewBox="0 0 125.389 125.389">
  <defs>
    <clipPath id="clip-path">
      <ellipse id="楕円形_190" data-name="楕円形 190" cx="62.694" cy="62.694" rx="62.694" ry="62.694" transform="translate(-16323.592 -21702.219)" fill="#fff"/>
    </clipPath>
  </defs>
  <g id="グループ_9848" data-name="グループ 9848" transform="translate(15210 21061.535)">
    <ellipse id="楕円形_191" data-name="楕円形 191" cx="62.694" cy="62.694" rx="62.694" ry="62.694" transform="translate(-15210 -21061.535)" fill="#fff"/>
    <g id="マスクグループ_41" data-name="マスクグループ 41" transform="translate(1113.592 640.684)" clip-path="url(#clip-path)">
      <g id="c" transform="translate(-16328.52 -21688.523)">
        <g id="d">
          <path id="パス_91433" data-name="パス 91433" d="M132.652,238.826a6.589,6.589,0,0,0,.505-2.617c.272-9.1-4.3-21.236-7.472-29.771,0,0-.1-.276-.275-.777-3.266.362-8.642.8-13.316,1.113-.061,1.434-.1,2.33-.1,2.33a197.362,197.362,0,0,0,.052,20.212,3.646,3.646,0,0,0,1.2,2.354,3.108,3.108,0,0,0,2.258.58c1.622-.114,3.944-2.109,4.888-4.8a72.911,72.911,0,0,0,4.429,9.181,10.221,10.221,0,0,0,2.345,3.139,3.75,3.75,0,0,0,3.682.742,3.309,3.309,0,0,0,1.807-1.683Z" fill="#fff"/>
          <path id="パス_91434" data-name="パス 91434" d="M15.016,228.043c1.054,2.388,3.152,4.1,4.652,4.206a3.1,3.1,0,0,0,2.258-.58,3.648,3.648,0,0,0,1.2-2.354,197.078,197.078,0,0,0,.052-20.212s-.041-.9-.1-2.33c-4.673-.313-10.046-.751-13.312-1.113-.177.5-.28.776-.28.776C6.311,214.971,1.74,227.1,2.012,236.207c.059,1.966.5,3.539,2.313,4.3a3.752,3.752,0,0,0,3.682-.742,10.209,10.209,0,0,0,2.345-3.139,72.891,72.891,0,0,0,4.428-9.181c.071.2.15.4.236.6Z" fill="#fff"/>
          <path id="パス_91435" data-name="パス 91435" d="M40.327,64.623a4.753,4.753,0,0,1-3.791-1.046,13.13,13.13,0,0,1-3.853-6.248c-.826-2.433-.878-6.365.352-8.5a4.032,4.032,0,0,1,3.621-2.012,4.481,4.481,0,0,1,2.5.652C52.4,43.089,70.1,34.3,78.849,26.517A34.468,34.468,0,0,1,90.51,37.224a83.815,83.815,0,0,1,5.286,10.4,4.392,4.392,0,0,1,2.715-.8,4.03,4.03,0,0,1,3.621,2.012c1.23,2.134,1.178,6.066.352,8.5a13.121,13.121,0,0,1-3.853,6.248,4.788,4.788,0,0,1-3.692,1.066l-.352-.059a28.557,28.557,0,0,1-1.272,3.448C92.376,70.58,87.189,79.514,80.626,83c.1,1.26.261,2.507.481,3.76.343,1.964.237,3.716,2.97,4.7.049.018.668.309,1.547.724-.953,3.628-2.129,7.344-3.4,11.066l-.541.215c-4.214,1.676-10.351,2.357-14.665,2.347a59.226,59.226,0,0,1-13.527-1.944l-.362-.1c-1.29-3.739-2.485-7.475-3.461-11.125,1.418-.658,2.51-1.165,2.572-1.187,2.734-.988,2.615-2.739,2.97-4.7.195-1.137.349-2.184.444-3.285A24.447,24.447,0,0,1,46.8,76.406a33.033,33.033,0,0,1-6.268-11.827c-.068.017-.136.033-.2.046Z" fill="#fff"/>
          <path id="パス_91436" data-name="パス 91436" d="M97.758,391.8a56.329,56.329,0,0,1-6.571-7.949,13.876,13.876,0,0,1-2.648-7.6c.454-19.591,1.966-41.55,3.306-63.941l.688-12.478c-13.666.726-35.393.686-49.9-.048l.691,12.526c1.339,22.391,2.852,44.35,3.306,63.941a13.871,13.871,0,0,1-2.648,7.6,56.017,56.017,0,0,1-6.571,7.944c-.128,1.231-.255,2.456-.255,2.456-.366,3.523,2.195,5.641,5.076,6.689a10.522,10.522,0,0,0,9.354-1.244A92.6,92.6,0,0,0,64.693,389s.5-.632.958-1.336h3.566L70.479,389a92.535,92.535,0,0,0,13.106,10.7,10.521,10.521,0,0,0,9.354,1.244c2.88-1.048,5.441-3.166,5.076-6.689l-.254-2.452Z" fill="#fff"/>
          <path id="パス_91437" data-name="パス 91437" d="M78.978,407.324c-2.744-1.913-5.17-3.593-5.947-4.078-4.99-3.117-4.432-7.357-4.323-10.264a53.243,53.243,0,0,1,.506-5.318L70.476,389a92.535,92.535,0,0,0,13.106,10.7,10.521,10.521,0,0,0,9.354,1.244c2.88-1.048,5.441-3.166,5.076-6.689l-.254-2.452.472.484c3.235,3.317,6.8,6.581,10.032,9.8,2.1,2.092,3.75,4.872,3.676,7.921a6.789,6.789,0,0,1-3.219,5.08,13.024,13.024,0,0,1-5.845,2.058,22.085,22.085,0,0,1-13.755-2.823c-.755-.435-5.839-4-10.14-7Z" fill="#fff"/>
          <path id="パス_91438" data-name="パス 91438" d="M56.19,407.324c2.744-1.913,5.17-3.593,5.947-4.078,4.99-3.117,4.432-7.357,4.323-10.264a58.632,58.632,0,0,0-.384-6.025A9.951,9.951,0,0,0,64.691,389a92.535,92.535,0,0,1-13.106,10.7,10.521,10.521,0,0,1-9.354,1.244c-2.88-1.048-5.441-3.166-5.076-6.689l.254-2.452-.472.484c-3.235,3.317-6.8,6.581-10.032,9.8-2.1,2.092-3.75,4.872-3.676,7.921a6.789,6.789,0,0,0,3.219,5.08,13.02,13.02,0,0,0,5.845,2.058,22.085,22.085,0,0,0,13.755-2.823c.755-.435,5.839-4,10.14-7Z" fill="#fff"/>
          <path id="パス_91439" data-name="パス 91439" d="M19.335,206.508c-3.783-.284-7.549-.613-9.961-.891-1.29-.15-5.09-.64-4.86-3.76,2.1-19.8,6.47-55.3,8.62-70.39.67-4,2.88-15.34,3.81-18.07a20.843,20.843,0,0,1,7.28-10.35,32.539,32.539,0,0,1,8.39-4.57c2.82-1.02,6.84-2.5,10.48-3.84l1.185-.436a28.346,28.346,0,0,1,4.869-3.564c2.55,10.35,7.084,21.52,10.677,31.588,2.656,7.441,4.137,10.624,7.21,17.838h1.1c3.074-7.214,4.555-10.4,7.21-17.838,3.593-10.068,8.128-21.239,10.677-31.588a28.422,28.422,0,0,1,4.87,3.562l1.185.438c3.64,1.34,7.66,2.82,10.48,3.84a32.539,32.539,0,0,1,8.39,4.57,20.843,20.843,0,0,1,7.28,10.35c.93,2.73,3.14,14.07,3.81,18.07,2.15,15.09,6.52,50.59,8.62,70.39.23,3.12-3.57,3.61-4.86,3.76-4.52.52-13.79,1.22-19.03,1.47,0,0,0-1.192,0-2.682-6.336.441-15.383.878-20.678.014-4.219-.688-7.1-1.485-9.77-3.73a16.984,16.984,0,0,1-5.641-8.2,86.431,86.431,0,0,1-1.867-8.954.627.627,0,0,0-1.24,0,79.442,79.442,0,0,1-1.746,8.586,15.736,15.736,0,0,1-5.974,8.34c-2.054,1.522-6.209,3.184-10.917,3.912a92.143,92.143,0,0,1-20.147.338,1.083,1.083,0,0,1-.382-.11v2.486c-2.443-.117-5.763-.331-9.069-.579Z" fill="#fff"/>
          <g id="e">
            <path id="パス_91440" data-name="パス 91440" d="M86.087,204.419c-4.219-.688-7.1-1.485-9.77-3.73a16.984,16.984,0,0,1-5.641-8.2,86.431,86.431,0,0,1-1.867-8.954.627.627,0,0,0-1.24,0,79.442,79.442,0,0,1-1.746,8.586,15.736,15.736,0,0,1-5.974,8.34c-2.054,1.522-6.209,3.184-10.917,3.912a92.393,92.393,0,0,1-18.952.449c-2.888,31.965,3.458,84.512,3.939,93.5a.987.987,0,0,0,.9.934c15.684,1.452,52.619,1.506,65.7-.047a.992.992,0,0,0,.884-.933c.465-8.9,6.715-61.8,3.731-93.758-6.183.4-14.19.7-19.047-.1Z" fill="#0c5fe5"/>
            <path id="パス_91441" data-name="パス 91441" d="M37.505,64.406a3.956,3.956,0,0,0,3.026.437A39.83,39.83,0,0,0,46.8,78.352a33.764,33.764,0,0,0,3.911,4.529c-4.786,1.316-11.159-.514-13.676-3.554a16.242,16.242,0,0,1-3.463-11.434,7.816,7.816,0,0,1,2.045-5.178,10.1,10.1,0,0,0,.92.984,4.981,4.981,0,0,0,.969.707Z" fill="#0c5fe5"/>
            <path id="パス_91442" data-name="パス 91442" d="M37.765,18.715A29.079,29.079,0,0,0,34.5,27.309a41.076,41.076,0,0,0,.03,13.743s1.555,6.742,1.607,5.812a4.621,4.621,0,0,1,.517-.046,4.481,4.481,0,0,1,2.5.652C52.4,43.089,70.1,34.3,78.85,26.517A34.468,34.468,0,0,1,90.511,37.224a84.049,84.049,0,0,1,5.289,10.4,4.355,4.355,0,0,1,2.712-.809,5.182,5.182,0,0,1,1.5.262c2.472-5.541,1.256-15.047.284-19.771q-.174-.856-.4-1.7a28.892,28.892,0,0,0-1.9-5.058,33.535,33.535,0,0,0-17.2-16.085A30.479,30.479,0,0,0,67.406,2.1a29.714,29.714,0,0,0-8.538.785,33.681,33.681,0,0,0-21.1,15.833Z" fill="#0c5fe5"/>
            <path id="パス_91443" data-name="パス 91443" d="M62.4,129.065c-.79-1.982-1.6-4.128-2.569-6.839-2.106-5.9-4.536-12.181-6.7-18.453l.361.1a59.321,59.321,0,0,0,13.527,1.944c4.314.011,10.451-.671,14.665-2.347l.541-.215c-2.207,6.445-4.713,12.91-6.878,18.975-2.656,7.441-4.137,10.624-7.21,17.838h-1.1c-1.954-4.585-3.264-7.542-4.641-11Z" fill="#0c5fe5"/>
          </g>
        </g>
        <g id="f">
          <path id="パス_91444" data-name="パス 91444" d="M79.988,405.6c-1.8-1.255-3.593-2.528-5.425-3.739a8.138,8.138,0,0,1-3.419-3.538,9.926,9.926,0,0,1-.485-4.19,55.6,55.6,0,0,1,.485-5.934l-3.343.883a76.221,76.221,0,0,0,6.955,6.478c3.119,2.573,6.5,5.626,10.295,7.119a12.277,12.277,0,0,0,11.487-1.359,8.268,8.268,0,0,0,3.169-4.147c.566-1.763.237-3.574.051-5.367l-3.414,1.414c2.994,3.071,6.126,6,9.194,8.995,2.147,2.1,5.7,5.681,4.059,9.034-1.7,3.48-6.543,4.156-9.964,4.064a19.485,19.485,0,0,1-10.017-3.039c-3.263-2.141-6.427-4.442-9.629-6.674-2.117-1.475-4.118,1.991-2.019,3.454,3.2,2.231,6.366,4.532,9.629,6.674a23.448,23.448,0,0,0,12.252,3.591c4.658.074,9.729-1.2,12.61-5.128,2.827-3.856,1.12-8.823-1.612-12.209A66.07,66.07,0,0,0,105,396.137c-1.969-1.892-3.922-3.794-5.827-5.747-1.124-1.152-3.6-.362-3.414,1.414a12.023,12.023,0,0,1,.183,3.994,4.411,4.411,0,0,1-2.232,2.6,8.662,8.662,0,0,1-9.276-.525,78.5,78.5,0,0,1-13.8-11.616c-.946-1-3.122-.631-3.343.883a65.338,65.338,0,0,0-.628,7,13.473,13.473,0,0,0,.736,5.526,11.494,11.494,0,0,0,4.689,5.356c2,1.3,3.934,2.68,5.886,4.04,2.117,1.475,4.118-1.991,2.019-3.454Z" fill="#333"/>
          <path id="パス_91445" data-name="パス 91445" d="M90.535,299.831q-.783,14.156-1.655,28.3c-.525,8.567-1.042,17.135-1.475,25.707q-.309,6.1-.549,12.2-.116,3.02-.208,6.039a40.574,40.574,0,0,0-.069,5.052c.372,3.853,2.2,6.992,4.5,10.01a94.77,94.77,0,0,0,9.769,10.543c1.853,1.789,4.684-1.036,2.828-2.828a104.686,104.686,0,0,1-8.49-8.918c-2.06-2.52-4-5.182-4.554-8.461a23.473,23.473,0,0,1-.014-4.514q.084-2.9.192-5.8.221-5.964.521-11.926c.732-14.806,1.773-29.593,2.592-44.394l.609-11.018c.142-2.572-3.858-2.564-4,0h0Z" fill="#333"/>
          <path id="パス_91446" data-name="パス 91446" d="M40.635,299.781q.741,13.443,1.565,26.88c1,16.37,2.061,32.754,2.415,49.154.073,3.394-1.629,6.149-3.585,8.783a85.543,85.543,0,0,1-9.539,10.258c-1.855,1.791.975,4.618,2.828,2.828a100.5,100.5,0,0,0,8.772-9.266c2.175-2.712,4.227-5.5,5.088-8.922.853-3.39.353-7.078.235-10.532q-.207-6.048-.5-12.092c-.733-15.314-1.819-30.606-2.662-45.914q-.308-5.589-.616-11.178c-.141-2.56-4.142-2.576-4,0h0Z" fill="#333"/>
          <path id="パス_91447" data-name="パス 91447" d="M57.2,409.051c1.972-1.374,3.937-2.76,5.947-4.078a11.327,11.327,0,0,0,4.832-5.862,15.371,15.371,0,0,0,.506-5.569c-.105-2.382-.145-4.751-.48-7.117-.25-1.768-2.871-1.848-3.655-.478a13.251,13.251,0,0,1-1.268,1.891c.488-.588-.026-.014-.112.066-.216.2-.417.417-.628.622-1.058,1.026-2.163,2-3.282,2.962a85.517,85.517,0,0,1-8.166,6.272,8.733,8.733,0,0,1-9.15.79,4.841,4.841,0,0,1-2.425-2.444c-.476-1.292-.044-2.99.092-4.3.184-1.772-2.283-2.574-3.414-1.414-3.423,3.51-7.067,6.792-10.5,10.286-3,3.05-5.521,7.833-3.608,12.1,1.973,4.4,7.022,6.139,11.488,6.481a23.687,23.687,0,0,0,13.721-3.226c3.491-2.1,6.765-4.651,10.106-6.979,2.1-1.462.1-4.931-2.019-3.454-2.977,2.075-5.94,4.175-8.943,6.213a20.061,20.061,0,0,1-8.976,3.384c-3.663.415-8.314.073-10.937-2.861-2.5-2.794-.181-6.62,2-8.83,3.439-3.491,7.081-6.776,10.5-10.286L35.411,391.8c-.186,1.793-.515,3.6.051,5.367a8.424,8.424,0,0,0,3.431,4.332,12.408,12.408,0,0,0,11.893.9,28.3,28.3,0,0,0,5.385-3.5q2.472-1.854,4.845-3.837c2.51-2.1,5.14-4.212,6.788-7.089l-3.655-.478c.272,1.924.244,3.888.326,5.826a13.519,13.519,0,0,1-.267,4.46,7.264,7.264,0,0,1-3.345,3.914c-1.922,1.259-3.8,2.6-5.681,3.908-2.1,1.461-.1,4.93,2.019,3.454Z" fill="#333"/>
          <path id="パス_91448" data-name="パス 91448" d="M65.585,300.351v87.31c0,2.574,4,2.578,4,0v-87.31c0-2.574-4-2.578-4,0Z" fill="#333"/>
          <path id="パス_91449" data-name="パス 91449" d="M103.135,204.511c1.786,19.317.62,38.949-.758,58.255-.581,8.134-1.283,16.257-2.023,24.378-.242,2.658-.492,5.315-.716,7.974-.072.856-.213,1.747-.2,2.607,0,.122-.075.349-.028.462-.608-1.467,1.7-.884.562-.923a2.848,2.848,0,0,0-.376.041q-1.129.119-2.263.209c-8.27.675-16.6.783-24.89.831-9.261.053-18.53-.055-27.783-.465-1.921-.085-3.841-.185-5.76-.311q-1.212-.08-2.423-.175a7.735,7.735,0,0,0-1.123-.094c-1.1.082,1.285-.624.567.935.035-.077-.025-.236-.019-.322a16.538,16.538,0,0,0-.191-2.489c-.1-1.182-.208-2.363-.316-3.544-.675-7.344-1.371-14.687-1.968-22.038-1.576-19.392-2.878-38.979-1.9-58.436q.167-3.3.456-6.584a2.016,2.016,0,0,0-2-2,2.042,2.042,0,0,0-2,2c-1.776,19.885-.466,40.09,1.042,59.95.617,8.124,1.355,16.237,2.111,24.349.232,2.485.472,4.97.667,7.458.1,1.252-.009,2.7.887,3.684,1.27,1.4,3.944,1.152,5.7,1.272,9.022.614,18.082.769,27.123.813,9.155.044,18.326-.036,27.469-.542,1.665-.092,3.33-.2,4.992-.346,1.971-.172,4.582-.064,5.3-2.376a13.775,13.775,0,0,0,.27-2.849c.09-1.139.191-2.276.292-3.414.65-7.292,1.333-14.58,1.918-21.877,1.592-19.872,2.919-39.952,1.852-59.887q-.175-3.276-.474-6.544a2.054,2.054,0,0,0-2-2,2.014,2.014,0,0,0-2,2h0Z" fill="#333"/>
          <path id="パス_91450" data-name="パス 91450" d="M50.674,94.378q.9-.417,1.795-.831l.578-.267c.045-.021.092-.041.137-.063.2-.1-.3.133-.273.119.4-.2.839-.33,1.234-.554a6.9,6.9,0,0,0,.9-.643,4.767,4.767,0,0,0,1.145-1.359,7.954,7.954,0,0,0,.831-2.815c.227-1.5.488-2.985.63-4.5a2.007,2.007,0,0,0-2-2,2.054,2.054,0,0,0-2,2c-.032.344-.068.688-.11,1.032-.019.16-.054.514-.018.152-.017.173-.05.345-.076.517-.086.561-.19,1.119-.275,1.68-.06.4-.115.793-.2,1.185a5.524,5.524,0,0,1-.151.554c-.112.337-.019.012.066-.125-.057.092-.1.2-.149.3s-.11.16-.153.244c-.078.152.361-.379.066-.094-.074.072-.149.147-.222.222-.291.3.22-.114.055-.034-.224.109-.427.27-.655.38-.063.031-.126.06-.19.088.231-.1.275-.117.134-.063-.1-.063-.481.2-.571.239-.852.387-1.7.785-2.548,1.18a2.008,2.008,0,0,0-.718,2.736,2.057,2.057,0,0,0,2.736.718h0Z" fill="#333"/>
          <path id="パス_91451" data-name="パス 91451" d="M92.806,93.392l-.024-.009.478.2c-.114-.048-.225-.105-.336-.161a1.489,1.489,0,0,0-.744-.237,2.055,2.055,0,0,0-1.993.955l-.2.478a2.018,2.018,0,0,0,0,1.063l.2.478a2.008,2.008,0,0,0,.718.718q.122.062.246.12a5.906,5.906,0,0,0,.592.252,1.526,1.526,0,0,0,.8.036,1.492,1.492,0,0,0,.744-.237,2.238,2.238,0,0,0,.919-1.195l.071-.532A1.987,1.987,0,0,0,94,94.314l-.313-.4a2,2,0,0,0-.883-.514h0Z" fill="#333"/>
          <path id="パス_91452" data-name="パス 91452" d="M78.655,83.311c.129,1.456.351,2.9.581,4.34a10.434,10.434,0,0,0,.514,2.313,5.52,5.52,0,0,0,2.324,2.764,6.068,6.068,0,0,0,.714.353c.2.089.407.175.614.256l-.322-.143c.036.018.074.033.11.051.471.227.944.448,1.415.673a2,2,0,0,0,2.018-3.454q-.662-.316-1.324-.63c-.072-.034-.143-.068-.216-.1l-.478-.2q-.318-.123.07.039a1.4,1.4,0,0,1-.305-.145,3.5,3.5,0,0,0-.574-.347q.36.287.187.143-.062-.051-.12-.105c-.075-.07-.143-.146-.215-.218-.23-.228.217.331.1.137-.041-.067-.09-.131-.131-.2s-.088-.165-.134-.246c-.176-.309.165.475.055.137A13.391,13.391,0,0,1,83.1,86.64c-.085-.539-.177-1.076-.26-1.614-.074-.483.032.286-.022-.157-.021-.172-.042-.345-.062-.517-.039-.346-.073-.693-.1-1.039a2.043,2.043,0,0,0-2-2,2.022,2.022,0,0,0-2,2h0Z" fill="#333"/>
          <path id="パス_91453" data-name="パス 91453" d="M41.211,46.553a6.739,6.739,0,0,0-7.344-1.094,6.407,6.407,0,0,0-3.349,4.308A16,16,0,0,0,32.839,62.4c1.644,2.446,4.242,4.652,7.389,4.244a2.066,2.066,0,0,0,2-2,2.011,2.011,0,0,0-2-2c-2.177.282-3.594-1.52-4.538-3.262a12.909,12.909,0,0,1-1.551-4.819,8.279,8.279,0,0,1,.825-5.039c-.326.524.512-.436.2-.21a1.831,1.831,0,0,1,.918-.42,2.5,2.5,0,0,1,2.3.489c1.915,1.709,4.754-1.11,2.828-2.828h0Z" fill="#333"/>
          <path id="パス_91454" data-name="パス 91454" d="M96.786,49.382a2.477,2.477,0,0,1,2.172-.516,1.929,1.929,0,0,1,1.045.447c-.3-.221.52.72.2.21a8.254,8.254,0,0,1,.825,5.039,12.97,12.97,0,0,1-1.551,4.819c-.944,1.741-2.36,3.544-4.538,3.262a2.01,2.01,0,0,0-2,2,2.052,2.052,0,0,0,2,2c5.117.664,8.263-4.857,9.542-8.994,1.149-3.716,1.09-9.467-2.542-11.843a6.7,6.7,0,0,0-7.983.749c-1.925,1.717.912,4.538,2.828,2.828h0Z" fill="#333"/>
          <path id="パス_91455" data-name="パス 91455" d="M93.182,62.011a28,28,0,0,1-1.266,4.219c-.192.506-.324.765-.564,1.363-.2.5.145-.292-.028.067-.061.127-.118.257-.179.384a35.8,35.8,0,0,1-3.091,5.144c-2.681,3.8-6.35,7.949-11.062,9.056-2.5.589-1.444,4.446,1.063,3.857,5.6-1.316,9.907-5.99,13.151-10.472a36.727,36.727,0,0,0,3.359-5.5c.2-.418.383-.844.562-1.272.214-.513-.165.356.072-.165.153-.337.291-.682.428-1.025a28.061,28.061,0,0,0,1.412-4.594c.524-2.512-3.331-3.586-3.857-1.063h0Z" fill="#333"/>
          <path id="パス_91456" data-name="パス 91456" d="M38.05,62.976C40.452,73.51,48.384,85,59.768,86.713a2.064,2.064,0,0,0,2.46-1.4,2.014,2.014,0,0,0-1.4-2.46c-10.092-1.522-16.8-11.631-18.924-20.943-.572-2.509-4.43-1.447-3.857,1.063h0Z" fill="#333"/>
          <path id="パス_91457" data-name="パス 91457" d="M62.131,71.941a11.945,11.945,0,0,0,5.748,1.342,9.48,9.48,0,0,0,5.916-1.794,2,2,0,0,0,0-2.828,2.062,2.062,0,0,0-2.828,0c.692-.539-.015-.018-.234.1-.169.089-.618.229.016.013-.156.053-.308.118-.465.169-.422.136-.888.157-1.3.3.212-.072.331-.04.031-.01-.128.013-.256.023-.384.032-.308.02-.617.028-.925.026-.276,0-.553-.011-.828-.03-.127-.009-.253-.019-.379-.031q-.108-.011-.216-.024c-.157-.019-.1-.011.188.025a8.165,8.165,0,0,1-1.216-.27c-.17-.051-.336-.112-.5-.17-.446-.153.425.2.021.012-.209-.1-.414-.2-.618-.308a2,2,0,0,0-2.018,3.454h0Z" fill="#333"/>
          <path id="パス_91458" data-name="パス 91458" d="M66.6,58.746a25.475,25.475,0,0,1,.6,2.755l-.071-.532a1.667,1.667,0,0,1,.01.38l.071-.532a.909.909,0,0,1-.042.171l.2-.478a.73.73,0,0,1-.06.11l.313-.4a.583.583,0,0,1-.09.089l.4-.313a1.681,1.681,0,0,1-.218.115l.478-.2a1.569,1.569,0,0,1-.368.107l.532-.071a1.474,1.474,0,0,1-.345,0l.532.071c-.13-.018-.258-.05-.388-.067a1.526,1.526,0,0,0-.8-.036,1.492,1.492,0,0,0-.744.237,2,2,0,0,0-.717,2.736l.313.4a2,2,0,0,0,.883.514c.348.047.687.134,1.041.15a3.43,3.43,0,0,0,1.6-.39,2.443,2.443,0,0,0,1.314-1.592,3.746,3.746,0,0,0-.013-1.649c-.15-.888-.355-1.767-.583-2.638a2,2,0,0,0-2.46-1.4A2.025,2.025,0,0,0,66.8,57.2a2.1,2.1,0,0,0-.2,1.541h0Z" fill="#333"/>
          <path id="パス_91459" data-name="パス 91459" d="M52.593,50.786c-.46,1.495-.16,4.935,2.673,5.228,3.744-.022,3.943-4.181,2.683-6.137C56.917,48.276,53.883,47.61,52.593,50.786Z" fill="#333"/>
          <path id="パス_91460" data-name="パス 91460" d="M82.576,50.786c.46,1.495.16,4.935-2.672,5.228-3.744-.023-3.944-4.181-2.683-6.137,1.032-1.6,4.066-2.267,5.356.909Z" fill="#333"/>
          <path id="パス_91461" data-name="パス 91461" d="M101.986,47.509c1.689-4.039,1.664-8.773,1.321-13.065a42.668,42.668,0,0,0-2.735-12.983A35.507,35.507,0,0,0,79.626,1.887,39.572,39.572,0,0,0,63.982.113,34.01,34.01,0,0,0,51.177,3.56a35.111,35.111,0,0,0-17.4,19.025c-2.883,7.756-2.271,16.746.236,24.53.786,2.44,4.649,1.4,3.857-1.063-1.931-5.994-2.714-12.708-1.29-18.894A30.169,30.169,0,0,1,50.091,8.74,31.06,31.06,0,0,1,61.142,4.449a29.8,29.8,0,0,1,5.9-.367,39.848,39.848,0,0,1,7.579.556A31.592,31.592,0,0,1,95.47,20.032a33.9,33.9,0,0,1,3.722,13.173c.445,4.353.658,9.125-1.065,13.244a2.012,2.012,0,0,0,1.4,2.46,2.051,2.051,0,0,0,2.46-1.4h0Z" fill="#333"/>
          <path id="パス_91462" data-name="パス 91462" d="M97.435,46.4A58.092,58.092,0,0,0,90.8,34.185a37.958,37.958,0,0,0-10.593-9.192c-2.209-1.335-4.221,2.122-2.019,3.454a33.151,33.151,0,0,1,9.587,8.32,59.177,59.177,0,0,1,6.207,11.657,2.014,2.014,0,0,0,2.736.718,2.051,2.051,0,0,0,.718-2.736h0Z" fill="#333"/>
          <path id="パス_91463" data-name="パス 91463" d="M77.782,24.791C72.559,29.512,66.273,33.1,60.061,36.342A146.792,146.792,0,0,1,38.8,45.486c-2.429.813-1.387,4.678,1.063,3.857A153.533,153.533,0,0,0,62.08,39.795c6.523-3.4,13.048-7.222,18.531-12.177,1.914-1.73-.922-4.552-2.828-2.828h0Z" fill="#333"/>
          <path id="パス_91464" data-name="パス 91464" d="M32.751,63.261C30.1,68.817,31.736,76.624,35.9,81.055a14.093,14.093,0,0,0,6.674,3.633,17.272,17.272,0,0,0,8.578.145c2.494-.631,1.437-4.49-1.063-3.857-3.637.92-8.61.014-11.211-2.6a12.537,12.537,0,0,1-3.019-6.075,11.378,11.378,0,0,1,.35-7.025,2.055,2.055,0,0,0-.718-2.736,2.017,2.017,0,0,0-2.736.718h0Z" fill="#333"/>
          <path id="パス_91465" data-name="パス 91465" d="M68.763,139.054c-1.486-3.485-3.017-6.953-4.42-10.473-1.6-4.012-3.009-8.1-4.5-12.147-3.2-8.676-6.528-17.342-8.763-26.329A2.022,2.022,0,0,0,48.14,88.91a30.791,30.791,0,0,0-8.753,7.5c-1.09,1.363-2.861,3.365-1.663,5.145a8.69,8.69,0,0,0,2.738,1.958c.963.611,1.915,1.238,2.885,1.837v-3.454a56.236,56.236,0,0,0-4.939,3.534,4.2,4.2,0,0,0-1.545,2.289,4.317,4.317,0,0,0,.839,3c1.959,3.466,4,6.884,6.085,10.277,4.389,7.146,8.966,14.174,13.57,21.182,1.408,2.143,4.873.141,3.454-2.019-3.55-5.4-7.082-10.819-10.526-16.29q-2.562-4.069-5.047-8.186-1.2-1.994-2.371-4-.543-.933-1.08-1.87a7.21,7.21,0,0,1-1.067-2.093v1.063q-.348.207.2-.239.309-.288.636-.556c.35-.285.719-.544,1.09-.8.9-.621,1.823-1.21,2.719-1.838a2.028,2.028,0,0,0,0-3.454c-1.642-1.013-3.275-2.047-4.906-3.078l.718.718-.152-.209.273,1.009.011-.224-.273,1.009a16.28,16.28,0,0,1,3.927-4.835,26.729,26.729,0,0,1,5.2-3.919l-2.938-1.195c2.272,9.134,5.674,17.937,8.92,26.755,1.481,4.022,2.881,8.073,4.478,12.051,1.495,3.727,3.116,7.4,4.691,11.1a2.012,2.012,0,0,0,2.736.718,2.053,2.053,0,0,0,.718-2.736h0Z" fill="#333"/>
          <path id="パス_91466" data-name="パス 91466" d="M26.092,123.511c.391,7.165,1.009,14.319,1.537,21.475.481,6.526,1.232,13.141,1.18,19.692-.033,4.075-.441,8.166-.831,12.221q-.791,8.222-1.457,16.452c-.246,3.069-.485,6.138-.737,9.206-.117,1.429.091,2.831,1.414,3.661,1.1.689,2.657.6,3.913.69a89.239,89.239,0,0,0,16.031-.3c5.886-.673,12.107-2.3,16.359-6.68a17.964,17.964,0,0,0,4.28-7.367c.345-1.154.585-2.343.826-3.521a42.8,42.8,0,0,1,.973-5.209l-.514.883-.344.213H67.659l-.343-.217-.514-.883a25.819,25.819,0,0,1,.674,3.585c.224,1.163.466,2.335.733,3.494a22.041,22.041,0,0,0,1.939,5.465,18.68,18.68,0,0,0,9.619,8.571,37.063,37.063,0,0,0,12.157,1.941c4.338.112,8.684-.086,13.013-.36q1.416-.09,2.832-.193a6.623,6.623,0,0,0,3.041-.576c2.081-1.279,1.369-4,1.191-6.005-.4-4.527-.952-9.038-1.557-13.542-1.214-9.045-3.126-18.141-3.069-27.3.066-10.593.554-21.181.969-31.765.1-2.574-3.9-2.57-4,0-.389,9.934-.833,19.869-.951,29.811-.116,9.736,1.69,19.269,3,28.885.647,4.745,1.223,9.5,1.639,14.271q.063.728.122,1.454.03.366.058.734c.042.536-.19,1.019.408.341.629-.714.321-.288-.089-.366a3.383,3.383,0,0,0-.762.056q-.813.059-1.626.114c-2.2.148-4.4.273-6.6.358a66.889,66.889,0,0,1-12.922-.315,23.749,23.749,0,0,1-6.409-1.668,15,15,0,0,1-5.012-4.055c-2.829-3.39-3.453-7.979-4.194-12.187-.218-1.238-.294-2.528-1.5-3.224a2.65,2.65,0,0,0-3.264.532c-.85.936-.813,2.506-1.027,3.691-.236,1.309-.493,2.616-.784,3.914-.9,3.99-2.8,7.574-6.388,9.777-3.913,2.4-8.721,3.212-13.228,3.562a93.632,93.632,0,0,1-14.436.021,4.02,4.02,0,0,0-.9-.075l-.174-.016q-.673-.124.409.653c.174-.128.123-1.495.142-1.727q.182-2.229.357-4.458.327-4.113.663-8.224c.674-8.088,1.888-16.255,1.934-24.382.032-5.616-.571-11.276-.977-16.871-.5-6.946-1.06-13.888-1.528-20.836-.076-1.135-.15-2.269-.212-3.4-.14-2.56-4.141-2.576-4,0h0Z" fill="#333"/>
          <path id="パス_91467" data-name="パス 91467" d="M77.812,142.18c4.6-7.009,9.18-14.037,13.57-21.182,2.084-3.392,4.126-6.81,6.087-10.275a4.3,4.3,0,0,0,.835-3,4.174,4.174,0,0,0-1.542-2.294,57.112,57.112,0,0,0-4.937-3.531v3.454c.908-.561,1.8-1.146,2.7-1.72a15.031,15.031,0,0,0,2.611-1.673c1.568-1.568.193-3.53-.866-4.925a30.877,30.877,0,0,0-9.245-8.116,2.022,2.022,0,0,0-2.938,1.195c-2.28,8.972-5.551,17.626-8.747,26.3-1.476,4-2.869,8.041-4.447,12.007-1.422,3.574-2.976,7.1-4.484,10.634a2.067,2.067,0,0,0,.718,2.736,2.012,2.012,0,0,0,2.736-.718c1.573-3.692,3.193-7.366,4.688-11.091,1.6-3.987,3-8.046,4.489-12.077,3.245-8.819,6.587-17.61,8.9-26.73l-2.938,1.195a26.641,26.641,0,0,1,5.173,3.889,16.351,16.351,0,0,1,3.956,4.86l-.273-1.009.014.224.273-1.009-.154.21.718-.718q-2.443,1.551-4.906,3.08a2.028,2.028,0,0,0,0,3.454c.9.627,1.818,1.216,2.718,1.837.371.256.739.515,1.09.8.217.179.429.363.636.554q.554.432.2.246V107.72a6.41,6.41,0,0,1-.957,1.909q-.588,1.03-1.186,2.056-1.114,1.913-2.256,3.809-2.535,4.218-5.163,8.377c-3.445,5.471-6.977,10.887-10.526,16.291-1.417,2.158,2.045,4.164,3.454,2.019h0Z" fill="#333"/>
          <path id="パス_91468" data-name="パス 91468" d="M91.542,96.566c5.789,2.131,12.044,3.81,17.178,7.329a19.679,19.679,0,0,1,7.965,11.382,188.537,188.537,0,0,1,4.252,22.757q3.951,29.376,7.177,58.85.2,1.783.388,3.567c.085.794.385,1.836-.135,2.32a4.707,4.707,0,0,1-2.083.768c-.054.012-.708.114-.2.042-.178.025-.358.043-.536.063-.551.063-1.1.119-1.654.174q-8.542.852-17.129,1.268c-2.562.124-2.577,4.125,0,4q8.112-.395,16.2-1.178c3.707-.353,9.669-.683,9.7-5.749a59.41,59.41,0,0,0-.7-6.678q-.414-3.723-.842-7.444-.936-8.142-1.92-16.279-1.9-15.738-3.957-31.455c-1.088-8.207-2.391-16.34-4.284-24.407-1.285-5.478-3.832-10.452-8.293-14.024-5.8-4.648-13.189-6.635-20.059-9.164-2.419-.891-3.463,2.974-1.063,3.857h0Z" fill="#333"/>
          <path id="パス_91469" data-name="パス 91469" d="M42.562,92.709c-6.164,2.269-12.871,4.064-18.312,7.855A23.773,23.773,0,0,0,14.8,113.577c-1.17,4.089-1.907,8.332-2.706,12.5-.693,3.617-1.227,7.24-1.719,10.889Q6.2,167.93,2.822,199c-.294,2.71-.71,5.35,1.828,7.144,1.761,1.245,3.967,1.4,6.043,1.62,5.886.609,11.8,1.04,17.712,1.327,2.573.125,2.567-3.875,0-4-5.136-.249-10.27-.632-15.39-1.1-1.047-.1-2.093-.2-3.138-.312-.114-.013-1.069-.143-.6-.068a10.64,10.64,0,0,1-1.25-.265,2.765,2.765,0,0,1-1.366-.709c-.394-.6-.024-1.878.056-2.612,1.07-9.924,2.24-19.837,3.439-29.746,2.124-17.546,3.811-35.279,7.739-52.537,1.109-4.871,2.948-9.223,6.849-12.547a28.691,28.691,0,0,1,8.739-4.9q5.076-1.857,10.149-3.72c2.4-.882,1.36-4.749-1.063-3.857h0Z" fill="#333"/>
          <path id="パス_91470" data-name="パス 91470" d="M52.957,105.8a55.524,55.524,0,0,0,14.91,2.008,42.207,42.207,0,0,0,14.345-2.411,2.059,2.059,0,0,0,1.4-2.46,2.014,2.014,0,0,0-2.46-1.4c-8.546,3.309-18.424,2.693-27.128.4-2.492-.656-3.555,3.2-1.063,3.857h0Z" fill="#333"/>
          <path id="パス_91471" data-name="パス 91471" d="M77.074,67.9q.267.294.51.607l-.313-.4a9.975,9.975,0,0,1,1.263,2.164l-.2-.478a10.076,10.076,0,0,1,.394,1.122,1.961,1.961,0,0,0,2.194,1.432,1.9,1.9,0,0,0,1.148-.55,2.056,2.056,0,0,0,.586-1.414,2.313,2.313,0,0,0-.362-1.274,2.238,2.238,0,0,0-1.195-.919,2.043,2.043,0,0,0-1.541.2,2.016,2.016,0,0,0-.919,1.195,1.953,1.953,0,0,0,.2,1.541.374.374,0,0,1,.06.1l-.2-.478a.377.377,0,0,1,.028.111l-.071-.532v.057l3.929-.532A12.05,12.05,0,0,0,79.9,65.073a2,2,0,0,0-3.414,1.414,2.166,2.166,0,0,0,.586,1.414h0Z" fill="#333"/>
          <path id="パス_91472" data-name="パス 91472" d="M123.756,206.969a147.956,147.956,0,0,1,6.361,19.9,37.008,37.008,0,0,1,1.032,9.507c-.041.9-.194,2.206-1.325,2.336-1.544.178-2.566-1.824-3.185-2.926a79.074,79.074,0,0,1-4.788-10.059,2.059,2.059,0,0,0-2.46-1.4,2.015,2.015,0,0,0-1.4,2.46,87.626,87.626,0,0,0,4.979,10.63c1.02,1.847,2.218,3.755,4.2,4.687a5.444,5.444,0,0,0,5.925-.667c2.854-2.385,2.185-7.132,1.776-10.393a72.814,72.814,0,0,0-2.706-12.083c-1.342-4.414-2.945-8.742-4.552-13.065-.889-2.392-4.757-1.357-3.857,1.063h0Z" fill="#333"/>
          <path id="パス_91473" data-name="パス 91473" d="M109.992,209.1a183.163,183.163,0,0,0-.013,19.238,6.666,6.666,0,0,0,1.613,4.52,5,5,0,0,0,4.12,1.362c3.187-.316,5.438-3.328,6.541-6.07a2.014,2.014,0,0,0-1.4-2.46,2.049,2.049,0,0,0-2.46,1.4c-.539,1.34-2.34,3.733-3.714,3.112-.723-.327-.672-1.35-.712-2.028-.073-1.238-.12-2.477-.153-3.716-.135-5.116-.053-10.243.175-15.355.115-2.574-3.886-2.568-4,0h0Z" fill="#333"/>
          <path id="パス_91474" data-name="パス 91474" d="M7.555,205.906C4.719,213.534,1.763,221.279.53,229.363A40.515,40.515,0,0,0,0,235.324a8.7,8.7,0,0,0,1.146,5.1,5.317,5.317,0,0,0,5.234,2.205A7.555,7.555,0,0,0,11.272,239a65.2,65.2,0,0,0,5.9-12.206,2.014,2.014,0,0,0-1.4-2.46,2.045,2.045,0,0,0-2.46,1.4A76.38,76.38,0,0,1,9.3,234.386c-.736,1.36-1.51,3.34-2.962,4.1-1.125.585-1.99-.053-2.221-1.182-.581-2.848.1-6.226.648-9.033a89.263,89.263,0,0,1,2.786-10.427c1.185-3.659,2.522-7.266,3.862-10.87.9-2.416-2.966-3.459-3.857-1.063h0Z" fill="#333"/>
          <path id="パス_91475" data-name="パス 91475" d="M21.176,209.1c.228,5.112.309,10.239.175,15.355-.031,1.184-.075,2.367-.143,3.549-.041.718.046,1.822-.709,2.2-1.356.675-3.2-1.816-3.727-3.114a2.064,2.064,0,0,0-2.46-1.4,2.013,2.013,0,0,0-1.4,2.46c1.1,2.742,3.355,5.754,6.541,6.07a5.038,5.038,0,0,0,4.12-1.362,6.616,6.616,0,0,0,1.613-4.52,183.709,183.709,0,0,0-.013-19.238c-.114-2.564-4.115-2.578-4,0h0Z" fill="#333"/>
          <path id="パス_91476" data-name="パス 91476" d="M78.847,61.016c4.525.132,9.535-.117,12.282-4.28,2.18-3.3,2.433-8.86-1.082-11.325-1.844-1.293-4.55-1.553-6.729-1.781a25.809,25.809,0,0,0-7.261.3c-2.172.39-4.641.876-5.888,2.879a8.465,8.465,0,0,0-1.132,4.976A10.364,10.364,0,0,0,72.049,58.5a10.6,10.6,0,0,0,6.8,2.52c2.574.111,2.568-3.889,0-4a6.647,6.647,0,0,1-3.839-1.226,6.1,6.1,0,0,1-1.894-3.508,5.231,5.231,0,0,1,.311-3.122,1.182,1.182,0,0,1,.431-.542,11.972,11.972,0,0,1,2.582-.694,22.1,22.1,0,0,1,10.407.4,2.247,2.247,0,0,1,1.842,2.327,6.85,6.85,0,0,1-.629,3.411c-1.7,3.352-6.015,3.049-9.211,2.956-2.575-.075-2.573,3.925,0,4Z" fill="#333"/>
          <path id="パス_91477" data-name="パス 91477" d="M56.522,57.016c-2.819.082-6.726.43-8.684-2.089a6.031,6.031,0,0,1-1.146-3.269c-.063-1.056-.082-2.278.871-2.944a5.591,5.591,0,0,1,1.961-.643,21.272,21.272,0,0,1,2.7-.457,23.011,23.011,0,0,1,5.356.065,20.735,20.735,0,0,1,2.539.53c.577.155,1.445.316,1.675.659a4.059,4.059,0,0,1,.4,1.052,4.956,4.956,0,0,1,.164,1.432,5.485,5.485,0,0,1-5.833,5.666c-2.564.111-2.578,4.111,0,4a10.91,10.91,0,0,0,6.08-1.939,9.72,9.72,0,0,0,3.444-5.44A9.327,9.327,0,0,0,65.8,48.1a5.954,5.954,0,0,0-1.5-2.375,7.767,7.767,0,0,0-3.293-1.414,25.33,25.33,0,0,0-7.237-.8,22.9,22.9,0,0,0-7.031,1.182c-4.386,1.631-4.83,6.875-3.2,10.69a8.73,8.73,0,0,0,4.834,4.708c2.58,1.057,5.409,1.006,8.148.926,2.568-.075,2.579-4.075,0-4Z" fill="#333"/>
          <path id="パス_91478" data-name="パス 91478" d="M66.063,52.6c.046-.023.092-.045.138-.065l-.478.2a4.733,4.733,0,0,1,1.188-.3l-.532.071a9.944,9.944,0,0,1,2.545,0l-.532-.071a5.7,5.7,0,0,1,1.394.341l-.478-.2.047.021a2.188,2.188,0,0,0,1.541.2,2,2,0,0,0,1.4-2.46,1.929,1.929,0,0,0-.919-1.195,6.95,6.95,0,0,0-1.678-.528,13.113,13.113,0,0,0-2.016-.19,7.991,7.991,0,0,0-3.639.718,2,2,0,0,0-.717,2.736,2.049,2.049,0,0,0,2.736.718h0Z" fill="#333"/>
          <path id="パス_91479" data-name="パス 91479" d="M93.114,51.211l.134-.058-.478.2a12.286,12.286,0,0,1,2.446-.773,2.238,2.238,0,0,0,1.195-.919,1.489,1.489,0,0,0,.237-.744,1.506,1.506,0,0,0-.036-.8,2.025,2.025,0,0,0-.919-1.195l-.478-.2a2.018,2.018,0,0,0-1.063,0,14.09,14.09,0,0,0-3.058,1.033,1.928,1.928,0,0,0-.955,1.993,1.492,1.492,0,0,0,.237.744,2.017,2.017,0,0,0,1.195.919l.532.071a1.987,1.987,0,0,0,1.009-.273h0Z" fill="#333"/>
          <path id="パス_91480" data-name="パス 91480" d="M43.973,47.757a14.108,14.108,0,0,0-3.058-1.033,1.526,1.526,0,0,0-.8-.036,1.492,1.492,0,0,0-.744.237,2.238,2.238,0,0,0-.919,1.195,2.022,2.022,0,0,0,.2,1.541,1.974,1.974,0,0,0,1.195.919,12.286,12.286,0,0,1,2.446.773l-.478-.2.134.058a1.489,1.489,0,0,0,.744.237,2.055,2.055,0,0,0,1.993-.955,2.022,2.022,0,0,0,.2-1.541l-.2-.478a2.008,2.008,0,0,0-.718-.718h0Z" fill="#333"/>
        </g>
      </g>
    </g>
    <g id="楕円形_177" data-name="楕円形 177" transform="translate(-15210 -21061.535)" fill="none" stroke="#333" stroke-width="3">
      <ellipse cx="62.694" cy="62.694" rx="62.694" ry="62.694" stroke="none"/>
      <ellipse cx="62.694" cy="62.694" rx="61.194" ry="61.194" fill="none"/>
    </g>
  </g>
</svg>
