<svg xmlns="http://www.w3.org/2000/svg" width="371.439" height="272.62" viewBox="0 0 371.439 272.62">
  <g id="_17048のコピー" data-name="17048のコピー" transform="translate(0.032 0.01)">
    <path id="パス_92373" data-name="パス 92373" d="M309.79,212.917c2.663,4.465,6.547,10.72,8.965,14.517-.694.342-1.178.584-1.178.584a79.855,79.855,0,0,1-10.91,5l-3.155,1.129V208.368h3.668C307.645,209.267,308.595,210.91,309.79,212.917Z" transform="translate(-31.107 -21.354)" fill="#fff"/>
    <path id="パス_92374" data-name="パス 92374" d="M372.651,262.662a27.736,27.736,0,0,0,2.747-2.949l.573-.589c1.2-5.9,2.749-14.763,4.383-24.508-7.033.684-16.635,1.62-16.635,1.62a101.956,101.956,0,0,1-14.71-.691,83.926,83.926,0,0,1-18-4.945c-1.353-.52-2.408-.954-3.052-1.224-2.279,1.309-4.158,2.361-5.4,3.027a1.81,1.81,0,0,1-2.37-.6c-.381-.58-.882-1.359-1.467-2.278a79.789,79.789,0,0,1-15.2,6.731c0,11.937,0,24.772,0,34.942h6.462c15.241-.606,43.6-1.868,52.812-3.583a20.7,20.7,0,0,0,9.864-4.958Z" transform="translate(-31.107 -23.507)" fill="#fff"/>
    <path id="パス_92375" data-name="パス 92375" d="M343.7,119.763c5.733-5.022,14.595-8.867,22.518-11a29.053,29.053,0,0,1-9.612-4.385q-.408-.284-.813-.587l-.628-.4c-4.367,1.771-9.282,3.9-12.409,5.551l-.628,3.2.661,3.478Z" transform="translate(-35.064 -10.596)" fill="#fff"/>
    <path id="パス_92376" data-name="パス 92376" d="M327.616,48.379q-3.045-2.291-5.892-4.834a32.566,32.566,0,0,0-1.018,10.175c-.141,4.667-.319,11.147-4.591,13.463a4.355,4.355,0,0,0-1.984,1.992c-1.023,2.324.979,3.367,2.22,4.707a7.153,7.153,0,0,1,1.623,3.03,44.287,44.287,0,0,0,.946,6.731,18.821,18.821,0,0,0,1.519,4.513,8.913,8.913,0,0,0,4.907,4.529c3.534,1.3,8.372,1.758,11.5.912a1.552,1.552,0,0,1,1.834.915,37.009,37.009,0,0,1,1.879,4.8l.9,2.693c3.481-1.705,8.272-3.735,12.31-5.337a11.93,11.93,0,0,0,2.894-8.4c-.188-3.87-1.685-7.6-3.091-11.262,4.587-2.081,7.2-5.486,7.457-10.544.1-1.926-.6-4.268-2.138-5.385a4.45,4.45,0,0,0-3.763-.586,5.042,5.042,0,0,0-.9.316l-2.673-.118a16.133,16.133,0,0,1-5.636-1.616,91.156,91.156,0,0,1-18.312-10.7Z" transform="translate(-32.166 -4.463)" fill="#fff"/>
    <path id="パス_92377" data-name="パス 92377" d="M355.315,18.989q-2.143-.164-4.512-.132a38.831,38.831,0,0,0-11.026,2.064,29.144,29.144,0,0,0-16.234,14.892,27.674,27.674,0,0,0-1.664,4.612l.83.738a91.193,91.193,0,0,0,24.038,15.374,16.133,16.133,0,0,0,5.636,1.616l2.673.118a5.043,5.043,0,0,1,.9-.316,4.45,4.45,0,0,1,3.763.586c1.533,1.121,2.235,3.463,2.138,5.385-.257,5.058-2.872,8.463-7.458,10.544,1.406,3.658,2.9,7.392,3.091,11.262.138,2.852-.938,7.224-3.938,9.274a29.5,29.5,0,0,0,25.43,4.987,10.385,10.385,0,0,0,7.255-8.179,31.853,31.853,0,0,0-.19-8.85c-.694-4.356-1.875-9.244.269-20.5A48.856,48.856,0,0,0,387.5,50.876a31.358,31.358,0,0,0-6.731-17.6C374.065,25.23,367.161,19.9,355.315,18.989Z" transform="translate(-32.989 -1.933)" fill="#fff"/>
    <path id="パス_92378" data-name="パス 92378" d="M358.366,81.435a3.343,3.343,0,0,0-3.464,3.321,3.287,3.287,0,0,0,3.662,3.166,3.25,3.25,0,0,0,3.462-3.384,3.341,3.341,0,0,0-3.66-3.1Z" transform="translate(-36.373 -8.345)" fill="#fff"/>
    <path id="パス_92379" data-name="パス 92379" d="M55.106,94.278c-5-2.4-9.882-4.338-12.386-5.254l.67-2.119c.214-.677.449-1.608.645-2.513l.506.115c8.152,2.637,20.591,6.81,28.182,10.784a1.531,1.531,0,0,1,.707.58,1.239,1.239,0,0,1,.067.881c-.441,1.629-.444,1.6-.924,3.522l4.466,3.718a20.811,20.811,0,0,1,.305,4.1q.04,5.084.082,10.151c-1.257-3-2.559-5.934-3.878-8.771a27.636,27.636,0,0,0-5.3-7.046C65.305,99.609,60.148,96.7,55.106,94.278Z" transform="translate(-4.381 -8.649)" fill="#fff"/>
    <path id="パス_92380" data-name="パス 92380" d="M129.851,114.318a5.256,5.256,0,0,1-1.024,1.24,8.609,8.609,0,0,1-3.333,1.286c-2.558.678-5.194,1.658-6.894,3.456a8.375,8.375,0,0,0-1.987,7.063l-3.206,3.566c2.852,2.658,6.784,6.414,9.633,9.1,3.466-.723,6.894-1.539,10.309-2.385a5.223,5.223,0,0,0,2.912-1.4,18.775,18.775,0,0,0,3.354-3.859c.3-.434.8-1.177,1.382-2.064l.5-.18c2.744-.977,7.389-2.719,11.375-3.713a7.37,7.37,0,0,0,1.478-.628,2.641,2.641,0,0,0,1.286-2.461c-.15-1.526-1.131-1.945-3.042-2.106a17.7,17.7,0,0,0-6.613.607l-.59.153a1.914,1.914,0,0,0-.763-1.51c-.958-.663-2.5,0-3.012.386-.53.4-1,.75-1.427,1.077l-4.139-4.249a23.652,23.652,0,0,0,2.731-4.741,5.654,5.654,0,0,0,.617-2.681c-.073-1-.305-1.555-1.11-1.8a4.117,4.117,0,0,0-2.95.313,15.046,15.046,0,0,0-5.152,4.989C130.075,113.967,129.964,114.144,129.851,114.318Z" transform="translate(-11.625 -11.104)" fill="#fff"/>
    <path id="パス_92381" data-name="パス 92381" d="M146.716,177.858a3.524,3.524,0,0,0,2.222-1.132,2.717,2.717,0,0,0,.184-2.675,2.277,2.277,0,0,0-1.72-1.315l-.9-.162.108-.18a3.077,3.077,0,0,0,.222-1.987,2.693,2.693,0,0,0-2.376-2.08c-6.283-1.1-13.074-1.919-19.426-2.948a17.288,17.288,0,0,0,4.389-6.244,2.423,2.423,0,0,0-.128-2.47,2.081,2.081,0,0,0-1.643-.852,4.757,4.757,0,0,0-2.513.636c-3.416,1.966-9.638,5.444-11.694,6.821a11.358,11.358,0,0,0-3.252,3.131h-2.442l.039.046a1.207,1.207,0,0,1,.254.714c.481,7.069.359,13.4.236,20.341,4.545,1.364,10.561,1.318,14.757,1.043,1.476-.1,11.855-1.065,16.155-1.66,1.532-.212,3.332-.569,2.7-3.655,1.183-.154,2.286-.309,3.244-.457a1.647,1.647,0,0,0,1.36-1.831,2.582,2.582,0,0,0-1.237-2.02l-1.315-.713,2.57-.322C146.582,177.88,146.649,177.869,146.716,177.858Z" transform="translate(-11.045 -15.968)" fill="#fff"/>
    <path id="パス_92382" data-name="パス 92382" d="M114.694,136.688c-2.552-2.415-4.97-4.688-6.317-5.876a1.885,1.885,0,0,0-2.438-.057c-.561.449-1.269,1.021-2.079,1.676-3.68,2.974-9.424,7.665-12.764,10.47l-1.462,1.346a94.859,94.859,0,0,1,2.907,15.812l.206,3.385.234.005c.543.014,1.084.023,1.626.034.433.009.866.019,1.3.025.565.009,1.134.011,1.7.015.409,0,.817.008,1.229.009.658,0,1.325-.006,1.992-.012.327,0,.648,0,.978-.007,1-.014,2.02-.037,3.058-.069a2.182,2.182,0,0,1,.269.01.59.59,0,0,1,.08.013,1.48,1.48,0,0,1,.18.037.846.846,0,0,1,.081.026,1.2,1.2,0,0,1,.167.073l.06.033a.939.939,0,0,1,.192.156h2.446a11.351,11.351,0,0,1,3.253-3.131c.527-.353,1.331-.846,2.29-1.415v-2.669c3.117-3.581,5.713-6.845,8.552-10.418a1.823,1.823,0,0,0-.292-2.423C120.258,141.971,117.4,139.25,114.694,136.688Z" transform="translate(-9.189 -13.358)" fill="#fff"/>
    <path id="パス_92383" data-name="パス 92383" d="M25.594,136.287a78.309,78.309,0,0,1,1.06-16.076c1.607-9.577,3.725-18.094,10.483-27.671l.269-.242a26.335,26.335,0,0,0,1.9-3.249c3.025,1,20.311,7.629,26.809,13.858a27.636,27.636,0,0,1,5.3,7.046c6.606,14.208,12.844,30.839,14.181,45.872l.211,3.389c3.978.1,7.884.129,12.117,0a1.13,1.13,0,0,1,1.322,1.107c.539,7.909.322,14.9.194,22.843a1.369,1.369,0,0,1-1.077,1.266c-4.869.473-9.366.83-13.792,1.023.224,9.433-1.158,19.262-2.233,26.372-1.885,12.395-7.414,19.9-13.687,24.009-7.2,4.712-25.938,4.73-37.633,2.6l-3.007-.539c-1.723-9.11-3.949-22.5-6.094-35.6l1.023-6.031c1.445-9.738,3.141-21.074,3.411-25.05a147.011,147.011,0,0,0,.323-18.588C26.236,146.3,25.746,141.22,25.594,136.287Z" transform="translate(-2.25 -9.127)" fill="#fff"/>
    <path id="パス_92384" data-name="パス 92384" d="M101.756,56.582a4.466,4.466,0,0,0-1.893-2.175c-4.213-2.658-3.949-9.3-3.77-14.091a35.849,35.849,0,0,0,.107-7.467A13.687,13.687,0,0,0,87.469,30.9c-7.426.846-13.962,5.144-18.284,9.044-2.423,2.364-3.07,4.121-5.415,7.764a11.4,11.4,0,0,0-1.148-1.436,5.29,5.29,0,0,0-2.227-1.4,4.563,4.563,0,0,0-3.892.341c-1.646,1.042-2.526,3.39-2.558,5.367a11.616,11.616,0,0,0,2.579,7.88c-.107.254-.17.4-.17.4-1.8,4.251-8.183,10.77-13.229,13.176a8.8,8.8,0,0,1,1.369,4.1,14.9,14.9,0,0,1-.394,2.677c.224.082.435.173.657.257C52.5,81.571,63.994,85.437,71.594,89.2l1.071-2.773a48.172,48.172,0,0,0,2.23-5.607,1.593,1.593,0,0,1,1.94-.808c3.148,1.077,8.13.94,11.837-.143A9.139,9.139,0,0,0,94,75.568a19.264,19.264,0,0,0,1.865-4.513A45.446,45.446,0,0,0,97.3,64.234a7.338,7.338,0,0,1,1.869-2.991C100.523,59.96,102.643,59.03,101.756,56.582Z" transform="translate(-4.423 -3.159)" fill="#fff"/>
    <path id="パス_92385" data-name="パス 92385" d="M289.687,195.094v11.914H99.363V195.094Z" transform="translate(-10.186 -19.994)" fill="#fff"/>
    <path id="パス_92386" data-name="パス 92386" d="M379.173,176.443c-.587-5.123,2.317-17.572,2.916-21.045,2.685-15.594.667-26.091-5.49-35.788l-3.027-4.5s-1.465-2.178-3.251-4.837a30.157,30.157,0,0,1-7.615-.89c-8.459,2.271-17.994,6.493-23.653,12.021a63.851,63.851,0,0,0-5.785,12.364c-1.616,4.462-3.8,11.154-4.471,16.984a34.779,34.779,0,0,0-.321,6.118c.051,2.926,2.264,17.217,3.949,21.746l1.423,3.071a7.913,7.913,0,0,1-2.478,2.518c-8.364,5.261-14.719,9.056-23.857,13.848,1.507,3.061,10.378,17.341,13.086,21.463a1.81,1.81,0,0,0,2.37.6c1.24-.666,3.119-1.718,5.4-3.027.643.269,1.7.7,3.052,1.224,4.275,1.641,11.513,4.129,18,4.945a101.955,101.955,0,0,0,14.71.691l16.635-1.62c1.026-6.119,2.084-12.584,3.107-18.877-.374-1.587-.619-2.628-.619-2.628a242.055,242.055,0,0,1-4.082-24.375Z" transform="translate(-31.516 -11.21)" fill="#71b225"/>
    <path id="パス_92387" data-name="パス 92387" d="M99.22,228.85v-7.629c-5.154-1.969-8.837-3.263-14.916-5.7-.4,3.372-.858,6.519-1.274,9.262-1.885,12.395-7.414,19.9-13.687,24.009-7.2,4.712-25.938,4.734-37.635,2.607l-3-.546c.359,1.885.692,3.59,1,5.065,3.671,3.913,8.769,6.013,16.845,6.872,15.04,1.73,34.256,2.56,52.666,3.411V228.85Z" transform="translate(-2.945 -22.087)" fill="#71b225"/>
    <path id="パス_92388" data-name="パス 92388" d="M76.816,5.345c10.325,4.55,14.7,12.4,15.428,14.153a25.615,25.615,0,0,1,2.365,10.461A13.6,13.6,0,0,0,85.8,27.95c-7.426.846-13.962,5.144-18.284,9.044-2.423,2.364-3.07,4.121-5.415,7.764a6.477,6.477,0,0,0-3.375-2.838,4.563,4.563,0,0,0-3.892.341c-1.646,1.042-2.526,3.39-2.558,5.367a11.616,11.616,0,0,0,2.579,7.88c-.107.254-.17.4-.17.4-1.8,4.252-8.183,10.77-13.229,13.176-1.638-2.812-4.382-5.523-6.111-7.682a37.634,37.634,0,0,1-8.364-27.015,37.122,37.122,0,0,1,7.43-18.5C43.809,3.866,53.612,2.341,59.613,2A37.432,37.432,0,0,1,76.391,5.16Z" transform="translate(-2.754 -0.202)" fill="#71b225"/>
    <path id="パス_92389" data-name="パス 92389" d="M336.339,177.923a69.322,69.322,0,0,1-2.725-12.3,56.812,56.812,0,0,1-1.128-12c.287-6.4,2.266-12.727,4.392-18.726a73.445,73.445,0,0,1,3.359-8.16,24.736,24.736,0,0,1,2.419-4.373,15.924,15.924,0,0,1,3.231-2.711,60.757,60.757,0,0,1,19.476-8.743,1.8,1.8,0,0,0-.954-3.462,67.241,67.241,0,0,0-18.432,7.824,42.827,42.827,0,0,0-3.906,2.8c-.558.449-1.1.918-1.628,1.406a9.235,9.235,0,0,0-1.626,2.3,66.277,66.277,0,0,0-4.254,9.052,83.8,83.8,0,0,0-5.278,18.977,36.285,36.285,0,0,0-.333,8.092c.189,2.044.488,4.081.8,6.11.751,4.931,1.419,10.158,3.134,14.867.784,2.154,4.255,1.223,3.462-.955Z" transform="translate(-33.704 -11.005)" fill="#333"/>
    <path id="パス_92390" data-name="パス 92390" d="M312.115,201.31q6.372-3.44,12.581-7.18,3.164-1.909,6.294-3.875a13.412,13.412,0,0,0,4.73-4.292c2.164-3.5,2.954-7.539,3.7-11.518.963-5.106,1.766-10.241,2.564-15.374.651-4.19,1.16-8.365,2.094-12.507.507-2.25-2.954-3.211-3.462-.955-.783,3.47-1.292,6.951-1.8,10.469-.684,4.818-1.475,9.629-2.322,14.42-.7,3.944-1.207,8.147-2.917,11.811a9.012,9.012,0,0,1-3.308,4.152q-3.085,1.954-6.208,3.845-6.785,4.129-13.773,7.9c-2.035,1.1-.223,4.2,1.812,3.1Z" transform="translate(-31.711 -14.791)" fill="#333"/>
    <path id="パス_92391" data-name="パス 92391" d="M305.863,209.069c1.606,3.113,3.516,6.089,5.343,9.074q3.242,5.3,6.577,10.54c1.152,1.8,2.373,3.821,4.9,3.285A12.994,12.994,0,0,0,326,230.321q1.91-1.07,3.807-2.164,6.874-3.972,13.632-8.143c5.042-3.114,10.078-6.283,14.859-9.789a1.849,1.849,0,0,0,.644-2.457,1.808,1.808,0,0,0-2.456-.644,296.765,296.765,0,0,1-25.669,16.293q-3.3,1.931-6.625,3.8-.819.458-1.64.909c-.171.094-.752.306-.573.368-.315-.109-.774-1.134-.987-1.465q-3.175-4.956-6.239-9.982c-1.975-3.222-4.05-6.432-5.785-9.795-1.059-2.054-4.158-.24-3.1,1.812Z" transform="translate(-31.326 -21.148)" fill="#333"/>
    <path id="パス_92392" data-name="パス 92392" d="M377.622,147.312c-.454,7.143-1.308,14.271-2.414,21.337a107.4,107.4,0,0,1-3.927,17.721,29.911,29.911,0,0,1-6.23,11.15c-1.578,1.686.956,4.229,2.538,2.538,4.988-5.329,7.459-12.452,9.043-19.457a207.987,207.987,0,0,0,3.411-20.922c.5-4.111.908-8.233,1.167-12.366.146-2.307-3.445-2.3-3.59,0Z" transform="translate(-37.362 -14.92)" fill="#333"/>
    <path id="パス_92393" data-name="パス 92393" d="M374.669,261.694a20.386,20.386,0,0,1-11.963,7.468c-1.477.3-2.518.4-3.932.563-1.809.21-3.623.385-5.438.545-9.373.826-18.778,1.307-28.176,1.752q-7.32.346-14.642.633c-2.3.09-2.315,3.68,0,3.59,9.452-.376,18.9-.8,28.347-1.356,8.1-.48,16.327-.822,24.335-2.184a23.225,23.225,0,0,0,14.008-8.473C378.664,262.462,376.139,259.908,374.669,261.694Z" transform="translate(-31.647 -26.757)" fill="#333"/>
    <path id="パス_92394" data-name="パス 92394" d="M392.314,200.8c-1.271-5.939-2.394-11.9-3.25-17.916a45.147,45.147,0,0,1-.768-9.5,77.344,77.344,0,0,1,1.185-8.454c1.069-5.873,2.392-11.655,2.772-17.636a47.658,47.658,0,0,0-2.47-19.455c-1.771-4.817-4.488-8.961-7.33-13.183-1.283-1.908-4.4-.113-3.1,1.811a64.371,64.371,0,0,1,6.385,10.833,43.117,43.117,0,0,1,3,18.546c-.24,5.872-1.488,11.524-2.562,17.273-.554,2.966-1.059,5.95-1.358,8.954a37.651,37.651,0,0,0,.389,8.874c.922,6.988,2.169,13.912,3.645,20.8.483,2.258,3.949,1.3,3.462-.954Z" transform="translate(-38.847 -11.667)" fill="#333"/>
    <path id="パス_92395" data-name="パス 92395" d="M330.074,230.906a100.509,100.509,0,0,0,14.437,4.883,83.228,83.228,0,0,0,21.8,2.038c2.308-.043,2.315-3.633,0-3.59a79.212,79.212,0,0,1-21.208-2,101.774,101.774,0,0,1-14.071-4.791,1.806,1.806,0,0,0-2.208,1.257,1.841,1.841,0,0,0,1.257,2.208Z" transform="translate(-33.694 -23.303)" fill="#333"/>
    <path id="パス_92396" data-name="パス 92396" d="M330.181,179.666a9.454,9.454,0,0,1-1.855,2.762q-1.609,1.729-3.224,3.451l-6.448,6.9c-1.576,1.686.957,4.231,2.538,2.538l6.827-7.308c2.154-2.3,4.393-4.429,5.624-7.39a1.806,1.806,0,0,0-1.257-2.208,1.842,1.842,0,0,0-2.209,1.257Z" transform="translate(-32.607 -18.279)" fill="#333"/>
    <path id="パス_92397" data-name="パス 92397" d="M347.641,144.534c.835-4.983,2.954-10.059,6.8-13.463a11.488,11.488,0,0,1,7.744-2.932,14.149,14.149,0,0,1,6.462,1.3c2.308,1.176,5.107,3.557,5.454,6.317a1.853,1.853,0,0,0,1.8,1.8,1.806,1.806,0,0,0,1.8-1.8c-.808-6.422-7.2-10.5-13.194-11.115a15.82,15.82,0,0,0-10.378,2.2,20.472,20.472,0,0,0-6.485,7.056,29.175,29.175,0,0,0-3.449,9.683,1.849,1.849,0,0,0,1.257,2.208,1.809,1.809,0,0,0,2.208-1.257Z" transform="translate(-35.269 -12.76)" fill="#333"/>
    <path id="パス_92398" data-name="パス 92398" d="M342.513,114.66c-.114-1.237-.6-3.081.251-4.023a5.611,5.611,0,0,1,1.686-.993c.744-.372,1.494-.73,2.244-1.077,3.315-1.543,6.69-2.955,10.086-4.308a1.85,1.85,0,0,0,1.257-2.208,1.808,1.808,0,0,0-2.208-1.257c-3.913,1.559-7.808,3.183-11.617,4.986-1.69.8-3.548,1.511-4.626,3.125-1.162,1.74-.847,3.8-.666,5.755a1.844,1.844,0,0,0,1.8,1.8,1.808,1.808,0,0,0,1.8-1.8Z" transform="translate(-34.717 -10.324)" fill="#333"/>
    <path id="パス_92399" data-name="パス 92399" d="M342.092,98.922a36.428,36.428,0,0,0-1.476-3.932,6.852,6.852,0,0,0-1.167-2.136,3.486,3.486,0,0,0-3.274-.9,16.589,16.589,0,0,1-3.52.359,19.117,19.117,0,0,1-7.276-1.367,8.14,8.14,0,0,1-4.138-4.883,32.645,32.645,0,0,1-1.591-7.962A8.91,8.91,0,0,0,318.7,74.5a10.474,10.474,0,0,0-2.244-2.72c-.381-.359-1.035-.826-1.006-1.4.054-1.058,1.479-1.563,2.179-2.071a10.184,10.184,0,0,0,3.549-5.269c1.705-5.3.585-10.911,1.493-16.306a1.848,1.848,0,0,0-1.257-2.208,1.809,1.809,0,0,0-2.208,1.257,62.654,62.654,0,0,0-.514,8.589,33.864,33.864,0,0,1-.6,6.3c-.393,1.769-1.054,3.7-2.611,4.777a8.926,8.926,0,0,0-2.793,2.367,4.757,4.757,0,0,0-.718,3.651c.551,2.229,2.9,3.141,3.779,5.158a11.785,11.785,0,0,1,.489,3.184c.187,1.48.417,2.955.744,4.41a16.231,16.231,0,0,0,3.6,7.639,11.929,11.929,0,0,0,6.055,3.262,23.4,23.4,0,0,0,9,.6c.256-.036.511-.074.765-.125.146-.027.293-.058.437-.09q.485-.1.159-.061c-.18-.188.1.46.108.47a40,40,0,0,1,1.519,3.982c.666,2.206,4.129,1.265,3.462-.955Z" transform="translate(-31.963 -4.557)" fill="#333"/>
    <path id="パス_92400" data-name="パス 92400" d="M357.719,65.294c1.179-1.271,3.434-2.3,4.767-.623,1.121,1.408,1.077,3.478.749,5.091-.729,3.619-3.2,6.092-6.668,7.526A1.854,1.854,0,0,0,355.31,79.5a1.807,1.807,0,0,0,2.209,1.257c3.878-1.6,7.107-4.142,8.637-8.157s1.277-10.17-3.369-11.979a7.093,7.093,0,0,0-7.609,2.142c-1.57,1.691.963,4.236,2.539,2.538Z" transform="translate(-36.35 -6.172)" fill="#333"/>
    <path id="パス_92401" data-name="パス 92401" d="M326.874,62.087c-.53,1.346-.56,4.544,1.9,5.035,3.285.269,3.813-3.554,2.872-5.457C330.877,60.106,328.274,59.255,326.874,62.087Z" transform="translate(-33.471 -6.173)" fill="#333"/>
    <path id="パス_92402" data-name="パス 92402" d="M322.066,49.453a30.034,30.034,0,0,1,5.609-17.811,26.567,26.567,0,0,1,13.888-9.718c10.716-3.109,22.809-1.454,31.385,5.96,4.2,3.631,8.107,8.04,10.2,13.239a32.234,32.234,0,0,1,1.616,17.757c-.97,5.823-2.131,11.584-1.715,17.521.333,4.757,1.607,9.325,1.172,14.144a8.543,8.543,0,0,1-4.072,6.606,13.86,13.86,0,0,1-5.509,1.634,28.043,28.043,0,0,1-15.942-2.673,30.861,30.861,0,0,1-4.416-2.739,1.807,1.807,0,0,0-2.456.644,1.836,1.836,0,0,0,.644,2.456,31.458,31.458,0,0,0,18.771,6.109c5.137-.023,10.681-1.014,14.035-5.279,3.914-4.977,2.64-11.8,1.74-17.582a49.389,49.389,0,0,1,.414-15.5,80.061,80.061,0,0,0,1.547-11.19,33.6,33.6,0,0,0-5.206-18.443,45.186,45.186,0,0,0-5.917-7.039,35.569,35.569,0,0,0-13.371-8.685,39.3,39.3,0,0,0-19.8-1.377,30.863,30.863,0,0,0-25.75,26.44,40.106,40.106,0,0,0-.455,5.525c-.021,2.311,3.569,2.313,3.59,0Z" transform="translate(-32.64 -1.724)" fill="#333"/>
    <path id="パス_92403" data-name="パス 92403" d="M357.667,103.6a11.476,11.476,0,0,0,4.629-7.142,18.361,18.361,0,0,0-.438-8.833c-.591-2.231-4.055-1.285-3.462.955a19.554,19.554,0,0,1,.682,3.949,11.627,11.627,0,0,1-.012,1.491,6.761,6.761,0,0,1-.19,1.3,7.866,7.866,0,0,1-3.021,5.188,1.837,1.837,0,0,0-.644,2.456,1.814,1.814,0,0,0,2.457.644Z" transform="translate(-36.381 -8.85)" fill="#333"/>
    <path id="パス_92404" data-name="パス 92404" d="M359.708,80.354v-.008l.18.428-.006-.018a4.054,4.054,0,0,0-.188-.449,1.727,1.727,0,0,0-1.789-.856,1.334,1.334,0,0,0-.667.213l-.359.281a1.786,1.786,0,0,0-.461.792l-.065.477a1.783,1.783,0,0,0,.245.906v.009l-.18-.429.006.019a4.239,4.239,0,0,0,.188.449,1.364,1.364,0,0,0,.462.5,1.855,1.855,0,0,0,1.994.141l.359-.281a1.8,1.8,0,0,0,.462-.792l.064-.477a1.786,1.786,0,0,0-.245-.907Z" transform="translate(-36.521 -8.141)" fill="#333"/>
    <path id="パス_92405" data-name="パス 92405" d="M321.324,44.783a94.707,94.707,0,0,0,14.45,10.558q3.8,2.249,7.808,4.124c2.776,1.3,5.587,2.621,8.688,2.827,2.307.153,2.3-3.438,0-3.59-2.66-.18-5.219-1.54-7.586-2.673q-3.8-1.821-7.431-3.989a89.534,89.534,0,0,1-13.391-9.795c-1.725-1.526-4.273,1-2.538,2.539Z" transform="translate(-32.872 -4.282)" fill="#333"/>
    <path id="パス_92406" data-name="パス 92406" d="M358.161,79.436a5.371,5.371,0,0,0-5.046,3.6,5.026,5.026,0,0,0,2.024,5.609,5.968,5.968,0,0,0,6.007.137,5.02,5.02,0,0,0,2.352-5.412,5.242,5.242,0,0,0-5.337-3.937,1.8,1.8,0,0,0,0,3.59c.18,0,.353.007.53.015.379.019-.44-.09-.075-.006.065.014.129.027.193.043.154.038.306.117.46.145-.418-.08-.269-.118-.09-.026.081.042.161.09.239.136s.123.09.188.127c.194.112-.352-.312-.118-.09.106.1.208.206.311.312.223.233-.2-.316-.09-.123.035.063.083.12.119.18s.069.127.106.189c.2.34-.118-.376-.023-.071.043.14.082.278.118.42s-.013.282-.022-.215c0,.09.017.18.02.269.005.155-.005.308-.013.463s-.1.192.029-.212c-.031.1-.04.2-.066.3s-.2.557-.065.227-.075.112-.125.19c-.037.058-.083.112-.117.171.237-.4.221-.269.124-.17-.116.119-.247.227-.359.347.328-.345.239-.18.09-.08-.048.031-.1.061-.148.09-.077.045-.156.082-.234.123-.136.072-.207.01.18-.074-.149.032-.3.1-.449.141-.094.024-.188.041-.284.062-.323.073.442-.03.08-.009-.173.01-.344.023-.518.021s-.718-.106-.116.017c-.155-.031-.31-.055-.463-.1-.06-.016-.118-.034-.18-.053-.449-.146.276.154.01.014-.13-.068-.259-.133-.383-.213-.047-.031-.1-.073-.143-.1.4.207.238.192.1.065-.09-.09-.173-.189-.269-.275-.162-.148.269.4.1.127-.046-.072-.1-.142-.137-.216s-.073-.161-.119-.229c.221.322.128.338.08.187a4.432,4.432,0,0,1-.126-.429c-.042-.192.026-.359,0,.112,0-.059-.012-.129-.015-.189-.01-.18.013-.359.014-.539,0,.5-.059.336-.013.175.028-.1.048-.2.079-.293.017-.051.046-.109.058-.162q-.192.44-.076.19.039-.077.081-.153c.029-.05.058-.1.09-.149s.064-.1.1-.144c-.186.233-.234.3-.146.189.116-.114.216-.241.338-.351.16-.143.279-.1-.082.056a2.373,2.373,0,0,0,.231-.152c.066-.04.137-.074.2-.113.359-.211-.355.118-.036.007a4.479,4.479,0,0,1,.572-.164c.066-.014.136-.021.2-.037-.549.131-.11.022.051.016a1.8,1.8,0,0,0,0-3.59Z" transform="translate(-36.168 -8.141)" fill="#333"/>
    <path id="パス_92407" data-name="パス 92407" d="M316.827,228.508a77.308,77.308,0,0,1-10.478,4.815,1.8,1.8,0,0,0,.954,3.462,84.457,84.457,0,0,0,11.338-5.177,1.813,1.813,0,0,0,.644-2.456,1.833,1.833,0,0,0-2.457-.644Z" transform="translate(-31.262 -23.394)" fill="#333"/>
    <path id="パス_92408" data-name="パス 92408" d="M318.7,85.4a12.775,12.775,0,0,0,6.3-1.306,1.81,1.81,0,0,0,.644-2.456,1.835,1.835,0,0,0-2.456-.644c-.214.115-.431.219-.653.314l.429-.18a9.778,9.778,0,0,1-2.417.628l.477-.065a15.941,15.941,0,0,1-2.323.118,1.8,1.8,0,0,0,0,3.59Z" transform="translate(-32.478 -8.277)" fill="#333"/>
    <path id="パス_92409" data-name="パス 92409" d="M111.817,167.1c.955-1.638,2.851-2.676,4.435-3.625,2-1.2,4.029-2.352,6.055-3.507l2.938-1.674c.532-.3,1.948-1.322,2.586-.853.572.42-.7,2.3-.95,2.734a15.994,15.994,0,0,1-2.574,3.289A1.8,1.8,0,0,0,126.843,166a16.853,16.853,0,0,0,4.545-7.08,4.063,4.063,0,0,0-1.135-4.138A4.64,4.64,0,0,0,126,154a12.13,12.13,0,0,0-2.99,1.43l-3,1.711c-1.927,1.1-3.859,2.2-5.758,3.343-2.064,1.245-4.295,2.67-5.537,4.8a1.8,1.8,0,0,0,3.1,1.812Z" transform="translate(-11.118 -15.761)" fill="#333"/>
    <path id="パス_92410" data-name="パス 92410" d="M126.816,168.072c4.234.678,8.482,1.249,12.721,1.885,2.083.31,4.2.563,6.264,1,.545.116,1.008.215,1.121.827.1.563-.007.618-.407.709a20.132,20.132,0,0,1-3.759.138c-1.607.031-3.214.039-4.821.039-2.868,0-5.734-.039-8.6-.071-2.311-.025-2.313,3.565,0,3.59,5.349.058,10.714.194,16.06-.049,1.468-.066,2.931-.172,4.039-1.268a4.4,4.4,0,0,0,.744-4.634,4.6,4.6,0,0,0-3.618-2.776c-1.885-.346-3.78-.628-5.674-.908-4.371-.655-8.754-1.241-13.118-1.94a1.851,1.851,0,0,0-2.208,1.257,1.809,1.809,0,0,0,1.257,2.208Z" transform="translate(-12.864 -16.865)" fill="#333"/>
    <path id="パス_92411" data-name="パス 92411" d="M149.075,176.2a.916.916,0,0,1,.562.279.327.327,0,0,1-.1-.218,6.244,6.244,0,0,1,.171.628c.069.592-.37.76-.909.891a38.145,38.145,0,0,1-5.688.614c-4.223.359-8.455.61-12.678.972-2.285.2-2.306,3.788,0,3.59,5.593-.479,11.208-.748,16.789-1.37,2.349-.261,5.347-.69,5.988-3.464a4.428,4.428,0,0,0-3.184-5.385c-2.244-.546-3.2,2.915-.954,3.462Z" transform="translate(-13.194 -17.697)" fill="#333"/>
    <path id="パス_92412" data-name="パス 92412" d="M146.6,182.9c.219.136.308.539.348.628.1-.105.109-.115.025-.031s-.074.075.069-.051c-.21.123-.044-.006.073-.026-.276.047-.553.1-.831.142-1.589.235-3.183.436-4.778.628-3.341.4-6.69.754-10.045,1.01a1.839,1.839,0,0,0-1.8,1.8,1.809,1.809,0,0,0,1.8,1.8c4.218-.321,8.43-.784,12.625-1.33,1.052-.136,2.1-.278,3.151-.433a3.784,3.784,0,0,0,2.273-.987c1.873-1.864.968-4.96-1.1-6.239-1.97-1.219-3.775,1.885-1.811,3.1Z" transform="translate(-13.291 -18.398)" fill="#333"/>
    <path id="パス_92413" data-name="パス 92413" d="M107.669,192.463c5.834,1.7,12.111,1.41,18.1.863q4.234-.386,8.462-.842c1.273-.138,2.546-.28,3.816-.442,1.676-.214,3.392-.337,4.638-1.62,1.611-1.658-.924-4.2-2.538-2.538-.7.718-2.283.594-3.262.711-1.263.15-2.527.288-3.792.422q-3.875.407-7.757.759c-5.525.5-11.33.788-16.713-.775-2.223-.645-3.173,2.818-.954,3.462Z" transform="translate(-10.907 -19.2)" fill="#333"/>
    <path id="パス_92414" data-name="パス 92414" d="M92.32,143.966c2.617-2.2,5.261-4.362,7.908-6.522q1.963-1.6,3.93-3.2.854-.694,1.71-1.384c.232-.187.941-.967,1.234-.941.221.018.7.618.859.766q.74.674,1.472,1.358,1.813,1.686,3.609,3.391c2.43,2.3,4.847,4.61,7.286,6.9.78.732.658.516,0,1.346q-1.231,1.546-2.469,3.086-2.593,3.211-5.3,6.335c-1.508,1.738,1.02,4.287,2.539,2.538q2.706-3.117,5.291-6.335,1.241-1.537,2.469-3.085c.783-.987,1.643-1.889,1.651-3.222.012-2.086-1.775-3.321-3.141-4.616q-2.092-1.981-4.181-3.965c-2.464-2.334-4.877-4.769-7.464-6.969a3.88,3.88,0,0,0-3.165-1.058,5.406,5.406,0,0,0-2.626,1.442q-1.961,1.581-3.914,3.17c-3.429,2.789-6.856,5.582-10.242,8.424-1.772,1.487.779,4.016,2.538,2.538Z" transform="translate(-9.142 -13.155)" fill="#333"/>
    <path id="パス_92415" data-name="パス 92415" d="M118.5,126.687a6.623,6.623,0,0,1,3.964-7.029c2.811-1.4,6.567-1.25,8.59-3.926a32.855,32.855,0,0,1,2.588-3.434c.858-.874,2.129-2.161,3.394-2.341.161-.022.67.094.784.026q.309.1-.013-.073-.22-.43-.057.052a6.121,6.121,0,0,1-.388,1.966,22.4,22.4,0,0,1-2.7,4.674,1.808,1.808,0,0,0,.644,2.456,1.835,1.835,0,0,0,2.456-.644c1.837-2.518,4.308-6.262,3.42-9.533-.941-3.468-5.3-2.77-7.561-1.2a16.63,16.63,0,0,0-3.394,3.061,21.214,21.214,0,0,0-1.34,1.809,4.187,4.187,0,0,1-1.488,1.705,43.086,43.086,0,0,1-4.488,1.356,15.376,15.376,0,0,0-4.41,2.322c-2.991,2.36-3.983,6.05-3.464,9.712a1.808,1.808,0,0,0,2.209,1.257,1.844,1.844,0,0,0,1.257-2.209Z" transform="translate(-11.778 -10.903)" fill="#333"/>
    <path id="パス_92416" data-name="パス 92416" d="M125.869,131.22a3.8,3.8,0,0,1,.8-.465l-.428.18a4.14,4.14,0,0,1,.967-.26l-.477.065a4.61,4.61,0,0,1,1.177,0l-.477-.064a5.39,5.39,0,0,1,1.013.249,1.8,1.8,0,0,0,2.027-2.637,1.99,1.99,0,0,0-1.073-.825,7.211,7.211,0,0,0-1.526-.317,4.556,4.556,0,0,0-1.111,0,5.475,5.475,0,0,0-2.707.976,2,2,0,0,0-.825,1.077,1.833,1.833,0,0,0,.18,1.383,1.81,1.81,0,0,0,1.077.825,1.739,1.739,0,0,0,1.384-.18Z" transform="translate(-12.625 -13.027)" fill="#333"/>
    <path id="パス_92417" data-name="パス 92417" d="M127.847,135.854a35.259,35.259,0,0,1,4.5-8.872,22.91,22.91,0,0,1,1.457-1.931c.054-.063.335-.349.2-.229s.2-.126.275-.165a.466.466,0,0,1,.071-.027c-.185.018.116,0,.126.005-.195-.07.066.028.108.052-.213-.121.223.09-.064-.013l.053.057c.071.077.072.075,0,0-.04,0-.09-.058.017.066-.011-.012-.116-.3-.059-.107s-.014-.145-.012-.162a6.593,6.593,0,0,0-.023.705c-.033.822-.071,1.645-.126,2.465s-.13,1.634-.231,2.448l-.032.261c.025-.2.007-.051-.009.062q-.047.334-.1.668c-.081.539-.169,1.077-.258,1.621A1.85,1.85,0,0,0,135,134.968a1.81,1.81,0,0,0,2.209-1.257c.32-1.936.6-3.881.743-5.84s.636-4.382-1.012-5.842a3.875,3.875,0,0,0-3.652-.82,4.871,4.871,0,0,0-2.423,1.817,40.357,40.357,0,0,0-3.6,5.307,41.085,41.085,0,0,0-2.878,6.567,1.8,1.8,0,0,0,3.463.955Z" transform="translate(-12.744 -12.407)" fill="#333"/>
    <path id="パス_92418" data-name="パス 92418" d="M139.334,128.714a25.824,25.824,0,0,1,4.2-4.121c.456-.355.913-.73,1.393-1.048a2.115,2.115,0,0,1,.814-.374c.1-.017.539-.008.256-.054.1.016-.188-.127-.138-.127s.122.3.066.118c.1.33-.061.4-.09.808-.013.186.2-.4.034-.081-.058.112-.109.227-.167.339-.155.306-.322.6-.491.9-.42.74-.862,1.468-1.309,2.192q-1.358,2.2-2.794,4.347c-.428.64-.863,1.274-1.323,1.892q-.478.642-1.015,1.257c-.2.225-.4.449-.615.659-.075.074-.151.149-.228.222.006-.005-.449.376-.223.207a1.852,1.852,0,0,0-.644,2.457,1.807,1.807,0,0,0,2.456.644,20.679,20.679,0,0,0,4.5-5.233q1.672-2.484,3.236-5.04c.933-1.526,2.145-3.206,2.28-5.04a3.711,3.711,0,0,0-2.258-3.835,4.818,4.818,0,0,0-4.1.6,27.4,27.4,0,0,0-6.372,5.769,1.847,1.847,0,0,0,0,2.538,1.807,1.807,0,0,0,2.538,0Z" transform="translate(-13.97 -12.256)" fill="#333"/>
    <path id="パス_92419" data-name="パス 92419" d="M136,137.964a2.444,2.444,0,0,1-.237.255q.214-.138-.051.039a4.367,4.367,0,0,1-.472.257c.238-.109-.377.123-.442.143-.179.056-.365.105-.549.153-1.042.269-2.092.518-3.141.77-2.164.521-4.332,1.021-6.509,1.487a1.8,1.8,0,0,0,.954,3.462c2.334-.5,4.655-1.038,6.972-1.6,2.009-.486,4.577-.773,6.013-2.423a1.841,1.841,0,0,0,0-2.539,1.812,1.812,0,0,0-2.539,0Z" transform="translate(-12.637 -14.086)" fill="#333"/>
    <path id="パス_92420" data-name="パス 92420" d="M149.464,124.841a18.018,18.018,0,0,1,3.262-.59,17.053,17.053,0,0,1,1.855-.018c.252.01.5.025.756.044.16.012.319.026.478.041.237.026.277.031.123.013.232.036.456.109.687.152.175.063.2.067.076.014s-.1-.045.053.03q.256.162-.027-.052a1.574,1.574,0,0,1,.186.185q-.217-.286-.06-.031c-.084-.216-.09-.224-.028-.025.022.394,0-.215.031.18q-.016.327.011.068a2.694,2.694,0,0,1-.1.359c.047-.134-.118.142-.18.2a.977.977,0,0,1-.337.215,14.922,14.922,0,0,1-2.693.833c-1.179.338-2.348.71-3.512,1.1-2.019.672-4.017,1.4-6.022,2.12a1.841,1.841,0,0,0-1.257,2.208,1.811,1.811,0,0,0,2.209,1.257c1.852-.661,3.7-1.337,5.565-1.966,1.083-.365,2.172-.718,3.268-1.045.969-.29,1.99-.483,2.938-.831a5.813,5.813,0,0,0,2.782-1.833,4.332,4.332,0,0,0,.853-3.267c-.316-2.285-2.176-3.186-4.26-3.438a20.7,20.7,0,0,0-7.614.616c-2.238.568-1.29,4.031.954,3.462Z" transform="translate(-14.628 -12.364)" fill="#333"/>
    <path id="パス_92421" data-name="パス 92421" d="M146,117.74a24.357,24.357,0,0,0,6.445-.6,1.808,1.808,0,0,0,1.257-2.208,1.835,1.835,0,0,0-2.208-1.257q-1,.225-2.019.359l.477-.064a22.6,22.6,0,0,1-3.949.169,1.808,1.808,0,0,0-1.8,1.8,1.834,1.834,0,0,0,1.8,1.8Z" transform="translate(-14.782 -11.645)" fill="#333"/>
    <path id="パス_92422" data-name="パス 92422" d="M145.577,150.158q11.166,17.487,22.672,34.752c1.272,1.917,4.382.121,3.1-1.812q-11.468-17.289-22.672-34.751c-1.239-1.942-4.348-.144-3.1,1.811Z" transform="translate(-14.892 -15.118)" fill="#333"/>
    <path id="パス_92423" data-name="パス 92423" d="M79.025,106.5a36.926,36.926,0,0,1,.269,6.731l.057,7.051c.019,2.309,3.609,2.315,3.59,0q-.028-3.665-.058-7.333a40.308,40.308,0,0,0-.394-7.409,1.814,1.814,0,0,0-2.209-1.257,1.834,1.834,0,0,0-1.257,2.209Z" transform="translate(-8.096 -10.682)" fill="#333"/>
    <path id="パス_92424" data-name="パス 92424" d="M77.381,87.327c.634-1.321,1.2-2.674,1.713-4.048.18-.493.359-.987.527-1.486.033-.1.067-.2.1-.3.186-.57-.211.51-.292.216.107.39,3.006.645,3.311.68a23.115,23.115,0,0,0,4.236.09,18.8,18.8,0,0,0,7.3-1.684,12.093,12.093,0,0,0,5.242-5.881,35.632,35.632,0,0,0,2.465-8.774,5.99,5.99,0,0,1,1.113-3.109,25.01,25.01,0,0,1,2.3-2.057,4.8,4.8,0,0,0,.147-6.789c-.731-.838-1.759-1.3-2.506-2.108a6.627,6.627,0,0,1-1.375-2.558c-1.686-5.469.028-11.4-.531-16.986a1.845,1.845,0,0,0-1.8-1.8,1.808,1.808,0,0,0-1.8,1.8c.523,5.224-.621,10.43.16,15.65a12.275,12.275,0,0,0,2.447,6.024,16.911,16.911,0,0,0,2.4,2.049c.564.483,1.054,1.233.568,1.9a15.274,15.274,0,0,1-2.057,1.8,8.4,8.4,0,0,0-2.334,3.782c-.269,1.11-.345,2.29-.58,3.411a39.089,39.089,0,0,1-1.217,4.565c-.786,2.311-2.016,4.605-4.218,5.834-2.08,1.167-4.858,1.364-7.191,1.386a16.675,16.675,0,0,1-3.905-.359c-1.467-.337-2.705-.8-4.081.169a4.46,4.46,0,0,0-1.526,2.48,40.506,40.506,0,0,1-1.735,4.28c-.994,2.073,2.1,3.9,3.1,1.812Z" transform="translate(-7.595 -3.152)" fill="#333"/>
    <path id="パス_92425" data-name="パス 92425" d="M96.206,31.053a28.317,28.317,0,0,0-3.057-13.579,29.632,29.632,0,0,0-6.574-8.066A39.073,39.073,0,0,0,55.705.369C45.639,1.773,37.09,8.166,31.44,16.45a37.792,37.792,0,0,0-4.086,34.734,42.9,42.9,0,0,0,7.675,12.655c1.917,2.209,4.173,4.441,5.319,7.18.924,2.212.162,4.552-.515,6.756s2.782,3.159,3.462.954A16.823,16.823,0,0,0,44.37,72.4a14.076,14.076,0,0,0-3.231-6.861c-2.68-3.493-5.62-6.392-7.831-10.193a34.465,34.465,0,0,1-2.161-30.9c3.925-9.177,11.97-17.3,21.784-19.878a35.469,35.469,0,0,1,28.012,5A28.662,28.662,0,0,1,89.58,18.46a24.133,24.133,0,0,1,3.035,12.593C92.6,33.363,96.187,33.365,96.206,31.053Z" transform="translate(-2.553 0)" fill="#333"/>
    <path id="パス_92426" data-name="パス 92426" d="M95.464,48.384c.449,1.413.26,4.689-2.29,5.022-3.379.051-3.657-3.9-2.565-5.782C91.5,46.082,94.222,45.39,95.464,48.384Z" transform="translate(-9.23 -4.746)" fill="#333"/>
    <path id="パス_92427" data-name="パス 92427" d="M101.968,69.143c-.485-.024-.968-.066-1.449-.127l.477.065a11.377,11.377,0,0,1-2.882-.747l.429.179a8.2,8.2,0,0,1-1.117-.583,1.813,1.813,0,0,0-2.454.646,1.833,1.833,0,0,0,.644,2.456,13.11,13.11,0,0,0,6.353,1.705,1.808,1.808,0,0,0,1.8-1.8,1.835,1.835,0,0,0-1.8-1.8Z" transform="translate(-9.712 -6.938)" fill="#333"/>
    <path id="パス_92428" data-name="パス 92428" d="M54.64,60.954a17.384,17.384,0,0,1-2,3.35c-.106.144-.213.287-.322.429.18-.227-.138.171-.171.214q-.383.478-.786.942-.8.925-1.66,1.8a28.082,28.082,0,0,1-7.27,5.613,1.8,1.8,0,1,0,1.812,3.1,32.347,32.347,0,0,0,8-6.174,25.824,25.824,0,0,0,5.5-7.458,1.853,1.853,0,0,0-.644-2.456,1.809,1.809,0,0,0-2.457.644Z" transform="translate(-4.261 -6.157)" fill="#333"/>
    <path id="パス_92429" data-name="パス 92429" d="M65.5,47.05a7.3,7.3,0,0,0-6.65-2.8c-2.57.359-4.27,2.329-5.123,4.66-1.449,3.949-.16,8.783,2.389,11.982a16.262,16.262,0,0,0,5.573,4.278,1.843,1.843,0,0,0,2.457-.644,1.812,1.812,0,0,0-.644-2.456c-3.446-1.705-6.1-4.308-6.636-8.15-.25-1.8-.18-4.114,1.205-5.475,1.587-1.553,3.753-.269,4.894,1.139a1.808,1.808,0,0,0,2.539,0,1.837,1.837,0,0,0,0-2.538Z" transform="translate(-5.447 -4.531)" fill="#333"/>
    <path id="パス_92430" data-name="パス 92430" d="M89.638,28.913a33.6,33.6,0,0,0-15.416,6.25A28.182,28.182,0,0,0,68.777,39.9a59.573,59.573,0,0,0-4.165,6.364c-1.236,1.959,1.869,3.763,3.1,1.812a59.445,59.445,0,0,1,3.511-5.523,23.676,23.676,0,0,1,4.812-4.287,30.079,30.079,0,0,1,13.6-5.76,1.852,1.852,0,0,0,1.8-1.8,1.806,1.806,0,0,0-1.8-1.8Z" transform="translate(-6.595 -2.964)" fill="#333"/>
    <path id="パス_92431" data-name="パス 92431" d="M102.863,31.257a11.81,11.81,0,0,0-2.13-2.033,10.148,10.148,0,0,0-2.2-1.289,1.335,1.335,0,0,0-.667-.214,1.37,1.37,0,0,0-.718.032,1.8,1.8,0,0,0-1.257,2.208,1.73,1.73,0,0,0,.825,1.077,10.114,10.114,0,0,1,2.229,1.3l-.363-.281a10.3,10.3,0,0,1,1.741,1.733,1.8,1.8,0,0,0,1.269.526,1.828,1.828,0,0,0,1.27-.526,1.808,1.808,0,0,0,.525-1.269l-.064-.477a1.8,1.8,0,0,0-.461-.793Z" transform="translate(-9.823 -2.838)" fill="#333"/>
    <path id="パス_92432" data-name="パス 92432" d="M54.64,60.954a17.384,17.384,0,0,1-2,3.35c-.106.144-.213.287-.322.429.18-.227-.138.171-.171.214q-.383.478-.786.942-.8.925-1.66,1.8a28.082,28.082,0,0,1-7.27,5.613,1.8,1.8,0,1,0,1.812,3.1,32.347,32.347,0,0,0,8-6.174,25.824,25.824,0,0,0,5.5-7.458,1.853,1.853,0,0,0-.644-2.456,1.809,1.809,0,0,0-2.457.644Z" transform="translate(-4.261 -6.157)" fill="#333"/>
    <path id="パス_92433" data-name="パス 92433" d="M35.5,91.84a59.421,59.421,0,0,0-9.028,19.951,91.749,91.749,0,0,0-2.8,20.5c-.1,6.974.7,13.917,1.136,20.868a119.975,119.975,0,0,1-.565,20.611c-.827,7.429-2.031,14.821-3.126,22.214a1.854,1.854,0,0,0,1.257,2.208,1.808,1.808,0,0,0,2.208-1.257c1.017-6.882,2.078-13.759,2.952-20.67a137.078,137.078,0,0,0,1-19.492c-.118-6.978-1.077-13.918-1.257-20.9a87.633,87.633,0,0,1,1.975-20.166A58.766,58.766,0,0,1,38.6,93.652C39.927,91.756,36.815,89.96,35.5,91.84Z" transform="translate(-2.162 -9.331)" fill="#333"/>
    <path id="パス_92434" data-name="パス 92434" d="M40.513,93a31.706,31.706,0,0,0,1.9-3.249l-2.027.825a107.466,107.466,0,0,1,10.349,4.18c4.847,2.192,9.855,4.565,14.078,7.845a24.867,24.867,0,0,1,5.591,6.228,64.189,64.189,0,0,1,4.5,9.646,165.546,165.546,0,0,1,7.563,21.62,95.293,95.293,0,0,1,3.1,18.92c.14,2.295,3.731,2.311,3.59,0-.833-13.7-4.768-26.8-9.945-39.452-2.709-6.618-5.236-13.595-10.681-18.505-4.039-3.644-9.113-6.179-14-8.481a119.282,119.282,0,0,0-13.2-5.461,1.8,1.8,0,0,0-2.027.825,31.613,31.613,0,0,1-1.9,3.249c-1.24,1.957,1.865,3.761,3.1,1.812Z" transform="translate(-3.807 -8.922)" fill="#333"/>
    <path id="パス_92435" data-name="パス 92435" d="M74.358,100.392c.3-1.208.726-2.433.932-3.659.341-2.028-1.134-2.948-2.712-3.734-2.916-1.452-5.931-2.71-8.961-3.9-6.109-2.405-12.339-4.5-18.585-6.519-2.2-.718-3.147,2.752-.955,3.462,4.852,1.57,9.693,3.188,14.474,4.954,2.47.911,4.929,1.856,7.353,2.884q1.668.705,3.309,1.473a17.694,17.694,0,0,1,3.141,1.63l-.644-.644q.155-.562-.02.078c-.049.18-.1.365-.149.547-.057.21-.114.42-.171.628-.163.614-.318,1.229-.472,1.844-.562,2.244,2.9,3.2,3.462.955Z" transform="translate(-4.393 -8.453)" fill="#333"/>
    <path id="パス_92436" data-name="パス 92436" d="M31.368,251.2A94.8,94.8,0,0,0,49.4,252.616c5.6-.077,11.5-.471,16.84-2.287,10.9-3.7,16.759-15.564,18.535-26.2a158.773,158.773,0,0,0,2.46-25.686,1.8,1.8,0,0,0-3.59,0,152.815,152.815,0,0,1-1.9,21.919c-.9,6.109-2.334,12.074-5.711,17.329-2.281,3.548-5.579,7.058-9.514,8.72-4.691,1.984-10.117,2.391-15.147,2.569a90.085,90.085,0,0,1-19.048-1.237A1.845,1.845,0,0,0,30.112,249a1.81,1.81,0,0,0,1.257,2.208Z" transform="translate(-3.083 -20.159)" fill="#333"/>
    <path id="パス_92437" data-name="パス 92437" d="M104.431,218.749c-4.213-1.592-8.437-3.148-12.624-4.812a1.808,1.808,0,0,0-2.208,1.257,1.837,1.837,0,0,0,1.251,2.2c4.185,1.664,8.411,3.22,12.623,4.813a1.81,1.81,0,0,0,2.209-1.257,1.835,1.835,0,0,0-1.257-2.208Z" transform="translate(-9.18 -21.918)" fill="#333"/>
    <path id="パス_92438" data-name="パス 92438" d="M28.352,261.592a21.89,21.89,0,0,0,8.688,5.475,34.344,34.344,0,0,0,5.869,1.452,20.3,20.3,0,0,0,3.55.477c.658-.013,1.842.2,2.872.311,9.631,1.005,19.3,1.589,28.972,2.1,5.912.311,11.826.583,17.74.855,2.309.106,2.3-3.484,0-3.59-9.987-.459-19.974-.913-29.95-1.571-4.606-.3-9.21-.652-13.807-1.088a71.544,71.544,0,0,1-12.01-1.705,19.437,19.437,0,0,1-9.384-5.246c-1.6-1.677-4.129.864-2.538,2.538Z" transform="translate(-2.857 -26.493)" fill="#333"/>
    <path id="パス_92439" data-name="パス 92439" d="M33.674,135.812a194.69,194.69,0,0,0,1.246,21.319c.834,6.775,1.984,13.882,4.725,20.183a22.9,22.9,0,0,0,12.037,11.442c5.528,2.263,11.668,2.611,17.56,2.97a172.7,172.7,0,0,0,23.39-.29c2.29-.171,2.308-3.762,0-3.59a176.7,176.7,0,0,1-19.571.476c-5.829-.212-11.918-.4-17.556-2.033a20.143,20.143,0,0,1-11.79-8.876,33.492,33.492,0,0,1-3.127-8.921,93.757,93.757,0,0,1-1.853-9.654,180.565,180.565,0,0,1-1.471-23.03c-.03-2.308-3.62-2.315-3.59,0Z" transform="translate(-3.454 -13.741)" fill="#333"/>
    <path id="パス_92440" data-name="パス 92440" d="M101.818,187.785a3.823,3.823,0,0,0,1.139-3.169c.023-1.413.054-2.826.076-4.239.042-2.654.076-5.309.059-7.963-.017-2.684-.09-5.368-.236-8.048a6.674,6.674,0,0,0-.628-3.4,3.13,3.13,0,0,0-2.816-1.257c-5.163.061-10.306.073-15.468-.11-2.623-.09-5.329-.024-7.937-.309a6.993,6.993,0,0,1-3.84-2.187c-1.479-1.639-1.436-4.568-1.721-6.642-.5-3.674-.947-7.36-1.364-11.04-.9-7.92-.93-16.9-6.462-23.246a14.831,14.831,0,0,0-11.061-4.715c-4.523-.118-9.908,1.265-12.648,5.151-1.333,1.893,1.778,3.689,3.1,1.812A8.263,8.263,0,0,1,46.2,115.8a15.437,15.437,0,0,1,5.366-.75A11.257,11.257,0,0,1,60,118.618c2.532,2.851,3.663,6.856,4.331,10.523.628,3.432.79,6.974,1.184,10.44q.6,5.3,1.3,10.576a34.754,34.754,0,0,0,1.117,6.775,9.768,9.768,0,0,0,8.078,5.957c4.762.372,9.6.408,14.38.479,2.719.04,5.438.035,8.157-.035.114,0,1.077,0,1.086-.031.09-.449-.327-.628-.449-.374a6.96,6.96,0,0,0,.119,2.093q.1,2.024.151,4.049c.067,2.782.064,5.572.032,8.357-.015,1.413-.039,2.824-.062,4.237q-.016.958-.036,1.915c-.007.379.142,1.459-.107,1.673-1.756,1.507.793,4.039,2.538,2.538Z" transform="translate(-3.957 -11.423)" fill="#333"/>
    <path id="パス_92441" data-name="パス 92441" d="M170.333,189.79h51.548a1.8,1.8,0,0,0,0-3.59H170.333A1.8,1.8,0,0,0,170.333,189.79Z" transform="translate(-17.281 -19.082)" fill="#333"/>
    <path id="パス_92442" data-name="パス 92442" d="M105.274,208.172v74.764a1.8,1.8,0,0,0,3.59,0V208.172a1.8,1.8,0,0,0-3.59,0Z" transform="translate(-10.791 -21.156)" fill="#333"/>
    <path id="パス_92443" data-name="パス 92443" d="M301.514,208.172v74.764a1.8,1.8,0,0,0,3.59,0V208.172a1.8,1.8,0,0,0-3.59,0Z" transform="translate(-30.902 -21.156)" fill="#333"/>
    <path id="パス_92444" data-name="パス 92444" d="M287.687,194.889V206.8l1.8-1.8H99.158l1.8,1.8V194.889l-1.8,1.8H289.482a1.8,1.8,0,0,0,0-3.59H99.158a1.822,1.822,0,0,0-1.8,1.8V206.8a1.822,1.822,0,0,0,1.8,1.8H289.482a1.821,1.821,0,0,0,1.8-1.8V194.889A1.8,1.8,0,0,0,287.687,194.889Z" transform="translate(-9.981 -19.789)" fill="#333"/>
    <path id="パス_92445" data-name="パス 92445" d="M33.474,286.916l-2.27,9.825a1.8,1.8,0,1,0,3.462.955l2.272-9.825a1.8,1.8,0,0,0-3.462-.955Z" transform="translate(-3.194 -29.269)" fill="#333"/>
    <path id="パス_92446" data-name="パス 92446" d="M29.565,254.131c-1.475-5.309-2.312-10.833-3.277-16.245-1.536-8.624-2.962-17.267-4.38-25.912q-2.139-13.064-4.244-26.136c-.952-5.84-1.715-11.775-3.01-17.551-.91-4.057-2.812-8.586-7.07-10.028-2.043-.692-5.3-.728-6.794,1.09a4.444,4.444,0,0,0-.729,3.473c.206,1.622.5,3.237.744,4.857,2.015,13.194,3.778,26.418,5.5,39.65,1.531,11.778,3,23.564,4.652,35.326.609,4.343,1.242,8.685,1.984,13.009.678,3.945,1.633,7.905,3.944,11.25,5.724,8.289,16.352,9.092,25.57,9.092H88.468a1.8,1.8,0,0,0,0-3.59H52.424c-5.737,0-11.562.291-17.28-.231-4.173-.381-8.474-1.346-11.944-3.81-6.138-4.354-6.731-12.857-7.795-19.863-1.581-10.436-2.894-20.912-4.245-31.379C9.515,204.4,7.872,191.664,6.065,178.951q-.695-4.886-1.426-9.767-.354-2.354-.718-4.708c-.109-.7-.259-1.413-.326-2.122a1.764,1.764,0,0,1,.049-.876.294.294,0,0,1-.21.194c.215-.057.42-.131.64-.167a5.714,5.714,0,0,1,1.555-.031,4.451,4.451,0,0,1,2.137.869,9.245,9.245,0,0,1,2.794,4.569,53.775,53.775,0,0,1,1.616,7.65q.78,4.54,1.516,9.087c1.338,8.158,2.648,16.322,3.976,24.484,1.408,8.647,2.827,17.292,4.323,25.924,1.077,6.2,2.117,12.421,3.506,18.559.188.828.383,1.655.61,2.474a1.8,1.8,0,0,0,3.462-.955Z" transform="translate(0 -16.174)" fill="#333"/>
    <path id="パス_92447" data-name="パス 92447" d="M377.417,258.319c1.41-5.075,2.22-10.351,3.148-15.527,1.481-8.274,2.856-16.567,4.218-24.861q2.1-12.81,4.164-25.628c.967-5.946,1.9-11.9,2.988-17.827.547-2.99,1.225-6.849,3.8-8.813a4.417,4.417,0,0,1,2.4-.885,5.542,5.542,0,0,1,1.4.073c.128.025.5.135.486.134-.333-.051.044-.248-.08-.032.005-.011-.017.5-.047.8-.082.808-.254,1.616-.378,2.423q-.364,2.353-.718,4.708c-1.93,12.869-3.639,25.769-5.313,38.672-1.458,11.232-2.859,22.473-4.437,33.689-.592,4.208-1.207,8.413-1.923,12.6-.636,3.718-1.431,7.354-3.6,10.489-5.132,7.431-15.847,7.3-24.054,7.3H315.11a1.8,1.8,0,0,0,0,3.59h37.171c5.858,0,11.827.331,17.651-.4,4.454-.558,8.986-1.712,12.633-4.449,6.849-5.143,7.785-13.667,8.981-21.541,1.656-10.9,3.023-21.854,4.436-32.792,1.694-13.119,3.387-26.239,5.273-39.332q.7-4.857,1.436-9.709c.248-1.616.539-3.231.743-4.856a4.447,4.447,0,0,0-.728-3.472c-1.49-1.817-4.748-1.781-6.79-1.09a9.267,9.267,0,0,0-4.925,4.238c-1.666,2.831-2.244,6.092-2.8,9.279-.5,2.86-.979,5.724-1.452,8.588-1.361,8.252-2.684,16.514-4.025,24.764-1.457,8.965-2.923,17.93-4.468,26.881-1.12,6.491-2.206,13.008-3.65,19.437-.2.871-.4,1.739-.639,2.6a1.8,1.8,0,0,0,3.462.955Z" transform="translate(-32.117 -16.515)" fill="#333"/>
    <path id="パス_92448" data-name="パス 92448" d="M376.216,291.073l2.268,9.815a1.809,1.809,0,0,0,2.208,1.257,1.834,1.834,0,0,0,1.257-2.208l-2.268-9.816a1.809,1.809,0,0,0-2.208-1.257,1.835,1.835,0,0,0-1.257,2.208Z" transform="translate(-38.551 -29.597)" fill="#333"/>
  </g>
</svg>
