<svg xmlns="http://www.w3.org/2000/svg" width="510.001" height="400.27" viewBox="0 0 510.001 400.27">
  <g id="グループ_10044" data-name="グループ 10044" transform="translate(-119.999 -9733.527)">
    <g id="グループ_9965" data-name="グループ 9965" transform="translate(324.849 9830.528) rotate(90)">
      <g id="前面オブジェクトで型抜き_1" data-name="前面オブジェクトで型抜き 1" transform="translate(0 0)" fill="rgba(255,124,100,0.25)">
        <path d="M 89.62185668945312 204.3489379882812 L 0.5002233386039734 204.3489379882812 L 0.500016450881958 203.8233184814453 L 18.65852546691895 101.9785385131836 L 18.6741828918457 101.8907775878906 L 18.65852546691895 101.8030166625977 L 0.5974478721618652 0.5000151991844177 L 89.62251281738281 0.5000151991844177 L 107.9472351074219 101.9688186645508 L 89.62185668945312 204.3489379882812 Z" stroke="none"/>
        <path d="M 89.20340728759766 203.8489379882812 L 107.4392242431641 101.9691543579102 L 89.20473480224609 1.000015258789062 L 1.194475650787354 1.000015258789062 L 19.18205261230469 101.8907775878906 L 19.1507625579834 102.0663070678711 L 1.003334522247314 203.8489379882812 L 89.20340728759766 203.8489379882812 M 90.04018402099609 204.8496246337891 L 90.04031372070312 204.8489379882812 L 0.0004200889088679105 204.8489379882812 L -9.637129778639064e-07 203.7792053222656 L 18.16628837585449 101.8907775878906 L 0.0004200889088679105 1.521381545899203e-05 L 90.04031372070312 1.521381545899203e-05 L 108.4552612304688 101.9684066772461 L 90.04018402099609 204.8496246337891 Z" stroke="none" fill="#ff7c64"/>
      </g>
    </g>
    <g id="グループ_9964" data-name="グループ 9964" transform="translate(324.847 9733.527) rotate(90)">
      <g id="合体_71" data-name="合体 71" fill="#fff">
        <path d="M 89.80265808105469 204.3481597900391 L 0.500013530254364 204.3481597900391 L 0.500013530254364 0.5000009536743164 L 89.80157470703125 0.5000009536743164 L 107.7120666503906 103.2010116577148 L 89.80265808105469 204.3481597900391 Z" stroke="none"/>
        <path d="M 0.9999847412109375 1 L 0.9999847412109375 203.8481597900391 L 89.38341522216797 203.8481597900391 L 107.2043762207031 103.2003707885742 L 89.38121032714844 1 L 0.9999847412109375 1 M -1.52587890625e-05 0 L 90.22190856933594 0 L 108.2196960449219 103.2016830444336 L 90.22190856933594 204.8481597900391 L -1.52587890625e-05 204.8481597900391 L -1.52587890625e-05 0 Z" stroke="none" fill="#ff7c64"/>
      </g>
    </g>
    <text id="ご応募" transform="translate(222.001 9798.097)" fill="#ff7c64" font-size="24" font-family="SawarabiGothic-Regular, Sawarabi Gothic"><tspan x="-36" y="0">ご応募</tspan></text>
    <text id="_1" data-name="1" transform="translate(351 9773.982)" fill="#ff7c64" font-size="30" font-family="SawarabiGothic-Regular, Sawarabi Gothic"><tspan x="-8.25" y="0">1</tspan></text>
    <text id="_2" data-name="2" transform="translate(351 9863.528)" fill="#ff7c64" font-size="30" font-family="SawarabiGothic-Regular, Sawarabi Gothic"><tspan x="-8.25" y="0">2</tspan></text>
    <text id="ご希望の職種からご応募をお願い致します_" data-name="ご希望の職種からご応募をお願い致します。" transform="translate(367 9749.995)" fill="#333" font-size="14" font-family="SawarabiGothic-Regular, Sawarabi Gothic"><tspan x="0" y="16">ご希望の職種からご応募をお願い致しま</tspan><tspan x="0" y="40">す。</tspan></text>
    <text id="ご希望の面接方法をお選びください_" data-name="ご希望の面接方法をお選びください。" transform="translate(367 9838.909)" fill="#333" font-size="14" font-family="SawarabiGothic-Regular, Sawarabi Gothic"><tspan x="0" y="16">ご希望の面接方法をお選びください。</tspan></text>
    <text id="_2営業日以内にご調整をさせて頂きます_" data-name="2営業日以内にご調整をさせて頂きます。" transform="translate(369 9879.097)" fill="#333" font-size="14" font-family="SawarabiGothic-Regular, Sawarabi Gothic"><tspan x="0" y="16">2営業日以内にご調整をさせて頂きます。</tspan></text>
    <text id="_対面面接_or_web面接_" data-name="(対面面接 or web面接)" transform="translate(367 9870.097)" fill="#333" font-size="10" font-family="SawarabiGothic-Regular, Sawarabi Gothic"><tspan x="0" y="0">(対面面接 or web面接)</tspan></text>
    <text id="面接日程の_調整" data-name="面接日程の
調整" transform="translate(222.001 9886.097)" fill="#ff7c64" font-size="24" font-family="SawarabiGothic-Regular, Sawarabi Gothic"><tspan x="-60" y="0">面接日程の</tspan><tspan x="-24" y="28">調整</tspan></text>
    <g id="グループ_9967" data-name="グループ 9967" transform="translate(324.849 10025.342) rotate(90)">
      <g id="前面オブジェクトで型抜き_1-2" data-name="前面オブジェクトで型抜き 1" fill="#ff7c64">
        <path d="M 89.62185668945312 204.3489379882812 L 0.5002233386039734 204.3489379882812 L 0.500016450881958 203.8233184814453 L 18.65852546691895 101.9785385131836 L 18.6741828918457 101.8907775878906 L 18.65852546691895 101.8030166625977 L 0.5974478721618652 0.5000151991844177 L 89.62251281738281 0.5000151991844177 L 107.9472351074219 101.9688186645508 L 89.62185668945312 204.3489379882812 Z" stroke="none"/>
        <path d="M 89.20340728759766 203.8489379882812 L 107.4392242431641 101.9691543579102 L 89.20473480224609 1.000015258789062 L 1.194475650787354 1.000015258789062 L 19.18205261230469 101.8907775878906 L 19.1507625579834 102.0663070678711 L 1.003334522247314 203.8489379882812 L 89.20340728759766 203.8489379882812 M 90.04018402099609 204.8496246337891 L 90.04031372070312 204.8489379882812 L 0.0004200889088679105 204.8489379882812 L -9.637129778639064e-07 203.7792053222656 L 18.16628837585449 101.8907775878906 L 0.0004200889088679105 1.521381545899203e-05 L 90.04031372070312 1.521381545899203e-05 L 108.4552612304688 101.9684066772461 L 90.04018402099609 204.8496246337891 Z" stroke="none" fill="#ff7c64"/>
      </g>
    </g>
    <g id="グループ_9966" data-name="グループ 9966" transform="translate(324.849 9927.936) rotate(90)">
      <g id="前面オブジェクトで型抜き_1-3" data-name="前面オブジェクトで型抜き 1" transform="translate(0 0)" fill="rgba(255,124,100,0.65)">
        <path d="M 89.62185668945312 204.3489379882812 L 0.5002233386039734 204.3489379882812 L 0.500016450881958 203.8233184814453 L 18.65852546691895 101.9785385131836 L 18.6741828918457 101.8907775878906 L 18.65852546691895 101.8030166625977 L 0.5974478721618652 0.5000151991844177 L 89.62251281738281 0.5000151991844177 L 107.9472351074219 101.9688186645508 L 89.62185668945312 204.3489379882812 Z" stroke="none"/>
        <path d="M 89.20340728759766 203.8489379882812 L 107.4392242431641 101.9691543579102 L 89.20473480224609 1.000015258789062 L 1.194475650787354 1.000015258789062 L 19.18205261230469 101.8907775878906 L 19.1507625579834 102.0663070678711 L 1.003334522247314 203.8489379882812 L 89.20340728759766 203.8489379882812 M 90.04018402099609 204.8496246337891 L 90.04031372070312 204.8489379882812 L 0.0004200889088679105 204.8489379882812 L -9.637129778639064e-07 203.7792053222656 L 18.16628837585449 101.8907775878906 L 0.0004200889088679105 1.521381545899203e-05 L 90.04031372070312 1.521381545899203e-05 L 108.4552612304688 101.9684066772461 L 90.04018402099609 204.8496246337891 Z" stroke="none" fill="#ff7c64"/>
      </g>
    </g>
    <text id="_4" data-name="4" transform="translate(351 10071.494)" fill="#ff7c64" font-size="30" font-family="SawarabiGothic-Regular, Sawarabi Gothic"><tspan x="-8.25" y="0">4</tspan></text>
    <text id="入社決定" transform="translate(222.001 10089.097)" fill="#fff" font-size="24" font-family="SawarabiGothic-Regular, Sawarabi Gothic"><tspan x="-48" y="0">入社決定</tspan></text>
    <text id="面接は1回_場合によっては2回を予定しております_" data-name="面接は1回、場合によっては2回を予定しております。" transform="translate(367 9955.097)" fill="#333" font-size="14" font-family="SawarabiGothic-Regular, Sawarabi Gothic"><tspan x="0" y="16">面接は1回、場合によっては2回を予定し</tspan><tspan x="0" y="40">ております。</tspan></text>
    <text id="ご応募から内定まで最短で1週間程度を想定しております_" data-name="ご応募から内定まで最短で1週間程度を想定しております。" transform="translate(367 10049.749)" fill="#333" font-size="14" font-family="SawarabiGothic-Regular, Sawarabi Gothic"><tspan x="0" y="16">ご応募から内定まで最短で1週間程度を想</tspan><tspan x="0" y="40">定しております。</tspan></text>
    <text id="_3" data-name="3" transform="translate(351 9976.442)" fill="#ff7c64" font-size="30" font-family="SawarabiGothic-Regular, Sawarabi Gothic"><tspan x="-8.25" y="0">3</tspan></text>
    <text id="面接実施" transform="translate(222.001 9992.097)" fill="#fff" font-size="24" font-family="SawarabiGothic-Regular, Sawarabi Gothic"><tspan x="-48" y="0">面接実施</tspan></text>
  </g>
</svg>
