<svg id="_7767" data-name="7767" xmlns="http://www.w3.org/2000/svg" width="201.382" height="256.971" viewBox="0 0 201.382 256.971">
  <path id="パス_92676" data-name="パス 92676" d="M270.6,184.469c.651,7.053,1.486,15.275,1.654,16.807-2.992.6-11.042-.258-13.943-1.145a6.969,6.969,0,0,1-4.373-3.98l-2.335-4.44c-.832,2.751-2.331,5.836-5.139,7.113-3.258,1.481-14.04,2.929-16.312,2.476V178.943a19.258,19.258,0,0,1-6.054,4.308,5.385,5.385,0,0,1-3.747-.039,4.181,4.181,0,0,1-2.166-2.068,12.535,12.535,0,0,1-.663-6.771c1.112-7.454,3.056-12.681,4.488-19.592a21.529,21.529,0,0,1,2.218-5.774,8.564,8.564,0,0,1,4.651-3.554l1.679-.663c2.164-1.074,6.228-2.839,9.2-4.2.851-.6,1.653-1.113,2.234-1.441,1.2,5.158,8.361,23.276,10.439,28.714,1.314-3.26,8.2-22.878,9.228-28.758A23.752,23.752,0,0,1,265,141.453c2.554,1.227,5.632,2.638,7.356,3.494a15.18,15.18,0,0,1,3.2,1.913l.5,3.45c2.879-.448,6.31-.974,8.875-1.227a75.408,75.408,0,0,1,3.5,16.184c.2,1.995.326,3.511-.824,5.435a4.668,4.668,0,0,1-2.95,2.229c-.076.027-.153.053-.23.077-4.627,1.423-9.8-.861-13.5-5.418-.348,2.457-.664,4.779-1.089,7.615C269.937,177.07,270.24,180.593,270.6,184.469Z" transform="translate(-104.231 -65.774)" fill="#fff"/>
  <path id="パス_92677" data-name="パス 92677" d="M283.494,248.823q.043.234.083.464c2.792,15.823-1.123,48.682-1.39,53.813a.522.522,0,0,1-.466.491c-6.892.819-26.352.79-34.615.025a.518.518,0,0,1-.474-.492c-.279-5.194-4.278-38.024-1.487-53.837q.035-.2.073-.408s7.912-10.091,19.464-10.091S283.494,248.823,283.494,248.823Z" transform="translate(-116.928 -112.94)" fill="#fff"/>
  <path id="パス_92678" data-name="パス 92678" d="M252.312,111.12c.219-.1,6.243-3.146,6.835-4.61a10.539,10.539,0,0,0,.325-3.535s-.024-.43-.056-.968a12.75,12.75,0,0,1-4.6-3.616,15.068,15.068,0,0,1-2.871-5.6l-.566-.087a3.724,3.724,0,0,1-1.739-.782,5.622,5.622,0,0,1-1.456-1.91,8.862,8.862,0,0,1-.9-4.7,2.955,2.955,0,0,1,.31-1.189,2.09,2.09,0,0,1,1.5-1,2.249,2.249,0,0,1,1.129.129,13.446,13.446,0,0,0,8.33-4.1c1.712-.391,3.173-.8,3.173-.8a43.54,43.54,0,0,0,8.129-5.317c1.851.1,3.642.242,3.642.242a4.979,4.979,0,0,1,3.886,2.829,27.341,27.341,0,0,1,1.96,4.731s1.006,2.314,1.572,2.411c.078-.071-.332.395-.332.395a2.216,2.216,0,0,1,1.772-.518,2.09,2.09,0,0,1,1.5,1,2.955,2.955,0,0,1,.31,1.189,8.861,8.861,0,0,1-.9,4.7,5.631,5.631,0,0,1-1.456,1.91,3.722,3.722,0,0,1-1.739.782l-.3.046c-.142.533-.3.982-.381,1.221-.522,1.415-3.516,6.424-7.235,8.008.009.59.016,1,.016,1a10.553,10.553,0,0,0,.325,3.535c.593,1.464,6.053,4.514,6.27,4.61,0,0-3.551,8.518-12.917,8.518S252.312,111.12,252.312,111.12Z" transform="translate(-118.39 -34.514)" fill="#fff"/>
  <path id="パス_92679" data-name="パス 92679" d="M165.886,258.224c-1.983.235-3.655.415-3.655.415l-.41.044q-.045-1.381-.091-2.763c-.017-.521-.053-1.146-.1-1.834l1.154-.131s5.594-.632,7.817-.887c.053,1.444.189,3.378.246,4.5C169.545,257.777,167.6,258.021,165.886,258.224Z" transform="translate(-77.88 -119.695)" fill="#fff"/>
  <path id="パス_92680" data-name="パス 92680" d="M169.5,262.219c.063,3.789.942,5.986,1.8,9.679s.859,4.839-.9,7.312c-1.111,1.565-4.257,3.042-5.906,1.848v-5.337a4.377,4.377,0,0,1-1.211.7c-1.018.235-1.993-1.072-1.909-2.114.323-4.03,1.391-7,2.322-10.935l.1-1.288Z" transform="translate(-77.757 -123.961)" fill="#fff"/>
  <path id="パス_92681" data-name="パス 92681" d="M134.718,446.194c-.044-.286-.069-.569-.088-.763-.1-1.038-.2-2.068-.278-3.082-2.74.044-7.007.045-10.164.026.075,1.212.1,2.385.217,3.828a17.114,17.114,0,0,0,5.383,2.467,6.235,6.235,0,0,0,5.471-1.284,2.048,2.048,0,0,1-.256-.27,2.347,2.347,0,0,1-.286-.921Z" transform="translate(-60.166 -209.251)" fill="#fff"/>
  <path id="パス_92682" data-name="パス 92682" d="M94.71,442.377c-3.123.015-7.1.011-9.657-.032-.077,1.015-.179,2.045-.28,3.084a4.384,4.384,0,0,1-.374,1.686,1.914,1.914,0,0,1-.224.24,6.223,6.223,0,0,0,5.505,1.314,16.929,16.929,0,0,0,5.314-2.424c.12-1.463.145-2.648.222-3.869Z" transform="translate(-41.234 -209.249)" fill="#fff"/>
  <path id="パス_92683" data-name="パス 92683" d="M81.46,87.24c.293-.127,3.883-2.241,4.673-4.191.551-1.364.406-3.257.428-4.722A14.067,14.067,0,0,1,82.8,75.113a16.431,16.431,0,0,1-3.312-6.67l-.24.065a2.318,2.318,0,0,1-2.1-.665,6.17,6.17,0,0,1-1.6-2.094,9.713,9.713,0,0,1-.99-5.147,3.24,3.24,0,0,1,.339-1.3,2.29,2.29,0,0,1,1.648-1.1,2.428,2.428,0,0,1,1.942.568S79.6,44.512,94.739,44.512c14.83,0,16.635,14.259,16.635,14.259a2.428,2.428,0,0,1,1.942-.568,2.291,2.291,0,0,1,1.648,1.1,3.24,3.24,0,0,1,.339,1.3,9.713,9.713,0,0,1-.99,5.147,6.17,6.17,0,0,1-1.6,2.094,1.93,1.93,0,0,1-2.389.22,14.5,14.5,0,0,1-.632,2.283c-.542,1.447-3.507,6.37-7.284,8.324a12.534,12.534,0,0,0,.421,4.376c.79,1.949,5.045,4.406,5.338,4.531,0,0-3.927,9.383-13.605,9.383S81.46,87.24,81.46,87.24Z" transform="translate(-36.67 -21.021)" fill="#fff"/>
  <path id="パス_92684" data-name="パス 92684" d="M103.468,148.367c-.053.139-.105.263-.146.369-2.239-5.86-9.9-25.237-11.328-31.085a11.634,11.634,0,0,1,2.213-2.872,24.341,24.341,0,0,0,7.025,4.9c.145.066.308.146.355.3a.564.564,0,0,1-.081.4,4.731,4.731,0,0,1-.387.545c1.153,0,1.976,0,3.178-.006a4.768,4.768,0,0,1-.381-.54.564.564,0,0,1-.081-.4c.047-.152.211-.233.355-.3a24.346,24.346,0,0,0,7.025-4.9,11.538,11.538,0,0,1,2.14,2.743C112.21,123.849,105.19,143.934,103.468,148.367Z" transform="translate(-44.934 -54.267)" fill="#fff"/>
  <path id="パス_92685" data-name="パス 92685" d="M116.649,260.446c-.27,3.653-.546,7.83-.822,12.241-.776,9.647-1.876,33.046-2.34,46.569-.4,11.8-.857,20.131-1.261,31.928-1.636.174-14.047.143-16.818.075-.211-7.271-1.019-24.889-1.117-27.766-.279-8.15-.587-46.156-.865-53.774-.351,8.015-.709,44.117-1.06,52.621-.124,3-1.159,21.331-1.423,28.919-2.771.067-15.188.1-16.825-.075-.4-11.8-.857-20.131-1.261-31.928-.464-13.524-1.564-36.922-2.34-46.569-.276-4.411-.552-8.588-.822-12.241,0,0,2.111-12.118,23.186-12.118S116.649,260.446,116.649,260.446Z" transform="translate(-34.383 -117.454)" fill="#fff"/>
  <path id="パス_92686" data-name="パス 92686" d="M63,119.995c1.409,5.817,9.091,25.244,11.333,31.114,1.43-3.546,8.931-24.913,10.049-31.317A25.865,25.865,0,0,1,88,122.332c4.449,1.883,8.154,3.617,12.171,5.348a14.108,14.108,0,0,1,2.561,1.14,4.492,4.492,0,0,1,1.185.632c3.326,2.655,3.933,5.234,4.1,8.594.725,14.446,1.752,30.256,2.476,45.183.158,3.227.162,4.185.216,5.311a1.312,1.312,0,0,1-1.15,1.37l-8.713.988-1.156.1c.048.7.085,1.336.1,1.864q.07,2.136.139,4.272c.016.488.152,2.011-.231,2.164a1.227,1.227,0,0,1-.8.263c-.948.053-14.713.15-17.467-.408a4.1,4.1,0,0,1-3.45-2.7,29.633,29.633,0,0,1-2.565-6.691l-1.015-2.712-1.874,4.9a22.372,22.372,0,0,1-1.938,4.507,4.1,4.1,0,0,1-3.453,2.7c-2.754.557-16.52.459-17.467.408a1.225,1.225,0,0,1-.8-.263c-.383-.153-.247-1.676-.232-2.164q.068-2.136.14-4.272c.086-2.619.65-7.88.724-10.5.077-2.729,1.169-19.592,1.317-21.918-.06-.91-.127-1.88-.194-2.714l-.878.925c-3.994,4.913-9.568,7.376-14.557,5.842-.083-.026-.166-.053-.248-.083a5.031,5.031,0,0,1-3.182-2.4c-1.239-2.073-1.109-3.708-.889-5.858a81.306,81.306,0,0,1,3.772-17.444c3.243.32,7.773,1.045,11.122,1.565,0-3.471,0-11.32,0-11.32a12.343,12.343,0,0,1,2.748-1.275c3.214-1.439,6.04-2.711,9.145-4.053A39.273,39.273,0,0,1,62.695,120" transform="translate(-15.95 -56.638)" fill="#fff"/>
  <path id="パス_92687" data-name="パス 92687" d="M167.521,349.389c.61-7.65-.211-33.056-.986-38.719a.646.646,0,0,0-.645-.522c-2.73-.092-6.424-.168-9.313-.153a.689.689,0,0,0-.7.56c-.746,5.365-2.288,30.514-2.074,38.535.047,1.751,1.641,2.38,3.617,2.4,2.077.018,4.464.016,6.44.01C165.787,351.493,167.383,351.1,167.521,349.389Z" transform="translate(-74.166 -146.629)" fill="#fff"/>
  <path id="パス_92688" data-name="パス 92688" d="M48.171,132.593a3.632,3.632,0,0,1,.654-1.923c.467-.527.832-1.309,1.261-1.868a3.308,3.308,0,0,0,.537-3.1c-.336-1.069-.976-1.824-.919-2.944a3.785,3.785,0,0,1,.783-1.888,6.27,6.27,0,0,0,1.054-1.83,1.739,1.739,0,0,0-.554-1.764,1.17,1.17,0,0,0-1.035-.173,1.77,1.77,0,0,0-.7-2.084,1.731,1.731,0,0,0-2.135.087,2.22,2.22,0,0,0-.533-2.193,1.807,1.807,0,0,0-2.34.032,1.608,1.608,0,0,0-1.04-1.715,2.419,2.419,0,0,0-2.116.625,5.334,5.334,0,0,0-.843,1l-1.86,2.621c-1.106,1.561-2.271,3.342-1.968,5.232a26.373,26.373,0,0,0,1.512,4.154c.756,2.062,1.922,3.517,2,5.816" transform="translate(-18.615 -52.569)" fill="#fff"/>
  <path id="パス_92689" data-name="パス 92689" d="M40.367,148.768c-.222,1.017-.48,2.321-.769,3.511,3.263.358,7.527,1.044,10.654,1.528.027.584.561-3.477.676-4.093-.4-.075-7.706-1.081-10.457-1.413Q40.42,148.522,40.367,148.768Z" transform="translate(-20.143 -70.127)" fill="#fff"/>
  <path id="パス_92690" data-name="パス 92690" d="M296.094,409.923c.211.324.441.66.7,1.037.025.467-.06.831-.276.964-.654.4-.65,1.113-3.225.762-2.74-.374-5.562-2.341-9.224-5.43a.157.157,0,0,0-.056-.03c-.015-3.267.135-6.094,0-9.819-.3-8.031-.73-17.944-.728-26.052v-8.664c4.6,0,9.123-.086,12.648-.271a.164.164,0,0,0,0,.044c1.279,10.169-.829,20.412-2.093,30.583-.485,3.9-.263,12.731,1.258,15.19A18.332,18.332,0,0,0,296.094,409.923Z" transform="translate(-135.438 -171.434)" fill="#fff"/>
  <path id="パス_92691" data-name="パス 92691" d="M257.812,409.7c.342-.486.645-.961.938-1.467,1.522-2.459,1.664-11.29,1.179-15.19-1.264-10.171-3.372-20.413-2.093-30.583l.005-.053c3.776.181,8.414.275,12.992.279v8.663c0,8.108-.431,18.019-.728,26.052-.145,3.934-.184,6.545-.28,9.967-3.6,3.021-6.379,4.944-9.086,5.312-2.576.351-2.571-.359-3.225-.762-.3-.184-.347-.811-.2-1.544C257.491,410.142,257.656,409.918,257.812,409.7Z" transform="translate(-123.114 -171.426)" fill="#fff"/>
  <path id="パス_92692" data-name="パス 92692" d="M240.328,465.608a3.924,3.924,0,0,1-.7-1.773,6.086,6.086,0,0,1,.932-3.737,27.958,27.958,0,0,1,2.965-4.114c1.763-2.067,2.985-3.623,4.439-5.29.824-.945,1.459-1.642,2.254-2.566-1.14,1.106-1.693,3.622-1.038,4.025a5.072,5.072,0,0,0,2.424.416c3.366.058,8.159-3.4,10.027-5.084.128-.114.365.046.369.229.017,2.169.2,3.106.188,5.5a5.52,5.52,0,0,1-.417,1.855c-.534,1.444-2.117,2.14-3.388,3.009-3.306,2.262-5.837,6.006-9.3,8.017-2,1.162-3.88,1.844-6.121,1.261A4.658,4.658,0,0,1,240.328,465.608Z" transform="translate(-114.773 -211.663)" fill="#fff"/>
  <path id="パス_92693" data-name="パス 92693" d="M305.566,465.608a3.93,3.93,0,0,0,.7-1.773,6.083,6.083,0,0,0-.932-3.737,27.962,27.962,0,0,0-2.965-4.114c-1.763-2.067-2.985-3.623-4.438-5.29-.825-.945-1.459-1.642-2.254-2.566,1.14,1.106,1.693,3.622,1.038,4.025a5.071,5.071,0,0,1-2.424.416c-3.366.058-8.159-3.4-10.027-5.084-.128-.114-.365.046-.369.229-.017,2.169-.2,3.106-.188,5.5a5.532,5.532,0,0,0,.417,1.855c.534,1.444,2.118,2.14,3.388,3.009,3.306,2.262,5.837,6.006,9.3,8.017,2,1.162,3.88,1.844,6.121,1.261A4.661,4.661,0,0,0,305.566,465.608Z" transform="translate(-135.641 -211.663)" fill="#fff"/>
  <path id="パス_92694" data-name="パス 92694" d="M241.969,186.852a4.3,4.3,0,0,1-4.08,1.6,3.4,3.4,0,0,1-2.514-1.621,4.914,4.914,0,0,1-1.1-2.218,7.041,7.041,0,0,1,.46-3.47c.762-2.327,1.115-3.924,2.63-5.848,1.378-1.751,3.6-2.362,5.839-2.465.307,0,.939-.01.939-.01a2.566,2.566,0,0,1,2.452,1.054,2.077,2.077,0,0,1-.263,2.476,1.63,1.63,0,0,1,1.9,1.321,1.943,1.943,0,0,1-1,2.213,1.662,1.662,0,0,1,.948,1.609c-.053.592-.465,1.6-1.163,1.752.728.184.83,1.334.4,2.08a2.82,2.82,0,0,1-2.221,1.077,15.258,15.258,0,0,0-2.988.4" transform="translate(-112.214 -81.728)" fill="#fff"/>
  <path id="パス_92695" data-name="パス 92695" d="M323.681,136.615a3.372,3.372,0,0,0-.607-1.784c-.434-.489-.772-1.214-1.17-1.733a3.069,3.069,0,0,1-.5-2.873c.312-.992.906-1.692.853-2.731a3.512,3.512,0,0,0-.727-1.752,5.8,5.8,0,0,1-.977-1.7,1.611,1.611,0,0,1,.513-1.637,1.085,1.085,0,0,1,.96-.158,1.644,1.644,0,0,1,.651-1.934,1.607,1.607,0,0,1,1.981.081,2.059,2.059,0,0,1,.494-2.035,1.677,1.677,0,0,1,2.171.03,1.491,1.491,0,0,1,.965-1.591,2.244,2.244,0,0,1,1.964.58,4.967,4.967,0,0,1,.785.93l1.726,2.431c1.028,1.448,2.107,3.1,1.826,4.854a24.426,24.426,0,0,1-1.4,3.854c-.7,1.913-1.783,3.263-1.859,5.4" transform="translate(-153.048 -55.204)" fill="#fff"/>
  <path id="パス_92696" data-name="パス 92696" d="M11.089,86.942c.053-1.335,1.026-2.864,2.286-4.3A6.254,6.254,0,0,1,17.5,80.2a6.489,6.489,0,0,1-4.4-2.213,8.4,8.4,0,0,1-2.017-4.738,7.939,7.939,0,0,1-1.983,4.588A6.768,6.768,0,0,1,4.673,80.2a6.437,6.437,0,0,1,4.343,2.266A7.827,7.827,0,0,1,11.089,86.942Z" transform="translate(-3.619 -34.618)" fill="#fff"/>
  <path id="パス_92697" data-name="パス 92697" d="M114.258,38.773a15.369,15.369,0,0,0-.835-3.327,10.7,10.7,0,0,0-4.572-5.848l-2.313-2.043a10.543,10.543,0,0,0-6.055-4.929C97.5,21.559,88.79,21.379,85.863,23.909l-3,2.055c-3.349,1.531-5.717,5.192-6.721,8.966-1.037,3.887-1.047,9.521.413,12.674a2.077,2.077,0,0,1,.414-.105,2.428,2.428,0,0,1,1.942.568c.468.995,3-.092,3-.092a10.85,10.85,0,0,1,4.4-7.193,5.708,5.708,0,0,1,3.3-1.032l3.509-.025a6.552,6.552,0,0,0,3.916-1.058,12.856,12.856,0,0,0,2.9-2.655,4.577,4.577,0,0,1,1.506-1.149l.679.174c1.64.421,3.9,2.476,5.2,4.119a15.352,15.352,0,0,1,2.359,4.2,14.7,14.7,0,0,1,.694,2.609c.105.623.225,1.718.333,2.656l.041.361,1.051-.914a2.417,2.417,0,0,1,1.929-.568A20.94,20.94,0,0,0,114.258,38.773Z" transform="translate(-37.084 -10.316)" fill="#fff"/>
  <path id="パス_92698" data-name="パス 92698" d="M231.97,231.419a2.6,2.6,0,0,1-1.457-2.5,145.551,145.551,0,0,1,2.107-17.527s.128-.532.323-1.333a18.845,18.845,0,0,0,3.53-2.967,20.129,20.129,0,0,0,2.485-3.2c.4-.665.607-.854.112-1.427a22.358,22.358,0,0,0-2.085-1.608l-.105-.1a4.063,4.063,0,0,0,3.267-1.528l.305-.141a6.527,6.527,0,0,1,1.78-.3l.09.413c1.3,5.984,2.684,25.619,2.59,30.282-.041,2.034-1.639,2.476-3.1,2.455-1.5-.024-6.566-.057-8.138-.111A4.1,4.1,0,0,1,231.97,231.419Z" transform="translate(-110.47 -94.018)" fill="#fff"/>
  <path id="パス_92699" data-name="パス 92699" d="M364.509,236.8c.053-1.37,1.054-2.935,2.344-4.407a6.4,6.4,0,0,1,4.233-2.5,6.65,6.65,0,0,1-4.509-2.27,8.6,8.6,0,0,1-2.068-4.857,8.138,8.138,0,0,1-2.033,4.7,6.938,6.938,0,0,1-4.544,2.424,6.6,6.6,0,0,1,4.453,2.321A8.032,8.032,0,0,1,364.509,236.8Z" transform="translate(-170.758 -105.359)" fill="#fff"/>
  <path id="パス_92700" data-name="パス 92700" d="M106.417,134.49c.169-1.418.274-2.335.274-2.411a4.05,4.05,0,0,0-.158-.969c-.037-.148-.074-.29-.105-.437-.169-.722-.285-1.254-.427-1.976l-.109-.349c.166-.2.329-.4.486-.592.424-.519.8-.988,1.067-1.332l3.178,0c.263.345.644.815,1.07,1.336.267.327.553.673.84,1.021l-.184.421c-.1.4-.211.817-.358,1.27a5.911,5.911,0,0,0-.379,1.718c-.005.3.854,5.969,1.665,11.4l.053.38c-1.658,4.836-3.13,8.9-3.688,10.284-.854-2.234-2.5-6.433-4.279-11.1l.049-.394C105.8,139.639,106.173,136.541,106.417,134.49Z" transform="translate(-51.259 -59.775)" fill="#ff7c64"/>
  <path id="パス_92701" data-name="パス 92701" d="M130.114,465.053a10.6,10.6,0,0,0,1.963,1.532,12.872,12.872,0,0,0,8.014,1.644,7.587,7.587,0,0,0,3.406-1.2,4.235,4.235,0,0,0,1.858-3,6.1,6.1,0,0,0-2.124-4.572,126.649,126.649,0,0,1-9.25-9.621,5.962,5.962,0,0,1-6.117,2.007,18.086,18.086,0,0,1-5.67-2.642c-1.709-1.054-1.966,3.881-2.007,4.953-.064,1.693-.342,3.93,1,5.182a13.545,13.545,0,0,0,4.3,2.336C127.545,462.3,128.609,463.628,130.114,465.053Z" transform="translate(-58.24 -212.422)" fill="#ff7c64"/>
  <path id="パス_92702" data-name="パス 92702" d="M76.652,465.053a10.6,10.6,0,0,1-1.963,1.532,12.871,12.871,0,0,1-8.014,1.644,7.587,7.587,0,0,1-3.405-1.2,4.234,4.234,0,0,1-1.858-3,6.1,6.1,0,0,1,2.124-4.572,126.639,126.639,0,0,0,9.25-9.621,5.963,5.963,0,0,0,6.118,2.007,18.085,18.085,0,0,0,5.67-2.642c1.709-1.054,1.966,3.881,2.006,4.953.064,1.693.342,3.93-1,5.182a13.546,13.546,0,0,1-4.3,2.336C79.221,462.3,78.157,463.628,76.652,465.053Z" transform="translate(-30.458 -212.422)" fill="#ff7c64"/>
  <path id="パス_92703" data-name="パス 92703" d="M275.934,153.359a22.99,22.99,0,0,1-7.616-1.228l-.075-.03c2.644,7.493,6.782,17.994,8.279,21.911.969-2.408,4.993-13.775,7.437-21.908l-.888.238a31.045,31.045,0,0,1-7.078,1.017Z" transform="translate(-128.323 -71.925)" fill="#ff7c64"/>
  <path id="パス_92704" data-name="パス 92704" d="M284.146,92.984a5.8,5.8,0,0,1-.977-1.7,1.611,1.611,0,0,1,.513-1.637,1.085,1.085,0,0,1,.96-.158,1.729,1.729,0,0,1-.1-.508c-.121-.492-.263-.995-.436-1.528a48.64,48.64,0,0,1-2.268-15.283,52.155,52.155,0,0,0-.1-7.032c-.321-4.512-2.339-9.55-5.241-12.35a11.854,11.854,0,0,0-2.985-2.517l-2.139-1.159-1.14-.439a18.67,18.67,0,0,0-7.435-1.151,20.647,20.647,0,0,0-13.265,5.185c-3.8,3.642-6.217,10.293-5.913,19.466,0,6.684-.508,11.506-1.221,14.245a34.288,34.288,0,0,0-.917,6.9c-.026,3.117,3.114,6.533,7.745,5.479l.918-.029c1.552-.805,5.779-3.109,6.27-4.325a10.539,10.539,0,0,0,.325-3.535s-.024-.43-.056-.968a12.75,12.75,0,0,1-4.6-3.616,15.068,15.068,0,0,1-2.871-5.6l-.566-.087a3.724,3.724,0,0,1-1.739-.782,5.622,5.622,0,0,1-1.456-1.91,8.862,8.862,0,0,1-.9-4.7,2.955,2.955,0,0,1,.31-1.189,2.09,2.09,0,0,1,1.5-1,2.249,2.249,0,0,1,1.129.129,13.446,13.446,0,0,0,8.33-4.1c1.712-.391,3.173-.8,3.173-.8a43.512,43.512,0,0,0,8.129-5.316,4.771,4.771,0,0,1,3.642.242,4.979,4.979,0,0,1,3.886,2.829,27.346,27.346,0,0,1,1.96,4.731l1.12,2.915.12-.109a2.216,2.216,0,0,1,1.772-.518,2.09,2.09,0,0,1,1.5,1,2.955,2.955,0,0,1,.31,1.189,8.857,8.857,0,0,1-.9,4.7,5.622,5.622,0,0,1-1.456,1.91,3.722,3.722,0,0,1-1.739.782l-.3.046c-.142.533-.3.982-.381,1.221-.522,1.415-3.516,6.424-7.235,8.008.009.59.016,1,.016,1a10.553,10.553,0,0,0,.325,3.535c.378.936,2.743,2.517,4.459,3.563l3.3-.105a5.521,5.521,0,0,0,7.239-3.714,4.458,4.458,0,0,0-.614-1.207Z" transform="translate(-115.663 -22.445)" fill="#ff7c64"/>
  <path id="パス_92705" data-name="パス 92705" d="M364.617,235.857c.1-1.444,1.257-2.807,2.184-3.829A5.57,5.57,0,0,1,370.14,230a1.054,1.054,0,0,0,0-2.107,6.526,6.526,0,0,1-5.523-6.073,1.054,1.054,0,1,0-2.107,0,6.708,6.708,0,0,1-5.524,6.073,1.054,1.054,0,1,0,0,2.107,5.757,5.757,0,0,1,3.632,1.929,6.843,6.843,0,0,1,1.891,3.928c.081,1.348,2.189,1.357,2.107,0a9.122,9.122,0,0,0-2.508-5.419,7.963,7.963,0,0,0-5.123-2.546V230a8.851,8.851,0,0,0,7.631-8.181h-2.107a9.5,9.5,0,0,0,2.24,5.443,8,8,0,0,0,5.39,2.74v-2.107a7.664,7.664,0,0,0-4.829,2.646c-1.346,1.48-2.662,3.258-2.8,5.321C362.418,237.211,364.525,237.205,364.617,235.857Z" transform="translate(-169.812 -104.412)" fill="#333"/>
  <path id="パス_92706" data-name="パス 92706" d="M11.2,86c.1-1.4,1.227-2.731,2.129-3.723a5.407,5.407,0,0,1,3.233-1.965,1.054,1.054,0,1,0,0-2.107A6.34,6.34,0,0,1,11.2,72.3a1.054,1.054,0,1,0-2.107,0,6.52,6.52,0,0,1-5.362,5.9,1.054,1.054,0,1,0,0,2.107,5.648,5.648,0,0,1,3.6,1.956A6.588,6.588,0,0,1,9.089,86c.081,1.348,2.189,1.357,2.107,0a8.9,8.9,0,0,0-2.381-5.223A7.812,7.812,0,0,0,3.727,78.2v2.107A8.662,8.662,0,0,0,11.2,72.3H9.089a9.3,9.3,0,0,0,2.189,5.321,7.829,7.829,0,0,0,5.281,2.684V78.2a7.5,7.5,0,0,0-4.723,2.582C10.518,82.233,9.228,83.971,9.089,86,9,87.349,11.1,87.344,11.2,86Z" transform="translate(-2.673 -33.67)" fill="#333"/>
  <path id="パス_92707" data-name="パス 92707" d="M212.091,16.234c.105-1.59,1.37-3.086,2.388-4.211a6.156,6.156,0,0,1,3.7-2.244,1.054,1.054,0,1,0,0-2.107A7.18,7.18,0,0,1,212.091.98a1.054,1.054,0,1,0-2.107,0,7.382,7.382,0,0,1-6.092,6.691,1.054,1.054,0,0,0,0,2.107,6.354,6.354,0,0,1,4.016,2.129,7.52,7.52,0,0,1,2.075,4.326c.079,1.348,2.187,1.357,2.107,0a9.8,9.8,0,0,0-2.692-5.817,8.544,8.544,0,0,0-5.507-2.746V9.778a8.83,8.83,0,0,0,5.753-3.024A9.856,9.856,0,0,0,212.091.982h-2.107a10.215,10.215,0,0,0,2.417,5.86,8.582,8.582,0,0,0,5.782,2.936V7.671a8.233,8.233,0,0,0-5.194,2.861c-1.437,1.584-2.861,3.495-3,5.7C209.893,17.588,212,17.582,212.091,16.234Z" transform="translate(-97.378 0.074)" fill="#333"/>
  <path id="パス_92708" data-name="パス 92708" d="M308.675,139.863a6.255,6.255,0,0,0,5.51-.518,7.3,7.3,0,0,0,1.972-1.853,6.345,6.345,0,0,0,.6-.971,3.53,3.53,0,0,0,.49-1.4,1.054,1.054,0,1,0-2.107,0c0-.33,0-.142-.053-.013-.008.023-.1.257-.05.133s-.05.105-.061.13q-.061.128-.128.252a6.086,6.086,0,0,1-.513.8c.127-.167-.067.076-.076.087-.053.062-.105.122-.161.181q-.181.2-.378.376-.09.081-.183.158c-.053.044-.174.134-.053.046-.144.105-.292.206-.446.3s-.284.162-.431.233c-.062.031-.2.092-.063.034-.092.038-.185.072-.279.105a4.894,4.894,0,0,1-.48.138c-.1.023-.2.042-.3.06-.194.036.044,0-.075.009-.192.015-.382.026-.574.022-.072,0-.143,0-.214-.009,0,0-.336-.031-.154-.008a5.516,5.516,0,0,1-1.236-.329,1.063,1.063,0,0,0-1.3.738,1.076,1.076,0,0,0,.738,1.3Z" transform="translate(-147.089 -63.394)" fill="#333"/>
  <path id="パス_92709" data-name="パス 92709" d="M316.086,93.386a59.55,59.55,0,0,0,1.018,10.638c.432,2.2,1.19,4.284,1.718,6.454.32,1.317,2.353.76,2.032-.56-.516-2.121-1.259-4.159-1.686-6.307a56.08,56.08,0,0,1-.974-10.225A1.054,1.054,0,0,0,316.086,93.386Z" transform="translate(-150.959 -43.664)" fill="#333"/>
  <path id="パス_92710" data-name="パス 92710" d="M241.626,93.386a59.584,59.584,0,0,1-1.089,13.579,37.966,37.966,0,0,0-1.023,6.735,6.969,6.969,0,0,0,1.852,5.367,7.552,7.552,0,0,0,7.094,1.983c1.329-.267.766-2.3-.56-2.032a5.361,5.361,0,0,1-5.1-1.5c-1.221-1.317-1.269-2.861-1.132-4.557a43.173,43.173,0,0,1,.977-5.788,42.211,42.211,0,0,0,.748-5.278c.253-2.829.334-5.671.336-8.51a1.054,1.054,0,0,0-2.107,0Z" transform="translate(-114.718 -43.663)" fill="#333"/>
  <path id="パス_92711" data-name="パス 92711" d="M309.857,92.5a1.122,1.122,0,0,1,1.584.211,2.419,2.419,0,0,1,.231,1.232,7.378,7.378,0,0,1-.105,1.52c-.329,1.806-1.239,3.976-3.247,4.337a1.063,1.063,0,0,0-.738,1.3,1.077,1.077,0,0,0,1.3.738c3.137-.562,4.636-4.1,4.87-6.943.122-1.475-.009-3.14-1.283-4.093a3.286,3.286,0,0,0-4.1.215,1.062,1.062,0,0,0,0,1.49,1.076,1.076,0,0,0,1.491,0Z" transform="translate(-146.918 -42.628)" fill="#333"/>
  <path id="パス_92712" data-name="パス 92712" d="M299.453,106.32a8.3,8.3,0,0,1-.484,2.235c-.033.1-.258.685-.113.361-.07.158-.143.316-.22.468A19,19,0,0,1,297,112.016c-1.415,1.941-3.339,4-5.761,4.567-1.317.31-.761,2.342.561,2.033,2.936-.689,5.212-3.088,6.94-5.427a12.617,12.617,0,0,0,2.822-6.868c.055-1.356-2.055-1.354-2.107,0Z" transform="translate(-138.847 -49.784)" fill="#333"/>
  <path id="パス_92713" data-name="パス 92713" d="M250.663,91.006a3.287,3.287,0,0,0-4.1-.215c-1.275.948-1.405,2.621-1.283,4.093.236,2.845,1.734,6.381,4.87,6.943a1.083,1.083,0,0,0,1.3-.738,1.063,1.063,0,0,0-.738-1.3c-2.008-.36-2.918-2.529-3.247-4.337a7.343,7.343,0,0,1-.105-1.434,2.837,2.837,0,0,1,.2-1.259,1.113,1.113,0,0,1,1.62-.268,1.083,1.083,0,0,0,1.491,0,1.062,1.062,0,0,0,0-1.49Z" transform="translate(-117.44 -42.625)" fill="#333"/>
  <path id="パス_92714" data-name="パス 92714" d="M253.3,105.825a17.284,17.284,0,0,0,3.688,8.272,12.36,12.36,0,0,0,8.066,4.578,1.061,1.061,0,0,0,1.054-1.054,1.077,1.077,0,0,0-1.054-1.054,10.461,10.461,0,0,1-6.711-4.124,15.352,15.352,0,0,1-3.009-7.181,1.063,1.063,0,0,0-1.3-.738,1.079,1.079,0,0,0-.738,1.3Z" transform="translate(-121.236 -49.399)" fill="#333"/>
  <path id="パス_92715" data-name="パス 92715" d="M302.984,79.826a24.651,24.651,0,0,0-2.213-5.25,5.908,5.908,0,0,0-4.65-3.083,1.054,1.054,0,1,0,0,2.107,3.174,3.174,0,0,1,1.672.694,4.636,4.636,0,0,1,1.3,1.613,25.345,25.345,0,0,1,1.854,4.478,1.054,1.054,0,0,0,2.032-.561Z" transform="translate(-141.015 -33.787)" fill="#333"/>
  <path id="パス_92716" data-name="パス 92716" d="M271.456,46.669a21.169,21.169,0,0,0-8.641-1.164,21.755,21.755,0,0,0-9.384,2.8,17.029,17.029,0,0,0-5.472,4.71,21.413,21.413,0,0,0-3.31,7.136,37.609,37.609,0,0,0-1.139,11.034c.041,1.353,2.149,1.359,2.107,0-.169-5.5.488-11.433,3.522-16.175,2.705-4.225,7.864-6.809,12.769-7.327A19.629,19.629,0,0,1,270.9,48.7a1.062,1.062,0,0,0,1.3-.738,1.078,1.078,0,0,0-.738-1.3Z" transform="translate(-116.603 -21.464)" fill="#333"/>
  <path id="パス_92717" data-name="パス 92717" d="M310.715,73.691a39.27,39.27,0,0,0,.016-5.058,33.1,33.1,0,0,0-.446-4.5,21.064,21.064,0,0,0-4.341-9.615,15.388,15.388,0,0,0-4.078-3.63c-1.187-.66-2.251,1.159-1.064,1.82a9.451,9.451,0,0,1,2.139,1.725,16.04,16.04,0,0,1,4.675,7.688,23.2,23.2,0,0,1,.959,5.58,42.709,42.709,0,0,1,.033,5.995c-.111,1.352,2,1.345,2.107,0Z" transform="translate(-143.482 -23.969)" fill="#333"/>
  <path id="パス_92718" data-name="パス 92718" d="M292.556,128.928c.011.7-.017,1.4.035,2.1a4.929,4.929,0,0,0,.527,2.133,5.566,5.566,0,0,0,1.293,1.379,24.784,24.784,0,0,0,2.031,1.485,1.061,1.061,0,0,0,1.441-.378,1.078,1.078,0,0,0-.378-1.441c-.306-.2-.609-.41-.907-.624q-.205-.148-.407-.3l-.087-.066h0c-.057-.043-.11-.087-.163-.132a8.83,8.83,0,0,1-.676-.6c-.086-.086-.168-.175-.249-.263-.158-.178.017.01.009.017a.791.791,0,0,1-.088-.133.865.865,0,0,0-.056-.1c-.037-.046.064.2.009.005-.039-.138-.082-.273-.112-.413-.017-.08-.031-.158-.046-.24s-.014-.126,0-.017c-.017-.169-.033-.338-.042-.508-.034-.632-.012-1.264-.022-1.9a1.054,1.054,0,0,0-2.107,0Z" transform="translate(-139.826 -60.465)" fill="#333"/>
  <path id="パス_92719" data-name="パス 92719" d="M265.683,128.921c-.006.58.013,1.165-.01,1.748-.006.162-.016.323-.031.485-.006.064-.014.127-.019.191-.013.128.033-.153-.01.047-.028.135-.053.27-.089.4-.019.072-.046.141-.064.211-.053.191.049-.063.014-.02a.881.881,0,0,0-.135.216c.01-.046.144-.166.041-.06-.042.043-.081.09-.122.133a7,7,0,0,1-.6.537c-.06.049-.1.077-.014.013-.066.053-.134.1-.2.15-.126.093-.255.184-.384.274-.305.211-.616.414-.929.613a1.054,1.054,0,1,0,1.064,1.82,21.5,21.5,0,0,0,1.956-1.38,4.267,4.267,0,0,0,1.146-1.253,5.349,5.349,0,0,0,.474-2.139c.042-.663.015-1.328.023-1.991a1.054,1.054,0,0,0-2.107,0Z" transform="translate(-125.656 -60.458)" fill="#333"/>
  <path id="パス_92720" data-name="パス 92720" d="M281.516,70.715a22.7,22.7,0,0,1-3.605,2.76,52.932,52.932,0,0,1-4.662,2.724,1.054,1.054,0,1,0,1.064,1.819,52.652,52.652,0,0,0,4.779-2.8,25.837,25.837,0,0,0,3.915-3.012C283.977,71.258,282.486,69.765,281.516,70.715Z" transform="translate(-130.445 -33.275)" fill="#333"/>
  <path id="パス_92721" data-name="パス 92721" d="M266.9,74.261c-2.727,2.774-5.208,6.189-8.951,7.655a1.086,1.086,0,0,0-.738,1.3,1.061,1.061,0,0,0,1.3.738c4.159-1.63,6.843-5.108,9.881-8.2.952-.968-.537-2.459-1.491-1.491Z" transform="translate(-123.089 -34.948)" fill="#333"/>
  <path id="パス_92722" data-name="パス 92722" d="M257.359,410a12.117,12.117,0,0,0,1.981-3.377,17.051,17.051,0,0,0,.659-3.241,49.987,49.987,0,0,0,.344-7.85,80.672,80.672,0,0,0-.984-9.009c-.547-3.893-1.106-7.787-1.438-11.706a64.139,64.139,0,0,1,.1-13.249,1.06,1.06,0,0,0-1.054-1.054,1.08,1.08,0,0,0-1.054,1.054c-.954,7.751.021,15.537,1.094,23.221.439,3.149,1.013,6.311,1.181,9.49a53.579,53.579,0,0,1-.132,7.64,21.229,21.229,0,0,1-.575,3.575,5.7,5.7,0,0,1-.421,1.159,17.269,17.269,0,0,1-1.521,2.284,1.061,1.061,0,0,0,.378,1.442,1.08,1.08,0,0,0,1.442-.378Z" transform="translate(-122.244 -170.532)" fill="#333"/>
  <path id="パス_92723" data-name="パス 92723" d="M303.208,361.56c.974,7.907-.056,15.844-1.156,23.681a93.262,93.262,0,0,0-1.133,9.645,51.416,51.416,0,0,0,.291,7.85,19.758,19.758,0,0,0,.72,3.771,16.894,16.894,0,0,0,2.281,4.081c.754,1.119,2.582.065,1.82-1.064-.47-.7-.948-1.391-1.365-2.122-.158-.277-.309-.557-.46-.838-.008-.016-.14-.3-.056-.105-.042-.1-.078-.2-.114-.3a15.177,15.177,0,0,1-.673-3.067,48.807,48.807,0,0,1-.35-7.733,79.69,79.69,0,0,1,1-9.053c.537-3.825,1.078-7.652,1.4-11.5a64.14,64.14,0,0,0-.1-13.249,1.087,1.087,0,0,0-1.054-1.054,1.06,1.06,0,0,0-1.054,1.054Z" transform="translate(-143.764 -170.527)" fill="#333"/>
  <path id="パス_92724" data-name="パス 92724" d="M280.142,362.674c0,5.974.015,11.946-.148,17.918-.158,5.743-.4,11.483-.607,17.224-.109,3.064-.167,6.129-.251,9.194a1.054,1.054,0,0,0,2.107,0c.31-11.275.906-22.547,1-33.825.028-3.5.008-7.007.008-10.512a1.054,1.054,0,0,0-2.107,0Z" transform="translate(-133.476 -171.073)" fill="#333"/>
  <path id="パス_92725" data-name="パス 92725" d="M281.276,362.675c0,5.935-.013,11.867.147,17.8.152,5.655.411,11.306.593,16.959.1,3.145-.019,6.289,0,9.435a1.054,1.054,0,0,0,2.107,0c-.015-2.77.084-5.541.032-8.311s-.2-5.57-.3-8.354c-.211-5.707-.414-11.417-.46-17.128-.028-3.467-.009-6.934-.009-10.4a1.054,1.054,0,0,0-2.107,0Z" transform="translate(-134.489 -171.073)" fill="#333"/>
  <path id="パス_92726" data-name="パス 92726" d="M281.511,257.182a82.349,82.349,0,0,1,1.043,14.16c.034,5.448-.184,10.9-.508,16.333-.289,4.847-.673,9.694-1.1,14.533-.158,1.791-.325,3.586-.486,5.379a22.716,22.716,0,0,0-.277,3.319,1.122,1.122,0,0,0-.008.138c.082.416-.861-.878.484-.421a1.8,1.8,0,0,0-.543.058c-.464.047-.929.086-1.394.121-1.022.078-2.045.135-3.069.182-2.512.116-5.025.174-7.539.205-5.466.067-10.938.021-16.4-.211-1.142-.048-2.283-.105-3.425-.18q-.729-.048-1.458-.105a2.12,2.12,0,0,0-.58-.05c1.3-.484.38.843.465.421a.862.862,0,0,0-.012-.194c-.077-1.172-.193-2.341-.3-3.511-.389-4.21-.782-8.42-1.113-12.636-.429-5.471-.773-10.951-.94-16.438a139.317,139.317,0,0,1,.256-15.9c.09-1.069.2-2.151.347-3.205a1.09,1.09,0,0,0-.738-1.3,1.06,1.06,0,0,0-1.3.738,104.465,104.465,0,0,0-.764,15.694c.07,5.743.376,11.486.786,17.219.337,4.709.756,9.412,1.193,14.113.135,1.444.275,2.887.393,4.332a8.171,8.171,0,0,0,.153,1.648c.414,1.35,2.143,1.182,3.279,1.26,5.321.366,10.669.437,16,.438,5.072,0,10.172-.03,15.23-.449,1.087-.09,2.622,0,3.017-1.275a7.744,7.744,0,0,0,.15-1.6c.111-1.386.242-2.77.369-4.155.413-4.526.808-9.054,1.13-13.587.4-5.577.7-11.163.785-16.754a114.071,114.071,0,0,0-.585-15.485q-.205-1.707-.511-3.4c-.242-1.332-2.274-.768-2.032.56Z" transform="translate(-115.962 -121.017)" fill="#333"/>
  <path id="パス_92727" data-name="パス 92727" d="M281.915,150.408c-4.555,1.2-9.72,1.519-14.192-.211a1.062,1.062,0,0,0-1.3.738,1.078,1.078,0,0,0,.738,1.3,22.119,22.119,0,0,0,7.59,1.264,29.135,29.135,0,0,0,7.723-1.054,1.055,1.055,0,0,0-.561-2.032Z" transform="translate(-127.448 -71.007)" fill="#333"/>
  <path id="パス_92728" data-name="パス 92728" d="M314.992,145.543c-.171-.125-.344-.244-.522-.358l.522.91c0-.843-1-1.225-1.633-1.558-.594-.316-1.2-.611-1.8-.9-1.041-.5-2.089-.995-3.135-1.486-2.18-1.025-4.378-2.025-6.508-3.152-1.2-.632-2.266,1.184-1.064,1.82,1.991,1.054,4.043,1.993,6.081,2.95A57.77,57.77,0,0,1,313.4,147l-.522-.91c0,.671.576.932,1.044,1.273a1.062,1.062,0,0,0,1.442-.378,1.077,1.077,0,0,0-.378-1.442Z" transform="translate(-143.501 -65.661)" fill="#333"/>
  <path id="パス_92729" data-name="パス 92729" d="M313.956,184.5a32.9,32.9,0,0,1-.375,12.332c-.738,3.122-1.073,12.925-.565,16.361" transform="translate(-149.392 -87.254)" fill="none"/>
  <path id="パス_92730" data-name="パス 92730" d="M247.448,184.5a32.892,32.892,0,0,0,.375,12.332c.738,3.122,1.072,12.925.565,16.361" transform="translate(-118.29 -87.254)" fill="none"/>
  <path id="パス_92731" data-name="パス 92731" d="M302.088,246.972a21.082,21.082,0,0,1-4.7.105,54.351,54.351,0,0,1-5.674-.6A10.821,10.821,0,0,1,286.989,245a8.8,8.8,0,0,1-2.385-3.31l-1.731-3.324c-.626-1.2-2.446-.139-1.82,1.064l1.633,3.139a11.945,11.945,0,0,0,2.536,3.7,10.394,10.394,0,0,0,5.238,2.119,57.836,57.836,0,0,0,6.136.738,23.347,23.347,0,0,0,6.05-.129c1.33-.26.767-2.291-.561-2.032Z" transform="translate(-134.323 -112.492)" fill="#333"/>
  <path id="パス_92732" data-name="パス 92732" d="M248.891,139.024c-2.327,1.1-4.686,2.129-7.029,3.19-1.025.464-2.051.93-3.063,1.423a28.664,28.664,0,0,1-2.87,1.062c-1.273.443-.726,2.479.56,2.032a30.733,30.733,0,0,0,3.123-1.151c1.043-.5,2.085-.989,3.136-1.466,2.4-1.09,4.822-2.143,7.207-3.27,1.225-.58.158-2.4-1.064-1.82Z" transform="translate(-112.692 -65.684)" fill="#333"/>
  <path id="パス_92733" data-name="パス 92733" d="M257.19,246.512a49.464,49.464,0,0,0,6.05-1.247,9.709,9.709,0,0,0,4.027-2.1c2.238-2.055,3.348-5.13,4.025-8.017.309-1.317-1.722-1.882-2.032-.56-.6,2.546-1.5,5.269-3.483,7.087a7.981,7.981,0,0,1-3.485,1.67,53.077,53.077,0,0,1-5.662,1.139,1.061,1.061,0,0,0-.738,1.3,1.08,1.08,0,0,0,1.3.738Z" transform="translate(-122.462 -110.594)" fill="#333"/>
  <path id="パス_92734" data-name="パス 92734" d="M243.949,207.627c-.3,5.256-2.155,23.673-2.419,26.066" transform="translate(-115.684 -98.196)" fill="none"/>
  <path id="パス_92735" data-name="パス 92735" d="M238.5,153.3c.3,3.761,1.113,11.17,2.194,18.348.548,3.642,1.254,6.5,1.819,10.277" transform="translate(-114.251 -72.492)" fill="none"/>
  <path id="パス_92736" data-name="パス 92736" d="M314.983,206.716c.429,7.5,1.29,14.989,2.046,22.461.121,1.2.241,2.4.372,3.6a1.085,1.085,0,0,0,1.054,1.054,1.061,1.061,0,0,0,1.054-1.054c-.767-6.984-1.423-13.986-2.028-20.986-.146-1.692-.293-3.385-.39-5.08-.077-1.348-2.185-1.357-2.107,0Z" transform="translate(-150.436 -97.285)" fill="#333"/>
  <path id="パス_92737" data-name="パス 92737" d="M317.954,167.97c-.61,4.046-1.244,8.089-1.87,12.133-.263,1.712-.527,3.425-.758,5.142a25.955,25.955,0,0,0-.34,3.253,1.054,1.054,0,0,0,2.107,0,23.671,23.671,0,0,1,.3-2.986c.229-1.686.488-3.362.748-5.041.617-3.98,1.241-7.959,1.841-11.942a1.088,1.088,0,0,0-.738-1.3,1.061,1.061,0,0,0-1.3.738Z" transform="translate(-150.438 -79.068)" fill="#333"/>
  <path id="パス_92738" data-name="パス 92738" d="M240.276,464.146c-.97-1.431-.571-3.03.227-4.446a28.027,28.027,0,0,1,3.135-4.3c2.113-2.495,4.222-4.986,6.358-7.461.877-1.016-.531-2.473-1.49-1.49a5.929,5.929,0,0,0-1.626,3.944,1.975,1.975,0,0,0,.743,1.692c.1.071.154.113.019,0,.053.043.105.089.155.134a5.038,5.038,0,0,0,.506.411c1.093.74,2.652.527,3.865.288a12.544,12.544,0,0,0,3.987-1.678,42.984,42.984,0,0,0,5.253-3.947l-.465.271.112-.036h-.56l.12.041-.465-.271.1.1-.271-.465a6.233,6.233,0,0,1,.044,1.377c.021.437.048.873.072,1.31a14.589,14.589,0,0,1,.036,3.092,3.414,3.414,0,0,1-1.426,2.346c-.778.566-1.63,1.018-2.4,1.6-3.395,2.557-5.87,6.245-9.747,8.153-1.933.951-4.8,1.292-6.277-.665a1.087,1.087,0,0,0-1.442-.378,1.061,1.061,0,0,0-.378,1.441,6.34,6.34,0,0,0,5.532,2.473,11.415,11.415,0,0,0,5.77-2.329c3.211-2.3,5.532-5.644,8.9-7.751a10.585,10.585,0,0,0,2.227-1.659,5.47,5.47,0,0,0,1.3-2.787,29.285,29.285,0,0,0-.084-5.715,2.124,2.124,0,0,0-.359-1.532,1.272,1.272,0,0,0-1.478-.316,6.938,6.938,0,0,0-1.317,1.032c-.449.369-.9.733-1.364,1.085a18.269,18.269,0,0,1-4.679,2.82,7.787,7.787,0,0,1-2.6.5,4.04,4.04,0,0,1-.507-.022c.024,0-.348-.112-.233-.063.143.063-.275-.176-.109-.061.123.085-.1-.092-.133-.12-.069-.06-.137-.12-.208-.178s-.48-.427-.248-.162c-.081-.092.193.2.151.193s-.018-.094-.018-.093a3.623,3.623,0,0,1,.019-.46,3.908,3.908,0,0,1,.987-2.117l-1.49-1.49c-2.4,2.784-4.818,5.555-7.148,8.4-2.248,2.744-5.315,6.8-2.9,10.356C239.215,466.326,241.042,465.273,240.276,464.146Z" transform="translate(-113.814 -210.733)" fill="#333"/>
  <path id="パス_92739" data-name="パス 92739" d="M305.531,465.206c2.413-3.559-.652-7.613-2.9-10.356-2.333-2.845-4.746-5.616-7.149-8.4l-1.49,1.49a3.884,3.884,0,0,1,.938,1.888c.053.237,0,.527.065.749-.048-.163.053.025-.016.033.177-.021-.369-.543.263-.3-.061-.024-.353.26-.388.289-.114.095-.22.2-.335.293.048-.04.105-.027-.059.025-.037.012-.182.077.017,0a1.125,1.125,0,0,1-.19.057,6.153,6.153,0,0,1-2.134-.134,13.11,13.11,0,0,1-4.426-2.179c-.89-.615-1.744-1.28-2.582-1.964-.783-.639-1.839-1.844-2.845-.839-.66.662-.414,2.026-.46,2.9-.048.9-.105,1.794-.119,2.693a7.611,7.611,0,0,0,.572,3.267,5.277,5.277,0,0,0,1.855,2.107c.748.544,1.565.982,2.311,1.528a22.3,22.3,0,0,1,2.153,1.86c1.475,1.406,2.855,2.915,4.426,4.215a13.3,13.3,0,0,0,6.153,3.158,6.5,6.5,0,0,0,6.339-2.379,1.061,1.061,0,0,0-.378-1.441,1.08,1.08,0,0,0-1.441.378c-1.268,1.683-3.716,1.676-5.509,1a15.938,15.938,0,0,1-5.232-3.606c-1.522-1.452-2.944-3.016-4.584-4.34a26.634,26.634,0,0,0-2.471-1.723,3.885,3.885,0,0,1-1.791-1.844,9.079,9.079,0,0,1-.248-3.573c.024-.494.056-.987.082-1.482a7.7,7.7,0,0,1,.057-1.647l-.271.465.1-.1-.465.271.12-.041h-.56l.112.036-.465-.271c2.573,2.164,5.388,4.611,8.712,5.5a6.087,6.087,0,0,0,4.162-.023,5.162,5.162,0,0,0,.867-.664c.042-.035-.153.12.017,0a1.676,1.676,0,0,0,.718-1.139,5.59,5.59,0,0,0-1.572-4.519c-.958-.983-2.367.474-1.49,1.49,2.135,2.476,4.245,4.967,6.358,7.461a27.937,27.937,0,0,1,3.135,4.3c.8,1.417,1.2,3.014.228,4.446C302.948,465.268,304.773,466.323,305.531,465.206Z" transform="translate(-134.696 -210.729)" fill="#333"/>
  <path id="パス_92740" data-name="パス 92740" d="M275.023,199.025a3.507,3.507,0,0,0-.689-.249,2.257,2.257,0,0,0-1.021.032,2.529,2.529,0,0,0-1.26.772,2.634,2.634,0,0,0-.642,1.581,2.15,2.15,0,0,0,.375,1.334,3.124,3.124,0,0,0,1.038,1,3.007,3.007,0,0,0,1.379.342,2.112,2.112,0,0,0,1.543-.507,2.536,2.536,0,0,0,.733-1.237,2.819,2.819,0,0,0-1.457-3.067,1.142,1.142,0,0,0-.812-.105,1.076,1.076,0,0,0-.632.484,1.063,1.063,0,0,0-.105.812,1.024,1.024,0,0,0,.484.632,1.679,1.679,0,0,1,.333.2l-.213-.165a1.765,1.765,0,0,1,.263.267l-.164-.211a2.568,2.568,0,0,1,.313.546l-.105-.252a1.587,1.587,0,0,1,.1.374l-.037-.28a1.455,1.455,0,0,1-.007.335l.037-.28a1.688,1.688,0,0,1-.105.378l.105-.252a1.833,1.833,0,0,1-.215.369l.164-.213a1.373,1.373,0,0,1-.2.208l.213-.165a1.014,1.014,0,0,1-.165.1l.252-.105a.954.954,0,0,1-.236.06l.28-.037a2.718,2.718,0,0,1-.664-.013l.28.037a1.783,1.783,0,0,1-.4-.1l.252.105a1.709,1.709,0,0,1-.364-.214l.211.165a2.229,2.229,0,0,1-.379-.386l.164.213a1.95,1.95,0,0,1-.223-.375l.105.252a1.03,1.03,0,0,1-.07-.248l.037.28a1.638,1.638,0,0,1,0-.369l-.037.28a1.563,1.563,0,0,1,.1-.382l-.105.251a1.581,1.581,0,0,1,.17-.291l-.165.213a1.721,1.721,0,0,1,.3-.3l-.211.164a1.752,1.752,0,0,1,.338-.195l-.252.105a1.654,1.654,0,0,1,.378-.1l-.28.038a1.122,1.122,0,0,1,.249-.005l-.28-.038a1.983,1.983,0,0,1,.444.135l-.252-.105.033.014a1.157,1.157,0,0,0,.812.105,1.054,1.054,0,0,0,.738-1.3A1.013,1.013,0,0,0,275.023,199.025Z" transform="translate(-129.821 -93.988)" fill="#333"/>
  <path id="パス_92741" data-name="パス 92741" d="M280.942,189.988a23.657,23.657,0,0,1,1.358,3.926,15.423,15.423,0,0,1,.188,4.373q-.27,4.773-.7,9.536c-.169,1.844-.342,3.7-.655,5.523a1.084,1.084,0,0,0,.738,1.3,1.062,1.062,0,0,0,1.3-.738c.6-3.489.836-7.047,1.1-10.574q.168-2.262.307-4.527a20.881,20.881,0,0,0-.045-4.473,16.59,16.59,0,0,0-.79-3.022c-.141-.4-.3-.79-.457-1.18q-.11-.263-.223-.527c-.026-.063-.207-.484-.077-.175a1.089,1.089,0,0,0-1.3-.738,1.06,1.06,0,0,0-.738,1.3Z" transform="translate(-134.313 -89.222)" fill="#333"/>
  <path id="パス_92742" data-name="パス 92742" d="M297.126,139.06a22.387,22.387,0,0,1,3.746,2.719,15.951,15.951,0,0,1,1.44,1.441,4.94,4.94,0,0,1,.431.565c.053.081.1.163.147.248.118.218.017,0,.063.147l.484-1.19a36.717,36.717,0,0,0-3.04,2.075,18.144,18.144,0,0,1-1.8,1.326,1.061,1.061,0,0,0-.213,1.655,33.2,33.2,0,0,1,2.749,2.641l-.165-1.277a12.371,12.371,0,0,0-1.011,1.828c-.632,1.212-1.248,2.428-1.865,3.645-1.5,2.964-3,5.935-4.545,8.876-.632,1.2,1.187,2.266,1.82,1.064,1.549-2.941,3.041-5.912,4.545-8.876.617-1.217,1.234-2.435,1.865-3.645a12.345,12.345,0,0,1,1.011-1.828,1.059,1.059,0,0,0-.165-1.277,33.1,33.1,0,0,0-2.749-2.641l-.213,1.655a18.094,18.094,0,0,0,1.8-1.326,36.727,36.727,0,0,1,3.04-2.075,1.072,1.072,0,0,0,.484-1.19,8.068,8.068,0,0,0-2.48-3.2,24.922,24.922,0,0,0-4.315-3.178A1.054,1.054,0,0,0,297.126,139.06Z" transform="translate(-140.232 -64.824)" fill="#333"/>
  <path id="パス_92743" data-name="パス 92743" d="M256.317,137.589a35.791,35.791,0,0,0-4.184,2.955c-1.054.854-2.413,1.9-2.845,3.243a1.082,1.082,0,0,0,.484,1.19c1.577,1.142,3.319,2.276,4.8,3.434v-1.491a36.394,36.394,0,0,0-2.857,2.547,1.1,1.1,0,0,0,0,1.49c-.311-.4.091.137.181.263q.316.449.63.9.963,1.382,1.919,2.767c1.615,2.33,3.231,4.659,4.874,6.969.747,1.051,1.5,2.1,2.277,3.128a1.088,1.088,0,0,0,1.442.378,1.061,1.061,0,0,0,.378-1.441c-3.128-4.125-6-8.45-8.957-12.7-.41-.59-.81-1.191-1.254-1.756v1.487a36.556,36.556,0,0,1,2.857-2.547,1.059,1.059,0,0,0,0-1.491c-1.69-1.322-3.489-2.5-5.227-3.763l.484,1.19q.053-.158-.018.03c.027-.053.057-.109.09-.161.061-.086.113-.176.177-.26s.365-.405.527-.565a19.8,19.8,0,0,1,1.669-1.468,32.2,32.2,0,0,1,3.62-2.515,1.054,1.054,0,0,0-1.064-1.819Z" transform="translate(-119.339 -64.984)" fill="#333"/>
  <path id="パス_92744" data-name="パス 92744" d="M262.243,138.809a94.691,94.691,0,0,0,3.291,9.891c1.537,4.2,3.139,8.383,4.751,12.558q1.038,2.687,2.079,5.374a1.084,1.084,0,0,0,1.3.738,1.062,1.062,0,0,0,.738-1.3c-2.937-7.631-5.976-15.233-8.621-22.971-.547-1.6-1.1-3.21-1.5-4.854-.322-1.317-2.355-.759-2.032.56Z" transform="translate(-125.469 -65.015)" fill="#333"/>
  <path id="パス_92745" data-name="パス 92745" d="M291.491,137.875a82.967,82.967,0,0,1-2.921,10.5q-2.028,6.379-4.268,12.689c-.566,1.6-1.136,3.208-1.739,4.8a1.063,1.063,0,0,0,.738,1.3,1.077,1.077,0,0,0,1.3-.738c2.84-7.49,5.419-15.134,7.64-22.83a50.542,50.542,0,0,0,1.291-5.158,1.084,1.084,0,0,0-.738-1.3,1.063,1.063,0,0,0-1.3.738Z" transform="translate(-135.081 -64.828)" fill="#333"/>
  <path id="パス_92746" data-name="パス 92746" d="M230.648,210.557a61.961,61.961,0,0,0-1.014,6.252q-.506,3.831-.866,7.679c-.09.971-.174,1.943-.229,2.917a5.115,5.115,0,0,0,.474,2.991c1.355,2.295,4.339,1.957,6.616,1.986,1.3.016,2.6.028,3.9.042a9.413,9.413,0,0,0,3.185-.239,3.381,3.381,0,0,0,2.3-3.253c.025-.621,0-1.248-.016-1.869-.119-4.625-.463-9.25-.843-13.859-.232-2.812-.493-5.623-.818-8.427-.248-2.141-.5-4.3-.951-6.407-.286-1.325-2.318-.764-2.032.561a97.11,97.11,0,0,1,1.478,11.785c.421,4.651.762,9.312.972,13.977a27.749,27.749,0,0,1,.093,4.437c-.123,1.032-1.076,1.2-1.964,1.2-.977,0-1.956-.022-2.933-.032-1.234-.013-2.468-.025-3.7-.045a7.309,7.309,0,0,1-2.625-.244c-.922-.381-1.083-1.167-1.05-2.077.031-.829.1-1.657.169-2.484.222-2.616.515-5.228.847-7.833a61.869,61.869,0,0,1,1.043-6.5c.316-1.317-1.718-1.881-2.032-.561Z" transform="translate(-109.513 -93.457)" fill="#333"/>
  <path id="パス_92747" data-name="パス 92747" d="M240.287,185.161a3.183,3.183,0,0,1-2.013,1.264,2.885,2.885,0,0,1-2.209-.329,5.156,5.156,0,0,1-1.521-2.026,4.741,4.741,0,0,1,.128-3.146,19.4,19.4,0,0,1,2.147-5.332A6.07,6.07,0,0,1,241.457,173a9.206,9.206,0,0,1,2.424-.033c1.078.184,1.224,1.106.608,1.906-.5.652.185,1.594.91,1.585.377,0,.706.008.843.383.084.229.058.958-.233,1.08a1.065,1.065,0,0,0,0,2.032c-.122-.048.08.131.122.232a.649.649,0,0,1,.047.356c-.02.2-.171.675-.383.74a1.063,1.063,0,0,0,0,2.032c-.228-.08-.058-.105-.12.127a1.224,1.224,0,0,1-.135.444c-.279.394-.945.47-1.383.527a13.1,13.1,0,0,0-3.172.429,1.086,1.086,0,0,0-.738,1.3,1.061,1.061,0,0,0,1.3.738c1.594-.642,3.484-.028,4.983-1.066,1.528-1.058,1.844-3.817-.173-4.527v2.032a2.93,2.93,0,0,0,.214-5.392v2.032a3.032,3.032,0,0,0,1.739-3.507,2.732,2.732,0,0,0-2.911-2.095l.91,1.586a3.124,3.124,0,0,0,0-3.9,3.833,3.833,0,0,0-3.128-1.216,10.062,10.062,0,0,0-6.813,2.063c-1.98,1.736-2.735,4.407-3.512,6.817a8.058,8.058,0,0,0-.482,4.46,7.046,7.046,0,0,0,2.046,3.276c2.055,1.941,5.666,1.333,7.361-.786a1.086,1.086,0,0,0,0-1.491,1.062,1.062,0,0,0-1.49,0Z" transform="translate(-111.278 -80.783)" fill="#333"/>
  <path id="パス_92748" data-name="パス 92748" d="M252.59,177.514a19.706,19.706,0,0,0-2.107.07,8.665,8.665,0,0,0-2.284.39,1.14,1.14,0,0,0-.63.484,1.054,1.054,0,0,0,1.19,1.548,4.857,4.857,0,0,1,.885-.219,2.542,2.542,0,0,1,.267-.041c-.062,0-.263.034-.087.012l.141-.017q.288-.033.577-.055a19.735,19.735,0,0,1,2.051-.065,1.064,1.064,0,0,0,1.054-1.054,1.075,1.075,0,0,0-1.054-1.054Z" transform="translate(-118.473 -83.947)" fill="#333"/>
  <path id="パス_92749" data-name="パス 92749" d="M253.508,184.336a15.1,15.1,0,0,0-2.3-.024,8.909,8.909,0,0,0-2.328.384,1.054,1.054,0,0,0,.56,2.032,5.644,5.644,0,0,1,.931-.224l.124-.02c.145-.023-.048.007-.089.011.1-.009.2-.024.295-.034q.287-.029.575-.046a15.174,15.174,0,0,1,2.232.028,1.057,1.057,0,0,0,1.054-1.054,1.081,1.081,0,0,0-1.054-1.054Z" transform="translate(-118.795 -87.15)" fill="#333"/>
  <path id="パス_92750" data-name="パス 92750" d="M253.772,190.319c-.58.02-1.159.032-1.739.079a7.935,7.935,0,0,0-1.912.325,1.054,1.054,0,1,0,.561,2.032,5.517,5.517,0,0,1,1.044-.227l-.28.037c.77-.1,1.547-.113,2.323-.14a1.054,1.054,0,0,0,0-2.107Z" transform="translate(-119.383 -90.007)" fill="#333"/>
  <path id="パス_92751" data-name="パス 92751" d="M227.687,149.181a9.69,9.69,0,0,0-4.968,3.552,18.05,18.05,0,0,0-2.476,5.823c-.552,2.146-.974,4.326-1.528,6.474-.548,2.123-1.124,4.239-1.641,6.37-.555,2.292-1.037,4.6-1.4,6.932a15.213,15.213,0,0,0,.232,6.874,5.442,5.442,0,0,0,4.408,4.057,5.966,5.966,0,0,0,3.155-.252,17.125,17.125,0,0,0,3-1.627,21.781,21.781,0,0,0,5.458-5.269c.624-.847,1.633-2,1.235-3.122-.407-1.15-1.709-1.646-2.573-2.378-1.029-.871-2.529.612-1.49,1.491a12.257,12.257,0,0,0,1.027.769c.078.053,1.019.848,1.058.839-.105.022.222-.521-.063-.2a4.3,4.3,0,0,0-.34.552,15.71,15.71,0,0,1-.948,1.341,19.31,19.31,0,0,1-4.153,3.969c-1.455,1-3.1,2.119-4.943,1.833-1.982-.307-2.725-1.862-3.072-3.674a16.361,16.361,0,0,1,.246-5.878c.345-1.986.772-3.956,1.251-5.914.907-3.713,1.974-7.386,2.783-11.122a22.46,22.46,0,0,1,2.043-5.9,7.3,7.3,0,0,1,4.263-3.508c1.291-.4.738-2.437-.56-2.032Z" transform="translate(-103.318 -70.517)" fill="#333"/>
  <path id="パス_92752" data-name="パス 92752" d="M241.268,160.69a30.406,30.406,0,0,0-.1-4.336q-.122-3.3-.284-6.589c-.033-.658-.067-1.317-.118-1.973a2.865,2.865,0,0,0-.025-.485c-.041-.032-.349.166-.146.123a3.1,3.1,0,0,0,.454-.233,5.073,5.073,0,0,1,.685-.228c-.016,0,.31-.075.282-.071a2.288,2.288,0,0,1,.263-.014q.211,0,.068.007c-.059.105-.32-.668-.3-.273a4.174,4.174,0,0,0,.083.419c.045.286.07.575.1.862.039.416.067.833.089,1.251.059,1.156.086,2.318.111,3.474.053,2.365.007,4.746.158,7.107.086,1.347,2.194,1.357,2.107,0-.147-2.28-.105-4.579-.153-6.862-.027-1.278-.053-2.557-.123-3.834q-.039-.722-.113-1.442a4.348,4.348,0,0,0-.513-2.144c-.9-1.193-2.753-.561-3.854-.053a2,2,0,0,0-1.256,1.463,5.848,5.848,0,0,0,.016,1.461c.133,2.126.214,4.256.3,6.385.053,1.308.1,2.617.141,3.926a15.218,15.218,0,0,1,.023,2.055,1.061,1.061,0,0,0,1.054,1.054,1.078,1.078,0,0,0,1.054-1.054Z" transform="translate(-114.317 -68.456)" fill="#333"/>
  <path id="パス_92753" data-name="パス 92753" d="M241.268,160.69a30.406,30.406,0,0,0-.1-4.336q-.122-3.3-.284-6.589c-.033-.658-.067-1.317-.118-1.973a2.865,2.865,0,0,0-.025-.485c-.041-.032-.349.166-.146.123a3.1,3.1,0,0,0,.454-.233,5.073,5.073,0,0,1,.685-.228c-.016,0,.31-.075.282-.071a2.288,2.288,0,0,1,.263-.014q.211,0,.068.007c-.059.105-.32-.668-.3-.273a4.174,4.174,0,0,0,.083.419c.045.286.07.575.1.862.039.416.067.833.089,1.251.059,1.156.086,2.318.111,3.474.053,2.365.007,4.746.158,7.107.086,1.347,2.194,1.357,2.107,0-.147-2.28-.105-4.579-.153-6.862-.027-1.278-.053-2.557-.123-3.834q-.039-.722-.113-1.442a4.348,4.348,0,0,0-.513-2.144c-.9-1.193-2.753-.561-3.854-.053a2,2,0,0,0-1.256,1.463,5.848,5.848,0,0,0,.016,1.461c.133,2.126.214,4.256.3,6.385.053,1.308.1,2.617.141,3.926a15.218,15.218,0,0,1,.023,2.055,1.061,1.061,0,0,0,1.054,1.054,1.078,1.078,0,0,0,1.054-1.054Z" transform="translate(-114.317 -68.456)" fill="#333"/>
  <path id="パス_92754" data-name="パス 92754" d="M331.442,133.894a7.892,7.892,0,0,1,.882-2.968c.446-.945.824-1.905,1.225-2.868a14.353,14.353,0,0,0,1.116-3.13,5.753,5.753,0,0,0-.527-3.355,18.061,18.061,0,0,0-1.837-2.922,16.859,16.859,0,0,0-2.242-2.967,3.289,3.289,0,0,0-2.985-.85,2.548,2.548,0,0,0-1.739,2.607l1.8-.746a2.717,2.717,0,0,0-3.335-.275,3.013,3.013,0,0,0-1.092,3.307l1.548-1.19a2.73,2.73,0,0,0-4.182,3.039l1.3-1.3a2.2,2.2,0,0,0-2.132.583,2.649,2.649,0,0,0-.694,2.171,4.89,4.89,0,0,0,1.017,2.117,2.35,2.35,0,0,1,.653,1.94c-.175.7-.6,1.317-.79,2.016a4.162,4.162,0,0,0,.019,2.361,9.831,9.831,0,0,0,1.187,2.092,5.544,5.544,0,0,1,1.006,1.825c.276,1.327,2.308.766,2.032-.56a3.793,3.793,0,0,0-.724-1.614c-.372-.48-.656-1.016-1-1.513a2.39,2.39,0,0,1-.57-1.556,5.165,5.165,0,0,1,.574-1.679,3.951,3.951,0,0,0-.094-3.655c-.312-.575-.787-1.054-1.075-1.644-.063-.128-.307-.911.038-.852a1.067,1.067,0,0,0,1.3-1.3.606.606,0,0,1,.152-.711c.325-.316.583-.162.934.053a1.066,1.066,0,0,0,1.548-1.19c-.056-.263-.1-.721.124-.927a.637.637,0,0,1,.781-.053,1.065,1.065,0,0,0,1.8-.745c-.049-.809.64-.643,1.125-.267a9.69,9.69,0,0,1,1.625,2.136c.987,1.391,2.533,3.077,2.445,4.9a7.178,7.178,0,0,1-.706,2.306c-.336.806-.64,1.633-1,2.429a13.668,13.668,0,0,0-1.6,4.949c-.07,1.355,2.037,1.351,2.107,0Z" transform="translate(-152.111 -54.257)" fill="#333"/>
  <path id="パス_92755" data-name="パス 92755" d="M336.516,122.795a31.44,31.44,0,0,0-2.022-2.887,14.147,14.147,0,0,0-1.042-1.341,5.5,5.5,0,0,0-1.277-1,1.054,1.054,0,0,0-1.064,1.82,3.273,3.273,0,0,1,.282.172c.039.026.077.053.116.082.2.138-.116-.1-.011-.009.165.145.333.284.485.443.033.035.064.072.1.105.145.149-.071-.065-.057-.082a3.819,3.819,0,0,0,.263.353q.244.327.492.651a29.757,29.757,0,0,1,1.918,2.751,1.054,1.054,0,0,0,1.82-1.064Z" transform="translate(-157.821 -55.519)" fill="#333"/>
  <path id="パス_92756" data-name="パス 92756" d="M331.233,125.862a18.456,18.456,0,0,0-2.9-3.866,1.054,1.054,0,0,0-1.491,1.49q.4.4.759.821.184.215.36.437c.027.035.053.07.083.105.087.105-.125-.165-.042-.053.061.081.121.158.181.241a19.691,19.691,0,0,1,1.229,1.888,1.054,1.054,0,0,0,1.82-1.064Z" transform="translate(-155.904 -57.535)" fill="#333"/>
  <path id="パス_92757" data-name="パス 92757" d="M326.26,128.767a12.935,12.935,0,0,0-2.45-3.021,1.135,1.135,0,0,0-.745-.309,1.054,1.054,0,0,0-1.054,1.054,1.028,1.028,0,0,0,.309.746,8.12,8.12,0,0,1,1.261,1.329l-.165-.213c.365.474.7.977,1.025,1.478a1.116,1.116,0,0,0,.632.484,1.054,1.054,0,0,0,1.19-1.548Z" transform="translate(-153.762 -59.31)" fill="#333"/>
  <path id="パス_92758" data-name="パス 92758" d="M322.857,120.775c-.049-.08-.1-.158-.141-.242-.014-.027-.12-.247-.056-.105s-.021-.065-.029-.095a1.222,1.222,0,0,0-.053-.211l.019.143a1.258,1.258,0,0,1-.006-.134c0-.042-.008-.238,0-.057s.009-.016.022-.067a1.083,1.083,0,0,0,.062-.2c.009.068-.1.2-.008.033.026-.05.057-.1.086-.145.105-.183-.155.144,0,0,.042-.038.084-.079.123-.119.084-.085-.18.112-.016.015.071-.042.14-.085.211-.126q.2-.113.409-.211a1.158,1.158,0,0,1,.185-.086c-.243.064-.007,0,.045-.016q.184-.071.372-.131a8.222,8.222,0,0,1,.832-.217c.129-.027.259-.053.388-.073l.237-.037c.047-.007.316-.061.041-.007.3-.058.618-.071.922-.1a1.077,1.077,0,0,0,1.054-1.054,1.065,1.065,0,0,0-1.054-1.054,11.244,11.244,0,0,0-4.385,1.106,2.968,2.968,0,0,0-1.523,1.8,3.023,3.023,0,0,0,.441,2.462,1.054,1.054,0,1,0,1.819-1.064Z" transform="translate(-153.049 -55.07)" fill="#333"/>
  <path id="パス_92759" data-name="パス 92759" d="M325.025,155.031c-.281-1.236-.359-2.514-.584-3.761l-.738,1.3c3.155-.558,6.257-.89,9.422-1.273l-1.016-.773c.272,1.194.5,2.4.786,3.589.314,1.317,2.346.76,2.032-.561-.283-1.192-.514-2.395-.786-3.588a1.054,1.054,0,0,0-1.016-.774c-1.964.238-3.925.507-5.885.774-1.364.186-2.74.335-4.1.574a1.074,1.074,0,0,0-.738,1.3c.224,1.246.3,2.525.583,3.76.3,1.322,2.333.762,2.033-.56Z" transform="translate(-153.933 -70.546)" fill="#333"/>
  <path id="パス_92760" data-name="パス 92760" d="M317.4,176.351a17.526,17.526,0,0,0,7.138,5.329,12.044,12.044,0,0,0,7.822.239c2.836-.809,4.447-3.754,4.484-6.572a32.9,32.9,0,0,0-.448-4.733c-.2-1.522-.449-3.038-.754-4.543-.635-3.133-1.539-6.2-2.467-9.253a1.067,1.067,0,0,0-1.016-.773c-3.877.389-7.724,1.054-11.575,1.64a1.048,1.048,0,0,0-.773,1.016c.407,3.759.772,7.562,1.492,11.275.258,1.33,2.29.767,2.032-.56-.685-3.53-1.029-7.143-1.417-10.715l-.774,1.016c3.664-.56,7.323-1.194,11.015-1.564l-1.016-.774a83.977,83.977,0,0,1,3.436,15.648,9.79,9.79,0,0,1-.072,3.881,4.646,4.646,0,0,1-1.89,2.63,7.394,7.394,0,0,1-3.284.838,9.77,9.77,0,0,1-3.338-.421,15.1,15.1,0,0,1-7.1-5.1c-.862-1.048-2.345.45-1.49,1.49Z" transform="translate(-151.461 -73.792)" fill="#333"/>
  <path id="パス_92761" data-name="パス 92761" d="M276.985,114.55a6.265,6.265,0,0,0,3.017.7,4.975,4.975,0,0,0,3.105-.942,1.054,1.054,0,0,0,.309-.746,1.073,1.073,0,0,0-.309-.745,1.086,1.086,0,0,0-1.49,0c.365-.284-.006-.011-.122.05-.089.046-.325.121.009.006-.082.028-.161.062-.244.089-.222.072-.465.084-.685.158.111-.037.176-.021.017-.005-.067.006-.134.012-.2.016-.161.011-.323.015-.485.014-.145,0-.29-.006-.434-.016-.066,0-.133-.009-.2-.016l-.113-.013.1.013c0,.012-.58-.124-.638-.141-.089-.027-.176-.059-.263-.089-.234-.081.224.105.012.007-.11-.053-.217-.105-.324-.162a1.054,1.054,0,0,0-1.064,1.82Z" transform="translate(-132.211 -53.201)" fill="#333"/>
  <path id="パス_92762" data-name="パス 92762" d="M281.44,102.029a13.439,13.439,0,0,1,.316,1.445l-.038-.28a.878.878,0,0,1,.005.2l.038-.28a.471.471,0,0,1-.022.09l.105-.252a.381.381,0,0,1-.032.058l.165-.213a.332.332,0,0,1-.047.047l.213-.165a1.082,1.082,0,0,1-.114.061l.251-.105a.818.818,0,0,1-.193.056l.28-.038a.773.773,0,0,1-.181,0l.28.037c-.068-.009-.135-.026-.2-.035a.8.8,0,0,0-.421-.018.786.786,0,0,0-.392.125,1.054,1.054,0,0,0-.378,1.441l.165.213a1.049,1.049,0,0,0,.465.271c.183.025.361.071.547.079a1.8,1.8,0,0,0,.843-.205,1.283,1.283,0,0,0,.691-.838,1.967,1.967,0,0,0-.007-.867c-.078-.466-.186-.927-.306-1.384a1.053,1.053,0,0,0-1.926-.253,1.106,1.106,0,0,0-.105.812Z" transform="translate(-134.325 -47.603)" fill="#333"/>
  <path id="パス_92763" data-name="パス 92763" d="M267.883,94.242c-.241.785-.084,2.588,1.4,2.74,1.964-.012,2.068-2.193,1.407-3.218A1.556,1.556,0,0,0,267.883,94.242Z" transform="translate(-128.109 -43.992)" fill="#333"/>
  <path id="パス_92764" data-name="パス 92764" d="M294.959,94.242c.242.785.084,2.589-1.4,2.74-1.964-.012-2.068-2.193-1.407-3.218A1.555,1.555,0,0,1,294.959,94.242Z" transform="translate(-139.462 -43.992)" fill="#333"/>
  <path id="パス_92765" data-name="パス 92765" d="M115.862,26.029c-3.226-6.36-11.765-6.946-17.935-5.734a9.6,9.6,0,0,0-4.4,1.875c-1.04.874.458,2.358,1.491,1.491A7.707,7.707,0,0,1,98.1,22.407a21.751,21.751,0,0,1,4.3-.456,15.789,15.789,0,0,1,7.64,1.321,8.975,8.975,0,0,1,4,3.82c.613,1.212,2.433.144,1.82-1.063Z" transform="translate(-45.494 -9.321)" fill="#333"/>
  <path id="パス_92766" data-name="パス 92766" d="M127.673,112.072a3.69,3.69,0,0,0-.067-.488l.037.28a19.094,19.094,0,0,1-.1-2.621,1.054,1.054,0,1,0-2.107,0,18.919,18.919,0,0,0,.164,3.1l-.038-.28v.005a1.054,1.054,0,1,0,2.107,0Z" transform="translate(-60.754 -51.149)" fill="#333"/>
  <path id="パス_92767" data-name="パス 92767" d="M95.244,108.941a20.109,20.109,0,0,1-.1,2.771l.037-.28c-.013.09-.026.179-.041.269a1.144,1.144,0,0,0,.105.812,1.054,1.054,0,0,0,1.442.378,1.027,1.027,0,0,0,.484-.632,19.158,19.158,0,0,0,.18-3.319,1.054,1.054,0,1,0-2.107,0Z" transform="translate(-46.407 -51.005)" fill="#333"/>
  <path id="パス_92768" data-name="パス 92768" d="M132.164,86.679a8.887,8.887,0,0,1-.533,2.43c-.038.114-.077.228-.116.342-.006.017-.119.316-.045.132s-.053.109-.065.138c-.036.075-.072.15-.11.225a19.831,19.831,0,0,1-1.713,2.754c-1.519,2.087-3.56,4.272-6.112,5.013a1.055,1.055,0,0,0,.56,2.032c3.071-.89,5.443-3.362,7.287-5.863a13.258,13.258,0,0,0,2.956-7.2c.056-1.356-2.052-1.354-2.107,0Z" transform="translate(-59.475 -40.491)" fill="#333"/>
  <path id="パス_92769" data-name="パス 92769" d="M80.855,82.95a20.867,20.867,0,0,0,2.886,8.836c1.979,3.08,5.118,5.836,8.832,6.418a1.087,1.087,0,0,0,1.3-.738,1.062,1.062,0,0,0-.738-1.3c-3.267-.513-5.984-2.891-7.692-5.637a19.015,19.015,0,0,1-2.48-7.587,1.087,1.087,0,0,0-1.054-1.054,1.059,1.059,0,0,0-1.054,1.054Z" transform="translate(-39.662 -38.707)" fill="#333"/>
  <path id="パス_92770" data-name="パス 92770" d="M124.9,46.913a7.353,7.353,0,0,1,2.74,1.739,15.4,15.4,0,0,1,2.574,2.92,14.092,14.092,0,0,1,1.818,3.854,23.942,23.942,0,0,1,.681,4.052,1.086,1.086,0,0,0,1.054,1.054,1.061,1.061,0,0,0,1.054-1.054,27.151,27.151,0,0,0-.757-4.612,16.048,16.048,0,0,0-2.16-4.548,17.586,17.586,0,0,0-2.931-3.3,9.462,9.462,0,0,0-3.511-2.142,1.055,1.055,0,0,0-.56,2.032Z" transform="translate(-60.15 -21.174)" fill="#333"/>
  <path id="パス_92771" data-name="パス 92771" d="M143.817,70.865a1.324,1.324,0,0,1,1.935.316,3.1,3.1,0,0,1,.228,1.388,8.193,8.193,0,0,1-.119,1.649,8.674,8.674,0,0,1-1.159,3.067c-.4.632-1.065,1.545-1.871,1.33a1.055,1.055,0,0,0-.561,2.032c1.748.466,3.116-.664,4.069-2.023a10.327,10.327,0,0,0,1.675-4.65c.188-1.539.192-3.5-1.054-4.618a3.51,3.51,0,0,0-4.63.02,1.062,1.062,0,0,0,0,1.491,1.076,1.076,0,0,0,1.49,0Z" transform="translate(-68.368 -32.368)" fill="#333"/>
  <path id="パス_92772" data-name="パス 92772" d="M78.277,69.373a3.512,3.512,0,0,0-4.63-.019c-1.279,1.148-1.242,3.169-1.04,4.737a10.165,10.165,0,0,0,1.756,4.665c.984,1.349,2.454,2.5,4.209,2.117,1.324-.292.763-2.324-.56-2.032-.8.175-1.633-.843-2.019-1.42A8.53,8.53,0,0,1,74.758,74.3a8.145,8.145,0,0,1-.137-1.624,3.26,3.26,0,0,1,.23-1.5,1.323,1.323,0,0,1,1.935-.316,1.083,1.083,0,0,0,1.49,0,1.062,1.062,0,0,0,0-1.491Z" transform="translate(-35.711 -32.367)" fill="#333"/>
  <path id="パス_92773" data-name="パス 92773" d="M81.378,27.8c-3.838,1.8-6.28,5.872-7.278,9.864A25.149,25.149,0,0,0,73.4,44a18.2,18.2,0,0,0,.952,6.068c.465,1.261,2.5.716,2.032-.561a19.915,19.915,0,0,1-.293-11.1c.855-3.578,2.916-7.172,6.353-8.787,1.227-.576.158-2.394-1.063-1.82Z" transform="translate(-36.133 -13.062)" fill="#333"/>
  <path id="パス_92774" data-name="パス 92774" d="M137.418,36.489c2.479,1.4,3.917,4.115,4.584,6.808a19.317,19.317,0,0,1-.125,9.631,1.055,1.055,0,0,0,2.032.561,21.48,21.48,0,0,0,.079-10.932,12.516,12.516,0,0,0-5.506-7.888A1.055,1.055,0,0,0,137.418,36.489Z" transform="translate(-66.182 -16.296)" fill="#333"/>
  <path id="パス_92775" data-name="パス 92775" d="M94.492,53.794c-4.759.059-8.187,4.93-8.752,9.279a1.059,1.059,0,0,0,1.054,1.054,1.081,1.081,0,0,0,1.054-1.054c-.021.158.026-.151.032-.18.021-.116.044-.232.07-.347.053-.234.113-.467.182-.7a8.7,8.7,0,0,1,.424-1.132,10.447,10.447,0,0,1,1.532-2.408,5.813,5.813,0,0,1,4.4-2.407A1.054,1.054,0,0,0,94.492,53.794Z" transform="translate(-41.975 -25.413)" fill="#333"/>
  <path id="パス_92776" data-name="パス 92776" d="M117.289,44.071a4.675,4.675,0,0,0-2.646,1.191c-.655.56-1.164,1.282-1.787,1.878a6.4,6.4,0,0,1-4.789,2.028,1.054,1.054,0,0,0,0,2.107,8.131,8.131,0,0,0,5.569-2.017,15.964,15.964,0,0,0,1.941-1.945,2.916,2.916,0,0,1,1.713-1.135,1.082,1.082,0,0,0,1.054-1.054A1.062,1.062,0,0,0,117.289,44.071Z" transform="translate(-52.039 -20.812)" fill="#333"/>
  <path id="パス_92777" data-name="パス 92777" d="M124.551,445.921c-.079-1.035-.123-2.072-.174-3.109a1.054,1.054,0,1,0-2.107,0c.053,1.036.095,2.073.174,3.109a1.126,1.126,0,0,0,.309.745,1.054,1.054,0,0,0,1.8-.745Z" transform="translate(-59.258 -208.972)" fill="#333"/>
  <path id="パス_92778" data-name="パス 92778" d="M141.6,442.791c.074.9.153,1.788.249,2.68a7.581,7.581,0,0,0,.191,1.191,2.408,2.408,0,0,0,.717,1.179,1.054,1.054,0,1,0,1.49-1.491c-.048-.044-.134-.166-.193-.19.105.147.132.18.077.1a.839.839,0,0,1-.043-.076c-.082-.14.1.279.015.022-.023-.071-.042-.142-.058-.214-.036-.153-.053-.309-.084-.464.069.346.012.08,0,0s-.015-.138-.022-.207c-.082-.843-.163-1.686-.233-2.529a1.054,1.054,0,1,0-2.107,0Z" transform="translate(-68.402 -208.961)" fill="#333"/>
  <path id="パス_92779" data-name="パス 92779" d="M102.9,442.813c-.053,1.051-.095,2.1-.179,3.151a1.054,1.054,0,0,0,2.107,0c.084-1.049.129-2.1.179-3.151a1.061,1.061,0,0,0-1.054-1.054A1.076,1.076,0,0,0,102.9,442.813Z" transform="translate(-50.007 -208.972)" fill="#333"/>
  <path id="パス_92780" data-name="パス 92780" d="M83.979,447.815a2.409,2.409,0,0,0,.681-1.147,7.661,7.661,0,0,0,.194-1.218c.093-.881.173-1.765.251-2.648a1.057,1.057,0,0,0-1.054-1.054A1.081,1.081,0,0,0,83,442.8c-.074.833-.155,1.665-.236,2.5-.013.133-.032.263-.044.4.031-.357.009-.07,0,.012s-.027.155-.044.231-.034.147-.056.219c-.01.034-.021.068-.032.1-.038.105-.021.065.053-.113a.716.716,0,0,0-.086.152q.168-.211.049-.078c-.035.035-.07.069-.105.1a1.064,1.064,0,0,0,0,1.49,1.075,1.075,0,0,0,1.49,0Z" transform="translate(-40.293 -208.967)" fill="#333"/>
  <path id="パス_92781" data-name="パス 92781" d="M128.411,464.854a13.028,13.028,0,0,0,6.855,3.381c2.5.407,5.42.3,7.615-1.112a5.182,5.182,0,0,0,2.2-6.322c-.948-2.4-3.132-4.087-4.923-5.845a84.481,84.481,0,0,1-6.391-6.811,1.069,1.069,0,0,0-1.655.211c-1.739,2.293-5.039,1.791-7.3.716-.7-.335-1.382-.721-2.051-1.121a5.62,5.62,0,0,0-1.647-.858,1.957,1.957,0,0,0-2.107,1.3,13.023,13.023,0,0,0-.837,4.81,12.835,12.835,0,0,0,.169,3.938,5.1,5.1,0,0,0,2.454,2.972,26.28,26.28,0,0,0,4,1.817,12.942,12.942,0,0,1,3.617,2.92c.982.936,2.476-.552,1.491-1.49a23.807,23.807,0,0,0-3.008-2.672,25.7,25.7,0,0,0-3.473-1.537c-.948-.455-2.294-1.033-2.826-2a6.571,6.571,0,0,1-.337-3.425,13.548,13.548,0,0,1,.6-4.32,1.384,1.384,0,0,1,.158-.3c.058-.094-.042-.007.014-.018a2.415,2.415,0,0,1-.263.071c-.164.015-.068.03-.146-.046a4.967,4.967,0,0,0,.882.535,19.305,19.305,0,0,0,4.225,2.03,7.328,7.328,0,0,0,8.206-2.26l-1.655.213c1.482,1.817,3.091,3.521,4.745,5.181s3.471,3.21,5.005,4.976c1.238,1.425,1.934,3.432.46,4.953-1.493,1.542-4.035,1.717-6.049,1.533a11.012,11.012,0,0,1-6.537-2.915C128.912,462.437,127.419,463.924,128.411,464.854Z" transform="translate(-57.282 -211.479)" fill="#333"/>
  <path id="パス_92782" data-name="パス 92782" d="M75.005,463.37a11.06,11.06,0,0,1-5.7,2.8c-2.023.366-4.562.283-6.308-.926a3.246,3.246,0,0,1-1.43-2.156,4.008,4.008,0,0,1,.834-2.666,16.036,16.036,0,0,1,2.189-2.354c.869-.853,1.742-1.7,2.606-2.56a75.818,75.818,0,0,0,5.436-5.869l-1.655-.213a7.1,7.1,0,0,0,7.121,2.529,13.987,13.987,0,0,0,4.3-1.7c.61-.344,1.191-.749,1.807-1.08.2-.105-.116-.044.071-.027-.094-.008-.169.022-.274.009-.348-.043.053.012-.105-.053-.015-.006-.062-.083,0,.016a2.3,2.3,0,0,1,.3.743,10.2,10.2,0,0,1,.267,1.317c.077.546.132,1.284.158,1.914a12.565,12.565,0,0,1-.045,3.322c-.27,1.178-1.206,1.731-2.2,2.287-1.239.691-2.634,1-3.861,1.689a18.3,18.3,0,0,0-3.505,2.978c-.983.938.508,2.427,1.49,1.49a16.252,16.252,0,0,1,3.079-2.649,12.568,12.568,0,0,1,1.694-.676,17.179,17.179,0,0,0,1.992-.917,6.557,6.557,0,0,0,2.953-2.549,8.067,8.067,0,0,0,.561-3.972,19.126,19.126,0,0,0-.616-5.026,2.666,2.666,0,0,0-1.6-1.949,1.844,1.844,0,0,0-1.337.183c-.718.371-1.386.851-2.1,1.241-2.443,1.345-6.287,2.524-8.335-.18a1.066,1.066,0,0,0-1.655-.211,77.055,77.055,0,0,1-5.609,6.041c-.981.97-1.97,1.93-2.95,2.9a12.367,12.367,0,0,0-2.38,2.9,5.2,5.2,0,0,0,1.1,6.6c1.953,1.657,4.8,2.04,7.279,1.791a13.359,13.359,0,0,0,7.916-3.522C77.487,463.931,75.995,462.443,75.005,463.37Z" transform="translate(-29.556 -211.485)" fill="#333"/>
  <path id="パス_92783" data-name="パス 92783" d="M101.3,135.1h-.005" transform="translate(-49.332 -63.881)" fill="none"/>
  <path id="パス_92784" data-name="パス 92784" d="M67.7,270.418q1.2,16.289,2.036,32.6c.584,11.675.984,23.357,1.457,35.037.312,7.7.664,15.4.929,23.1.046,1.352,2.154,1.359,2.107,0-.448-12.986-1.007-25.968-1.525-38.95-.441-11.053-.945-22.106-1.633-33.147q-.58-9.321-1.264-18.64C69.705,269.073,67.6,269.063,67.7,270.418Z" transform="translate(-33.436 -127.426)" fill="#333"/>
  <path id="パス_92785" data-name="パス 92785" d="M152.841,270.418q-1.2,16.289-2.036,32.6c-.583,11.675-.984,23.357-1.457,35.037-.312,7.7-.664,15.4-.929,23.1-.046,1.357,2.061,1.355,2.107,0,.447-12.985,1.006-25.968,1.524-38.95.441-11.053.945-22.106,1.633-33.147q.58-9.321,1.264-18.64c.1-1.353-2.008-1.347-2.107,0Z" transform="translate(-71.63 -127.426)" fill="#333"/>
  <path id="パス_92786" data-name="パス 92786" d="M107.364,137.154c1.518,0,3.035-.034,4.553-.034a1.054,1.054,0,1,0,0-2.107c-1.518,0-3.035.033-4.553.034a1.054,1.054,0,1,0,0,2.107Z" transform="translate(-51.707 -63.84)" fill="#333"/>
  <path id="パス_92787" data-name="パス 92787" d="M104.088,130.088c.139.7.287,1.393.452,2.085a3.945,3.945,0,0,1,.19,1.139c-.039.685-.155,1.37-.236,2.049q-.505,4.252-1.029,8.5a1.06,1.06,0,0,0,1.054,1.054,1.079,1.079,0,0,0,1.054-1.054q.527-4.331,1.048-8.664c.075-.638.191-1.287.221-1.929a5.638,5.638,0,0,0-.244-1.55c-.174-.728-.331-1.46-.477-2.194-.263-1.329-2.3-.767-2.032.56Z" transform="translate(-50.361 -60.886)" fill="#333"/>
  <path id="パス_92788" data-name="パス 92788" d="M111.511,124.417l-2.7.006a1.054,1.054,0,1,0,0,2.107l2.7-.006a1.054,1.054,0,1,0,0-2.107Z" transform="translate(-52.392 -58.827)" fill="#333"/>
  <path id="パス_92789" data-name="パス 92789" d="M118.967,144.869c-.43-2.877-.866-5.752-1.287-8.63q-.105-.718-.208-1.436c-.025-.173-.049-.346-.073-.519-.02-.149.02.158-.006-.044-.008-.061-.016-.122-.024-.184a8.772,8.772,0,0,1,.67-3.01,1.055,1.055,0,0,0-2.032-.56,10.912,10.912,0,0,0-.756,3.477c.073.834.226,1.67.347,2.5.436,2.99.89,5.978,1.337,8.967a1.061,1.061,0,0,0,1.3.738,1.081,1.081,0,0,0,.738-1.3Z" transform="translate(-55.932 -61.343)" fill="#333"/>
  <path id="パス_92790" data-name="パス 92790" d="M123.94,116.049a13.092,13.092,0,0,0-2.3-2.95,1.073,1.073,0,0,0-1.49,0c-.338.338-.725.629-.725,1.156l.309-.746a23.382,23.382,0,0,1-3.771,2.909q-.959.6-1.971,1.1c-.709.351-1.522.646-1.537,1.589a2.368,2.368,0,0,0,.664,1.466c.457.6.929,1.18,1.407,1.76.889,1.08,1.791,2.151,2.674,3.237a1.063,1.063,0,0,0,1.49,0,23.884,23.884,0,0,0,2.675-3.267c.383-.553.749-1.119,1.106-1.69.171-.273.339-.548.507-.823l.3-.5c.025-.042.3-.453.142-.292a1.054,1.054,0,0,0-1.49-1.49,9.32,9.32,0,0,0-1.077,1.712c-.354.574-.715,1.143-1.092,1.7a21.553,21.553,0,0,1-2.562,3.156h1.49c-.769-.944-1.551-1.877-2.327-2.816-.437-.527-.871-1.058-1.3-1.6-.12-.151-.241-.3-.354-.459-.049-.067-.1-.153-.151-.216-.093-.105.022-.136.007.047l-.144.532q-.261.217-.025.078l.164-.075.493-.236q.5-.247.988-.519,1.046-.583,2.032-1.267c.66-.457,1.3-.945,1.919-1.457.539-.447,1.538-1.068,1.538-1.844l-.309.745c.141-.133.279-.269.416-.406h-1.49a11.075,11.075,0,0,1,1.969,2.529,1.055,1.055,0,0,0,1.82-1.064Z" transform="translate(-54.615 -53.33)" fill="#333"/>
  <path id="パス_92791" data-name="パス 92791" d="M90.41,118.23a2.087,2.087,0,0,0,.449,1.04q.3.5.611,1c.407.658.823,1.31,1.262,1.947.452.656.93,1.3,1.434,1.912.433.527,1.024,1.475,1.781,1.475l-.745-.309c.085.094.173.185.263.274a1.06,1.06,0,0,0,1.49,0c.9-1.106,1.821-2.2,2.726-3.305.487-.594.973-1.189,1.438-1.8a1.967,1.967,0,0,0,.538-1.7c-.22-.8-1.106-1.038-1.757-1.37a23.831,23.831,0,0,1-2.076-1.2,22.272,22.272,0,0,1-3.82-3.088,1.073,1.073,0,0,0-1.49,0,13.009,13.009,0,0,0-2.378,3.085,1.055,1.055,0,0,0,1.82,1.064,11.072,11.072,0,0,1,2.048-2.658h-1.49a24.685,24.685,0,0,0,3.594,2.982q.959.662,1.979,1.233.453.253.917.486.247.124.5.242l.249.115q.239.139-.02-.078l-.144-.532c-.011-.163.109-.163.007-.047-.046.053-.081.119-.122.175-.122.171-.254.336-.385.5-.427.537-.863,1.066-1.3,1.6-.774.939-1.555,1.872-2.324,2.816h1.49a1.423,1.423,0,0,0-1.014-.582l.745.308a34.82,34.82,0,0,1-4.313-6.1l.144.532v-.005a1.054,1.054,0,0,0-2.107,0Z" transform="translate(-43.987 -53.329)" fill="#333"/>
  <path id="パス_92792" data-name="パス 92792" d="M71.072,125.172a7.76,7.76,0,0,1-1.19.519l-1.333.583q-1.234.542-2.465,1.09c-1.709.76-3.4,1.585-5.15,2.243a1.083,1.083,0,0,0-.738,1.3,1.062,1.062,0,0,0,1.3.738c1.861-.7,3.66-1.568,5.477-2.377q1.317-.587,2.642-1.169l1.243-.544a8.376,8.376,0,0,0,1.28-.558c1.123-.749.069-2.575-1.064-1.82Z" transform="translate(-29.874 -59.1)" fill="#333"/>
  <path id="パス_92793" data-name="パス 92793" d="M101.3,135.1h-.005" transform="translate(-49.332 -63.881)" fill="none"/>
  <path id="パス_92794" data-name="パス 92794" d="M137.933,124.577c2.594,1.1,5.163,2.246,7.737,3.394q1.791.8,3.591,1.588a17.584,17.584,0,0,1,3.6,1.646,1.061,1.061,0,0,0,1.441-.378,1.079,1.079,0,0,0-.378-1.442,16.836,16.836,0,0,0-3.5-1.6q-1.854-.806-3.7-1.633c-2.572-1.148-5.143-2.3-7.737-3.394a1.09,1.09,0,0,0-1.442.378,1.06,1.06,0,0,0,.378,1.442Z" transform="translate(-66.423 -57.98)" fill="#333"/>
  <path id="パス_92795" data-name="パス 92795" d="M160.5,136.33c-1.191,7.527-2.519,15.074-3.149,22.673-.246,2.965-.449,5.933-.643,8.9-.089,1.354,2.019,1.348,2.107,0,.3-4.544.537-9.115,1.118-13.634.5-3.869,1.1-7.726,1.693-11.581q.447-2.9.906-5.8a1.086,1.086,0,0,0-.738-1.3,1.061,1.061,0,0,0-1.3.738Z" transform="translate(-75.551 -64.098)" fill="#333"/>
  <path id="パス_92796" data-name="パス 92796" d="M61.769,163.85c.309,2.009.814,4,1.241,5.987.235,1.091.474,2.182.7,3.275.072.349.139.7.208,1.049.01.05.014.1.026.152.053.208-.041-.349,0-.042s.075.594.112.892a37.262,37.262,0,0,1,.4,5.495,1.054,1.054,0,0,0,2.107,0c.126-4.919-1.172-9.747-2.182-14.517-.2-.948-.421-1.9-.57-2.852a1.062,1.062,0,0,0-1.3-.738,1.081,1.081,0,0,0-.738,1.3Z" transform="translate(-30.617 -76.852)" fill="#333"/>
  <path id="パス_92797" data-name="パス 92797" d="M127.97,119.752a24.46,24.46,0,0,1,4.1,2.981,17.26,17.26,0,0,1,1.575,1.581,5.484,5.484,0,0,1,.442.574c.065.1.125.2.184.3.034.062.065.124.094.188q-.066-.155-.009.008l.484-1.19a39.9,39.9,0,0,0-3.31,2.259,19.3,19.3,0,0,1-1.963,1.444,1.061,1.061,0,0,0-.211,1.655,35.877,35.877,0,0,1,2.994,2.876l-.165-1.277a13.254,13.254,0,0,0-1.084,1.959c-.692,1.329-1.37,2.665-2.047,4-1.638,3.228-3.262,6.463-4.949,9.665-.632,1.2,1.187,2.266,1.819,1.064,1.686-3.2,3.312-6.438,4.95-9.665.678-1.336,1.355-2.673,2.047-4a13.214,13.214,0,0,1,1.084-1.96,1.057,1.057,0,0,0-.165-1.277,35.721,35.721,0,0,0-2.994-2.877l-.213,1.655a19.3,19.3,0,0,0,1.963-1.444,39.892,39.892,0,0,1,3.31-2.259,1.073,1.073,0,0,0,.484-1.19,8.7,8.7,0,0,0-2.683-3.451,27.017,27.017,0,0,0-4.674-3.441,1.055,1.055,0,0,0-1.064,1.82Z" transform="translate(-60.065 -55.689)" fill="#333"/>
  <path id="パス_92798" data-name="パス 92798" d="M83.528,118.309a38.777,38.777,0,0,0-4.531,3.2c-1.135.919-2.62,2.042-3.081,3.5a1.082,1.082,0,0,0,.485,1.19c1.721,1.247,3.639,2.495,5.246,3.753v-1.49a38.537,38.537,0,0,0-3.109,2.774,1.1,1.1,0,0,0,0,1.49c-.316-.4.128.188.22.319q.344.487.685.976,1.057,1.518,2.107,3.04c1.755,2.532,3.512,5.063,5.3,7.574.809,1.138,1.622,2.274,2.466,3.387a1.088,1.088,0,0,0,1.442.378,1.061,1.061,0,0,0,.378-1.442c-3.4-4.478-6.517-9.177-9.726-13.793-.45-.648-.888-1.309-1.377-1.929v1.488a39.428,39.428,0,0,1,3.111-2.774,1.058,1.058,0,0,0,0-1.49c-1.833-1.436-3.787-2.717-5.673-4.083l.485,1.19q.053-.158-.023.034c.026-.053.053-.105.084-.158.076-.114.145-.231.23-.34.057-.075.35-.392.508-.552a21.009,21.009,0,0,1,1.876-1.66,35.125,35.125,0,0,1,3.968-2.758,1.054,1.054,0,0,0-1.063-1.82Z" transform="translate(-37.311 -55.862)" fill="#333"/>
  <path id="パス_92799" data-name="パス 92799" d="M90.024,119.533a103.654,103.654,0,0,0,3.62,10.867c1.667,4.555,3.4,9.085,5.15,13.61q1.125,2.913,2.252,5.825a1.085,1.085,0,0,0,1.3.738,1.062,1.062,0,0,0,.738-1.3c-3.2-8.319-6.515-16.606-9.4-25.044-.592-1.733-1.189-3.477-1.624-5.258-.322-1.317-2.355-.759-2.032.561Z" transform="translate(-43.986 -55.896)" fill="#333"/>
  <path id="パス_92800" data-name="パス 92800" d="M121.872,118.567a90.232,90.232,0,0,1-3.214,11.528q-2.2,6.912-4.627,13.751c-.614,1.739-1.232,3.477-1.886,5.2a1.062,1.062,0,0,0,.738,1.3,1.077,1.077,0,0,0,1.3-.738c1.377-3.632,2.639-7.309,3.888-10.987,1.563-4.6,3.091-9.227,4.438-13.9a54.9,54.9,0,0,0,1.4-5.59,1.084,1.084,0,0,0-.738-1.3,1.062,1.062,0,0,0-1.3.738Z" transform="translate(-54.451 -55.694)" fill="#333"/>
  <path id="パス_92801" data-name="パス 92801" d="M110.055,177.606a19.96,19.96,0,0,0-1.539,8.1c.089,2.259.29,4.516.4,6.774q.417,8.267,1.256,16.509c.273,2.687.566,5.381,1.032,8.043a1.063,1.063,0,0,0,1.3.738,1.078,1.078,0,0,0,.738-1.3c-.874-5-1.246-10.1-1.636-15.15s-.617-10.083-.948-15.121a18.423,18.423,0,0,1,1.434-8.031,1.06,1.06,0,0,0-.738-1.3,1.08,1.08,0,0,0-1.3.738Z" transform="translate(-52.749 -83.631)" fill="#333"/>
  <path id="パス_92802" data-name="パス 92802" d="M119.484,185.6a3.732,3.732,0,0,0-.735-.263,2.383,2.383,0,0,0-1.07.035,2.7,2.7,0,0,0-1.344.826,2.784,2.784,0,0,0-.678,1.669,2.281,2.281,0,0,0,.4,1.419,3.328,3.328,0,0,0,1.106,1.067,3.214,3.214,0,0,0,1.469.364,2.23,2.23,0,0,0,1.628-.527,2.692,2.692,0,0,0,.782-1.317,2.768,2.768,0,0,0-.316-2.055,2.8,2.8,0,0,0-1.245-1.212,1.144,1.144,0,0,0-.812-.105,1.054,1.054,0,0,0-.738,1.3,1.026,1.026,0,0,0,.485.63,1.843,1.843,0,0,1,.369.22l-.213-.164a1.923,1.923,0,0,1,.29.3l-.164-.213a2.833,2.833,0,0,1,.346.6l-.105-.252a1.765,1.765,0,0,1,.112.414l-.037-.28a1.652,1.652,0,0,1-.007.371l.037-.28a1.886,1.886,0,0,1-.116.421l.105-.252a2.01,2.01,0,0,1-.238.406l.164-.211a1.542,1.542,0,0,1-.225.229l.213-.165a1.045,1.045,0,0,1-.182.112l.252-.105a1.053,1.053,0,0,1-.26.066l.28-.037a3.011,3.011,0,0,1-.735-.015l.28.038a1.979,1.979,0,0,1-.441-.11l.252.105a1.9,1.9,0,0,1-.4-.238l.213.165a2.5,2.5,0,0,1-.421-.427l.165.213a2.129,2.129,0,0,1-.247-.415l.105.252a1.179,1.179,0,0,1-.077-.274l.037.28a1.8,1.8,0,0,1,0-.409l-.038.28a1.736,1.736,0,0,1,.112-.422l-.105.252a1.757,1.757,0,0,1,.189-.322l-.165.211a1.942,1.942,0,0,1,.336-.335l-.211.165a1.9,1.9,0,0,1,.374-.216l-.252.105a1.82,1.82,0,0,1,.418-.113l-.28.038a1.264,1.264,0,0,1,.275-.006l-.28-.038a2.195,2.195,0,0,1,.491.15l-.252-.105.036.015a1.155,1.155,0,0,0,.812.105,1.054,1.054,0,0,0,.738-1.3A1.015,1.015,0,0,0,119.484,185.6Z" transform="translate(-56.128 -87.63)" fill="#333"/>
  <path id="パス_92803" data-name="パス 92803" d="M113.6,225.631a31.665,31.665,0,0,0,2.03,5.66c.8,1.7,1.669,3.425,3.513,4.142a17.948,17.948,0,0,0,5.743.691c4.2.151,8.412.172,12.614.1a2.923,2.923,0,0,0,2.255-.685,2.738,2.738,0,0,0,.466-1.913c-.009-.8-.058-1.6-.084-2.405-.1-3.161-.324-6.3-.574-9.457-.316-4-.413-8.024-.594-12.034-.205-4.558-.511-9.128-.561-13.692a1.054,1.054,0,0,0-2.107,0c.041,3.7.279,7.413.445,11.113s.34,7.38.478,11.072c.105,2.868.437,5.726.627,8.588.105,1.593.139,3.189.19,4.784.022.675.064,1.352.072,2.028a5.858,5.858,0,0,0-.044.708l.3-.351-.138.105a.923.923,0,0,0-.172.017,8.607,8.607,0,0,1-1.375.024q-1.309.014-2.619.014c-2.26,0-4.52-.011-6.779-.057-1.226-.025-2.453-.059-3.678-.12q-.718-.036-1.436-.089c-.214-.016-.428-.035-.642-.057-.083-.008-.58-.078-.254-.027a4.692,4.692,0,0,1-1.877-.56,5.3,5.3,0,0,1-1.528-2.143,28.855,28.855,0,0,1-2.238-6.016,1.055,1.055,0,0,0-2.033.56Z" transform="translate(-55.137 -92.231)" fill="#333"/>
  <path id="パス_92804" data-name="パス 92804" d="M64.884,196.039q-.388,6.12-.773,12.239c-.263,4.273-.407,8.562-.733,12.83-.263,3.417-.518,6.814-.629,10.24-.025.785-.079,1.572-.08,2.357a2.341,2.341,0,0,0,.73,2.061,3.7,3.7,0,0,0,2.221.463c4.568.067,9.158.071,13.722-.158.923-.046,1.847-.105,2.763-.235a5.9,5.9,0,0,0,3.932-2.127,18.461,18.461,0,0,0,2.238-4c.725-1.555,1.416-3.13,2.041-4.729.242-.62.474-1.243.673-1.878.41-1.3-1.624-1.851-2.032-.561a54.191,54.191,0,0,1-3.457,8.074c-.727,1.434-1.563,2.68-3.214,3.052-.19.043-.379.077-.571.112-.214.039.084-.009,0,0s-.182.022-.273.032c-.413.045-.828.076-1.243.1-4.513.293-9.062.258-13.582.219-.559,0-1.143.033-1.7-.025a2.161,2.161,0,0,0-.225-.014c-.048,0-.144-.12-.172-.109.176-.073.139.474.286.294a2.92,2.92,0,0,0-.029-.34c-.021-.693.04-1.395.062-2.087.105-3.342.322-6.657.587-9.99.326-4.1.464-8.214.714-12.317q.389-6.438.81-12.875.021-.316.04-.628c.086-1.355-2.022-1.349-2.107,0Z" transform="translate(-31.059 -92.234)" fill="#333"/>
  <path id="パス_92805" data-name="パス 92805" d="M165.852,281.176c1.423.954,3.257.58,4.709-.093a7.451,7.451,0,0,0,3.387-3.3c1.706-3.085.346-6.7-.469-9.858a28.214,28.214,0,0,1-1.032-6.5,1.054,1.054,0,0,0-2.107,0,29.371,29.371,0,0,0,1,6.65,31.04,31.04,0,0,1,1.346,6.293,5.275,5.275,0,0,1-1.581,3.811c-.935.939-2.917,2.029-4.193,1.174-1.13-.758-2.185,1.067-1.064,1.82Z" transform="translate(-79.65 -123.169)" fill="#333"/>
  <path id="パス_92806" data-name="パス 92806" d="M169.146,252.42c.061,1.449.165,2.9.239,4.346l.773-1.016c-.4.063-.8.121-1.2.176l-.307.042c-.344.047.208-.027-.142.019l-.655.085q-1.413.181-2.827.345-1.6.187-3.2.361a1.084,1.084,0,0,0-1.054,1.054,1.061,1.061,0,0,0,1.054,1.054c2.969-.319,5.945-.642,8.9-1.106a1.054,1.054,0,0,0,.773-1.016c-.074-1.449-.178-2.9-.239-4.346a1.054,1.054,0,0,0-2.107,0Z" transform="translate(-77.474 -118.89)" fill="#333"/>
  <path id="パス_92807" data-name="パス 92807" d="M161.748,263.323c-.868,3.635-2.036,7.218-2.339,10.965a3.106,3.106,0,0,0,2.489,3.425,4.391,4.391,0,0,0,3.137-1.64c.92-.994-.567-2.488-1.49-1.49a4.781,4.781,0,0,1-.859.7c-.254.171-.493.395-.682.3a1.153,1.153,0,0,1-.512-.969,12.008,12.008,0,0,1,.256-2.2c.467-2.891,1.352-5.69,2.031-8.535.316-1.317-1.717-1.881-2.032-.561Z" transform="translate(-76.825 -124.192)" fill="#333"/>
  <path id="パス_92808" data-name="パス 92808" d="M167.591,348.412c.223-2.841.215-5.706.211-8.554,0-3.878-.078-7.757-.188-11.633-.105-3.747-.246-7.493-.447-11.236-.079-1.466-.166-2.932-.279-4.4a20.039,20.039,0,0,0-.322-3.179c-.353-1.437-1.9-1.307-3.063-1.339q-1.994-.056-3.989-.086c-1.323-.02-2.687-.116-4.009-.013-1.2.093-1.6.986-1.727,2.031-.32,2.566-.5,5.152-.688,7.73-.567,7.706-1.009,15.429-1.249,23.153-.048,1.55-.086,3.1-.1,4.65-.011,1.357-.252,3.123.527,4.3,1.362,2.067,4.345,1.729,6.474,1.735,1.376,0,2.752.011,4.129,0a6.671,6.671,0,0,0,3.165-.625,3.1,3.1,0,0,0,1.553-2.537,1.06,1.06,0,0,0-1.054-1.054,1.079,1.079,0,0,0-1.054,1.054c-.079.708-.838.9-1.439.987a22.7,22.7,0,0,1-3.414.071c-1.325,0-2.65,0-3.974-.012a3.9,3.9,0,0,1-2.414-.532c-.455-.373-.381-.989-.388-1.523-.008-.584-.008-1.168,0-1.752.01-1.446.043-2.891.086-4.336.214-7.238.623-14.473,1.126-21.7.193-2.769.394-5.541.676-8.3q.067-.657.146-1.312a.96.96,0,0,0,.032-.253c.061.263-.627.32-.021.316s1.212,0,1.819,0q1.916.014,3.832.057.925.021,1.849.046l.822.024a1.667,1.667,0,0,0,.4.013c.256-.061.1-.062-.082-.242-.088-.088-.025-.211,0,.03.012.105.025.206.036.309.025.218.047.436.068.655.053.524.095,1.048.135,1.573.105,1.347.187,2.695.263,4.043.191,3.465.326,6.932.432,10.4.2,6.622.414,13.286.105,19.908-.024.507-.053,1.014-.093,1.521C165.377,349.764,167.485,349.757,167.591,348.412Z" transform="translate(-73.182 -145.652)" fill="#333"/>
  <path id="パス_92809" data-name="パス 92809" d="M165.37,303.147c.088-2.87.244-11.248.129-12.065.7-.007,2,.071,2.723.053.06,2.362-.078,10.428-.04,12.038Z" transform="translate(-79.65 -137.681)" fill="#333"/>
  <path id="パス_92810" data-name="パス 92810" d="M165.477,302.2c.069-2.266.109-4.534.141-6.8.016-1.145.029-2.291.029-3.436a14.646,14.646,0,0,0-.041-1.825l-1.054,1.054c.908,0,1.815.068,2.723.053l-1.054-1.054c.1,4.012-.126,8.027-.04,12.038l1.054-1.054-2.812-.026a1.054,1.054,0,0,0,0,2.107l2.812.026a1.066,1.066,0,0,0,1.054-1.054c-.086-4.012.136-8.027.04-12.038a1.069,1.069,0,0,0-1.054-1.054c-.908.017-1.816-.053-2.723-.053a1.058,1.058,0,0,0-1.054,1.054,14.647,14.647,0,0,1,.041,1.825c0,1.145-.013,2.291-.029,3.436-.032,2.266-.072,4.535-.141,6.8C163.328,303.56,165.436,303.559,165.477,302.2Z" transform="translate(-78.704 -136.737)" fill="#333"/>
  <path id="パス_92811" data-name="パス 92811" d="M162.944,135.6c.569.3,1.173.527,1.736.839a7.705,7.705,0,0,1,1.677,1.345,8.368,8.368,0,0,1,1.867,2.693c.936,2.256.8,4.869.926,7.259.326,6.217.685,12.434,1.042,18.646.365,6.35.729,12.7,1.057,19.051.138,2.66.279,5.321.372,7.981a7.905,7.905,0,0,1,.031,1.894c-.012.053-.326.184-.067.1a.573.573,0,0,1-.061.007,4.6,4.6,0,0,1-.466.053l-8.184.928a1.085,1.085,0,0,0-1.054,1.054,1.061,1.061,0,0,0,1.054,1.054l7.807-.885c.3-.034.6-.065.905-.1a2.416,2.416,0,0,0,2.2-2.513c-.025-2.07-.158-4.145-.26-6.212-.657-13.285-1.5-26.561-2.205-39.844-.09-1.693-.141-3.391-.27-5.082a13.709,13.709,0,0,0-.734-3.793,10.5,10.5,0,0,0-2.183-3.484,12.086,12.086,0,0,0-1.841-1.626,19.8,19.8,0,0,0-2.284-1.181c-1.2-.632-2.266,1.188-1.064,1.82Z" transform="translate(-77.971 -63.197)" fill="#333"/>
  <path id="パス_92812" data-name="パス 92812" d="M40.039,129.726a15.014,15.014,0,0,0-1.739-5.362c-.378-.852-.705-1.731-1.064-2.592a7.346,7.346,0,0,1-.755-2.557c-.037-1.97,1.585-3.755,2.658-5.269a9.614,9.614,0,0,1,1.844-2.365c.573-.411,1.32-.481,1.268.409a1.064,1.064,0,0,0,1.8.745.726.726,0,0,1,.267-.172c.289-.135-.138,0,.094.032s.34-.022.576.191a1.212,1.212,0,0,1,.173,1.084,1.067,1.067,0,0,0,1.548,1.19c.388-.239.712-.41,1.087-.058a.745.745,0,0,1,.2.865,1.066,1.066,0,0,0,1.3,1.3c.365-.064.316.613.228.84a10.4,10.4,0,0,1-1.076,1.669,4.233,4.233,0,0,0-.263,4.187,5.734,5.734,0,0,1,.609,1.76,2.49,2.49,0,0,1-.556,1.693c-.369.524-.669,1.1-1.054,1.608a4.273,4.273,0,0,0-.864,1.831c-.267,1.325,1.764,1.891,2.032.56a6.042,6.042,0,0,1,1.09-1.99,11.954,11.954,0,0,0,1.212-2.059,4.421,4.421,0,0,0,.111-2.577c-.193-.787-.667-1.469-.874-2.248-.421-1.581,1.5-2.778,1.769-4.268a2.792,2.792,0,0,0-.6-2.294,2.25,2.25,0,0,0-2.326-.741l1.3,1.3a2.862,2.862,0,0,0-4.388-3.186l1.551,1.188A3.168,3.168,0,0,0,46.1,111a3.308,3.308,0,0,0-1.787-.513,2.2,2.2,0,0,0-1.751.76l1.8.746a2.64,2.64,0,0,0-3.669-2.614,4.838,4.838,0,0,0-2.166,1.813c-.626.858-1.232,1.733-1.844,2.6-1.1,1.557-2.233,3.234-2.3,5.208-.062,1.807.939,3.469,1.562,5.1.7,1.844,1.894,3.6,2,5.621.068,1.349,2.176,1.358,2.107,0Z" transform="translate(-17.672 -51.612)" fill="#333"/>
  <path id="パス_92813" data-name="パス 92813" d="M43.738,119.036a32.155,32.155,0,0,1,2.068-2.966c.178-.233.355-.467.531-.7.085-.114.171-.227.253-.342.105-.15-.17.191-.041.055.035-.037.067-.076.1-.113a6.934,6.934,0,0,1,.514-.474c.149-.13-.1.067,0,0,.053-.037.105-.076.158-.112a3.516,3.516,0,0,1,.3-.185,1.064,1.064,0,0,0,.378-1.442,1.076,1.076,0,0,0-1.442-.378,5.907,5.907,0,0,0-1.336,1.035,14.247,14.247,0,0,0-1.133,1.453,33.891,33.891,0,0,0-2.179,3.112,1.054,1.054,0,1,0,1.82,1.064Z" transform="translate(-21.174 -53.064)" fill="#333"/>
  <path id="パス_92814" data-name="パス 92814" d="M50.987,122.182a21.03,21.03,0,0,1,1.323-2.038c.057-.077.115-.154.173-.231.081-.105.009,0-.033.042.033-.035.06-.076.089-.113q.19-.239.388-.474.4-.474.843-.913a1.054,1.054,0,1,0-1.49-1.49,19.825,19.825,0,0,0-3.111,4.151,1.054,1.054,0,1,0,1.82,1.064Z" transform="translate(-24.604 -55.155)" fill="#333"/>
  <path id="パス_92815" data-name="パス 92815" d="M56.782,125.316c.355-.54.711-1.08,1.106-1.593l-.165.213a8.731,8.731,0,0,1,1.359-1.433,1.057,1.057,0,0,0,.308-.745,1.075,1.075,0,0,0-.308-.746,1.061,1.061,0,0,0-.746-.308,1.2,1.2,0,0,0-.745.308,13.875,13.875,0,0,0-2.629,3.239,1.062,1.062,0,0,0,.378,1.442,1.078,1.078,0,0,0,1.442-.378Z" transform="translate(-27.347 -57.071)" fill="#333"/>
  <path id="パス_92816" data-name="パス 92816" d="M53.036,113.842c.289,0,.58-.006.867,0,.168.006.336.016.5.03l.208.02.124.014-.115-.016a1.84,1.84,0,0,1,.5.087q.211.044.414.1.253.068.5.158c.071.025.142.053.211.078.043.016.086.033.128.05q-.169-.074-.072-.028c.048.028.1.053.149.08.028.016.056.034.083.053q.1.067-.083-.068c.007.031.1.085.12.105.049.047.122.2.067.06s0,.009.031.05.065.113.1.171c.1.176-.066-.215,0,0,.017.053.036.1.05.151a.805.805,0,0,0,.033.145c-.02-.172-.027-.215-.02-.131,0,.031,0,.061,0,.092s-.026.161-.007.19c-.029-.044.045-.257,0-.047a2.926,2.926,0,0,1-.111.393c-.014.038-.086.292-.019.058a1.612,1.612,0,0,1-.117.248,1.054,1.054,0,1,0,1.819,1.064,3.8,3.8,0,0,0,.482-2.424,2.99,2.99,0,0,0-1.286-1.87,4.628,4.628,0,0,0-1.13-.487,7.376,7.376,0,0,0-1.08-.267,13.958,13.958,0,0,0-2.353-.158,1.054,1.054,0,1,0,0,2.107Z" transform="translate(-26.001 -52.828)" fill="#333"/>
  <path id="パス_92817" data-name="パス 92817" d="M50.394,153.1c.3-1.331.387-2.71.629-4.053a1.069,1.069,0,0,0-.738-1.3c-1.462-.259-2.946-.421-4.416-.619-2.107-.287-4.211-.576-6.322-.831a1.054,1.054,0,0,0-1.016.774c-.293,1.287-.542,2.582-.847,3.868-.313,1.317,1.718,1.881,2.032.56.306-1.285.554-2.582.847-3.868l-1.013.773c3.39.41,6.813.78,10.177,1.375l-.738-1.3c-.242,1.343-.326,2.721-.629,4.053s1.731,1.885,2.032.56Z" transform="translate(-19.222 -69.181)" fill="#333"/>
  <path id="パス_92818" data-name="パス 92818" d="M48.085,173.953a16.88,16.88,0,0,1-6.7,5.175,11.275,11.275,0,0,1-3.7.806,11.374,11.374,0,0,1-3.574-.536,4.179,4.179,0,0,1-2.479-2.087,6.875,6.875,0,0,1-.721-4.043,66.609,66.609,0,0,1,1.37-9.189c.665-3.056,1.556-6.054,2.464-9.045l-1.019.774c3.985.4,7.937,1.084,11.893,1.689l-.773-1.016c-.418,3.858-.79,7.76-1.528,11.571-.257,1.325,1.773,1.892,2.032.56.776-4,1.167-8.087,1.605-12.131a1.049,1.049,0,0,0-.773-1.016c-4.143-.632-8.282-1.346-12.454-1.764a1.062,1.062,0,0,0-1.016.773A86.792,86.792,0,0,0,28.8,173.268c-.218,2.936.805,6.27,3.592,7.713a11.031,11.031,0,0,0,4.2,1.042,12.329,12.329,0,0,0,4.268-.5,18.158,18.158,0,0,0,8.713-6.083c.854-1.04-.629-2.539-1.491-1.49Z" transform="translate(-15.023 -72.682)" fill="#333"/>
  <path id="パス_92819" data-name="パス 92819" d="M110.5,288.427c-.18,4.4-.232,8.816-.31,13.224q-.169,9.521-.312,19.042c-.089,5.466-.173,10.932-.311,16.4-.1,3.882-.316,7.757-.521,11.634-.338,6.413-.689,12.827-.948,19.244q-.036.89-.067,1.781c-.047,1.356,2.06,1.355,2.107,0,.218-6.225.567-12.446.9-18.665.219-4.182.486-8.365.606-12.552.148-5.156.226-10.314.311-15.472q.158-9.589.312-19.174c.082-4.8.149-9.611.311-14.414q.017-.522.038-1.045c.056-1.356-2.052-1.354-2.107,0Z" transform="translate(-52.519 -135.945)" fill="#333"/>
  <path id="パス_92820" data-name="パス 92820" d="M112.749,288.41c.145,4.268.182,8.54.243,12.809q.136,9.49.25,18.983c.073,5.633.142,11.266.248,16.9.07,3.72.218,7.434.378,11.152.282,6.565.58,13.131.8,19.7q.03.9.057,1.791c.04,1.353,2.148,1.359,2.107,0-.187-6.384-.482-12.764-.756-19.145-.171-4-.365-7.99-.448-11.989-.112-5.353-.178-10.707-.248-16.06q-.126-9.547-.249-19.095c-.065-4.695-.116-9.391-.246-14.085q-.013-.479-.029-.957c-.046-1.352-2.154-1.359-2.107,0Z" transform="translate(-54.753 -135.937)" fill="#333"/>
  <path id="パス_92821" data-name="パス 92821" d="M77.143,443.654c1.86.188,3.773.11,5.637.12q4.07.023,8.14-.007c1.015-.007,2.031-.013,3.045-.037a1.054,1.054,0,0,0,0-2.107c-4.784.113-9.582.093-14.367.012-.817-.014-1.644-.005-2.458-.087a1.061,1.061,0,0,0-1.054,1.054,1.077,1.077,0,0,0,1.054,1.054Z" transform="translate(-37.408 -208.872)" fill="#333"/>
  <path id="パス_92822" data-name="パス 92822" d="M134.41,441.547c-1.861.188-3.773.11-5.641.12q-4.07.023-8.139-.007c-1.015-.007-2.031-.013-3.045-.037a1.054,1.054,0,0,0,0,2.107c4.784.113,9.582.093,14.367.012.817-.014,1.645-.005,2.458-.087a1.083,1.083,0,0,0,1.054-1.054A1.061,1.061,0,0,0,134.41,441.547Z" transform="translate(-56.561 -208.872)" fill="#333"/>
  <path id="パス_92823" data-name="パス 92823" d="M106.6,94.731a6.517,6.517,0,0,0,7.692,0,1.054,1.054,0,1,0-1.491-1.491c-.041.04-.223.188-.06.063s-.073.045-.125.077c-.081.05-.163.095-.248.137a.923.923,0,0,0-.172.081c.034-.056.215-.081.027-.016a5.637,5.637,0,0,1-.824.226c-.023,0-.325.05-.1.021-.084.011-.169.018-.253.026-.2.017-.4.024-.6.025-.185,0-.369-.006-.554-.021-.1-.008-.2-.017-.305-.03.151.018.034,0-.053-.013a5.011,5.011,0,0,1-.835-.221l-.1-.038q-.114-.045.094.041c-.021-.03-.112-.053-.144-.067q-.141-.069-.274-.151a2.307,2.307,0,0,0-.2-.134c.268.124.12.1.014-.006a1.054,1.054,0,1,0-1.491,1.491Z" transform="translate(-51.698 -43.93)" fill="#333"/>
  <path id="パス_92824" data-name="パス 92824" d="M112.751,81.945a14.877,14.877,0,0,1,.349,1.6l-.038-.28a.967.967,0,0,1,.006.221l.037-.28a.533.533,0,0,1-.024.1l.105-.252a.465.465,0,0,1-.035.064l.164-.213a.323.323,0,0,1-.053.053l.213-.165a1.036,1.036,0,0,1-.126.067l.252-.105a.909.909,0,0,1-.213.062l.28-.037a.844.844,0,0,1-.2,0l.28.038c-.075-.011-.149-.029-.225-.039a.8.8,0,0,0-.421-.019.786.786,0,0,0-.392.125,1.054,1.054,0,0,0-.378,1.442,1.008,1.008,0,0,0,.632.484c.192.026.379.074.575.083a1.879,1.879,0,0,0,.875-.211,1.314,1.314,0,0,0,.713-.86,2.055,2.055,0,0,0-.008-.9c-.087-.514-.205-1.024-.338-1.528a1.088,1.088,0,0,0-.484-.632,1.054,1.054,0,0,0-1.442.378,1.106,1.106,0,0,0-.105.812Z" transform="translate(-54.489 -38.101)" fill="#333"/>
  <path id="パス_92825" data-name="パス 92825" d="M97.761,73.384c-.261.847-.091,2.792,1.513,2.96,2.121-.013,2.233-2.368,1.519-3.475A1.679,1.679,0,0,0,97.761,73.384Z" transform="translate(-47.615 -34.079)" fill="#333"/>
  <path id="パス_92826" data-name="パス 92826" d="M126.865,73.383c.261.847.091,2.8-1.513,2.96-2.121-.013-2.233-2.368-1.519-3.477A1.68,1.68,0,0,1,126.865,73.383Z" transform="translate(-59.81 -34.079)" fill="#333"/>
</svg>
