<svg xmlns="http://www.w3.org/2000/svg" xmlns:xlink="http://www.w3.org/1999/xlink" width="981.5" height="837.604" viewBox="0 0 981.5 837.604">
  <defs>
    <clipPath id="clip-path">
      <rect id="長方形_14911" data-name="長方形 14911" width="515.505" height="48.214"/>
    </clipPath>
  </defs>
  <g id="グループ_10045" data-name="グループ 10045" transform="translate(-228.5 -10265.396)">
    <path id="多角形_5" data-name="多角形 5" d="M215.333,0l22.733,53.8,59.517,4.45-14.05,56.55L329,152.5l-45.467,37.7,14.05,56.55-59.517,4.45L215.333,305,164.5,274.5,113.667,305,90.933,251.2l-59.517-4.45,14.05-56.55L0,152.5l45.467-37.7L31.417,58.25,90.933,53.8,113.667,0,164.5,30.5Z" transform="translate(367 10662)" fill="#fce5db"/>
    <text id="各拠点で_採用強化中" data-name="各拠点で
採用強化中" transform="translate(528.774 10800.08)" fill="#ff7c64" font-size="40" font-family="SawarabiGothic-Regular, Sawarabi Gothic"><tspan x="-80" y="0">各拠点で</tspan><tspan x="-100" y="54">採用強化中</tspan></text>
    <g id="_11333" data-name="11333" transform="translate(661.864 10559.394)">
      <path id="パス_93174" data-name="パス 93174" d="M176.717,160.616a7.428,7.428,0,0,1,5.318-1.393,6.705,6.705,0,0,1,5.719,3.619c1.762,3.508,1.2,9.665-.468,13.374a19.453,19.453,0,0,1-7,8.94,14.317,14.317,0,0,1-6.924,1.9c-.275.6-.467,1.029-.467,1.029-.819,1.9-2.8,5.244-2.8,5.244a71.73,71.73,0,0,1-4.5,6.516v3.439A136.8,136.8,0,0,1,144.012,228.8l-4.136-.008c-4.867-3.917-10.931-8.151-12.653-9.388v-.224a37.385,37.385,0,0,1-25.8-8.1c-8.463-6.382-12.448-16.818-14.2-28.463-1.008-6.715-1.942-14.017-3.2-21.307,0,0-11.744-32.67,39.981-37.529S176.717,160.616,176.717,160.616Z" transform="translate(-10.328 43.248)" fill="#fff"/>
      <path id="パス_93175" data-name="パス 93175" d="M80.322,182.834q.22.332.422.673a43.233,43.233,0,0,1,4.244,9.359,5.507,5.507,0,0,1-3.034,6.781l.3,2.45a4.536,4.536,0,0,1,2.235.984,8.16,8.16,0,0,1,1.75,2.728c1.438,3.234.7,6.416-.826,9.608a30.312,30.312,0,0,1-6.521,8.306c-3.454,3.367-6.687,8.806-15.175,12.122a33.307,33.307,0,0,0,.4,9.785c-8.183,1.13-21.6,2.95-29.32,4.034-.054-.664-.091-1.08-.091-1.08a130.27,130.27,0,0,0-1.852-13.265,16,16,0,0,1-.2-1.907c.349-10.827,4.6-29.963,7.432-38.649.917-2.81,2.247-4.025,4.321-6.133a15.08,15.08,0,0,1,4.206-2.717A129.39,129.39,0,0,1,65.3,178.9c2.747-.907,5.688-1.688,8.5-1.019A11.277,11.277,0,0,1,80.322,182.834Z" transform="translate(-24.692 58.761)" fill="#fff"/>
      <path id="パス_93176" data-name="パス 93176" d="M183.7,171.267a18.692,18.692,0,0,1-1.137-3.578c-.316-3.358-.242-7.567,2.194-9.978a186.141,186.141,0,0,1,17.129-9.6c1.57-.739,5.7-1.373,7.587,1.363a4.906,4.906,0,0,1,.9,3.376l.221-.787c.113-2.088,1.655-3.215,4.088-4.311a5.666,5.666,0,0,1,4.312-.032c3.344,2.023,6.044,6.636,7.064,10.494a6.448,6.448,0,0,1-.467,4.244c-.772,1.587-2.483,2.2-5.3,2.041,1.587,1.813,2,6.477-1.223,7.587,1.4.112,4.7-.167,5.625,2.415a4.372,4.372,0,0,1-.154,3.377,13.044,13.044,0,0,1-2.528,3.2,4.1,4.1,0,0,0-1.461,3.445c.058,2.218,1.193,6.712,1,8.873a11.5,11.5,0,0,1-2.463,6.184c-.514.608-5.963,2.662-9.7,3.866-1.178.5-3.648,1.514-5.546,1.029-7.895-2.029-11.1-14.2-16.562-24.948C186.84,178.675,184.952,174.5,183.7,171.267Z" transform="translate(18.141 50.09)" fill="#fff"/>
      <path id="パス_93177" data-name="パス 93177" d="M295.841,7.978a3.936,3.936,0,0,0-.853.464,5.4,5.4,0,0,0-1.939,4.5l.031,1.182-.129-.1a4.423,4.423,0,0,0-5.757,1c-1.367,1.643-1.286,3.954-.757,6.033l.062.244-1.995-.682a4.666,4.666,0,0,0-3.638.712,5.916,5.916,0,0,0-1.3,5.064,27.356,27.356,0,0,0,3.642,7.654c1.8,2.487,3.962,4.372,6.372,4.2l.248-.018a15.389,15.389,0,0,0,.748,4.444,22.716,22.716,0,0,0,6.816,7.268,12.118,12.118,0,0,0,6.283,1.894,17.425,17.425,0,0,0,5.624-1c2.735-1.1,5.747-2.36,8.873-3.858l2.065,2.13a193.289,193.289,0,0,1,15.809-12.819,46.322,46.322,0,0,1-6.569-7.362l-.243-.431c-3.18-7.632-6.559-17.052-12.05-22.969a18.028,18.028,0,0,0-2.654-1.983,9.681,9.681,0,0,0-6.575-1.481c-1.89.1-7.273,2.157-6.222,7.587l.01.053-.73-.815a4.687,4.687,0,0,0-5.171-.914Z" transform="translate(45.883 8.529)" fill="#fff"/>
      <path id="パス_93178" data-name="パス 93178" d="M215.509,134.364a49.74,49.74,0,0,1,7.6-6.11c5.131-3.369,10.854-5.748,16.01-9.079a32.592,32.592,0,0,0,8.359-7.459c.4,1.321.737,2.4.737,2.4a78.812,78.812,0,0,0,5.05,11.178c7.628,13.477,14.6,25.317,23.359,38.089a74.229,74.229,0,0,0,7.6,9.551v77.673h-38.61c.552-9.123,1.6-35.326-1.051-40.655-1.182-2.377-9.3-21.327-9.773-23.939-2.213-12.325-3.128-18.494-5.342-30.82l-24.8-5.4c1.2-2.07,2.662-4.964,3.626-6.481a49.874,49.874,0,0,1,7.235-8.945Z" transform="translate(24.495 39.912)" fill="#fff"/>
      <path id="パス_93179" data-name="パス 93179" d="M204.918,82.835c.464-5.262,4.055-8.961,7.186-12.356,4.946-5.36,10.416-10.087,15.656-15.719.491,4.384-.626,15.582,2.294,14.029,12-6.21,20.716-15.9,26.611-28.333,5.212,11.643,18.406,27.418,24.259,28.919l9.034.845a6.985,6.985,0,0,1,4.808-1.884,6.3,6.3,0,0,1,5.735,2.749c2.029,3.08,2.177,8.889,1.029,12.537a18.276,18.276,0,0,1-5.554,9.112,13.419,13.419,0,0,1-6.319,2.542c-.15.585-.257,1-.257,1-.556,1.861-2.04,5.2-2.04,5.2a66.612,66.612,0,0,1-3.277,6.213,19.2,19.2,0,0,0,11.937,11.119c-1.776,7.553-3.241,15.128-4.474,22.734-2.432,2.432-6.173,7.061-9.749,8.926a30.034,30.034,0,0,1-6.494,2.122,28.068,28.068,0,0,1-8.385.9,69,69,0,0,1-9.939-1.3q-1.844-3.207-3.722-6.526a78.8,78.8,0,0,1-5.05-11.178s-.487-1.746-1.049-3.75a35.3,35.3,0,0,1-21.939-5.153c-8.6-5.027-13.466-14.328-16.377-25-1.353-4.96-2.7-10.288-4.21-15.647l.282-2.6" transform="translate(24.49 19.533)" fill="#fff"/>
      <path id="パス_93180" data-name="パス 93180" d="M278.868,121.259c1.959,1.388,4.372,2.357,6.531,1.646a364.685,364.685,0,0,0,43.452-19.929c4.133-2.235,9.426-7.042,11.494-11.26l4.2-8.5a141.2,141.2,0,0,0-13.716-16.846C326.154,61.31,320.073,54.8,315.4,49.731A201.232,201.232,0,0,1,343.1,26.637C345.838,29.9,375.5,58.1,376.524,59.21c8.19,8.92,15.62,16.989,21.423,27.615a28.76,28.76,0,0,1,2.892,13.117,18.431,18.431,0,0,1-2.226,7.3c-3.549,6.967-8.032,11.49-14.313,16.148s-43.955,29.6-55.223,38.344l-5.2,4.143-2.325,1.852c1.286,5.976,3.833,15.324,6.058,22.43l-59.8,5.985c1.955-25.488,4.63-50.488,10.584-75.281" transform="translate(42.558 15.58)" fill="#fff"/>
      <path id="パス_93181" data-name="パス 93181" d="M417.269,265.561c-9.946-5.456-20.19-11.014-31.436-12.483a91.634,91.634,0,0,0-17.884.013l-19.225,1.271-1.415-1.672c-.082-.411-4.752-7.77-7.578-11.718a136.758,136.758,0,0,1-21.575,25.511l-3.575,1.968c-4.867-3.917-13-13.8-13.3-14.254-1.62,2.937-4.936,8.953-5.721,10.618l-1.718.3c-8.722,2.4-17.5,4.815-25.641,8.745s-15.7,9.523-20.617,17.115c0,0-.273,1.917,1.12,2.239,27.331,2.861,121.19,9.455,149.228-1.876,6.069-2.451,17.084-17.305,20.63-23.791C418.877,267.059,417.269,265.561,417.269,265.561Z" transform="translate(36.767 76.876)" fill="#fff"/>
      <path id="パス_93182" data-name="パス 93182" d="M144.438,201.963a115.359,115.359,0,0,1-8.966,9.066l-4.136-.008c-4.867-3.917-10.931-8.151-12.653-9.388a60.242,60.242,0,0,0-5.979,8.152c0,.22,1.872,4.615,4.172,9.35l-1.763,1.415a30.14,30.14,0,0,0,3.124,9.366c7.007,15.153,13.454,28.49,21.733,42.984,2.14,3.744,5.962,9.882,8.782,12.465,4.449-28.114,9.577-55.607,18.437-82.532l-3.963-1.061c.855-2.653,1.415-4.442,1.4-4.537-.082-.412-4.758-7.77-7.578-11.717a158.573,158.573,0,0,1-12.606,16.444Z" transform="translate(-1.799 61.017)" fill="#fff"/>
      <path id="パス_93183" data-name="パス 93183" d="M171.369,280.834a79.985,79.985,0,0,1-7.33-10.931c-8.282-14.494-14.728-27.831-21.733-42.984a30.139,30.139,0,0,1-3.124-9.366l-1.253-12.7c-10.856,3.3-24.434,7.459-34.428,12.821a27.884,27.884,0,0,0-8.673,6.5,42.783,42.783,0,0,0-4.167,6.916,73.782,73.782,0,0,1-12.487,16.777s-4.546,3.709-8.756,7.146c-.257-4.968-.575-9.93-1.107-15.061-9.579,1.339-33.472,4.56-37.7,5.228-.778,7.227-2.361,30.491-2.064,43.073.246,10.368,1.179,21.18,6.607,30.016a19.31,19.31,0,0,0,4.942,5.634c6.288,4.563,15.046,2.985,22.376.4,10.9-3.836,37.84-22.178,46.5-29.828l7.055-5.364q6.609,17.361,13.7,34.517l119.657-18.242c-.481-4.716-1.074-9.421-1.443-14.146-.889-11.413-1.461-21.558-1.757-33.193L276.64,216.39c-8.548-5.7-17.194-11.445-26.819-15.034-16.34-6.1-39.688-5.611-57.363-5.051-9.416,27.53-14.776,55.652-19.366,84.422" transform="translate(-25.876 64.013)" fill="#fff"/>
      <path id="パス_93184" data-name="パス 93184" d="M346.86,213.219a7.432,7.432,0,0,1,5.335-1.313,6.708,6.708,0,0,1,5.666,3.7c1.709,3.534,1.051,9.682-.667,13.374a19.459,19.459,0,0,1-7.137,8.835,14.17,14.17,0,0,1-7.613,1.766c2.132-1.627-2.7,6.253-2.7,6.253a69.044,69.044,0,0,1-5.6,7.653,53.726,53.726,0,0,0,1.964,8.169l.211.63a128.627,128.627,0,0,1-22.741,25.538c-4.739-3.448-13.689-14.313-14-14.789v-2.221a37.624,37.624,0,0,1-28.76-8.27c-8.367-6.508-12.2-17-13.772-28.677-.908-6.73-1.734-14.048-2.882-21.347,0,0-7.626-37.422,37.422-37.422C350.783,175.1,346.86,213.219,346.86,213.219Z" transform="translate(38.514 58.038)" fill="#fff"/>
      <path id="パス_93185" data-name="パス 93185" d="M191.968,167.107c-8.842-14.616-31.271-50.81-39.625-66.576a3.229,3.229,0,0,1,1.139-4.213A88,88,0,0,1,174.32,86.2a105.184,105.184,0,0,1,23.262-5.4,3.344,3.344,0,0,1,3.648,2.879c2.076,15.978,7.491,56.9,10.031,75.279" transform="translate(9.433 31.066)" fill="#fff"/>
      <path id="パス_93186" data-name="パス 93186" d="M311.887,99.349c-1.714-5.144-4.429-11.859-5.282-22.991a134.775,134.775,0,0,0-2.559-19.1c-2.779-14.2-13.384-29.44-24.948-34.3-14.331-8.214-26.181-8.695-37.511-6.173-16.075,3.576-28.034,12.063-35.012,23.842a50.578,50.578,0,0,0-6.255,23.982,80.494,80.494,0,0,0,5.2,27.134l.361.217c.148-1.363.267-2.469.267-2.469v.5c.464-5.262,4.055-8.961,7.186-12.356,4.946-5.36,10.416-10.087,15.656-15.719.491,4.384-.626,15.582,2.294,14.029,12-6.21,20.716-15.9,26.611-28.333,5.212,11.643,18.406,27.418,24.259,28.919l9.034.845A6.985,6.985,0,0,1,296,75.5a6.3,6.3,0,0,1,5.735,2.749c2.029,3.08,2.177,8.889,1.029,12.537a18.276,18.276,0,0,1-5.554,9.112,13.419,13.419,0,0,1-6.319,2.542c-.15.585-.257,1-.257,1-.556,1.861-2.04,5.2-2.04,5.2a66.611,66.611,0,0,1-3.277,6.213,19.072,19.072,0,0,0,8.47,9.586l8.523-7.373C312.029,110.351,314.167,106.189,311.887,99.349Z" transform="translate(23.257 12.379)" fill="#ff7c64"/>
      <path id="パス_93187" data-name="パス 93187" d="M265.209,129.742c-.548.144-1.073.27-1.543.372a28.067,28.067,0,0,1-8.385.9,69.148,69.148,0,0,1-9.939-1.3c6.249,10.87,12.32,20.892,19.637,31.563,2.266,3.306,6.277,8.706,9.083,10.872,1.332-17.909,2.987-35.569,5.846-53.08-2.431,2.431-6.173,7.06-9.748,8.925a25.95,25.95,0,0,1-4.951,1.75Z" transform="translate(36.132 42.014)" fill="#ff7c64"/>
      <path id="パス_93188" data-name="パス 93188" d="M296.366,269.994l.091.369a119.88,119.88,0,0,0,3.665,11.9c.231,3.5.026,8.076.27,12.32,0,0,.077,1.371.077,2.175a152.415,152.415,0,0,1,21.048-2.175A66.314,66.314,0,0,1,314.872,280a57.148,57.148,0,0,1-.232-10.577,95.554,95.554,0,0,1-10.356-8.616h-4.137a67.221,67.221,0,0,0-3.947,8.534Z" transform="translate(50.677 82.547)" fill="#ff7c64"/>
      <path id="パス_93189" data-name="パス 93189" d="M127.86,233.033c-.053-3.392-.1-6.25-.185-7.509a119.872,119.872,0,0,1-3.665-11.9l-.09-.386c1.46-2.875,2.9-5.706,4.209-7.895l4.136.008a90.785,90.785,0,0,0,9.865,8.237,60.7,60.7,0,0,0,.3,9.665,106.666,106.666,0,0,0,7.767,18.673l1.672,2.032c-2.393,11.8-4.42,23.706-6.322,35.727-2.821-2.582-6.642-8.72-8.782-12.464-2.958-5.184-5.689-10.22-8.291-15.244-.041-1.092-.068-1.759-.068-1.759C128.065,246.794,127.955,239.068,127.86,233.033Z" transform="translate(1.408 66.688)" fill="#ff7c64"/>
      <path id="パス_93190" data-name="パス 93190" d="M84.432,134.279a55.66,55.66,0,0,0-1.929,8.958,85.8,85.8,0,0,0,1.939,28.6c.113-.967.186-1.626.186-1.626.547-4.866,8.965-18.684,15.384-22.851.752-.489,1.821-.022,2.265,1.271a8.736,8.736,0,0,1,.5,3.147,1.655,1.655,0,0,0,2.514,1.551c4.568-3.122,13.213-11.519,23.114-14.313l9.314.772c3.023.993,16.93,4.867,28.132,22.255l11.1,5.989a7.428,7.428,0,0,1,5.318-1.393,6.705,6.705,0,0,1,5.719,3.619l.8,1.592c3.139-6.706,2.94-18.175,3.016-23.132a46.071,46.071,0,0,0-2.019-14.056c-2.752-9.04-6.636-16.371-14.081-22.569l-1.483-1.235-7.675-4.865a51.2,51.2,0,0,0-34.481-8.167c-17.426,1.78-31.121,9.259-39.97,20.843A49.974,49.974,0,0,0,84.432,134.279Z" transform="translate(-10.559 35.832)" fill="#ff7c64"/>
      <path id="パス_93191" data-name="パス 93191" d="M347.183,220.565a7.432,7.432,0,0,1,5.335-1.313,6.708,6.708,0,0,1,5.666,3.7l.772,1.6c3.248-6.661,3.215-18.126,3.364-23.089a46.109,46.109,0,0,0-1.808-14.065c-2.629-9.1-6.394-16.481-13.746-22.79l-1.439-1.235-3.933-2.572-3.7-2.42a51.194,51.194,0,0,0-34.354-8.682c-17.452,1.521-31.264,8.8-40.277,20.245a53.821,53.821,0,0,0-9.96,24.423,84.971,84.971,0,0,0,2.176,31.224l.087.313-.181-4.726c-.321-8.359,6.5-20.928,14.553-24.115,5.674-2.1,14.769,1.1,21.008,1.829,10.329,1.21,29.426-2.131,33.915,2.641,3.524,2.551,8.359,25.047,11.175,20.555,0,0,.017,1.259-.01,2.01C338.778,223.983,347.183,220.565,347.183,220.565Z" transform="translate(38.191 50.692)" fill="#ff7c64"/>
      <path id="パス_93192" data-name="パス 93192" d="M327.6,28.98c-3.064-7.217-5.62-14.854-10.218-21.288-2.274-3.183-5.3-6.321-9.245-7.289a12.253,12.253,0,0,0-8.832.979,8.752,8.752,0,0,0-4.414,9.53,2.594,2.594,0,0,0,3.165,1.8,2.634,2.634,0,0,0,1.8-3.165c-.413-2.458,1.608-3.791,3.4-4.251.2-.051,1.016-.129.2-.072.5-.035.994-.05,1.492-.044a7.254,7.254,0,0,1,2.624.422,11.666,11.666,0,0,1,4.372,3.392c5.369,6.448,7.986,14.975,11.216,22.586a2.586,2.586,0,0,0,3.518.923,2.64,2.64,0,0,0,.923-3.52Z" transform="translate(50.247 7.96)" fill="#333"/>
      <path id="パス_93193" data-name="パス 93193" d="M294.863,9.206a26.008,26.008,0,0,0,1.506,5.233,25.349,25.349,0,0,0,2.344,4.928,7.388,7.388,0,0,0,4.079,3.055,5.426,5.426,0,0,0,4.06-.324,9.372,9.372,0,0,0,3.571-5.09,2.587,2.587,0,0,0-1.8-3.164,2.636,2.636,0,0,0-3.164,1.8c-.045.129-.091.257-.141.386q.2-.455.024-.064c-.114.229-.224.459-.35.683-.09.157-.184.312-.283.464-.063.1-.129.192-.2.285q.356-.448.105-.136c-.1.112-.2.225-.3.331-.162.162-.666.5.032.012-.454.316.736-.224.129-.059-.514.136.673-.033.27-.031-.094,0-.186.009-.28.009-.337,0-.5-.19.177.05-.129-.048-.294-.053-.432-.089-.112-.03-.221-.069-.333-.1-.4-.121.635.32.049.013-.114-.06-.228-.129-.337-.2-.565-.363.284.3-.031-.015-.129-.129-.251-.235-.368-.364-.42-.462.226.4-.04-.04-.215-.354-.418-.707-.606-1.076q-.32-.628-.62-1.264-.145-.3-.283-.613c-.055-.129-.454-.877-.129-.285a14.475,14.475,0,0,1-.967-2.656,23.926,23.926,0,0,1-.725-3.037,2.584,2.584,0,0,0-3.165-1.8,2.644,2.644,0,0,0-1.8,3.164Z" transform="translate(50.272 9.666)" fill="#333"/>
      <path id="パス_93194" data-name="パス 93194" d="M295.221,24.181a7.323,7.323,0,0,0,6.421-.814,5.5,5.5,0,0,0,1.529-1.487,6.615,6.615,0,0,0,.712-1.425,9.3,9.3,0,0,0,.557-2.572,2.573,2.573,0,0,0-4.392-1.818l-.4.514a2.555,2.555,0,0,0-.351,1.3c-.008.071-.015.14-.024.211l.091-.684a6.834,6.834,0,0,1-.457,1.718l.257-.615a4,4,0,0,1-.484.835l.4-.521a2.5,2.5,0,0,1-.369.369l.521-.4a5.451,5.451,0,0,1-1.055.6l.615-.257a5.263,5.263,0,0,1-1.316.364l.684-.093a4.887,4.887,0,0,1-1.233-.01l.683.093a5.154,5.154,0,0,1-1.029-.269,2.57,2.57,0,0,0-2.9,3.776,2.907,2.907,0,0,0,1.537,1.182Z" transform="translate(49.855 12.342)" fill="#333"/>
      <path id="パス_93195" data-name="パス 93195" d="M297.117,21.476a35.5,35.5,0,0,1-2.843-5.388,15.974,15.974,0,0,1-.878-2.411c-.068-.257-.129-.514-.179-.778-.108-.514-.033.2-.044-.369,0-.2-.017-.4-.012-.6,0-.085.085-.763.024-.437-.067.354.064-.257.082-.316.057-.216.129-.426.2-.635-.19.514.075-.1.122-.18s.392-.514.175-.275.271-.239.323-.292c.244-.257-.394.207-.022.033a2.006,2.006,0,0,0,.414-.219c-.028.129-.529.188.014.024.17-.051.343-.085.514-.129.453-.116-.339-.04-.05,0a3.281,3.281,0,0,0,.561-.017c.373-.012.244-.077-.026-.033a1.881,1.881,0,0,1,.557.122c.271.078.466.3.1.019.152.116.342.192.5.3-.359-.257-.09-.042.08.138a2.6,2.6,0,0,0,3.638,0,2.627,2.627,0,0,0,0-3.638,7.16,7.16,0,0,0-6.724-1.851,7.038,7.038,0,0,0-5.172,4.732,10.886,10.886,0,0,0,.618,7.673,38.9,38.9,0,0,0,3.584,7.123,2.572,2.572,0,0,0,4.442-2.6Z" transform="translate(48.345 9.204)" fill="#333"/>
      <path id="パス_93196" data-name="パス 93196" d="M291.927,24.29c-.22-.1-.435-.211-.643-.336-.05-.03-.563-.386-.342-.215s-.235-.229-.276-.266c-.481-.439.235.408-.163-.2-.5-.756-1-1.5-1.44-2.294-.229-.41-.444-.828-.643-1.258.145.323-.031-.082-.078-.211-.073-.2-.141-.4-.2-.6a12.13,12.13,0,0,1-.31-1.286c-.041-.221-.068-.494-.03-.116-.023-.229-.044-.457-.053-.687a6.725,6.725,0,0,1,.039-1.127c-.08.607.05-.1.072-.185s.219-.629.089-.314.129-.225.163-.284c.278-.531-.257.2.116-.176.114-.116.239-.222.35-.339.2-.208-.377.221.028-.013.17-.1.347-.19.514-.291-.274.163-.273.1.026,0,.157-.05.316-.085.475-.129.563-.156-.494-.023.086-.008a4.273,4.273,0,0,0,.48.008c.271-.023-.458-.15-.028.012a2.546,2.546,0,0,1,.273.081c.18.063.12.037-.179-.078.152.112.333.193.489.3a2.585,2.585,0,0,0,3.518-.923,2.638,2.638,0,0,0-.922-3.518,6.772,6.772,0,0,0-6.988-.1,7.459,7.459,0,0,0-3.729,6.173A13.641,13.641,0,0,0,284.307,23c1.157,2.27,2.638,4.6,5.015,5.72a2.572,2.572,0,0,0,2.6-4.442Z" transform="translate(46.789 10.484)" fill="#333"/>
      <path id="パス_93197" data-name="パス 93197" d="M316.7,24.809a20.784,20.784,0,0,0,2.762,3.54c1.346,1.494,2.767,2.922,4.2,4.336a2.572,2.572,0,0,0,3.638-3.638,64.68,64.68,0,0,1-5.729-6.143l.4.521a10.526,10.526,0,0,1-.828-1.213,2.572,2.572,0,0,0-4.442,2.6Z" transform="translate(56.438 13.95)" fill="#333"/>
      <path id="パス_93198" data-name="パス 93198" d="M313.1,38.742q-1.057-1.217-2.135-2.418a2.649,2.649,0,0,0-3.638,0l-.4.521a2.561,2.561,0,0,0-.351,1.3l.091.683a2.584,2.584,0,0,0,.661,1.136c.716.8,1.431,1.6,2.135,2.418a2.649,2.649,0,0,0,3.638,0l.4-.514a2.555,2.555,0,0,0,.351-1.3l-.093-.684a2.571,2.571,0,0,0-.661-1.136Z" transform="translate(53.644 18.144)" fill="#333"/>
      <path id="パス_93199" data-name="パス 93199" d="M315.149,40.45c-3.673,1.745-7.716,4.006-11.822,4.438-4.039.426-6.983-1.616-9.7-4.383a8.785,8.785,0,0,1-2.846-5.122,16.692,16.692,0,0,1,.315-5.876c.368-1.636.818-3.26,1.327-4.857.114-.359.242-.714.361-1.071.042-.129.091-.264.145-.386-.055.129-.212.284,0,0a3.162,3.162,0,0,1,1.431-.959,2.847,2.847,0,0,1,.759-.2c-.507,0,0,.058.111.162a3.261,3.261,0,0,1,.593.561,7.279,7.279,0,0,1,.563,2.146c.48,2.232.9,4.478,1.349,6.715.655,3.242,5.615,1.87,4.96-1.368-.5-2.467-.944-4.947-1.5-7.4a7.1,7.1,0,0,0-4.417-5.53,7.362,7.362,0,0,0-7.321,2.016c-1.48,1.466-1.978,3.792-2.528,5.734-1.368,4.833-2.582,10.991.23,15.546,2.725,4.416,7.48,8.5,12.709,9.286,6.3.949,12.37-2.383,17.875-5a2.6,2.6,0,0,0,.922-3.52,2.629,2.629,0,0,0-3.518-.922Z" transform="translate(47.603 12.837)" fill="#333"/>
      <path id="パス_93200" data-name="パス 93200" d="M285.736,14.6a6.411,6.411,0,0,0-7.289,2.914,9.669,9.669,0,0,0-.022,8.379,29.024,29.024,0,0,0,3.97,7.045c1.876,2.373,4.545,4.483,7.733,4.341a2.626,2.626,0,0,0,2.572-2.572,2.6,2.6,0,0,0-2.572-2.572,4.757,4.757,0,0,1-.716-.008c.548.058-.129-.069-.246-.1-.581-.129.246.185-.287-.112-.222-.129-.436-.257-.655-.386-.6-.364.217.237-.324-.24-.21-.184-.415-.369-.612-.566a13.073,13.073,0,0,1-1.164-1.309,25.749,25.749,0,0,1-2.587-4.588c-.089-.193-.176-.386-.257-.581.185.433-.078-.2-.113-.291-.157-.409-.3-.823-.426-1.245a3.809,3.809,0,0,1-.022-2.067c0-.022.265-.782.075-.329a5.761,5.761,0,0,1,.328-.608c-.193.338-.064.066.12-.1-.386.356.269-.04-.223.145.212-.081.435-.122.652-.185.472-.129-.19-.01.087-.015a2.444,2.444,0,0,0,.607-.012q.316.019-.257-.05a1.74,1.74,0,0,1,.266.064,2.572,2.572,0,1,0,1.367-4.96Z" transform="translate(45.324 12.067)" fill="#333"/>
      <path id="パス_93201" data-name="パス 93201" d="M222.02,146.774c1.661,9.259,3.166,18.548,4.806,27.811.957,5.41,3.179,10.342,5.292,15.4q1.781,4.262,3.623,8.5c.4.922.805,1.843,1.223,2.758.12.257.239.525.365.784.14.288.108.257-.012-.064.072.194.145.386.2.588a29.256,29.256,0,0,1,.968,6.875c.226,3.507.279,7.023.276,10.536,0,7.183-.244,14.375-.675,21.545-.2,3.306,4.946,3.295,5.144,0q.566-9.43.66-18.885c.066-6.5.2-13.222-.99-19.642a21.42,21.42,0,0,0-1.76-4.916c-1.082-2.411-2.121-4.842-3.152-7.275q-1.776-4.194-3.472-8.421a46.071,46.071,0,0,1-2.148-5.9c-1.195-4.874-1.766-9.99-2.6-14.939-.909-5.375-1.827-10.748-2.791-16.115a2.594,2.594,0,0,0-3.164-1.8,2.629,2.629,0,0,0-1.8,3.164Z" transform="translate(29.437 49.006)" fill="#333"/>
      <path id="パス_93202" data-name="パス 93202" d="M247.691,93.136a4.353,4.353,0,0,0-4.641-4.228,24.017,24.017,0,0,0-5.508,1.137c-1.8.49-3.583,1.061-5.339,1.695a13.43,13.43,0,0,0-2.367.962,4.051,4.051,0,0,0-1.878,3.18c-.147,1.987,1.4,3.539,2.676,4.874a35.807,35.807,0,0,0,4.123,3.633,6.646,6.646,0,0,0,4.447,1.628,6.26,6.26,0,0,0,4.577-2.24,19.665,19.665,0,0,0,2.681-5.492,20.589,20.589,0,0,0,1.229-5.144,2.581,2.581,0,0,0-2.572-2.572,2.641,2.641,0,0,0-2.572,2.572c-.044.458.037-.122.032-.166a1.732,1.732,0,0,1-.059.367c-.046.257-.1.521-.162.779-.129.571-.3,1.134-.476,1.691s-.386,1.118-.593,1.672c-.1.257-.2.522-.314.779.172-.405.009-.027-.024.046-.081.18-.161.36-.244.539-.237.514-.5,1-.756,1.5-.194.386,0,.03.077-.055-.081.093-.162.186-.249.273a1.286,1.286,0,0,1-.27.244c.242-.089.319-.206,0-.05-.522.257.318-.031-.118.055a3.388,3.388,0,0,1-.343.087c-.032-.067.583-.015.157-.024h-.356c-.43.022.194-.022.149.031a1.134,1.134,0,0,1-.264-.06c-.367-.093-.237.035.009.042-.194,0-.5-.282-.656-.386-.129-.086-.243-.181-.364-.271-.066-.049-.373-.3-.035-.027-.514-.412-1.016-.824-1.507-1.256a28.114,28.114,0,0,1-2.738-2.742c-.105-.121-.208-.244-.31-.368-.045-.054-.378-.405-.163-.2.15.143-.024-.288.021.072.021.167.089.321.1.5-.015-.441-.023.129-.04.194a1.286,1.286,0,0,1-.347.561c.1-.109.35-.288-.117.087-.289.231-.111.054.144-.041q1.907-.718,3.858-1.326c1.543-.482,3.11-.912,4.689-1.272.348-.08.7-.156,1.048-.229.174-.036.348-.067.522-.1.739-.162-.23-.046.107-.023.093,0,.538-.039.174-.031q-.309-.055.053.021l-.249-.122.17.1-.211-.153-.143-.192q-.2-1.215-.19-.54a2.572,2.572,0,0,0,5.144,0Z" transform="translate(31.158 33.386)" fill="#333"/>
      <path id="パス_93203" data-name="パス 93203" d="M289.835,76.9h0a2.539,2.539,0,0,0,1.274-2.221,108.2,108.2,0,0,0-1.768-14.988A66.521,66.521,0,0,0,286.1,46.841c-3.8-9.829-10.137-19.032-18.871-25.077-2.728-1.889-5.3,2.572-2.6,4.442,7.824,5.419,13.646,14.116,16.872,22.977a68.131,68.131,0,0,1,2.877,11.879,98.215,98.215,0,0,1,1.584,13.621l1.273-2.221h0c-2.939,1.526-.341,5.967,2.6,4.442Z" transform="translate(41.321 14.056)" fill="#333"/>
      <path id="パス_93204" data-name="パス 93204" d="M239.291,76.9c-.949-2.123-1.13-7.253,3-8.2,5.53-.643,6.575,5.455,5.069,8.569C246.126,79.822,241.769,81.353,239.291,76.9Z" transform="translate(34.241 27.597)" fill="#333"/>
      <path id="パス_93205" data-name="パス 93205" d="M213.883,80.825c-.9-2.137-1.133-7.276,2.643-8.167,5.065-.572,6.107,5.549,4.766,8.646C220.194,83.836,216.216,85.313,213.883,80.825Z" transform="translate(26.977 28.731)" fill="#333"/>
      <path id="パス_93206" data-name="パス 93206" d="M227.613,81.412c-.529,1.322-1.015,2.663-1.431,4.025a4.758,4.758,0,0,0-.2,2.041,3.433,3.433,0,0,0,1.734,2.546,4.815,4.815,0,0,0,2.229.68c.289.022.572-.018.862-.021a2.67,2.67,0,0,0,1.818-.754,2.572,2.572,0,0,0-1.818-4.39,6.918,6.918,0,0,1-.966.008l.684.091a2.251,2.251,0,0,1-.449-.122l.613.257a3.065,3.065,0,0,1-.6-.349l.514.4a.613.613,0,0,1-.111-.105l.4.521a.962.962,0,0,1-.112-.189l.257.615a1.3,1.3,0,0,1-.055-.219l.093.683a1.91,1.91,0,0,1,0-.4l-.091.683A13.5,13.5,0,0,1,231.72,85c.266-.747.544-1.492.838-2.229a2.57,2.57,0,0,0-3.776-2.9l-.521.4a2.572,2.572,0,0,0-.661,1.136Z" transform="translate(30.585 30.704)" fill="#333"/>
      <path id="パス_93207" data-name="パス 93207" d="M264.4,105.5a58.2,58.2,0,0,0,11.642-20.375,2.572,2.572,0,1,0-4.96-1.367c-.221.723-.485,1.431-.76,2.136q-.228.583-.468,1.157c-.072.177-.145.354-.22.53.073-.174.138-.32.024-.062-.565,1.3-1.183,2.572-1.838,3.828a55.081,55.081,0,0,1-7.057,10.514,2.638,2.638,0,0,0,0,3.637,2.592,2.592,0,0,0,3.637,0Z" transform="translate(40.334 31.375)" fill="#333"/>
      <path id="パス_93208" data-name="パス 93208" d="M276.526,18.961a52.159,52.159,0,0,0-27.51-5.3,64.179,64.179,0,0,0-24.925,7.731,51.871,51.871,0,0,0-17.635,16.075,50.559,50.559,0,0,0-8.081,25.694,74.506,74.506,0,0,0,5.231,29.815,2.647,2.647,0,0,0,3.165,1.8,2.591,2.591,0,0,0,1.8-3.164c-5.871-15.245-7.882-33.97.544-48.7,7.69-13.441,22.06-21.251,37.011-23.73a46.72,46.72,0,0,1,27.8,4.221c2.976,1.415,5.59-3.022,2.6-4.44Z" transform="translate(22.691 11.82)" fill="#333"/>
      <path id="パス_93209" data-name="パス 93209" d="M269.741,111.054c-10.337,6.863-22.705,11.22-34.994,7.23a30.811,30.811,0,0,1-14.2-9.217A42.259,42.259,0,0,1,213.1,94.633c-2.4-7.481-4.055-15.2-6.277-22.74-.934-3.169-5.9-1.82-4.96,1.367,2.151,7.3,3.8,14.744,6.044,22.01a50.539,50.539,0,0,0,8.127,16.356c8.156,10.432,22.255,14.877,35.085,12.8A54.443,54.443,0,0,0,272.34,115.5c2.746-1.824.172-6.281-2.6-4.442Z" transform="translate(23.665 28.006)" fill="#333"/>
      <path id="パス_93210" data-name="パス 93210" d="M274.1,66.412a4.873,4.873,0,0,1,4.4-.994,3.9,3.9,0,0,1,.957.342c.066.035.7.455.406.23a5.906,5.906,0,0,1,.6.586c.129.147.1.107-.072-.117.072.1.141.2.208.3a13.293,13.293,0,0,1,1.15,9.051,16.875,16.875,0,0,1-3.953,8.23c-.309.329-.643.631-.965.941q-.617.521-.18.174c-.141.1-.285.2-.433.291a12.54,12.54,0,0,1-1.788.931,7.531,7.531,0,0,1-4.812.552c-3.194-.887-4.558,4.074-1.367,4.96a13.632,13.632,0,0,0,10.789-2.149,18.6,18.6,0,0,0,6.543-8.885,21.661,21.661,0,0,0,1.448-10.125c-.345-3.263-1.286-6.665-4-8.745a10.038,10.038,0,0,0-12.573.787c-2.443,2.24,1.2,5.871,3.637,3.638Z" transform="translate(42.167 25.161)" fill="#333"/>
      <path id="パス_93211" data-name="パス 93211" d="M207.444,151.97a73.271,73.271,0,0,1,7.32-11.526,48.258,48.258,0,0,1,11.212-9.718c8.929-5.584,19.351-9.085,25.334-18.338,1.8-2.788-2.648-5.369-4.442-2.6-5.8,8.967-16.96,11.96-25.372,17.725a52.184,52.184,0,0,0-11.048,10.109A84.526,84.526,0,0,0,203,149.374c-1.646,2.879,2.8,5.473,4.442,2.6Z" transform="translate(23.922 39.021)" fill="#333"/>
      <path id="パス_93212" data-name="パス 93212" d="M264.535,94.064a22.094,22.094,0,0,0,13.7,12.83,2.591,2.591,0,0,0,3.164-1.8,2.63,2.63,0,0,0-1.8-3.164c-.339-.111-.675-.226-1.008-.355-.08-.03-.571-.2-.189-.069s-.189-.085-.265-.12a19.068,19.068,0,0,1-1.74-.907c-.592-.347-1.157-.736-1.712-1.13-.386-.276.27.222.023.022-.114-.094-.231-.185-.347-.28q-.413-.341-.806-.7c-.48-.444-.939-.912-1.372-1.4-.217-.246-.421-.5-.631-.751q-.175-.224.129.17l-.156-.206c-.089-.12-.176-.239-.257-.361a18.585,18.585,0,0,1-1.04-1.659c-.172-.311-.337-.628-.491-.948-.077-.161-.148-.324-.224-.486-.22-.475.2.485-.017-.042a2.8,2.8,0,0,0-1.182-1.543,2.572,2.572,0,0,0-3.778,2.9Z" transform="translate(41.596 33.932)" fill="#333"/>
      <path id="パス_93213" data-name="パス 93213" d="M341,88.95a158,158,0,0,0-15.046-20.16c-6.117-6.885-12.5-13.539-18.745-20.309v3.638a195.871,195.871,0,0,1,27.173-22.691l-3.116-.4c2.433,2.863,5.314,5.413,8,8.032q6.717,6.549,13.494,13.036c3.5,3.36,7,6.709,10.486,10.081a159.084,159.084,0,0,1,13.908,15.657,85.692,85.692,0,0,1,8.563,12.86,22.329,22.329,0,0,1,2.461,12.57c-.63,4.559-3.675,9.151-6.593,12.6a51.071,51.071,0,0,1-8.994,8.166c-9.516,6.929-19.445,13.314-29.16,19.951-9.911,6.771-19.885,13.484-29.277,20.968l-2.106,1.686a2.587,2.587,0,0,0,0,3.637,2.634,2.634,0,0,0,3.638,0l5.071-4.041c.046-.036.247-.2.032-.028s.354-.269.42-.32c.472-.36.948-.715,1.425-1.07q1.6-1.192,3.232-2.358c5.617-4.043,11.317-7.973,17.029-11.881,10.451-7.163,21.061-14.116,31.395-21.449,6.853-4.865,12.871-10.647,16.656-18.261a22.247,22.247,0,0,0,1.929-14.543,36.814,36.814,0,0,0-5.908-13.577c-7.406-11.488-17.017-21.266-26.825-30.685-8.1-7.783-16.392-15.432-24.185-23.533-.36-.373-.721-.747-1.058-1.143a2.58,2.58,0,0,0-3.117-.4,203.224,203.224,0,0,0-28.22,23.5,2.621,2.621,0,0,0,0,3.638c6.126,6.642,12.38,13.176,18.4,19.919a150.589,150.589,0,0,1,14.6,19.51C338.336,94.33,342.789,91.753,341,88.95Z" transform="translate(52.573 15.006)" fill="#333"/>
      <path id="パス_93214" data-name="パス 93214" d="M307.131,130.94a18.39,18.39,0,0,0,.514,7.119c.484,2.38,1.057,4.744,1.652,7.1q2.09,8.255,4.63,16.387c.984,3.149,5.95,1.8,4.96-1.367q-2.407-7.708-4.41-15.537c-.58-2.261-1.138-4.528-1.631-6.816-.186-.863-.364-1.727-.514-2.6q-.1-.561-.185-1.124c.1.658-.039-.361-.055-.574a4.628,4.628,0,0,1,.008-1.229c.621-3.234-4.335-4.619-4.96-1.367Z" transform="translate(53.763 44.877)" fill="#333"/>
      <path id="パス_93215" data-name="パス 93215" d="M245.23,132.769a62.039,62.039,0,0,0,11.54,1.438,35.688,35.688,0,0,0,10.8-1.721,21.039,21.039,0,0,0,8.035-4.26c2.415-2.064,4.45-4.511,6.677-6.766,2.329-2.357-1.307-6-3.638-3.637-1.929,1.955-3.715,4.051-5.733,5.915a15.985,15.985,0,0,1-6.708,3.782,31.842,31.842,0,0,1-9.131,1.543,51.725,51.725,0,0,1-10.481-1.263c-3.225-.712-4.6,4.244-1.367,4.96Z" transform="translate(35.572 41.439)" fill="#333"/>
      <path id="パス_93216" data-name="パス 93216" d="M281.472,106.291c3.7-2.578,7.752-5.441,10.045-9.443a12.9,12.9,0,0,0,1.13-9.753c-.8-3.207-2.135-6.286-3.048-9.466a72.714,72.714,0,0,1-2.562-14.274c-.257-3.278-5.409-3.306-5.144,0a95.38,95.38,0,0,0,5.184,23.1c.848,2.513,1.415,4.911.316,7.209-1.678,3.529-5.415,6.026-8.513,8.183-2.7,1.878-.129,6.339,2.6,4.442Z" transform="translate(45.396 25.375)" fill="#333"/>
      <path id="パス_93217" data-name="パス 93217" d="M226.7,50.135c-4.771,5.131-10.024,9.773-14.848,14.858-4.221,4.443-8.322,8.957-9,15.3a2.587,2.587,0,0,0,2.572,2.572A2.631,2.631,0,0,0,208,80.3c.552-5.182,5.144-9.268,8.565-12.783,4.527-4.648,9.354-8.989,13.774-13.743,2.252-2.422-1.377-6.067-3.637-3.637Z" transform="translate(23.982 22.071)" fill="#333"/>
      <path id="パス_93218" data-name="パス 93218" d="M229.856,118.839,227.308,131.2a2.667,2.667,0,0,0,1.182,2.9l8.616,5.465-.922-3.518a40.54,40.54,0,0,0-3.823,6.89,15.572,15.572,0,0,0-1.286,3.547,4.155,4.155,0,0,0,1.313,3.621c2.153,2.539,4.244,5.123,6.459,7.61,5,5.607,10.175,11.083,15.586,16.292a35.589,35.589,0,0,0,5.589,4.829c2.829,1.745,5.41-2.7,2.6-4.442-.212-.129-.412-.28-.613-.428.613.448-.422-.364-.62-.535-.823-.711-1.619-1.451-2.409-2.2-2.238-2.114-4.408-4.3-6.559-6.506-4.853-4.987-9.618-10.087-14.078-15.432q-.751-.9-1.481-1.809a4.074,4.074,0,0,0-.7-.872c-.508-.321.248.231.076.395a3.808,3.808,0,0,0,.4-1.052,37.438,37.438,0,0,1,3.987-7.316,2.611,2.611,0,0,0-.923-3.52l-8.616-5.465,1.182,2.905,2.548-12.357c.667-3.232-4.29-4.613-4.96-1.368Z" transform="translate(30.953 41.419)" fill="#333"/>
      <path id="パス_93219" data-name="パス 93219" d="M282.53,102.339a35.411,35.411,0,0,1,9.5,9.961l.923-3.518c-3.569,2.443-7.082,4.955-10.657,7.382a2.6,2.6,0,0,0,0,4.442,57.984,57.984,0,0,1,10.015,6.642l-.65-2.5c-3.054,10.416-5.952,20.882-8.98,31.307-.925,3.185,4.038,4.545,4.961,1.367,3.027-10.425,5.924-20.889,8.979-31.307a2.528,2.528,0,0,0-.661-2.5,64.214,64.214,0,0,0-11.059-7.447v4.442c3.576-2.427,7.09-4.943,10.658-7.383a2.62,2.62,0,0,0,.922-3.518A41.854,41.854,0,0,0,285.137,97.9a2.59,2.59,0,0,0-3.519.923,2.629,2.629,0,0,0,.922,3.518Z" transform="translate(46.343 35.861)" fill="#333"/>
      <path id="パス_93220" data-name="パス 93220" d="M236.627,114.806a92.586,92.586,0,0,0,7.128,15c3.086,5.4,6.206,10.787,9.436,16.1s6.566,10.568,10.031,15.733a87.336,87.336,0,0,0,10.072,13.117c2.335,2.352,5.973-1.286,3.637-3.637a82.656,82.656,0,0,1-9.6-12.585q-5.015-7.5-9.7-15.226c-3.125-5.144-6.152-10.348-9.13-15.577a88.154,88.154,0,0,1-6.911-14.3c-1.093-3.1-6.065-1.766-4.96,1.368Z" transform="translate(33.595 39.9)" fill="#333"/>
      <path id="パス_93221" data-name="パス 93221" d="M270.955,175.749c1.929-25.064,4.639-50.11,10.492-74.6.772-3.215-4.19-4.59-4.96-1.367-5.959,24.926-8.712,50.454-10.674,75.965-.257,3.3,4.887,3.284,5.144,0Z" transform="translate(41.984 35.973)" fill="#333"/>
      <path id="パス_93222" data-name="パス 93222" d="M275.659,109.587a11.317,11.317,0,0,0,6.415,2.235c2.469-.045,4.925-1.415,7.176-2.315q7.34-2.928,14.556-6.157,7.049-3.156,13.957-6.607a100.179,100.179,0,0,0,12.943-6.991,30.863,30.863,0,0,0,9.95-10.64c1.5-2.942-2.935-5.548-4.442-2.6a25.955,25.955,0,0,1-9.83,9.916c-5.171,3.063-10.7,5.658-16.111,8.268q-8.158,3.924-16.506,7.439-4.187,1.758-8.421,3.407a8.769,8.769,0,0,1-3.754,1.116,7.587,7.587,0,0,1-3.344-1.523c-2.743-1.87-5.319,2.585-2.6,4.442Z" transform="translate(44.469 29.473)" fill="#333"/>
      <path id="パス_93223" data-name="パス 93223" d="M60.305,232.215q-.176-.934-.3-1.875l.091.683a34.42,34.42,0,0,1-.237-6.3,2.589,2.589,0,0,0-2.572-2.572,2.629,2.629,0,0,0-2.572,2.572,37.113,37.113,0,0,0,.631,8.862,2.572,2.572,0,1,0,4.96-1.361Z" transform="translate(-18.396 71.493)" fill="#333"/>
      <path id="パス_93224" data-name="パス 93224" d="M55.721,234.493a33.138,33.138,0,0,0,14.126-8.226c1.4-1.39,2.666-2.9,4-4.35,1.829-1.984,3.8-3.791,5.464-5.928,4.154-5.343,6.6-12.884,2.019-18.775-4.541-5.834-13.656-.665-18.566,1.948a7.047,7.047,0,0,0-3.848,8.252c.921,3.2,3.81,4.17,6.807,4.523a2.586,2.586,0,0,0,2.572-2.572,2.635,2.635,0,0,0-2.572-2.572,5.372,5.372,0,0,1-1.7-.472c-.078-.044-.193-.3-.051,0a2.1,2.1,0,0,1-.184-1.078c.1-.833.662-1.157,1.341-1.519,1.114-.6,2.253-1.157,3.395-1.7,2.146-1.029,4.484-2.244,6.921-2.261,2.119-.014,3.041,2.142,3.27,4.037.592,4.915-3.562,9.516-6.766,12.694-2.112,2.1-3.976,4.428-6.117,6.494a27.488,27.488,0,0,1-11.48,6.533c-3.167.939-1.818,5.9,1.367,4.96Z" transform="translate(-19.003 63.598)" fill="#333"/>
      <path id="パス_93225" data-name="パス 93225" d="M64.938,192.918a10.776,10.776,0,0,1,6.144,3.048c1.328,1.543,2.173,3.482,3.556,4.975,3.434,3.707,9.925,2.789,12.542-1.435,2.738-4.42,0-9.8-2.082-13.871-2.553-5-6.155-9.516-12.162-9.979a23.182,23.182,0,0,0-9.2,1.811c-3.062,1.064-6.066,2.285-9.033,3.588-2.829,1.244-5.7,2.506-8.408,4.01a19.916,19.916,0,0,0-5.825,5.211c-2.6,3.315-3.44,7.92-4.464,11.929q-1.839,7.193-3.183,14.5a126.939,126.939,0,0,0-2.133,16,34.707,34.707,0,0,0,.9,7.473c.48,2.974.8,5.973,1.106,8.97a2.645,2.645,0,0,0,2.572,2.572,2.587,2.587,0,0,0,2.572-2.572c-.476-4.61-1.111-9.166-1.9-13.732-.607-3.508.276-7.562.795-11.048a196.58,196.58,0,0,1,5.372-25,22.955,22.955,0,0,1,1.58-4.681,13.993,13.993,0,0,1,4.132-4.529,47.815,47.815,0,0,1,7.01-3.543c2.54-1.172,5.112-2.27,7.729-3.259,4.417-1.672,10.266-4.416,14.353-.678a19.291,19.291,0,0,1,3.873,5.795,20.962,20.962,0,0,1,2.411,6.2,2.937,2.937,0,0,1-1.885,3.251,2.767,2.767,0,0,1-2.371-.051,2.559,2.559,0,0,1-.976-1.042,24.474,24.474,0,0,0-4.258-5.544,16.773,16.773,0,0,0-7.393-3.328c-3.227-.7-4.605,4.253-1.368,4.96Z" transform="translate(-25.253 58.197)" fill="#333"/>
      <path id="パス_93226" data-name="パス 93226" d="M51.2,196.341c.772.153,1.543.338,2.3.566.5.15.986.318,1.47.505.111.042.219.09.328.129-.832-.307-.251-.107-.062-.022q.366.166.723.348a14.041,14.041,0,0,1,1.483.872q.162.109.32.224c.548.395-.338-.291,0,0,.22.185.44.369.649.567s.415.409.61.626c.118.129.222.3.352.415-.192-.175-.324-.437-.071-.08a9.083,9.083,0,0,1,.523.829c.071.129.138.257.2.379.08.161.356.817.041.053a2.829,2.829,0,0,0,1.182,1.537,2.629,2.629,0,0,0,1.982.257,2.6,2.6,0,0,0,1.8-3.165,12.821,12.821,0,0,0-2.74-4.259,14.794,14.794,0,0,0-3.512-2.581,22.481,22.481,0,0,0-6.21-2.163,2.572,2.572,0,0,0-1.367,4.96Z" transform="translate(-19.927 62.667)" fill="#333"/>
      <path id="パス_93227" data-name="パス 93227" d="M47.373,203.85a23.24,23.24,0,0,1,2.821.981l-.615-.257c1.169.5,2.3,1.071,3.418,1.672a2.7,2.7,0,0,0,1.982.257,2.572,2.572,0,0,0,.615-4.7,32.883,32.883,0,0,0-6.854-2.918,2.658,2.658,0,0,0-1.982.257,2.572,2.572,0,0,0,.615,4.7Z" transform="translate(-21.023 64.815)" fill="#333"/>
      <path id="パス_93228" data-name="パス 93228" d="M52.562,205.661a3.255,3.255,0,0,0,.6.386c-.129-.024-.365-.316-.114-.071.084.081.17.157.257.239a3.357,3.357,0,0,1,.233.257c.369.4-.189-.316-.042-.048.1.193.221.394.336.58.166.269-.147-.46-.064-.158.028.1.071.207.1.311s.045.215.077.318c.09.285,0-.5-.024-.2-.014.21,0,.437,0,.643-.006.3.129-.487.015-.2-.048.129-.073.274-.112.4-.116.386,0-.121.054-.129a2.08,2.08,0,0,0-.177.314c-.2.352,0-.1.082-.085a2.388,2.388,0,0,0-.248.257c-.288.3.055-.1.1-.068-.019-.014-.309.212-.325.186s.5-.153.072-.045l-.378.1c-.418.111.09.026.1,0a1.671,1.671,0,0,1-.419.036,8.611,8.611,0,0,1-1.015,0c-.15-.009-.3-.024-.45-.037-.386-.03.386.1.015-.006-.324-.094-.661-.147-.985-.243a2.572,2.572,0,0,0-2.5.662,2.719,2.719,0,0,0-.661,2.5c-.129-.932.013.158.039.394q.069.615.129,1.231c.085.817.168,1.632.257,2.443a2.634,2.634,0,0,0,2.572,2.572c1.262-.057,2.735-1.139,2.572-2.572-.208-1.812-.372-3.629-.617-5.437l-3.165,3.164a10.828,10.828,0,0,0,5.678.2,6.117,6.117,0,0,0,4.164-3.923c1.214-3.237-.718-6.8-3.556-8.423a2.572,2.572,0,1,0-2.6,4.442Z" transform="translate(-20.587 65.405)" fill="#333"/>
      <path id="パス_93229" data-name="パス 93229" d="M127.951,180.786a4.32,4.32,0,0,0-.965-3.729,4.785,4.785,0,0,0-2.517-1.472,18.37,18.37,0,0,0-6.341.346q-3.05.417-6.057,1.089c-2.067.457-4.289.824-5.21,3.005-.892,2.115.068,3.9,1.308,5.607a42.376,42.376,0,0,0,3.917,4.636,7.929,7.929,0,0,0,4.726,2.553,7.122,7.122,0,0,0,5.082-1.209,13.858,13.858,0,0,0,3.781-5.087,23.422,23.422,0,0,0,2.275-5.733,2.572,2.572,0,0,0-4.96-1.367,13.545,13.545,0,0,1-.451,1.583,11.753,11.753,0,0,1-.626,1.543,35.47,35.47,0,0,1-2.081,3.833c-.1.156-.2.309-.294.464-.023.036-.242.323-.058.1.163-.2-.294.287-.378.367-.342.327-.057.033.028-.018-.117.071-.229.148-.348.215s-.242.129-.364.184c.2-.091.32-.108.046-.046-.129.028-.266.066-.386.1-.177.053-.413-.014.087,0a3.294,3.294,0,0,0-.7.008c-.307.072.376.14.082.017a2.116,2.116,0,0,0-.3-.066c-.129-.033-.257-.091-.386-.12.468.1.12.064-.048-.036s-.625-.441-.273-.129c-.247-.217-.478-.448-.709-.683q-.795-.811-1.543-1.662a22.488,22.488,0,0,1-2.42-3.14c-.069-.108-.129-.221-.2-.327-.333-.485-.015-.084-.037.03,0-.012-.054-.729,0,.112.008.113-.156.538,0,.129a1.377,1.377,0,0,1-.189.386c-.055.068-.5.373-.234.219s-.129.064-.153.067a6.958,6.958,0,0,0,.832-.206q2.153-.514,4.332-.923c1.736-.319,3.047-.514,4.7-.685a17.754,17.754,0,0,1,2.45-.154c-.122,0-.487-.129-.055.015.292.1.121.073-.048-.028-.413-.249-.129-.166-.044-.03a1.2,1.2,0,0,1-.224-1.111,2.645,2.645,0,0,0,1.8,3.164,2.6,2.6,0,0,0,3.156-1.806Z" transform="translate(-3.57 58.139)" fill="#333"/>
      <path id="パス_93230" data-name="パス 93230" d="M297.484,233.07a4.43,4.43,0,0,0-3.462-5.273,20.207,20.207,0,0,0-5.887,0c-2.058.156-4.115.408-6.162.718a19.828,19.828,0,0,0-2.4.415,4.146,4.146,0,0,0-2.748,2.659c-.666,2,.484,3.83,1.523,5.462a38.751,38.751,0,0,0,3.422,4.538,7.459,7.459,0,0,0,4.308,2.829,6.61,6.61,0,0,0,5.521-1.494,12.75,12.75,0,0,0,1.906-2.315q.837-1.157,1.577-2.38a22.091,22.091,0,0,0,2.4-5.155,2.572,2.572,0,1,0-4.96-1.367c-.072.246-.149.489-.237.729-.035.1-.082.192-.111.289-.1.36.174-.368.008-.014-.257.539-.5,1.073-.786,1.6a33.179,33.179,0,0,1-2.113,3.394c-.171.243-.347.482-.523.721-.3.411-.12.156-.05.068-.1.12-.188.242-.291.356a2.689,2.689,0,0,0-.224.23c-.192.273.327-.152.033,0a2.22,2.22,0,0,0-.257.165c-.442.309.238-.017-.028.036-.225.045-.448.129-.676.176.624-.129-.1-.045-.307-.057.543.03.021-.086-.2-.094-.285-.009.257.224.053.023a3.036,3.036,0,0,0-.442-.266c.4.257-.063-.1-.207-.249-.2-.215-.4-.435-.59-.655-.468-.534-.926-1.079-1.359-1.641.186.242-.288-.386-.343-.466-.189-.257-.375-.523-.557-.788q-.611-.893-1.157-1.833c-.171-.3-.34-.6-.491-.913.033.068.054.333.044.1-.013-.334.028.288.022.363-.04.4-.266.566-.538.819-.086.081-.527.111-.063.048.226-.031.453-.081.678-.12,1.483-.257,2.537-.4,3.841-.549,1.65-.183,3.305-.311,4.964-.367a18.936,18.936,0,0,1,2.308-.013c-.121-.01-.5-.129-.076.018.292.1.109.045-.066-.041.393.193.023.014-.057-.059l-.154-.216q.365.7-.053-.79a2.572,2.572,0,1,0,4.96,1.367Z" transform="translate(45.08 73.047)" fill="#333"/>
      <path id="パス_93231" data-name="パス 93231" d="M171,169.427v-.013l-.351,1.3c3.445-7.209,3.412-15.721,3.489-23.549a55.63,55.63,0,0,0-7.039-27.83,43.081,43.081,0,0,0-9.8-11.767c-2.517-2.121-6.173,1.5-3.638,3.637a43.284,43.284,0,0,1,13.269,20.942c2.5,8.053,2.4,16.623,1.7,24.958a46.672,46.672,0,0,1-.94,6.43,28.287,28.287,0,0,1-.82,2.947,10.351,10.351,0,0,0-1.016,2.951c0,3.31,5.144,3.315,5.144,0Z" transform="translate(9.667 38.54)" fill="#333"/>
      <path id="パス_93232" data-name="パス 93232" d="M125.207,133.434c1.33.435,2.649.882,3.952,1.394a2.222,2.222,0,0,1,.373.152c.21.091.419.183.628.276q.908.409,1.8.856,1.793.9,3.5,1.96a52.974,52.974,0,0,1,16.342,16.436c1.8,2.765,6.252.19,4.442-2.6A59.026,59.026,0,0,0,138.324,133.8a52.833,52.833,0,0,0-11.746-5.323c-3.153-1.029-4.5,3.935-1.367,4.96Z" transform="translate(1.268 44.664)" fill="#333"/>
      <path id="パス_93233" data-name="パス 93233" d="M87.2,161.543c-.089.685.081-.257.116-.386.075-.294.165-.585.257-.873a20.073,20.073,0,0,1,.784-2,58,58,0,0,1,10.321-15.149,20.571,20.571,0,0,1,1.861-1.681,4.712,4.712,0,0,0,.772-.539l-1.448-.1.1.35a5.669,5.669,0,0,0,.222,1.043,7.083,7.083,0,0,0,.7,3.3,4.276,4.276,0,0,0,3.381,1.987c2.023.069,3.633-1.543,5.126-2.7,1.561-1.215,3.1-2.461,4.677-3.655,4.574-3.455,9.473-6.687,15.023-8.306,3.171-.926,1.821-5.891-1.368-4.96a48.248,48.248,0,0,0-14.559,7.573c-2.02,1.461-3.979,3.005-5.935,4.55-.674.532-1.344,1.067-2.031,1.582a5.459,5.459,0,0,0-.859.628c-.406.475-.436-.105.116.257q.716-.162.9.653v-.4a7.916,7.916,0,0,0-.853-4.043,4.425,4.425,0,0,0-3.215-2.652c-2.2-.409-4.089,1.463-5.572,2.839a52.34,52.34,0,0,0-8.505,10.791c-2.239,3.6-4.594,7.631-5.144,11.9a2.586,2.586,0,0,0,2.572,2.572,2.638,2.638,0,0,0,2.572-2.572Z" transform="translate(-10.561 44.498)" fill="#333"/>
      <path id="パス_93234" data-name="パス 93234" d="M120.864,162.331c-.739-2.362-.292-7.806,4.187-8.291,5.923,0,6.27,6.584,4.293,9.687C127.721,166.267,122.922,167.345,120.864,162.331Z" transform="translate(0.452 52.015)" fill="#333"/>
      <path id="パス_93235" data-name="パス 93235" d="M93.517,163.325c-.685-2.371-.292-7.83,3.808-8.3,5.426.024,5.765,6.624,3.962,9.73C99.812,167.3,95.423,168.368,93.517,163.325Z" transform="translate(-7.364 52.296)" fill="#333"/>
      <path id="パス_93236" data-name="パス 93236" d="M108.291,165.339a50.311,50.311,0,0,0-2.254,4.651l.257-.615a5.677,5.677,0,0,0-.661,2.358,3.377,3.377,0,0,0,1.255,2.661,4.767,4.767,0,0,0,2.1,1.1c.514.094,1.013.108,1.525.162a2.571,2.571,0,0,0,1.818-4.39,2.958,2.958,0,0,0-1.818-.754c-.233-.024-.467-.023-.7-.049l.684.091a2.411,2.411,0,0,1-.6-.158l.613.257a2.9,2.9,0,0,1-.505-.3l.521.4a2.906,2.906,0,0,1-.332-.3l.4.521a.659.659,0,0,1-.09-.139l.257.613a1.158,1.158,0,0,1-.071-.235l.093.684a1.649,1.649,0,0,1,0-.347l-.091.683a3.184,3.184,0,0,1,.22-.716l-.257.613q.185-.419.36-.841l-.257.613c.575-1.359,1.267-2.679,1.97-3.975a2.7,2.7,0,0,0,.257-1.982,2.572,2.572,0,0,0-4.7-.615Z" transform="translate(-3.822 54.881)" fill="#333"/>
      <path id="パス_93237" data-name="パス 93237" d="M144.377,195.06a64.352,64.352,0,0,0,9.493-11.013,52.909,52.909,0,0,0,4.909-8.478,2.656,2.656,0,0,0-.923-3.52,2.591,2.591,0,0,0-3.518.923,52.488,52.488,0,0,1-4.734,8.23,58.587,58.587,0,0,1-8.864,10.226,2.572,2.572,0,1,0,3.638,3.638Z" transform="translate(6.002 57.067)" fill="#333"/>
      <path id="パス_93238" data-name="パス 93238" d="M168.43,104.337A55.358,55.358,0,0,0,140.1,95.5,67.227,67.227,0,0,0,113,100.64a54.445,54.445,0,0,0-20.463,14.69,53.535,53.535,0,0,0-11.681,26.046A80.75,80.75,0,0,0,82.73,173.8c.82,3.2,5.787,1.845,4.96-1.368-4.325-16.894-3.879-36.74,6.768-51.311,9.689-13.255,26.234-19.838,42.268-20.457a50.429,50.429,0,0,1,29.108,8.1c2.812,1.764,5.4-2.684,2.6-4.441Z" transform="translate(-11.148 35.269)" fill="#333"/>
      <path id="パス_93239" data-name="パス 93239" d="M148.46,202.536c-11.454,5.807-25.123,8.923-37.311,3.36A33.2,33.2,0,0,1,97.2,194.736a45.577,45.577,0,0,1-6.469-16.614c-1.706-8.372-2.472-16.94-3.913-25.362a2.6,2.6,0,0,0-3.165-1.8,2.631,2.631,0,0,0-1.8,3.165c1.385,8.091,2.186,16.295,3.715,24.359a51.041,51.041,0,0,0,6.8,18.261c7.47,11.548,21.619,17.925,35.182,17.143a59.516,59.516,0,0,0,23.5-6.921c2.958-1.5.352-5.936-2.6-4.44Z" transform="translate(-10.646 51.109)" fill="#333"/>
      <path id="パス_93240" data-name="パス 93240" d="M159.19,155.448a5.451,5.451,0,0,1,5-.8,4.788,4.788,0,0,1,1.64.892,5.459,5.459,0,0,1,.514.55c-.336-.418.147.257.2.354,1.564,2.783,1,6.922.118,9.852a17.8,17.8,0,0,1-5.53,8.547,9.516,9.516,0,0,1-9.178,1.721,2.589,2.589,0,0,0-3.163,1.8,2.635,2.635,0,0,0,1.8,3.164c3.578,1.474,7.973.589,11.338-1.066a18.94,18.94,0,0,0,7.81-8.343,24.058,24.058,0,0,0,2.839-10.858c.045-3.284-.624-6.993-3.109-9.353a10.505,10.505,0,0,0-12.874-.894,2.645,2.645,0,0,0-.922,3.518,2.591,2.591,0,0,0,3.518.923Z" transform="translate(8.498 50.637)" fill="#333"/>
      <path id="パス_93241" data-name="パス 93241" d="M291.023,214.2c-.7-2.373-.176-7.808,4.309-8.23,5.923.1,6.173,6.678,4.149,9.75C297.822,218.239,293.013,219.244,291.023,214.2Z" transform="translate(49.123 66.866)" fill="#333"/>
      <path id="パス_93242" data-name="パス 93242" d="M263.666,214.788c-.643-2.382-.176-7.834,3.931-8.246,5.424.107,5.658,6.71,3.817,9.789C269.9,218.851,265.5,219.851,263.666,214.788Z" transform="translate(41.305 67.03)" fill="#333"/>
      <path id="パス_93243" data-name="パス 93243" d="M278.4,217.052c-.743,1.321-1.444,2.668-2.074,4.047a5.681,5.681,0,0,0-.657,2.315,3.381,3.381,0,0,0,1.242,2.668A4.8,4.8,0,0,0,279,227.194c.514.1,1.013.113,1.524.175a2.571,2.571,0,0,0,1.818-4.39l-.521-.4a2.554,2.554,0,0,0-1.3-.351c-.233-.028-.467-.031-.7-.059l.684.091a2.481,2.481,0,0,1-.514-.129l.613.257a2.68,2.68,0,0,1-.58-.341l.514.4a2.906,2.906,0,0,1-.328-.3l.4.514a.657.657,0,0,1-.087-.14l.257.613a1.13,1.13,0,0,1-.067-.237l.093.684a1.564,1.564,0,0,1,.009-.347l-.091.684a3.08,3.08,0,0,1,.193-.629l-.257.615c.643-1.457,1.391-2.87,2.171-4.258a2.676,2.676,0,0,0,.257-1.982,2.572,2.572,0,0,0-4.7-.613Z" transform="translate(44.804 69.671)" fill="#333"/>
      <path id="パス_93244" data-name="パス 93244" d="M314.127,247.208a64.442,64.442,0,0,0,9.739-11,52.676,52.676,0,0,0,4.945-8.279,2.649,2.649,0,0,0-.923-3.518,2.591,2.591,0,0,0-3.519.922,52.059,52.059,0,0,1-4.767,8.026,59.047,59.047,0,0,1-9.111,10.215,2.572,2.572,0,1,0,3.637,3.637Z" transform="translate(54.548 72.04)" fill="#333"/>
      <path id="パス_93245" data-name="パス 93245" d="M317.973,254.837c-11.425,5.58-25.023,8.488-37.043,2.914a33.378,33.378,0,0,1-13.908-11.263,45.278,45.278,0,0,1-6.377-16.92c-1.591-8.413-2.226-17.016-3.545-25.478a2.59,2.59,0,0,0-3.163-1.8,2.635,2.635,0,0,0-1.8,3.164c1.267,8.126,1.944,16.356,3.36,24.457a50.635,50.635,0,0,0,6.7,18.581c7.356,11.516,21.347,17.959,34.828,17.368a59.607,59.607,0,0,0,23.545-6.587c2.974-1.453.369-5.891-2.6-4.442Z" transform="translate(38.053 65.788)" fill="#333"/>
      <path id="パス_93246" data-name="パス 93246" d="M207.472,152.637q.039-.459-.012.066a3.549,3.549,0,0,1,.1-.386c-.129.584.05-.045.162-.242-.306.54.118-.085.242-.222q.324-.277-.036,0c.118-.089.24-.174.364-.257a11.618,11.618,0,0,1,1.743-.941c-.386.166.2-.059.291-.085.156-.041.314-.077.472-.105q-.417.046.048,0c.321,0,.635-.008.957,0-.6-.023.21.069.349.1q-.5-.239-.15-.057c.129.08.257.163.386.249s.257.179.386.273q-.309-.239.042.046c.431.394.855.781,1.249,1.211.23.257.454.514.667.781-.233-.291.328.451.386.527a23.192,23.192,0,0,1,1.938,3.441c.129.284.139.316.045.1.064.157.129.314.186.472.117.31.228.624.329.939s.168.619.27.919q.086.455.046.076c.019.179.03.356.032.535,0,.121-.094,1.02-.03.691-.054.275-.129.539-.208.808-.108.3-.129.347-.048.149-.054.109-.113.217-.177.32-.2.386.3-.372-.167.159.408-.46-.021-.023-.23.1.536-.329-.122.031-.325.082-.141.036-.286.067-.43.091q.455-.05-.019,0c-.351.018-.7.035-1.049.035a2.572,2.572,0,0,0,0,5.144c2.782,0,5.708-.858,6.953-3.587a9.223,9.223,0,0,0,.716-5.473,17.893,17.893,0,0,0-1.4-4.038,20.455,20.455,0,0,0-4.816-6.877,8.238,8.238,0,0,0-3.592-2.175,8.638,8.638,0,0,0-4.515.207,12.433,12.433,0,0,0-4.3,2.5,6.537,6.537,0,0,0-2,4.417A2.585,2.585,0,0,0,204.9,155.2a2.636,2.636,0,0,0,2.572-2.572Z" transform="translate(23.832 49.515)" fill="#333"/>
      <path id="パス_93247" data-name="パス 93247" d="M206.908,156.951c.435-.2-.432.129.035-.008.2-.06.4-.129.6-.184.1-.024.673-.129.287-.075-.364.054.334,0,.487,0,.093,0,.185.013.278.019-.069,0-.433-.129-.219-.012a1.246,1.246,0,0,0,.278.075c.2.044.287.21-.066-.036.171.118.368.2.538.324-.386-.278.14.18.249.3.274.306-.168-.267.078.105.084.129.161.257.239.378.2.319.1.084.2.417.039.129.068.257.1.377.112.405,0-.352.014.05.009.192-.072.836.03.367-.049.222-.105.44-.171.66-.136.462-.044.111,0,.01-.05.1-.1.2-.153.3a6.558,6.558,0,0,1-.347.567c-.062.09-.129.18-.19.267.309-.415,0-.021-.073.059a12.694,12.694,0,0,1-.923.9c-.1.084-.2.162-.3.247-.265.231.522-.386.089-.068q-.877.643-1.773,1.26c-1.49,1.022-3.007,2.009-4.533,2.976-1.4.89-2.81,1.786-4.267,2.586a2.6,2.6,0,0,0-.922,3.52,2.625,2.625,0,0,0,3.518.922,101.379,101.379,0,0,0,9.665-6.164,14.162,14.162,0,0,0,4.446-4.381,7.6,7.6,0,0,0-1.269-9.172c-2.373-2.432-5.642-2.333-8.538-1.029a2.581,2.581,0,0,0-.922,3.518,2.648,2.648,0,0,0,3.518.923Z" transform="translate(22.061 51.317)" fill="#333"/>
      <path id="パス_93248" data-name="パス 93248" d="M211.071,163.1c.357-.176-.6.175.09,0l.159-.037q.417-.077-.177.009c.08-.148,1.157-.012,1.286,0-.414-.022-.267-.046.06.031.208.048.419.15.628.186.18.068.117.041-.192-.08.108.053.213.111.316.172q.283.193.03,0t.008.022c.206.446-.246-.473.073.091s-.068-.355.078.149c.054.189.121.37.17.562.019.08.129.832.1.449s.01.4.01.469c0,.2-.014.405-.03.608.051-.67-.046.045-.077.2-.026.1-.055.189-.089.283q.21-.464.023-.08c-.153.237-.316.418-.033.12a6.514,6.514,0,0,1-.653.6c-.228.186-.459.368-.691.55.06-.048-.669.522-.4.316-1.067.827-2.159,1.624-3.265,2.4q-3.19,2.24-6.558,4.205a2.572,2.572,0,0,0,2.6,4.442q3.175-1.862,6.2-3.958,1.543-1.073,3.041-2.207a32.063,32.063,0,0,0,3.164-2.495c3.046-2.987,2.468-9.437-1.5-11.38a8.008,8.008,0,0,0-6.96-.062,2.586,2.586,0,0,0-.923,3.518,2.64,2.64,0,0,0,3.52.923Z" transform="translate(23.355 53.118)" fill="#333"/>
      <path id="パス_93249" data-name="パス 93249" d="M220.987,175.23c.643.045,1.584.068,1.9.692.563,1.1-.755,2.434-1.415,3.149-1.984,2.132-3.155,3.944-2.829,6.993a57.809,57.809,0,0,1,.939,7.378,8.591,8.591,0,0,1-.993,3.66,6.973,6.973,0,0,0-.53.892c-.213.674.023.109.055.086a7.137,7.137,0,0,1-1.1.559,68.747,68.747,0,0,1-6.912,2.58c-2.153.715-4.156,1.91-6.373.79-4.231-2.139-6.44-7.587-8.306-11.629-2.1-4.556-4.244-9.1-6.3-13.679-.82-1.827-1.614-3.668-2.339-5.53-.31-.8-.617-1.6-.868-2.425-.093-.3-.171-.607-.244-.916.048.2.058.9.008-.051-.024-.458-.066-.914-.081-1.373a14.31,14.31,0,0,1,.221-3.531,7.33,7.33,0,0,1,.571-1.728c.117-.233.271-.442.4-.666.306-.541.426-.451.1-.2a37.243,37.243,0,0,1,3.935-2.42c3.93-2.286,7.913-4.519,11.989-6.533a4.543,4.543,0,0,1,1.9-.693,3.858,3.858,0,0,1,2.935.493,2.365,2.365,0,0,1,.471,2.864c-.167.35-.09.2-.548.634-.233.22-.643.559-.781.669a85.514,85.514,0,0,1-11,6.848c-2.892,1.613-.3,6.057,2.6,4.442a87.008,87.008,0,0,0,11.888-7.533,7.646,7.646,0,0,0,3.173-7.263,7.45,7.45,0,0,0-6.937-6.3,12.228,12.228,0,0,0-6.83,1.672c-2.374,1.2-4.709,2.468-7.032,3.758-2.229,1.237-4.452,2.49-6.628,3.818a10.043,10.043,0,0,0-4.619,5.041,17.519,17.519,0,0,0-.689,9.431,32.966,32.966,0,0,0,2.207,6.034c2.186,5.215,4.711,10.279,7.016,15.442,2.472,5.536,5.181,12.1,10.578,15.432a10,10,0,0,0,9.13.756c2.851-1.066,5.752-1.995,8.563-3.17a9.9,9.9,0,0,0,3.273-1.762,12.292,12.292,0,0,0,2.884-5.8c.772-3.423-.207-6.658-.585-10.059-.2-1.772.166-2.113,1.321-3.355a9.645,9.645,0,0,0,2.99-5.737c.314-4.438-3.178-6.613-7.11-6.886-3.3-.229-3.289,4.916,0,5.144Z" transform="translate(17.551 49.563)" fill="#333"/>
      <path id="パス_93250" data-name="パス 93250" d="M250.417,287.477c9.883-15.04,28.362-20.19,44.721-24.683,3.188-.877,1.834-5.841-1.367-4.961-17.813,4.9-37.088,10.752-47.8,27.048C244.152,287.654,248.605,290.235,250.417,287.477Z" transform="translate(36.191 81.668)" fill="#333"/>
      <path id="パス_93251" data-name="パス 93251" d="M326.81,254.906l18.585-1.228a95.819,95.819,0,0,1,17.912-.129c11.086,1.354,21.116,6.924,30.749,12.208,2.905,1.593,5.5-2.847,2.6-4.442-10.082-5.53-20.5-11.158-32.049-12.743a91.892,91.892,0,0,0-18.568-.078q-9.611.633-19.225,1.271c-3.287.217-3.31,5.363,0,5.144Z" transform="translate(58.723 78.904)" fill="#333"/>
      <path id="パス_93252" data-name="パス 93252" d="M289.012,250.523c-1.637,2.968-3.284,5.933-4.862,8.934a13.3,13.3,0,0,0-1.286,2.725,4.309,4.309,0,0,0,.822,3.127c3.1,5.806,6.481,11.546,10.132,17.023a2.605,2.605,0,0,0,4.442,0c3.3-5.321,4.772-11.54,7.936-16.931a2.6,2.6,0,0,0-.4-3.117,107.343,107.343,0,0,1-7.949-7.3q-1.632-1.618-3.226-3.275c-.347-.364-.7-.728-1.037-1.1-.213-.233-.823-1.042-.129-.081a2.646,2.646,0,0,0-3.52-.922,2.591,2.591,0,0,0-.922,3.519,45.627,45.627,0,0,0,4.925,5.231,110.483,110.483,0,0,0,8.216,7.569l-.4-3.116c-3.164,5.391-4.64,11.61-7.936,16.931h4.442c-2.356-3.534-4.518-7.2-6.654-10.87-.928-1.595-1.848-3.2-2.744-4.81-.3-.545-.606-1.09-.9-1.644-.09-.171-.167-.355-.266-.514-.265-.442.171.568.129.291v1.367c.042-.233-.368.7-.013.031.183-.345.351-.7.531-1.046.514-.982,1.035-1.957,1.562-2.932q1.759-3.25,3.552-6.483C295.054,250.213,290.613,247.621,289.012,250.523Z" transform="translate(46.853 79.244)" fill="#333"/>
      <path id="パス_93253" data-name="パス 93253" d="M334.687,252.564a24.191,24.191,0,0,0-2.908-4.973c-1.593-2.486-3.215-4.955-4.931-7.358a2.613,2.613,0,0,0-4.442,0,138.428,138.428,0,0,1-21.172,24.99,2.623,2.623,0,0,0,0,3.638,34.465,34.465,0,0,0,4.343,3.9c2.277,1.86,4.61,3.655,6.955,5.429q3.03,2.292,6.111,4.518a14.528,14.528,0,0,0,3.489,2.236,2.6,2.6,0,0,0,3.163-1.8c.952-3.671,2.306-7.272,3.485-10.876,1.628-4.977,3.275-9.948,4.873-14.935a14.262,14.262,0,0,0,1.125-4.092c-.042-3.308-5.186-3.317-5.144,0-.013-1.029.008-.315-.167.257-.206.684-.424,1.366-.643,2.047q-1.053,3.3-2.135,6.583c-1.655,5.066-3.327,10.125-4.965,15.2-.476,1.474-1,2.947-1.39,4.447l3.164-1.8c1.179.4.021-.109-.373-.386-.67-.463-1.331-.938-1.992-1.415q-3.03-2.186-6.006-4.442c-3.464-2.622-7.391-5.228-10.256-8.529v3.638a144.318,144.318,0,0,0,21.976-26.032h-4.442c1.633,2.292,3.184,4.642,4.705,7.01.629.977,1.254,1.959,1.862,2.949.22.357.441.714.649,1.078.175.3.441,1.083.1.067C330.769,257.057,335.735,255.719,334.687,252.564Z" transform="translate(51.907 76.311)" fill="#333"/>
      <path id="パス_93254" data-name="パス 93254" d="M314.516,238.386a52.59,52.59,0,0,0,1.723,6.782,2.726,2.726,0,0,0,1.183,1.543,2.572,2.572,0,0,0,3.778-2.905,52.362,52.362,0,0,1-1.724-6.784,2.573,2.573,0,0,0-4.7-.615,2.883,2.883,0,0,0-.257,1.983Z" transform="translate(55.895 75.206)" fill="#333"/>
      <path id="パス_93255" data-name="パス 93255" d="M126.779,200.983a262.044,262.044,0,0,0-28.322,9.857,56.866,56.866,0,0,0-12.788,7.119c-4.259,3.365-6.269,8.113-8.95,12.668A72.066,72.066,0,0,1,65.89,244.662c-2.326,2.358,1.309,6,3.638,3.637a78.636,78.636,0,0,0,9.682-11.947c1.415-2.142,2.684-4.362,3.888-6.625a26.1,26.1,0,0,1,4.176-6.332c3.242-3.286,7.7-5.359,11.852-7.254,4.419-2.02,8.984-3.711,13.577-5.288,5.109-1.754,10.275-3.344,15.443-4.91,3.16-.959,1.813-5.926-1.367-4.96Z" transform="translate(-15.401 65.404)" fill="#333"/>
      <path id="パス_93256" data-name="パス 93256" d="M73.534,265.544c-.682-11.6-.872-23.229-2.058-34.8a2.632,2.632,0,0,0-3.256-2.479c-12.56,1.753-25.168,3.261-37.7,5.226a2.614,2.614,0,0,0-1.888,2.481c-1.04,9.773-1.543,19.633-1.892,29.449-.437,12.2-.9,25.282,3.106,36.98,2.15,6.272,5.768,13.078,12.066,15.972,5.975,2.744,12.841,1.929,18.967.129,8.882-2.605,16.961-7.854,24.691-12.8a211.459,211.459,0,0,0,25.812-18.6c2.491-2.186-1.157-5.818-3.637-3.638A189.428,189.428,0,0,1,86.94,298.686c-4.244,2.806-8.543,5.53-12.94,8.082-1.894,1.1-3.807,2.171-5.751,3.18-1.415.736-3.436,1.719-4.509,2.157-4.813,1.96-10.483,3.511-15.713,2.771-6.422-.908-10.152-6.173-12.462-11.816-4.479-10.939-4.1-23.533-3.756-35.147.314-10.644.844-21.347,1.973-31.939l-1.888,2.479c12.529-1.964,25.136-3.472,37.7-5.226l-3.256-2.481c1.183,11.574,1.373,23.2,2.058,34.8.193,3.291,5.338,3.313,5.144,0Z" transform="translate(-26.463 73.222)" fill="#333"/>
      <path id="パス_93257" data-name="パス 93257" d="M82.568,236.26q10.459,30.4,22.331,60.289,3.416,8.6,6.951,17.148a2.656,2.656,0,0,0,3.164,1.8,2.587,2.587,0,0,0,1.8-3.163q-12.27-29.714-23.148-59.979-3.125-8.709-6.134-17.458c-1.071-3.112-6.044-1.775-4.96,1.367Z" transform="translate(-10.46 74.633)" fill="#333"/>
      <path id="パス_93258" data-name="パス 93258" d="M156.295,199.461c21.8-.7,45.224-1.728,65.134,8.594a194.238,194.238,0,0,1,18.089,11.121c2.762,1.842,5.341-2.612,2.6-4.442-10.276-6.848-20.8-13.76-32.85-17.017-11.116-3.005-22.857-3.63-34.32-3.718-6.218-.048-12.434.117-18.647.318-3.3.105-3.317,5.249,0,5.144Z" transform="translate(9.957 63.44)" fill="#333"/>
      <path id="パス_93259" data-name="パス 93259" d="M195.79,244.805c.412,15.842,1.577,31.581,3.2,47.339a2.647,2.647,0,0,0,2.572,2.572,2.59,2.59,0,0,0,2.572-2.572c-1.623-15.758-2.788-31.5-3.2-47.339C200.848,241.5,195.7,241.489,195.79,244.805Z" transform="translate(21.961 77.262)" fill="#333"/>
      <path id="パス_93260" data-name="パス 93260" d="M46.023,47.275C62.962,37.243,79.781,27.01,96.618,16.8q6.725-4.079,13.451-8.147c2.286-1.381,4.368,2.2,2.089,3.574C95.5,22.294,78.884,32.437,62.192,42.45q-7.029,4.218-14.081,8.4c-2.3,1.361-4.382-2.215-2.089-3.573Z" transform="translate(388.407 -8.344)" fill="#333"/>
      <path id="パス_93261" data-name="パス 93261" d="M1.493,64.5,28.6,58.387l40.89-9.221,15.248-3.438c2.594-.585,3.7,3.4,1.1,3.991L53.211,57.082,13.864,65.949,2.587,68.492c-2.594.585-3.7-3.405-1.1-3.992Z" transform="translate(460.815 -7.051)" fill="#333"/>
      <path id="パス_93262" data-name="パス 93262" d="M15.482,87.486c13.737,1.636,27.532,2.838,41.3,4.2q4.176.414,8.352.834A2.127,2.127,0,0,1,67.2,94.594a2.084,2.084,0,0,1-2.069,2.069c-13.908-1.4-27.823-2.748-41.728-4.186-2.639-.273-5.277-.539-7.916-.853a2.135,2.135,0,0,1-2.069-2.069,2.082,2.082,0,0,1,2.069-2.069Z" transform="translate(467.06 -5.601)" fill="#333"/>
      <path id="パス_93263" data-name="パス 93263" d="M194.756,166.362c-12.988-21.476-26.628-42.651-38.622-64.709-.374-.687-1.278-1.843-.943-2.379.432-.689,1.764-1.226,2.451-1.651q1.336-.828,2.7-1.609a82.6,82.6,0,0,1,11.014-5.225,103.615,103.615,0,0,1,25.261-6.7c1.062-.129,2.333-.57,2.671.653a27.233,27.233,0,0,1,.476,3.651q.536,4.1,1.075,8.2,1.308,9.946,2.627,19.89,2.9,21.862,5.876,43.723a2.587,2.587,0,0,0,3.165,1.8,2.64,2.64,0,0,0,1.8-3.163q-2.769-20.043-5.395-40.108l-2.829-21.381q-.568-4.323-1.134-8.644c-.386-2.977-.251-6.645-2.829-8.653-1.821-1.415-3.85-1.307-6.018-1.039q-3.472.428-6.888,1.127a115.292,115.292,0,0,0-13.346,3.578,112.025,112.025,0,0,0-12.711,5.042q-2.874,1.362-5.633,2.949a31.966,31.966,0,0,0-5.658,3.624,5.9,5.9,0,0,0-1.683,5.819,18.245,18.245,0,0,0,1.865,3.763c1.4,2.559,2.841,5.1,4.3,7.622,3.5,6.09,7.1,12.129,10.712,18.153,7.079,11.8,14.285,23.522,21.436,35.277q.911,1.5,1.82,3c1.712,2.829,6.161.246,4.442-2.6Z" transform="translate(8.863 30.512)" fill="#333"/>
      <path id="パス_93264" data-name="パス 93264" d="M104.161,213.911l-3.828,13.419a2.518,2.518,0,0,0,.661,2.5l8.776,6.816V233.01a47.57,47.57,0,0,0-5.229,8.006,10.175,10.175,0,0,0-1.592,4.41,6.687,6.687,0,0,0,1.651,3.446c2.119,3.241,4.407,6.372,6.721,9.475,5.273,7.081,10.737,14.052,16.477,20.762a39.332,39.332,0,0,0,5.8,6.035,2.587,2.587,0,0,0,3.518-.922,2.636,2.636,0,0,0-.922-3.52c.831.629-.033-.066-.231-.257-.34-.321-.664-.66-.985-1-.878-.925-1.725-1.881-2.562-2.843-2.367-2.72-4.658-5.509-6.92-8.319-5.041-6.259-9.983-12.623-14.569-19.227q-.756-1.088-1.49-2.186c-.234-.352-.458-.71-.694-1.06-.129-.2-.257-.386-.4-.577-.664-.9-.049-.162-.084-.118a16.459,16.459,0,0,0,1.114-2.248q.588-1.109,1.241-2.186a39.51,39.51,0,0,1,2.8-4.042c.772-.981,1.193-2.711,0-3.638l-8.776-6.816.661,2.5,3.828-13.419c.909-3.189-4.052-4.551-4.96-1.368Z" transform="translate(-5.366 68.617)" fill="#333"/>
      <path id="パス_93265" data-name="パス 93265" d="M166.2,198.393a41.445,41.445,0,0,1,9.834,12.725l.923-3.518c-4.05,2.421-8.043,4.936-12.1,7.343a2.6,2.6,0,0,0,0,4.442,63.024,63.024,0,0,1,10.179,8.522l-.661-2.5c-6.09,16.615-11.871,33.34-18.082,49.913q-1.172,3.124-2.375,6.234-.471,1.21-.957,2.412c-.122.3-.248.6-.373.907-.207.508.243-.565.037-.087-.066.154-.129.307-.2.46a2.656,2.656,0,0,0,.923,3.52,2.59,2.59,0,0,0,3.518-.923c3.322-7.544,5.988-15.41,8.812-23.148q5.363-14.688,10.605-29.419c1.015-2.836,2.015-5.675,3.052-8.5a2.549,2.549,0,0,0-.661-2.5,69.407,69.407,0,0,0-11.22-9.327v4.442c4.059-2.407,8.052-4.923,12.1-7.343a2.639,2.639,0,0,0,.922-3.52,45.284,45.284,0,0,0-10.638-13.76c-2.443-2.218-6.1,1.408-3.638,3.637Z" transform="translate(9.468 63.462)" fill="#333"/>
      <path id="パス_93266" data-name="パス 93266" d="M112.578,213.332c.772,6.333,4.134,12.132,6.816,17.831,2.668,5.674,5.393,11.317,8.23,16.915q4.3,8.476,8.952,16.763a87.029,87.029,0,0,0,8.94,13.59c2.136,2.533,5.76-1.121,3.637-3.637a83.045,83.045,0,0,1-8.435-13.082q-4.359-7.765-8.387-15.709c-2.659-5.23-5.222-10.509-7.73-15.818q-1.941-4.1-3.845-8.23a29.642,29.642,0,0,1-3.032-8.628,2.653,2.653,0,0,0-2.572-2.572,2.587,2.587,0,0,0-2.572,2.572Z" transform="translate(-1.835 68.234)" fill="#333"/>
      <path id="パス_93267" data-name="パス 93267" d="M157.206,198.847a457.31,457.31,0,0,0-15.115,62.617c-1.082,6.081-2.091,12.174-3.065,18.274a2.65,2.65,0,0,0,1.8,3.164,2.593,2.593,0,0,0,3.165-1.8c3.392-21.238,7.248-42.437,12.888-63.207q2.419-8.908,5.292-17.684c1.029-3.152-3.931-4.5-4.96-1.367Z" transform="translate(5.706 64.319)" fill="#333"/>
      <path id="パス_93268" data-name="パス 93268" d="M294.488,269.482a101.072,101.072,0,0,0,3.3,10.86,17.905,17.905,0,0,1,.4,5.58c.01,2.365.014,4.73.141,7.092.178,3.292,5.323,3.313,5.144,0-.129-2.362-.129-4.727-.141-7.092-.01-2.141.239-4.6-.48-6.641a102.422,102.422,0,0,1-3.405-11.166c-.736-3.227-5.7-1.861-4.96,1.367Z" transform="translate(50.166 84.111)" fill="#333"/>
      <path id="パス_93269" data-name="パス 93269" d="M308.6,268.072a33.137,33.137,0,0,0,1.157,13.864,78.3,78.3,0,0,0,6.009,12.5c1.647,2.872,6.093.283,4.442-2.6a70.92,70.92,0,0,1-5.489-11.268,14.008,14.008,0,0,1-.823-2.8c-.14-1.06-.175-2.148-.231-3.215a44.657,44.657,0,0,1,.079-6.479,2.59,2.59,0,0,0-2.572-2.572,2.627,2.627,0,0,0-2.572,2.572Z" transform="translate(54.145 83.89)" fill="#333"/>
      <path id="パス_93270" data-name="パス 93270" d="M301.466,282.221c2.121-.675,4.275-1.253,6.43-1.811s4.313-1.128,6.507-1.472a2.58,2.58,0,0,0,1.8-3.164,2.648,2.648,0,0,0-3.163-1.8c-2.194.345-4.361.916-6.507,1.472s-4.308,1.136-6.43,1.811a2.572,2.572,0,0,0,1.367,4.96Z" transform="translate(51.253 86.292)" fill="#333"/>
      <path id="パス_93271" data-name="パス 93271" d="M117.425,196.8a47.7,47.7,0,0,0-6.381,8.671c-.919,1.814.531,4.008,1.256,5.658a103.852,103.852,0,0,0,8.008,15.618,2.605,2.605,0,0,0,4.442,0c3.506-5.6,6-11.762,9.367-17.439a2.592,2.592,0,0,0-.4-3.117c-4.271-3.425-8.72-6.607-13.174-9.79a2.593,2.593,0,0,0-3.518.923,2.627,2.627,0,0,0,.922,3.518c4.1,2.927,8.2,5.836,12.133,8.986l-.4-3.117c-3.368,5.678-5.862,11.84-9.367,17.439h4.442a87.527,87.527,0,0,1-5.885-10.977q-1.17-2.473-2.271-4.977c-.147-.334-.291-.67-.435-1.007s.229.562.013.028c-.039-.1-.08-.19-.118-.285-.153-.386-.377-1.415-.217-.159l-.351,1.3a57.428,57.428,0,0,1,5.576-7.631,2.64,2.64,0,0,0,0-3.637A2.592,2.592,0,0,0,117.425,196.8Z" transform="translate(-2.359 64.032)" fill="#333"/>
      <path id="パス_93272" data-name="パス 93272" d="M162.608,197.117a24.1,24.1,0,0,0-2.908-4.974c-1.592-2.486-3.215-4.954-4.929-7.358a2.613,2.613,0,0,0-4.442,0,138.483,138.483,0,0,1-21.166,24.988,2.623,2.623,0,0,0,0,3.638,34.452,34.452,0,0,0,4.341,3.9c2.279,1.86,4.612,3.655,6.956,5.429q3.031,2.292,6.11,4.518a14.567,14.567,0,0,0,3.49,2.236,2.6,2.6,0,0,0,3.163-1.8c.952-3.671,2.306-7.272,3.485-10.874,1.628-4.978,3.274-9.95,4.871-14.937a14.221,14.221,0,0,0,1.127-4.092c-.042-3.308-5.186-3.317-5.144,0-.013-1.029.008-.315-.167.257-.207.685-.426,1.367-.643,2.049q-1.051,3.295-2.133,6.582c-1.655,5.066-3.327,10.125-4.965,15.2-.476,1.474-1,2.946-1.39,4.447l3.163-1.8c1.178.4.021-.109-.373-.379-.67-.463-1.332-.937-1.992-1.415q-3.03-2.186-6.006-4.443c-3.464-2.622-7.391-5.228-10.256-8.529V213.4a144.231,144.231,0,0,0,21.976-26.032h-4.442c1.633,2.292,3.184,4.642,4.705,7.01.629.977,1.253,1.959,1.862,2.949.219.357.441.715.643,1.079.174.3.441,1.082.1.066C158.69,201.607,163.659,200.267,162.608,197.117Z" transform="translate(2.698 60.454)" fill="#333"/>
      <path id="パス_93273" data-name="パス 93273" d="M122.079,213.033c.9,3.931,2.46,7.637,3.527,11.509-.067-.243.089.539.1.783.018.5.031,1,.044,1.5.033,1.376.055,2.752.077,4.128.1,5.982-.013,12.033.559,17.995a2.644,2.644,0,0,0,2.572,2.572,2.59,2.59,0,0,0,2.572-2.572c-.584-6.084-.466-12.259-.566-18.364a31.944,31.944,0,0,0-.327-7.214c-1.029-3.947-2.679-7.707-3.6-11.7-.741-3.225-5.7-1.86-4.96,1.368Z" transform="translate(0.859 67.968)" fill="#333"/>
      <path id="パス_93274" data-name="パス 93274" d="M136.1,212.307a57.175,57.175,0,0,0,.257,9.181,28.07,28.07,0,0,0,2.092,6.944,95.247,95.247,0,0,0,6.07,13.516c1.637,2.878,6.083.288,4.442-2.6a86.459,86.459,0,0,1-5.552-12.288,31.527,31.527,0,0,1-1.929-5.824,41,41,0,0,1-.23-8.932c.215-3.3-4.929-3.292-5.144,0Z" transform="translate(4.868 67.971)" fill="#333"/>
      <path id="パス_93275" data-name="パス 93275" d="M129.056,225.771c2.121-.675,4.275-1.253,6.43-1.811s4.313-1.128,6.508-1.472a2.581,2.581,0,0,0,1.8-3.164,2.648,2.648,0,0,0-3.164-1.8c-2.194.345-4.359.916-6.507,1.472s-4.307,1.136-6.43,1.811a2.573,2.573,0,0,0,1.367,4.96Z" transform="translate(1.947 70.148)" fill="#333"/>
      <path id="パス_93276" data-name="パス 93276" d="M324.587,163.6a42.99,42.99,0,0,1,12.794,20.67c2.4,7.92,2.262,16.131,1.574,24.3-.343,4.066-.881,8.426-2.713,12.123-1.465,2.958,2.971,5.566,4.442,2.6,3.547-7.155,3.621-15.68,3.818-23.5a55.622,55.622,0,0,0-6.648-27.92,43.061,43.061,0,0,0-9.628-11.908c-2.488-2.162-6.142,1.462-3.638,3.638Z" transform="translate(58.555 53.52)" fill="#333"/>
      <path id="パス_93277" data-name="パス 93277" d="M339.591,156.722a55.35,55.35,0,0,0-28.2-9.242,66.708,66.708,0,0,0-27.165,4.752,54.856,54.856,0,0,0-20.67,14.4A53.57,53.57,0,0,0,251.5,192.513a80.783,80.783,0,0,0,1.406,32.448c.772,3.215,5.733,1.854,4.96-1.368-4.049-16.859-3.36-36.821,7.513-51.131,9.971-13.117,26.514-19.472,42.635-19.856a50.432,50.432,0,0,1,28.98,8.559c2.785,1.8,5.366-2.645,2.6-4.442Z" transform="translate(37.602 50.127)" fill="#333"/>
      <path id="パス_93278" data-name="パス 93278" d="M329.562,207.84a5.431,5.431,0,0,1,5.015-.7,3.62,3.62,0,0,1,2.306,1.854c1.51,2.829.864,6.944-.058,9.856a17.976,17.976,0,0,1-5.379,8.214c-2.146,1.789-6.044,3.264-8.889,2.046a2.658,2.658,0,0,0-3.518.922,2.59,2.59,0,0,0,.922,3.52,14.523,14.523,0,0,0,11.831-.611,18.748,18.748,0,0,0,7.927-8.076,24.2,24.2,0,0,0,3.086-10.635c.163-3.387-.422-7.182-2.89-9.7a10.5,10.5,0,0,0-12.958-1.132,2.641,2.641,0,0,0-.922,3.518,2.594,2.594,0,0,0,3.519.923Z" transform="translate(57.109 65.638)" fill="#333"/>
      <path id="パス_93279" data-name="パス 93279" d="M257.742,211.305a23.852,23.852,0,0,1,3.228-11.7,23.035,23.035,0,0,1,8.346-9.366c3.873-2.2,8.92-.968,13.026-.15a72.667,72.667,0,0,0,13.228,1.784c4.408.066,8.815-.186,13.222-.273a44.416,44.416,0,0,1,11.333.653c.386.093.754.2,1.125.322a3.216,3.216,0,0,1,.5.189,7.272,7.272,0,0,1,.745.415c.417.269.108.075.023.006.129.1.244.226.363.338s.231.219.347.325c.257.23-.247-.446.108.143.273.454.547.9.788,1.372a72.073,72.073,0,0,1,3.23,8.088,50.257,50.257,0,0,0,3.858,9.193c1.625,2.632,4.789,3.931,6.829.876,1.843-2.762-2.611-5.339-4.442-2.6-.238.355.141-.2.163-.208-.157.085-.427.17.273-.208a1.944,1.944,0,0,1,1.672-.111c.084.032.482.343.367.22,0,0-.192-.168-.19-.2.014-.257.129.18.063.085a18.561,18.561,0,0,1-1.593-3.063c-.4-.936-1.067-2.7-1.543-3.987-.581-1.57-1.147-3.144-1.737-4.711a32.745,32.745,0,0,0-3.5-7.649,10.939,10.939,0,0,0-7.317-4.068c-8.448-1.475-17.161-.086-25.675-.328-4.559-.129-8.9-1.273-13.374-2.058-4.726-.823-9.749-1.385-14.146.955-4.519,2.409-8,6.778-10.416,11.2a29.308,29.308,0,0,0-4.038,14.5c.086,3.3,5.23,3.317,5.144,0Z" transform="translate(38.21 60.562)" fill="#333"/>
      <path id="パス_93280" data-name="パス 93280" d="M243.51,42.494a84.3,84.3,0,0,0,12.42,18.827,62.258,62.258,0,0,0,6.844,7.073,17.554,17.554,0,0,0,6.441,3.987c3.2.882,4.56-4.079,1.367-4.96-.2-.055-.4-.121-.593-.192-.174-.067-.118-.042.163.071-.129-.058-.251-.12-.375-.183-.405-.229-.81-.451-1.2-.706a19.884,19.884,0,0,1-2.643-2.07,65.464,65.464,0,0,1-6.627-6.964A79.2,79.2,0,0,1,247.951,39.9a2.593,2.593,0,0,0-3.518-.923,2.634,2.634,0,0,0-.923,3.52Z" transform="translate(35.514 19.011)" fill="#333"/>
      <path id="パス_93281" data-name="パス 93281" d="M249.6,40.17a61.876,61.876,0,0,1-13.291,18.37,53.366,53.366,0,0,1-9.021,6.754q-1.143.683-2.315,1.314c-.2.1-.405.2-.594.314-.489.3.165-.05.341-.071a1.985,1.985,0,0,1,1.719.745c-.251-.239.078.373-.03-.035-.055-.211-.121-.419-.168-.633a6.653,6.653,0,0,1-.19-1.48c-.243-3.225-.019-6.467-.248-9.692-.234-3.283-5.379-3.309-5.144,0,.229,3.225,0,6.467.248,9.692.2,2.712,1.029,7.376,4.9,6.407a20.679,20.679,0,0,0,5.391-2.927,62.536,62.536,0,0,0,5.483-3.936,57.6,57.6,0,0,0,9.253-9.309,70.61,70.61,0,0,0,8.105-12.914c1.445-2.958-2.99-5.573-4.442-2.6Z" transform="translate(29.071 19.076)" fill="#333"/>
    </g>
    <g id="グループ_9880" data-name="グループ 9880" transform="translate(462.247 11054.786)">
      <path id="パス_90953" data-name="パス 90953" d="M5.551,24.616H86.8v6.757H5.551Zm0-12.307H86.8v6.756H5.551ZM0,6.757V36.925H92.349V6.757Z" transform="translate(0 2.266)"/>
      <path id="パス_90954" data-name="パス 90954" d="M88.065.551V47.359h37.313V38.533H97.829V27.768H121.7V19.209H97.829V9.379h27.08V.551Z" transform="translate(29.535 0.185)"/>
      <path id="パス_90955" data-name="パス 90955" d="M124.575.551V9.445h10.431V38.467H124.575v8.892h30.893V38.467H145.037V9.445h10.431V.551Z" transform="translate(41.78 0.185)"/>
      <g id="グループ_9796" data-name="グループ 9796" transform="translate(0 0)">
        <g id="グループ_9795" data-name="グループ 9795" clip-path="url(#clip-path)">
          <path id="パス_90956" data-name="パス 90956" d="M206.23,24.274q-.066-1-.132-1.872H181.086v8.225H196.3a6.189,6.189,0,0,1-1.035,2.91,10.5,10.5,0,0,1-3.11,2.975,15.409,15.409,0,0,1-4.646,1.939,23.369,23.369,0,0,1-5.685.669,21.321,21.321,0,0,1-6.521-.971,16.583,16.583,0,0,1-5.416-2.875,13.527,13.527,0,0,1-3.744-4.747,14.832,14.832,0,0,1-1.371-6.519,13.811,13.811,0,0,1,4.882-10.7,17.528,17.528,0,0,1,5.451-3.143,19.428,19.428,0,0,1,6.72-1.136,20.611,20.611,0,0,1,5.45.7,22.389,22.389,0,0,1,4.847,1.939,26.391,26.391,0,0,1,4.213,2.842l6.219-6.753A19.768,19.768,0,0,0,197.5,3.879a30.959,30.959,0,0,0-7.089-2.808,34.42,34.42,0,0,0-19.525.736,26.938,26.938,0,0,0-8.76,5.048,22.849,22.849,0,0,0-5.751,7.624,22.3,22.3,0,0,0-2.039,9.529,24.6,24.6,0,0,0,2.006,10.164,21.8,21.8,0,0,0,5.55,7.589,24.767,24.767,0,0,0,8.425,4.782,32.221,32.221,0,0,0,10.5,1.672,36.046,36.046,0,0,0,10.367-1.4,24.277,24.277,0,0,0,8.09-4.08,18.459,18.459,0,0,0,5.283-6.521,19.845,19.845,0,0,0,1.874-8.792c0-.268-.024-.692-.067-1.271s-.091-1.2-.135-1.872" transform="translate(51.762 0)"/>
          <path id="パス_90957" data-name="パス 90957" d="M236.918,19.608H212.243V.551H202.211V47.36h10.031V28.7h24.675V47.36h10.03V.551h-10.03Z" transform="translate(67.817 0.185)"/>
          <path id="パス_90958" data-name="パス 90958" d="M243.249,9.578h16.316V47.36H269.6V9.578h16.651V.551h-43Z" transform="translate(81.58 0.185)"/>
          <path id="パス_90959" data-name="パス 90959" d="M320.4,23.453a17.621,17.621,0,0,0-3.529-1.655,10.908,10.908,0,0,0,4.332-3.059,10.053,10.053,0,0,0,2.207-6.621A10.269,10.269,0,0,0,321.509,5.9a11.8,11.8,0,0,0-5.651-3.978,27.046,27.046,0,0,0-9.227-1.37H282.957V47.359H307.9a28.552,28.552,0,0,0,6.689-.769,19.409,19.409,0,0,0,5.785-2.373,11.429,11.429,0,0,0,4.043-4.313,13.637,13.637,0,0,0,1.471-6.586,11.182,11.182,0,0,0-1.471-5.818,11.814,11.814,0,0,0-4.011-4.046M292.586,9.244h13.307a10.869,10.869,0,0,1,5.484,1.2,4.028,4.028,0,0,1,2.074,3.744,4.388,4.388,0,0,1-.871,2.742,5.608,5.608,0,0,1-2.508,1.772,9.979,9.979,0,0,1-3.644.636H292.586Zm22.336,26.848a5.913,5.913,0,0,1-2.808,1.939,12.707,12.707,0,0,1-4.214.634H292.586V27.3h14.979a13.889,13.889,0,0,1,3.979.568,7.321,7.321,0,0,1,3.144,1.805,4.393,4.393,0,0,1,1.235,3.244,5.061,5.061,0,0,1-1,3.177" transform="translate(94.897 0.185)"/>
          <path id="パス_90960" data-name="パス 90960" d="M322.938,9.445h10.431V38.466H322.938V47.36h30.893V38.466H343.4V9.445h10.431V.551H322.938Z" transform="translate(108.306 0.185)"/>
          <path id="パス_90961" data-name="パス 90961" d="M353.839.551V9.578h16.316V47.36h10.03V9.578h16.651V.551Z" transform="translate(118.67 0.185)"/>
        </g>
      </g>
    </g>
    <g id="グループ_9887" data-name="グループ 9887" transform="translate(230 10265.396)">
      <g id="_17314" data-name="17314" transform="translate(82.194 0)">
        <path id="パス_93282" data-name="パス 93282" d="M147.283,187.014V142.443a15.112,15.112,0,0,0-15.11-15.11H62.964a15.11,15.11,0,0,0-15.11,15.11V183.4A15.421,15.421,0,0,0,52.7,194.557q8.96,8.53,17.439,17.546a15.173,15.173,0,0,1,4.085,10.4q0,11.544,0,23.089a15.112,15.112,0,0,0,15.112,15.112h42.839a15.112,15.112,0,0,0,15.112-15.11Z" transform="translate(41.252 109.766)" fill="#ff7c64"/>
        <path id="パス_93283" data-name="パス 93283" d="M122.294,173.793v26.144a15.1,15.1,0,0,0,15.108,15.1H200.01a15.11,15.11,0,0,0,15.11-15.11V173.782a15.11,15.11,0,0,0-15.11-15.11H137.4A15.119,15.119,0,0,0,122.294,173.793Z" transform="translate(105.419 136.78)" fill="#ff7c64"/>
        <rect id="長方形_14949" data-name="長方形 14949" width="61.148" height="25.992" rx="6.979" transform="translate(4.472 402.353)" fill="#ff7c64"/>
        <path id="パス_93284" data-name="パス 93284" d="M116.812,181.779V161.04a15.112,15.112,0,0,1,15.11-15.11H287.757a15.121,15.121,0,0,0,15.112-15.121V94.522A15.118,15.118,0,0,1,317.981,79.4h80.25a15.1,15.1,0,0,1,15.112,15.1V265.582a15.082,15.082,0,0,1-15.1,15.1h-133.9a15.1,15.1,0,0,1-15.1-15.108V212a15.11,15.11,0,0,0-15.11-15.11H131.913A15.112,15.112,0,0,1,116.812,181.779Z" transform="translate(100.693 68.45)" fill="#ff7c64"/>
        <path id="パス_93285" data-name="パス 93285" d="M335.422,2.4H241.344a15.11,15.11,0,0,0-15.11,15.11v83.781a15.11,15.11,0,0,0,15.11,15.11H335.42a15.112,15.112,0,0,0,15.112-15.11V17.5a15.1,15.1,0,0,0-15.11-15.1Z" transform="translate(195.015 2.074)" fill="#ff7c64"/>
        <path id="パス_93286" data-name="パス 93286" d="M153.841,189.082V151.827c0-6.1.479-12.289-2.979-17.708A19.944,19.944,0,0,0,135.54,125c-1.184-.095-2.387-.054-3.575-.054H70.617c-5.186,0-10.14-.171-14.922,2.381a19.551,19.551,0,0,0-9.943,14.114,41.466,41.466,0,0,0-.277,6.249v21.929c0,5.268-.1,10.546,0,15.814a21.1,21.1,0,0,0,1.882,8.379,28.183,28.183,0,0,0,6.809,8.44q4.283,4.147,8.463,8.407a54.331,54.331,0,0,1,7.483,8.055,14.994,14.994,0,0,1,1.719,8.653v12.464c0,6.731-.536,13.5,3.668,19.22a19.974,19.974,0,0,0,15.913,8.21c1.359.026,2.72,0,4.08,0,12.848,0,25.722.177,38.573,0a19.879,19.879,0,0,0,19.778-19.611c.067-4.113,0-8.234,0-12.349V189.082c0-5.752-8.938-5.761-8.938,0V242.1c0,4.335.521,8.874-2.506,12.442-3.754,4.424-9.232,3.765-14.4,3.765H106.008c-4.841,0-9.682.074-14.524,0a10.762,10.762,0,0,1-9.273-5.271,12.62,12.62,0,0,1-1.452-6.757v-12c0-7.023.881-14.579-3.333-20.683a65.139,65.139,0,0,0-7.251-8.007q-4-4.117-8.113-8.131c-3.69-3.6-7.575-6.59-7.658-12.159-.026-1.793,0-3.586,0-5.379,0-11.893-.324-23.834,0-35.721a10.716,10.716,0,0,1,6.93-9.673,14.109,14.109,0,0,1,5.042-.65h58.411c3.15,0,6.3-.054,9.453,0a10.8,10.8,0,0,1,9.774,6.349,14.452,14.452,0,0,1,.873,6.009V189.08C144.9,194.832,153.841,194.842,153.841,189.082Z" transform="translate(39.162 107.697)" fill="#333"/>
        <path id="パス_93287" data-name="パス 93287" d="M119.936,175.885v14.524c0,4.167-.227,8.411.034,12.569a19.877,19.877,0,0,0,13.466,17.648,26.512,26.512,0,0,0,8.72.966h10.263c16.507,0,33.034.242,49.54,0a19.988,19.988,0,0,0,16.59-8.938c2.722-4.132,3.15-8.737,3.15-13.511,0-7.947.348-15.974-.013-23.914a19.858,19.858,0,0,0-13.2-17.875,26.151,26.151,0,0,0-8.9-1.072H146.057c-2.125,0-4.253-.03-6.379,0a19.612,19.612,0,0,0-19.737,19.59c-.119,5.754,8.818,5.754,8.938,0a10.751,10.751,0,0,1,10-10.639c1.531-.082,3.08-.013,4.61-.013h51.175c5.772,0,12.351-.931,16.17,4.512,2.048,2.916,1.931,6.1,1.931,9.465V192.8c0,3.052.052,6.107,0,9.159a10.8,10.8,0,0,1-9.31,10.638,42.123,42.123,0,0,1-4.824.047H160.09c-6.59,0-13.181.019-19.773,0a10.682,10.682,0,0,1-11.444-11.284c-.013-3.919,0-7.841,0-11.762V175.872C128.874,170.126,119.936,170.126,119.936,175.885Z" transform="translate(103.308 134.689)" fill="#333"/>
        <path id="パス_93288" data-name="パス 93288" d="M0,231.2a17.659,17.659,0,0,0,16.175,17.4c3.1.264,6.286.063,9.394.063,8.988,0,17.994.186,26.98,0a17.467,17.467,0,0,0,5.012-34.22,39.444,39.444,0,0,0-11.144-.71H30.02c-4.139,0-8.288-.074-12.427,0A17.743,17.743,0,0,0,0,231.2c-.142,5.754,8.8,5.752,8.938,0a8.653,8.653,0,0,1,8.809-8.526c3.08-.047,6.165,0,9.247,0,8.334,0,16.67-.039,25,0a8.751,8.751,0,0,1,9.06,7.172,8.63,8.63,0,0,1-8.47,9.882c-7.517.151-15.052,0-22.571,0-3.953,0-7.906.013-11.859,0A8.7,8.7,0,0,1,8.938,231.2C8.938,225.454,0,225.443,0,231.2Z" transform="translate(0.001 184.144)" fill="#333"/>
        <path id="パス_93289" data-name="パス 93289" d="M123.369,183.907V165.821a14.874,14.874,0,0,1,1.3-7.763,10.785,10.785,0,0,1,9.358-5.532c6.04-.1,12.092,0,18.132,0h125.7c7.725,0,16.758,1.169,23.348-3.672a19.94,19.94,0,0,0,8.193-15.28c.318-6.88.013-13.842.013-20.731V102.364a29.733,29.733,0,0,1,.559-9.124,10.671,10.671,0,0,1,9.766-7.232c9.42-.261,18.881,0,28.3,0h43.718c2.849,0,5.7-.052,8.552,0a10.829,10.829,0,0,1,9.788,6.355,17.978,17.978,0,0,1,.858,7.513V263.783c0,4.8-.061,9.323-4.257,12.475-3.581,2.689-8.1,2.091-12.308,2.091H268.756c-4.359,0-8.338-.667-11.021-4.512a11.887,11.887,0,0,1-1.927-7.059c-.024-13.144,0-26.288,0-39.432,0-4.363.065-8.733,0-13.1a19.871,19.871,0,0,0-19.6-19.7c-8.277-.14-16.572,0-24.846,0H164.945c-10.055,0-20.1.024-30.148,0a10.868,10.868,0,0,1-11.429-10.641c-.119-5.744-9.057-5.772-8.938,0a19.882,19.882,0,0,0,19.758,19.579c3,.039,6.007,0,9.008,0h84.793c2.724,0,5.45-.045,8.172,0a10.753,10.753,0,0,1,9.247,5.269,12.5,12.5,0,0,1,1.452,6.586v40.741c0,4.07-.169,8.18.013,12.248a19.923,19.923,0,0,0,8.429,15.455c4.538,3.225,9.636,3.493,14.987,3.493H398.271c5.9,0,11.312-1.3,15.691-5.517,4.608-4.43,5.942-10.167,5.942-16.333V106.868c0-5.713.782-12.045-1.408-17.449a19.791,19.791,0,0,0-12.673-11.576,42.4,42.4,0,0,0-11.928-.788H329.386c-3.1,0-6.206-.054-9.31,0A19.806,19.806,0,0,0,305.6,83.444a20.144,20.144,0,0,0-4.42,8,37.767,37.767,0,0,0-.7,10.068v21.167c0,3.7.272,7.526-.032,11.213a10.655,10.655,0,0,1-2.279,5.7c-2.692,3.372-6.454,4-10.427,4H137.529a31.06,31.06,0,0,0-9.018.784,19.811,19.811,0,0,0-12.673,11.587,25.978,25.978,0,0,0-1.408,10.027V183.9C114.431,189.657,123.369,189.666,123.369,183.907Z" transform="translate(98.605 66.323)" fill="#333"/>
        <path id="パス_93290" data-name="パス 93290" d="M337.538,0h-79.9c-4.443,0-8.887-.011-13.332,0C234.7.027,225.777,6.333,224.2,16.189A75.513,75.513,0,0,0,223.877,28V97.156c0,5.085-.27,9.99,1.983,14.754,3.625,7.675,11.319,11.03,19.4,11.03h85.6c3.979,0,8.318.361,12.17-.784a19.9,19.9,0,0,0,13.2-13.006,32.4,32.4,0,0,0,.877-9.975V26.24c0-6.115.35-12.265-3.318-17.549A20.047,20.047,0,0,0,337.538,0c-5.754-.119-5.754,8.818,0,8.938a10.738,10.738,0,0,1,10.258,7.8,28.1,28.1,0,0,1,.384,7.448V93.756c0,5.156,1.175,11.6-2.119,16.013-3.08,4.132-7.6,4.219-12.168,4.219H249.633c-3.216,0-7.122.473-10.161-.754a10.781,10.781,0,0,1-6.653-9.9c-.017-.931,0-1.845,0-2.769V20.9a13.639,13.639,0,0,1,.754-5.3,10.781,10.781,0,0,1,9.9-6.659c2.888-.048,5.772,0,8.669,0h85.4C343.287,8.94,343.3,0,337.538,0Z" transform="translate(192.899 0.003)" fill="#333"/>
      </g>
      <text id="Tokyo" transform="translate(698.919 162.707)" fill="#333" font-size="31" font-family="MontserratAlternates-Bold, Montserrat Alternates" font-weight="700"><tspan x="-50.065" y="0">Tokyo</tspan></text>
      <text id="Yokohama" transform="translate(726.869 246.448)" fill="#333" font-size="31" font-family="MontserratAlternates-Bold, Montserrat Alternates" font-weight="700"><tspan x="-90.892" y="0">Yokohama</tspan></text>
      <text id="Osaka" transform="translate(374.144 170.274)" fill="#333" font-size="31" font-family="MontserratAlternates-Bold, Montserrat Alternates" font-weight="700"><tspan x="-52.576" y="0">Osaka</tspan></text>
      <text id="Fukuoka" transform="translate(83.134 174.759)" fill="#333" font-size="31" font-family="MontserratAlternates-Bold, Montserrat Alternates" font-weight="700"><tspan x="-71.253" y="0">Fukuoka</tspan></text>
      <path id="パス_93589" data-name="パス 93589" d="M-15143.507-9624.161h-141.455l-83.559,127.912" transform="translate(15920.829 9809.214)" fill="none" stroke="#333" stroke-linecap="round" stroke-linejoin="round" stroke-width="3"/>
      <path id="パス_93591" data-name="パス 93591" d="M-15300.054-9588.64h137.207v109.985" transform="translate(15613.631 9775.083)" fill="none" stroke="#333" stroke-linecap="round" stroke-linejoin="round" stroke-width="3"/>
      <path id="パス_93592" data-name="パス 93592" d="M-15335.965-9592.176h179.7l49.433,65.095" transform="translate(15335.965 9780.868)" fill="none" stroke="#333" stroke-linecap="round" stroke-linejoin="round" stroke-width="3"/>
      <path id="パス_93590" data-name="パス 93590" d="M-15054.143-9672.2h-238.59l-51.436,75.87" transform="translate(15902.878 9931.086)" fill="none" stroke="#333" stroke-linecap="round" stroke-linejoin="round" stroke-width="3"/>
    </g>
  </g>
</svg>
