<svg xmlns="http://www.w3.org/2000/svg" xmlns:xlink="http://www.w3.org/1999/xlink" width="120" height="120" viewBox="0 0 120 120">
  <defs>
    <clipPath id="clip-path">
      <circle id="楕円形_100" data-name="楕円形 100" cx="60" cy="60" r="60" transform="translate(235 2535)" fill="#fff" stroke="#333" stroke-width="3"/>
    </clipPath>
  </defs>
  <g id="グループ_9904" data-name="グループ 9904" transform="translate(-230 -8342.845)">
    <circle id="楕円形_192" data-name="楕円形 192" cx="60" cy="60" r="60" transform="translate(230 8342.845)" fill="#fff"/>
    <g id="マスクグループ_2" data-name="マスクグループ 2" transform="translate(-5 5807.845)" clip-path="url(#clip-path)">
      <g id="グループ_9749" data-name="グループ 9749">
        <g id="グループ_9738" data-name="グループ 9738" transform="translate(247.831 2554.955)">
          <path id="パス_89649" data-name="パス 89649" d="M82.914,53.2a3.455,3.455,0,0,1,2.762-.809,3.26,3.26,0,0,1,2.344,1.559,4.606,4.606,0,0,1,.482,1.854A13.81,13.81,0,0,1,87.1,63.129a8.781,8.781,0,0,1-2.27,2.979,5.82,5.82,0,0,1-2.707,1.22l-.464.072c-.222.832-.471,1.532-.594,1.9-.755,2.047-4.833,8.927-10.054,11.876.082.95.211,1.9.375,2.838.269,1.544.187,2.918,2.322,3.69.105.035,3.38,1.591,5.21,2.456,0,0-2.69,11.364-19.324,11.364s-18.578-11.8-18.578-11.8c2.006-.918,4.3-1.988,4.38-2.017,2.14-.772,2.053-2.146,2.327-3.69.184-1.062.32-2.029.4-3.094a21.34,21.34,0,0,1-5.388-4.72,23.485,23.485,0,0,1-4.477-8.739l-.882-.135a5.82,5.82,0,0,1-2.707-1.222,8.781,8.781,0,0,1-2.27-2.979A13.816,13.816,0,0,1,30.987,55.8a4.6,4.6,0,0,1,.483-1.854,3.259,3.259,0,0,1,2.344-1.559,3.456,3.456,0,0,1,2.763.809s.054-18.209,23.359-18.209C83.847,34.993,82.914,53.2,82.914,53.2Z" transform="translate(-12.848 -14.512)" fill="#fff"/>
          <path id="パス_89650" data-name="パス 89650" d="M2.041,152.5A41.853,41.853,0,0,1,5.2,144.7c1.444-2.532,2.913-5.075,5.112-6.8a32.207,32.207,0,0,1,7.316-4.7c3.195-1.305,6.154-2.592,9.287-3.937a2.322,2.322,0,0,1,2.167.17c3.932,2.515,12.215,4.861,18.662,4.861,6.353,0,14.491-2.277,18.488-4.751a2.741,2.741,0,0,1,2.527-.2c3.064,1.317,5.969,2.578,9.1,3.859a32.208,32.208,0,0,1,7.316,4.7c2.2,1.725,3.667,4.269,5.112,6.8a41.686,41.686,0,0,1,3.162,7.8Z" transform="translate(-0.849 -53.58)" fill="#fff"/>
          <path id="パス_89659" data-name="パス 89659" d="M50.915,2.8A23.148,23.148,0,0,0,39.3,9.052l2.66,1.413c-3.8,2.042-6.8,6.512-8.138,10.443-1.495,4.39-1.939,10.643-.153,18.028a3.269,3.269,0,0,1,.794-.225,3.413,3.413,0,0,1,2.958,1c6.679-6.39,12.5-10.182,18.371-14.795a15.218,15.218,0,0,0,1.579,3.637c.391.159,4.607-2.481,7.645-4.355.281.049,4.971,1.156,4.971,1.156a17.906,17.906,0,0,1,5.626,3.294,32.159,32.159,0,0,1,7.842,10.988,3.383,3.383,0,0,1,3.475-.78A25.112,25.112,0,0,0,86.732,22c-1.525-4.262-5.324-8.727-8.024-9.971l-3.9-2.8c-3.321-4.548-8.34-6.945-15.423-7.162a34.166,34.166,0,0,0-8.473.733Z" transform="translate(-13.5 -0.831)" fill="#0c5fe5"/>
          <path id="パス_89725" data-name="パス 89725" d="M47.922,122.551q1.77-.81,3.534-1.63c.271-.125.559-.234.819-.377-.628.34.217-.081.292-.117.12-.053.24-.106.356-.168a4.328,4.328,0,0,0,.842-.6,4.386,4.386,0,0,0,1.269-2.685c.22-1.394.457-2.785.571-4.193a1.18,1.18,0,0,0-1.17-1.17,1.193,1.193,0,0,0-1.17,1.17c-.1,1.185-.3,2.35-.48,3.524a7.464,7.464,0,0,1-.272,1.179c.091-.281-.037.068-.073.13a2.419,2.419,0,0,1-.15.234c.159-.217-.039.026-.068.055-.049.048-.1.094-.151.138.084-.058.091-.067.022-.019a12.8,12.8,0,0,1-1.964.941q-1.7.784-3.392,1.564a1.178,1.178,0,0,0-.419,1.6,1.2,1.2,0,0,0,1.6.419Z" transform="translate(-19.169 -46.329)" fill="#333"/>
          <path id="パス_89726" data-name="パス 89726" d="M97.458,113.159a37.179,37.179,0,0,0,.643,4.52,4,4,0,0,0,2.3,2.876c.037.017.543.292.614.252.011-.006-.36-.164-.192-.08.117.058.245.113.367.17q.675.316,1.348.636l3.407,1.612a1.2,1.2,0,0,0,1.6-.419,1.179,1.179,0,0,0-.42-1.6c-1.771-.837-3.523-1.749-5.33-2.507a4.318,4.318,0,0,1-.622-.289c-.046-.027-.327-.224-.26-.168s-.158-.163-.187-.191c-.087-.1-.087-.1,0,.01-.036-.051-.071-.1-.1-.158s-.187-.413-.084-.137a4.591,4.591,0,0,1-.182-.628,32.085,32.085,0,0,1-.559-3.9,1.2,1.2,0,0,0-1.17-1.17,1.178,1.178,0,0,0-1.17,1.17Z" transform="translate(-40.468 -46.484)" fill="#333"/>
          <path id="パス_89727" data-name="パス 89727" d="M2.322,151.988a45.439,45.439,0,0,1,3.793-8.817,19.981,19.981,0,0,1,3.454-4.643,30.843,30.843,0,0,1,4.269-3.221,33.466,33.466,0,0,1,5.356-2.666c2.063-.863,4.117-1.746,6.171-2.631.8-.344,1.525-.838,2.351-.344.626.374,1.256.728,1.915,1.042a36.558,36.558,0,0,0,4.8,1.858,44.223,44.223,0,0,0,11.148,2.047,38.941,38.941,0,0,0,11.08-1.283,34.7,34.7,0,0,0,9.187-3.513c.936-.55,1.592-.237,2.529.166l3.095,1.329c2.034.869,4.14,1.633,6.115,2.631A23.232,23.232,0,0,1,86.91,141.9a36.739,36.739,0,0,1,2.58,4.678c.78,1.754,1.379,3.6,1.988,5.417.474,1.421,2.734.812,2.255-.622a48.455,48.455,0,0,0-4.029-9.375,22.89,22.89,0,0,0-3.646-4.952,32.584,32.584,0,0,0-4.553-3.514A31.388,31.388,0,0,0,76,130.711c-2.157-.9-4.3-1.82-6.447-2.743a6.14,6.14,0,0,0-3.041-.808,6.816,6.816,0,0,0-2.586,1.06,28.363,28.363,0,0,1-4.566,1.9A41.558,41.558,0,0,1,48,132.288a37.553,37.553,0,0,1-11.175-1.454A38.13,38.13,0,0,1,31.7,129.1a21.95,21.95,0,0,1-2.016-.981,5.74,5.74,0,0,0-2.5-1.02,6.857,6.857,0,0,0-2.992.9l-3.324,1.426c-2.086.889-4.243,1.667-6.251,2.726a35.775,35.775,0,0,0-5.217,3.52,19.277,19.277,0,0,0-4.523,5.05,36.323,36.323,0,0,0-2.646,4.825c-.83,1.9-1.5,3.859-2.155,5.823-.478,1.431,1.78,2.047,2.255.622Z" transform="translate(-0.002 -52.755)" fill="#333"/>
          <path id="パス_89728" data-name="パス 89728" d="M106.462,85.1a11.6,11.6,0,0,1-.538,2.868c-.108.363-.226.722-.346,1.081-.035.1-.246.649-.117.356a20.934,20.934,0,0,1-1.5,2.76,27.516,27.516,0,0,1-6.123,7.087,11.681,11.681,0,0,1-4.536,2.3c-1.466.341-.846,2.6.622,2.255,3.463-.806,6.363-3.275,8.655-5.89a29.8,29.8,0,0,0,4.827-7.181A15.428,15.428,0,0,0,108.8,85.1C108.86,83.593,106.518,83.6,106.462,85.1Z" transform="translate(-38.396 -34.85)" fill="#333"/>
          <path id="パス_89729" data-name="パス 89729" d="M40.223,84.336A26.457,26.457,0,0,0,45.906,97.1a18.757,18.757,0,0,0,12.186,6.932,1.177,1.177,0,0,0,1.17-1.17,1.2,1.2,0,0,0-1.17-1.17c-4.337-.458-7.975-3.175-10.693-6.439a24.325,24.325,0,0,1-4.92-11.536A1.179,1.179,0,0,0,41.04,82.9a1.2,1.2,0,0,0-.819,1.439Z" transform="translate(-16.687 -34.387)" fill="#333"/>
          <path id="パス_89730" data-name="パス 89730" d="M119.251,65.549a2.218,2.218,0,0,1,3.27.513,4.8,4.8,0,0,1,.37,2.17,12.167,12.167,0,0,1-.2,2.527c-.564,2.93-2.12,6.384-5.37,6.959a1.179,1.179,0,0,0-.819,1.439,1.2,1.2,0,0,0,1.439.819c4.616-.819,6.828-6.013,7.231-10.19.2-2.071.143-4.631-1.613-6.049a4.652,4.652,0,0,0-5.959.158c-1.156.967.506,2.614,1.654,1.654Z" transform="translate(-48.358 -26.032)" fill="#333"/>
          <path id="パス_89731" data-name="パス 89731" d="M36.561,63.895a4.652,4.652,0,0,0-5.96-.158c-1.754,1.419-1.813,3.979-1.612,6.049.4,4.176,2.614,9.371,7.23,10.19a1.2,1.2,0,0,0,1.439-.819,1.179,1.179,0,0,0-.819-1.439c-3.25-.577-4.806-4.031-5.37-6.959a12.075,12.075,0,0,1-.206-2.4,4.986,4.986,0,0,1,.373-2.3,2.217,2.217,0,0,1,3.269-.513c1.147.96,2.811-.687,1.654-1.654Z" transform="translate(-12.005 -26.032)" fill="#333"/>
          <path id="パス_89732" data-name="パス 89732" d="M110.073,19.328a13.157,13.157,0,0,1,4.288,3.761,19.575,19.575,0,0,1,3.423,6.169,24.08,24.08,0,0,1,.28,14.732c-.464,1.436,1.794,2.051,2.255.622a25.274,25.274,0,0,0-4.743-23.7,13.948,13.948,0,0,0-4.323-3.6c-1.352-.643-2.54,1.371-1.181,2.02Z" transform="translate(-45.457 -7.118)" fill="#333"/>
          <path id="パス_89733" data-name="パス 89733" d="M68.291,37.274c-2.384,1.462-4.731,3.016-7.2,4.331-.191.1-.384.2-.578.292-.038.019-.263.151-.1.049s-.029.023-.083.021a4.929,4.929,0,0,1,.912.267c.146.043.117.211.018-.012-.091-.2-.2-.391-.3-.591a9.535,9.535,0,0,1-.936-2.469c-.143-.975-1.358-.985-1.955-.516C52.1,43.324,45.883,47.634,40.334,52.829c-1.1,1.031.555,2.682,1.654,1.654,5.548-5.195,11.766-9.5,17.732-14.183l-1.955-.512A12.024,12.024,0,0,0,59.026,43a1.6,1.6,0,0,0,2.54.979,33.477,33.477,0,0,0,3.48-1.962c1.482-.9,2.951-1.813,4.428-2.722,1.281-.787.107-2.81-1.181-2.02Z" transform="translate(-16.599 -15.387)" fill="#333"/>
          <path id="パス_89734" data-name="パス 89734" d="M95.463,42.213a19.34,19.34,0,0,1,7.582,5.465,32.988,32.988,0,0,1,5.017,7.9,1.179,1.179,0,0,0,1.6.42,1.2,1.2,0,0,0,.42-1.6,34.939,34.939,0,0,0-5.537-8.553,21.647,21.647,0,0,0-8.46-5.889,1.178,1.178,0,0,0-1.439.819,1.2,1.2,0,0,0,.819,1.439Z" transform="translate(-39.286 -16.558)" fill="#333"/>
          <path id="パス_89735" data-name="パス 89735" d="M42.139,13.459c-4.152,1.571-7.244,5.256-9.158,9.161a26.848,26.848,0,0,0-2.479,12.3,42.147,42.147,0,0,0,1.188,8.994c.347,1.462,2.6.844,2.255-.622-1.885-7.953-1.786-17.09,3.714-23.655a12.823,12.823,0,0,1,5.1-3.926,1.2,1.2,0,0,0,.819-1.439,1.178,1.178,0,0,0-1.439-.819Z" transform="translate(-12.659 -5.554)" fill="#333"/>
          <path id="パス_89736" data-name="パス 89736" d="M79.812,7.779A18.864,18.864,0,0,0,67.173.386,32.455,32.455,0,0,0,50.84,1.949a24.247,24.247,0,0,0-8.372,5.416,1.17,1.17,0,0,0,1.654,1.654A23.289,23.289,0,0,1,58,2.591c4.709-.55,9.941-.39,14.264,1.754a15.292,15.292,0,0,1,5.531,4.62,1.206,1.206,0,0,0,1.6.42,1.178,1.178,0,0,0,.419-1.6Z" transform="translate(-17.492 0.029)" fill="#333"/>
          <path id="パス_89738" data-name="パス 89738" d="M79.033,79a21.049,21.049,0,0,1,.492,2.253l-.042-.311a1.35,1.35,0,0,1,.009.311l.042-.311a.726.726,0,0,1-.034.14l.117-.28a.538.538,0,0,1-.049.09l.183-.237a.481.481,0,0,1-.074.073l.237-.183a1.538,1.538,0,0,1-.178.095l.279-.117a1.286,1.286,0,0,1-.3.088l.311-.042a1.2,1.2,0,0,1-.282,0l.311.042c-.106-.015-.211-.04-.317-.055a.886.886,0,0,0-.468-.02.873.873,0,0,0-.435.139,1.17,1.17,0,0,0-.419,1.6,1.117,1.117,0,0,0,.7.537c.244.033.48.095.728.106a2.323,2.323,0,0,0,1.074-.256,1.553,1.553,0,0,0,.86-1.024,2.56,2.56,0,0,0-.011-1.1c-.123-.726-.292-1.446-.477-2.158A1.17,1.17,0,1,0,79.031,79Z" transform="translate(-32.494 -32.173)" fill="#333"/>
          <path id="パス_89739" data-name="パス 89739" d="M59.133,67.828c-.376,1.223-.131,4.035,2.186,4.275,3.062-.018,3.224-3.419,2.194-5.018C62.669,65.776,60.188,65.231,59.133,67.828Z" transform="translate(-24.495 -27.385)" fill="#333"/>
          <path id="パス_89740" data-name="パス 89740" d="M97.65,67.828c.376,1.223.131,4.035-2.186,4.275-3.062-.019-3.224-3.419-2.194-5.019C94.114,65.776,96.595,65.231,97.65,67.828Z" transform="translate(-38.493 -27.384)" fill="#333"/>
        </g>
        <g id="楕円形_102" data-name="楕円形 102" transform="translate(292 2609)" fill="#fff" stroke="#333" stroke-width="2">
          <circle cx="3" cy="3" r="3" stroke="none"/>
          <circle cx="3" cy="3" r="2" fill="none"/>
        </g>
      </g>
    </g>
    <g id="楕円形_98" data-name="楕円形 98" transform="translate(230 8342.845)" fill="none" stroke="#333" stroke-width="3">
      <circle cx="60" cy="60" r="60" stroke="none"/>
      <circle cx="60" cy="60" r="58.5" fill="none"/>
    </g>
  </g>
</svg>
