<svg xmlns="http://www.w3.org/2000/svg" xmlns:xlink="http://www.w3.org/1999/xlink" width="120" height="120.001" viewBox="0 0 120 120.001">
  <defs>
    <clipPath id="clip-path">
      <ellipse id="楕円形_187" data-name="楕円形 187" cx="60" cy="60" rx="60" ry="60" fill="#fff"/>
    </clipPath>
  </defs>
  <g id="グループ_9902" data-name="グループ 9902" transform="translate(0 0.001)">
    <g id="グループ_9830" data-name="グループ 9830" transform="translate(0 0)">
      <ellipse id="楕円形_178" data-name="楕円形 178" cx="60" cy="60" rx="60" ry="60" fill="#fff"/>
      <g id="マスクグループ_39" data-name="マスクグループ 39" transform="translate(0 -0.001)" clip-path="url(#clip-path)">
        <g id="グループ_9827" data-name="グループ 9827" transform="translate(2.464 10.88)">
          <path id="パス_91358" data-name="パス 91358" d="M93.94,57.654a4.227,4.227,0,0,1,3.053-1.118,3.918,3.918,0,0,1,3.52,1.956c1.2,2.075,1.146,5.9.342,8.262a12.764,12.764,0,0,1-3.746,6.075,4.656,4.656,0,0,1-3.59,1.036l-.344-.058A27.414,27.414,0,0,1,91.94,77.16c-.88,2.389-5.6,10.558-11.666,14.175v3.944a6.4,6.4,0,0,0,.273,2.268A5.519,5.519,0,0,0,82.2,99.955a18.569,18.569,0,0,0,5.537,2.8l1.518.6c-5.955,5.472-13.223,9.02-22.059,9.02a32.172,32.172,0,0,1-22.591-9.024l1.508-.594a18.568,18.568,0,0,0,5.537-2.8,5.507,5.507,0,0,0,1.654-2.408,6.4,6.4,0,0,0,.273-2.268s0-1.512,0-3.983a25.653,25.653,0,0,1-6.862-6,32.1,32.1,0,0,1-6.094-11.5,4.566,4.566,0,0,1-3.884-.972,12.764,12.764,0,0,1-3.746-6.075c-.8-2.365-.854-6.188.342-8.262a3.918,3.918,0,0,1,3.52-1.956,4.22,4.22,0,0,1,3.053,1.118S30.62,26.3,66.922,26.3,93.937,57.655,93.937,57.655Z" transform="translate(-9.389 -7.987)" fill="#fff"/>
          <path id="パス_91361" data-name="パス 91361" d="M29.767,32.9a18.917,18.917,0,0,0-2.5,3.939A12.677,12.677,0,0,0,27.3,46.863c.953,1.982,2.3,4.073,4.235,4.775a.247.247,0,0,1,.018-.036,3.919,3.919,0,0,1,3.52-1.956,4.22,4.22,0,0,1,3.064,1.129,9.618,9.618,0,0,1,1.824-5.807c1.221-1.5,2.212-1.83,3.16-3.193.982-1.412.867-3.039,1-4.6a7.363,7.363,0,0,1,3.4-5.929c2.467-1.532,6.024-1.864,9.3-2.335a97.819,97.819,0,0,1,16.622,0c3.28.472,6.837.8,9.3,2.335a7.363,7.363,0,0,1,3.4,5.929c.137,1.557.021,3.184,1,4.6.948,1.363,2.048,2.31,3.293,3.766a8.827,8.827,0,0,1,1.693,5.238,4.194,4.194,0,0,1,3.06-1.133,3.918,3.918,0,0,1,3.52,1.956l.021.036c1.933-.7,3.283-2.792,4.237-4.774a12.719,12.719,0,0,0,.029-10.027c-1.218-3.016-4.08-4.921-4.544-8.344a38.667,38.667,0,0,1,.087-4.728,12.1,12.1,0,0,0-8.093-10.993c-1.74-.58-3.568-.889-5.269-1.586-2.785-1.151-4.458-3.509-6.875-5.328-3.9-2.939-8.431-3.326-13.178-3.326s-9.282.387-13.178,3.326c-2.417,1.818-4.09,4.177-6.884,5.328-1.692.7-3.519,1.006-5.259,1.586a12.1,12.1,0,0,0-8.093,10.993,38.663,38.663,0,0,1,.087,4.728A9.612,9.612,0,0,1,29.768,32.9Z" transform="translate(-7.607 -1.099)" fill="#fff"/>
          <path id="パス_91363" data-name="パス 91363" d="M2.006,161.053c3.657-13.878,18.412-24.2,33.028-27.309a32.287,32.287,0,0,0,23.357,9.765c9.226,0,16.744-3.868,22.84-9.755,14.6,3.113,29.341,13.431,33,27.3" transform="translate(-0.582 -39.117)" fill="#0c5fe5"/>
          <path id="パス_91369" data-name="パス 91369" d="M79.988,84.259a24.836,24.836,0,0,1,.585,2.679l-.05-.378a1.612,1.612,0,0,1,.01.37l.05-.378a.887.887,0,0,1-.04.166l.143-.34a.632.632,0,0,1-.059.107l.222-.288a.588.588,0,0,1-.087.086l.288-.222a1.683,1.683,0,0,1-.212.112l.34-.143a1.523,1.523,0,0,1-.358.1l.378-.05a1.437,1.437,0,0,1-.336,0l.378.05c-.126-.018-.251-.048-.377-.065a1.084,1.084,0,0,0-.567-.026,1.06,1.06,0,0,0-.528.168,1.42,1.42,0,0,0-.509,1.943,1.359,1.359,0,0,0,.849.653c.292.039.576.114.873.126a2.8,2.8,0,0,0,1.292-.308,1.872,1.872,0,0,0,1.036-1.235,3.075,3.075,0,0,0-.013-1.325c-.146-.863-.345-1.718-.567-2.565a1.421,1.421,0,0,0-2.739.755h0Z" transform="translate(-22.909 -24.256)" fill="#333"/>
          <path id="パス_91370" data-name="パス 91370" d="M60.337,73.406c-.447,1.454-.156,4.8,2.6,5.083,3.64-.022,3.834-4.065,2.608-5.966-1-1.556-3.953-2.2-5.207.884Z" transform="translate(-17.433 -21.001)" fill="#333"/>
          <path id="パス_91371" data-name="パス 91371" d="M99.2,73.406c.447,1.454.156,4.8-2.6,5.083-3.64-.022-3.834-4.065-2.609-5.966C95,70.966,97.951,70.318,99.2,73.406Z" transform="translate(-27.039 -21.001)" fill="#333"/>
          <path id="パス_91372" data-name="パス 91372" d="M40.327,68.4a6.012,6.012,0,0,0-6.505-.982A5.712,5.712,0,0,0,30.808,71.3a15.042,15.042,0,0,0,2.2,11.876c1.5,2.239,3.855,4.24,6.731,3.866a1.467,1.467,0,0,0,1.421-1.421A1.428,1.428,0,0,0,39.742,84.2c-3.944.512-6.172-5.21-6.444-8.38-.142-1.659-.146-3.747.874-5.163-.139.192.142-.158.15-.165.067-.064.173-.178.235-.227a2.622,2.622,0,0,1,1.018-.461,3.031,3.031,0,0,1,2.744.61c1.36,1.214,3.377-.788,2.009-2.009h0Z" transform="translate(-8.803 -19.742)" fill="#333"/>
          <path id="パス_91373" data-name="パス 91373" d="M119.295,70.407a3.008,3.008,0,0,1,2.621-.636,2.682,2.682,0,0,1,1.141.487c.084.066.466.5.385.393,1.02,1.415,1.016,3.5.874,5.163-.272,3.171-2.5,8.892-6.444,8.38a1.428,1.428,0,0,0-1.421,1.421,1.457,1.457,0,0,0,1.421,1.421c4.73.614,7.593-4.547,8.772-8.36,1.041-3.368,1.085-8.744-2.231-10.922a5.98,5.98,0,0,0-7.126.646c-1.367,1.22.648,3.223,2.009,2.009h0Z" transform="translate(-33.742 -19.737)" fill="#333"/>
          <path id="パス_91374" data-name="パス 91374" d="M109.771,89.441a31.315,31.315,0,0,1-1.838,5.576c.15-.364-.122.263-.186.4-.125.261-.256.519-.39.775-.331.63-.686,1.249-1.056,1.857a33.667,33.667,0,0,1-7.249,8.63,13.414,13.414,0,0,1-5.385,2.8c-1.78.415-1.026,3.155.755,2.739,4.12-.96,7.543-3.958,10.233-7.09a36.767,36.767,0,0,0,5.693-8.6c.075-.166.146-.334.217-.5.018-.043.207-.5.147-.357-.077.179.036-.072.043-.088q.11-.253.215-.506c.111-.266.217-.532.319-.8A27.153,27.153,0,0,0,112.51,90.2c.37-1.784-2.368-2.547-2.739-.755h0Z" transform="translate(-26.844 -25.984)" fill="#333"/>
          <path id="パス_91375" data-name="パス 91375" d="M41.273,90.063a33.986,33.986,0,0,0,7.39,14.663c3.494,4.046,7.977,7.246,13.358,8.049a1.467,1.467,0,0,0,1.747-.992,1.431,1.431,0,0,0-.992-1.747c-4.957-.739-8.885-3.59-12.1-7.319a31,31,0,0,1-6.66-13.409c-.4-1.782-3.145-1.028-2.739.755h0Z" transform="translate(-11.946 -25.948)" fill="#333"/>
          <path id="パス_91376" data-name="パス 91376" d="M31.491,49.734c-1.9-.678-3.214-3.122-3.833-4.916a11.418,11.418,0,0,1,.025-7.089c.642-2.071,2.042-3.627,3.232-5.391a10.436,10.436,0,0,0,1.783-6.79,12.324,12.324,0,0,1,.8-6.346,11.082,11.082,0,0,1,3.983-4.588C39.559,13.281,42,13.022,44.289,12.2a17.5,17.5,0,0,0,5.944-4.054,16.043,16.043,0,0,1,5.636-3.673A23.061,23.061,0,0,1,62.807,3.39c4.7-.132,9.732-.016,13.741,2.756,1.869,1.293,3.345,3.07,5.175,4.417,2.149,1.581,4.681,2.047,7.181,2.8a10.794,10.794,0,0,1,7.608,8.79,26.709,26.709,0,0,1-.092,4.072,9.543,9.543,0,0,0,.733,4.154c.933,2.166,2.684,3.809,3.752,5.9a11.453,11.453,0,0,1,.84,7.7c-.52,2.055-1.935,4.995-4.083,5.759-1.71.609-.974,3.355.755,2.739,2.438-.868,4-2.987,5.11-5.233a13.448,13.448,0,0,0,1.187-7.961,14.7,14.7,0,0,0-2.852-6.757,23.132,23.132,0,0,1-1.881-2.786,6.774,6.774,0,0,1-.719-3.512,29.64,29.64,0,0,0,.092-4.072,12.609,12.609,0,0,0-.843-3.462,13.817,13.817,0,0,0-4.187-5.647,18.462,18.462,0,0,0-7.009-3.06,12.123,12.123,0,0,1-3.705-1.553,23.806,23.806,0,0,1-2.784-2.388,19.207,19.207,0,0,0-6.653-4.26A25.252,25.252,0,0,0,66.49.554C61.368.4,55.833.61,51.417,3.525,49.272,4.942,47.66,7,45.538,8.43c-2.317,1.56-5.185,1.71-7.708,2.794A13.6,13.6,0,0,0,29.8,22.152c-.268,2.619.647,5.254-.685,7.694C28.039,31.811,26.4,33.4,25.5,35.468a14.107,14.107,0,0,0,2.2,14.949,7.221,7.221,0,0,0,3.029,2.054c1.726.614,2.468-2.13.755-2.739h0Z" transform="translate(-7.041 -0.516)" fill="#333"/>
          <path id="パス_91377" data-name="パス 91377" d="M43.824,60.8a8.838,8.838,0,0,1,.9-3.97,10.979,10.979,0,0,1,2.644-2.88,6.753,6.753,0,0,0,2.143-3.614c.263-1.3.156-2.638.424-3.931.558-2.689,2.46-4.207,5.02-4.95a31.757,31.757,0,0,1,4.413-.859c.65-.092,1.619-.231,2.043-.285-.148.018.244-.027.33-.036.2-.021.4-.038.6-.055a95.233,95.233,0,0,1,12.75-.092c.8.042,1.6.1,2.4.192-.378-.046.119.018.161.024l.6.084,1.06.146c.755.107,1.509.217,2.259.354,2.609.475,5.438,1.226,6.753,3.758a9.661,9.661,0,0,1,.78,3.894,8.008,8.008,0,0,0,1.671,4.681c.971,1.238,2.26,2.261,3.14,3.561A7.924,7.924,0,0,1,95,60.8c.119,1.815,2.96,1.828,2.841,0A12.942,12.942,0,0,0,97,56.627a13.043,13.043,0,0,0-2.828-3.782,6.544,6.544,0,0,1-2.183-3.71,24.942,24.942,0,0,0-.529-4.183c-1.825-6.235-9.088-7.015-14.587-7.538a88.634,88.634,0,0,0-13.5-.105,52.889,52.889,0,0,0-7.6,1.024c-3.009.625-6.021,1.9-7.6,4.7a10.532,10.532,0,0,0-1.217,4.437c-.123,1.649-.152,3.09-1.418,4.307a14.206,14.206,0,0,0-3.326,3.743A12.142,12.142,0,0,0,40.984,60.8a1.421,1.421,0,0,0,2.841,0h0Z" transform="translate(-11.876 -11.116)" fill="#333"/>
          <path id="パス_91378" data-name="パス 91378" d="M88.992,78.661a7.927,7.927,0,0,1-2.247-9.174A5.3,5.3,0,0,1,90,66.381a12.038,12.038,0,0,1,4.637-.52,9.125,9.125,0,0,1,4.843,1.906,5.641,5.641,0,0,1,1.818,4.7,7.547,7.547,0,0,1-1.5,4.99,5.593,5.593,0,0,1-3.2,2.076c-2.5.611-5.622.556-7.893-1.095a1.431,1.431,0,0,0-1.943.51,1.452,1.452,0,0,0,.51,1.943c2.806,2.039,6.7,2.171,9.982,1.4a8.09,8.09,0,0,0,4.335-2.565,10.959,10.959,0,0,0,1.766-2.654,10.384,10.384,0,0,0,.749-3.7,9.318,9.318,0,0,0-1.84-6.83,10.828,10.828,0,0,0-5.664-3.21c-4.112-1.018-9.351-.075-11.748,3.686-2.68,4.2-1.836,10.522,2.131,13.651a1.466,1.466,0,0,0,2.009,0,1.43,1.43,0,0,0,0-2.009Z" transform="translate(-24.136 -18.607)" fill="#333"/>
          <path id="パス_91379" data-name="パス 91379" d="M66.525,80.681c3.642-2.872,4.582-8.316,2.766-12.449a8.02,8.02,0,0,0-4.316-4.315,13.807,13.807,0,0,0-6.1-.886,12.287,12.287,0,0,0-6.639,2.562,8.029,8.029,0,0,0-2.845,5.982,10.81,10.81,0,0,0,1.579,6.942,8.886,8.886,0,0,0,4.58,3.6c3.379,1.091,7.766.918,10.692-1.209a1.463,1.463,0,0,0,.51-1.943,1.432,1.432,0,0,0-1.943-.51c-2.156,1.568-5.1,1.665-7.466,1.188a6.256,6.256,0,0,1-5.047-5.654c-.148-1.778-.237-3.743.85-5.266a7.572,7.572,0,0,1,4.22-2.555c2.786-.773,7.032-.438,8.768,2.188a7.893,7.893,0,0,1-1.613,10.321,1.428,1.428,0,0,0,0,2.009,1.456,1.456,0,0,0,2.009,0Z" transform="translate(-14.301 -18.618)" fill="#333"/>
          <path id="パス_91380" data-name="パス 91380" d="M110.061,74h4.475a1.421,1.421,0,0,0,0-2.841h-4.475a1.421,1.421,0,0,0,0,2.841Z" transform="translate(-31.477 -20.982)" fill="#333"/>
          <path id="パス_91381" data-name="パス 91381" d="M49.13,71.155H44.493a1.421,1.421,0,0,0,0,2.841H49.13a1.421,1.421,0,0,0,0-2.841Z" transform="translate(-12.479 -20.982)" fill="#333"/>
          <path id="パス_91382" data-name="パス 91382" d="M76.108,74.924h6.136a1.421,1.421,0,1,0,0-2.841H76.108a1.421,1.421,0,0,0,0,2.841Z" transform="translate(-21.64 -21.253)" fill="#333"/>
          <path id="パス_91383" data-name="パス 91383" d="M75.97,115.554a.963.963,0,0,1-.852-.58L74.63,114a.931.931,0,0,0-1.775.171l-.013.039a.929.929,0,0,1-1.77.173l-.751-1.5a.9.9,0,0,0-1.586-.186c-.2.264-.4.527-.579.78a.889.889,0,0,1-1.51-.03l-1.222-1.776a.886.886,0,0,0-1.317-.233,5.734,5.734,0,0,0-1.908,2.026,1.279,1.279,0,0,0,.012.81l-.445,2.916c.543,1.729,1.884,1.667,2.428,3.4.356,1.132,1.043,2.5,2.259,2.434a4.306,4.306,0,0,0,1.457-.561,1.418,1.418,0,0,1,1.488.027,1.572,1.572,0,0,1,.4.781l.629,2.2a.93.93,0,0,0,1.622.475l.169-.186a.493.493,0,0,1,.313-.2c.224-.01.254.308.391.466.176.2.343.4.5.6a3.3,3.3,0,0,0,2.332,1.268,3.246,3.246,0,0,0,2.762-1.268c.161-.2.328-.4.5-.6.136-.158.166-.475.391-.466a.493.493,0,0,1,.313.2l.169.186a.93.93,0,0,0,1.622-.475l.629-2.2a1.572,1.572,0,0,1,.4-.781,1.416,1.416,0,0,1,1.488-.027,4.277,4.277,0,0,0,1.457.561c1.216.07,1.9-1.3,2.259-2.434.543-1.73,1.884-1.668,2.428-3.4l-.445-2.916a1.28,1.28,0,0,0,.012-.81,5.728,5.728,0,0,0-1.908-2.026.886.886,0,0,0-1.317.233L85.3,113.448a.889.889,0,0,1-1.51.03c-.183-.253-.38-.516-.579-.78a.9.9,0,0,0-1.586.186l-.751,1.5a.929.929,0,0,1-1.77-.173l-.013-.039A.931.931,0,0,0,77.314,114l-.488.977a.963.963,0,0,1-.852.58Z" transform="translate(-17.896 -32.598)" fill="#333"/>
          <path id="パス_91384" data-name="パス 91384" d="M75.413,113.571c.638.075.322.234.269-.088a2.329,2.329,0,0,0-.277-.555,2.786,2.786,0,0,0-1.028-1.18,2.354,2.354,0,0,0-3.306,1.141c-.243.519-.13.18.285.165.332-.013.315.078.349-.024.054-.161-.439-.874-.521-1.035a2.539,2.539,0,0,0-2.474-1.645,2.417,2.417,0,0,0-1.957,1.334l-.194.261a.588.588,0,0,1,.746.212,2.47,2.47,0,0,1-.2-.29,12.346,12.346,0,0,0-1.234-1.759c-1.17-1.345-2.651-.81-3.823.169-1.211,1.011-2.136,2.154-1.764,3.816v-.755c-.218,1.432-.809,3.157-.105,4.5.5.952,1.605,1.467,2.035,2.416.535,1.182.823,2.357,1.974,3.129a3.35,3.35,0,0,0,3.756-.2q.379-.053.138-.082-.418-.475-.214-.017a.742.742,0,0,0,.038.134c.109.377.216.755.324,1.132a4.169,4.169,0,0,0,1.09,2.22,2.225,2.225,0,0,0,1.884.511,3.157,3.157,0,0,0,1.6-1.01l-.627.365.173-.065h-.755l.136.047-.849-.653c1.169,1.573,2.421,3.011,4.566,3,2.114-.012,3.347-1.45,4.5-3l-.849.653.136-.047H78.48l.173.065-.627-.365a3.157,3.157,0,0,0,1.6,1.01,2.228,2.228,0,0,0,1.884-.511,4.163,4.163,0,0,0,1.09-2.22c.108-.377.214-.755.324-1.132a.814.814,0,0,0,.038-.134q.2-.458-.214.017c-.16.019-.114.046.139.082a3.359,3.359,0,0,0,3.756.2c1.148-.771,1.439-1.948,1.974-3.129.43-.951,1.535-1.461,2.035-2.416.7-1.339.113-3.073-.105-4.5v.755c.373-1.663-.555-2.8-1.764-3.816-1.173-.982-2.654-1.513-3.823-.169a12.331,12.331,0,0,0-1.234,1.759,2.468,2.468,0,0,1-.2.29.432.432,0,0,1,.521-.223q.454.11.031-.249a2.445,2.445,0,0,0-1.957-1.334,2.535,2.535,0,0,0-2.474,1.645c-.109.217-.547.8-.521,1.035.023.2-.034-.082.06.02a.566.566,0,0,1,.677.09q.133.3-.1-.251a2.359,2.359,0,0,0-3.306-1.141,2.743,2.743,0,0,0-1.028,1.18,2.341,2.341,0,0,0-.277.555c-.054.322-.369.163.269.088A1.465,1.465,0,0,0,74,114.991a1.429,1.429,0,0,0,1.421,1.421,2.69,2.69,0,0,0,2.251-1.628c.092-.183.3-.553.268-.608.055.094-.848-.015-.741-.11a2.915,2.915,0,0,0,.442.828,2.316,2.316,0,0,0,3.06.55,4.013,4.013,0,0,0,1.295-1.805,3.454,3.454,0,0,0,.3-.6c.037.049-.54.118-.521.1l-.148-.024.194.261a2.953,2.953,0,0,0,.717.835,2.342,2.342,0,0,0,3.433-.609c.323-.442.623-.9.933-1.356a2.852,2.852,0,0,0,.207-.3c.116-.227.014.055-.1.08-.742.162-.477-.039-.237.258a2.927,2.927,0,0,0,.333.286,5.143,5.143,0,0,1,.64.634.887.887,0,0,1,.089.152c.1.234-.08-.483-.08.358a3.245,3.245,0,0,0,.064.462c.045.314.1.628.143.942l.288,1.889v-.755a3.728,3.728,0,0,1-1.144,1.34,5.369,5.369,0,0,0-1.319,2.165c-.138.388-.354,1.167-.8,1.3.02-.006-.5-.24-.676-.322a3.974,3.974,0,0,0-1.5-.44c-1.64-.093-2.335,1.147-2.726,2.516l-.395,1.382a1.57,1.57,0,0,0-.1.344c-.091-.1.6-.2.613-.214.2.113.193.071-.03-.124l-.141-.131a1.692,1.692,0,0,0-2.586.33,3.348,3.348,0,0,1-1.516,1.445c-1.879.609-2.134-1.849-3.583-2.206a1.716,1.716,0,0,0-1.411.32c-.088.063-.45.32-.453.428,0-.055,1.333-.423.7.065.048-.037.018.18-.012-.142a4.3,4.3,0,0,0-.2-.707c-.308-1.077-.512-2.433-1.59-3.017a3.209,3.209,0,0,0-2.979.209c-.254.124-.543.276-.629.241-.266-.105-.468-.609-.575-.852a7.721,7.721,0,0,0-1.257-2.371c-.476-.515-1.114-.867-1.359-1.555v.755a16.563,16.563,0,0,0,.469-3.482c-.02-.278-.2-.007.016-.289a4.052,4.052,0,0,1,.456-.481,9.988,9.988,0,0,0,.778-.668c.017.068-.582-.153-.563-.152-.173-.012-.063-.153-.036-.02.042.2.338.491.455.662.2.288.393.58.6.867a2.477,2.477,0,0,0,2.484,1.251,2.511,2.511,0,0,0,1.59-1.061c.06-.08.27-.29.284-.386.048-.323.075.008-.2-.082-.365-.119-.318-.224-.294.03a4.665,4.665,0,0,0,.792,1.531,2.35,2.35,0,0,0,3.1.783,2.449,2.449,0,0,0,.8-.759,3.436,3.436,0,0,0,.331-.685c.118.1-.854.187-.789.085-.023.036.149.3.172.344a2.908,2.908,0,0,0,2.395,1.917,1.429,1.429,0,0,0,1.421-1.421,1.455,1.455,0,0,0-1.421-1.421Z" transform="translate(-17.341 -32.036)" fill="#333"/>
          <path id="パス_91385" data-name="パス 91385" d="M49.382,131.142a32.63,32.63,0,0,0,6.66-3,7.341,7.341,0,0,0,3.146-4.165,21.176,21.176,0,0,0,.207-5.123,1.421,1.421,0,0,0-2.841,0v2.156a9.721,9.721,0,0,1-.085,2.119,4.59,4.59,0,0,1-2.3,2.85,33.167,33.167,0,0,1-5.541,2.423,1.464,1.464,0,0,0-.992,1.747,1.43,1.43,0,0,0,1.747.992h0Z" transform="translate(-13.785 -34.407)" fill="#333"/>
          <path id="パス_91386" data-name="パス 91386" d="M108.569,128.155a30.409,30.409,0,0,1-5.874-2.636,4.2,4.2,0,0,1-2.033-2.933,21.274,21.274,0,0,1-.035-2.509v-2.1a1.421,1.421,0,0,0-2.841,0,33.848,33.848,0,0,0,.12,5.3,6.943,6.943,0,0,0,2.891,4.367c2.082,1.543,4.631,2.3,7.016,3.249a1.43,1.43,0,0,0,1.747-.992,1.454,1.454,0,0,0-.992-1.747h0Z" transform="translate(-28.321 -34.152)" fill="#333"/>
          <path id="パス_91387" data-name="パス 91387" d="M2.8,160.857c2.963-11.035,12.657-19.006,22.789-23.382a49.825,49.825,0,0,1,9.248-2.934l-1.382-.365a34.4,34.4,0,0,0,17.95,9.6,33.406,33.406,0,0,0,20.813-2.8,38.4,38.4,0,0,0,9.443-6.793l-1.382.365c10.935,2.362,21.911,8.485,28.192,17.967a28.443,28.443,0,0,1,3.812,8.341,1.422,1.422,0,0,0,2.739-.755c-2.418-9-9.054-16.224-16.756-21.173a52.906,52.906,0,0,0-13.012-6.019q-1.646-.506-3.324-.9a2.694,2.694,0,0,0-1.992-.057,10.51,10.51,0,0,0-1.485,1.336,35.239,35.239,0,0,1-5.553,4.086,30.558,30.558,0,0,1-27.8,1.5,31.888,31.888,0,0,1-8.757-5.869A5.273,5.273,0,0,0,35,131.873a3.5,3.5,0,0,0-2.073.188,52.839,52.839,0,0,0-13.243,5.154c-8.035,4.438-15.193,11.145-18.616,19.8A28.359,28.359,0,0,0,.056,160.1a1.422,1.422,0,0,0,2.739.755h0Z" transform="translate(0 -38.544)" fill="#333"/>
          <g id="楕円形_229" data-name="楕円形 229" transform="translate(55.202 67.341)" fill="#fff" stroke="#333" stroke-width="2">
            <ellipse cx="2.871" cy="3.35" rx="2.871" ry="3.35" stroke="none"/>
            <ellipse cx="2.871" cy="3.35" rx="1.871" ry="2.35" fill="none"/>
          </g>
        </g>
      </g>
      <g id="楕円形_175" data-name="楕円形 175" fill="none" stroke="#333" stroke-width="3">
        <ellipse cx="60" cy="60" rx="60" ry="60" stroke="none"/>
        <ellipse cx="60" cy="60" rx="58.5" ry="58.5" fill="none"/>
      </g>
    </g>
  </g>
</svg>
