<svg id="グループ_9903" data-name="グループ 9903" xmlns="http://www.w3.org/2000/svg" xmlns:xlink="http://www.w3.org/1999/xlink" width="120" height="120" viewBox="0 0 120 120">
  <defs>
    <clipPath id="clip-path">
      <ellipse id="楕円形_186" data-name="楕円形 186" cx="60" cy="60" rx="60" ry="60" transform="translate(0 0)" fill="#fff"/>
    </clipPath>
  </defs>
  <ellipse id="楕円形_189" data-name="楕円形 189" cx="60" cy="60" rx="60" ry="60" transform="translate(0 0)" fill="#fff"/>
  <g id="マスクグループ_40" data-name="マスクグループ 40" transform="translate(0 0)" clip-path="url(#clip-path)">
    <g id="c" transform="translate(-3.486 9.906)">
      <g id="d" transform="translate(1.919 1.915)">
        <path id="パス_91305" data-name="パス 91305" d="M64.92,213.1c-.025-.141-.049-.281-.074-.423a.993.993,0,0,0-.823-.488c-.421-.019-.842.249-.871.431a80.97,80.97,0,0,1-1.742,8.326A17.165,17.165,0,0,1,54.9,230.04c-2.239,1.656-6.776,3.474-11.905,4.268A102.164,102.164,0,0,1,25.243,235c.086,2.109.484,12.417.484,12.417,2.122,51.531,3.255,97.926,5.273,147.7A56.158,56.158,0,0,0,46.465,397.5c5.595-.055,14.465-.545,18.56-1.6,4.1,1.059,12.949,1.551,18.541,1.607a56.289,56.289,0,0,0,15.462-2.388c2.016-49.646,3.141-95.929,5.259-147.3l.495-13.189s0-.054.007-.159c-6.9.428-16.015.748-21.291-.107-4.594-.756-7.733-1.617-10.652-4.067a18.526,18.526,0,0,1-6.144-8.948c-.378-1.215-1.154-4.647-1.783-8.238Z" transform="translate(-3.005 -11.035)" fill="#fff"/>
        <path id="パス_91306" data-name="パス 91306" d="M87.68,431.91c-2.772-2.17-5.392-4.372-9.416-5.974-2.06-.82-4.216-1.126-5.794-2.684a8.311,8.311,0,0,1-1.958-3.915,32.008,32.008,0,0,1-.126-12.978s.112-.546.289-1.447A140.143,140.143,0,0,0,85,405.774a52.416,52.416,0,0,0,10.239-1.082l2.968,4.717L111.3,424.027c6.437,6.607,4.231,13.277-3.237,14.481a20.456,20.456,0,0,1-11.581-1.738A28.482,28.482,0,0,1,90,433.654c-.8-.571-1.568-1.157-2.319-1.746Z" transform="translate(-4.919 -19.308)" fill="#fff"/>
        <path id="パス_91307" data-name="パス 91307" d="M43.874,431.91c2.772-2.17,5.392-4.372,9.416-5.974,2.06-.82,4.216-1.126,5.794-2.684a8.311,8.311,0,0,0,1.958-3.915,32.008,32.008,0,0,0,.126-12.978s-.112-.546-.289-1.447a140.143,140.143,0,0,1-14.327.863,52.416,52.416,0,0,1-10.239-1.082l-2.968,4.717L20.255,424.027c-6.437,6.607-4.231,13.277,3.237,14.481a20.456,20.456,0,0,0,11.581-1.738,28.482,28.482,0,0,0,6.483-3.115c.8-.571,1.568-1.157,2.319-1.746Z" transform="translate(-2.627 -19.308)" fill="#fff"/>
        <path id="パス_91308" data-name="パス 91308" d="M55.664,125.482C51.883,114.321,48.1,102.472,46.077,95.4h.559a4.125,4.125,0,0,1,.895-3.694c1.3-1.508,2.944-3.69,4.275-5.179.566.457,12.1,8.658,12.972,9.278h2.255c.875-.62,12.407-8.82,12.972-9.278,1.331,1.489,2.973,3.671,4.275,5.179a4.128,4.128,0,0,1,.895,3.694h.567c-4.069,14.3-15.342,48.177-19.213,56.335H65.365c-1.965-4.127-5.828-14.828-9.7-26.251Z" transform="translate(-3.9 -5.634)" fill="#fff"/>
        <path id="パス_91309" data-name="パス 91309" d="M92.744,47.321a4.3,4.3,0,0,1,3.111-1.139,4,4,0,0,1,3.588,1.993c1.219,2.114,1.168,6.009.349,8.42a13,13,0,0,1-3.817,6.19,4.743,4.743,0,0,1-3.658,1.056l-.351-.059A27.812,27.812,0,0,1,90.709,67.2c-.93,2.524-6.069,11.376-12.571,14.828.056.732.136,1.459.245,2.186-2.875,2.078-11.3,8.067-12.039,8.593H64.088c-.667-.473-7.537-5.357-11-7.85.131-.831.236-1.629.308-2.459a24.217,24.217,0,0,1-8.769-7,32.735,32.735,0,0,1-6.21-11.716,4.654,4.654,0,0,1-3.958-.992,13,13,0,0,1-3.817-6.19c-.818-2.41-.87-6.306.349-8.42a4,4,0,0,1,3.588-1.993,4.305,4.305,0,0,1,3.111,1.139s-8.21-30.575,29.326-30.575c33.378,0,25.732,30.575,25.732,30.575Z" transform="translate(-3.211 -2.635)" fill="#fff"/>
        <path id="パス_91310" data-name="パス 91310" d="M79.17,173.473c-1.445-5.627-3.179-12.066-4.328-15.849a63.112,63.112,0,0,1,10.776-3.815,40.859,40.859,0,0,1,12.024-2.061c3.2,0,6.619,1.384,8.991,2.219l.717.253c-.607,6.486-1.288,12.807-1.9,17.317l-.7.633s-2.665,2.4-4.64,2.781c-2.914.567-17.26,1.575-19.91.23l-.675-.341q-.171-.673-.349-1.366Z" transform="translate(-5.136 -8.437)" fill="#fff"/>
        <path id="パス_91311" data-name="パス 91311" d="M31.881,142.135c-.808-.745-1.56-1.425-2.232-2.02a6.145,6.145,0,0,0-3.257-1.526,3.566,3.566,0,0,0-2.886.877,2.967,2.967,0,0,0-.449,3.288,13.2,13.2,0,0,0,2.937,3.3c-2.129-3.255-4.8-2.33-5.7-1.305a2.434,2.434,0,0,0-.377,2.568c.764,1.739,2.556,3.09,4.25,4.89-1.748-.31-3.035-.521-4.015.569a2.83,2.83,0,0,0-.407,2.465,6.745,6.745,0,0,0,1.22,1.964c1.513,1.943,2.691,3.547,4.1,5.3l.452.564c4.512-.835,14.148-2.516,23.615-4.161l-1.64-1.676c-3.775-3.808-10.724-10.6-15.61-15.1Z" transform="translate(-2.763 -7.87)" fill="#fff"/>
        <path id="パス_91312" data-name="パス 91312" d="M60.912,138.85c-.576-1.615-1.173-3.317-1.783-5.077,1.514-10.689,3.227-22.564,3.217-23.16a27.682,27.682,0,0,0-1.533-6.012l-.785-1.635c2.007-2.661,4.151-5.443,5.31-6.746h2.255c1.112,1.251,3.13,3.863,5.065,6.422l-.425,1.746c-.349,1.436-1.172,5.508-1.172,6.122,0,.358,1.65,13.059,2.8,23.059-2.805,8.117-5.342,14.993-6.813,18.123H65.884c-1.141-2.423-2.922-7.091-4.972-12.842Z" transform="translate(-4.461 -6.05)" fill="#fff"/>
        <path id="パス_91313" data-name="パス 91313" d="M51.823,86.525C50.492,88.014,48.85,90.2,47.548,91.7a4.128,4.128,0,0,0-.895,3.694c.5,1,4.595,10.81,8.319,13.2,1.177-1.569,7.49-10.168,9.822-12.792-.875-.62-12.407-8.82-12.972-9.278Z" transform="translate(-3.918 -5.634)" fill="#fff"/>
        <path id="パス_91314" data-name="パス 91314" d="M80.944,86.525c1.331,1.489,2.973,3.671,4.275,5.179a4.128,4.128,0,0,1,.895,3.694c-.5,1-4.595,10.81-8.319,13.2-1.177-1.569-7.49-10.168-9.822-12.792.875-.62,12.407-8.82,12.972-9.278Z" transform="translate(-4.841 -5.634)" fill="#fff"/>
        <g id="e">
          <path id="パス_91315" data-name="パス 91315" d="M124.2,139.766c-.973-8.551-2.073-17.184-6.143-24.877a34.825,34.825,0,0,0-4.873-7.028,21.335,21.335,0,0,0-1.59-1.592,29.924,29.924,0,0,0-5.154-3.615c-6.772-3.941-14.62-6.055-22.293-7.986-3.783,13.6-15.545,49.043-19.517,57.413H63.468c-3.992-8.384-15.829-43.925-19.613-57.485-14.221,4.338-21.055,6.8-27.308,11.112-4.253,2.934-6.821,6.785-9.059,12.306-3.837,13.8-4.562,22.385-5.265,36.034a99.226,99.226,0,0,0,.735,20.578A23.413,23.413,0,0,0,9.2,187.219c2.95,3.04,8.388,4.357,12.7,4.769-1.158,10.632-2.536,26.27-3.244,34.721a3.3,3.3,0,0,0,.67,1.876,3.712,3.712,0,0,0,1.8,1.168,104.57,104.57,0,0,0,20.873-.5c5.13-.794,9.666-2.613,11.905-4.268a17.165,17.165,0,0,0,6.508-9.092,80.97,80.97,0,0,0,1.742-8.326c.029-.182.45-.45.871-.431a.993.993,0,0,1,.823.488c.641,3.742,1.464,7.4,1.857,8.661a18.526,18.526,0,0,0,6.144,8.948c2.919,2.45,6.058,3.311,10.652,4.067,6.02.976,17.035.421,24.059-.077a3.614,3.614,0,0,0,2.105-1.244,4,4,0,0,0,.689-2.373c-.507-6.393-1.158-13.236-2-21.322-.661-6.726-1.092-11.543-1.358-14.573,5.936-.691,12.672-4.578,14.975-8.7,2.844-5.088,3.653-9.272,3.969-15.87A158.137,158.137,0,0,0,124.2,139.766ZM24.759,161.182l-.452-.564c-1.4-1.752-2.583-3.356-4.1-5.3a6.765,6.765,0,0,1-1.22-1.964,2.831,2.831,0,0,1,.407-2.465c.979-1.09,2.266-.88,4.015-.569-1.694-1.8-3.486-3.152-4.25-4.89a2.432,2.432,0,0,1,.376-2.568,3.142,3.142,0,0,1,3.8-.546,5.871,5.871,0,0,1-1.038-1.454,2.969,2.969,0,0,1,.449-3.288,3.569,3.569,0,0,1,2.886-.877,6.148,6.148,0,0,1,3.257,1.526c.672.594,1.423,1.276,2.232,2.02,4.886,4.5,11.834,11.292,15.61,15.1l1.64,1.676C38.907,158.666,29.271,160.347,24.759,161.182Zm77.556,7.9-.7.633s-2.665,2.4-4.64,2.781c-2.914.567-17.26,1.575-19.91.23l-.675-.341q-.171-.673-.349-1.366c-1.445-5.627-3.179-12.066-4.328-15.849a63.113,63.113,0,0,1,10.776-3.815,40.859,40.859,0,0,1,12.024-2.061c3.2,0,6.619,1.384,8.991,2.219l.717.253c-.607,6.486-1.288,12.807-1.9,17.317Z" transform="translate(-2.006 -5.981)" fill="#0c5fe5"/>
          <path id="パス_91316" data-name="パス 91316" d="M47.179,10.206c-3.132-1.03-6.5.59-9.18,2.516a11.905,11.905,0,0,0-4.5,5.11,13.889,13.889,0,0,0-.613,4.9,36.6,36.6,0,0,1-.434,6.816c-.506,2.626-1.607,5.133-1.864,7.795s.6,5.713,2.973,6.943v1.4a5.4,5.4,0,0,1,1.035-.131,4.259,4.259,0,0,1,3.293,1.326c0-1.244,0-2.675,0-2.675a10.606,10.606,0,0,0,2.386-3.324c1.136-2.5,1.216-5.326,2.159-7.9a6,6,0,0,1,1.125-2.007,5.4,5.4,0,0,1,4.138-1.561,10.343,10.343,0,0,1,4.36,1.277l4.7-3.9a9.259,9.259,0,0,1,8.892-5.68,12.743,12.743,0,0,1,9.531,5.283c1.543,2.049,2.592,4.488,4.377,6.313.009,2.126.009,4.054.009,4.054,1.932,2.093,9.877,7.663,15.88,7.663v1.138a4.536,4.536,0,0,1,3.8,1.651,1.789,1.789,0,0,0,.807-.8,4.978,4.978,0,0,0,.354-2.23A142.276,142.276,0,0,0,98.782,26.27c-.345-2.613-.718-5.321-1.991-7.57-2.861-5.043-9.025-6.173-13.7-9.2-1.77-1.148-3.369-2.6-5.12-3.79a21.323,21.323,0,0,0-16.9-3.139c-3.589.871-7.273,3.043-8.479,6.824l-5.409.809Z" transform="translate(-3.232 -2.001)" fill="#dbe8fc"/>
        </g>
      </g>
      <g id="f" transform="translate(0 0)">
        <path id="パス_91317" data-name="パス 91317" d="M52.424,85.363c-.044.472-.1.943-.161,1.413l.068-.509q-.07.52-.155,1.037a1.46,1.46,0,0,0-.034.764,1.428,1.428,0,0,0,.227.712,2.142,2.142,0,0,0,1.144.88,1.935,1.935,0,0,0,1.475-.193l.388-.3a1.913,1.913,0,0,0,.492-.845c.159-.982.291-1.969.384-2.959a1.967,1.967,0,0,0-1.915-1.915,1.932,1.932,0,0,0-1.353.561l-.3.388a1.9,1.9,0,0,0-.261.966h0Z" transform="translate(-2.24 -3.586)" fill="#333"/>
        <path id="パス_91318" data-name="パス 91318" d="M82.3,86.571c-.011-.073-.02-.146-.03-.219l.068.509c-.074-.551-.14-1.1-.19-1.657a1.967,1.967,0,0,0-1.915-1.915l-.509.068a1.913,1.913,0,0,0-.845.492l-.3.388a1.9,1.9,0,0,0-.261.966c.073.8.179,1.592.288,2.385a2.142,2.142,0,0,0,.879,1.144,1.425,1.425,0,0,0,.712.227,1.441,1.441,0,0,0,.764-.034l.457-.193a1.922,1.922,0,0,0,.687-.687l.193-.457a1.931,1.931,0,0,0,0-1.017h0Z" transform="translate(-3.366 -3.579)" fill="#333"/>
        <path id="パス_91319" data-name="パス 91319" d="M104.746,193.9q.817,9.266,1.765,18.518.547,5.4,1.038,10.807.227,2.529.434,5.06c.083,1.013.467,2.492-.643,3.084-.758.4-2.14.271-3.174.333q-2.326.142-4.654.243c-3.213.138-6.431.216-9.647.144C84.6,231.967,78.279,231.6,74,228.177a17.125,17.125,0,0,1-5.481-7.317,51.782,51.782,0,0,1-2-8.661,2.944,2.944,0,0,0-1.118-2.191,3.048,3.048,0,0,0-2.527-.5c-2.064.542-2.038,2.645-2.366,4.378a30.763,30.763,0,0,1-2.177,7.986c-2.82,5.708-8.49,8.2-14.44,9.408-6.28,1.28-13,1.22-19.375.913-1.118-.054-2.469.218-3.078-.7-.479-.718-.064-2.2.011-3.079q.369-4.324.754-8.645c.57-6.4,1.162-12.792,1.815-19.182q.227-2.211.465-4.42a1.926,1.926,0,0,0-1.914-1.914,1.958,1.958,0,0,0-1.914,1.914c-.705,6.5-1.32,13-1.912,19.509q-.432,4.736-.842,9.474-.179,2.061-.354,4.124a6.8,6.8,0,0,0,.42,3.831c1.588,3.233,5.425,2.9,8.464,2.986,3.481.1,6.971.055,10.447-.162,6.215-.387,13.228-1.3,18.462-4.971a19.448,19.448,0,0,0,6.795-8.26,24.449,24.449,0,0,0,1.321-4.19c.211-.921.4-1.846.583-2.772q.167-.85.321-1.7a6.792,6.792,0,0,1,.2-1.469l-.687.687-.565-.246q-.722-.594-.524-.022c-.073.226.116.646.161.888q.121.65.248,1.3.289,1.474.614,2.941a29.583,29.583,0,0,0,1.02,3.756,20.822,20.822,0,0,0,5.748,8.39c4.794,4.283,11.336,5.319,17.561,5.591,3.353.146,6.715.088,10.069-.035q2.463-.09,4.925-.234a31.443,31.443,0,0,0,4.673-.342,5.248,5.248,0,0,0,3.521-2.691,8.431,8.431,0,0,0,.456-4.656q-.449-5.438-.983-10.867c-.749-7.712-1.543-15.419-2.223-23.137a1.965,1.965,0,0,0-1.914-1.914,1.929,1.929,0,0,0-1.914,1.914h0Z" transform="translate(-0.751 -8.251)" fill="#333"/>
        <path id="パス_91320" data-name="パス 91320" d="M68.456,405.763a35.167,35.167,0,0,0-.153,12.4c.586,3.72,2.14,6.769,5.771,8.258,1.675.687,3.419,1.124,5.049,1.932a30.316,30.316,0,0,1,4.463,2.769c2.787,2.048,5.32,4.409,8.5,5.858A34.991,34.991,0,0,0,103.6,440.5c3.326.271,7.093-.2,9.85-2.225a8.2,8.2,0,0,0,3.461-7.062c-.2-3.444-2.171-6.37-4.5-8.786-3.218-3.344-6.187-6.923-9.282-10.379A43.98,43.98,0,0,1,97,403.64c-1.176-2.166-4.483-.235-3.306,1.932,3.025,5.572,7.5,10,11.635,14.739,1.181,1.355,2.37,2.706,3.6,4.014a20.64,20.64,0,0,1,3.057,3.71c1.046,1.8,1.651,4.115.394,5.97-1.408,2.079-4.265,2.633-6.6,2.717-3.6.13-6.774-1.053-10.069-2.341a31.982,31.982,0,0,1-8.122-4.977,36.452,36.452,0,0,0-7.659-4.879c-1.641-.724-3.473-1.088-5.058-1.919a5.157,5.157,0,0,1-2.537-3.56,28.892,28.892,0,0,1-.193-12.266c.473-2.406-3.217-3.437-3.691-1.017h0Z" transform="translate(-2.916 -17.307)" fill="#333"/>
        <path id="パス_91321" data-name="パス 91321" d="M59.238,406.781a30.345,30.345,0,0,1,.041,11.045,7.828,7.828,0,0,1-1.419,3.759c-.985,1.2-2.672,1.549-4.067,2.023a29.649,29.649,0,0,0-8.211,4.421c-2.5,1.861-4.814,4-7.635,5.376a29.766,29.766,0,0,1-10.161,3.266c-2.59.212-5.745.061-7.855-1.663-4.824-3.943,1.745-9.763,4.344-12.67,2.8-3.127,5.538-6.3,8.336-9.423a38.578,38.578,0,0,0,5.083-7.342c1.176-2.166-2.128-4.1-3.306-1.932a36.93,36.93,0,0,1-4.934,7.07c-2.748,3.068-5.431,6.195-8.186,9.256-2.492,2.768-5.363,5.307-6.423,9.015a8.489,8.489,0,0,0,1.537,7.871c2.046,2.452,5.274,3.385,8.341,3.646,4.172.355,7.939-.865,11.765-2.348a29.444,29.444,0,0,0,5.422-2.572c1.409-.913,2.716-1.993,4.035-3.03a30.238,30.238,0,0,1,8.683-5.185c1.921-.659,3.882-1.211,5.442-2.58a9.352,9.352,0,0,0,2.7-4.869,34.317,34.317,0,0,0,.16-14.149c-.475-2.416-4.165-1.392-3.691,1.017h0Z" transform="translate(-0.623 -17.307)" fill="#333"/>
        <path id="パス_91322" data-name="パス 91322" d="M66.214,398.667c5.36,1.345,11.153,1.478,16.651,1.63a57.051,57.051,0,0,0,18.375-2.41,1.973,1.973,0,0,0,1.4-1.846c.969-23.881,1.759-47.769,2.547-71.656.8-24.266,1.609-48.531,2.6-72.791.217-5.349.412-10.7.612-16.047.093-2.463-3.736-2.46-3.828,0-.607,16.163-1.267,32.324-1.841,48.488-.847,23.85-1.588,47.7-2.41,71.555q-.7,20.227-1.5,40.449l1.4-1.846a53.6,53.6,0,0,1-17.357,2.273c-5.162-.143-10.6-.23-15.634-1.493-2.39-.6-3.41,3.091-1.017,3.691h0Z" transform="translate(-2.788 -10.044)" fill="#333"/>
        <path id="パス_91323" data-name="パス 91323" d="M23.248,235.936c.634,16.44,1.3,32.878,1.882,49.321.835,23.6,1.569,47.213,2.383,70.819Q28.2,376.068,29,396.055a1.976,1.976,0,0,0,1.4,1.846,57.284,57.284,0,0,0,18.378,2.408c5.5-.146,11.294-.275,16.653-1.623,2.388-.6,1.376-4.294-1.017-3.691-5.033,1.267-10.474,1.349-15.635,1.486a53.828,53.828,0,0,1-17.359-2.271l1.4,1.846c-.958-23.644-1.743-47.3-2.523-70.946-.791-24-1.589-48-2.556-71.995q-.346-8.589-.673-17.179c-.095-2.456-3.923-2.468-3.828,0h0Z" transform="translate(-1 -10.061)" fill="#333"/>
        <path id="パス_91324" data-name="パス 91324" d="M64.791,257.669q.013,8.3.006,16.592,0,15.9,0,31.807,0,18.64,0,37.28,0,16.664,0,33.328,0,9.948,0,19.9v1.049a1.915,1.915,0,0,0,3.828,0q0-8.771,0-17.542,0-16.147,0-32.295,0-18.653,0-37.308v-32.9q0-9.5-.006-19c0-.3,0-.6,0-.905,0-2.463-3.832-2.467-3.828,0h0Z" transform="translate(-2.785 -10.995)" fill="#333"/>
        <path id="パス_91325" data-name="パス 91325" d="M50.385,85.083c-1.107,1.254-2.133,2.576-3.188,3.874A10.512,10.512,0,0,0,44.681,93c-.5,2.073.441,3.755,1.287,5.56a60.663,60.663,0,0,0,3.327,6.269,16.785,16.785,0,0,0,4.628,5.329,1.958,1.958,0,0,0,2.618-.687c3.117-4.159,6.08-8.5,9.522-12.4a1.95,1.95,0,0,0-.388-3.006q-3.257-2.31-6.507-4.632-2.107-1.5-4.213-3.011-.719-.515-1.436-1.035c-.207-.149-1.192-.906-.429-.3a1.974,1.974,0,0,0-2.706,0,1.927,1.927,0,0,0,0,2.706c4.283,3.394,8.9,6.417,13.36,9.577l-.388-3.006c-3.657,4.145-6.809,8.761-10.12,13.179l2.618-.687a9.208,9.208,0,0,1-1.692-1.684,23.525,23.525,0,0,1-1.635-2.387A59.393,59.393,0,0,1,49.544,97.2c-.316-.661-.622-1.327-.925-2-.093-.2-.212-.412-.284-.624a1.649,1.649,0,0,1-.092-.2c.076.412.091-.24.1-.259A8.523,8.523,0,0,1,50.13,91.38c.975-1.207,1.932-2.429,2.96-3.592,1.626-1.84-1.072-4.557-2.706-2.706Z" transform="translate(-1.915 -3.63)" fill="#333"/>
        <path id="パス_91326" data-name="パス 91326" d="M79.506,87.79c.987,1.117,1.909,2.289,2.845,3.449.675.836,1.718,1.716,1.89,2.836.012.083.05.559.069.382.017-.16-.026.061-.048.129a6.186,6.186,0,0,1-.284.624c-.3.667-.61,1.333-.925,2a59.706,59.706,0,0,1-2.912,5.463,14.726,14.726,0,0,1-3.4,4.187l2.618.687c-3.311-4.42-6.464-9.035-10.12-13.179l-.388,3.006c4.457-3.16,9.076-6.184,13.36-9.577a1.925,1.925,0,0,0,0-2.706,1.961,1.961,0,0,0-2.706,0c.766-.607-.181.122-.379.265q-.741.537-1.486,1.07-2.1,1.509-4.213,3.011-3.251,2.318-6.507,4.632a1.951,1.951,0,0,0-.388,3.006c3.442,3.9,6.405,8.246,9.522,12.4a1.95,1.95,0,0,0,2.618.687,16.785,16.785,0,0,0,4.628-5.329,60.574,60.574,0,0,0,3.327-6.269c.846-1.8,1.8-3.485,1.287-5.56A10.5,10.5,0,0,0,85.4,88.959c-1.055-1.3-2.081-2.62-3.188-3.874-1.635-1.85-4.333.866-2.706,2.706Z" transform="translate(-2.837 -3.63)" fill="#333"/>
        <path id="パス_91327" data-name="パス 91327" d="M70.793,107.945c-2.706,0-5.413-.056-8.119-.057a1.914,1.914,0,0,0,0,3.828c2.706,0,5.413.056,8.119.057a1.914,1.914,0,0,0,0-3.828Z" transform="translate(-2.612 -4.637)" fill="#333"/>
        <path id="パス_91328" data-name="パス 91328" d="M70.836,104.161a37.475,37.475,0,0,0-1.219,6.374,19.718,19.718,0,0,0,.36,3.452c.768,6.177,1.544,12.351,2.265,18.534a1.973,1.973,0,0,0,1.914,1.914,1.926,1.926,0,0,0,1.914-1.914c-.712-6.1-1.477-12.191-2.235-18.283-.145-1.17-.338-2.349-.409-3.527-.021-.347-.076.462,0-.067.033-.213.07-.427.106-.64.093-.534.2-1.065.3-1.6.212-1.079.434-2.157.689-3.227.573-2.394-3.117-3.417-3.691-1.017h0Z" transform="translate(-2.992 -4.418)" fill="#333"/>
        <path id="パス_91329" data-name="パス 91329" d="M61.149,132.823c.884-6.227,1.792-12.452,2.636-18.685a15.041,15.041,0,0,0,.323-3.975,22.958,22.958,0,0,0-1.715-6.239,1.928,1.928,0,0,0-2.618-.687,1.961,1.961,0,0,0-.687,2.618c-.185-.409.214.652.278.859.153.5.293,1,.425,1.5s.261,1.027.374,1.545c.054.247.1.5.149.745.113.631.03-.234.038.26a19.891,19.891,0,0,1-.363,3.123c-.817,5.977-1.683,11.946-2.531,17.918a1.978,1.978,0,0,0,1.337,2.354,1.928,1.928,0,0,0,2.354-1.337h0Z" transform="translate(-2.469 -4.426)" fill="#333"/>
        <path id="パス_91330" data-name="パス 91330" d="M84.577,92.135c-1.994,7.619-4.47,15.125-6.907,22.611-2.936,9.023-5.958,18.025-9.234,26.931-.7,1.894-1.406,3.783-2.15,5.659-.635,1.6-.835,2.128-1.536,3.614L66.4,150H65.238l1.653.947c-.223-.472-.434-.948-.643-1.427-.06-.138-.119-.276-.177-.414.185.434-.028-.067-.053-.128q-.23-.557-.456-1.115c-.643-1.6-1.257-3.2-1.859-4.816-1.55-4.145-3.024-8.318-4.47-12.5q-4.711-13.622-9-27.386c-1.136-3.663-2.266-7.332-3.241-11.041-.626-2.38-4.319-1.371-3.691,1.017,2.019,7.679,4.526,15.244,6.992,22.788,2.973,9.1,6.033,18.175,9.357,27.151,1.22,3.3,2.437,6.624,3.943,9.8a1.889,1.889,0,0,0,1.653.948H66.4a1.886,1.886,0,0,0,1.653-.947c3.163-6.7,5.45-13.877,7.863-20.866q4.767-13.811,9.105-27.77c1.138-3.68,2.269-7.366,3.244-11.093.624-2.385-3.067-3.4-3.691-1.017h0Z" transform="translate(-1.858 -3.9)" fill="#333"/>
        <path id="パス_91331" data-name="パス 91331" d="M103.543,171.649a8.858,8.858,0,0,1-4.514,2.406c.537-.079-.194.023-.289.034l-.555.063c-.495.054-.991.1-1.487.145q-1.71.152-3.424.254c-2.479.15-4.965.245-7.449.209-1.042-.015-2.082-.062-3.12-.155a4.126,4.126,0,0,1-.894-.136c-.226-.049-1.071-.382-.5-.109-2.214-1.052-4.158,2.247-1.932,3.306,1.841.875,4.061.874,6.06.916,2.7.057,5.407-.05,8.1-.218,2.216-.139,4.444-.3,6.642-.637a12.46,12.46,0,0,0,6.065-3.37c1.842-1.643-.873-4.343-2.706-2.706h0Z" transform="translate(-3.37 -7.355)" fill="#333"/>
        <path id="パス_91332" data-name="パス 91332" d="M76.75,158.745a74.908,74.908,0,0,1,14.1-4.429,25.69,25.69,0,0,1,7.959-.68,32.135,32.135,0,0,1,7.275,2.09c2.327.825,3.327-2.872,1.017-3.691a36.678,36.678,0,0,0-7.889-2.181,28.544,28.544,0,0,0-9.006.692,77.919,77.919,0,0,0-15.389,4.9,1.927,1.927,0,0,0-.687,2.618,1.963,1.963,0,0,0,2.618.687h0Z" transform="translate(-3.176 -6.435)" fill="#333"/>
        <path id="パス_91333" data-name="パス 91333" d="M48.9,155.8q-7.259-7.314-14.8-14.351c-2.511-2.333-5.191-5.333-8.97-4.8A4.719,4.719,0,0,0,21,140.366c-.425,2.165.686,4,2.158,5.488,3.23,3.257,6.561,6.428,9.855,9.621,1.77,1.715,4.48-.989,2.706-2.706q-3.671-3.557-7.3-7.154c-1.1-1.083-2.606-2.134-3.406-3.469-.791-1.32.347-1.954,1.593-1.673a7.5,7.5,0,0,1,3.13,2.155q1.556,1.415,3.086,2.861,3.409,3.206,6.757,6.477,3.332,3.244,6.616,6.539c1.738,1.751,4.445-.956,2.706-2.706h0Z" transform="translate(-0.899 -5.87)" fill="#333"/>
        <path id="パス_91334" data-name="パス 91334" d="M22.983,142.075a4.767,4.767,0,0,0-4.818,2.5c-1.025,2.179-.016,4.225,1.414,5.918,1.237,1.465,2.684,2.786,4.024,4.158,1.365,1.4,2.745,2.777,4.2,4.083a1.957,1.957,0,0,0,2.706,0,1.933,1.933,0,0,0,0-2.706c-2.34-2.1-4.483-4.4-6.691-6.635-.52-.525-1.061-1.036-1.533-1.606a3.177,3.177,0,0,1-.751-1.284c.025.238.031-.3.009-.11s.065-.389.011-.063c.014-.087.158-.256.015-.078.031-.038.347-.307.179-.183-.149.11.163-.084.193-.1.114-.058.114-.06,0-.008l.2-.061a2.108,2.108,0,0,1,.841,0,1.924,1.924,0,0,0,1.914-1.914,1.963,1.963,0,0,0-1.914-1.914h0Z" transform="translate(-0.763 -6.104)" fill="#333"/>
        <path id="パス_91335" data-name="パス 91335" d="M23.032,150.642a4.809,4.809,0,0,0-4.316,1.3,4.587,4.587,0,0,0-.8,4.577,16.494,16.494,0,0,0,2.741,4.019c.982,1.286,1.962,2.574,2.973,3.839a1.918,1.918,0,0,0,2.706,0,1.97,1.97,0,0,0,0-2.706q-.571-.713-1.13-1.436c.223.288-.129-.168-.14-.182l-.219-.285-.55-.721q-.571-.749-1.145-1.5-.392-.51-.787-1.017s-.382-.5-.156-.2c-.09-.12-.18-.239-.266-.362s-.168-.246-.246-.373c-.022-.037-.25-.447-.148-.244.087.174-.061-.194-.071-.221-.116-.323-.008.279,0,.048,0-.116,0-.237-.007-.353-.006-.361-.073.225-.01.009.01-.033.083-.346.088-.344.115.07-.324.291,0,.026.162-.132-.285.385-.01.019.209-.277-.149.1,0-.018a1.728,1.728,0,0,1,.177-.105l-.212.082c.056-.071.248-.057.323-.1.178-.091-.377,0-.028,0,.122,0,.244-.01.366-.007a7.841,7.841,0,0,1,.873.077,1.917,1.917,0,0,0,1.914-1.914,1.974,1.974,0,0,0-1.914-1.914h0Z" transform="translate(-0.758 -6.471)" fill="#333"/>
        <path id="パス_91336" data-name="パス 91336" d="M108.348,131.741c-.608,12.034-1.717,24.088-3.193,36.046-.28,2.272-.557,4.464-1,6.773-.461,2.407,3.228,3.439,3.691,1.017.942-4.915,1.419-9.94,1.944-14.912q1.036-9.825,1.782-19.679c.234-3.08.448-6.161.6-9.246.124-2.462-3.7-2.456-3.828,0h0Z" transform="translate(-4.475 -5.582)" fill="#333"/>
        <path id="パス_91337" data-name="パス 91337" d="M42.935,92.766c-8.606,2.631-17.649,5.127-25.387,9.87a26.557,26.557,0,0,0-9.34,9.234c-2.953,5.035-4.153,10.782-5.271,16.454A176.49,176.49,0,0,0,.019,159.667a74.129,74.129,0,0,0,1.266,16.78c1.042,4.765,3.653,9.908,7.53,12.981,6.792,5.384,16.342,4.794,24.4,3.788A227.947,227.947,0,0,0,65.284,186.8q3.886-1.067,7.726-2.294,1.734-.558,3.455-1.156c1.324-.461,2.591-.806,3.25-2.161.778-1.6-.186-3.862-.586-5.489q-.754-3.068-1.548-6.125c-1.08-4.181-2.187-8.358-3.377-12.51-.466-1.626-.771-3.941-2.1-5.082-1.394-1.2-3.273-.557-4.889-.273-14.046,2.465-28.114,4.812-42.143,7.376-.844.154-1.688.309-2.531.474-2.416.472-1.392,4.162,1.017,3.691,12.628-2.467,25.352-4.487,38.028-6.691,2.711-.472,5.518-.783,8.193-1.432,1.048-.255-.511-.046-.269-.407-.057.086.247.8.274.887.25.822.49,1.647.726,2.472.524,1.829,1.029,3.663,1.525,5.5q1.628,6.019,3.135,12.069.3,1.212.594,2.426.122.5.241,1.008a4.249,4.249,0,0,0,.121.513c.023.1.045.194.068.292a.551.551,0,0,1,.143-.4l.109-.181-.666.236-.674.234q-.856.3-1.715.581-1.769.587-3.551,1.133a225.194,225.194,0,0,1-30.22,6.971c-7.92,1.279-16.288,2.819-24.1.217a12.76,12.76,0,0,1-4.752-2.6A20.089,20.089,0,0,1,6.54,180.07c-2.15-4.5-2.416-9.761-2.622-14.663-.2-4.852.027-9.7.3-14.543.283-5.043.623-10.094,1.325-15.1a130.559,130.559,0,0,1,3.212-15.52,23.855,23.855,0,0,1,7.153-11.8c5.614-4.849,13.321-7.292,20.236-9.545,2.594-.845,5.2-1.651,7.808-2.448,2.349-.718,1.347-4.415-1.017-3.691h0Z" transform="translate(0 -3.983)" fill="#333"/>
        <path id="パス_91338" data-name="パス 91338" d="M86.289,96.458a113.3,113.3,0,0,1,16.071,4.954c4.809,2.009,9.5,4.639,12.866,8.692,7.2,8.67,8.69,20.4,9.789,31.217a155.221,155.221,0,0,1,.744,18.1c-.079,5.075-.094,10.349-1.584,15.248a22.5,22.5,0,0,1-2.678,5.908,14.573,14.573,0,0,1-4.643,4.092,22.842,22.842,0,0,1-6.447,2.69,43.719,43.719,0,0,1-8.156.868,181.048,181.048,0,0,1-18.64-.312c-6.609-.35-13.23-.761-19.791-1.654a1.981,1.981,0,0,0-2.354,1.337,1.927,1.927,0,0,0,1.337,2.354c6.235.848,12.505,1.335,18.786,1.682,5.864.323,11.738.66,17.612.53,5.77-.128,11.61-.372,16.934-2.793a19.738,19.738,0,0,0,10.2-9.744c2.133-4.622,2.821-9.518,3.068-14.565a162.088,162.088,0,0,0-.181-19.286,146.954,146.954,0,0,0-2.277-18.1,47.529,47.529,0,0,0-6.2-16.426,29.686,29.686,0,0,0-6.224-7.24,40.613,40.613,0,0,0-8.154-4.969C100.3,96.164,93.8,94.4,87.308,92.766c-2.39-.6-3.409,3.088-1.017,3.691h0Z" transform="translate(-2.64 -3.984)" fill="#333"/>
        <path id="パス_91339" data-name="パス 91339" d="M32.354,106.894l5.008,2.861-.388-3.006c-1.59,1.491-3.17,2.993-4.678,4.566-1.528,1.594-2.407,3.057-1.392,5.2,1.626,3.441,3.517,6.788,5.344,10.126,3.478,6.354,7.165,12.589,10.78,18.865,1.229,2.134,4.538.209,3.306-1.932-3.322-5.767-6.706-11.5-9.931-17.322q-2.392-4.317-4.663-8.7A16.338,16.338,0,0,0,34.421,115q-.26-.779-.239-.107l.223-.236c.367-.177.765-.806,1.055-1.1,1.369-1.4,2.792-2.754,4.222-4.1a1.931,1.931,0,0,0-.388-3.006l-5.008-2.861c-2.143-1.224-4.073,2.082-1.932,3.306h0Z" transform="translate(-1.31 -4.44)" fill="#333"/>
        <path id="パス_91340" data-name="パス 91340" d="M98.432,103.588l-5.008,2.861a1.932,1.932,0,0,0-.388,3.006c1.377,1.291,2.748,2.591,4.069,3.939.327.334.793,1.059,1.208,1.259l.223.236q.02-.672-.239.107a19.622,19.622,0,0,0-1.208,2.354q-2.234,4.341-4.529,8.65c-3.039,5.669-6.238,11.251-9.447,16.824-1.232,2.139,2.076,4.069,3.306,1.932,3.488-6.06,6.958-12.13,10.237-18.307,1.746-3.287,3.568-6.568,5.156-9.934,1.008-2.134.122-3.621-1.392-5.2s-3.088-3.075-4.678-4.566l-.388,3.006,5.008-2.861c2.139-1.222.212-4.531-1.932-3.306h0Z" transform="translate(-3.561 -4.44)" fill="#333"/>
        <path id="パス_91341" data-name="パス 91341" d="M36.286,64.1c2.375,10.416,10.212,21.771,21.47,23.47a1.975,1.975,0,0,0,2.354-1.337,1.927,1.927,0,0,0-1.337-2.354c-10.02-1.511-16.688-11.549-18.8-20.8-.547-2.4-4.24-1.385-3.691,1.017h0Z" transform="translate(-1.558 -2.652)" fill="#333"/>
        <path id="パス_91342" data-name="パス 91342" d="M92.578,63.188a27.8,27.8,0,0,1-1.254,4.179c-.185.486-.34.8-.559,1.35-.2.485.131-.263-.034.082-.06.126-.117.255-.177.381a35.527,35.527,0,0,1-3.062,5.1c-2.665,3.777-6.313,7.9-11,9-2.4.564-1.382,4.255,1.017,3.691,5.53-1.3,9.785-5.917,12.989-10.344a36.37,36.37,0,0,0,3.328-5.446c.2-.409.374-.825.55-1.244.208-.5-.141.329.078-.179.143-.332.283-.664.417-1a27.726,27.726,0,0,0,1.4-4.552c.5-2.4-3.188-3.432-3.691-1.017h0Z" transform="translate(-3.229 -2.656)" fill="#333"/>
        <path id="パス_91343" data-name="パス 91343" d="M96.808,49.91a2.559,2.559,0,0,1,2.217-.528,2.047,2.047,0,0,1,1.052.45c-.264-.2.521.7.225.233a5.042,5.042,0,0,1,.751,2.028,11.545,11.545,0,0,1,.076,3A12.667,12.667,0,0,1,99.583,59.9c-.946,1.744-2.373,3.548-4.554,3.265a1.924,1.924,0,0,0-1.914,1.914,1.963,1.963,0,0,0,1.914,1.914c5.038.654,8.13-4.79,9.388-8.861,1.128-3.651,1.082-9.319-2.488-11.657A6.571,6.571,0,0,0,94.1,47.2c-1.842,1.643.873,4.343,2.706,2.706h0Z" transform="translate(-4.002 -1.955)" fill="#333"/>
        <path id="パス_91344" data-name="パス 91344" d="M38.952,47.2a6.605,6.605,0,0,0-7.194-1.073,6.282,6.282,0,0,0-3.286,4.228,15.787,15.787,0,0,0,2.292,12.461c1.616,2.4,4.168,4.573,7.262,4.171a1.977,1.977,0,0,0,1.914-1.914,1.925,1.925,0,0,0-1.914-1.914c-2.18.283-3.609-1.521-4.554-3.265a12.661,12.661,0,0,1-1.547-4.808,8.242,8.242,0,0,1,.827-5.026c-.3.479.491-.43.225-.233a1.964,1.964,0,0,1,.925-.423,2.586,2.586,0,0,1,2.343.5c1.833,1.636,4.55-1.062,2.706-2.706h0Z" transform="translate(-1.205 -1.956)" fill="#333"/>
        <path id="パス_91346" data-name="パス 91346" d="M65.8,59.724a25.361,25.361,0,0,1,.6,2.729l-.068-.509a1.657,1.657,0,0,1,.011.377l.068-.509a.932.932,0,0,1-.041.169l.193-.457a.71.71,0,0,1-.059.109l.3-.388a.553.553,0,0,1-.089.088l.388-.3a1.8,1.8,0,0,1-.216.115l.457-.193a1.562,1.562,0,0,1-.365.106l.509-.068a1.511,1.511,0,0,1-.342,0l.509.068c-.129-.018-.256-.05-.385-.067a1.46,1.46,0,0,0-.764-.034,1.428,1.428,0,0,0-.712.227,1.913,1.913,0,0,0-.686,2.618,1.831,1.831,0,0,0,1.144.879c.339.046.668.13,1.013.145a3.322,3.322,0,0,0,1.552-.378,2.351,2.351,0,0,0,1.271-1.537,3.633,3.633,0,0,0-.013-1.6c-.148-.88-.352-1.751-.578-2.614a1.915,1.915,0,0,0-2.354-1.337,1.938,1.938,0,0,0-1.144.88,2.014,2.014,0,0,0-.193,1.475h0Z" transform="translate(-2.787 -2.462)" fill="#333"/>
        <path id="パス_91347" data-name="パス 91347" d="M51.267,51.512c-.456,1.481-.159,4.889,2.648,5.179,3.709-.022,3.907-4.142,2.658-6.08C55.551,49.026,52.544,48.365,51.267,51.512Z" transform="translate(-2.196 -2.118)" fill="#333"/>
        <path id="パス_91348" data-name="パス 91348" d="M82.045,51.512c.456,1.481.159,4.889-2.647,5.179-3.709-.022-3.907-4.143-2.659-6.08C77.761,49.026,80.767,48.366,82.045,51.512Z" transform="translate(-3.269 -2.118)" fill="#333"/>
        <path id="パス_91349" data-name="パス 91349" d="M80.772,69.484a12.378,12.378,0,0,0-1.793-2.66,1.969,1.969,0,0,0-2.708,0,1.925,1.925,0,0,0-.561,1.353l.068.509a1.913,1.913,0,0,0,.492.845c.124.144.244.291.361.441l-.3-.388a10.513,10.513,0,0,1,1.132,1.832,1.845,1.845,0,0,0,1.907.914,1.428,1.428,0,0,0,.712-.227,1.93,1.93,0,0,0,.88-1.144l.068-.509a1.9,1.9,0,0,0-.261-.966h0Z" transform="translate(-3.254 -2.847)" fill="#333"/>
        <path id="パス_91350" data-name="パス 91350" d="M53.264,30.176a11.384,11.384,0,0,0-6.479-1.469,6.754,6.754,0,0,0-5.454,3.7,32.537,32.537,0,0,0-1.8,6.472,10.017,10.017,0,0,1-2.759,5.11C35,45.7,37.707,48.408,39.482,46.7a13.043,13.043,0,0,0,3.269-5.153c.657-1.878.874-3.87,1.407-5.781.434-1.558.954-2.743,2.458-3.154a6.991,6.991,0,0,1,4.716.872,1.96,1.96,0,0,0,2.618-.687,1.932,1.932,0,0,0-.687-2.618h0Z" transform="translate(-1.556 -1.231)" fill="#333"/>
        <path id="パス_91351" data-name="パス 91351" d="M47.581,8.63c-4.369-1.287-8.636,1.042-11.968,3.7a12.524,12.524,0,0,0-3.728,4.447,15.984,15.984,0,0,0-1.022,6.675,24.55,24.55,0,0,1-.659,7.018c-.584,1.927-1.588,3.715-1.975,5.7-.74,3.79.79,8.088,4.26,10.03,2.152,1.2,4.085-2.1,1.932-3.306-2.61-1.461-2.941-4.664-2.082-7.248.551-1.659,1.368-3.227,1.769-4.936a27.658,27.658,0,0,0,.575-5.89,22.6,22.6,0,0,1,.309-5.431,7.871,7.871,0,0,1,2.731-3.862c2.323-2,5.665-4.148,8.842-3.212,2.368.7,3.379-3,1.017-3.691h0Z" transform="translate(-1.206 -0.355)" fill="#333"/>
        <path id="パス_91352" data-name="パス 91352" d="M55.336,9.82c1.532-4.476,7.058-5.948,11.283-5.991a19.562,19.562,0,0,1,7.808,1.528,34.216,34.216,0,0,1,7.041,4.61C85.219,12.792,90,13.9,93.65,16.827c3.88,3.113,3.816,8.21,4.6,12.724.508,2.916,1.4,5.743,1.978,8.644a26.419,26.419,0,0,1,.5,4.5,2.558,2.558,0,0,1-1.385,2.515c-2.165,1.178-.234,4.485,1.932,3.306,2.9-1.579,3.448-4.5,3.189-7.524a56.642,56.642,0,0,0-1.722-8.737c-.728-2.953-1.044-5.941-1.6-8.924A15.971,15.971,0,0,0,98.1,15.857c-3.472-4.242-9.109-5.368-13.491-8.328-2.769-1.871-5.149-4.109-8.245-5.477A23.761,23.761,0,0,0,67.4.008C61.091-.163,53.858,2.337,51.645,8.8c-.8,2.336,2.9,3.339,3.691,1.017h0Z" transform="translate(-2.215 0)" fill="#333"/>
        <path id="パス_91353" data-name="パス 91353" d="M59.692,28.066c1.123-2.9,4.438-4.456,7.409-4.259a11.11,11.11,0,0,1,8.076,5.109c2.089,3.088,3.7,6.228,7.046,8.173a20.356,20.356,0,0,0,10.445,2.3c2.462-.015,2.468-3.843,0-3.828-3.536.022-7.341-.455-10.1-2.9a21.218,21.218,0,0,1-3.56-4.863,18.15,18.15,0,0,0-3.792-4.482,13.49,13.49,0,0,0-10.865-3.143A11.025,11.025,0,0,0,56,27.049,1.928,1.928,0,0,0,57.338,29.4a1.958,1.958,0,0,0,2.354-1.337h0Z" transform="translate(-2.403 -0.859)" fill="#333"/>
        <path id="パス_91354" data-name="パス 91354" d="M80.329,39.581a27.91,27.91,0,0,0,6.9,4.97c3.145,1.734,6.69,3.218,10.335,3.255,2.464.025,2.466-3.8,0-3.828a13.212,13.212,0,0,1-4.233-.835,26.17,26.17,0,0,1-4.364-2,37.254,37.254,0,0,1-3.792-2.429c-.12-.087-.237-.177-.357-.265-.456-.336.28.227-.145-.11-.218-.173-.434-.348-.645-.529a11.987,11.987,0,0,1-.991-.93c-1.688-1.8-4.392.91-2.706,2.706h0Z" transform="translate(-3.43 -1.559)" fill="#333"/>
        <g id="楕円形_228" data-name="楕円形 228" transform="translate(61.635 66.268)" fill="#fff" stroke="#333" stroke-width="2">
          <ellipse cx="2.871" cy="2.871" rx="2.871" ry="2.871" stroke="none"/>
          <ellipse cx="2.871" cy="2.871" rx="1.871" ry="1.871" fill="none"/>
        </g>
      </g>
    </g>
  </g>
  <g id="楕円形_188" data-name="楕円形 188" transform="translate(0 0)" fill="none" stroke="#333" stroke-width="3">
    <ellipse cx="60" cy="60" rx="60" ry="60" stroke="none"/>
    <ellipse cx="60" cy="60" rx="58.5" ry="58.5" fill="none"/>
  </g>
</svg>
