<svg id="グループ_9901" data-name="グループ 9901" xmlns="http://www.w3.org/2000/svg" xmlns:xlink="http://www.w3.org/1999/xlink" width="120.941" height="120" viewBox="0 0 120.941 120">
  <defs>
    <clipPath id="clip-path">
      <ellipse id="楕円形_114" data-name="楕円形 114" cx="60.465" cy="60" rx="60.465" ry="60" fill="none" stroke="#333" stroke-width="3"/>
    </clipPath>
  </defs>
  <ellipse id="楕円形_105" data-name="楕円形 105" cx="60.465" cy="60" rx="60.465" ry="60" transform="translate(0.011 0)" fill="#fff"/>
  <g id="マスクグループ_11" data-name="マスクグループ 11" transform="translate(0 0)" clip-path="url(#clip-path)">
    <g id="グループ_9731" data-name="グループ 9731" transform="translate(9.217 15.663)">
      <path id="パス_90361" data-name="パス 90361" d="M36.35,296.306a32.752,32.752,0,0,1-1.721-4.6,4.5,4.5,0,0,1-3.823-.974,12.576,12.576,0,0,1-3.668-6c-.782-2.334-.817-6.1.37-8.141a3.861,3.861,0,0,1,3.477-1.914,4.161,4.161,0,0,1,3,1.113l.192.185.383-.29c2.322-1.762,20.381-18.738,22.206-20.833.121-.013.212-.025.212-.025,12.879-1.695,20.815,9.337,24.83,18A42.874,42.874,0,0,1,85.7,294c-.2.5-.374.927-.515,1.209-.9,2.4-5.762,10.718-11.928,14.133.022,1.288-.017,1.754.1,3.373a7.885,7.885,0,0,0,.379,2.224,5.428,5.428,0,0,0,1.63,2.373,18.3,18.3,0,0,0,5.456,2.761s-3.668,10.31-22.111,10.31-19.952-9.47-19.952-9.47c.821-.323,2.188-.839,2.188-.839a18.311,18.311,0,0,0,5.456-2.761,5.43,5.43,0,0,0,1.63-2.373,7.884,7.884,0,0,0,.379-2.224c.109-1.5.084-2.011.1-3.1a23.951,23.951,0,0,1-7.921-6.559,30.818,30.818,0,0,1-4.24-6.748Z" transform="translate(-7.725 -231.006)" fill="#fff"/>
      <path id="パス_90362" data-name="パス 90362" d="M127.578,370.953c-3.481-13.867-17.359-24.237-31.274-27.571-1.576-1.231-3.237-2.349-4.575-3.216a.477.477,0,0,0-.726.3c-2.312,10.17-5.194,20.589-8.392,30.5Z" transform="translate(-24.01 -255.839)" fill="#fff"/>
      <path id="パス_90363" data-name="パス 90363" d="M46.969,370.956c-3.2-9.906-6.081-20.325-8.392-30.5a.477.477,0,0,0-.726-.3c-1.339.868-3,1.985-4.575,3.215C19.361,346.715,5.483,357.086,2,370.953Z" transform="translate(-0.582 -255.839)" fill="#fff"/>
      <path id="パス_90370" data-name="パス 90370" d="M34.36,310.611q2.024-.685,4.067-1.178C40,308.2,41.664,307.086,43,306.218a.477.477,0,0,1,.726.3c.141.621.291,1.246.437,1.869.083-.063.166-.121.249-.187a5.426,5.426,0,0,0,1.63-2.373,7.884,7.884,0,0,0,.379-2.224c.109-1.5.084-2.011.1-3.1a23.951,23.951,0,0,1-7.921-6.559,30.818,30.818,0,0,1-4.24-6.748,32.75,32.75,0,0,1-1.721-4.6,4.5,4.5,0,0,1-3.823-.974,12.576,12.576,0,0,1-3.668-6c-.782-2.334-.817-6.1.37-8.141a3.861,3.861,0,0,1,3.477-1.914,4.161,4.161,0,0,1,3,1.113l.192.185.383-.29c2.322-1.762,20.381-18.738,22.206-20.833.121-.014.212-.026.212-.026,12.879-1.695,20.815,9.337,24.83,18a42.874,42.874,0,0,1,3.892,21.176c-.2.5-.374.927-.515,1.209-.9,2.4-5.762,10.718-11.928,14.133.022,1.287-.017,1.753.1,3.373a7.884,7.884,0,0,0,.379,2.224,6.42,6.42,0,0,0,.8,1.478c.06-.262.124-.526.184-.787a.477.477,0,0,1,.726-.3c1.339.868,3,1.985,4.575,3.216.56.134,1.119.284,1.678.44A19.523,19.523,0,0,0,95.248,297.37c1.894-5.028,2.2-11.388,1.874-16.695-1-16.174-3.231-35.232-14.7-47.748-8.622-9.412-22.358-11.781-34.3-7.772-8.17,2.744-14.323,6.751-18.177,14.687-2.848,5.866-4.057,12.611-4.424,19.085-.171,3.025-.411,6.044-.754,9.055-.883,7.745-4.451,14.562-4.99,22.368A22.1,22.1,0,0,0,22.262,302.7c2.6,4.423,7.21,6.886,12.1,7.909Z" transform="translate(-5.733 -221.891)" fill="#fff37e"/>
      <path id="パス_90372" data-name="パス 90372" d="M62.613,373.876c-2.494-7.724-4.8-15.76-6.786-23.742a36.448,36.448,0,0,0,13.182,2.04,36.818,36.818,0,0,0,12.545-1.812c-1.976,7.909-4.258,15.865-6.728,23.514Z" transform="translate(-16.226 -258.759)" fill="#0c5fe5"/>
      <path id="パス_90395" data-name="パス 90395" d="M34.4,282.408a5.939,5.939,0,0,0-6.43-.988,5.655,5.655,0,0,0-2.991,3.821,14.846,14.846,0,0,0,2.132,11.726c1.478,2.217,3.8,4.2,6.637,3.84a1.464,1.464,0,0,0,1.419-1.419,1.427,1.427,0,0,0-1.419-1.419c-3.877.488-6.039-5.157-6.294-8.27-.133-1.632-.129-3.686.881-5.074-.145.2.138-.15.146-.157.055-.051.19-.188.23-.218a2.568,2.568,0,0,1,1-.447,2.967,2.967,0,0,1,2.682.612c1.354,1.218,3.367-.782,2.006-2.006h0Z" transform="translate(-7.134 -238.633)" fill="#333"/>
      <path id="パス_90396" data-name="パス 90396" d="M54.208,287.452c-.441,1.433-.153,4.728,2.561,5.009,3.587-.021,3.778-4.006,2.571-5.879-.989-1.534-3.9-2.171-5.131.87Z" transform="translate(-15.706 -239.915)" fill="#333"/>
      <path id="パス_90397" data-name="パス 90397" d="M92.4,287.452c.441,1.433.154,4.728-2.56,5.008-3.587-.021-3.778-4.006-2.571-5.879C88.254,285.047,91.161,284.41,92.4,287.452Z" transform="translate(-25.169 -239.915)" fill="#333"/>
      <path id="パス_90398" data-name="パス 90398" d="M54.315,340.851c.1-.073.541-.418.309-.238q-.164.126.082-.064c.081-.06.16-.122.236-.187a4.642,4.642,0,0,0,.382-.365,6.95,6.95,0,0,0,.782-1.014,6.826,6.826,0,0,0,.966-2.383,24.546,24.546,0,0,0,.292-4.407,1.419,1.419,0,0,0-2.837,0c0,.5,0,.991-.023,1.487-.014.338-.035.677-.058,1.015-.012.178-.024.357-.038.535-.007.088-.014.176-.023.264,0,.033-.046.386-.021.209.022-.153-.021.116-.026.143-.016.088-.034.176-.055.263a4.538,4.538,0,0,1-.15.517c-.009.026-.109.275-.041.114s-.035.073-.048.1c-.074.157-.153.313-.239.465q-.114.2-.243.389c-.043.063-.088.125-.133.187.074-.1.106-.126,0-.019-.12.128-.236.257-.365.376-.023.022-.209.2-.077.077.21-.2-.531.411-.109.087a1.563,1.563,0,0,0-.652.848,1.449,1.449,0,0,0,.143,1.093,1.434,1.434,0,0,0,1.941.509h0Z" transform="translate(-15.166 -253.131)" fill="#333"/>
      <path id="パス_90399" data-name="パス 90399" d="M90.4,332.192c0,2.4-.018,5.047,1.456,7.072a1.453,1.453,0,0,0,1.941.509,1.435,1.435,0,0,0,.509-1.941,5.755,5.755,0,0,1-.468-.756,2.859,2.859,0,0,1-.194-.408c.111.341-.045-.135-.064-.2a4.224,4.224,0,0,1-.2-.892c.032.386-.007-.116-.013-.187-.013-.148-.023-.3-.034-.445-.065-.919-.1-1.835-.1-2.756a1.419,1.419,0,0,0-2.837,0h0Z" transform="translate(-26.274 -253.131)" fill="#333"/>
      <path id="パス_90400" data-name="パス 90400" d="M87.6,327.512c3.521-.8,6.535-3.152,8.988-5.712a39.775,39.775,0,0,0,5.888-7.977,28.192,28.192,0,0,0,1.812-3.921,1.43,1.43,0,0,0-.991-1.745,1.45,1.45,0,0,0-1.745.991c-.186.487-.4.963-.6,1.444.17-.4-.172.361-.238.5-.308.627-.646,1.239-1,1.841a37.937,37.937,0,0,1-3.1,4.533c-2.515,3.142-5.714,6.389-9.774,7.316-1.78.406-1.026,3.142.754,2.736h0Z" transform="translate(-24.944 -246.543)" fill="#333"/>
      <path id="パス_90401" data-name="パス 90401" d="M35.248,303.8a33.511,33.511,0,0,0,7.24,14.492c3.428,4,7.837,7.165,13.135,7.977a1.464,1.464,0,0,0,1.745-.991,1.429,1.429,0,0,0-.991-1.745c-4.876-.747-8.729-3.568-11.883-7.248a30.522,30.522,0,0,1-6.51-13.239c-.4-1.781-3.134-1.028-2.736.754h0Z" transform="translate(-10.233 -244.778)" fill="#333"/>
      <path id="パス_90403" data-name="パス 90403" d="M73.494,298.161a24.511,24.511,0,0,1,.577,2.639l-.05-.377a1.608,1.608,0,0,1,.01.365l.05-.377a.919.919,0,0,1-.04.164l.143-.339a.665.665,0,0,1-.058.106l.222-.287a.577.577,0,0,1-.087.085l.287-.222a1.732,1.732,0,0,1-.209.111l.339-.143a1.523,1.523,0,0,1-.353.1l.377-.05a1.431,1.431,0,0,1-.331,0l.377.05c-.125-.018-.247-.048-.372-.065a1.082,1.082,0,0,0-.566-.026,1.059,1.059,0,0,0-.528.168,1.418,1.418,0,0,0-.509,1.941,1.357,1.357,0,0,0,.848.652c.289.039.571.113.865.126a2.771,2.771,0,0,0,1.283-.306,1.866,1.866,0,0,0,1.03-1.228,3.05,3.05,0,0,0-.013-1.316c-.144-.85-.34-1.693-.559-2.527a1.42,1.42,0,0,0-1.745-.991,1.446,1.446,0,0,0-.991,1.745h0Z" transform="translate(-21.097 -243.131)" fill="#333"/>
      <path id="パス_90404" data-name="パス 90404" d="M63.594,245.632c.4.892.8,1.782,1.2,2.676q.364.821.717,1.648c.034.08.149.37-.014-.035.026.062.052.124.078.186q.083.2.164.4.147.359.285.721a1.535,1.535,0,0,0,.652.848,1.45,1.45,0,0,0,1.093.143,1.435,1.435,0,0,0,.991-1.745c-.814-2.127-1.788-4.191-2.715-6.269a1.423,1.423,0,0,0-1.941-.509,1.461,1.461,0,0,0-.509,1.941h0Z" transform="translate(-18.434 -227.767)" fill="#333"/>
      <path id="パス_90405" data-name="パス 90405" d="M58.478,253.286c-2.291,2.647-5.034,4.984-7.57,7.388-3.658,3.469-7.336,6.92-11.065,10.313-.729.663-1.46,1.324-2.2,1.976-.263.232-.527.463-.794.689-.14.119-.8.643-.314.27a1.466,1.466,0,0,0-.509,1.941,1.428,1.428,0,0,0,1.941.509c2.919-2.234,5.555-4.9,8.242-7.4q5.578-5.186,11.065-10.469c1.082-1.048,2.222-2.074,3.208-3.215,1.19-1.375-.809-3.39-2.006-2.006h0Z" transform="translate(-10.416 -230.475)" fill="#333"/>
      <path id="パス_90406" data-name="パス 90406" d="M68.854,255.665A17.844,17.844,0,0,1,80.692,258.2a27.777,27.777,0,0,1,8.192,8.339,42.936,42.936,0,0,1,7.3,26.527,38.658,38.658,0,0,1-4.995,16.559,1.42,1.42,0,0,0,2.45,1.432,42.8,42.8,0,0,0,3.987-32.063c-2.244-8.455-7.052-17.232-14.271-22.42a20.447,20.447,0,0,0-14.5-3.744,1.464,1.464,0,0,0-1.419,1.419,1.427,1.427,0,0,0,1.419,1.419h0Z" transform="translate(-19.599 -230.432)" fill="#333"/>
      <path id="パス_90407" data-name="パス 90407" d="M33.787,308.616c.391,0-.433-.13-.414-.125-.174-.042-.346-.086-.519-.131q-.646-.17-1.282-.379a18.25,18.25,0,0,1-2.37-.953,15.722,15.722,0,0,1-4.22-2.943,16,16,0,0,1-4.286-9.822c-.857-8.283,2.948-15.846,4.458-23.807A117.92,117.92,0,0,0,26.449,257.1a53.6,53.6,0,0,1,2.3-12.455,29.6,29.6,0,0,1,4.9-9.585,25.067,25.067,0,0,1,7.192-6.032c11.765-6.681,27.654-6.988,38.086,2.429,5.189,4.685,8.685,11.118,10.98,17.647a92.91,92.91,0,0,1,4.39,20.964c.779,7.27,1.641,14.915.176,22.146a20.617,20.617,0,0,1-4.256,9.452,18.106,18.106,0,0,1-7.528,5.227,23.864,23.864,0,0,1-4.887,1.189,1.427,1.427,0,0,0-.991,1.745,1.456,1.456,0,0,0,1.745.991A21.425,21.425,0,0,0,95.168,299.2c3.518-7.321,3.085-15.786,2.474-23.663-1.157-14.9-3.706-30.923-13.556-42.774a31.6,31.6,0,0,0-18.666-10.878,38.5,38.5,0,0,0-21.893,2.7c-6.586,2.767-12.043,7.251-15.257,13.72a44.53,44.53,0,0,0-3.892,12.412c-.778,4.606-.879,9.267-1.313,13.909a52.016,52.016,0,0,1-1,6.771c-.487,2.138-1.112,4.241-1.729,6.344a52.666,52.666,0,0,0-2.594,12.881A22.955,22.955,0,0,0,20.312,302.6a17.431,17.431,0,0,0,8.3,7.263,24.552,24.552,0,0,0,2.588.971,9.672,9.672,0,0,0,2.587.615,1.42,1.42,0,0,0,0-2.837h0Z" transform="translate(-5.15 -221.32)" fill="#333"/>
      <path id="パス_90408" data-name="パス 90408" d="M55.427,351.094a39.884,39.884,0,0,0,13.013,1.963,42.476,42.476,0,0,0,13.015-1.842c1.73-.56.99-3.3-.754-2.736a39.744,39.744,0,0,1-12.261,1.741,37.319,37.319,0,0,1-12.259-1.861c-1.734-.584-2.478,2.156-.754,2.736h0Z" transform="translate(-15.825 -258.219)" fill="#333"/>
      <path id="パス_90409" data-name="パス 90409" d="M32.324,342.788c-11.189,2.672-22.3,9.661-28.51,19.74A32.041,32.041,0,0,0,.05,371.344a1.42,1.42,0,0,0,2.736.754C5.508,361.474,14.2,353.442,23.82,348.809a43.088,43.088,0,0,1,9.258-3.286c1.776-.424,1.024-3.161-.754-2.736Z" transform="translate(0 -256.611)" fill="#333"/>
      <path id="パス_90410" data-name="パス 90410" d="M100.962,345.525c10.593,2.466,20.968,9.007,26.756,18.35a29.432,29.432,0,0,1,3.529,8.224,1.42,1.42,0,0,0,2.736-.754c-2.917-11.392-12.231-20.192-22.6-25.108a48.213,48.213,0,0,0-9.668-3.448c-1.776-.414-2.535,2.322-.754,2.736h0Z" transform="translate(-29.049 -256.611)" fill="#333"/>
      <path id="パス_90411" data-name="パス 90411" d="M95.323,371.1c2.063-3.756,4.092-7.531,6.059-11.338a9.876,9.876,0,0,0,1.192-2.642,2.95,2.95,0,0,0-.968-2.54c-1.386-1.524-2.9-2.937-4.405-4.345l-.287,2.228,2.379-1.362a9.865,9.865,0,0,0,2.359-1.46c1.292-1.381-.291-3.286-1.208-4.38a25.286,25.286,0,0,0-4-3.657,48.168,48.168,0,0,0-4.373-3.09,2.028,2.028,0,0,0-2.173-.147c-.815.477-.926,1.434-1.12,2.27q-.657,2.825-1.353,5.639-1.392,5.59-2.964,11.134-1.794,6.332-3.814,12.6c-.561,1.742,2.178,2.488,2.736.754q2.44-7.576,4.555-15.25,1.049-3.813,2.015-7.649.48-1.908.938-3.821.238-.994.47-1.988c.064-.276.127-.551.192-.827.028-.12.273-.827.065-.631l-.626.365q-.568-.093-.237.079l.233.154c.2.133.4.267.6.4q.643.432,1.278.877c.878.617,1.747,1.251,2.578,1.931a25.826,25.826,0,0,1,2.284,2.084,11.986,11.986,0,0,1,.944,1.081,6.111,6.111,0,0,1,.627.918l.194-.716q.36-.309-.15.03l-.6.34-1.041.6-2.23,1.277a1.432,1.432,0,0,0-.287,2.228c1.267,1.188,2.527,2.386,3.733,3.636.2.206.834.673.892.946-.062-.29-.292.346-.354.467q-.649,1.267-1.308,2.529-2.586,4.954-5.285,9.847c-.88,1.6,1.57,3.035,2.45,1.432h0Z" transform="translate(-23.418 -255.264)" fill="#333"/>
      <path id="パス_90412" data-name="パス 90412" d="M58.326,370.005q-3.736-11.591-6.7-23.411-.72-2.879-1.39-5.771c-.2-.882-.294-1.951-1.161-2.459a2.116,2.116,0,0,0-2.327.247,43.006,43.006,0,0,0-7.445,5.8c-.974,1-2.679,2.722-2.444,4.26.166,1.091,1.229,1.517,2.082,2l3.125,1.785-.287-2.228c-1.466,1.375-2.923,2.763-4.3,4.231a3.177,3.177,0,0,0-1.1,2.471,8.149,8.149,0,0,0,1.219,2.83c1.966,3.806,3.994,7.58,6.053,11.336.878,1.6,3.329.172,2.45-1.432q-2.686-4.9-5.279-9.846-.619-1.187-1.231-2.38c-.1-.194-.221-.389-.3-.591s-.1-.165-.121-.031c.033-.2.6-.646.77-.824,1.241-1.295,2.542-2.531,3.85-3.758a1.432,1.432,0,0,0-.287-2.228l-2.232-1.275-1.042-.6-.6-.34q-.51-.336-.152-.034l.194.716c-.009.231.155-.2.2-.272.111-.184.23-.365.356-.538a10.7,10.7,0,0,1,.827-.982,24.7,24.7,0,0,1,2.417-2.237c.82-.675,1.674-1.307,2.542-1.919q.631-.445,1.273-.875.3-.2.605-.4l.292-.192q.467-.236-.2-.1l-.626-.365c-.145-.138.048.569.068.656q.114.494.229.987.231.988.468,1.976.436,1.818.893,3.632.98,3.894,2.048,7.767,2.1,7.622,4.529,15.148c.558,1.731,3.3.991,2.736-.754h0Z" transform="translate(-10.571 -255.265)" fill="#333"/>
      <g id="楕円形_230" data-name="楕円形 230" transform="translate(50.282 64.35)" fill="#fff" stroke="#333" stroke-width="2">
        <ellipse cx="3.35" cy="2.871" rx="3.35" ry="2.871" stroke="none"/>
        <ellipse cx="3.35" cy="2.871" rx="2.35" ry="1.871" fill="none"/>
      </g>
    </g>
  </g>
  <g id="楕円形_140" data-name="楕円形 140" transform="translate(0.011 0)" fill="none" stroke="#333" stroke-width="3">
    <ellipse cx="60.465" cy="60" rx="60.465" ry="60" stroke="none"/>
    <ellipse cx="60.465" cy="60" rx="58.965" ry="58.5" fill="none"/>
  </g>
</svg>
