<svg xmlns="http://www.w3.org/2000/svg" width="485.576" height="237.656" viewBox="0 0 485.576 237.656">
  <g id="合体_73" data-name="合体 73" transform="translate(-16150.998 -20758.352)" fill="#dbe8fc">
    <path d="M 16604 20994.5078125 L 16167.0009765625 20994.5078125 C 16163.1279296875 20994.5078125 16159.486328125 20993 16156.74609375 20990.259765625 C 16154.0068359375 20987.51953125 16152.498046875 20983.876953125 16152.498046875 20980.00390625 L 16152.498046875 20775.88671875 C 16152.498046875 20772.013671875 16154.0068359375 20768.375 16156.74609375 20765.63671875 C 16159.4853515625 20762.8984375 16163.126953125 20761.390625 16167.0009765625 20761.390625 L 16604 20761.390625 C 16607.130859375 20761.390625 16610.109375 20762.37109375 16612.615234375 20764.2265625 C 16615.07421875 20766.044921875 16616.8671875 20768.5390625 16617.80078125 20771.43359375 L 16618.291015625 20772.955078125 L 16619.77734375 20772.37109375 C 16626.125 20769.876953125 16630.66796875 20766.45703125 16633.361328125 20764.02734375 C 16633.5078125 20763.89453125 16633.65234375 20763.76171875 16633.791015625 20763.6328125 C 16633.537109375 20764.529296875 16633.240234375 20765.505859375 16632.896484375 20766.541015625 C 16631.423828125 20770.97265625 16628.76953125 20777.421875 16624.474609375 20782.978515625 C 16622.9375 20784.96875 16621.12890625 20786.748046875 16619.099609375 20788.267578125 L 16618.498046875 20788.71875 L 16618.498046875 20789.46875 L 16618.498046875 20980.00390625 C 16618.498046875 20983.87890625 16616.990234375 20987.51953125 16614.251953125 20990.259765625 C 16611.513671875 20993 16607.873046875 20994.5078125 16604 20994.5078125 Z" stroke="none"/>
    <path d="M 16604 20993.0078125 C 16607.47265625 20993.0078125 16610.736328125 20991.654296875 16613.19140625 20989.19921875 C 16615.646484375 20986.7421875 16616.998046875 20983.4765625 16616.998046875 20980.00390625 L 16616.998046875 20787.966796875 L 16618.201171875 20787.06640625 C 16620.12109375 20785.62890625 16621.833984375 20783.9453125 16623.2890625 20782.0625 C 16626.857421875 20777.443359375 16629.263671875 20772.171875 16630.78125 20768.048828125 C 16628.0234375 20770.0546875 16624.552734375 20772.10546875 16620.326171875 20773.767578125 L 16617.3515625 20774.935546875 L 16616.373046875 20771.89453125 C 16615.537109375 20769.298828125 16613.9296875 20767.064453125 16611.724609375 20765.431640625 C 16609.4765625 20763.76953125 16606.806640625 20762.890625 16604 20762.890625 L 16167.0009765625 20762.890625 C 16163.52734375 20762.890625 16160.2626953125 20764.2421875 16157.806640625 20766.697265625 C 16155.3505859375 20769.15234375 16153.998046875 20772.416015625 16153.998046875 20775.88671875 L 16153.998046875 20980.00390625 C 16153.998046875 20983.4765625 16155.3505859375 20986.7421875 16157.806640625 20989.19921875 C 16160.263671875 20991.654296875 16163.5283203125 20993.0078125 16167.0009765625 20993.0078125 L 16604 20993.0078125 M 16604 20996.0078125 L 16167.0009765625 20996.0078125 C 16158.1640625 20996.0078125 16150.998046875 20988.841796875 16150.998046875 20980.00390625 L 16150.998046875 20775.88671875 C 16150.998046875 20767.05078125 16158.1640625 20759.890625 16167.0009765625 20759.890625 L 16604 20759.890625 C 16611.123046875 20759.890625 16617.15625 20764.541015625 16619.228515625 20770.974609375 C 16631.109375 20766.306640625 16636.57421875 20758.3515625 16636.57421875 20758.3515625 C 16636.57421875 20758.3515625 16634.251953125 20772.779296875 16625.662109375 20783.896484375 C 16623.916015625 20786.15625 16621.978515625 20787.986328125 16619.998046875 20789.46875 L 16619.998046875 20980.00390625 C 16619.998046875 20988.841796875 16612.8359375 20996.0078125 16604 20996.0078125 Z" stroke="none" fill="#333"/>
  </g>
</svg>
