<svg xmlns="http://www.w3.org/2000/svg" width="326.097" height="58.461" viewBox="0 0 326.097 58.461">
  <g id="合体_72" data-name="合体 72" transform="translate(-16158.427 -20758.352)" fill="#fff">
    <path d="M 16468.521484375 20815.3125 L 16189.5263671875 20815.3125 C 16185.65234375 20815.3125 16182.009765625 20813.8046875 16179.271484375 20811.06640625 C 16176.5322265625 20808.328125 16175.0244140625 20804.685546875 16175.0244140625 20800.810546875 L 16175.0244140625 20786.82421875 L 16175.0244140625 20786.109375 L 16174.46875 20785.658203125 C 16173.0087890625 20784.474609375 16171.6728515625 20783.142578125 16170.4990234375 20781.69921875 C 16166.21484375 20776.42578125 16163.5654296875 20770.30859375 16162.09765625 20766.103515625 C 16161.7705078125 20765.1640625 16161.4853515625 20764.27734375 16161.2392578125 20763.45703125 C 16161.287109375 20763.5 16161.3349609375 20763.54296875 16161.3837890625 20763.583984375 C 16163.9033203125 20765.7890625 16168.15234375 20768.91796875 16174.08203125 20771.3125 L 16175.4814453125 20771.876953125 L 16176.0380859375 20770.474609375 C 16177.0966796875 20767.802734375 16178.9111328125 20765.5234375 16181.2841796875 20763.880859375 C 16183.7119140625 20762.203125 16186.5615234375 20761.314453125 16189.5263671875 20761.314453125 L 16468.521484375 20761.314453125 C 16472.396484375 20761.314453125 16476.037109375 20762.822265625 16478.77734375 20765.560546875 C 16481.515625 20768.298828125 16483.0234375 20771.939453125 16483.0234375 20775.810546875 L 16483.0234375 20800.810546875 C 16483.0234375 20804.685546875 16481.515625 20808.328125 16478.77734375 20811.06640625 C 16476.0390625 20813.8046875 16472.396484375 20815.3125 16468.521484375 20815.3125 Z" stroke="none"/>
    <path d="M 16468.521484375 20813.8125 C 16471.99609375 20813.8125 16475.26171875 20812.4609375 16477.716796875 20810.005859375 C 16480.171875 20807.55078125 16481.5234375 20804.28515625 16481.5234375 20800.810546875 L 16481.5234375 20775.810546875 C 16481.5234375 20772.33984375 16480.171875 20769.076171875 16477.716796875 20766.62109375 C 16475.26171875 20764.166015625 16471.99609375 20762.814453125 16468.521484375 20762.814453125 L 16189.5263671875 20762.814453125 C 16186.8681640625 20762.814453125 16184.3134765625 20763.609375 16182.1376953125 20765.115234375 C 16180.0087890625 20766.587890625 16178.3818359375 20768.6328125 16177.4326171875 20771.02734375 L 16176.3203125 20773.833984375 L 16173.5205078125 20772.703125 C 16169.853515625 20771.22265625 16166.79296875 20769.474609375 16164.3095703125 20767.755859375 C 16165.9033203125 20771.833984375 16168.265625 20776.572265625 16171.6630859375 20780.751953125 C 16172.771484375 20782.1171875 16174.033203125 20783.375 16175.4130859375 20784.494140625 L 16176.5244140625 20785.39453125 L 16176.5244140625 20800.810546875 C 16176.5244140625 20804.28515625 16177.876953125 20807.548828125 16180.33203125 20810.005859375 C 16182.787109375 20812.4609375 16186.052734375 20813.8125 16189.5263671875 20813.8125 L 16468.521484375 20813.8125 M 16468.521484375 20816.8125 L 16189.5263671875 20816.8125 C 16180.6875 20816.8125 16173.5244140625 20809.650390625 16173.5244140625 20800.810546875 L 16173.5244140625 20786.82421875 C 16172.0615234375 20785.638671875 16170.64453125 20784.255859375 16169.3349609375 20782.64453125 C 16160.74609375 20772.076171875 16158.4267578125 20758.3515625 16158.4267578125 20758.3515625 C 16158.4267578125 20758.3515625 16163.5400390625 20765.439453125 16174.6435546875 20769.921875 C 16176.990234375 20764.001953125 16182.7685546875 20759.814453125 16189.5263671875 20759.814453125 L 16468.521484375 20759.814453125 C 16477.361328125 20759.814453125 16484.5234375 20766.9765625 16484.5234375 20775.810546875 L 16484.5234375 20800.810546875 C 16484.5234375 20809.650390625 16477.361328125 20816.8125 16468.521484375 20816.8125 Z" stroke="none" fill="#333"/>
  </g>
</svg>
