<svg xmlns="http://www.w3.org/2000/svg" width="487.723" height="88.125" viewBox="0 0 487.723 88.125">
  <g id="合体_75" data-name="合体 75" transform="translate(-16151 -20758.813)" fill="#dbe8fc">
    <path d="M 16603.998046875 20845.4375 L 16166.9990234375 20845.4375 C 16163.1259765625 20845.4375 16159.4853515625 20843.9296875 16156.7470703125 20841.19140625 C 16154.0078125 20838.453125 16152.5 20834.8125 16152.5 20830.939453125 L 16152.5 20774.810546875 C 16152.5 20770.9375 16154.0078125 20767.296875 16156.7470703125 20764.55859375 C 16159.4853515625 20761.8203125 16163.1259765625 20760.3125 16166.9990234375 20760.3125 L 16603.998046875 20760.3125 C 16611.7109375 20760.3125 16618.0703125 20766.33984375 16618.4765625 20774.03125 L 16618.58203125 20776.0390625 L 16620.4765625 20775.3671875 C 16627.345703125 20772.92578125 16632.25390625 20769.35546875 16635.1640625 20766.7890625 C 16635.435546875 20766.548828125 16635.693359375 20766.314453125 16635.94140625 20766.083984375 C 16635.6875 20766.98046875 16635.390625 20767.958984375 16635.046875 20768.994140625 C 16633.576171875 20773.427734375 16630.921875 20779.87890625 16626.626953125 20785.435546875 C 16624.591796875 20788.072265625 16622.09375 20790.322265625 16619.205078125 20792.123046875 L 16618.498046875 20792.564453125 L 16618.498046875 20793.396484375 L 16618.498046875 20830.939453125 C 16618.498046875 20834.8125 16616.990234375 20838.453125 16614.251953125 20841.19140625 C 16611.513671875 20843.9296875 16607.87109375 20845.4375 16603.998046875 20845.4375 Z" stroke="none"/>
    <path d="M 16603.998046875 20843.9375 C 16607.470703125 20843.9375 16610.736328125 20842.5859375 16613.19140625 20840.130859375 C 16615.646484375 20837.67578125 16616.998046875 20834.412109375 16616.998046875 20830.939453125 L 16616.998046875 20791.732421875 L 16618.41015625 20790.8515625 C 16621.1484375 20789.142578125 16623.513671875 20787.013671875 16625.439453125 20784.51953125 C 16629.0078125 20779.900390625 16631.416015625 20774.626953125 16632.931640625 20770.501953125 C 16629.857421875 20772.740234375 16625.892578125 20775.03515625 16620.978515625 20776.779296875 L 16617.19140625 20778.125 L 16616.978515625 20774.111328125 C 16616.615234375 20767.21484375 16610.912109375 20761.8125 16603.998046875 20761.8125 L 16166.9990234375 20761.8125 C 16163.5263671875 20761.8125 16160.2626953125 20763.1640625 16157.8076171875 20765.619140625 C 16155.3525390625 20768.07421875 16154 20771.337890625 16154 20774.810546875 L 16154 20830.939453125 C 16154 20834.412109375 16155.3525390625 20837.67578125 16157.8076171875 20840.130859375 C 16160.2626953125 20842.5859375 16163.5263671875 20843.9375 16166.9990234375 20843.9375 L 16603.998046875 20843.9375 M 16603.998046875 20846.9375 L 16166.9990234375 20846.9375 C 16158.1630859375 20846.9375 16151 20839.775390625 16151 20830.939453125 L 16151 20774.810546875 C 16151 20765.974609375 16158.1630859375 20758.8125 16166.9990234375 20758.8125 L 16603.998046875 20758.8125 C 16612.546875 20758.8125 16619.529296875 20765.515625 16619.974609375 20773.953125 C 16632.833984375 20769.384765625 16638.72265625 20760.80078125 16638.72265625 20760.80078125 C 16638.72265625 20760.80078125 16636.404296875 20775.234375 16627.814453125 20786.353515625 C 16625.439453125 20789.427734375 16622.70703125 20791.70703125 16619.998046875 20793.396484375 L 16619.998046875 20830.939453125 C 16619.998046875 20839.775390625 16612.8359375 20846.9375 16603.998046875 20846.9375 Z" stroke="none" fill="#333"/>
  </g>
</svg>
