<svg xmlns="http://www.w3.org/2000/svg" width="52.525" height="50.813" viewBox="0 0 52.525 50.813">
  <g id="パス_89634" data-name="パス 89634" transform="translate(-2.697 26.864) rotate(-48)" fill="#fff">
    <path d="M 15.03701782226562 42.76522827148438 C 14.30233860015869 41.69141006469727 13.0725154876709 39.71683502197266 11.96025276184082 37.09671783447266 C 10.95942306518555 34.73908996582031 10.24734306335449 32.32515716552734 9.843782424926758 29.92196846008301 C 9.342912673950195 26.93922805786133 9.318462371826172 23.96148872375488 9.771122932434082 21.07145881652832 C 10.82638263702393 14.33403873443604 13.61656284332275 8.249629020690918 15.77140235900879 4.331838607788086 C 16.23992919921875 3.479995012283325 16.69831848144531 2.692683935165405 17.13227081298828 1.97756016254425 C 17.13650512695312 2.41774845123291 17.14830207824707 2.879431009292603 17.1694221496582 3.360778570175171 C 17.34431266784668 7.346598625183105 18.22169303894043 13.54990863800049 21.40832328796387 20.46745872497559 C 25.41760444641113 29.17084121704102 28.68173027038574 33.86843109130859 30.47288513183594 36.08821868896484 L 15.03701782226562 42.76522827148438 Z" stroke="none"/>
    <path d="M 15.99057388305664 7.140956878662109 C 14.13434410095215 10.8510684967041 12.10486030578613 15.8651180267334 11.25305366516113 21.30356788635254 C 10.82833290100098 24.01520919799805 10.84862327575684 26.81171798706055 11.31336212158203 29.61539840698242 C 11.6906623840332 31.89153861999512 12.36027336120605 34.18165969848633 13.30360221862793 36.42213821411133 C 14.08615875244141 38.28076934814453 14.93215560913086 39.80216979980469 15.60354614257812 40.88583755493164 L 28.11692810058594 35.47299957275391 C 27.96741104125977 35.26663589477539 27.81266975402832 35.04938888549805 27.65289306640625 34.82091903686523 C 25.15640258789062 31.25110816955566 22.59705352783203 26.63305854797363 20.04592323303223 21.09505844116211 C 17.6651496887207 15.92685508728027 16.50568008422852 11.13301086425781 15.99057388305664 7.140956878662109 M 19.04398345947266 -3.527351379394531 C 19.04398345947266 -3.527351379394531 16.799072265625 6.876579284667969 22.77071189880371 19.83985900878906 C 28.74235153198242 32.80312728881836 32.97327423095703 36.64096069335938 32.97327423095703 36.64096069335938 L 14.53032302856445 44.61871719360352 C 14.53032302856445 44.61871719360352 6.181171417236328 34.29815673828125 8.289182662963867 20.83934783935547 C 10.39720344543457 7.380538940429688 19.04398345947266 -3.527351379394531 19.04398345947266 -3.527351379394531 Z" stroke="none" fill="#333"/>
  </g>
</svg>
