<svg xmlns="http://www.w3.org/2000/svg" xmlns:xlink="http://www.w3.org/1999/xlink" width="119" height="119" viewBox="0 0 119 119">
  <defs>
    <clipPath id="clip-path">
      <circle id="楕円形_106" data-name="楕円形 106" cx="59.5" cy="59.5" r="59.5" transform="translate(0 0)" fill="none" stroke="#333" stroke-width="3"/>
    </clipPath>
  </defs>
  <g id="グループ_9913" data-name="グループ 9913" transform="translate(0)">
    <circle id="楕円形_166" data-name="楕円形 166" cx="59.5" cy="59.5" r="59.5" transform="translate(0 0)" fill="#fff"/>
    <g id="マスクグループ_4" data-name="マスクグループ 4" transform="translate(0 0)" clip-path="url(#clip-path)">
      <g id="グループ_9723" data-name="グループ 9723" transform="translate(10.674 16.013)">
        <path id="パス_90147" data-name="パス 90147" d="M314.625,49.924a3.588,3.588,0,0,1,2.591-.949,3.326,3.326,0,0,1,2.988,1.66c1.015,1.761.972,5.005.291,7.012a10.832,10.832,0,0,1-3.179,5.156,3.951,3.951,0,0,1-3.047.88l-.292-.049a23.224,23.224,0,0,1-1.048,2.845c-.735,2-4.628,8.738-9.653,11.877,0,1.965,0,3.506,0,3.506a5.432,5.432,0,0,0,.232,1.925,4.684,4.684,0,0,0,1.4,2.044,15.759,15.759,0,0,0,4.7,2.378l2.468.974s-4.915,9.459-20.454,9.459-19.816-9.459-19.816-9.459l2.475-.974a15.759,15.759,0,0,0,4.7-2.378,4.674,4.674,0,0,0,1.4-2.044,5.434,5.434,0,0,0,.232-1.925s0-1.311,0-3.247a21.476,21.476,0,0,1-6.071-5.227,27.257,27.257,0,0,1-5.172-9.758,3.877,3.877,0,0,1-3.3-.825,10.833,10.833,0,0,1-3.179-5.156c-.681-2.007-.725-5.252.29-7.012a3.326,3.326,0,0,1,2.988-1.66,3.582,3.582,0,0,1,2.591.949s-5.673-22.442,22.19-22.442,23.666,22.442,23.666,22.442Z" transform="translate(-242.872 -11.35)" fill="#fff"/>
        <path id="パス_90152" data-name="パス 90152" d="M327.243,149.833c-3.37-13.609-17.842-23.432-31.212-25.242H263.211c-13.37,1.81-27.842,11.634-31.212,25.242" transform="translate(-230.795 -49.921)" fill="#fff"/>
        <path id="パス_90153" data-name="パス 90153" d="M323.5,113.247c1.136,1.27,2.535,3.132,3.646,4.418a3.52,3.52,0,0,1,.763,3.151c-.427.852-5.145,8.418-8.322,10.454-1-1.338-5.162-7.11-7.152-9.348.746-.529,10.583-8.285,11.065-8.676Z" transform="translate(-262.745 -45.415)" fill="#fff"/>
        <path id="パス_90154" data-name="パス 90154" d="M288.215,113.247c-1.136,1.27-2.535,3.132-3.646,4.418a3.52,3.52,0,0,0-.763,3.151c.427.852,5.145,8.418,8.322,10.454,1-1.338,5.162-7.11,7.152-9.348-.746-.529-10.583-8.285-11.065-8.676Z" transform="translate(-251.321 -45.415)" fill="#fff"/>
        <path id="パス_90168" data-name="パス 90168" d="M280.858,23.745c-3.886.172-6.579,1.493-8.45,4.823-1.556,2.771-.389,10.024-2.435,11.981a3.482,3.482,0,0,0-2.949-1.364,4.166,4.166,0,0,0-1.367.263,35.432,35.432,0,0,1-1.114-9.071c-.19-6.757,2.352-13.572,5.539-16.691A25.429,25.429,0,0,1,275,8.568a28.18,28.18,0,0,1,17.443-5.734c6.522,0,13.133,1.606,17.947,7.54,6.519,5.026,9.553,8.832,10.025,20a29.347,29.347,0,0,1-1.083,9.034,4.25,4.25,0,0,0-1.268-.226A3.419,3.419,0,0,0,314.841,41c.386-3.147-1.623-14.233-7.585-16.34,0,0-4.376-2.5-12.37-2.55a51.172,51.172,0,0,0-14.026,1.636Z" transform="translate(-243.718 -1.56)" fill="#dcf7b1"/>
        <path id="パス_90170" data-name="パス 90170" d="M312.559,147.758c-.575-4.624-1.015-8.087-1.015-8.262a19.293,19.293,0,0,1,.446-2.5c.274-1.314.386-1.921.666-3.3,0,0,.008-.057.022-.156-1.575-2.121-3.457-4.607-4.611-5.9h-1.733c-1.156,1.3-3.044,3.794-4.621,5.918.021.09.032.143.032.143.28,1.379.392,1.986.666,3.3a19.293,19.293,0,0,1,.446,2.5c0,.214-.66,5.369-1.421,11.547h11.529c-.14-1.138-.277-2.241-.407-3.285Z" transform="translate(-258.375 -51.132)" fill="#dcf7b1"/>
        <path id="パス_90188" data-name="パス 90188" d="M343.489,53.566a25.355,25.355,0,0,0-1.936-9.034c-1.283-3.145-3.253-6.249-6.58-7.473-1.458-.537-2.088,1.793-.641,2.325,2.605.959,4.166,3.859,5.1,6.3a23.386,23.386,0,0,1,1.648,7.882,1.206,1.206,0,0,0,2.411,0h0Z" transform="translate(-271.116 -15.123)" fill="#333"/>
        <path id="パス_90189" data-name="パス 90189" d="M323.974,31.677a10.9,10.9,0,0,0-1.826-4.154,7.106,7.106,0,0,0-1.48-1.267,9.558,9.558,0,0,0-1.915-1.059,1.209,1.209,0,0,0-1.483.842,1.242,1.242,0,0,0,.842,1.483c-.4-.161.014.013.116.065.134.069.266.143.4.219.271.159.535.33.793.508.13.09.257.184.385.278s-.2-.166-.042-.032c.052.043.1.084.155.128.19.162.338.386.528.54-.091-.074-.154-.208-.031-.037.039.054.075.109.112.164.068.1.131.212.192.321s.122.231.178.349c.032.067.061.135.092.2.1.23-.087-.227,0,0,.259.687.472,1.385.665,2.094a1.206,1.206,0,0,0,2.325-.641h0Z" transform="translate(-264.65 -10.419)" fill="#333"/>
        <path id="パス_90190" data-name="パス 90190" d="M310.091,31.33A14.035,14.035,0,0,0,307.38,28.5a15.3,15.3,0,0,0-2.876-1.684,14.73,14.73,0,0,0-2.949-.939,12.191,12.191,0,0,0-3.27-.4,1.232,1.232,0,0,0-1.206,1.206,1.217,1.217,0,0,0,1.206,1.206,8.949,8.949,0,0,1,2.629.312c.491.11.978.237,1.459.383.2.06.4.124.593.194.087.031.172.065.259.095.315.109-.2-.1.061.024a11.723,11.723,0,0,1,4.722,3.651,1.244,1.244,0,0,0,1.649.433,1.214,1.214,0,0,0,.433-1.649h0Z" transform="translate(-256.644 -10.55)" fill="#333"/>
        <path id="パス_90191" data-name="パス 90191" d="M283.608,35.522c-3.651.184-6.876,1.483-8.976,4.586-1.764,2.605-1.543,5.914-1.8,8.922a14.262,14.262,0,0,1-.348,2.32,6.56,6.56,0,0,1-.254.787,1.543,1.543,0,0,1-.4.583c-1.125,1.072.581,2.776,1.7,1.7,1.232-1.174,1.464-3.06,1.64-4.663.2-1.866.18-3.76.47-5.616a6.876,6.876,0,0,1,2.528-4.434,9.054,9.054,0,0,1,5.439-1.778c1.544-.078,1.553-2.49,0-2.411h0Z" transform="translate(-246.468 -14.543)" fill="#333"/>
        <path id="パス_90193" data-name="パス 90193" d="M309.842,78.258a21.085,21.085,0,0,1,.5,2.274l-.043-.321a1.364,1.364,0,0,1,.008.314l.043-.321a.751.751,0,0,1-.034.141l.122-.288a.536.536,0,0,1-.05.091l.189-.244a.5.5,0,0,1-.074.073l.244-.189a1.432,1.432,0,0,1-.18.1l.288-.122a1.3,1.3,0,0,1-.3.089l.321-.043a1.219,1.219,0,0,1-.285,0l.321.043c-.107-.015-.213-.041-.32-.055a.92.92,0,0,0-.481-.022.9.9,0,0,0-.448.143,1.2,1.2,0,0,0-.432,1.649,1.153,1.153,0,0,0,.72.554c.248.033.489.1.741.107a2.376,2.376,0,0,0,1.1-.262,1.589,1.589,0,0,0,.879-1.048,2.609,2.609,0,0,0-.011-1.124c-.124-.732-.293-1.458-.482-2.177a1.206,1.206,0,1,0-2.325.641h0Z" transform="translate(-261.403 -30.909)" fill="#333"/>
        <path id="パス_90194" data-name="パス 90194" d="M290.3,67.349c-.38,1.234-.132,4.072,2.205,4.314,3.089-.019,3.254-3.45,2.214-5.064-.852-1.321-3.355-1.871-4.419.75Z" transform="translate(-253.896 -26.449)" fill="#333"/>
        <path id="パス_90195" data-name="パス 90195" d="M328.307,67.349c.38,1.234.133,4.072-2.205,4.314-3.089-.019-3.254-3.45-2.214-5.064C324.739,65.278,327.243,64.728,328.307,67.349Z" transform="translate(-267.064 -26.449)" fill="#333"/>
        <path id="パス_90196" data-name="パス 90196" d="M268.817,62.444a5.1,5.1,0,0,0-5.521-.833,4.848,4.848,0,0,0-2.558,3.289,12.767,12.767,0,0,0,1.87,10.08c1.277,1.9,3.271,3.6,5.713,3.281a1.245,1.245,0,0,0,1.206-1.206,1.212,1.212,0,0,0-1.206-1.206c-3.347.435-5.238-4.422-5.469-7.113a6.727,6.727,0,0,1,.741-4.382c-.118.163.121-.134.127-.14.057-.054.146-.151.2-.193a2.226,2.226,0,0,1,.864-.391,2.572,2.572,0,0,1,2.329.518c1.154,1.03,2.866-.669,1.7-1.7h0Z" transform="translate(-242.066 -24.722)" fill="#333"/>
        <path id="パス_90197" data-name="パス 90197" d="M348.858,64.143a2.553,2.553,0,0,1,2.224-.54,2.276,2.276,0,0,1,.969.414c.071.056.4.428.327.333a6.727,6.727,0,0,1,.741,4.382c-.231,2.691-2.121,7.547-5.469,7.113a1.212,1.212,0,0,0-1.206,1.206,1.237,1.237,0,0,0,1.206,1.206c4.014.521,6.445-3.859,7.445-7.1.884-2.859.92-7.421-1.893-9.27a5.075,5.075,0,0,0-6.048.549c-1.16,1.035.55,2.736,1.7,1.7h0Z" transform="translate(-276.252 -24.717)" fill="#333"/>
        <path id="パス_90198" data-name="パス 90198" d="M337.175,83.559a26.576,26.576,0,0,1-1.56,4.732c.127-.309-.1.223-.158.336-.106.221-.217.441-.331.658-.281.535-.582,1.06-.9,1.576a28.575,28.575,0,0,1-6.152,7.325,11.385,11.385,0,0,1-4.571,2.378c-1.511.352-.871,2.678.641,2.325,3.5-.815,6.4-3.359,8.685-6.018a31.2,31.2,0,0,0,4.832-7.3c.064-.141.124-.283.184-.426.016-.037.176-.422.125-.3-.065.152.03-.061.036-.075q.093-.214.183-.43c.094-.225.184-.451.271-.68A23.044,23.044,0,0,0,339.5,84.2c.314-1.514-2.01-2.162-2.325-.641h0Z" transform="translate(-266.799 -33.279)" fill="#333"/>
        <path id="パス_90199" data-name="パス 90199" d="M271.261,84.066a28.845,28.845,0,0,0,6.272,12.444c2.965,3.434,6.77,6.15,11.337,6.831a1.245,1.245,0,0,0,1.483-.842,1.215,1.215,0,0,0-.842-1.483c-4.207-.628-7.541-3.047-10.273-6.211a26.311,26.311,0,0,1-5.653-11.38c-.344-1.512-2.669-.872-2.325.641h0Z" transform="translate(-246.376 -33.227)" fill="#333"/>
        <path id="パス_90200" data-name="パス 90200" d="M309.742,7.893C303.164.657,292.044-.652,283,1.96a28,28,0,0,0-11.936,6.916,26.123,26.123,0,0,0-2.487,2.863c-.6.806-1.316,1.514-1.89,2.35a23.061,23.061,0,0,0-2.936,6.374,34.52,34.52,0,0,0-.173,18.121,1.207,1.207,0,0,0,2.325-.641,32.646,32.646,0,0,1-.321-14.977,23.753,23.753,0,0,1,2.345-6.3,13.88,13.88,0,0,1,1.556-2.3c.69-.8,1.323-1.645,2.021-2.442,5.906-6.744,14.935-9.489,23.752-8.545A19.781,19.781,0,0,1,308.039,9.6c1.046,1.151,2.747-.558,1.7-1.7h0Z" transform="translate(-242.892 -0.721)" fill="#333"/>
        <path id="パス_90201" data-name="パス 90201" d="M351.939,45.24A33.881,33.881,0,0,0,353,38.126a41.474,41.474,0,0,0-.461-6.909,21.72,21.72,0,0,0-3.42-9.476A23.6,23.6,0,0,0,345.6,17.8c-1.147-1.041-2.857.659-1.7,1.7a18.266,18.266,0,0,1,4.9,6.666,30.6,30.6,0,0,1,1.8,10.936,30.019,30.019,0,0,1-.987,7.489c-.368,1.507,1.956,2.15,2.325.641h0Z" transform="translate(-275.087 -7.377)" fill="#333"/>
        <path id="パス_90209" data-name="パス 90209" d="M310.994,144.58c-2.564,0-5.128-.054-7.691-.055a1.206,1.206,0,1,0,0,2.411c2.564,0,5.128.054,7.691.055a1.206,1.206,0,0,0,0-2.411Z" transform="translate(-258.637 -57.839)" fill="#333"/>
        <path id="パス_90210" data-name="パス 90210" d="M320.069,154.254c-.432-3.507-.882-7.012-1.306-10.52a5.835,5.835,0,0,1,.045-2.077c.3-1.476.611-2.95.909-4.426.306-1.515-2.018-2.163-2.325-.641-.3,1.507-.63,3.01-.927,4.518a7.546,7.546,0,0,0-.127,2.511c.426,3.547.882,7.09,1.32,10.635a1.244,1.244,0,0,0,1.206,1.206,1.213,1.213,0,0,0,1.206-1.206h0Z" transform="translate(-264.272 -54.342)" fill="#333"/>
        <path id="パス_90211" data-name="パス 90211" d="M301.843,154.254c.437-3.546.894-7.088,1.32-10.635a7.543,7.543,0,0,0-.127-2.511c-.3-1.508-.623-3.011-.927-4.518s-2.632-.876-2.325.641c.292,1.446.595,2.89.89,4.335a6,6,0,0,1,.063,2.168c-.424,3.508-.874,7.013-1.306,10.52a1.212,1.212,0,0,0,1.206,1.206,1.235,1.235,0,0,0,1.206-1.206h0Z" transform="translate(-257.576 -54.342)" fill="#333"/>
        <path id="パス_90212" data-name="パス 90212" d="M232.369,149.376c2.647-10.5,11.808-18.364,21.628-22.13a39.581,39.581,0,0,1,8.742-2.27,1.213,1.213,0,0,0,.842-1.483,1.238,1.238,0,0,0-1.483-.842c-11.1,1.536-22.069,7.969-28.234,17.42a28.808,28.808,0,0,0-3.821,8.664,1.207,1.207,0,0,0,2.325.641h0Z" transform="translate(-230.002 -49.143)" fill="#333"/>
        <path id="パス_90213" data-name="パス 90213" d="M369.806,148.735c-2.837-11.254-12.532-19.586-23.011-23.7a39.691,39.691,0,0,0-9.043-2.387,1.246,1.246,0,0,0-1.483.842,1.214,1.214,0,0,0,.842,1.483c10.448,1.445,20.881,7.317,26.735,16.223a26.788,26.788,0,0,1,3.636,8.177,1.207,1.207,0,0,0,2.325-.641Z" transform="translate(-272.196 -49.143)" fill="#333"/>
        <path id="パス_90214" data-name="パス 90214" d="M321.863,113.282c.855.965,1.65,1.98,2.459,2.983a6.247,6.247,0,0,1,1.7,2.6c.1.6.027.617-.278,1.125-.316.527-.647,1.045-.984,1.56-.957,1.465-1.961,2.909-3.053,4.278a16.709,16.709,0,0,1-3.51,3.583l1.649.433c-2.408-3.216-4.678-6.577-7.34-9.592l-.244,1.893c1.992-1.427,3.886-3.015,5.813-4.529,1.834-1.442,3.681-2.871,5.5-4.335a1.214,1.214,0,0,0,0-1.7,1.234,1.234,0,0,0-1.7,0c-1.775,1.431-3.579,2.828-5.371,4.237q-1.82,1.43-3.643,2.857-.643.5-1.288,1c.259-.2-.183.141-.268.2s-.166.126-.25.186a1.229,1.229,0,0,0-.244,1.893c2.527,2.862,4.678,6.052,6.964,9.1a1.229,1.229,0,0,0,1.649.433c2.617-1.718,4.556-4.547,6.316-7.076.72-1.036,1.42-2.089,2.072-3.17a4.187,4.187,0,0,0,.147-4.144,14.051,14.051,0,0,0-1.995-2.64c-.782-.971-1.555-1.953-2.382-2.886-1.031-1.164-2.731.547-1.7,1.7Z" transform="translate(-261.958 -44.598)" fill="#333"/>
        <path id="パス_90215" data-name="パス 90215" d="M286.58,111.577c-.689.778-1.339,1.589-1.99,2.4-.665.828-1.416,1.622-2.023,2.494a4.257,4.257,0,0,0-.37,4.522,54.033,54.033,0,0,0,4.9,6.987,16.887,16.887,0,0,0,3.639,3.516,1.234,1.234,0,0,0,1.649-.433c2.285-3.052,4.437-6.242,6.964-9.1a1.229,1.229,0,0,0-.244-1.893c-.084-.06-.167-.124-.25-.186s-.527-.406-.268-.2q-.646-.5-1.288-1-1.825-1.424-3.643-2.857c-1.792-1.409-3.6-2.805-5.371-4.237a1.242,1.242,0,0,0-1.7,0,1.214,1.214,0,0,0,0,1.7c1.816,1.465,3.663,2.893,5.5,4.335,1.927,1.514,3.82,3.1,5.813,4.529l-.244-1.893c-2.663,3.015-4.932,6.376-7.34,9.592l1.649-.433a16.71,16.71,0,0,1-3.51-3.583c-1.092-1.369-2.1-2.812-3.053-4.278-.336-.515-.667-1.033-.984-1.56-.306-.51-.377-.541-.278-1.125a6.244,6.244,0,0,1,1.7-2.6c.81-1,1.6-2.018,2.459-2.983,1.025-1.158-.674-2.869-1.7-1.7Z" transform="translate(-250.538 -44.598)" fill="#333"/>
        <g id="楕円形_235" data-name="楕円形 235" transform="translate(45.442 56.49)" fill="#fff" stroke="#333" stroke-width="2">
          <ellipse cx="3.711" cy="3.038" rx="3.711" ry="3.038" stroke="none"/>
          <ellipse cx="3.711" cy="3.038" rx="2.711" ry="2.038" fill="none"/>
        </g>
      </g>
    </g>
    <g id="楕円形_130" data-name="楕円形 130" transform="translate(0 0)" fill="none" stroke="#333" stroke-width="3">
      <circle cx="59.5" cy="59.5" r="59.5" stroke="none"/>
      <circle cx="59.5" cy="59.5" r="58" fill="none"/>
    </g>
  </g>
</svg>
