<svg id="グループ_9915" data-name="グループ 9915" xmlns="http://www.w3.org/2000/svg" xmlns:xlink="http://www.w3.org/1999/xlink" width="116.49" height="116.49" viewBox="0 0 116.49 116.49">
  <defs>
    <clipPath id="clip-path">
      <ellipse id="楕円形_108" data-name="楕円形 108" cx="58.245" cy="58.245" rx="58.245" ry="58.245" fill="none" stroke="#333" stroke-width="3"/>
    </clipPath>
  </defs>
  <ellipse id="楕円形_160" data-name="楕円形 160" cx="58.245" cy="58.245" rx="58.245" ry="58.245" transform="translate(0 0)" fill="#fff"/>
  <g id="マスクグループ_5" data-name="マスクグループ 5" transform="translate(0 0)" clip-path="url(#clip-path)">
    <g id="グループ_9725" data-name="グループ 9725" transform="translate(8.27 20.266)">
      <path id="パス_90143" data-name="パス 90143" d="M85.854,270.452a3.672,3.672,0,0,1,2.652-.971,3.4,3.4,0,0,1,3.058,1.7c1.039,1.8,1,5.123.3,7.177a11.088,11.088,0,0,1-3.254,5.277,4.045,4.045,0,0,1-3.118.9l-.3-.051a23.764,23.764,0,0,1-1.073,2.912c-.752,2.042-4.737,8.944-9.88,12.157,0,2.011,0,3.588,0,3.588a5.56,5.56,0,0,0,.238,1.97A4.794,4.794,0,0,0,75.91,307.2a16.13,16.13,0,0,0,4.81,2.434l2.527,1s-5.03,9.681-20.935,9.681-20.282-9.681-20.282-9.681l2.533-1a16.13,16.13,0,0,0,4.81-2.434,4.784,4.784,0,0,0,1.437-2.092,5.562,5.562,0,0,0,.238-1.97s0-1.341,0-3.324a21.982,21.982,0,0,1-6.214-5.35,27.9,27.9,0,0,1-5.294-9.988,3.969,3.969,0,0,1-3.374-.845,11.088,11.088,0,0,1-3.254-5.277c-.7-2.055-.742-5.375.3-7.177a3.4,3.4,0,0,1,3.058-1.7,3.666,3.666,0,0,1,2.652.971s-5.807-22.97,22.712-22.97,24.223,22.97,24.223,22.97Z" transform="translate(-12.411 -230.386)" fill="#fff"/>
      <path id="パス_90146" data-name="パス 90146" d="M60.289,334.784c-1.064-.839-1.817-1.435-1.944-1.537-1.162,1.3-2.6,3.205-3.732,4.522a4.062,4.062,0,0,0-.874,1.932l.019.08.088.482c.012.067.03.14.049.219.073.323.152.651.231.98,1.893,8.009,4.132,16.286,6.542,24.227h20c2.41-7.942,4.65-16.219,6.542-24.227.037-.154.074-.307.109-.457l-.039-.011a3.6,3.6,0,0,0-.781-3.226c-1.137-1.317-2.57-3.222-3.732-4.522-.494.4-10.562,8.339-11.326,8.88H69.671c-.568-.4-6.288-4.9-9.383-7.342Z" transform="translate(-20.583 -263.234)" fill="#fff"/>
      <path id="パス_90161" data-name="パス 90161" d="M6.681,360.538c6.3-8.693,17.145-14.615,27.346-15.971.009.071.03.155.051.248.073.323.152.651.231.98,1.924,8.141,4.206,16.559,6.662,24.62H2a28.526,28.526,0,0,1,4.682-9.876Z" transform="translate(-0.766 -267.57)" fill="#fff"/>
      <path id="パス_90162" data-name="パス 90162" d="M130.695,359.8c-6.326-8.216-16.722-13.811-26.557-15.181-.011.067-.03.139-.048.218-.073.323-.152.651-.231.98-1.924,8.141-4.206,16.559-6.662,24.621h38.748A28.84,28.84,0,0,0,130.695,359.8Z" transform="translate(-37.227 -267.588)" fill="#fff"/>
      <path id="パス_90163" data-name="パス 90163" d="M112.028,368.53c1.406-2.629,2.769-5.234,4.078-7.79a1.7,1.7,0,0,0,.231-.822,1.5,1.5,0,0,0-.414-.931c-1.594-1.734-3.341-3.4-5.051-5l4.546-2.593a.734.734,0,0,0,.4-.408.764.764,0,0,0-.115-.493,17.285,17.285,0,0,0-3.743-4.582,52.677,52.677,0,0,0-6.585-5.161.446.446,0,0,0-.682.268s-.2.8-.393,1.605l-.088.482c-.012.067-.03.14-.049.219-.073.323-.152.651-.231.98-1.893,8.009-4.132,16.286-6.542,24.228" transform="translate(-37.302 -266.078)" fill="#fff"/>
      <path id="パス_90164" data-name="パス 90164" d="M93.763,333.24c1.162,1.3,2.6,3.205,3.732,4.522a3.6,3.6,0,0,1,.781,3.226c-.437.872-5.266,8.616-8.518,10.7-1.027-1.369-5.284-7.277-7.32-9.568.763-.541,10.832-8.48,11.326-8.88Z" transform="translate(-31.574 -263.232)" fill="#fff"/>
      <path id="パス_90165" data-name="パス 90165" d="M58.322,333.24c-1.162,1.3-2.6,3.205-3.732,4.522a3.6,3.6,0,0,0-.781,3.226c.437.872,5.266,8.616,8.518,10.7,1.027-1.369,5.284-7.277,7.32-9.568-.763-.541-10.832-8.48-11.326-8.88Z" transform="translate(-20.558 -263.232)" fill="#fff"/>
      <path id="パス_90166" data-name="パス 90166" d="M38.573,368.53c-1.406-2.629-2.769-5.234-4.078-7.79a1.7,1.7,0,0,1-.231-.822,1.5,1.5,0,0,1,.414-.931c1.594-1.734,3.341-3.4,5.051-5l-4.546-2.593a.733.733,0,0,1-.4-.408.764.764,0,0,1,.115-.493,17.285,17.285,0,0,1,3.743-4.582,52.677,52.677,0,0,1,6.585-5.161.446.446,0,0,1,.682.268l.393,1.605.088.482c.012.067.03.14.049.219.073.323.152.651.231.98,1.893,8.009,4.132,16.286,6.542,24.228" transform="translate(-13.123 -266.078)" fill="#fff"/>
      <path id="パス_90173" data-name="パス 90173" d="M80.909,229.542c-3.7-6.137-12.156-7.74-18.62-7.74a28.673,28.673,0,0,0-17.916,5.963,24.321,24.321,0,0,0-4.637,4.43c-3.158,3.581-6.216,11.148-6.018,18.178a39.031,39.031,0,0,0,1.4,9.646,4.093,4.093,0,0,1,1.65-.378,3.666,3.666,0,0,1,2.652.971l.942.905.052-.552a24.874,24.874,0,0,1,6.338-14.021,2.773,2.773,0,0,1,2.6-.863,48.888,48.888,0,0,0,11.635.373c4.745-.26,9.763-.731,13.621-2.754l4.055,2.775a9.946,9.946,0,0,1,2.409,2.265,21.225,21.225,0,0,1,4.285,12.831l1-.959a3.672,3.672,0,0,1,2.652-.971,4.093,4.093,0,0,1,1.653.379l.091-.492c.808-4.345,1.489-8.82.894-13.223-.713-5.27-3.12-10.678-7.615-13.491l-3.12-3.271Z" transform="translate(-12.911 -220.55)" fill="#333"/>
      <path id="パス_90174" data-name="パス 90174" d="M82.821,368.225c-.589-4.733-1.038-8.278-1.038-8.456a19.747,19.747,0,0,1,.457-2.556c.28-1.345.4-1.966.682-3.377l.022-.16c-1.612-2.171-3.538-4.715-4.719-6.043H76.449c-1.183,1.331-3.116,3.883-4.729,6.057.021.093.033.146.033.146.286,1.412.4,2.032.682,3.377a19.75,19.75,0,0,1,.457,2.556c0,.219-.676,5.5-1.454,11.819h11.8c-.144-1.165-.283-2.294-.416-3.363Z" transform="translate(-27.361 -268.744)" fill="#ff7c64"/>
      <path id="パス_90239" data-name="パス 90239" d="M81.238,228.143c-2.451-3.986-6.7-6.262-11.137-7.365a35.014,35.014,0,0,0-14.446-.466A30.834,30.834,0,0,0,41.626,227a26.693,26.693,0,0,0-8.25,12.369,34.627,34.627,0,0,0-.315,19.707,1.235,1.235,0,0,0,2.38-.656,32.441,32.441,0,0,1-.317-16.267,25.434,25.434,0,0,1,6.85-12.166,28.054,28.054,0,0,1,12.183-6.826,31.6,31.6,0,0,1,13.325-.422c4.475.79,9.143,2.609,11.626,6.646.83,1.351,2.966.112,2.131-1.246h0Z" transform="translate(-12.174 -219.773)" fill="#333"/>
      <path id="パス_90240" data-name="パス 90240" d="M122.433,265.907c1.027-5.545,1.758-11.194.337-16.741-1.159-4.526-3.622-8.811-7.625-11.367-1.343-.857-2.582,1.278-1.246,2.131,3.529,2.253,5.571,6.146,6.548,10.12,1.237,5.031.535,10.182-.394,15.2-.288,1.552,2.09,2.218,2.38.656h0Z" transform="translate(-43.405 -226.601)" fill="#333"/>
      <path id="パス_90241" data-name="パス 90241" d="M78.359,254.538a21.029,21.029,0,0,1-8.105,2.626,76.983,76.983,0,0,1-9.385.669,48.144,48.144,0,0,1-4.966-.109c-1.514-.121-3.192-.7-4.692-.337-1.523.368-2.435,1.684-3.335,2.858a27.421,27.421,0,0,0-2.427,3.747,25.272,25.272,0,0,0-2.876,9.438,1.243,1.243,0,0,0,1.234,1.234,1.262,1.262,0,0,0,1.234-1.234,21.951,21.951,0,0,1,2.3-7.735,26.679,26.679,0,0,1,2.264-3.67c.641-.875,1.451-2.35,2.7-2.294.713.032,1.446.226,2.158.315.817.1,1.638.17,2.459.213,1.608.085,3.221.072,4.83.016a83.426,83.426,0,0,0,9.031-.712,22.807,22.807,0,0,0,8.825-2.894c1.348-.834.11-2.97-1.246-2.131h0Z" transform="translate(-16.304 -233.014)" fill="#333"/>
      <path id="パス_90242" data-name="パス 90242" d="M105.224,262.057a14.514,14.514,0,0,1,4.6,6.44,19.4,19.4,0,0,1,1.479,7.7,1.235,1.235,0,0,0,2.468,0,21.86,21.86,0,0,0-1.792-8.9,16.8,16.8,0,0,0-5.51-7.377c-1.3-.919-2.533,1.22-1.246,2.131h0Z" transform="translate(-40.093 -235.066)" fill="#333"/>
      <path id="パス_90244" data-name="パス 90244" d="M79.861,298.287a21.575,21.575,0,0,1,.508,2.327l-.044-.328a1.4,1.4,0,0,1,.009.321l.044-.328a.771.771,0,0,1-.035.144l.125-.295a.548.548,0,0,1-.051.093l.193-.25a.51.51,0,0,1-.076.075l.25-.193a1.462,1.462,0,0,1-.184.1l.295-.125a1.323,1.323,0,0,1-.311.091l.328-.044a1.25,1.25,0,0,1-.292,0l.328.044c-.11-.015-.218-.042-.328-.057a.941.941,0,0,0-.492-.022.92.92,0,0,0-.459.146,1.233,1.233,0,0,0-.442,1.688,1.18,1.18,0,0,0,.737.567c.254.034.5.1.758.11a2.432,2.432,0,0,0,1.122-.268,1.627,1.627,0,0,0,.9-1.073,2.671,2.671,0,0,0-.011-1.151c-.126-.75-.3-1.493-.493-2.228a1.234,1.234,0,0,0-2.38.656h0Z" transform="translate(-30.281 -249.243)" fill="#333"/>
      <path id="パス_90245" data-name="パス 90245" d="M60.308,287.385c-.389,1.263-.135,4.168,2.257,4.415,3.162-.019,3.331-3.531,2.266-5.183-.872-1.352-3.434-1.915-4.523.768Z" transform="translate(-23.042 -244.942)" fill="#333"/>
      <path id="パス_90246" data-name="パス 90246" d="M98.424,287.385c.389,1.263.136,4.168-2.257,4.415-3.162-.019-3.331-3.531-2.266-5.183.871-1.352,3.434-1.915,4.523.768Z" transform="translate(-35.739 -244.942)" fill="#333"/>
      <path id="パス_90247" data-name="パス 90247" d="M39.015,282.467a5.222,5.222,0,0,0-5.651-.853,4.962,4.962,0,0,0-2.619,3.366A13.067,13.067,0,0,0,32.66,295.3c1.307,1.945,3.348,3.683,5.847,3.358a1.274,1.274,0,0,0,1.234-1.234,1.241,1.241,0,0,0-1.234-1.234c-3.426.445-5.362-4.526-5.6-7.28-.123-1.441-.127-3.255.759-4.485-.12.167.123-.138.13-.144.058-.056.15-.155.2-.2a2.278,2.278,0,0,1,.884-.4,2.633,2.633,0,0,1,2.384.53c1.182,1.054,2.933-.685,1.745-1.745h0Z" transform="translate(-11.634 -243.278)" fill="#333"/>
      <path id="パス_90248" data-name="パス 90248" d="M118.914,284.206a2.613,2.613,0,0,1,2.277-.553,2.329,2.329,0,0,1,.992.423c.073.057.4.438.334.341.886,1.229.882,3.044.759,4.485-.236,2.754-2.171,7.724-5.6,7.28a1.24,1.24,0,0,0-1.234,1.234,1.266,1.266,0,0,0,1.234,1.234c4.109.533,6.6-3.95,7.62-7.262.9-2.926.942-7.6-1.938-9.488a5.2,5.2,0,0,0-6.19.561c-1.188,1.059.563,2.8,1.745,1.745h0Z" transform="translate(-44.599 -243.272)" fill="#333"/>
      <path id="パス_90249" data-name="パス 90249" d="M107.517,303.572a27.2,27.2,0,0,1-1.6,4.843c.13-.316-.106.228-.162.344-.109.226-.222.451-.339.673-.288.547-.6,1.085-.917,1.613a29.246,29.246,0,0,1-6.3,7.5,11.653,11.653,0,0,1-4.678,2.434c-1.546.36-.892,2.741.656,2.38,3.579-.834,6.552-3.439,8.889-6.159a31.94,31.94,0,0,0,4.945-7.467c.065-.144.127-.29.189-.436.016-.038.18-.432.128-.31-.067.155.031-.063.037-.077q.1-.219.187-.44c.1-.231.189-.462.277-.7a23.589,23.589,0,0,0,1.062-3.543c.321-1.55-2.057-2.212-2.38-.656h0Z" transform="translate(-35.483 -251.529)" fill="#333"/>
      <path id="パス_90250" data-name="パス 90250" d="M41.262,304.095a29.523,29.523,0,0,0,6.42,12.737c3.035,3.515,6.929,6.295,11.6,6.992a1.274,1.274,0,0,0,1.518-.862,1.243,1.243,0,0,0-.862-1.518c-4.306-.642-7.719-3.119-10.515-6.358a26.93,26.93,0,0,1-5.786-11.648c-.352-1.548-2.732-.893-2.38.656h0Z" transform="translate(-15.79 -251.479)" fill="#333"/>
      <path id="パス_90251" data-name="パス 90251" d="M81.2,364.574c-2.624,0-5.248-.055-7.872-.056a1.234,1.234,0,0,0,0,2.468c2.624,0,5.248.055,7.872.056a1.234,1.234,0,0,0,0-2.468Z" transform="translate(-27.613 -275.211)" fill="#333"/>
      <path id="パス_90252" data-name="パス 90252" d="M90.158,374.683c-.442-3.59-.9-7.177-1.336-10.768a5.972,5.972,0,0,1,.046-2.126c.3-1.511.625-3.02.93-4.531.313-1.551-2.065-2.214-2.38-.656-.312,1.542-.645,3.081-.949,4.624a7.724,7.724,0,0,0-.13,2.57c.436,3.63.9,7.256,1.351,10.886a1.273,1.273,0,0,0,1.234,1.234,1.242,1.242,0,0,0,1.234-1.234h0Z" transform="translate(-33.047 -271.839)" fill="#333"/>
      <path id="パス_90253" data-name="パス 90253" d="M71.9,374.683c.447-3.629.915-7.255,1.351-10.886a7.721,7.721,0,0,0-.13-2.57c-.3-1.543-.637-3.082-.949-4.624s-2.694-.9-2.38.656c.3,1.48.609,2.958.911,4.437a6.145,6.145,0,0,1,.065,2.219c-.434,3.591-.894,7.178-1.336,10.768a1.241,1.241,0,0,0,1.234,1.234,1.265,1.265,0,0,0,1.234-1.234h0Z" transform="translate(-26.59 -271.839)" fill="#333"/>
      <path id="パス_90254" data-name="パス 90254" d="M52.973,342.582l-.02,0-.348.047.328-.044-.022,0a1.268,1.268,0,0,0-1.235,1.235l.044.328a1.234,1.234,0,0,0,.317.545l.25.193a1.226,1.226,0,0,0,.623.168l.02,0,.348-.047-.328.044.022,0a1.268,1.268,0,0,0,1.235-1.235l-.044-.328a1.234,1.234,0,0,0-.317-.545l-.25-.193a1.226,1.226,0,0,0-.623-.168Z" transform="translate(-19.792 -266.81)" fill="#333"/>
      <path id="パス_90255" data-name="パス 90255" d="M2.422,370.787c2.324-9.219,9.555-16.365,17.784-20.675a41.97,41.97,0,0,1,7.348-2.995,1.235,1.235,0,0,0-.656-2.38c-9.516,2.876-18.518,8.991-23.644,17.645a29.313,29.313,0,0,0-3.212,7.749,1.235,1.235,0,0,0,2.38.656h0Z" transform="translate(0 -267.613)" fill="#333"/>
      <path id="パス_90256" data-name="パス 90256" d="M107.452,345.05h.02l-.328-.044.029.006a1.864,1.864,0,0,0,.356.049c.022,0,.043.006.064.006l-1.234-1.234v.006a1.268,1.268,0,0,0,1.235,1.235l.328-.044a1.233,1.233,0,0,0,.545-.317l.193-.25a1.226,1.226,0,0,0,.168-.623v-.006a1.371,1.371,0,0,0-.362-.873l-.25-.193a1.226,1.226,0,0,0-.623-.168c-.025,0-.049-.006-.074-.006l.328.044-.035-.009c-.113-.023-.228-.034-.342-.046h-.018a1.192,1.192,0,0,0-1.128.759.926.926,0,0,0-.106.476l.044.328a1.233,1.233,0,0,0,.317.545l.25.193a1.226,1.226,0,0,0,.623.168h0Z" transform="translate(-40.682 -266.81)" fill="#333"/>
      <path id="パス_90257" data-name="パス 90257" d="M117.352,347.275c8.783,2.743,17.1,8.421,21.842,16.435a26.9,26.9,0,0,1,2.95,7.136,1.235,1.235,0,0,0,2.38-.656c-2.456-9.737-10.037-17.442-18.725-22.049a45.765,45.765,0,0,0-7.791-3.246c-1.52-.474-2.169,1.907-.656,2.38h0Z" transform="translate(-44.617 -267.672)" fill="#333"/>
      <path id="パス_90258" data-name="パス 90258" d="M92.132,333.324c.875.988,1.689,2.027,2.517,3.054a6.393,6.393,0,0,1,1.735,2.662c.1.61.028.632-.284,1.152-.324.539-.663,1.07-1.007,1.6-.98,1.5-2.007,2.977-3.124,4.378a17.1,17.1,0,0,1-3.593,3.667l1.688.443c-2.465-3.292-4.788-6.731-7.513-9.818L82.3,342.4c2.039-1.461,3.978-3.086,5.95-4.635,1.878-1.476,3.767-2.938,5.626-4.437a1.242,1.242,0,0,0,0-1.745,1.263,1.263,0,0,0-1.745,0c-1.816,1.465-3.663,2.894-5.5,4.336q-1.863,1.464-3.729,2.924c-.439.342-.878.685-1.319,1.025.265-.2-.188.144-.275.21s-.17.129-.256.191a1.258,1.258,0,0,0-.25,1.938c2.586,2.929,4.788,6.194,7.128,9.318a1.258,1.258,0,0,0,1.688.443c2.678-1.758,4.663-4.654,6.464-7.242.737-1.06,1.454-2.138,2.121-3.244a4.285,4.285,0,0,0,.151-4.242,14.381,14.381,0,0,0-2.042-2.7c-.8-.994-1.591-2-2.438-2.954-1.055-1.191-2.795.56-1.745,1.745Z" transform="translate(-30.815 -262.443)" fill="#333"/>
      <path id="パス_90259" data-name="パス 90259" d="M68.015,340.486c-2.726,3.086-5.042,6.53-7.511,9.819l1.688-.443a15.95,15.95,0,0,1-3.327-3.335c-1.128-1.385-2.16-2.848-3.145-4.336-.365-.552-.724-1.107-1.07-1.671a1.865,1.865,0,0,1-.286-2.046,11.574,11.574,0,0,1,1.874-2.466c.72-.9,1.437-1.8,2.2-2.656H56.694c1.857,1.5,3.748,2.961,5.626,4.436,1.972,1.55,3.912,3.166,5.946,4.635a1.243,1.243,0,0,0,1.688-.443,1.261,1.261,0,0,0-.443-1.688c-.086-.062-.17-.127-.255-.191l-.2-.156-.07-.054q-.66-.512-1.318-1.025-1.867-1.458-3.728-2.923c-1.834-1.442-3.683-2.868-5.5-4.336a1.256,1.256,0,0,0-1.745,0c-.876.987-1.691,2.026-2.52,3.052a12.206,12.206,0,0,0-2.133,3.007,4.011,4.011,0,0,0,.147,3.55c.355.611.739,1.207,1.125,1.8,1.106,1.7,2.283,3.349,3.547,4.933a18.388,18.388,0,0,0,4.087,4.044,1.263,1.263,0,0,0,1.688-.443c2.343-3.122,4.537-6.391,7.124-9.32,1.048-1.186-.691-2.938-1.745-1.745Z" transform="translate(-19.801 -262.471)" fill="#333"/>
      <path id="パス_90260" data-name="パス 90260" d="M112.318,368.394q1.188-2.224,2.356-4.46.591-1.134,1.177-2.27a7.113,7.113,0,0,0,.909-2.125c.225-1.574-1.182-2.679-2.169-3.683-1.178-1.2-2.4-2.353-3.622-3.5l-.25,1.938,2.541-1.449a12.04,12.04,0,0,0,2.5-1.508c1.358-1.328-.344-3.324-1.223-4.425a38.2,38.2,0,0,0-7.769-6.923,7.527,7.527,0,0,0-1.918-1.221,1.672,1.672,0,0,0-2.055,1.017,31.383,31.383,0,0,0-.959,4.007q-1.312,5.513-2.785,10.986-1.709,6.363-3.622,12.669a1.235,1.235,0,0,0,2.38.656q2.194-7.24,4.123-14.556.95-3.608,1.834-7.233c.277-1.138.566-2.275.816-3.419.089-.41.165-.82.265-1.228l.165-.674.072-.295q.069-.249-.094.16l-.545.317q-.513-.075-.1.127l.284.194q.345.237.687.479.626.444,1.238.9,1.463,1.1,2.838,2.311a31.648,31.648,0,0,1,2.622,2.557,14.172,14.172,0,0,1,1.03,1.259c.191.268.745.9.764,1.222l.168-.623c.065-.127-.182.093-.226.118-.224.125-.445.254-.669.381l-1.2.686-2.407,1.373a1.246,1.246,0,0,0-.25,1.938c1.007.947,2.011,1.9,2.992,2.871q.737.732,1.454,1.484c.407.429.747.54.526,1.037-1.161,2.616-2.662,5.134-4.01,7.658-.748,1.4,1.381,2.649,2.131,1.246h0Z" transform="translate(-36.526 -265.32)" fill="#333"/>
      <path id="パス_90261" data-name="パス 90261" d="M53.64,367.447q-3.371-11.124-6.111-22.428c-.352-1.456-.659-2.921-1.015-4.375a2.738,2.738,0,0,0-.687-1.529,1.869,1.869,0,0,0-2.46.131,43.664,43.664,0,0,0-8.149,6.86c-.967,1.086-3.157,3.345-2.171,4.917.5.792,1.741,1.238,2.525,1.687l2.775,1.588-.25-1.938c-1.187,1.115-2.37,2.235-3.515,3.393-1.015,1.027-2.5,2.174-2.272,3.79a6.559,6.559,0,0,0,.838,1.991q.584,1.136,1.175,2.271,1.2,2.3,2.427,4.593c.749,1.4,2.881.156,2.131-1.246q-1.011-1.89-2.006-3.787c-.669-1.278-1.426-2.552-2-3.873-.2-.468.033-.512.427-.929q.712-.754,1.449-1.486c1.014-1.01,2.053-1.993,3.1-2.973a1.245,1.245,0,0,0-.25-1.938L37.2,350.8l-1.136-.65-.5-.289c-.073-.042-.5-.323-.463-.253l.168.623c.015-.321.585-.973.762-1.22a14.084,14.084,0,0,1,.94-1.156A30.978,30.978,0,0,1,39.6,345.26q1.367-1.212,2.826-2.314.635-.478,1.282-.938.3-.217.611-.428l.393-.268q.421-.2-.083-.134l-.545-.317q-.165-.405-.089-.138c.02.083.041.165.06.248.071.289.144.578.213.868.084.352.143.707.219,1.061.232,1.073.509,2.139.768,3.206q.9,3.684,1.861,7.351,1.937,7.361,4.145,14.647c.459,1.516,2.842.87,2.38-.656h0Z" transform="translate(-12.366 -265.324)" fill="#333"/>
      <g id="楕円形_233" data-name="楕円形 233" transform="translate(46.651 56.721)" fill="#fff" stroke="#333" stroke-width="2">
        <ellipse cx="4" cy="3" rx="4" ry="3" stroke="none"/>
        <ellipse cx="4" cy="3" rx="3" ry="2" fill="none"/>
      </g>
    </g>
  </g>
  <g id="楕円形_133" data-name="楕円形 133" transform="translate(0 0)" fill="none" stroke="#333" stroke-width="3">
    <ellipse cx="58.245" cy="58.245" rx="58.245" ry="58.245" stroke="none"/>
    <ellipse cx="58.245" cy="58.245" rx="56.745" ry="56.745" fill="none"/>
  </g>
</svg>
