<svg xmlns="http://www.w3.org/2000/svg" xmlns:xlink="http://www.w3.org/1999/xlink" width="118.001" height="120" viewBox="0 0 118.001 120">
  <defs>
    <clipPath id="clip-path">
      <ellipse id="楕円形_125" data-name="楕円形 125" cx="59" cy="60" rx="59" ry="60" transform="translate(0.07 0.001)" fill="none" stroke="#333" stroke-width="3"/>
    </clipPath>
  </defs>
  <g id="グループ_9914" data-name="グループ 9914" transform="translate(-0.071)">
    <g id="グループ_9844" data-name="グループ 9844" transform="translate(0 -0.001)">
      <ellipse id="楕円形_167" data-name="楕円形 167" cx="59" cy="60" rx="59" ry="60" transform="translate(0.071 0.001)" fill="#fff"/>
      <g id="マスクグループ_23" data-name="マスクグループ 23" transform="translate(0 0)" clip-path="url(#clip-path)">
        <g id="グループ_9743" data-name="グループ 9743" transform="translate(12.633 17.111)">
          <path id="パス_89749" data-name="パス 89749" d="M67.123,231.83l-3.5-2.031A34.318,34.318,0,0,0,49.9,227.169a33.627,33.627,0,0,0-21.607,8.447c-6.2,5.932-10.126,16.766-9.63,31.706.169,7.533-.045,13.711-.367,20.139A50.17,50.17,0,0,1,16.468,298.4a15.317,15.317,0,0,1-6.158,9.035s1.091,9.427,21.776,9.427c40.252,0,56.537-5.645,56.537-5.645-1.99-1.506-4.046-3.088-5.176-5.313a15.482,15.482,0,0,1-1.3-5.459,274.232,274.232,0,0,1-.818-33.985c-.043-5.094-.069-8.8-.189-10.377-.7-9.294-4.2-15.771-8.931-20.332a19.819,19.819,0,0,0-4.44-3.544Z" transform="translate(-3.828 -225.907)" fill="#fff"/>
          <path id="パス_89750" data-name="パス 89750" d="M77.564,315.4c-1.438-.681-2.718-1.286-2.785-1.309-2.285-.825-2.195-2.295-2.483-3.938a33.268,33.268,0,0,1-.486-4.391c5.754-2.82,10.34-10.7,11.156-12.917.149-.453.481-1.377.734-2.439,1.019-.151,2.377-.145,3.151-.767A8.979,8.979,0,0,0,89.2,286.56a14.312,14.312,0,0,0,1.459-7.566,4.747,4.747,0,0,0-.5-1.912,3.346,3.346,0,0,0-2.421-1.61,3.562,3.562,0,0,0-2.849.836l-2.956-2.767c-3.226-1.275-6.348-5.98-8.133-9.386a40.669,40.669,0,0,1-2.642-7.856l-4.8-.146a16,16,0,0,1-2.283,5.832,12.363,12.363,0,0,1-6.435,5.711H42.706a23.219,23.219,0,0,0-2.448,5.975c-1.46,6.148-1.428,13.294-.353,20.563a22.8,22.8,0,0,0,3.472,5.734,23.165,23.165,0,0,0,7.709,6.232,30.989,30.989,0,0,1-.47,3.949c-.288,1.643-.2,3.113-2.483,3.938-.152.055-7.38,3.436-7.82,3.585,0,0,1.628,11.9,20.357,11.9s20.976-12.257,20.976-12.257C81.514,317.268,79.41,316.27,77.564,315.4Z" transform="translate(-14.521 -236.663)" fill="#fff"/>
          <path id="パス_89751" data-name="パス 89751" d="M92.362,372.477c-1.069-4.286-3.483-11.53-6.571-14.843a24.528,24.528,0,0,0-8-5.752c-3.014-1.233-14.621-6.2-17.068-7.3-.147-.908-.558-2.916-.705-3.708s-.648-2.384-1.484-2.342c-2.752.138-7.166,2.082-10.881,2.19-5.22.152-9.962-1.438-11.064-1.4-1.415.052-2.155,4.011-3,5.637-2.67,1.132-13.732,5.571-17.036,6.923a24.528,24.528,0,0,0-7.993,5.749c-3.087,3.316-5.5,10.56-6.569,14.846Z" transform="translate(-0.745 -267.23)" fill="#fff"/>
          <path id="パス_89762" data-name="パス 89762" d="M48.607,345.779c3.107,2.956,5.8,5.032,10.223,6.148l1.506.138a26.7,26.7,0,0,1-.993-2.516c4.007-1.3,12.625-4.053,15-5.777,1.728,1.632,5.546,3.73,8.25,5.22-3.9,4.269-9.648,10.377-15.14,12.287l1.138,1.509c-4.469,3.847-10.309,5.638-16.01,7.147-.283.075-.656.115-.8-.14a.675.675,0,0,1-.03-.44,60.523,60.523,0,0,1,1.318-6.149s.2-.851.433-1.824c-4.659-.9-7.645-3.686-11.159-7.384a41.271,41.271,0,0,1-3.648-4.68,53.8,53.8,0,0,0,8.6-4.815C47.74,344.946,48.178,345.37,48.607,345.779Z" transform="translate(-14.359 -269.175)" fill="#ff7c64"/>
          <path id="パス_89835" data-name="パス 89835" d="M55.975,335.595q-.063.943-.189,1.88l.045-.335c-.014.109-.03.219-.046.328a1.411,1.411,0,0,0,.126.969,1.258,1.258,0,0,0,1.721.451,1.212,1.212,0,0,0,.578-.752c.126-.844.221-1.691.277-2.542a1.258,1.258,0,0,0-2.147-.89l-.2.252a1.251,1.251,0,0,0-.172.635Z" transform="translate(-20.689 -265.674)" fill="#333"/>
          <path id="パス_89836" data-name="パス 89836" d="M91.787,336.637c-.075-.669-.131-1.34-.164-2.013a1.321,1.321,0,0,0-.369-.89,1.258,1.258,0,0,0-2.147.89c.032.672.088,1.343.164,2.013a1.4,1.4,0,0,0,.369.889,1.258,1.258,0,0,0,1.779,0A1.216,1.216,0,0,0,91.787,336.637Z" transform="translate(-33.067 -265.314)" fill="#333"/>
          <path id="パス_89837" data-name="パス 89837" d="M105.962,353.67q3.781,1.626,7.571,3.226a31.648,31.648,0,0,1,5.943,3.065,18.616,18.616,0,0,1,4.815,4.639,29.993,29.993,0,0,1,3.019,6.053,60.424,60.424,0,0,1,2.186,6.913,1.259,1.259,0,0,0,2.426-.669,45.869,45.869,0,0,0-5.066-12.956c-2.579-4.151-6.838-7.037-11.276-8.889-2.791-1.165-5.572-2.357-8.35-3.552a1.3,1.3,0,0,0-1.721.451,1.267,1.267,0,0,0,.452,1.721Z" transform="translate(-39.09 -271.984)" fill="#333"/>
          <path id="パス_89838" data-name="パス 89838" d="M2.471,377.772a45.184,45.184,0,0,1,4.537-11.9,20.644,20.644,0,0,1,10.076-8.2q4.081-1.661,8.169-3.308a1.3,1.3,0,0,0,.881-1.547,1.267,1.267,0,0,0-1.547-.88q-3.9,1.579-7.8,3.16a27.433,27.433,0,0,0-6.371,3.484A21.3,21.3,0,0,0,5.393,363.7a33.162,33.162,0,0,0-3.082,6.264A59.467,59.467,0,0,0,.047,377.1a1.259,1.259,0,0,0,2.426.669Z" transform="translate(-0.004 -272.19)" fill="#333"/>
          <path id="パス_89839" data-name="パス 89839" d="M53.813,342.766a10.953,10.953,0,0,1,1.132-2.735c.04-.057.182-.208.195-.245-.048.143-.422-.025-.025.063.293.063.591.106.885.167,1.841.377,3.674.755,5.54.989a23.5,23.5,0,0,0,7.01-.058c2.1-.37,4.134-1.04,6.208-1.536.5-.121,1.016-.24,1.53-.31a5.348,5.348,0,0,0,.554-.05c-.3.076-.2-.2-.216,0-.008.093.185.349.225.45a4.905,4.905,0,0,1,.182.6c.135.535.22,1.086.327,1.627.314,1.587,2.737.915,2.426-.669-.34-1.73-.772-4.6-3.107-4.511s-4.633,1.016-6.874,1.564a21.842,21.842,0,0,1-7.725.443c-2.043-.223-4.025-.728-6.043-1.086a2.724,2.724,0,0,0-2.9.8,12.1,12.1,0,0,0-1.744,3.831c-.53,1.533,1.9,2.192,2.426.669Z" transform="translate(-19.044 -266.493)" fill="#333"/>
          <path id="パス_89840" data-name="パス 89840" d="M111.328,287.846a2.226,2.226,0,0,1,3.337.6,5.577,5.577,0,0,1,.339,2.4,12.681,12.681,0,0,1-.295,2.725,11.862,11.862,0,0,1-2.038,4.654,3.251,3.251,0,0,1-1.566,1.294,17.426,17.426,0,0,1-2.183.315,1.265,1.265,0,0,0-.881,1.547,1.291,1.291,0,0,0,1.547.88,9.876,9.876,0,0,0,2.96-.605,6.833,6.833,0,0,0,2.434-2.36,14.947,14.947,0,0,0,2.425-6.714c.268-2.164.294-4.974-1.471-6.55a4.856,4.856,0,0,0-6.389.032,1.267,1.267,0,0,0,0,1.779,1.285,1.285,0,0,0,1.779,0Z" transform="translate(-40.076 -247.312)" fill="#333"/>
          <path id="パス_89841" data-name="パス 89841" d="M99.972,306.306a12.245,12.245,0,0,1-.592,3.077c-.106.35-.221.7-.338,1.044-.035.1-.07.2-.106.307-.083.24,0,.006-.014.043a24.521,24.521,0,0,1-1.576,2.921,29.153,29.153,0,0,1-6.272,7.407,11.727,11.727,0,0,1-4.673,2.42c-1.576.367-.909,2.794.669,2.426,3.606-.841,6.6-3.464,8.96-6.205a32.129,32.129,0,0,0,5.008-7.572,16.1,16.1,0,0,0,1.45-5.869C102.551,304.687,100.035,304.69,99.972,306.306Z" transform="translate(-31.729 -254.823)" fill="#333"/>
          <path id="パス_89842" data-name="パス 89842" d="M38.541,316.592c2.8,6.5,8.918,12.742,16.167,13.837a1.3,1.3,0,0,0,1.547-.88A1.267,1.267,0,0,0,55.375,328c-6.689-1.01-12.086-6.694-14.663-12.68a1.266,1.266,0,0,0-1.721-.451,1.291,1.291,0,0,0-.451,1.721Z" transform="translate(-14.243 -258.388)" fill="#333"/>
          <path id="パス_89843" data-name="パス 89843" d="M68.11,227.844a36.7,36.7,0,0,0-15.165-2.652,34.718,34.718,0,0,0-15.3,4.434,27.3,27.3,0,0,0-8.942,7.647A34.519,34.519,0,0,0,23.44,248.59a60.467,60.467,0,0,0-1.882,17.988c.05,1.615,2.567,1.622,2.516,0-.284-9.057.823-18.837,5.83-26.624a23.4,23.4,0,0,1,7.415-7.218,32.763,32.763,0,0,1,13.716-4.891,34.257,34.257,0,0,1,16.41,2.422,1.267,1.267,0,0,0,1.547-.881,1.288,1.288,0,0,0-.881-1.547Z" transform="translate(-7.978 -225.165)" fill="#333"/>
          <path id="パス_89844" data-name="パス 89844" d="M115.761,268.689c-.045-5.283.145-10.633-.95-15.837a30.925,30.925,0,0,0-6.759-13.887,26.853,26.853,0,0,0-6.472-5.618,1.259,1.259,0,0,0-1.27,2.172,26.055,26.055,0,0,1,9.283,10.111,32.485,32.485,0,0,1,3.535,14.136c.1,2.972.093,5.95.118,8.923a1.259,1.259,0,0,0,2.516,0Z" transform="translate(-36.999 -228.132)" fill="#333"/>
          <path id="パス_89845" data-name="パス 89845" d="M112.959,318.579c-.655.111-1.305.252-1.957.377a1.885,1.885,0,0,0-.34.143,1.079,1.079,0,0,0-.4.367,1.441,1.441,0,0,0-.306.864,27.554,27.554,0,0,0,.086,3.231,1.5,1.5,0,0,0,.418,1.006,1.4,1.4,0,0,0,1.006.418c.909-.071,1.813-.165,2.715-.3l.341-.144a1.082,1.082,0,0,0,.4-.367,1.339,1.339,0,0,0,.306-.864l-.145-2.045-.07-.987a2.125,2.125,0,0,0-.248-1.006,1.572,1.572,0,0,0-1.428-.751Z" transform="translate(-40.797 -259.806)" fill="#333"/>
          <path id="パス_89846" data-name="パス 89846" d="M16.687,290.3c.121,5.559.033,11.117-.205,16.672a70.705,70.705,0,0,1-.654,8.21,36.218,36.218,0,0,1-2.023,8.024,13.125,13.125,0,0,1-4.848,6.123c-1.356.874-.1,3.053,1.27,2.172,4.732-3.05,6.581-8.32,7.652-13.585,1.159-5.7,1.209-11.6,1.331-17.4q.106-5.1-.006-10.21a1.259,1.259,0,0,0-2.516,0Z" transform="translate(-3.11 -248.884)" fill="#333"/>
          <path id="パス_89847" data-name="パス 89847" d="M121.121,288.933c-.236,6.318-.243,12.646-.074,18.965.084,3.116.214,6.231.417,9.342a59.526,59.526,0,0,0,.951,8.952c.86,3.882,3.585,6.283,6.62,8.583a1.266,1.266,0,0,0,1.721-.451,1.289,1.289,0,0,0-.452-1.721c-2.47-1.87-4.708-3.8-5.434-6.942a53.032,53.032,0,0,1-.891-8.422c-.4-6.081-.538-12.179-.53-18.272q.008-5.018.189-10.035c.063-1.619-2.453-1.616-2.516,0Z" transform="translate(-44.875 -248.376)" fill="#333"/>
          <path id="パス_89848" data-name="パス 89848" d="M88.092,256a36.715,36.715,0,0,0,4.176,10.625c1.84,2.964,4.154,6.12,7.475,7.5a1.265,1.265,0,0,0,1.547-.881,1.289,1.289,0,0,0-.881-1.547,9.823,9.823,0,0,1-3.348-2.73,27.546,27.546,0,0,1-2.874-4.018,34.5,34.5,0,0,1-3.672-9.615,1.259,1.259,0,0,0-2.426.669Z" transform="translate(-32.673 -236.024)" fill="#333"/>
          <path id="パス_89849" data-name="パス 89849" d="M75.336,254.071c-.894,4.586-3.16,9.569-7.857,11.3a1.292,1.292,0,0,0-.881,1.547,1.268,1.268,0,0,0,1.547.88c5.56-2.05,8.533-7.515,9.615-13.058a1.291,1.291,0,0,0-.881-1.548,1.27,1.27,0,0,0-1.547.881Z" transform="translate(-24.701 -235.549)" fill="#333"/>
          <path id="パス_89850" data-name="パス 89850" d="M61.563,254.2a16.015,16.015,0,0,1-5.814,11.623,1.267,1.267,0,0,0,0,1.779,1.285,1.285,0,0,0,1.779,0,18.476,18.476,0,0,0,6.551-13.4c.074-1.619-2.442-1.615-2.516,0Z" transform="translate(-20.554 -235.49)" fill="#333"/>
          <path id="パス_89851" data-name="パス 89851" d="M42.24,302.383a73.58,73.58,0,0,1-2.565-20.7,37.383,37.383,0,0,1,1.2-8.868,22.982,22.982,0,0,1,1.335-3.588,34.094,34.094,0,0,1,2.169-3.482c1.955-3.108,3.328-6.686,2.715-10.4a1.267,1.267,0,0,0-1.547-.88,1.288,1.288,0,0,0-.881,1.547c.515,3.121-1.028,6.259-2.679,8.8a26.446,26.446,0,0,0-2.1,3.45,27.831,27.831,0,0,0-1.421,3.794,39.062,39.062,0,0,0-1.286,8.936,63.1,63.1,0,0,0,.4,10.2,88.7,88.7,0,0,0,2.228,11.859,1.259,1.259,0,0,0,2.426-.669Z" transform="translate(-13.78 -236.021)" fill="#333"/>
          <path id="パス_89852" data-name="パス 89852" d="M111.008,308.366c.087,2.159.2,4.316.326,6.472a1.258,1.258,0,1,0,2.516,0c-.126-2.156-.239-4.313-.326-6.472a1.258,1.258,0,0,0-2.516,0Z" transform="translate(-41.193 -255.571)" fill="#333"/>
          <path id="パス_89853" data-name="パス 89853" d="M58.423,350.406a18.4,18.4,0,0,1-5.967-2.7,39.953,39.953,0,0,1-5.019-4.4,1.275,1.275,0,0,0-1.524-.2,55.35,55.35,0,0,1-8.6,4.814,1.262,1.262,0,0,0-.452,1.721,39.993,39.993,0,0,0,9.523,10.067,17.982,17.982,0,0,0,12.121,2.807,1.292,1.292,0,0,0,1.258-1.258A1.267,1.267,0,0,0,58.508,360a15.844,15.844,0,0,1-10.851-2.464,36.6,36.6,0,0,1-8.621-9.165l-.451,1.721a55.36,55.36,0,0,0,8.6-4.815l-1.525-.2a43.666,43.666,0,0,0,5.528,4.8,20.442,20.442,0,0,0,6.568,2.951,1.259,1.259,0,0,0,.669-2.426Z" transform="translate(-13.618 -268.867)" fill="#333"/>
          <path id="パス_89854" data-name="パス 89854" d="M73.426,351.878a27.854,27.854,0,0,1-1.428-3.4l-.881,1.547c2.747-.894,5.5-1.785,8.213-2.767a29.525,29.525,0,0,0,7.084-3.137l-1.525-.2c2.453,2.264,5.6,3.818,8.506,5.415l-.255-1.976a90.924,90.924,0,0,1-7,7.055,23.259,23.259,0,0,1-8.05,5.061l1.224.323a26.133,26.133,0,0,1-5.889-7.925c-.73-1.447-2.9-.174-2.172,1.269a32.125,32.125,0,0,0,3.577,5.588,22.426,22.426,0,0,0,2.3,2.487c.477.44.931.843,1.628.686a8.353,8.353,0,0,0,1.312-.479c3.855-1.6,7.131-4.43,10.093-7.312,1.645-1.6,3.208-3.278,4.757-4.972a1.274,1.274,0,0,0-.252-1.976c-2.7-1.488-5.711-2.911-8-5.021a1.279,1.279,0,0,0-1.525-.2,27.617,27.617,0,0,1-6.686,2.956c-2.651.955-5.331,1.824-8.01,2.7a1.274,1.274,0,0,0-.881,1.547,32.743,32.743,0,0,0,1.681,4C71.972,354.6,74.142,353.326,73.426,351.878Z" transform="translate(-25.802 -268.439)" fill="#333"/>
          <path id="パス_89855" data-name="パス 89855" d="M58.808,373.38c-.335,1.258-.635,2.516-.892,3.791-.138.685-.267,1.372-.377,2.062a2.481,2.481,0,0,0,.108,1.707c.665,1.137,1.965.789,2.988.513,1.155-.311,2.306-.635,3.448-.988a34.356,34.356,0,0,0,12.35-6.277c1.235-1.05-.552-2.822-1.779-1.779a26.47,26.47,0,0,1-7.479,4.323c-1.359.535-2.745,1-4.143,1.424q-1.018.308-2.043.591c-.367.1-1.515.584-1.811.464l.555.324-.112-.12.323.555a4.067,4.067,0,0,1,.226-1.249q.151-.809.323-1.616.33-1.538.739-3.057a1.259,1.259,0,0,0-2.426-.669Z" transform="translate(-21.315 -279.683)" fill="#333"/>
          <path id="パス_89857" data-name="パス 89857" d="M72.725,300.644a21.5,21.5,0,0,1,.509,2.327l-.045-.335a1.409,1.409,0,0,1,.009.321l.045-.335a.757.757,0,0,1-.035.145l.126-.3a.636.636,0,0,1-.051.093l.2-.252a.476.476,0,0,1-.076.075l.255-.2a1.433,1.433,0,0,1-.184.1l.3-.126a1.368,1.368,0,0,1-.311.091l.335-.045a1.225,1.225,0,0,1-.292,0l.335.045c-.11-.015-.218-.042-.328-.057a1.411,1.411,0,0,0-.969.126,1.258,1.258,0,0,0-.451,1.721,1.2,1.2,0,0,0,.755.578c.256.035.5.1.765.111a2.452,2.452,0,0,0,1.132-.271,1.648,1.648,0,0,0,.911-1.087,2.71,2.71,0,0,0-.011-1.164c-.126-.75-.3-1.493-.492-2.228a1.258,1.258,0,1,0-2.426.669Z" transform="translate(-26.689 -252.582)" fill="#333"/>
          <path id="パス_89858" data-name="パス 89858" d="M53.65,289.956c-.389,1.263-.135,4.168,2.257,4.415,3.162-.019,3.333-3.531,2.264-5.183C57.3,287.836,54.738,287.274,53.65,289.956Z" transform="translate(-19.855 -248.502)" fill="#333"/>
          <path id="パス_89859" data-name="パス 89859" d="M90.983,289.956c.389,1.263.135,4.168-2.257,4.415-3.162-.019-3.333-3.531-2.264-5.183C87.335,287.836,89.9,287.274,90.983,289.956Z" transform="translate(-31.866 -248.502)" fill="#333"/>
          <g id="楕円形_234" data-name="楕円形 234" transform="translate(44.373 54.524)" fill="#fff" stroke="#333" stroke-width="2">
            <circle cx="3" cy="3" r="3" stroke="none"/>
            <circle cx="3" cy="3" r="2" fill="none"/>
          </g>
        </g>
      </g>
      <g id="楕円形_149" data-name="楕円形 149" transform="translate(0.071 0.001)" fill="none" stroke="#333" stroke-width="3">
        <ellipse cx="59" cy="60" rx="59" ry="60" stroke="none"/>
        <ellipse cx="59" cy="60" rx="57.5" ry="58.5" fill="none"/>
      </g>
    </g>
  </g>
</svg>
