<svg xmlns="http://www.w3.org/2000/svg" xmlns:xlink="http://www.w3.org/1999/xlink" width="116.491" height="116.49" viewBox="0 0 116.491 116.49">
  <defs>
    <clipPath id="clip-path">
      <circle id="楕円形_110" data-name="楕円形 110" cx="58.245" cy="58.245" r="58.245" fill="none" stroke="#333" stroke-width="3"/>
    </clipPath>
  </defs>
  <g id="グループ_9947" data-name="グループ 9947" transform="translate(-655.5 -520.284)">
    <g id="グループ_9758" data-name="グループ 9758" transform="translate(655.5 520.284)">
      <circle id="楕円形_164" data-name="楕円形 164" cx="58.245" cy="58.245" r="58.245" transform="translate(0 0)" fill="#fff"/>
      <g id="マスクグループ_9" data-name="マスクグループ 9" transform="translate(0 0)" clip-path="url(#clip-path)">
        <g id="グループ_9727" data-name="グループ 9727" transform="translate(4.512 12.561)">
          <path id="パス_90262" data-name="パス 90262" d="M91.768,274.264a4.079,4.079,0,0,1,2.945-1.079,3.781,3.781,0,0,1,3.4,1.887c1.154,2,1.105,5.69.33,7.972a12.315,12.315,0,0,1-3.614,5.861,4.492,4.492,0,0,1-3.463,1l-.332-.056a26.392,26.392,0,0,1-1.192,3.234c-.835,2.268-5.262,9.934-10.973,13.5,0,2.4,0,3.986,0,3.986a6.175,6.175,0,0,0,.264,2.188,5.325,5.325,0,0,0,1.6,2.324,17.915,17.915,0,0,0,5.342,2.7l2.806,1.107s-6.044,10.753-23.17,10.753-22.609-10.753-22.609-10.753l2.813-1.107a17.916,17.916,0,0,0,5.342-2.7,5.313,5.313,0,0,0,1.6-2.324,6.177,6.177,0,0,0,.264-2.188s0-1.4,0-3.692a24.415,24.415,0,0,1-6.9-5.942,30.987,30.987,0,0,1-5.88-11.093,4.408,4.408,0,0,1-3.747-.938,12.315,12.315,0,0,1-3.614-5.861c-.774-2.282-.824-5.97.33-7.972a3.781,3.781,0,0,1,3.4-1.887,4.072,4.072,0,0,1,2.945,1.079s-4.626-22.735,25.526-22.735,26.6,22.735,26.6,22.735Z" transform="translate(-10.198 -229.772)" fill="#fff"/>
          <path id="パス_90263" data-name="パス 90263" d="M68.829,341.107c1.347,1.053,2.351,1.832,2.581,2h1.974c.85-.6,12.027-9.416,12.582-9.861,1.288,1.446,2.878,3.557,4.139,5.023a3.975,3.975,0,0,1,.87,3.577c-.487.973-5.852,9.573-9.464,11.889l-2.94-3a13.12,13.12,0,0,1-6.579,1.329,12.14,12.14,0,0,1-5.9-1.192l-2.81,2.864c-3.611-2.316-8.977-10.916-9.464-11.889a4,4,0,0,1,.87-3.577c1.261-1.466,2.851-3.577,4.146-5.023C59.233,333.566,65.247,338.308,68.829,341.107Z" transform="translate(-16.892 -255.489)" fill="#fff"/>
          <path id="パス_90277" data-name="パス 90277" d="M74.853,344.6a2.777,2.777,0,0,1-.036.41,2.184,2.184,0,0,1-.1.413c-.485.969-5.849,9.57-9.461,11.884l0,0h0l-2.94-3c-.061.034-.124.06-.186.092-.12.064-.241.123-.363.18-.16.075-.321.147-.484.212-.116.047-.232.091-.348.132-.171.061-.343.117-.516.168-.112.033-.223.066-.335.1-.183.047-.367.089-.551.127-.1.021-.206.045-.309.063-.2.037-.406.066-.611.094-.084.011-.167.025-.251.034-.247.029-.495.051-.742.069l-.114.01c-.595.039-1.187.053-1.77.053-.51,0-1.035-.014-1.567-.051l-.145-.012c-.2-.016-.408-.035-.612-.059-.1-.012-.209-.029-.314-.044-.15-.021-.3-.043-.45-.071-.13-.023-.26-.051-.39-.079s-.25-.055-.375-.087c-.143-.036-.283-.077-.424-.119-.112-.034-.223-.07-.334-.108-.147-.05-.291-.1-.436-.163-.1-.042-.208-.088-.312-.136-.146-.066-.291-.135-.434-.21-.036-.019-.073-.033-.108-.053l-2.8,2.856-.008.011c-3.612-2.314-8.976-10.915-9.461-11.884l0-.008h0c0-.012-.005-.025-.009-.036a2.178,2.178,0,0,1-.093-.367,2.835,2.835,0,0,1-.036-.407V344.6C22.238,346.681,5.826,357.839,2,373.288H110.274c-3.825-15.449-20.237-26.606-35.419-28.686Z" transform="translate(-0.63 -259.064)" fill="#ff7c64"/>
          <path id="パス_90278" data-name="パス 90278" d="M86.132,230.4c-4.109-6.816-13.5-8.6-20.68-8.6a31.846,31.846,0,0,0-19.9,6.623,27.012,27.012,0,0,0-5.151,4.92c-3.507,3.977-6.9,12.382-6.683,20.19a43.349,43.349,0,0,0,1.554,10.714,4.547,4.547,0,0,1,1.832-.419,4.072,4.072,0,0,1,2.945,1.079l1.046,1.005.058-.613a27.626,27.626,0,0,1,7.039-15.572,3.079,3.079,0,0,1,2.891-.959,54.3,54.3,0,0,0,12.923.414c5.27-.289,10.843-.812,15.128-3.059l4.5,3.082a11.046,11.046,0,0,1,2.675,2.516,23.574,23.574,0,0,1,4.759,14.251l1.106-1.065a4.079,4.079,0,0,1,2.945-1.079,4.545,4.545,0,0,1,1.836.421l.1-.547c.9-4.826,1.654-9.8.993-14.686-.792-5.854-3.465-11.859-8.458-14.984l-3.465-3.633Z" transform="translate(-10.609 -220.418)" fill="#fce5db"/>
          <path id="パス_90337" data-name="パス 90337" d="M86.71,229.075c-2.722-4.428-7.443-6.956-12.37-8.18a38.889,38.889,0,0,0-16.045-.517,34.247,34.247,0,0,0-15.581,7.433,29.647,29.647,0,0,0-9.163,13.738,38.46,38.46,0,0,0-.35,21.888,1.372,1.372,0,0,0,2.643-.728,36.031,36.031,0,0,1-.352-18.067A28.249,28.249,0,0,1,43.1,231.128a31.158,31.158,0,0,1,13.531-7.582,35.1,35.1,0,0,1,14.8-.469c4.97.878,10.155,2.9,12.913,7.382.922,1.5,3.294.125,2.367-1.384h0Z" transform="translate(-10.003 -219.779)" fill="#333"/>
          <path id="パス_90338" data-name="パス 90338" d="M123.44,269.045c1.14-6.159,1.952-12.432.375-18.594-1.288-5.026-4.023-9.786-8.469-12.625-1.491-.952-2.867,1.419-1.384,2.367,3.92,2.5,6.188,6.827,7.273,11.24,1.374,5.588.594,11.309-.438,16.883-.319,1.724,2.322,2.464,2.643.728h0Z" transform="translate(-35.666 -225.39)" fill="#333"/>
          <path id="パス_90339" data-name="パス 90339" d="M82.319,254.566a23.355,23.355,0,0,1-9,2.917,85.51,85.51,0,0,1-10.424.743,53.461,53.461,0,0,1-5.516-.121c-1.682-.134-3.545-.777-5.212-.375-1.691.408-2.7,1.87-3.7,3.174a30.449,30.449,0,0,0-2.7,4.162,28.068,28.068,0,0,0-3.195,10.482,1.38,1.38,0,0,0,1.371,1.371,1.4,1.4,0,0,0,1.371-1.371,24.38,24.38,0,0,1,2.556-8.591,29.631,29.631,0,0,1,2.515-4.076c.712-.972,1.611-2.61,3-2.548.792.036,1.606.252,2.4.35.907.112,1.819.188,2.731.236,1.787.094,3.577.08,5.364.018a92.641,92.641,0,0,0,10.03-.791,25.329,25.329,0,0,0,9.8-3.215c1.5-.927.122-3.3-1.384-2.367h0Z" transform="translate(-13.397 -230.66)" fill="#333"/>
          <path id="パス_90340" data-name="パス 90340" d="M105.283,262.323a16.121,16.121,0,0,1,5.111,7.153,21.548,21.548,0,0,1,1.643,8.554,1.371,1.371,0,0,0,2.741,0,24.279,24.279,0,0,0-1.991-9.88,18.66,18.66,0,0,0-6.12-8.194c-1.443-1.021-2.814,1.355-1.384,2.367h0Z" transform="translate(-32.945 -232.345)" fill="#333"/>
          <path id="パス_90341" data-name="パス 90341" d="M73.6,315.663a10.666,10.666,0,0,0,5.136,1.19,8.369,8.369,0,0,0,5.192-1.534,1.373,1.373,0,0,0,0-1.938,1.413,1.413,0,0,0-1.938,0c.418-.326.1-.083,0-.014s-.208.127-.317.183c-.056.029-.113.056-.169.084-.182.093-.064-.05.063-.021-.086-.019-.347.13-.437.158a7.76,7.76,0,0,1-1.221.279c.206-.031-.014,0-.1.009-.12.012-.24.022-.36.029q-.434.028-.868.024c-.259,0-.518-.01-.777-.028q-.178-.012-.356-.029c-.023,0-.452-.069-.161-.017a10.113,10.113,0,0,1-1.14-.253c-.16-.048-.315-.1-.474-.159-.347-.119.212.108-.1-.039q-.293-.139-.58-.289a1.371,1.371,0,1,0-1.383,2.367h0Z" transform="translate(-22.955 -249.117)" fill="#333"/>
          <path id="パス_90342" data-name="パス 90342" d="M79.948,298.467a23.962,23.962,0,0,1,.565,2.585l-.049-.365a1.556,1.556,0,0,1,.01.357l.049-.365a.857.857,0,0,1-.039.16l.138-.328a.61.61,0,0,1-.057.1l.215-.278a.568.568,0,0,1-.084.083l.278-.214a1.624,1.624,0,0,1-.2.108l.328-.138a1.471,1.471,0,0,1-.345.1l.365-.049a1.384,1.384,0,0,1-.324,0l.365.049c-.122-.017-.242-.047-.364-.063a1.045,1.045,0,0,0-.547-.025,1.023,1.023,0,0,0-.51.162,1.37,1.37,0,0,0-.491,1.875,1.311,1.311,0,0,0,.819.63c.282.038.556.11.842.122a2.7,2.7,0,0,0,1.247-.3,1.807,1.807,0,0,0,1-1.192,2.967,2.967,0,0,0-.012-1.278c-.14-.833-.333-1.658-.548-2.475a1.371,1.371,0,0,0-2.643.728h0Z" transform="translate(-24.882 -243.996)" fill="#333"/>
          <path id="パス_90343" data-name="パス 90343" d="M60.322,287.6c-.432,1.4-.15,4.629,2.507,4.9,3.512-.021,3.7-3.922,2.516-5.756-.968-1.5-3.814-2.126-5.024.852Z" transform="translate(-18.933 -240.461)" fill="#333"/>
          <path id="パス_90344" data-name="パス 90344" d="M98.989,287.6c.432,1.4.151,4.629-2.507,4.9-3.512-.021-3.7-3.922-2.517-5.756C94.933,285.247,97.78,284.622,98.989,287.6Z" transform="translate(-29.367 -240.461)" fill="#333"/>
          <path id="パス_90345" data-name="パス 90345" d="M39.97,282.62a5.8,5.8,0,0,0-6.276-.947,5.511,5.511,0,0,0-2.908,3.739,14.513,14.513,0,0,0,2.126,11.458c1.451,2.16,3.719,4.09,6.494,3.73a1.415,1.415,0,0,0,1.371-1.37,1.378,1.378,0,0,0-1.371-1.371c-3.805.494-5.955-5.027-6.217-8.086-.137-1.6-.141-3.616.843-4.981-.134.186.137-.153.145-.16.064-.062.167-.172.227-.219a2.529,2.529,0,0,1,.982-.445,2.924,2.924,0,0,1,2.648.589c1.312,1.171,3.258-.761,1.938-1.938h0Z" transform="translate(-9.559 -239.093)" fill="#333"/>
          <path id="パス_90346" data-name="パス 90346" d="M119.187,284.554a2.9,2.9,0,0,1,2.529-.614,2.588,2.588,0,0,1,1.1.47c.081.064.45.487.371.379.984,1.365.98,3.381.843,4.981-.262,3.059-2.411,8.579-6.217,8.086a1.378,1.378,0,0,0-1.371,1.371,1.406,1.406,0,0,0,1.371,1.371c4.563.592,7.326-4.387,8.463-8.066,1-3.25,1.046-8.436-2.152-10.538a5.77,5.77,0,0,0-6.875.624c-1.319,1.177.625,3.11,1.938,1.938h0Z" transform="translate(-36.648 -239.089)" fill="#333"/>
          <path id="パス_90347" data-name="パス 90347" d="M109.161,303.676a30.212,30.212,0,0,1-1.773,5.379c.145-.351-.118.254-.18.382-.121.252-.247.5-.376.748-.319.608-.662,1.2-1.019,1.791a32.483,32.483,0,0,1-6.994,8.327,12.942,12.942,0,0,1-5.2,2.7c-1.717.4-.99,3.044.728,2.643,3.975-.926,7.278-3.819,9.873-6.841a35.475,35.475,0,0,0,5.492-8.293c.073-.16.141-.322.21-.484.018-.042.2-.48.142-.344-.074.173.034-.07.041-.085q.106-.244.208-.489c.107-.256.21-.513.308-.773a26.2,26.2,0,0,0,1.179-3.936c.357-1.721-2.285-2.457-2.643-.728h0Z" transform="translate(-29.157 -245.874)" fill="#333"/>
          <path id="パス_90348" data-name="パス 90348" d="M41.264,304.271a32.79,32.79,0,0,0,7.13,14.147c3.371,3.9,7.7,6.991,12.888,7.766a1.415,1.415,0,0,0,1.686-.957,1.381,1.381,0,0,0-.957-1.686c-4.783-.713-8.573-3.464-11.678-7.061a29.91,29.91,0,0,1-6.426-12.937c-.391-1.719-3.034-.992-2.643.728h0Z" transform="translate(-12.974 -245.833)" fill="#333"/>
          <path id="パス_90349" data-name="パス 90349" d="M2.69,373.034C5.7,361.1,16.114,352.157,27.277,347.876a45,45,0,0,1,9.938-2.58,1.379,1.379,0,0,0,.957-1.686,1.407,1.407,0,0,0-1.686-.957c-12.622,1.746-25.089,9.059-32.1,19.8a32.749,32.749,0,0,0-4.343,9.849,1.372,1.372,0,0,0,2.643.728h0Z" transform="translate(0 -258.444)" fill="#333"/>
          <path id="パス_90350" data-name="パス 90350" d="M144.4,372.3c-3.225-12.794-14.246-22.265-26.159-26.939a45.123,45.123,0,0,0-10.28-2.713,1.417,1.417,0,0,0-1.686.957,1.38,1.38,0,0,0,.957,1.686c11.878,1.643,23.738,8.318,30.392,18.442a30.455,30.455,0,0,1,4.133,9.3,1.372,1.372,0,0,0,2.643-.728h0Z" transform="translate(-33.433 -258.444)" fill="#333"/>
          <path id="パス_90351" data-name="パス 90351" d="M70.473,359.457a14.242,14.242,0,0,0,6.9,1.378,14.564,14.564,0,0,0,6.962-1.515c1.55-.844.168-3.211-1.384-2.367a11.644,11.644,0,0,1-5.579,1.141,11.4,11.4,0,0,1-5.516-1c-1.558-.825-2.945,1.54-1.384,2.367h0Z" transform="translate(-21.964 -262.895)" fill="#333"/>
          <path id="パス_90353" data-name="パス 90353" d="M67.56,346.148q-2.931,3-5.866,5.989l1.661-.215a19.282,19.282,0,0,1-3.99-4.075c-1.242-1.557-2.383-3.2-3.472-4.865-.382-.585-.759-1.175-1.119-1.775-.349-.582-.428-.613-.314-1.279.2-1.183,1.205-2.061,1.926-2.954.92-1.14,1.826-2.294,2.8-3.39H57.248c3.831,3.1,7.734,6.121,11.63,9.139a3.521,3.521,0,0,0,2.356,1.123,7.592,7.592,0,0,0,1.9-.049A2.7,2.7,0,0,0,74,343.25c2.155-1.654,4.284-3.339,6.42-5.017,1.967-1.547,3.942-3.084,5.9-4.647H84.378c.969,1.1,1.873,2.25,2.792,3.39.718.891,1.727,1.774,1.929,2.954.116.676.029.7-.317,1.279-.36.6-.737,1.19-1.119,1.775-1.089,1.667-2.23,3.307-3.472,4.865a19.284,19.284,0,0,1-3.99,4.075l1.661.214L76,346.148c-1.236-1.262-3.174.676-1.938,1.938l5.866,5.989a1.389,1.389,0,0,0,1.661.214c2.975-1.955,5.179-5.17,7.18-8.046.82-1.178,1.616-2.376,2.356-3.605a4.753,4.753,0,0,0,.167-4.711,16.117,16.117,0,0,0-2.268-3c-.888-1.1-1.765-2.218-2.7-3.28a1.4,1.4,0,0,0-1.938,0c-2.024,1.62-4.071,3.213-6.109,4.815q-2.068,1.626-4.141,3.247-.731.571-1.464,1.139c.295-.228-.209.16-.3.233s-.188.143-.284.212l.691-.187H70.793l.691.187c-.1-.069-.189-.141-.284-.212l-.227-.173-.077-.06q-.733-.568-1.464-1.139-2.073-1.619-4.14-3.247c-2.037-1.6-4.091-3.185-6.106-4.815a1.4,1.4,0,0,0-1.938,0c-.785.884-1.525,1.806-2.265,2.727-.757.942-1.607,1.845-2.3,2.835a4.833,4.833,0,0,0-.422,5.137,61.42,61.42,0,0,0,5.574,7.945,19.221,19.221,0,0,0,4.137,4,1.385,1.385,0,0,0,1.661-.215q2.936-2.992,5.866-5.989c1.234-1.262-.7-3.2-1.938-1.938h0Z" transform="translate(-16.273 -254.863)" fill="#333"/>
        </g>
      </g>
      <g id="楕円形_134" data-name="楕円形 134" transform="translate(0 0)" fill="none" stroke="#333" stroke-width="3">
        <circle cx="58.245" cy="58.245" r="58.245" stroke="none"/>
        <circle cx="58.245" cy="58.245" r="56.745" fill="none"/>
      </g>
    </g>
  </g>
</svg>
