<svg xmlns="http://www.w3.org/2000/svg" xmlns:xlink="http://www.w3.org/1999/xlink" width="120" height="120.001" viewBox="0 0 120 120.001">
  <defs>
    <clipPath id="clip-path">
      <circle id="楕円形_103" data-name="楕円形 103" cx="60" cy="60" r="60" transform="translate(90 2535)" fill="#fff" stroke="#333" stroke-width="3"/>
    </clipPath>
  </defs>
  <g id="グループ_9917" data-name="グループ 9917" transform="translate(-988 -8623.845)">
    <circle id="楕円形_104" data-name="楕円形 104" cx="60" cy="60" r="60" transform="translate(988 8623.845)" fill="#fce5db"/>
    <g id="マスクグループ_1" data-name="マスクグループ 1" transform="translate(898 6088.846)" clip-path="url(#clip-path)">
      <g id="グループ_9748" data-name="グループ 9748" transform="translate(0)">
        <g id="グループ_9737" data-name="グループ 9737" transform="translate(107.312 2557.618)">
          <path id="パス_90465" data-name="パス 90465" d="M275.329,261.893a54.336,54.336,0,0,0,8.037-5.782c2.623,6.284,7.1,12.635,11.711,16.367a3.52,3.52,0,0,1,1.872-.449,3.182,3.182,0,0,1,2.851,1.6c.964,1.688.911,4.79.252,6.707a10.358,10.358,0,0,1-3.06,4.919,3.778,3.778,0,0,1-2.917.83l-.279-.049a22.238,22.238,0,0,1-1.013,2.717c-.737,1.977-4.745,8.831-9.825,11.645.018,1.059-.014,1.443.083,2.776a6.488,6.488,0,0,0,.312,1.831,4.472,4.472,0,0,0,1.343,1.955c.178.144.358.278.539.4q-.506,2.22-1.058,4.456A29.7,29.7,0,0,1,273.1,313.6a30.089,30.089,0,0,1-8.586-.991q-1.263-.338-2.488-.792-.605-2.448-1.158-4.882a4.493,4.493,0,0,0,1.311-1.929,6.486,6.486,0,0,0,.312-1.832c.09-1.237.069-1.657.079-2.555a19.73,19.73,0,0,1-6.524-5.4,26.075,26.075,0,0,1-4.91-9.352,3.707,3.707,0,0,1-3.149-.8,10.356,10.356,0,0,1-3.021-4.942c-.644-1.922-.673-5.026.3-6.706a3.182,3.182,0,0,1,2.864-1.577,3.563,3.563,0,0,1,1.837.442c4.76-1.483,10.85-3.167,16.389-5.8,3.943-1.872,6.7-3.269,8.965-4.59Z" transform="translate(-229.902 -236.004)" fill="#fff"/>
          <path id="パス_90466" data-name="パス 90466" d="M221.529,366.952c3.212-12.793,17.158-21.976,29.868-23.459,1.781,7.827,4,15.839,6.46,23.459H221.528Z" transform="translate(-220.36 -272.288)" fill="#fff"/>
          <path id="パス_90467" data-name="パス 90467" d="M303.167,367.046c2.447-7.577,4.654-15.543,6.432-23.326,12.43,1.832,25.738,10.867,28.866,23.326Z" transform="translate(-254.258 -272.382)" fill="#fff"/>
          <path id="パス_90478" data-name="パス 90478" d="M300.574,279.883a72.172,72.172,0,0,1-2.765-19.708c.127-3.875-.143-8.47-.281-10.393-.478-6.668-3.48-14.115-7.8-18.254-1.72-1.648-2.316-2.486-3.988-3.465l-1.936-1.133-1.922-.78a31.466,31.466,0,0,0-12.581-2.41,30.826,30.826,0,0,0-19.805,7.742c-5.679,5.437-9.282,15.368-8.827,29.062,0,9.282-.761,15.975-1.826,19.781a44.966,44.966,0,0,0-1.37,9.586c-.025,3.09,2.745,7.143,7.327,8.033a38.495,38.495,0,0,1,13.216-4.178c-.021-.091-.044-.184-.065-.275a4.493,4.493,0,0,0,1.311-1.929,6.488,6.488,0,0,0,.312-1.832c.09-1.237.069-1.657.079-2.555a19.73,19.73,0,0,1-6.524-5.4,26.074,26.074,0,0,1-4.91-9.352,3.706,3.706,0,0,1-3.149-.8,10.355,10.355,0,0,1-3.021-4.942c-.644-1.922-.673-5.025.3-6.706a3.181,3.181,0,0,1,2.864-1.577,3.56,3.56,0,0,1,1.837.442c4.76-1.483,10.85-3.167,16.39-5.8,3.943-1.872,6.7-3.269,8.965-4.59a54.331,54.331,0,0,0,8.037-5.782c2.623,6.284,7.1,12.635,11.711,16.367a3.52,3.52,0,0,1,1.872-.449,3.182,3.182,0,0,1,2.851,1.6c.964,1.688.911,4.79.252,6.707a10.356,10.356,0,0,1-3.06,4.919,3.778,3.778,0,0,1-2.917.83l-.279-.049a22.229,22.229,0,0,1-1.013,2.717c-.737,1.977-4.745,8.831-9.825,11.645.018,1.059-.014,1.443.083,2.776a6.491,6.491,0,0,0,.312,1.832,4.471,4.471,0,0,0,1.343,1.955c.178.144.358.278.539.4l.008-.022a38.965,38.965,0,0,1,12.653,4.275,9.124,9.124,0,0,0,7-6.023c1.2-3.714-.291-8.528-1.4-12.269Z" transform="translate(-226.981 -222.564)" fill="#ff7c64"/>
          <path id="パス_90479" data-name="パス 90479" d="M279.839,370.222c-1.979-6.131-3.8-12.516-5.371-18.853a35.284,35.284,0,0,0,22.152,0c-1.567,6.336-3.39,12.721-5.37,18.853Z" transform="translate(-242.342 -275.558)" fill="#ff7c64"/>
          <path id="パス_90483" data-name="パス 90483" d="M243.773,322.058c.276,0-.159-.073-.224-.091-.173-.049-.343-.1-.512-.159a6.863,6.863,0,0,1-.782-.324,8.162,8.162,0,0,1-3.792-3.733c-1.043-2.079-.579-4.563-.278-6.782.321-2.355.963-4.607,1.44-6.925a62.186,62.186,0,0,0,.971-7.069c.325-3.69.432-7.4.435-11.1a1.17,1.17,0,0,0-2.339,0c-.005,5.927-.134,12.019-1.384,17.838-.226,1.051-.537,2.08-.765,3.131-.331,1.522-.569,3.064-.76,4.609-.324,2.625-.549,5.134.7,7.56a10.309,10.309,0,0,0,2.854,3.39,10.094,10.094,0,0,0,2.017,1.236,6.519,6.519,0,0,0,2.419.76,1.17,1.17,0,0,0,0-2.339h0Z" transform="translate(-226.173 -247.893)" fill="#333"/>
          <path id="パス_90484" data-name="パス 90484" d="M337.086,285.242a77.175,77.175,0,0,0,2.078,17.324c.64,2.592,1.532,5.116,2.083,7.731.485,2.3.792,4.893-.142,7.131a8.055,8.055,0,0,1-5.389,4.55,1.17,1.17,0,0,0,.622,2.255,10.641,10.641,0,0,0,5.893-4.066,10.883,10.883,0,0,0,1.745-7.355,40.572,40.572,0,0,0-1.8-8.066,65.089,65.089,0,0,1-1.98-9.043,80.869,80.869,0,0,1-.777-10.461,1.17,1.17,0,0,0-2.339,0h0Z" transform="translate(-267.43 -247.631)" fill="#333"/>
          <path id="パス_90485" data-name="パス 90485" d="M317.667,303.4a25.533,25.533,0,0,1-1.5,4.489c.007-.018.07-.144-.029.061-.041.085-.079.173-.121.258-.1.214-.211.426-.322.636-.274.519-.569,1.027-.876,1.528a27.469,27.469,0,0,1-5.828,6.91,10.961,10.961,0,0,1-4.454,2.316c-1.467.336-.846,2.592.622,2.255,3.345-.767,6.133-3.188,8.326-5.719a29.837,29.837,0,0,0,4.672-7c.332-.73.436-.961.757-1.8a22,22,0,0,0,1-3.307c.311-1.468-1.944-2.1-2.255-.622h0Z" transform="translate(-254.481 -255.291)" fill="#333"/>
          <path id="パス_90486" data-name="パス 90486" d="M253.162,303.6a27.6,27.6,0,0,0,5.964,11.937c2.824,3.295,6.455,5.9,10.82,6.571a1.207,1.207,0,0,0,1.439-.817,1.178,1.178,0,0,0-.817-1.439c-4.016-.616-7.19-2.938-9.788-5.969a25.142,25.142,0,0,1-5.362-10.9c-.328-1.468-2.584-.847-2.255.622h0Z" transform="translate(-233.481 -255.117)" fill="#333"/>
          <path id="パス_90487" data-name="パス 90487" d="M250.594,282.266a4.894,4.894,0,0,0-5.3-.815,4.657,4.657,0,0,0-2.464,3.148,12.227,12.227,0,0,0,1.756,9.659c1.217,1.827,3.127,3.458,5.468,3.164a1.207,1.207,0,0,0,1.17-1.169,1.176,1.176,0,0,0-1.17-1.17c-3.193.4-4.974-4.247-5.183-6.81a6.409,6.409,0,0,1,.726-4.179c-.119.164.113-.123.12-.13.044-.042.157-.156.189-.18a2.109,2.109,0,0,1,.824-.368,2.443,2.443,0,0,1,2.208.5c1.116,1,2.776-.645,1.654-1.654h0Z" transform="translate(-229.058 -246.345)" fill="#333"/>
          <path id="パス_90488" data-name="パス 90488" d="M318.605,231.3a11.851,11.851,0,0,1,2.3,1.845c.82.817,1.677,1.606,2.445,2.473a23.743,23.743,0,0,1,3.591,5.625,33.928,33.928,0,0,1,3,12.849c.151,2.766.235,5.54.15,8.31-.046,1.506,2.293,1.5,2.339,0,.079-2.6.009-5.208-.124-7.808a45.669,45.669,0,0,0-.695-6.544,30.823,30.823,0,0,0-6.133-13.525c-.849-1.034-1.832-1.941-2.775-2.886a15.056,15.056,0,0,0-2.921-2.358,1.17,1.17,0,0,0-1.181,2.02h0Z" transform="translate(-260.436 -224.791)" fill="#333"/>
          <path id="パス_90489" data-name="パス 90489" d="M283.607,224.185a33.613,33.613,0,0,0-13.918-2.431,31.883,31.883,0,0,0-14.045,4.079,25.041,25.041,0,0,0-8.159,6.976,31.62,31.62,0,0,0-4.852,10.423,55.526,55.526,0,0,0-1.72,16.475c.047,1.5,2.386,1.508,2.339,0-.26-8.3.753-17.271,5.348-24.406a21.466,21.466,0,0,1,6.83-6.63,30.018,30.018,0,0,1,12.49-4.448,31.387,31.387,0,0,1,15.064,2.216,1.177,1.177,0,0,0,1.439-.817,1.2,1.2,0,0,0-.817-1.439h0Z" transform="translate(-228.394 -221.727)" fill="#333"/>
          <path id="パス_90490" data-name="パス 90490" d="M329.659,284.219a2.425,2.425,0,0,1,2.115-.5,2.166,2.166,0,0,1,.92.4,2.539,2.539,0,0,0,.186.184c.032.03.236.3.118.132a6.442,6.442,0,0,1,.688,4.186c-.23,2.567-2.054,7.187-5.245,6.76a1.175,1.175,0,0,0-1.17,1.17,1.2,1.2,0,0,0,1.17,1.17c3.845.514,6.189-3.679,7.159-6.774.858-2.74.9-7.108-1.789-8.889a4.872,4.872,0,0,0-5.806.51c-1.129,1,.53,2.649,1.654,1.654Z" transform="translate(-264.267 -246.473)" fill="#333"/>
          <path id="パス_90492" data-name="パス 90492" d="M291.225,297.958a20.18,20.18,0,0,1,.475,2.174l-.042-.311a1.318,1.318,0,0,1,.008.3l.042-.311a.756.756,0,0,1-.033.135l.118-.28a.561.561,0,0,1-.047.087l.183-.237a.5.5,0,0,1-.071.07l.237-.183a1.456,1.456,0,0,1-.172.091l.28-.118a1.26,1.26,0,0,1-.29.085l.311-.042a1.178,1.178,0,0,1-.273,0l.311.042c-.1-.014-.2-.039-.306-.053a.892.892,0,0,0-.467-.021.873.873,0,0,0-.435.139,1.169,1.169,0,0,0-.419,1.6,1.119,1.119,0,0,0,.7.537c.239.032.47.093.713.1a2.285,2.285,0,0,0,1.057-.253,1.536,1.536,0,0,0,.849-1.012,2.512,2.512,0,0,0-.011-1.084c-.118-.7-.28-1.395-.46-2.082a1.17,1.17,0,0,0-1.439-.817,1.192,1.192,0,0,0-.817,1.439h0Z" transform="translate(-248.99 -252.765)" fill="#333"/>
          <path id="パス_90493" data-name="パス 90493" d="M272.086,287.2c-.363,1.18-.126,3.895,2.109,4.126,2.955-.018,3.112-3.3,2.117-4.843-.815-1.263-3.209-1.789-4.226.717Z" transform="translate(-241.295 -248.176)" fill="#333"/>
          <path id="パス_90494" data-name="パス 90494" d="M309.253,287.2c.363,1.18.126,3.895-2.109,4.126-2.955-.018-3.112-3.3-2.117-4.842.814-1.263,3.209-1.789,4.226.717Z" transform="translate(-254.802 -248.176)" fill="#333"/>
          <path id="パス_90495" data-name="パス 90495" d="M286.635,254.486a57.55,57.55,0,0,1-8.594,6.054,92.658,92.658,0,0,1-14.167,6.585c-2.864,1.023-5.775,1.9-8.682,2.79-1.436.439-.823,2.7.622,2.255a114.47,114.47,0,0,0,16.133-5.9,80.119,80.119,0,0,0,11.352-6.252c1.729-1.2,3.373-2.527,4.991-3.876,1.157-.965-.5-2.612-1.654-1.654h0Z" transform="translate(-233.998 -235.209)" fill="#333"/>
          <path id="パス_90496" data-name="パス 90496" d="M320.168,268.545a44.111,44.111,0,0,1-8.929-13.581,1.209,1.209,0,0,0-1.439-.817,1.176,1.176,0,0,0-.817,1.439,47.123,47.123,0,0,0,9.531,14.613c1.052,1.08,2.706-.575,1.654-1.654h0Z" transform="translate(-256.647 -235.171)" fill="#333"/>
          <path id="パス_90546" data-name="パス 90546" d="M272.433,338.824a5.585,5.585,0,0,0,1.867-3.381,23.974,23.974,0,0,0,.208-3.414,1.17,1.17,0,1,0-2.339,0c-.005.969-.05,1.931-.139,2.9.011-.113.019-.116,0,0-.012.068-.023.137-.037.206a4.03,4.03,0,0,1-.1.4c-.025.081-.059.16-.085.242-.052.162.081-.171.009-.019-.053.112-.1.224-.161.334s-.132.24-.205.356c-.048.075-.239.322-.081.133a4.56,4.56,0,0,1-.587.591,1.173,1.173,0,0,0,0,1.654,1.2,1.2,0,0,0,1.654,0h0Z" transform="translate(-240.668 -267.042)" fill="#333"/>
          <path id="パス_90547" data-name="パス 90547" d="M308.267,332.024a18.513,18.513,0,0,0,.278,3.8,5.669,5.669,0,0,0,.841,1.919,6.654,6.654,0,0,0,1.734,1.667,1.174,1.174,0,0,0,1.6-.42,1.2,1.2,0,0,0-.42-1.6l-.18-.129c-.057-.041-.128-.094-.032-.02a4.089,4.089,0,0,1-.359-.309c-.1-.093-.18-.2-.271-.292-.119-.125.141.214-.026-.037-.036-.054-.074-.108-.109-.164-.071-.111-.136-.226-.2-.343-.031-.059-.061-.118-.089-.178,0,0-.123-.275-.064-.137s-.03-.081-.037-.1c-.025-.07-.047-.139-.068-.21-.047-.16-.079-.322-.111-.485-.018-.1-.023-.14-.006-.017-.009-.072-.017-.146-.025-.219-.015-.143-.026-.287-.037-.431q-.036-.457-.057-.915c-.021-.459-.023-.919-.027-1.378a1.17,1.17,0,0,0-2.339,0h0Z" transform="translate(-256.376 -267.04)" fill="#333"/>
          <path id="パス_90548" data-name="パス 90548" d="M274.111,351.914a32.918,32.918,0,0,0,10.952,1.668,38.475,38.475,0,0,0,5.453-.332q1.4-.2,2.784-.534.655-.159,1.3-.349.324-.095.644-.2c.062-.02.644-.215.462-.215a1.17,1.17,0,0,0,0-2.339,3.77,3.77,0,0,0-1.084.3q-.642.2-1.294.379-1.3.349-2.637.575a30.177,30.177,0,0,1-5.36.38,39.007,39.007,0,0,1-5.239-.274,29.109,29.109,0,0,1-5.362-1.316c-1.426-.494-2.038,1.765-.622,2.255h0Z" transform="translate(-241.86 -274.819)" fill="#333"/>
          <path id="パス_90549" data-name="パス 90549" d="M221.827,366.5c2.509-9.809,11.2-17.058,20.388-20.506a37.593,37.593,0,0,1,8.119-2.068,1.177,1.177,0,0,0,.817-1.439,1.2,1.2,0,0,0-1.439-.817c-10.393,1.419-20.712,7.346-26.543,16.16a26.58,26.58,0,0,0-3.6,8.048,1.17,1.17,0,0,0,2.255.622h0Z" transform="translate(-219.53 -271.523)" fill="#333"/>
          <path id="パス_90550" data-name="パス 90550" d="M343.009,365.876c-2.686-10.5-11.84-18.2-21.63-21.991a37.7,37.7,0,0,0-8.511-2.217,1.21,1.21,0,0,0-1.439.817,1.178,1.178,0,0,0,.817,1.439c9.784,1.336,19.631,6.751,25.145,15.085a24.586,24.586,0,0,1,3.362,7.489,1.17,1.17,0,0,0,2.255-.622h0Z" transform="translate(-257.675 -271.523)" fill="#333"/>
          <path id="パス_90551" data-name="パス 90551" d="M270.585,342.739q2.727,11.938,6.5,23.6c.46,1.427,2.719.817,2.255-.622q-3.757-11.655-6.5-23.6c-.335-1.467-2.591-.846-2.255.622Z" transform="translate(-240.715 -271.369)" fill="#333"/>
          <path id="パス_90552" data-name="パス 90552" d="M303.449,366.343q3.756-11.655,6.5-23.6c.334-1.465-1.92-2.091-2.255-.622q-2.721,11.939-6.5,23.6c-.463,1.436,1.795,2.051,2.255.622Z" transform="translate(-253.413 -271.369)" fill="#333"/>
        </g>
        <path id="パス_90662" data-name="パス 90662" d="M-6270.1-12833.585c1.242-1.242,8.7-1.242,9.942,0s-2.1,3.121-4.587,3.121S-6271.347-12832.343-6270.1-12833.585Z" transform="translate(6415.114 15445)" fill="none" stroke="#333" stroke-width="2"/>
      </g>
    </g>
    <g id="楕円形_101" data-name="楕円形 101" transform="translate(988 8623.845)" fill="none" stroke="#333" stroke-width="3">
      <circle cx="60" cy="60" r="60" stroke="none"/>
      <circle cx="60" cy="60" r="58.5" fill="none"/>
    </g>
  </g>
</svg>
