<svg xmlns="http://www.w3.org/2000/svg" width="459.334" height="374.373" viewBox="0 0 459.334 374.373">
  <g id="グループ_9956" data-name="グループ 9956" transform="translate(-120.001 -4091.999)">
    <g id="_11324" data-name="11324" transform="translate(125.039 4146.949)">
      <path id="パス_89860" data-name="パス 89860" d="M366.983,164.763a34.166,34.166,0,0,1-1.783,6.706,45.4,45.4,0,0,1-10.573,15.94v1.553c-.836.678-10.806,9.169-15.544,13.121l-2.9.184c-5.447-2.9-16.941-9.17-17.9-9.661v-.313a31.554,31.554,0,0,1-9.765-7.062,39.182,39.182,0,0,1-8.652-13.636,5.93,5.93,0,0,1-5-.872,15.654,15.654,0,0,1-5.239-7.16c-1.208-2.843-1.58-7.54-.23-10.19a5,5,0,0,1,4.306-2.7,5.466,5.466,0,0,1,3.961,1.121s-4.963-28.35,27.887-32.8c44.581-6.037,40.62,28.316,40.62,28.316a5.465,5.465,0,0,1,3.781-1.628,5,5,0,0,1,4.62,2.114c1.684,2.452,1.928,7.157,1.1,10.135a15.652,15.652,0,0,1-4.26,7.782,6.043,6.043,0,0,1-4.468,1.567" transform="translate(12.942 5.305)" fill="#fff"/>
      <path id="パス_89861" data-name="パス 89861" d="M2.077,199.121a51.44,51.44,0,0,1,.912-6.289c1.117-5.21,3.4-11.009,5.594-12.831,3.761-3.489,7.394-2.132,11.986-.82,1.3.37,6.625,2.446,7.042,4.788a3.881,3.881,0,0,1,3.044-2.952,4.475,4.475,0,0,1,5.184,2.024c1.74,3.062,1.832,11.061.136,13.959a2.989,2.989,0,0,1-.878.962c.049,1.123.084,1.893.084,1.893.1,2.491.869,6.908-.249,9.517-1.708,3.99-4.226,6.408-7.385,7.508-.042.672-.072,1.179-.072,1.179-.05.81-.071,2.1-.086,3.486-6.165.731-12.373,1.694-18.566,2.821-.6-2.025-1.507-6.092-1.294-8.422.194-2.136-1.366-4.015-2.5-5.838a17.919,17.919,0,0,1-3.023-8.127A21.474,21.474,0,0,1,2.077,199.121Z" transform="translate(0.089 7.974)" fill="#fff"/>
      <path id="パス_89862" data-name="パス 89862" d="M304,308.992c-2.423-13.045-5.384-28.937-8.15-42.671-9.488,6.933-16.044,12.256-25.889,20.32l-2.9,2.677c-.157-3.7-.286-7.154-.35-9.926-.323-13.088-1.416-28.913-1.826-42.341l1.054-1.159c4.623-4.806,14.424-19.4,20.645-24.2,7.6-5.851,18.478-11.005,28.054-14.674,1.672-2.41,3.657-5.91,4.7-7.45.96.491,12.455,6.761,17.9,9.661l2.9-.184c4.738-3.953,14.705-12.443,15.544-13.121,1.334,1.285,3.97,4.273,6.087,6.294,9.594,3.917,26.106,10.449,31.142,12.12L432.971,235.9c.592.029,1.125.056,1.943.068a2.105,2.105,0,0,1,1.9,1.235,37.346,37.346,0,0,1,2.351,7.41,64.977,64.977,0,0,1,1.01,16.982c-.585,7.588-1.254,13.856-5.824,19.871-4.437,5.828-11.493,9.375-18.114,5.77a20.536,20.536,0,0,1-6.715-5.376q-6.987-8.9-13.21-18.367c2.8,13.527,6.462,29.995,9.918,45.505Z" transform="translate(11.881 8.339)" fill="#fff"/>
      <path id="パス_89863" data-name="パス 89863" d="M255.751,140.176a5.465,5.465,0,0,1,3.892-1.344,5,5,0,0,1,4.452,2.451c1.5,2.569,1.393,7.281.347,10.186a15.653,15.653,0,0,1-4.824,7.447,6.042,6.042,0,0,1-4.571,1.237l-.437-.075A33.316,33.316,0,0,1,253,164.2c-1.068,2.739-6.444,11.646-13.448,16.39v2.782c-.906.587-11.693,8.008-16.813,11.452l-2.9-.116c-5.12-3.448-15.908-10.866-16.813-11.452v-2.708a33.566,33.566,0,0,1-7.571-6.812,39.194,39.194,0,0,1-7.62-14.238,5.931,5.931,0,0,1-4.924-1.24,15.647,15.647,0,0,1-4.695-7.528c-.995-2.926-1.019-7.636.522-10.18a5,5,0,0,1,4.493-2.372,5.468,5.468,0,0,1,3.866,1.412s-4.473-28.211,33.315-28.211C260.469,111.368,255.751,140.176,255.751,140.176Z" transform="translate(7.962 4.995)" fill="#fff"/>
      <path id="パス_89864" data-name="パス 89864" d="M220.556,191.678l-1.543-.062c-5.12-3.448-15.908-10.866-16.813-11.452-1.375,1.628-4.231,5.679-6.234,7.816,3.553,15.036,9.479,31.11,14.21,45.655,3.844,11.807,4.97,15.39,10.3,28.442,4.725-12.156,6.776-16.822,10.623-28.591,4.7-14.367,10.563-30.232,14.134-45.105-2.008-2.042-5.068-6.4-6.505-8.1-.906.587-11.693,8.008-16.813,11.452Z" transform="translate(8.79 8.081)" fill="#fff"/>
      <path id="パス_89865" data-name="パス 89865" d="M170.112,308.995c.376-8.954,1.055-21.9,1.233-29.6.352-14.25,1.5-28.943,1.784-42.854-4.484-4.467-6.8-7.9-10.933-12.651-3.482-4.006-6.985-8.5-10.793-11.62a54.445,54.445,0,0,0-5.78-4.111l8.389-5.282c8.01-5.573,25.777-11.522,34.543-12.775l4.849-.766a36.564,36.564,0,0,1,4.4-3.395c3.5,15.55,9.71,32.32,14.628,47.436,3.844,11.807,4.97,15.39,10.3,28.442,4.725-12.156,6.776-16.822,10.623-28.591,4.934-15.094,11.16-31.841,14.66-47.358a33.389,33.389,0,0,1,4.35,3.209c2.821.4,4.6.654,4.6.654a108.634,108.634,0,0,1,33.926,11.224s4.793,2.488,9.737,5.052a75.442,75.442,0,0,0-8.692,5.688c-6.221,4.793-16.022,19.388-20.645,24.2,0,0-.441.533-1.054,1.267.418,13.407,1.5,29.181,1.826,42.232.178,7.7.857,20.646,1.233,29.6Z" transform="translate(6.532 8.337)" fill="#fff"/>
      <path id="パス_89866" data-name="パス 89866" d="M112.154,128.434c-.692,3.769-3.553,11.652-1.036,11.063,10.716-2.385,19.574-8.184,26.788-16.727,1.672,10.227,8.762,25.36,13.047,27.755a5.352,5.352,0,0,1,3.889-1.075,4.9,4.9,0,0,1,4.2,2.671c1.3,2.607.911,7.209-.29,9.986a15.345,15.345,0,0,1-5.179,6.984,5.917,5.917,0,0,1-4.547.927l-.418-.1a32.36,32.36,0,0,1-1.825,3.928c-1.438,3.1-9.323,14.282-18.239,17.039a42.8,42.8,0,0,0-.209,8.038,9.317,9.317,0,0,0,.428,2.466,9.194,9.194,0,0,0,3.013,3.042l4.9,3.106s-3.05,3.521-4.963,4.614c-2.438,1.394-6.269,2.988-6.269,2.988a38.806,38.806,0,0,1-18.285,1.254,49.58,49.58,0,0,1-15.58-5.907,30.268,30.268,0,0,1-5.1-4.949,30.311,30.311,0,0,1-3.061-6.792l5.572-1.626c1.034-.261,7.386-1.864,8.212-2.533a7.275,7.275,0,0,0,1.421-1.724c.658-.993,1.484-2.32,2.32-3.741-4.2-1.9-7.766-5.1-11.04-9.508a38.4,38.4,0,0,1-6.573-14.4,5.815,5.815,0,0,1-4.739-1.518,15.333,15.333,0,0,1-4.125-7.654c-.793-2.926-.522-7.53,1.141-9.926a4.9,4.9,0,0,1,4.542-2.042,5.314,5.314,0,0,1,3.824,1.764c9.344-5.692,18.169-11.65,27.855-17.88" transform="translate(3.321 5.506)" fill="#fff"/>
      <path id="パス_89867" data-name="パス 89867" d="M156.559,211.016A82.2,82.2,0,0,0,140.4,201.83a33.485,33.485,0,0,0-4.618-4.473c-4.956,12.983-11.7,26.355-17.907,38.8-4.664,9.36-6.677,12.884-11.94,22.066-2.563-9.851-3.848-14.219-5.851-24.3-2.717-13.637-6.4-28.858-7.774-42.687a35.753,35.753,0,0,0-6.73,3.853,77.87,77.87,0,0,1-13.5,2.992,34.868,34.868,0,0,0-14.363,8.11L44.169,219.676l-7.078.3A290.941,290.941,0,0,0,5.17,224.439a3.628,3.628,0,0,0-2.939,3.433C1.686,243.578,5.2,265.827,10.577,274.7c2.612,4.306,6.709,8.192,10.949,8.035,6.327-.233,9.773-2.74,14.878-6.484,5.36-3.932,11.18-9.7,17.91-16.834l.821-.87c-1.428,6.027-2.675,10.824-3.52,13.341-2.451,7.291-12.827,21.837-20.6,32.237h0a2.862,2.862,0,0,0,2.243,4.638H137.4c2.478-15.182,6.06-36.215,9.157-52.984,10.06,6.757,19.852,14.76,29.721,22.487l1.5,1.036v-.141c.352-14.25,1.5-28.942,1.786-42.853-4.487-4.468-6.806-7.9-10.935-12.652-3.482-4.006-6.985-8.5-10.793-11.62Q157.206,211.511,156.559,211.016Z" transform="translate(0.097 8.578)" fill="#fff"/>
      <path id="パス_89868" data-name="パス 89868" d="M16.177,174.255c-.921-13.923-3.052-45.774-3.19-60.344a2.638,2.638,0,0,1,2.41-2.627,71.839,71.839,0,0,1,18.912.5,85.9,85.9,0,0,1,18.9,4.825,2.73,2.73,0,0,1,1.567,3.46c-4.5,12.368-16.525,42.378-21.591,56.658Z" transform="translate(0.582 4.973)" fill="#fff"/>
      <path id="パス_89869" data-name="パス 89869" d="M425.039,206.569a10,10,0,0,0-1.933-2.031c-3.97-2.442-7.413-4.586-11.221-6.444a27.786,27.786,0,0,0-2.793-1.119,6.331,6.331,0,0,0-4.752.26c-1.249.594-2.9,2.837-2.448,4.388l-3.383.426c-.964-.154-1.835-.673-2.789-.884a5.969,5.969,0,0,0-5.491,2.076,14.92,14.92,0,0,0-2.8,5.425,8.407,8.407,0,0,0-.076,4.766,3.147,3.147,0,0,0,2.058,2.134,5.076,5.076,0,0,0,4.241-.446l-.265,2.4a6.7,6.7,0,0,0-1.213,1.729,4.673,4.673,0,0,0,.921,4.932,60.013,60.013,0,0,0,4.461,4.149l1.8-1.948c1.727,1.428,3.1,3.229,3.273,5.038,1.149,9.914,3.588,13.962,7.5,15.046a22.216,22.216,0,0,0,9.485.394c.851-.209,4.7-1.314,5.262-1.985,1.1-1.326,2.323-2.3,2.763-4.064a10.72,10.72,0,0,0-.012-4.454c-.313-1.767-.85-6.261-1.063-9.252a57.975,57.975,0,0,1,.347-11.911,10.981,10.981,0,0,0-.959-7.243A10.5,10.5,0,0,0,425.039,206.569Z" transform="translate(17.361 8.819)" fill="#fff"/>
      <path id="パス_89870" data-name="パス 89870" d="M78.192,145.4A6.441,6.441,0,0,1,80,145.224a5.314,5.314,0,0,1,3.824,1.764c9.344-5.692,18.169-11.65,27.855-17.88l.324.472c-.692,3.769-3.553,11.652-1.036,11.063,10.716-2.385,19.574-8.184,26.788-16.727,1.672,10.227,8.762,25.36,13.047,27.754a5.352,5.352,0,0,1,3.889-1.075,6.491,6.491,0,0,1,1.662.392l-.009-.608a39.6,39.6,0,0,0,2.344-12.176c.368-13.006-4.759-22.249-10.771-28.408l-5.108-4.434a40.54,40.54,0,0,0-21.923-7.989,40.277,40.277,0,0,0-24.462,5.685,38.82,38.82,0,0,0-18.793,29.317,41.5,41.5,0,0,0,.6,12.386Z" transform="translate(3.472 4.36)" fill="#333"/>
      <path id="パス_89871" data-name="パス 89871" d="M88.857,193.094l5.586.848a12.552,12.552,0,0,0,2.8-1.059,7.275,7.275,0,0,0,1.421-1.724c.658-.993,1.484-2.32,2.32-3.741-4.2-1.9-7.766-5.1-11.04-9.508a38.4,38.4,0,0,1-6.573-14.4,5.815,5.815,0,0,1-4.739-1.518,11.392,11.392,0,0,1-1.24-1.364v.005c-1.327,5.036-4.232,9.895-4.159,15.161a16.04,16.04,0,0,0,2.216,6.614c4.075,5.433,6.966,6.5,10.565,7.082Z" transform="translate(3.285 7.205)" fill="#333"/>
      <path id="パス_89872" data-name="パス 89872" d="M154.448,166.315l-.033-2.29a12.241,12.241,0,0,1-3.166,3.214,5.917,5.917,0,0,1-4.547.927l-.418-.1a32.363,32.363,0,0,1-1.825,3.928c-1.438,3.1-9.323,14.282-18.239,17.039a42.8,42.8,0,0,0-.209,8.038,11.585,11.585,0,0,0,.264,1.912l3.989.606,3.135-5.2a36.435,36.435,0,0,0,7.477.28c6.194-.222,11.064-3.437,12.9-8.319C156.065,180.244,153.44,172.765,154.448,166.315Z" transform="translate(5.648 7.357)" fill="#333"/>
      <path id="パス_89873" data-name="パス 89873" d="M98.8,245.351c.9,3.622,1.869,7.2,3.164,12.18,5.264-9.18,7.276-12.7,11.941-22.064,3.932-7.891,8.084-16.153,11.859-24.45l-1.061.363a38.806,38.806,0,0,1-18.285,1.254,49.562,49.562,0,0,1-15.718-6c1.651,9,3.719,18.109,5.409,26.6C97.1,238.22,97.918,241.81,98.8,245.351Z" transform="translate(4.068 9.268)" fill="#333"/>
      <path id="パス_89874" data-name="パス 89874" d="M304.928,106.248q-.28.223-.555.449a39.614,39.614,0,0,0-14.907,32.255A42.675,42.675,0,0,0,292,151.976a6.739,6.739,0,0,1,1.653-.366,5.466,5.466,0,0,1,3.961,1.121l1.463,1.2c1.267-5.619,5.747-17.031,11.437-20.033,4.4-2.194,12.026-.423,17.129-.386,8.45.062,23.577-4.33,27.626-.872,3.072,1.748,8.973,19.487,10.848,15.61a5.465,5.465,0,0,1,3.781-1.628,6.792,6.792,0,0,1,1.535.116,41.252,41.252,0,0,0,.776-13.2c-1.661-15.2-9.991-24.335-18.015-29.443a43.381,43.381,0,0,0-49.273,2.153Z" transform="translate(12.983 4.37)" fill="#333"/>
      <path id="パス_89875" data-name="パス 89875" d="M335.293,276.517c-2.051-2.508-3.97-4.994-5.511-7.228a1.023,1.023,0,0,1-.178-.627c.522-13.426,2.779-51.313,2.7-52.034a15.264,15.264,0,0,0-1.306-4.064c-.449-1.055-.8-2.037-1.139-2.978l-.576-1.344c1.979-3.808,4.388-8.179,5.073-9.572l2.9-.184c.969,1.24,4.293,5.106,7.031,8.463-.125,1.743-.261,3.037-.47,4.806-.031.355-.084.71-.136,1.076a10.691,10.691,0,0,0-.115,2.382c.042.439,10.48,38.9,13.291,51.365a1,1,0,0,1-.084.669c-2.706,5.7-6.447,12.737-10.532,19.779a1.053,1.053,0,0,1-1.682.178C341.735,284.09,338.365,280.275,335.293,276.517Z" transform="translate(14.77 8.902)" fill="#0c5fe5"/>
      <path id="パス_89876" data-name="パス 89876" d="M244.521,94.589a43.382,43.382,0,0,0-47.385.642A39.615,39.615,0,0,0,179.885,126.3a42.7,42.7,0,0,0,1.567,13.179,6.555,6.555,0,0,1,1.672-.247,5.468,5.468,0,0,1,3.866,1.412l5.525-4.421c4.155-4.415,11.48-11.06,16.6-13.61.6-.3,1.366.119,1.6,1.091a6.2,6.2,0,0,1,.137,2.322,1.237,1.237,0,0,0,1.764,1.312c3.657-1.93,10.178-5.822,14.794-7.662l6.812.871a22.156,22.156,0,0,1,6.249,3.887c4.11,3.491,8.038,8.266,9.759,12.572l5.408,4.232a5.465,5.465,0,0,1,3.892-1.344,6.6,6.6,0,0,1,1.567.243l.1-.572a40.416,40.416,0,0,0,1.6-12.549c-.467-13.394-6.389-22.523-12.982-28.4Z" transform="translate(8.067 3.941)" fill="#333"/>
      <path id="パス_89877" data-name="パス 89877" d="M219.772,191.181l-1.418-.056c-.82,1.307-3.633,5.36-5.984,8.928l.39,1.463c.231.974.487,1.985.826,3.086a14.982,14.982,0,0,1,.876,4.179c.013.731-1.972,14.523-3.845,27.725,3.022,9.27,4.418,13.356,9.2,25.084,4.207-10.826,6.293-15.709,9.416-24.962-1.471-12.626-3.423-27.664-3.423-28.107a10.477,10.477,0,0,1,.362-2.357c.091-.352.171-.7.244-1.056.381-1.723.65-3.008.968-4.716-2.379-3.619-5.292-7.813-6.129-9.148Z" transform="translate(9.447 8.572)" fill="#0c5fe5"/>
      <path id="パス_89878" data-name="パス 89878" d="M24.384,216.417c-.073,1.16-.066,2.327-.084,3.49a2.149,2.149,0,0,0,.612,1.477,2.09,2.09,0,0,0,2.956,0,2.194,2.194,0,0,0,.611-1.477c.018-1.163.01-2.33.084-3.49A2.09,2.09,0,0,0,25,214.938l-.327.423a2.09,2.09,0,0,0-.285,1.055Z" transform="translate(1.09 9.613)" fill="#333"/>
      <path id="パス_89879" data-name="パス 89879" d="M25.846,218.411a14.241,14.241,0,0,0,9.212-7.329,13,13,0,0,0,1.614-6.328c.013-1.927-.258-3.836-.353-5.757a2.135,2.135,0,0,0-2.09-2.09A2.11,2.11,0,0,0,32.14,199c.085,1.7.313,3.4.347,5.106a8.616,8.616,0,0,1-.91,4.629,10.1,10.1,0,0,1-6.842,5.648c-2.612.616-1.51,4.648,1.111,4.03Z" transform="translate(1.042 8.832)" fill="#333"/>
      <path id="パス_89880" data-name="パス 89880" d="M10.928,223.9a25.445,25.445,0,0,1-1.254-7.084,9.42,9.42,0,0,0-.447-3.639A22.907,22.907,0,0,0,7.04,209.32a15.409,15.409,0,0,1-2.875-8.181,37.377,37.377,0,0,1,.863-7.345A39.22,39.22,0,0,1,7.6,185.527c.922-2.032,2.022-4.028,4.105-5.054,2.032-1,4.37-.33,6.424.242A23.911,23.911,0,0,1,23.4,182.7c.79.437,1.917,1.007,2.287,1.862.5,1.161-.3,1.291-1.239,1.326a43.964,43.964,0,0,1-5-.272c-1.739-.137-3.481-.149-5.224-.2-2.691-.077-2.687,4.1,0,4.179,1.743.049,3.486.062,5.224.2a36.124,36.124,0,0,0,5.375.253,5.38,5.38,0,0,0,4.306-2.006,5.251,5.251,0,0,0,.589-4.591c-.806-2.639-3.553-4.154-5.917-5.2A30.988,30.988,0,0,0,16.3,176a10.379,10.379,0,0,0-8.777,2.315c-2.171,1.834-3.374,4.564-4.395,7.15a44.751,44.751,0,0,0-2.579,9.748c-.483,3.2-.907,6.492-.1,9.675a21.8,21.8,0,0,0,2.4,5.573c.87,1.49,2.508,3.172,2.7,4.951.072.68-.062,1.4-.024,2.09.047.881.165,1.758.3,2.629A37.433,37.433,0,0,0,6.9,225.012c.753,2.577,4.789,1.481,4.03-1.111Z" transform="translate(0 7.885)" fill="#333"/>
      <path id="パス_89881" data-name="パス 89881" d="M22.99,189.941c.114.03.226.067.337.1q-.348-.16-.031-.009c.189.1.371.216.553.336-.406-.27-.039-.009.045.076s.138.144.2.222c-.171-.231-.193-.255-.064-.07.05.09.3.4.276.5l-.1-.24c.031.087.059.174.083.264.154.57.04-.238.033.1a1.567,1.567,0,0,0,0,.395c.054-.34.061-.4.02-.171-.019.085-.041.167-.067.249a2.662,2.662,0,0,0-.1.288c.1-.546.217-.456.1-.255-.05.085-.091.176-.142.259a2.731,2.731,0,0,0-.18.269c.059-.137.369-.4.1-.153-.039.037-.277.225-.279.264.292-.218.35-.263.176-.137-.046.032-.092.063-.139.092-.115.073-.243.127-.357.2-.266.173.44-.144-.114.04a6.438,6.438,0,0,1-1.078.252c.517-.078-.3.01-.392.015-.209.009-.413.011-.62.014h-1.4c-1.938-.019-3.874-.1-5.811-.17a2.107,2.107,0,0,0-2.09,2.09,2.133,2.133,0,0,0,2.09,2.09c1.787.062,3.572.139,5.36.165a14.636,14.636,0,0,0,5.184-.467,5.515,5.515,0,0,0,3.778-6.412,5.981,5.981,0,0,0-4.247-4.238,2.09,2.09,0,0,0-1.111,4.03Z" transform="translate(0.536 8.335)" fill="#333"/>
      <path id="パス_89882" data-name="パス 89882" d="M20.647,196.635c.153.073.772.307.808.476-.026-.129-.266-.225,0,.024.116.1.215.231.33.336.178.163-.194-.313.007.007.081.132.158.261.234.4.2.353-.062-.366.018.062.014.074.16.479.059.162-.1-.3-.014.085,0,.173.045.418.115-.326,0,.066-.019.077-.041.154-.067.23-.05.145-.029.1.063-.13-.01.133-.174.308-.236.418-.183.327.152-.129-.017.025-.1.09-.184.2-.282.292q-.119.112-.244.209l.165-.131c-.043.085-.373.242-.453.288-.13.075-.262.144-.4.209-.08.04-.161.077-.243.114.2-.08.224-.093.084-.038-.313.1-.622.226-.94.326a10.448,10.448,0,0,0-2,.756,3.9,3.9,0,0,0-1.784,2.113,5.479,5.479,0,0,0,0,2.864,2.1,2.1,0,0,0,2.57,1.463,2.145,2.145,0,0,0,1.463-2.57c-.032-.175-.053-.522-.036-.158a2.456,2.456,0,0,1-.006-.533c-.022.126-.191.537-.015.261q-.27.337-.029.1l-.182.152a2.737,2.737,0,0,1,.266-.146l-.216.086a4.611,4.611,0,0,1,.442-.155c.327-.1.657-.2.983-.313a8.365,8.365,0,0,0,4.292-2.847,5,5,0,0,0,.7-4.686,6.516,6.516,0,0,0-3.22-3.515,2.09,2.09,0,1,0-2.109,3.609Z" transform="translate(0.698 8.644)" fill="#333"/>
      <path id="パス_89883" data-name="パス 89883" d="M31.876,200.666a5.733,5.733,0,0,0,5.1-2.984,14,14,0,0,0,1.2-4.767,21.042,21.042,0,0,0-1.015-9.9,6.545,6.545,0,0,0-4.192-4.033,7.675,7.675,0,0,0-5.077.405c-3.779,1.707-4.284,7.059-3.977,10.683.379,4.541,2.46,10.631,7.964,10.6,2.688-.018,2.695-4.2,0-4.179a2.652,2.652,0,0,1-2.369-1.626,12.3,12.3,0,0,1-1.365-4.271,15.929,15.929,0,0,1,.025-4.043,14.553,14.553,0,0,1,.47-2.052,2.064,2.064,0,0,1,.773-1.219,3.922,3.922,0,0,1,1.1-.336c.358-.081-.029.007-.1.012.14-.009.28-.026.418-.031a5.081,5.081,0,0,1,.817.022c-.544-.065.522.17.336.1a3.136,3.136,0,0,0,.466.259,3.306,3.306,0,0,1,.458.51c.089.131.461.9.283.471a15.92,15.92,0,0,1,.915,7.045,12.329,12.329,0,0,1-.561,3.726c-.049.16-.385.9-.147.45-.047.09-.084.185-.136.273-.019.031-.3.455-.139.242a1.732,1.732,0,0,1-1.254.468,2.139,2.139,0,0,0-2.09,2.09,2.109,2.109,0,0,0,2.1,2.086Z" transform="translate(1.069 8.016)" fill="#333"/>
      <path id="パス_89884" data-name="パス 89884" d="M98.286,186.347v.01l.285-1.055c-.869,1.475-1.753,2.955-2.739,4.357-.332.473.261-.253-.137.166-.047.049-.313.406-.395.4-.059-.006.437-.246.138-.113-.067.03-.136.069-.2.1-.163.088-.412.086.209-.082a2.812,2.812,0,0,0-.263.1c-.222.085-.446.163-.671.239-2.051.7-4.157,1.24-6.255,1.776a2.09,2.09,0,0,0,1.111,4.03,69.231,69.231,0,0,0,6.734-1.942,9.01,9.01,0,0,0,1.473-.633,6.868,6.868,0,0,0,1.977-2.09c.492-.707.951-1.441,1.405-2.172.543-.878,1.511-2.044,1.511-3.1a2.09,2.09,0,1,0-4.179,0Z" transform="translate(3.89 8.264)" fill="#333"/>
      <path id="パス_89885" data-name="パス 89885" d="M75.46,160.171c-.994,3.647-2.689,7.062-3.6,10.734a16.048,16.048,0,0,0,.694,10.333A17.4,17.4,0,0,0,85.543,191.6a2.152,2.152,0,0,0,2.57-1.463,2.106,2.106,0,0,0-1.463-2.57,12.1,12.1,0,0,1-5.518-2.121,14.305,14.305,0,0,1-4.82-6.009,11.647,11.647,0,0,1-.908-4,16.927,16.927,0,0,1,.841-4.724c.952-3.189,2.366-6.217,3.239-9.431.708-2.6-3.323-3.707-4.03-1.112Z" transform="translate(3.199 7.117)" fill="#333"/>
      <path id="パス_89886" data-name="パス 89886" d="M132.608,196.4a30.983,30.983,0,0,0,10.94.043,15.914,15.914,0,0,0,9.443-5.163c2.687-3.194,3.608-7.156,3.609-11.266,0-4.361-.995-8.8-.37-13.153a2.159,2.159,0,0,0-1.463-2.57,2.105,2.105,0,0,0-2.571,1.463c-.581,4.037-.062,8,.154,12.045.186,3.488.113,7.223-2.032,10.158a11.919,11.919,0,0,1-7.508,4.388,24.225,24.225,0,0,1-4.3.287,22.791,22.791,0,0,1-4.8-.263c-2.626-.533-3.749,3.5-1.111,4.031Z" transform="translate(5.88 7.365)" fill="#333"/>
      <path id="パス_89887" data-name="パス 89887" d="M133.7,306.629c2.889-17.688,5.9-35.359,9.156-52.984l-3.07,1.249c10.165,6.847,19.659,14.61,29.3,22.161a2.16,2.16,0,0,0,2.956,0,2.1,2.1,0,0,0,0-2.956c-9.919-7.769-19.686-15.769-30.145-22.814a2.1,2.1,0,0,0-3.07,1.254c-3.254,17.625-6.269,35.3-9.156,52.982a2.152,2.152,0,0,0,1.463,2.57,2.105,2.105,0,0,0,2.571-1.463Z" transform="translate(5.813 11.258)" fill="#333"/>
      <path id="パス_89888" data-name="パス 89888" d="M37.189,216.743c-5.936.473-11.85,1.169-17.741,2.031q-4.585.671-9.148,1.476-2.034.357-4.064.739a8.493,8.493,0,0,0-3.6,1.226c-2.164,1.559-2.4,3.852-2.445,6.319-.032,2.165.006,4.331.1,6.494.209,4.771.679,9.525,1.349,14.251,1.138,8.027,2.693,16.509,6.386,23.8,2,3.943,5.189,7.886,9.319,9.687,4.239,1.848,9.4.611,13.386-1.384a60.033,60.033,0,0,0,12.175-8.8c4.573-4.016,8.8-8.415,12.979-12.839,1.845-1.955-1.1-4.916-2.955-2.955C46.657,263.435,40.261,270,32.741,275.249c-3.322,2.32-6.775,4.075-10.9,4.235-4.179.164-7.479-3.833-9.425-7.092a36.867,36.867,0,0,1-3.426-8.412,100.834,100.834,0,0,1-2.661-11.64A126.34,126.34,0,0,1,4.4,227.263a1.756,1.756,0,0,1,1-1.84,20.39,20.39,0,0,1,4.234-.822q4.564-.827,9.149-1.529,9.162-1.395,18.407-2.147c2.662-.209,2.685-4.388,0-4.179Z" transform="translate(0.008 9.721)" fill="#333"/>
      <path id="パス_89889" data-name="パス 89889" d="M124.161,188.467a41.67,41.67,0,0,0-.139,7.836,7.982,7.982,0,0,0,.946,3.761,11.17,11.17,0,0,0,2.485,2.532,2.146,2.146,0,0,0,2.956,0,2.114,2.114,0,0,0,0-2.956,16.193,16.193,0,0,1-1.268-1.092c-.164-.159-.313-.332-.473-.492-.157-.189-.156-.181,0,.023-.06-.08-.115-.164-.167-.25-.238-.3.12.522-.032-.063-.076-.3-.156-.584-.209-.885.053.313-.032-.292-.039-.354-.029-.313-.049-.627-.067-.946a43.636,43.636,0,0,1,.186-7.116,2.09,2.09,0,0,0-2.09-2.09,2.148,2.148,0,0,0-2.09,2.09Z" transform="translate(5.557 8.359)" fill="#333"/>
      <path id="パス_89890" data-name="パス 89890" d="M18.357,174.342c-.651-9.849-1.3-19.7-1.867-29.553q-.486-8.413-.881-16.829c-.2-4.516-.522-9.079-.438-13.6.02-1.091.787-.952,1.753-1.035,1.819-.159,3.644-.253,5.471-.269a76.4,76.4,0,0,1,10.51.7,94.36,94.36,0,0,1,9.822,1.83,54.348,54.348,0,0,1,9.455,2.9c.94.418.77.843.447,1.727q-.5,1.358-1.005,2.706-1.16,3.1-2.349,6.187-2.839,7.408-5.723,14.8c-4.173,10.753-8.43,21.484-12.291,32.354-.9,2.539,3.135,3.632,4.03,1.111,3.632-10.226,7.627-20.327,11.549-30.442q3.069-7.909,6.124-15.823,1.263-3.288,2.508-6.583c.77-2.05,2.095-4.418,1.453-6.641-.965-3.344-5.406-4.155-8.3-5.03a92.076,92.076,0,0,0-10.425-2.47,80.708,80.708,0,0,0-21.751-1.187,6.075,6.075,0,0,0-4.162,1.559A5.515,5.515,0,0,0,11,114.974c.032,2.252.1,4.5.178,6.753.2,5.566.473,11.129.775,16.689.65,11.981,1.434,23.954,2.224,35.926.177,2.671,4.357,2.691,4.179,0Z" transform="translate(0.492 4.885)" fill="#333"/>
      <path id="パス_89891" data-name="パス 89891" d="M43.938,221.081q4.666-4.645,9.336-9.29c2.709-2.695,5.283-5.5,8.51-7.584A26.2,26.2,0,0,1,71.9,199.9a79.061,79.061,0,0,0,12.519-2.865c2.557-.8,1.463-4.841-1.111-4.03a79.1,79.1,0,0,1-12.945,2.926c-3.718.512-7.585,2.657-10.693,4.672a55.849,55.849,0,0,0-8.807,7.691q-4.945,4.911-9.885,9.835c-1.909,1.9,1.045,4.856,2.956,2.956Z" transform="translate(1.811 8.652)" fill="#333"/>
      <path id="パス_89892" data-name="パス 89892" d="M427.351,235.935c.452.022,1.567-.159,1.943.068.02.011.327.725.438,1a36.307,36.307,0,0,1,1.411,4.441,49.492,49.492,0,0,1,1.333,8.907,65.7,65.7,0,0,1-1.128,18.18c-1.174,5.387-3.956,10.685-8.648,13.808a11.7,11.7,0,0,1-7.176,2.175c-2.654-.159-5.181-1.7-7.239-3.286-2.9-2.242-5-5.575-7.159-8.492q-3.6-4.855-6.971-9.869c-1.5-2.219-5.12-.13-3.609,2.11q3.517,5.224,7.272,10.272c2.209,2.969,4.336,6.3,7.2,8.682a19.63,19.63,0,0,0,8.816,4.563,14.876,14.876,0,0,0,9.29-1.56c6.036-3.068,10.157-9.345,11.879-15.75a56.234,56.234,0,0,0,1.5-9.894,72.012,72.012,0,0,0,.168-10.711,53.92,53.92,0,0,0-1.881-11.65c-.522-1.792-1.069-4.119-2.287-5.572-1.358-1.618-3.223-1.513-5.152-1.607-2.688-.13-2.682,4.05,0,4.179Z" transform="translate(17.502 10.395)" fill="#333"/>
      <path id="パス_89893" data-name="パス 89893" d="M389.4,202.145c-10.545-3.514-20.855-7.921-31.137-12.12a2.1,2.1,0,0,0-2.57,1.463,2.142,2.142,0,0,0,1.463,2.571c10.286,4.2,20.6,8.6,31.137,12.12,2.558.852,3.657-3.183,1.111-4.03Z" transform="translate(15.952 8.52)" fill="#333"/>
      <path id="パス_89894" data-name="パス 89894" d="M403.6,201.273c.026-1.55,1.646-2.423,3.006-2.463,1.985-.057,4.095,1.233,5.8,2.128,1.946,1.024,3.843,2.135,5.724,3.272q1.486.9,2.963,1.814a4.889,4.889,0,0,1,.769.514,9.267,9.267,0,0,1,.866.934,8.312,8.312,0,0,1,1.909,4.014,17.89,17.89,0,0,1-.32,5.15,56.134,56.134,0,0,0-.173,10.117c.227,3.424.627,6.847,1.169,10.24.292,1.832.293,3.567-.94,5.045-.284.342-.595.661-.888.995-.129.146-.251.3-.385.446.28-.3.232-.154.071-.056a7.108,7.108,0,0,1-1.388.589,18.925,18.925,0,0,1-8.474,1.066,16.694,16.694,0,0,1-2.73-.491c-.254-.068-.5-.14-.752-.229-.271-.1.054.073-.385-.185a5.59,5.59,0,0,1-1.7-1.436c-2.018-2.624-2.612-6.326-3.094-9.5-.344-2.273-.572-4.164-2.011-6.048a16.2,16.2,0,0,0-5.484-4.451c-2.388-1.229-4.5,2.376-2.11,3.609a10.971,10.971,0,0,1,4.8,4.153,8.463,8.463,0,0,1,.649,2.961c.163,1.182.354,2.361.6,3.53.658,3.156,1.69,6.426,3.86,8.886,2.194,2.488,5.406,3.12,8.568,3.4a21.9,21.9,0,0,0,9.926-1.436,9.733,9.733,0,0,0,6.2-9.4c-.073-1.866-.508-3.73-.731-5.585-.251-2.076-.468-4.159-.6-6.245a48.087,48.087,0,0,1,.313-10.784,13.334,13.334,0,0,0-3.387-11.807c-1.712-1.836-4.3-3.008-6.44-4.275a59.074,59.074,0,0,0-7.627-4c-2.612-1.07-5.329-1.6-7.986-.307a6.913,6.913,0,0,0-3.762,5.843c-.045,2.691,4.134,2.691,4.179,0Z" transform="translate(17.672 8.732)" fill="#333"/>
      <path id="パス_89895" data-name="パス 89895" d="M413.306,206.187c-2.425-1.3-4.888-2.544-7.36-3.761a17.115,17.115,0,0,0-2.681-1.2,5.7,5.7,0,0,0-6.044,1.936,6.433,6.433,0,0,0-.514,7.142,2.09,2.09,0,1,0,3.609-2.11,3.446,3.446,0,0,1-.184-.332c.084.2.084.188,0-.046a3.793,3.793,0,0,1-.1-.387c.017.187.019.209.006.05a4.227,4.227,0,0,1,0-.731c-.035.368.083-.3.1-.385a3.234,3.234,0,0,1,.1-.308c-.059.168-.032.137.076-.094a3.768,3.768,0,0,1,.209-.328c-.127.169-.112.164.046-.018.076-.062.5-.363.16-.153a3.593,3.593,0,0,1,.324-.189q-.323.116.022-.006c.1-.026.634-.131.193-.08.093-.01.836.031.446-.031.215.034.412.12.627.163.3.059-.567-.264-.305-.132.388.194.789.366,1.179.555,2.677,1.3,5.339,2.643,7.96,4.053a2.09,2.09,0,1,0,2.11-3.609Z" transform="translate(17.756 9.015)" fill="#333"/>
      <path id="パス_89896" data-name="パス 89896" d="M407.2,210.717a46.575,46.575,0,0,0-6.91-2.581,8.535,8.535,0,0,0-3.37-.53,5.345,5.345,0,0,0-3.239,1.7,5.563,5.563,0,0,0-.264,7.105,12.178,12.178,0,0,0,4.245,2.9c1.646.777,3.325,1.484,5,2.194a2.148,2.148,0,0,0,2.859-.749,2.113,2.113,0,0,0-.749-2.86,50.661,50.661,0,0,1-7.18-3.418c-.175-.111-.344-.23-.522-.34-.073-.046-.313-.243,0,.014-.067-.054-.133-.1-.2-.165-.01-.009-.418-.4-.405-.41s.259.331.084.073c-.2-.3.057.264.01.03a4.686,4.686,0,0,1-.134-.533c.047-.013.017.423.017.072,0-.1-.01-.215-.009-.324,0-.079.013-.161.008-.239-.013-.281-.127.341-.017.1a.989.989,0,0,0,.049-.215c.063-.4-.166.249-.031.041.094-.145.341-.5.082-.2.144-.168.305-.313.459-.468-.022.023-.3.19-.1.083.093-.051.179-.116.273-.168.069-.039.141-.071.209-.1-.4.217-.128.053.009.026.534-.1-.27-.008.112-.018.437-.013-.135-.017-.118-.034a1.891,1.891,0,0,1,.287.071q.666.17,1.331.351a29.063,29.063,0,0,1,3.112,1.012c.578.228,1.158.45,1.736.678.25.1.5.2.748.3.386.157.1.042.021.007l.479.209a2.142,2.142,0,0,0,2.859-.75,2.115,2.115,0,0,0-.749-2.859Z" transform="translate(17.595 9.311)" fill="#333"/>
      <path id="パス_89897" data-name="パス 89897" d="M396.855,214.006a5.7,5.7,0,0,0-5.27,1.463,6.7,6.7,0,0,0-.068,9.435c.635.671,1.312,1.306,1.985,1.943a27.807,27.807,0,0,0,2.884,2.513,2.1,2.1,0,0,0,2.859-.75,2.147,2.147,0,0,0-.75-2.859c-.368-.265.376.322.1.079-.075-.067-.156-.129-.233-.194-.209-.181-.418-.367-.627-.554-.448-.406-.889-.821-1.327-1.239-.712-.68-1.38-1.419-2.1-2.09q-.147-.172.087.116c-.061-.086-.118-.174-.172-.265-.084-.139-.154-.283-.228-.427.227.436.009.01-.029-.111a1.68,1.68,0,0,1-.161-.64l.025.23c-.013-.1-.021-.218-.026-.327-.008-.164,0-.325,0-.488q.033-.36-.018.078c.02-.1.043-.209.07-.313.04-.142.253-.515.009-.086.192-.339.393-.668.6-1,.22-.357-.225.178.084-.1.091-.084.387-.277.064-.089.051-.03.6-.344.33-.215s.292-.117.36-.089c-.261.027-.313.033-.15.021.084-.008.167-.011.252-.011s.821.074.346,0a2.147,2.147,0,0,0,2.571-1.463,2.114,2.114,0,0,0-1.463-2.57Z" transform="translate(17.476 9.592)" fill="#333"/>
      <path id="パス_89898" data-name="パス 89898" d="M399.154,199.929c-1.071-.2-2.031-.769-3.111-.94a7.144,7.144,0,0,0-3.46.246,9.872,9.872,0,0,0-5.283,4.534,16.091,16.091,0,0,0-2.235,6.662c-.172,2.4.439,4.954,2.5,6.38a7.013,7.013,0,0,0,7.226.01,2.09,2.09,0,0,0-2.109-3.609,2.962,2.962,0,0,1-.682.3c-.061.019-.682.152-.352.1a3.919,3.919,0,0,1-.636.027c-.132,0-.263-.01-.394-.023q.37.056.02-.006c-.15-.042-.3-.085-.456-.121-.366-.088.28.2-.12-.054a3.591,3.591,0,0,1-.313-.185q.226.191.057.044a2.4,2.4,0,0,1-.2-.2c.12.178.111.163-.026-.044-.216-.284-.034.093-.126-.285-.066-.274-.139-.545-.183-.825a9.254,9.254,0,0,1-.042-1.273,10.38,10.38,0,0,1,.754-2.837,13.654,13.654,0,0,1,1.38-2.684,5.407,5.407,0,0,1,.739-.855c.066-.065.6-.512.428-.383a6.075,6.075,0,0,1,.561-.359,3.03,3.03,0,0,1,2.071-.5c-.327-.022.346.085.444.114.274.08.54.181.808.282a9.752,9.752,0,0,0,1.627.508,2.144,2.144,0,0,0,2.57-1.463,2.107,2.107,0,0,0-1.463-2.57Z" transform="translate(17.271 8.92)" fill="#333"/>
      <path id="パス_89899" data-name="パス 89899" d="M312.808,195.109c-9.257,3.648-18.574,7.89-26.579,13.876-5.948,4.447-10.378,10.8-14.883,16.62a105.972,105.972,0,0,1-6.843,8.4c-1.856,1.947,1.1,4.911,2.955,2.955,4.771-5,8.632-10.893,13.026-16.221a57.5,57.5,0,0,1,6.864-7.36,64.061,64.061,0,0,1,11.312-7.238,143.089,143.089,0,0,1,15.26-7,2.153,2.153,0,0,0,1.463-2.57,2.105,2.105,0,0,0-2.571-1.463Z" transform="translate(11.838 8.748)" fill="#333"/>
      <path id="パス_89900" data-name="パス 89900" d="M251.715,191.676a103.989,103.989,0,0,1,33.427,11.014c2.377,1.254,4.493-2.351,2.11-3.609a107.238,107.238,0,0,0-34.426-11.435,2.161,2.161,0,0,0-2.57,1.463,2.1,2.1,0,0,0,1.463,2.57Z" transform="translate(11.222 8.414)" fill="#333"/>
      <path id="パス_89901" data-name="パス 89901" d="M293.55,261.939c-8.614,6.338-16.927,13.054-25.2,19.828a2.1,2.1,0,0,0,0,2.956,2.138,2.138,0,0,0,2.955,0c8-6.549,16.023-13.048,24.345-19.175a2.152,2.152,0,0,0,.75-2.859,2.105,2.105,0,0,0-2.859-.75Z" transform="translate(12.01 11.736)" fill="#333"/>
      <path id="パス_89902" data-name="パス 89902" d="M154.791,204.588c5.052-3.478,10.924-5.814,16.671-7.861a92.187,92.187,0,0,1,17.373-4.7,2.1,2.1,0,0,0,1.463-2.57,2.144,2.144,0,0,0-2.57-1.463,92.888,92.888,0,0,0-17.736,4.833c-5.946,2.139-12.072,4.55-17.306,8.15-2.2,1.515-.114,5.139,2.11,3.609Z" transform="translate(6.807 8.429)" fill="#333"/>
      <path id="パス_89903" data-name="パス 89903" d="M133.515,203.279c7.873,3.581,15.484,7.689,21.407,14.114,5.77,6.257,10.728,13.253,16.662,19.351,1.881,1.931,4.834-1.026,2.956-2.956-6.046-6.211-11.063-13.36-16.982-19.694-6.08-6.507-13.909-10.772-21.934-14.419a2.153,2.153,0,0,0-2.86.749,2.106,2.106,0,0,0,.75,2.859Z" transform="translate(5.943 8.944)" fill="#333"/>
      <path id="パス_89904" data-name="パス 89904" d="M298.8,148.693a7.979,7.979,0,0,0-8.5-.395,7.529,7.529,0,0,0-3.526,5.458,18.9,18.9,0,0,0,4.166,14.774c2.268,2.809,5.538,4.6,9.195,3.886a2.111,2.111,0,0,0,1.463-2.57,2.133,2.133,0,0,0-2.57-1.463c-2.421.472-4.514-1.8-5.7-3.619a15.35,15.35,0,0,1-2.471-6.165c-.3-1.939-.34-4.3.722-5.984.228-.36-.184.164.12-.145.1-.1.418-.4.418-.4a4.117,4.117,0,0,1,1.215-.511,3.807,3.807,0,0,1,3.351.743,2.1,2.1,0,0,0,2.859-.749,2.142,2.142,0,0,0-.749-2.86Z" transform="translate(12.854 6.605)" fill="#333"/>
      <path id="パス_89905" data-name="パス 89905" d="M364.4,147.705a3.686,3.686,0,0,1,3.073-1,3.164,3.164,0,0,1,1.318.418c.418.248.275.166.673.58.3.313-.159-.281.056.068.139.226.283.44.4.678a7.106,7.106,0,0,1,.487,1.383,13.151,13.151,0,0,1,.381,3.665,15.24,15.24,0,0,1-1.508,6.06c-1.07,2.255-2.815,4.722-5.586,4.556-2.686-.161-2.677,4.019,0,4.179,6.111.366,9.549-6.06,10.811-11.148,1.079-4.351.719-11.217-3.711-13.688a8.025,8.025,0,0,0-9.351,1.3c-1.917,1.892,1.039,4.847,2.956,2.955Z" transform="translate(16.185 6.391)" fill="#333"/>
      <path id="パス_89906" data-name="パス 89906" d="M362.545,162.3a33.771,33.771,0,0,1-5.483,13.925c-3.072,4.847-7.314,10.194-13.043,11.9-2.571.766-1.476,4.8,1.111,4.03,6.631-1.973,11.561-7.694,15.208-13.3a39.2,39.2,0,0,0,6.238-15.442,2.159,2.159,0,0,0-1.463-2.57,2.1,2.1,0,0,0-2.57,1.463Z" transform="translate(15.365 7.211)" fill="#333"/>
      <path id="パス_89907" data-name="パス 89907" d="M296.639,167.552c3.928,12.876,14.692,25.479,28.813,26.608,2.681.214,2.668-3.97,0-4.179-6.176-.494-11.389-3.846-15.658-8.157a37.329,37.329,0,0,1-9.125-15.382C299.888,163.877,295.852,164.97,296.639,167.552Z" transform="translate(13.301 7.4)" fill="#333"/>
      <path id="パス_89908" data-name="パス 89908" d="M352.724,100.84a45.974,45.974,0,0,0-41.769-.748,42.878,42.878,0,0,0-22.034,26.633,43.732,43.732,0,0,0,.951,25.31c.846,2.539,4.885,1.45,4.03-1.111a39.835,39.835,0,0,1-1.5-20.766,37.066,37.066,0,0,1,6.959-15.169,39.913,39.913,0,0,1,30-15.325,40.387,40.387,0,0,1,21.258,4.785C352.98,105.729,355.093,102.121,352.724,100.84Z" transform="translate(12.895 4.28)" fill="#333"/>
      <path id="パス_89909" data-name="パス 89909" d="M370.743,146.44a45.45,45.45,0,0,0,.693-13.647,44.887,44.887,0,0,0-3.119-12.168A40.2,40.2,0,0,0,355.83,104.41a2.161,2.161,0,0,0-2.956,0,2.1,2.1,0,0,0,0,2.955,37.084,37.084,0,0,1,11.5,14.588,40.276,40.276,0,0,1,2.338,23.377C366.231,147.959,370.258,149.091,370.743,146.44Z" transform="translate(15.801 4.657)" fill="#333"/>
      <path id="パス_89910" data-name="パス 89910" d="M326.065,175.91a14.636,14.636,0,0,0,7.083,1.173,11.561,11.561,0,0,0,6.828-2.411,2.1,2.1,0,0,0,0-2.956,2.142,2.142,0,0,0-2.955,0c-.366.313.35-.227.077-.053-.131.083-.255.174-.389.255s-.288.164-.437.239a1.406,1.406,0,0,1-.3.142c.077.023.487-.187.1-.047a11.42,11.42,0,0,1-1.463.434c-.166.038-.332.071-.5.1-.052.01-.539.092-.262.048s-.246.028-.3.033c-.209.021-.418.039-.619.052a15.9,15.9,0,0,1-2.045.009c-.139-.008-.278-.019-.418-.032-.078-.007-.158-.016-.236-.025-.164-.02-.1-.01.179.025a2.129,2.129,0,0,1-.68-.122,9.6,9.6,0,0,1-1.188-.333c-.139-.049-.275-.1-.418-.156-.445-.171.539.233.038.016a2.146,2.146,0,0,0-2.859.75,2.112,2.112,0,0,0,.749,2.859Z" transform="translate(14.579 7.675)" fill="#333"/>
      <path id="パス_89911" data-name="パス 89911" d="M330.594,160.474c.188.551.364,1.107.531,1.663a12.139,12.139,0,0,1,.459,1.776l-.074-.556a1.507,1.507,0,0,1,0,.35l.075-.556a1.027,1.027,0,0,1-.043.158l.209-.5a.77.77,0,0,1-.078.137l.326-.423a.438.438,0,0,1-.076.076l.418-.326a2.191,2.191,0,0,1-.4.219l.5-.209a1.857,1.857,0,0,1-.424.114l.556-.074a4.6,4.6,0,0,1-.8-.041,2.09,2.09,0,0,0-1.478,3.567,2.3,2.3,0,0,0,1.478.612,6.348,6.348,0,0,0,.66.051,3.97,3.97,0,0,0,1.818-.51,2.668,2.668,0,0,0,1.35-1.74,3.96,3.96,0,0,0-.072-1.814c-.257-1.045-.573-2.068-.919-3.082a2.219,2.219,0,0,0-.96-1.249,2.088,2.088,0,0,0-3.069,2.359Z" transform="translate(14.788 7.079)" fill="#333"/>
      <path id="パス_89912" data-name="パス 89912" d="M313.136,152.686c-.449,1.824.189,5.914,3.7,6.035,4.614-.329,4.534-5.317,2.827-7.554C318.271,149.336,314.478,148.784,313.136,152.686Z" transform="translate(14.04 6.717)" fill="#333"/>
      <path id="パス_89913" data-name="パス 89913" d="M348.82,150.351c.684,1.751.584,5.888-2.885,6.467-4.617.275-5.189-4.682-3.789-7.122C343.294,147.7,346.982,146.658,348.82,150.351Z" transform="translate(15.317 6.633)" fill="#333"/>
      <path id="パス_89916" data-name="パス 89916" d="M316.749,1.537,291.956,62.3a2.1,2.1,0,0,0,1.463,2.57,2.142,2.142,0,0,0,2.571-1.463L320.78,2.649a2.1,2.1,0,0,0-1.463-2.57,2.14,2.14,0,0,0-2.57,1.463Z" transform="translate(13.092 0)" fill="#333"/>
      <path id="パス_89917" data-name="パス 89917" d="M389.2,30.441c-8.672,10.584-17.619,20.95-26.586,31.283q-3.906,4.5-7.852,8.966c-1.776,2.006,1.167,4.972,2.955,2.955,9.767-11.023,19.341-22.225,28.819-33.5,1.881-2.241,3.761-4.486,5.619-6.751,1.692-2.065-1.249-5.038-2.955-2.955Z" transform="translate(15.888 1.333)" fill="#333"/>
      <path id="パス_89918" data-name="パス 89918" d="M85.416,143.4a7.883,7.883,0,0,0-8.156-1.791,7.484,7.484,0,0,0-4.408,4.806c-1.7,4.746-.694,10.508,1.835,14.784,1.776,3,4.686,5.538,8.367,5.337,2.676-.143,2.693-4.324,0-4.179s-4.388-2.288-5.4-4.493a15.046,15.046,0,0,1-1.426-5.931,12.884,12.884,0,0,1,.4-3.577,5.67,5.67,0,0,1,.883-2c.249-.375-.319.313.052-.055.393-.393.209-.292.656-.555a3.366,3.366,0,0,1,1.239-.4,3.629,3.629,0,0,1,3.007,1.007c1.9,1.9,4.861-1.051,2.956-2.956Z" transform="translate(3.23 6.331)" fill="#333"/>
      <path id="パス_89919" data-name="パス 89919" d="M148.879,151.273a3.657,3.657,0,0,1,3.257-.693,3.47,3.47,0,0,1,1.2.535c-.2-.141.252.243.306.293q.1.1.191.209c-.124-.165-.145-.19-.064-.073,1.052,1.6,1.019,3.99.7,5.907a14.959,14.959,0,0,1-2.38,5.9c-1.166,1.811-3.239,4.082-5.642,3.6a2.142,2.142,0,0,0-2.57,1.463,2.11,2.11,0,0,0,1.463,2.57c6.04,1.22,10.111-4.211,12.191-9.122a16.549,16.549,0,0,0,1.226-7.86,8.511,8.511,0,0,0-2.612-5.956,7.816,7.816,0,0,0-9.373-.37,2.154,2.154,0,0,0-.75,2.859,2.105,2.105,0,0,0,2.86.75Z" transform="translate(6.451 6.561)" fill="#333"/>
      <path id="パス_89920" data-name="パス 89920" d="M145.239,165.18a34.231,34.231,0,0,1-7.08,12.5c-3.755,4.4-8.578,8.937-14.517,9.845a2.105,2.105,0,0,0-1.463,2.571,2.142,2.142,0,0,0,2.57,1.463c6.583-1.007,12.187-6.031,16.361-10.919a39.119,39.119,0,0,0,8.155-14.347c.753-2.588-3.279-3.694-4.03-1.112Z" transform="translate(5.477 7.343)" fill="#333"/>
      <path id="パス_89921" data-name="パス 89921" d="M80.542,161.6c2.043,12.732,10.83,26.465,24.115,29.391,2.622.578,3.741-3.448,1.112-4.03-11.953-2.632-19.375-15.115-21.193-26.471a2.1,2.1,0,0,0-2.57-1.463,2.14,2.14,0,0,0-1.463,2.57Z" transform="translate(3.61 7.129)" fill="#333"/>
      <path id="パス_89922" data-name="パス 89922" d="M143.95,103.647a44.837,44.837,0,0,0-40.364-6.131,42.129,42.129,0,0,0-24.9,23.006A43.115,43.115,0,0,0,76.3,145.406c.493,2.64,4.522,1.522,4.03-1.111C78.045,132.07,81.48,119.378,90.4,110.566a40.023,40.023,0,0,1,51.443-3.311,2.1,2.1,0,0,0,2.859-.749,2.138,2.138,0,0,0-.749-2.859Z" transform="translate(3.384 4.27)" fill="#333"/>
      <path id="パス_89923" data-name="パス 89923" d="M155.421,150.485a43.869,43.869,0,0,0,1.017-25.19,39.945,39.945,0,0,0-9.982-17.425c-1.881-1.936-4.828,1.021-2.956,2.955a35.574,35.574,0,0,1,8.907,15.582,39.449,39.449,0,0,1,1.263,10.884,40.693,40.693,0,0,1-2.28,12.088c-.843,2.561,3.192,3.657,4.03,1.111Z" transform="translate(6.41 4.81)" fill="#333"/>
      <path id="パス_89924" data-name="パス 89924" d="M108.19,173.524a14.441,14.441,0,0,0,6.583,1.942,11.064,11.064,0,0,0,6.7-1.3,2.09,2.09,0,0,0-2.11-3.609c-.226.146-.507.234-.721.388a1.6,1.6,0,1,0,.189-.085c-.083.027-.163.06-.246.087a6.158,6.158,0,0,1-.62.177c-.241.059-.485.1-.731.145-.392.07.313-.024.031-.006-.135.008-.27.027-.4.037a14.823,14.823,0,0,1-2.09-.009c-.173-.013-.347-.028-.522-.046s-.44-.054-.123-.008q-.477-.069-.951-.17a11.337,11.337,0,0,1-1.463-.418,2.79,2.79,0,0,0-.343-.132c.12.025.446.2.139.055-.163-.078-.327-.155-.487-.239-.246-.129-.483-.271-.72-.418a2.09,2.09,0,0,0-2.11,3.609Z" transform="translate(4.806 7.608)" fill="#333"/>
      <path id="パス_89925" data-name="パス 89925" d="M114.48,159.27q.234,1.2.4,2.413l-.075-.555a5.224,5.224,0,0,1,.09,1.235l.074-.556a1.08,1.08,0,0,1-.064.244l.209-.5a.918.918,0,0,1-.072.124l.327-.423a.708.708,0,0,1-.1.1l.423-.327a1.039,1.039,0,0,1-.162.085l.5-.209a2.231,2.231,0,0,1-.468.138l.556-.075a1.7,1.7,0,0,1-.432,0l.556.075c-.2-.029-.389-.093-.585-.133a2.225,2.225,0,0,0-1.61.209,2.09,2.09,0,0,0,.5,3.82,11.261,11.261,0,0,0,1.141.209,3.157,3.157,0,0,0,1.381-.186,3.067,3.067,0,0,0,1.228-.716,2.77,2.77,0,0,0,.657-1.127,3.208,3.208,0,0,0,.112-1.291c-.132-1.229-.313-2.453-.554-3.666a2.112,2.112,0,0,0-.96-1.249,2.09,2.09,0,0,0-2.86.749,2.323,2.323,0,0,0-.209,1.61Z" transform="translate(5.069 7.025)" fill="#333"/>
      <path id="パス_89926" data-name="パス 89926" d="M98.548,149.078c-.682,1.711-.61,5.767,2.787,6.356,4.522.3,5.114-4.556,3.756-6.955C103.98,146.514,100.372,145.471,98.548,149.078Z" transform="translate(4.405 6.579)" fill="#333"/>
      <path id="パス_89927" data-name="パス 89927" d="M133.5,151.592c.429,1.791-.222,5.794-3.667,5.891-4.519-.352-4.409-5.24-2.723-7.418C128.494,148.277,132.214,147.759,133.5,151.592Z" transform="translate(5.653 6.669)" fill="#333"/>
      <path id="パス_89928" data-name="パス 89928" d="M133.263,123.6a68.535,68.535,0,0,0,5.857,17.394,50.206,50.206,0,0,0,3.911,6.977,14.293,14.293,0,0,0,4.214,4.444c2.325,1.358,4.431-2.249,2.11-3.609a3.924,3.924,0,0,1-.412-.262c.372.282-.113-.1-.148-.135-.284-.269-.561-.539-.823-.83a18.015,18.015,0,0,1-1.656-2.194,53.334,53.334,0,0,1-3.745-6.83,64.341,64.341,0,0,1-5.278-16.059,2.106,2.106,0,0,0-2.57-1.463,2.138,2.138,0,0,0-1.463,2.57Z" transform="translate(5.974 5.425)" fill="#333"/>
      <path id="パス_89929" data-name="パス 89929" d="M110.424,126.027c-9.17,5.9-18.222,11.989-27.525,17.682-2.29,1.4-.193,5.015,2.11,3.609,9.3-5.693,18.355-11.781,27.525-17.682,2.255-1.451.161-5.07-2.11-3.609Z" transform="translate(3.674 5.637)" fill="#333"/>
      <path id="パス_89930" data-name="パス 89930" d="M134.643,121.748a48.226,48.226,0,0,1-18.7,13.736,46.674,46.674,0,0,1-5.626,1.789q-.4.1-.8.193-.746.157-.132.048l1.064.44a1.134,1.134,0,0,1,.3.473c-.046-.222-.047-.2,0,.061-.008-.131-.01-.262-.007-.394.016-.181.029-.564.04-.65.313-2.732,1.4-5.59,1.936-8.379.5-2.628-3.526-3.754-4.03-1.111-.5,2.6-1.358,5.12-1.831,7.732-.39,2.147-.706,5.907,2.467,6a15.57,15.57,0,0,0,4.676-1.1,51.057,51.057,0,0,0,5.224-1.971,46.819,46.819,0,0,0,9.142-5.308,57.327,57.327,0,0,0,9.239-8.6c1.751-2.026-1.193-4.994-2.956-2.956Z" transform="translate(4.782 5.43)" fill="#333"/>
      <path id="パス_89931" data-name="パス 89931" d="M351.483,133.023c.366.217-.136-.126-.134-.123a2.45,2.45,0,0,0,.248.229c.079.079.153.165.229.248.4.429-.113-.191.027.02.4.6.809,1.2,1.173,1.825.9,1.554,1.693,3.167,2.49,4.774.821,1.654,1.629,3.318,2.521,4.936a14.167,14.167,0,0,0,2.424,3.512c1.448,1.369,3.747,1.385,4.729-.56a2.141,2.141,0,0,0-.75-2.859,2.111,2.111,0,0,0-2.859.75.871.871,0,0,1-.131.227c.5-.487.333-.405.221-.294-.172.171.359-.261.313-.231-.258.161.461-.145.535-.155.6-.074-.177-.036.425,0,.4.025.255.041.143.012-.187-.05.591.275.262.1s.342.36.172.143c-.136-.174-.332-.335-.484-.5-.321-.352.225.334.042.059-.074-.114-.159-.22-.235-.332-.194-.282-.376-.572-.553-.863-.393-.651-.758-1.318-1.113-1.985-1.587-3.005-2.949-6.137-4.675-9.068a9.366,9.366,0,0,0-2.911-3.472c-2.318-1.378-4.422,2.233-2.11,3.609Z" transform="translate(15.721 5.791)" fill="#333"/>
      <path id="パス_89932" data-name="パス 89932" d="M188.664,137.044a8.045,8.045,0,0,0-8.6-1.315,7.437,7.437,0,0,0-3.993,4.953,18.479,18.479,0,0,0,2.717,14.922c1.975,2.9,5.035,5.433,8.764,4.993a2.155,2.155,0,0,0,2.09-2.09,2.1,2.1,0,0,0-2.09-2.09c-4.752.556-7.49-6.205-7.8-10.077-.16-2.013-.131-4.5,1.135-6.18-.3.4.552-.462.4-.352a3.214,3.214,0,0,1,1.232-.522,3.675,3.675,0,0,1,3.2.71c2.011,1.776,4.979-1.173,2.955-2.955Z" transform="translate(7.873 6.056)" fill="#333"/>
      <path id="パス_89933" data-name="パス 89933" d="M253.99,140.565a3.625,3.625,0,0,1,3.017-.663,2.877,2.877,0,0,1,1.939,1.141c-.209-.258-.051-.083.036.089.1.2.224.374.313.577a7.35,7.35,0,0,1,.4,1.38,12.873,12.873,0,0,1,.154,3.666,15.141,15.141,0,0,1-1.909,5.961c-1.045,1.9-3.052,4.672-5.571,4.332a2.163,2.163,0,0,0-2.57,1.463,2.1,2.1,0,0,0,1.463,2.57c6.4.863,10.293-5.032,12.053-10.4,1.425-4.343,1.381-11.052-2.86-13.859a8.018,8.018,0,0,0-9.411.788,2.107,2.107,0,0,0,0,2.955,2.134,2.134,0,0,0,2.956,0Z" transform="translate(11.201 6.084)" fill="#333"/>
      <path id="パス_89934" data-name="パス 89934" d="M250.955,155.184a30.44,30.44,0,0,1-1.731,5.347c-.093.216-.8,1.766-.475,1.057-.155.337-.313.673-.481,1a43.718,43.718,0,0,1-3.846,6.06c-3.441,4.632-8.109,9.528-13.954,10.806-2.627.575-1.515,4.6,1.111,4.03,6.749-1.475,12.058-6.932,16.081-12.233a44.549,44.549,0,0,0,4.216-6.549q.285-.555.534-1.126c0,.013.418-.94.186-.418.184-.409.366-.816.538-1.229a33.852,33.852,0,0,0,1.851-5.634c.587-2.619-3.441-3.738-4.03-1.111Z" transform="translate(10.27 6.893)" fill="#333"/>
      <path id="パス_89935" data-name="パス 89935" d="M184.834,155.619c2.887,12.784,12.629,26.324,26.33,28.445a2.157,2.157,0,0,0,2.57-1.463,2.107,2.107,0,0,0-1.463-2.571c-12.358-1.912-20.814-14.018-23.412-25.526-.591-2.623-4.622-1.512-4.03,1.112Z" transform="translate(8.288 6.863)" fill="#333"/>
      <path id="パス_89936" data-name="パス 89936" d="M245.665,92.873a45.782,45.782,0,0,0-41.718-3.634A42.965,42.965,0,0,0,180.2,114.219a43.719,43.719,0,0,0-.836,25.3c.659,2.606,4.691,1.5,4.03-1.112-3.123-12.329-.557-25.564,8.026-35.144a40.356,40.356,0,0,1,11.944-9.187,40.854,40.854,0,0,1,19.821-4,40.24,40.24,0,0,1,20.368,6.406c2.272,1.454,4.37-2.161,2.11-3.609Z" transform="translate(7.979 3.849)" fill="#333"/>
      <path id="パス_89937" data-name="パス 89937" d="M260.31,139.741a44.72,44.72,0,0,0-.548-25.794,40.7,40.7,0,0,0-11.37-17.19c-2-1.793-4.961,1.149-2.955,2.956a36.431,36.431,0,0,1,10.295,15.346,40.619,40.619,0,0,1,.548,23.572c-.679,2.6,3.351,3.715,4.03,1.111Z" transform="translate(10.979 4.314)" fill="#333"/>
      <path id="パス_89938" data-name="パス 89938" d="M213.66,166.024a14.654,14.654,0,0,0,6.792,1.616c2.239.02,4.876-.3,6.736-1.684a2.143,2.143,0,0,0,.749-2.86,2.113,2.113,0,0,0-2.859-.749,5.286,5.286,0,0,1-.709.441c-.071.037-.144.07-.215.1-.351.177.154-.037.162-.064-.027.082-.536.194-.62.22a12.135,12.135,0,0,1-1.5.336c.522-.093-.059,0-.138.009-.157.016-.313.027-.47.037-.377.023-.754.031-1.132.028-.345,0-.691-.015-1.034-.039-.189-.014-.377-.032-.565-.049-.418-.037.192.039-.052,0a13.8,13.8,0,0,1-1.521-.331q-.313-.093-.627-.209c-.085-.031-.168-.066-.253-.1-.374-.137.471.223.137.056-.253-.125-.509-.244-.76-.376a2.09,2.09,0,0,0-2.11,3.609Z" transform="translate(9.537 7.269)" fill="#333"/>
      <path id="パス_89939" data-name="パス 89939" d="M219.234,151.066a29.889,29.889,0,0,1,.716,3.308l-.074-.555a2.012,2.012,0,0,1,.008.456l.074-.556a1.073,1.073,0,0,1-.053.209l.209-.5a.72.72,0,0,1-.076.132l.327-.423a.463.463,0,0,1-.07.073l.423-.326a1.463,1.463,0,0,1-.306.164l.5-.209a2.037,2.037,0,0,1-.443.124l.556-.074a1.861,1.861,0,0,1-.464,0l.556.074c-.155-.023-.307-.061-.462-.081a2.345,2.345,0,0,0-1.61.209,2.09,2.09,0,0,0-.749,2.86,2,2,0,0,0,1.254.96c.389.053.765.146,1.16.171a3.8,3.8,0,0,0,1.818-.418,2.655,2.655,0,0,0,1.429-1.682,3.9,3.9,0,0,0,.009-1.836c-.181-1.075-.423-2.141-.7-3.2a2.09,2.09,0,1,0-4.03,1.111Z" transform="translate(9.779 6.657)" fill="#333"/>
      <path id="パス_89940" data-name="パス 89940" d="M202.358,141.854c-.584,1.787-.249,5.912,3.247,6.293,4.626.013,4.911-4.968,3.378-7.324C207.725,138.893,203.98,138.064,202.358,141.854Z" transform="translate(9.066 6.243)" fill="#333"/>
      <path id="パス_89941" data-name="パス 89941" d="M238.122,142.164c.553,1.8.147,5.915-3.355,6.235-4.626-.067-4.828-5.052-3.252-7.382C232.8,139.11,236.554,138.345,238.122,142.164Z" transform="translate(10.345 6.254)" fill="#333"/>
      <path id="パス_89942" data-name="パス 89942" d="M230.93,121.031a27.418,27.418,0,0,1,8.742,6.288,30.091,30.091,0,0,1,6.306,8.922,2.157,2.157,0,0,0,2.57,1.463,2.1,2.1,0,0,0,1.463-2.571,34.036,34.036,0,0,0-7.179-10.553,30.694,30.694,0,0,0-9.789-7.15,2.159,2.159,0,0,0-2.86.75,2.105,2.105,0,0,0,.75,2.859Z" transform="translate(10.312 5.255)" fill="#333"/>
      <path id="パス_89943" data-name="パス 89943" d="M193.543,136.419a97.4,97.4,0,0,1,8.729-8.165,53.638,53.638,0,0,1,4.581-3.432c.666-.441,1.345-.863,2.044-1.254q.276-.151.555-.3a1.368,1.368,0,0,1-1.2-.3,13.744,13.744,0,0,0,.1,1.425c-.074,2.1,1.236,4,3.525,3.853,1.649-.1,3.46-1.54,4.884-2.331a99.424,99.424,0,0,1,10.762-5.516,2.157,2.157,0,0,0,1.463-2.571,2.1,2.1,0,0,0-2.57-1.463,104.874,104.874,0,0,0-11.424,5.753c-.836.465-1.672.932-2.518,1.393a4.642,4.642,0,0,0-.836.452q-.731.289.458.254.48.973.44.172a5.491,5.491,0,0,0-.567-3.374,3.389,3.389,0,0,0-2.266-1.805c-1.822-.4-3.828,1.231-5.254,2.194-1.663,1.121-3.255,2.353-4.806,3.623a96.855,96.855,0,0,0-9.044,8.425c-1.847,1.954,1.1,4.911,2.955,2.956Z" transform="translate(8.523 5.216)" fill="#333"/>
      <path id="パス_89944" data-name="パス 89944" d="M300.513,154.434a39.855,39.855,0,0,1,3.517-10.679,36.667,36.667,0,0,1,3.433-5.956,12.252,12.252,0,0,1,3.8-3.573c2.363-1.287.256-4.9-2.109-3.609-4.061,2.213-6.687,6.734-8.613,10.772a43.821,43.821,0,0,0-4.058,11.93,2.157,2.157,0,0,0,1.463,2.57,2.1,2.1,0,0,0,2.57-1.463Z" transform="translate(13.296 5.846)" fill="#333"/>
      <path id="パス_89945" data-name="パス 89945" d="M31.667,303.544c6.459-8.65,13.087-17.435,18.2-26.97a45.467,45.467,0,0,0,3.78-9.736c1.341-4.935,2.5-9.926,3.632-14.908q2.474-10.876,4.695-21.808c.538-2.626-3.49-3.749-4.03-1.112-2.4,11.7-4.849,23.427-7.867,34.989a45.527,45.527,0,0,1-3.239,9.349,121.112,121.112,0,0,1-7.752,12.686c-3.537,5.232-7.255,10.344-11.034,15.4a2.1,2.1,0,0,0,.759,2.862,2.139,2.139,0,0,0,2.859-.749Z" transform="translate(1.246 10.204)" fill="#333"/>
      <path id="パス_89946" data-name="パス 89946" d="M385.136,241.875c2.683,16.423,6.468,32.689,10.056,48.933q1.808,8.176,3.632,16.35c.584,2.624,4.614,1.513,4.03-1.112-4.03-18.09-8.142-36.172-11.7-54.362-.709-3.632-1.393-7.269-1.985-10.921a2.106,2.106,0,0,0-2.571-1.463,2.141,2.141,0,0,0-1.463,2.571Z" transform="translate(17.272 10.73)" fill="#333"/>
      <path id="パス_89947" data-name="パス 89947" d="M290.555,253.653c3.748,17.592,7,35.291,10.281,52.974.49,2.64,4.519,1.522,4.03-1.112-3.286-17.683-6.533-35.382-10.281-52.974C294.025,249.913,290,251.025,290.555,253.653Z" transform="translate(13.03 11.26)" fill="#333"/>
      <path id="パス_89948" data-name="パス 89948" d="M262.761,230.036c.184,10.576.823,21.14,1.334,31.7.468,9.674.684,19.357,1.114,29.032.242,5.445.509,10.887.739,16.332.113,2.679,4.293,2.694,4.179,0-.836-19.841-1.6-39.681-2.554-59.517-.28-5.851-.531-11.7-.633-17.554-.047-2.686-4.226-2.695-4.179,0Z" transform="translate(11.786 10.227)" fill="#333"/>
      <path id="パス_89949" data-name="パス 89949" d="M171.241,306.975c.792-18.752,1.488-37.51,2.4-56.253.29-5.928.544-11.86.644-17.8.045-2.691-4.134-2.692-4.179,0-.178,10.642-.849,21.267-1.348,31.9-.429,9.17-.627,18.349-1.045,27.519-.22,4.877-.457,9.754-.662,14.628-.113,2.689,4.067,2.684,4.179,0Z" transform="translate(7.493 10.357)" fill="#333"/>
      <path id="パス_89950" data-name="パス 89950" d="M210.671,259.425c-8.34-14.457-16.584-28.979-24.28-43.79-.507-.977-.955-2.02-1.527-2.96,0,0-.252-.634-.239-.333,0,.031-.235.478.1-.071a9.037,9.037,0,0,1,1.2-1.268c1.736-1.8,3.553-3.516,5.371-5.224a2.109,2.109,0,0,0-.423-3.282l-3.248-1.855-1.516-.865-.866-.494q-.745-.5-.216-.038l.285,1.055c-.015.327.255-.365.306-.457.166-.3.342-.588.522-.876.39-.618.808-1.219,1.248-1.8a38.664,38.664,0,0,1,3.056-3.519,39.621,39.621,0,0,1,6.845-5.815l-3.07-1.254a327.351,327.351,0,0,0,9.326,31.568c3.152,9.4,6.135,18.865,9.4,28.224,1.672,4.774,3.519,9.48,5.417,14.167a2.157,2.157,0,0,0,2.57,1.463,2.1,2.1,0,0,0,1.463-2.571c-3.294-8.139-6.211-16.37-8.928-24.717-3.417-10.493-7.105-20.9-10.367-31.443-1.818-5.876-3.493-11.8-4.853-17.8a2.1,2.1,0,0,0-3.07-1.249,45.188,45.188,0,0,0-11.007,10.317c-1.241,1.614-3.68,4.388-2.861,6.565.494,1.314,1.985,1.881,3.12,2.527l4.332,2.473-.423-3.282c-1.7,1.594-3.392,3.2-5.022,4.867-1.407,1.44-3.19,2.952-2.81,5.181.335,1.961,1.794,3.97,2.707,5.724q1.567,3.009,3.169,6,6.426,12.023,13.18,23.859,3.718,6.554,7.488,13.078c1.344,2.329,4.957.227,3.609-2.11Z" transform="translate(8.095 8.25)" fill="#333"/>
      <path id="パス_89951" data-name="パス 89951" d="M222.222,260.618c3.344-8.55,6.714-17.067,9.587-25.789,3.381-10.265,6.992-20.456,10.188-30.78,1.792-5.788,3.443-11.622,4.785-17.532l-3.07,1.249a37.371,37.371,0,0,1,7.076,5.822,40.642,40.642,0,0,1,3.262,3.69c.408.532.794,1.081,1.159,1.643q.278.424.534.861c.078.134.471.981.46.716l.285-1.054q.522-.463-.216.033l-.866.492-1.516.861-3.248,1.846a2.109,2.109,0,0,0-.423,3.282c1.639,1.532,3.271,3.073,4.847,4.671.474.481,1.742,1.463,1.858,1.951-.089-.378-.448.6-.552.8q-.357.69-.717,1.378-2.88,5.512-5.908,10.943c-4.2,7.567-8.555,15.046-12.969,22.494q-3.7,6.249-7.456,12.47c-1.391,2.31,2.221,4.413,3.609,2.108,9.4-15.616,18.782-31.281,27.151-47.48a5.385,5.385,0,0,0,.922-3.485,5.707,5.707,0,0,0-1.768-2.88c-1.944-2.052-4-4-6.06-5.924l-.423,3.282,4.331-2.462c1.2-.681,2.821-1.3,3.227-2.77.61-2.223-2.045-5.13-3.3-6.73a43.2,43.2,0,0,0-11.18-10.166,2.107,2.107,0,0,0-3.07,1.254,320.82,320.82,0,0,1-9.185,31.048c-3.21,9.544-6.231,19.174-9.758,28.607-1.81,4.839-3.738,9.634-5.617,14.445a2.105,2.105,0,0,0,1.463,2.571,2.139,2.139,0,0,0,2.57-1.463Z" transform="translate(9.784 8.247)" fill="#333"/>
      <path id="パス_89952" data-name="パス 89952" d="M220.119,189.9c-5.623-3.786-11.14-7.74-16.813-11.452a2.1,2.1,0,0,0-2.532.327c-1.868,2.243-3.522,4.656-5.408,6.887a2.153,2.153,0,0,0-.326,2.533c4.145,6.456,7.968,13.215,13.749,18.389a2.118,2.118,0,0,0,3.283-.423c2.656-4.641,5.942-8.889,8.8-13.4,1.441-2.28-2.174-4.379-3.609-2.109-2.855,4.515-6.141,8.762-8.8,13.4l3.282-.418c-5.526-4.947-9.135-11.376-13.1-17.546l-.327,2.532c1.881-2.231,3.539-4.643,5.407-6.887l-2.533.327c5.673,3.711,11.189,7.666,16.813,11.452C220.247,195.016,222.342,191.4,220.119,189.9Z" transform="translate(8.736 7.991)" fill="#333"/>
      <path id="パス_89953" data-name="パス 89953" d="M225.21,203.6c-3.5,0-7-.073-10.5-.075a2.09,2.09,0,0,0,0,4.179c3.5,0,7,.074,10.5.075a2.09,2.09,0,0,0,0-4.179Z" transform="translate(9.537 9.129)" fill="#333"/>
      <path id="パス_89954" data-name="パス 89954" d="M224.825,199.439q-.55,2.945-1.228,5.862a10.856,10.856,0,0,0-.4,3.287c.152,1.9.462,3.8.7,5.694.916,7.343,1.832,14.688,2.69,22.038a2.153,2.153,0,0,0,2.09,2.09,2.1,2.1,0,0,0,2.09-2.09c-.846-7.245-1.748-14.484-2.651-21.723-.241-1.935-.5-3.866-.714-5.808a6.856,6.856,0,0,1,.228-2.377q.673-2.919,1.228-5.862c.492-2.629-3.535-3.756-4.03-1.112Z" transform="translate(10.011 8.878)" fill="#333"/>
      <path id="パス_89955" data-name="パス 89955" d="M212.724,236.671c1.03-7.253,2.076-14.506,3.08-21.763.271-1.961.571-3.923.782-5.892.3-2.826-1.073-5.709-1.722-8.412-.627-2.612-4.658-1.508-4.03,1.111.566,2.362,1.84,4.9,1.567,7.364-.209,1.866-.457,3.5-.719,5.391q-1.465,10.549-2.986,21.09a2.161,2.161,0,0,0,1.463,2.57,2.1,2.1,0,0,0,2.57-1.463Z" transform="translate(9.358 8.931)" fill="#333"/>
      <path id="パス_89956" data-name="パス 89956" d="M221.948,193.622c5.623-3.786,11.141-7.74,16.813-11.452l-2.532-.327c1.867,2.243,3.521,4.656,5.407,6.887l-.327-2.532c-3.962,6.17-7.57,12.6-13.1,17.546l3.282.418c-2.657-4.641-5.942-8.888-8.8-13.4-1.434-2.268-5.052-.173-3.609,2.11,2.855,4.515,6.14,8.762,8.8,13.4a2.117,2.117,0,0,0,3.282.423c5.782-5.176,9.6-11.935,13.75-18.389a2.14,2.14,0,0,0-.327-2.533c-1.881-2.231-3.539-4.643-5.407-6.887a2.1,2.1,0,0,0-2.533-.327c-5.671,3.711-11.189,7.667-16.812,11.452C217.619,191.507,219.709,195.13,221.948,193.622Z" transform="translate(9.812 7.996)" fill="#333"/>
      <path id="パス_89957" data-name="パス 89957" d="M216.622,268.5a3.615,3.615,0,0,0-.45,4.948,3.866,3.866,0,0,0,5.134.475,3.541,3.541,0,0,0,.173-5.12,3.724,3.724,0,0,0-4.858-.3Z" transform="translate(9.662 12.009)" fill="#333"/>
      <path id="パス_89958" data-name="パス 89958" d="M336.247,197.361c-5.983-3.187-11.878-6.553-17.9-9.661a2.147,2.147,0,0,0-2.859.749c-1.628,2.423-3.024,4.994-4.671,7.407a2.138,2.138,0,0,0,.327,2.533c4.814,6.028,9.307,12.244,15.624,16.822a2.09,2.09,0,0,0,2.86-.75c2.164-4.891,5-9.452,7.37-14.238,1.191-2.4-2.413-4.521-3.609-2.11-2.374,4.786-5.206,9.347-7.37,14.238l2.859-.749c-5.973-4.326-10.229-10.47-14.778-16.166l.327,2.533c1.647-2.413,3.043-4.984,4.671-7.407l-2.86.75c6.025,3.107,11.919,6.478,17.9,9.661C336.515,202.235,338.626,198.628,336.247,197.361Z" transform="translate(13.929 8.407)" fill="#333"/>
      <path id="パス_89959" data-name="パス 89959" d="M342.774,210.378c-3.483.358-6.971.648-10.449,1.006a2.138,2.138,0,0,0-2.09,2.09,2.111,2.111,0,0,0,2.09,2.09c3.482-.358,6.971-.648,10.449-1.006a2.139,2.139,0,0,0,2.09-2.09,2.111,2.111,0,0,0-2.09-2.09Z" transform="translate(14.813 9.436)" fill="#333"/>
      <path id="パス_89960" data-name="パス 89960" d="M327.914,209.864c.811,2.274,2.437,4.855,2.357,7.105-.046,1.284-.121,2.568-.189,3.852q-.394,7.471-.817,14.941-.51,9.238-1,18.477-.216,4.137-.418,8.274-.085,1.776-.163,3.553c-.052,1.186-.307,2.612.226,3.7a30.315,30.315,0,0,0,3.54,4.893q1.944,2.508,3.989,4.932,2.122,2.533,4.311,5.008.969,1.1,1.945,2.187a10.27,10.27,0,0,0,2.145,2.147,3.188,3.188,0,0,0,3.174-.042A7.242,7.242,0,0,0,349.151,286q1.89-3.306,3.705-6.653,1.646-3.04,3.22-6.117a42.582,42.582,0,0,0,2.782-5.712c.4-1.216-.088-2.546-.373-3.749q-.376-1.6-.77-3.189-.913-3.722-1.869-7.435-2.233-8.737-4.549-17.449-2.009-7.609-4.039-15.212-.609-2.289-1.216-4.582a6.345,6.345,0,0,1-.24-3.021c.245-2.07.492-4.136.646-6.215.2-2.683-3.981-2.671-4.179,0-.151,2.047-.393,4.081-.634,6.119a8.755,8.755,0,0,0,.04,2.926c.209.93.483,1.849.726,2.77q1.672,6.307,3.355,12.612c2.84,10.7,5.709,21.4,8.311,32.155.249,1.027.437,2.09.731,3.1a2.58,2.58,0,0,1,.077.339c-.065-.457.06-.434-.187-.042a16,16,0,0,0-.731,1.512q-.836,1.695-1.694,3.374-1.756,3.426-3.608,6.8-.972,1.776-1.966,3.544-.5.9-1.015,1.791l-.386.673c-.13.225-.258.449-.389.674q-.43.549.555.1l.923.537a32.387,32.387,0,0,1-3.81-4.168q-2.038-2.317-4.027-4.677c-1.315-1.567-2.612-3.152-3.871-4.768a25.288,25.288,0,0,1-3.147-4.382l.285,1.055a32.643,32.643,0,0,1,.169-5.078q.144-3.075.3-6.15.362-7.11.754-14.219c.436-7.983.9-15.964,1.308-23.949.045-.893.131-1.8.122-2.692-.026-2.728-1.622-5.36-2.518-7.873s-4.938-1.43-4.03,1.112Z" transform="translate(14.693 9.18)" fill="#333"/>
      <path id="パス_89961" data-name="パス 89961" d="M338.483,200.615c5.2-4.343,10.286-8.845,15.545-13.12h-2.956c2.09,2.04,3.983,4.268,6.087,6.293l-.327-2.532c-3.293,6.521-6.207,13.361-11.18,18.831l3.282.423c-3.225-4.493-7.041-8.512-10.456-12.852a2.1,2.1,0,0,0-2.955,0,2.141,2.141,0,0,0,0,2.955c3.193,4.057,6.792,7.807,9.8,12.005a2.118,2.118,0,0,0,3.282.423c5.236-5.766,8.359-12.806,11.83-19.679a2.15,2.15,0,0,0-.326-2.532c-2.105-2.026-4-4.255-6.087-6.294a2.15,2.15,0,0,0-2.956,0c-5.259,4.277-10.344,8.777-15.544,13.121C333.46,199.386,336.431,202.329,338.483,200.615Z" transform="translate(15.019 8.25)" fill="#333"/>
      <path id="パス_89962" data-name="パス 89962" d="M96.82,268.7a3.535,3.535,0,0,0-1.077,4.737,3.78,3.78,0,0,0,4.911,1.126,3.462,3.462,0,0,0,.836-4.938A3.641,3.641,0,0,0,96.82,268.7Z" transform="translate(4.272 12.03)" fill="#333"/>
      <path id="パス_89963" data-name="パス 89963" d="M111.8,262.462c10.5-12.6,21.225-25.188,30.665-38.613,2.866-4.075-3.335-8.081-5.892-10.536l-.423,3.282c2.143-1,4.388-1.955,6.461-3.095,2.55-1.405.991-4.319-.028-6.207a38,38,0,0,0-9.7-11.585,2.128,2.128,0,0,0-3.493.923c-3.3,8.666-7.254,17.078-11.317,25.409-3.795,7.78-7.585,15.583-11.7,23.2-2.052,3.8-4.2,7.541-6.352,11.284-1.34,2.337,2.27,4.445,3.609,2.11,8.622-15.046,16.486-30.54,23.651-46.328,2.176-4.8,4.265-9.642,6.14-14.564l-3.493.923a37.7,37.7,0,0,1,8.41,9.63c.439.731,1.594,2.221,1.51,3.081l.612-1.478a4.459,4.459,0,0,1-1.265.588c-.6.282-1.2.575-1.8.869-1.116.549-2.229,1.105-3.356,1.633a2.1,2.1,0,0,0-.423,3.282c.9.862,1.827,1.687,2.739,2.534.428.4.855.8,1.263,1.219.331.34.778,1.1,1.184,1.313l.234.3q.3-.671-.052-.072a12.036,12.036,0,0,0-1.035,1.426q-1.062,1.451-2.136,2.891-4.2,5.623-8.568,11.112c-6.018,7.6-12.2,15.07-18.4,22.515-1.71,2.052,1.231,5.025,2.956,2.956Z" transform="translate(4.473 8.752)" fill="#333"/>
      <path id="パス_89964" data-name="パス 89964" d="M104.856,257.765c-2.018-7.746-4.075-15.464-5.657-23.312-1.856-9.195-3.911-18.345-5.6-27.567-.946-5.156-1.767-10.336-2.3-15.553-.119-1.179-1.267-2.59-2.646-2.014a39.86,39.86,0,0,0-12.029,7.974c-1.436,1.374-4.248,3.812-3.118,6.019a10.523,10.523,0,0,0,2.717,2.612c1.105.968,2.194,1.953,3.313,2.9l.418-3.283c-1.643.9-3.35,1.681-4.959,2.638-1.65.981-3.768,2.234-3.786,4.4-.015,1.763,1.118,3.706,1.747,5.316q1.088,2.78,2.215,5.545c3.174,7.793,6.539,15.507,9.977,23.186q2.882,6.436,5.822,12.852a2.105,2.105,0,0,0,2.859.749,2.138,2.138,0,0,0,.75-2.859c-4.062-8.888-8.091-17.793-11.93-26.78q-2.8-6.547-5.415-13.165-.655-1.672-1.294-3.344a5.98,5.98,0,0,0-.467-1.235q-.164-.695-.125.114c.228-.171.461-.337.7-.5,1.9-1.288,4.012-2.213,6.018-3.309a2.1,2.1,0,0,0,.423-3.282c-.948-.806-1.873-1.635-2.805-2.457-.446-.393-.892-.785-1.344-1.169-.333-.284-1.028-.657-1.229-1.045l.209,1.61c.146-.808,1.548-1.881,2.118-2.436a33.281,33.281,0,0,1,3.335-2.833,33.979,33.979,0,0,1,6.986-4.2l-2.646-2.016a274.327,274.327,0,0,0,4.731,28.229c1.8,8.666,3.429,17.389,5.525,25.99,1.087,4.457,2.29,8.881,3.448,13.324.677,2.6,4.709,1.5,4.03-1.111Z" transform="translate(3.194 8.485)" fill="#333"/>
      <path id="パス_89965" data-name="パス 89965" d="M310.762,134.337c2.7-1.278,6.19-.854,9.066-.618a64.078,64.078,0,0,0,9.224.448c5.915-.367,11.725-1.713,17.641-2.065a23.53,23.53,0,0,1,4.2.036,12.352,12.352,0,0,1,1.4.313c.41.12.087-.007.347.127.118.062.662.434.342.174a2.154,2.154,0,0,0,2.956,0,2.105,2.105,0,0,0,0-2.956c-1.937-1.567-4.382-1.9-6.811-1.937a64.125,64.125,0,0,0-9.523.842c-3.143.428-6.281.94-9.443,1.2a54.678,54.678,0,0,1-9.527-.3c-4.006-.355-8.249-.648-11.982,1.118-2.43,1.149-.313,4.754,2.109,3.609Z" transform="translate(13.796 5.735)" fill="#333"/>
      <path id="パス_89966" data-name="パス 89966" d="M124.23,209.447c-10.9,3.821-22.486,1.017-32.254-4.446-2.35-1.314-4.459,2.3-2.11,3.609,10.679,5.972,23.558,9.045,35.474,4.867C127.863,212.593,126.778,208.554,124.23,209.447Z" transform="translate(3.985 9.182)" fill="#333"/>
    </g>
    <g id="グループ_9756" data-name="グループ 9756" transform="translate(5962.999 16194.092)">
      <path id="パス_90668" data-name="パス 90668" d="M122.187,119.716c10.135-11.247,16.615-26.5,16.615-45.242C138.8,27.463,109.161,2.4,70.619,2.4S2.435,27.463,2.435,74.471c0,42.989,34.089,67.637,68.184,67.637a70.972,70.972,0,0,0,41.138-13.083c3.934,2.225,13.559,7.194,18.105,9.249C127.626,132.241,124.705,125.334,122.187,119.716Z" transform="translate(-5843.947 -12103.017)" fill="#fff"/>
      <path id="パス_90671" data-name="パス 90671" d="M123.566,143.485V102.037h14.557v41.97C133.5,144,128.59,144,123.566,144Z" transform="translate(-5890.677 -12141.455)" fill="#fff"/>
      <path id="パス_90672" data-name="パス 90672" d="M99.733,154.659v.9c-4.92,0-9.834-.006-14.557-.012V132.037H99.733Z" transform="translate(-5875.867 -12153.028)" fill="#fff"/>
      <path id="パス_90673" data-name="パス 90673" d="M46.778,158.666v-1.63H61.335v8.154c-5.416,0-10.38-.01-14.561-.016C46.777,162.739,46.778,160.241,46.778,158.666Z" transform="translate(-5861.052 -12162.672)" fill="#fff"/>
      <path id="パス_90677" data-name="パス 90677" d="M176.523,131.512v.927c-3.581.006-8.63,0-14.557-.006v-60.4h14.557Z" transform="translate(-5905.491 -12129.882)" fill="#0c5fe5"/>
      <path id="パス_90710" data-name="パス 90710" d="M122.3,119.828a65.63,65.63,0,0,0,12.235-19.812,71.921,71.921,0,0,0,4.8-25.133,95.7,95.7,0,0,0-2.369-23.191,73.035,73.035,0,0,0-7.155-18.872A61.069,61.069,0,0,0,103.77,7.677,69.416,69.416,0,0,0,86.2,1.622,83.994,83.994,0,0,0,66.495.06,78.963,78.963,0,0,0,47.282,3.07,66.108,66.108,0,0,0,30.54,10.541,60.651,60.651,0,0,0,16.827,22.362,64.262,64.262,0,0,0,6.8,38.425,79.084,79.084,0,0,0,1.1,58.619,91.905,91.905,0,0,0,.53,82.408a69.761,69.761,0,0,0,6.07,21.7A64.5,64.5,0,0,0,18.237,121.09a67.688,67.688,0,0,0,15.8,12.262,72.93,72.93,0,0,0,66.1,2.641,69.239,69.239,0,0,0,11.433-6.621h-1.488c5.887,3.322,11.949,6.459,18.106,9.249a1.5,1.5,0,0,0,1.637-.115,1.459,1.459,0,0,0,.529-1.55c-2.375-6.4-5.037-12.686-7.824-18.912a1.485,1.485,0,0,0-2.016-.529,1.51,1.51,0,0,0-.529,2.017c2.681,5.994,5.239,12.051,7.526,18.208l2.166-1.665c-6.157-2.79-12.223-5.927-18.106-9.249a1.459,1.459,0,0,0-1.488,0A69.213,69.213,0,0,1,85.906,137.8a70.021,70.021,0,0,1-42.112-3.043,66.386,66.386,0,0,1-16.483-9.406A62.064,62.064,0,0,1,5.473,92.609a75.581,75.581,0,0,1-2.436-22.7A88.086,88.086,0,0,1,6.243,48.64a67.141,67.141,0,0,1,7.678-17.393A58.412,58.412,0,0,1,25.435,17.926,60.151,60.151,0,0,1,40.172,8.761,69.678,69.678,0,0,1,57.4,3.848,82.907,82.907,0,0,1,76.5,3.216a72.959,72.959,0,0,1,17.959,3.7,61.718,61.718,0,0,1,15.478,7.9,58.013,58.013,0,0,1,12.407,11.943,63.449,63.449,0,0,1,8.907,16.174,80.45,80.45,0,0,1,4.623,20.085,83.629,83.629,0,0,1-.789,24.557,64.108,64.108,0,0,1-8.493,21.713,61.57,61.57,0,0,1-6.379,8.457C118.947,119.152,121.026,121.246,122.3,119.828Z" transform="translate(-5843.014 -12102.09)" fill="#333"/>
      <path id="パス_90711" data-name="パス 90711" d="M61.888,163.379V156.11a1.5,1.5,0,0,0-1.474-1.474H45.857a1.5,1.5,0,0,0-1.474,1.474v7.669a1.475,1.475,0,0,0,2.948,0V156.11l-1.474,1.474H60.414L58.94,156.11v7.269A1.475,1.475,0,0,0,61.888,163.379Z" transform="translate(-5860.13 -12161.746)" fill="#333"/>
      <path id="パス_90712" data-name="パス 90712" d="M100.282,153.734V131.11a1.5,1.5,0,0,0-1.474-1.474H84.251a1.5,1.5,0,0,0-1.474,1.474v23.024a1.475,1.475,0,0,0,2.948,0V131.11l-1.474,1.474H98.808l-1.474-1.474v22.624A1.475,1.475,0,0,0,100.282,153.734Z" transform="translate(-5874.942 -12152.102)" fill="#333"/>
      <path id="パス_90713" data-name="パス 90713" d="M138.676,142.161V101.11a1.5,1.5,0,0,0-1.474-1.474H122.645a1.5,1.5,0,0,0-1.474,1.474v41.451a1.475,1.475,0,0,0,2.948,0V101.11l-1.474,1.474H137.2l-1.474-1.474v41.051A1.475,1.475,0,0,0,138.676,142.161Z" transform="translate(-5889.753 -12140.528)" fill="#333"/>
      <path id="パス_90714" data-name="パス 90714" d="M177.057,130.588V79.123c0-2.58.048-5.165,0-7.745V71.11a1.5,1.5,0,0,0-1.474-1.474H161.026a1.5,1.5,0,0,0-1.474,1.474v51.744c0,2.617-.048,5.239,0,7.855v.278a1.475,1.475,0,0,0,2.948,0V79.243c0-2.608.123-5.249,0-7.855,0-.092,0-.184,0-.278l-1.474,1.474h14.557l-1.474-1.474v51.464c0,2.58-.047,5.165,0,7.745v.268a1.475,1.475,0,0,0,2.948,0Z" transform="translate(-5904.551 -12128.955)" fill="#333"/>
      <path id="パス_90715" data-name="パス 90715" d="M87.792,36.874c-5.9,3.18-12.312,6.906-19.041,8.529a.553.553,0,0,0,0,1.08l6.026,1.474a.56.56,0,0,1,.307.895C65.779,60.22,48.293,70.81,33.165,76.916a.682.682,0,0,0,.369,1.305,86.428,86.428,0,0,0,25.234-7.985C67.358,66.032,74.337,62,79.92,55.07a.53.53,0,0,1,.879.061c.891,1.571,2.24,3.707,3.472,5.765a.553.553,0,0,0,1.018-.165,222.988,222.988,0,0,0,3.317-23.319.553.553,0,0,0-.814-.539Z" transform="translate(-5855.639 -12116.29)" fill="#333"/>
      <path id="パス_90716" data-name="パス 90716" d="M35.122,170.815q8.751.018,17.5.025,12.03.012,24.059.02l25.208.016,20.669.01q5.363,0,10.726,0h.369a1.475,1.475,0,0,0,0-2.948q-4.555,0-9.11,0l-19.733-.01-24.954-.015-24.49-.02q-9.307-.009-18.615-.024H35.124a1.475,1.475,0,0,0,0,2.948Z" transform="translate(-5856.009 -12166.852)" fill="#333"/>
    </g>
  </g>
</svg>
