<svg xmlns="http://www.w3.org/2000/svg" width="188.712" height="199.701" viewBox="0 0 188.712 199.701">
  <g id="c" transform="translate(0 0.001)">
    <g id="d" transform="translate(1.646 1.583)">
      <g id="e">
        <path id="パス_90857" data-name="パス 90857" d="M2.023,152.316V64.946a2.489,2.489,0,0,1,1.245-2.156l104.8-60.507A2.491,2.491,0,0,1,111.8,4.439V88.934a2.489,2.489,0,0,0,1.245,2.156l73.175,42.247a2.491,2.491,0,0,1,0,4.314l-104.8,60.506a2.489,2.489,0,0,1-2.49,0L3.269,154.473a2.49,2.49,0,0,1-1.245-2.156Z" transform="translate(-2.023 -1.945)" fill="#fff"/>
      </g>
      <path id="パス_90858" data-name="パス 90858" d="M155.635,125.436c-2.519,1.524-3.847,2.945-5.794,6.189-3.1,5.165-4.2,11.892-4.318,18.129a29.868,29.868,0,0,0,.5,5.619c.759,3.92,3.186,6.568,7.048,8.878,2.365,1.417,5.667,1.994,7.958,2.742l.8.046L186.656,158l9.548-20.519a44.013,44.013,0,0,0-12.752-16.776l-4.752-2.32L162.2,122.5l-6.563,2.933Z" transform="translate(-28.748 -23.632)" fill="#fff"/>
      <path id="パス_90859" data-name="パス 90859" d="M174.972,84.8c-5.756-2.734-12.863-1.92-18.483,1.8-6.684,4.428-6.936,13.078-4.539,19.273a4.277,4.277,0,0,0-2.1,3.209,5.929,5.929,0,0,0,2.592,5.132,9.369,9.369,0,0,0,6.154,1.56,16.187,16.187,0,0,0,21.725-2.815c5.774-6.787,5.67-17.853-.368-24.468A16.052,16.052,0,0,0,174.972,84.8Z" transform="translate(-29.55 -17.074)" fill="#fff"/>
      <path id="パス_90860" data-name="パス 90860" d="M216.151,224.595a2.783,2.783,0,0,0,.214-.423,4.8,4.8,0,0,0-1.123-5,40.928,40.928,0,0,0-4.411-3.849,2.215,2.215,0,0,1-.677-.635,3.871,3.871,0,0,1-1.328.321c-1.982.11-5.072.055-9.256.053l-.547,1.294a5.14,5.14,0,0,0,.317,3.239,8.782,8.782,0,0,0,2.921,3.581,27.5,27.5,0,0,0,6.079,3.4,11.684,11.684,0,0,0,4.337.4A5.928,5.928,0,0,0,216.151,224.595Z" transform="translate(-38.684 -41.565)" fill="#fff"/>
      <path id="パス_90861" data-name="パス 90861" d="M196.9,232.421a4.987,4.987,0,0,0,.526-.719c1.034-1.758.293-3.6-.936-5.232a18.5,18.5,0,0,0-4.55-4.119c-2.943.622-8.649,1.309-12.224.275a6.3,6.3,0,0,0-.422,3.788,6.147,6.147,0,0,0,2.506,3.719,35.96,35.96,0,0,0,6.233,3.621,13.119,13.119,0,0,0,5.656.529,5.627,5.627,0,0,0,3.209-1.861Z" transform="translate(-35.015 -42.993)" fill="#fff"/>
      <path id="パス_90862" data-name="パス 90862" d="M199.94,168.2c-6.276,3.629-15.048,8.65-19.22,11.127a1.612,1.612,0,0,1-1.645.006c-3.149-1.842-10.576-6.1-13.5-7.829L182,162.173c.312-3.087.587-5.816.587-5.816a1.621,1.621,0,0,1,.8-1.24c6.014-3.515,15.8-9.113,21.694-12.542a1.625,1.625,0,0,1,2.433,1.571q-1.012,10.023-2.018,20.046a1.616,1.616,0,0,1-.788,1.236C203.461,166.158,201.812,167.116,199.94,168.2Z" transform="translate(-32.482 -28.094)" fill="#fff"/>
      <g id="f" transform="translate(21.332 100.399)">
        <path id="パス_90863" data-name="パス 90863" d="M124.185,156.665a29.863,29.863,0,0,1-.5-5.619c.12-6.187,1.2-12.853,4.245-18l-13.185-7.613a.812.812,0,0,0-.814,0L28.644,174.669a.814.814,0,0,0,0,1.409l34.482,19.908a.812.812,0,0,0,.814,0l61.675-35.609a11.13,11.13,0,0,1-1.431-3.714Z" transform="translate(-28.237 -125.322)" fill="#0c5fe5"/>
        <path id="パス_90864" data-name="パス 90864" d="M205.128,177.467a11.75,11.75,0,0,0-4.1-4.419l-2.053.059-1.4.808c-6.276,3.629-15.048,8.65-19.22,11.127a1.612,1.612,0,0,1-1.645.007c-3.149-1.842-10.576-6.1-13.5-7.829l-.8-.046c-2.291-.749-5.593-1.325-7.958-2.742-.015-.009-.029-.019-.044-.028l-1.519.044a12.154,12.154,0,0,0,1.293,5.376c1.557,3.074,3.047,4.6,6.476,6.424,3.043,1.623,5.432,2.851,8.556,4.306,3.809,1.775,3.952,5.42,3.831,7.245-.333,5.04-.439,8.566-.566,12.409a2.868,2.868,0,0,0,2.193,3.192c3.808,1.173,10.2.3,12.945-.359a2.3,2.3,0,0,0,1.014-.687,3.114,3.114,0,0,0,.87-1.445c.164-1.379.3-2.544.423-3.607,4.738-.007,8.192.068,10.341-.052a4.93,4.93,0,0,0,4.256-4.118s.236-1.611.252-1.709c.684-5.322,1.025-9.993,1.367-15.665.163-2.816.269-5.786-1.009-8.292Z" transform="translate(-51.451 -134.21)" fill="#0c5fe5"/>
      </g>
    </g>
    <g id="g" transform="translate(0 -0.001)">
      <path id="パス_90865" data-name="パス 90865" d="M124.428,158.622l-13.945,8.051L83.06,182.5,63.777,193.637a7.552,7.552,0,0,0-.755.436c-.038.028-.177.069-.194.112-.123.294.814-.128.762.037a21.787,21.787,0,0,0-1.909-1.1l-11.148-6.434-13.637-7.871-5.139-2.966-1.649-.952a4.213,4.213,0,0,0-.9-.518c-.376-.09.291-.839.291.636,0,2.232-.65.719-.339.664a1.649,1.649,0,0,0,.394-.227l1.829-1.056,7.344-4.24,24.36-14.063,27.82-16.06,19.956-11.52,2.411-1.392c.273-.157.886-.365,1.079-.623.181-.242-.887-.188-.779-.007.063.1.36.208.464.268l2.233,1.289,6.84,3.948,3.627,2.093a1.629,1.629,0,0,0,1.643-2.811l-10.889-6.285c-1.442-.832-3.04-2.178-4.759-1.32-.319.159-.623.36-.932.538l-16.3,9.408L68.077,149.452,41.484,164.8c-4.592,2.651-9.276,5.189-13.795,7.963a2.507,2.507,0,0,0-.219,4.365c.688.459,1.449.837,2.166,1.25l11.57,6.678,13.832,7.983c2.286,1.319,4.541,2.807,6.9,3.985,1.891.942,4.149-.972,5.737-1.889l9.779-5.646,27.813-16.057,19.783-11.422,1.016-.587a1.629,1.629,0,0,0-1.643-2.811h0Z" transform="translate(-4.897 -22.981)" fill="#333"/>
      <path id="パス_90866" data-name="パス 90866" d="M129.492,215.572l-11.116-6.416-17.743-10.24-4.106-2.37a1.629,1.629,0,0,0-1.643,2.811L106,205.773l17.743,10.24,4.106,2.37a1.629,1.629,0,0,0,1.643-2.811Z" transform="translate(-17.524 -36.561)" fill="#333"/>
      <path id="パス_90867" data-name="パス 90867" d="M123.371,95.025c-3.236-1.868-6.595-3.606-9.738-5.623-.974-.625-.579-2.584-.579-3.594V8.27c0-1.389.053-2.79,0-4.178A4.169,4.169,0,0,0,106.859.52c-.247.131-.486.281-.728.421L93.27,8.366,69.761,21.939,42.336,37.772,18.021,51.811,3.564,60.156C1.775,61.19.116,62.144.022,64.585c-.049,1.256,0,2.525,0,3.782v78.76c0,1.568-.047,3.144,0,4.713.072,2.423,1.648,3.442,3.447,4.481L20.758,166.3,47.6,181.8l23.148,13.364,6.025,3.479c.318.184.632.381.957.553,1.729.914,3.325.474,4.878-.422l23.016-13.288,6.338-3.659-.821.222a3.226,3.226,0,0,0,1.539-.632l2.264-1.307,7.817-4.514,17.832-10.3,4.173-2.41a1.629,1.629,0,0,0-1.643-2.811l-11.04,6.375-17.7,10.222-4.052,2.34.821-.222a5.932,5.932,0,0,0-2.436,1.149l-4.586,2.648-13.1,7.566-9.934,5.735c-.569.328-1.077.771-1.753.472a12.553,12.553,0,0,1-1.151-.665l-16.648-9.611L35.151,170.854,11.7,157.313l-6.586-3.8c-.8-.464-1.822-.785-1.835-1.829-.064-5.284,0-10.572,0-15.856V68.192a27.137,27.137,0,0,1,0-3.611c.127-.917,1.662-1.458,2.373-1.868l5.943-3.432L32.117,47.43,58.663,32.1l26-15.012L103.341,6.309l4.5-2.6a6.7,6.7,0,0,1,.67-.387c.88-.379,1.293.334,1.29,1.086-.024,5.5,0,11,0,16.5v65.8c0,.565-.011,1.13,0,1.7a4.463,4.463,0,0,0,2.429,3.944l9.5,5.486a1.629,1.629,0,0,0,1.643-2.811h0Z" transform="translate(0 0.001)" fill="#333"/>
      <path id="パス_90868" data-name="パス 90868" d="M214.67,157.251l9.6,5.549c.551.318.9.47.977,1.022-.011-.072-.057.328-.082.38a.851.851,0,0,1-.373.4c-.114.078-.242.14-.362.209l-5.286,3.052-4.809,2.777a1.629,1.629,0,0,0,1.643,2.811l10.122-5.845a4.44,4.44,0,0,0,2.244-2.676,4.2,4.2,0,0,0-1.932-4.653c-1.574-.984-3.223-1.863-4.83-2.792l-5.271-3.046a1.629,1.629,0,0,0-1.643,2.811h0Z" transform="translate(-39.771 -28.719)" fill="#333"/>
      <g id="h" transform="translate(1.026 89.211)">
        <path id="パス_90869" data-name="パス 90869" d="M110.152,109.858l-10.773,6.22L73.515,131.011,42.329,149.016,15.37,164.581C11,167.1,6.522,169.5,2.233,172.166c-.059.037-.121.07-.182.1a1.629,1.629,0,0,0,1.643,2.811l10.773-6.22,25.864-14.933,31.186-18.005,26.959-15.565c4.371-2.523,8.848-4.923,13.137-7.585.059-.037.121-.07.182-.1a1.629,1.629,0,0,0-1.643-2.811h0Z" transform="translate(-1.261 -109.627)" fill="#333"/>
      </g>
      <path id="パス_90870" data-name="パス 90870" d="M190.961,223.562a18.867,18.867,0,0,1,3.247,2.789c.789.883,1.857,2.178,1.707,3.458a3.491,3.491,0,0,1-2.512,2.449,9.688,9.688,0,0,1-3.338.063c-2.483-.283-4.866-1.9-6.89-3.278a6.241,6.241,0,0,1-2.379-2.433,4.462,4.462,0,0,1-.043-3.511,1.677,1.677,0,0,0-.584-2.226,1.64,1.64,0,0,0-2.226.584,7.754,7.754,0,0,0,1.232,8.489c1.867,2.059,4.739,3.5,7.218,4.663a12.716,12.716,0,0,0,7.36.9c3.022-.517,5.775-3.454,5.359-6.608-.47-3.56-3.766-6.216-6.508-8.151a1.641,1.641,0,0,0-2.226.584,1.661,1.661,0,0,0,.584,2.226h0Z" transform="translate(-33.003 -41.068)" fill="#333"/>
      <path id="パス_90871" data-name="パス 90871" d="M208.623,215.462A23.84,23.84,0,0,0,212,218.309a7.821,7.821,0,0,1,2.444,2.841,2.464,2.464,0,0,1-.577,2.816,3.884,3.884,0,0,1-3.046,1.041c-2.726-.073-5.037-1.524-7.245-3.009a8.53,8.53,0,0,1-2.733-2.666,3.8,3.8,0,0,1-.637-2.919c.686-1.984-2.457-2.836-3.139-.865-.876,2.531.688,5.491,2.379,7.291a17.492,17.492,0,0,0,3.5,2.633,26.064,26.064,0,0,0,4,2.073,9.084,9.084,0,0,0,7.874-.252,5.875,5.875,0,0,0,2.758-7.007,9.4,9.4,0,0,0-2.833-3.886c-.645-.579-1.326-1.119-2-1.663a10.994,10.994,0,0,1-1.829-1.576,1.636,1.636,0,0,0-2.3,0,1.668,1.668,0,0,0,0,2.3h0Z" transform="translate(-36.656 -39.61)" fill="#333"/>
      <path id="パス_90872" data-name="パス 90872" d="M193.228,138.168V150.14a1.628,1.628,0,0,0,3.255,0V138.168a1.628,1.628,0,0,0-3.255,0Z" transform="translate(-35.987 -25.439)" fill="#333"/>
      <path id="パス_90873" data-name="パス 90873" d="M208.487,174.069a9.309,9.309,0,0,1,4.364,7.4,75.39,75.39,0,0,1-.487,10.27c-.234,3.042-.5,6.17-.924,9.143-.271,1.914-.743,4.159-3.087,4.371-3.105.28-6.312.044-9.425.042a1.629,1.629,0,0,0,0,3.255c3.133,0,6.3.145,9.425-.042a6.583,6.583,0,0,0,6.067-5.689c.486-3.2.815-6.427,1.083-9.654a82.718,82.718,0,0,0,.6-11.7,12.763,12.763,0,0,0-5.977-10.207c-1.753-1.158-3.384,1.659-1.643,2.811h0Z" transform="translate(-36.756 -31.843)" fill="#333"/>
      <path id="パス_90874" data-name="パス 90874" d="M150.887,174.411a15.456,15.456,0,0,0,3.962,9.846c2.385,2.611,5.918,4.091,9.016,5.652q1.371.691,2.757,1.353a13.757,13.757,0,0,1,2.612,1.374,5.273,5.273,0,0,1,1.833,4.195c.032,1.874-.2,3.772-.3,5.644-.086,1.763-.155,3.528-.216,5.292-.059,1.685-.348,3.571.534,5.1a5.159,5.159,0,0,0,3.52,2.255,27.883,27.883,0,0,0,10.02,0c1.351-.191,3.022-.294,4.149-1.121a5.389,5.389,0,0,0,1.632-1.931,8.5,8.5,0,0,0,.53-2.786c.337-2.872.655-5.746.973-8.619.407-3.677.868-7.352,1.073-11.048a22.207,22.207,0,0,0-.016-4.154,7.894,7.894,0,0,0-3.291-5.455c-1.72-1.2-3.349,1.617-1.643,2.811a4.11,4.11,0,0,1,1.383,1.847,6.759,6.759,0,0,1,.343,1.2c.056.277,0,.007,0-.045.015.135.023.271.03.407a31.837,31.837,0,0,1-.076,3.664c-.174,2.952-.515,5.887-.841,8.825-.291,2.622-.577,5.244-.876,7.864q-.1.919-.212,1.838a10.015,10.015,0,0,1-.244,2.139c-.437,1.15-1.971,1.144-3,1.308a26.129,26.129,0,0,1-8.548.222c-.9-.162-2.03-.264-2.235-1.289a9.651,9.651,0,0,1,.017-2.139q.04-1.2.085-2.4.089-2.4.214-4.805a40.26,40.26,0,0,0,.214-5.237,8.847,8.847,0,0,0-1.563-4.584,10.007,10.007,0,0,0-4.124-3.024q-2.77-1.315-5.482-2.742a30.6,30.6,0,0,1-4.684-2.717,11.747,11.747,0,0,1-4.3-8.744c-.082-2.087-3.338-2.1-3.255,0h0Z" transform="translate(-28.101 -32.189)" fill="#333"/>
      <path id="パス_90875" data-name="パス 90875" d="M161.1,166.659c-1.564-.5-3.169-.858-4.732-1.36a16.017,16.017,0,0,1-4.312-2.169,11.017,11.017,0,0,1-4.766-6.67,32.6,32.6,0,0,1-.187-10.468,32.634,32.634,0,0,1,2.689-10.266,17.082,17.082,0,0,1,6.3-7.649c1.783-1.093.15-3.909-1.643-2.811C148.065,129.18,145.135,136.9,144.1,144a40.941,40.941,0,0,0-.172,12.1,13.648,13.648,0,0,0,4.832,8.582,19.782,19.782,0,0,0,5.507,3.319c1.939.752,3.986,1.16,5.963,1.792,2,.638,2.856-2.5.865-3.139h0Z" transform="translate(-26.736 -23.282)" fill="#333"/>
      <path id="パス_90876" data-name="パス 90876" d="M159.538,148.613a93.835,93.835,0,0,0-1.188,9.572,1.634,1.634,0,0,0,1.628,1.628,1.671,1.671,0,0,0,1.628-1.628c.151-1.7.317-3.4.522-5.095q.066-.547.138-1.092c-.054.4.026-.182.037-.253.022-.153.044-.306.068-.459.091-.6.191-1.208.308-1.808a1.628,1.628,0,1,0-3.139-.865h0Z" transform="translate(-29.49 -27.457)" fill="#333"/>
      <path id="パス_90877" data-name="パス 90877" d="M164.381,172.536c3.328,1.96,6.683,3.878,10.027,5.811q1.151.665,2.3,1.334a5.735,5.735,0,0,0,2.821,1.13c1.633,0,3.422-1.5,4.791-2.3,6.83-3.977,13.786-7.767,20.537-11.876a3.51,3.51,0,0,0,1.832-2.383c.3-1.575.34-3.248.5-4.843q.464-4.61.928-9.221.222-2.2.445-4.41c.137-1.358.474-2.751-.336-3.97a3.281,3.281,0,0,0-2.816-1.454,7.089,7.089,0,0,0-3.078,1.342q-6.158,3.568-12.33,7.112-3,1.732-6,3.472c-1.658.964-3.189,1.7-3.425,3.793-.54,4.787-.968,9.591-1.451,14.385a1.639,1.639,0,0,0,1.628,1.628,1.664,1.664,0,0,0,1.628-1.628q.638-6.324,1.276-12.648a7.834,7.834,0,0,1,.181-1.794c-.025.067.049.111-.007.132a8.823,8.823,0,0,0,1.228-.716l2.566-1.49q5.763-3.337,11.536-6.655,2.638-1.521,5.272-3.047c.363-.211.741-.406,1.092-.634.016-.011,0,.03,0-.027-.14,1-.261,2.587-.384,3.8q-.425,4.21-.849,8.419-.212,2.1-.423,4.21-.1,1-.2,2c-.042.416.053,1.363-.2,1.7a15.824,15.824,0,0,1-1.489.836q-1.006.586-2.014,1.17-2.369,1.373-4.743,2.739-5.1,2.938-10.2,5.88-2.367,1.371-4.727,2.755c-.156.092-.6.452-.771.462-.2.011-.644-.375-.815-.474q-1.162-.676-2.327-1.348c-3.457-2-6.924-3.98-10.366-6.007a1.629,1.629,0,0,0-1.643,2.811h0Z" transform="translate(-30.468 -26.138)" fill="#333"/>
      <path id="パス_90878" data-name="パス 90878" d="M153.122,104.532c-1.651-4.754-1.8-10.765,1.651-14.8,3.626-4.24,10.306-6.087,15.687-5.017a15.185,15.185,0,0,1,11.681,11.2,17.4,17.4,0,0,1-3.611,16.023,14.875,14.875,0,0,1-19.26,2.1c-1.732-1.187-3.362,1.632-1.643,2.811a18.142,18.142,0,0,0,20.993-.592c5.612-4.365,8.105-11.656,7.164-18.6a18.8,18.8,0,0,0-12.027-15.4,20.887,20.887,0,0,0-19.457,3.43c-5.876,4.651-6.644,13.023-4.319,19.718.683,1.967,3.829,1.121,3.139-.865h0Z" transform="translate(-27.705 -15.116)" fill="#333"/>
      <path id="パス_90879" data-name="パス 90879" d="M152.792,108.435a5.942,5.942,0,0,0-4.236,2.986,6.172,6.172,0,0,0-.153,5.422c1.519,3.6,5.565,5.453,9.333,5.3a1.628,1.628,0,0,0,0-3.255,9.34,9.34,0,0,1-1.088-.015c-.059,0-.589-.071-.332-.031q-.256-.04-.509-.094a9.808,9.808,0,0,1-1.006-.271c-.165-.054-.328-.113-.49-.175-.308-.119.024.03-.245-.11-.329-.171-.653-.338-.963-.54-.053-.034-.465-.346-.257-.174-.123-.1-.242-.207-.357-.319s-.227-.227-.334-.346c0,0-.312-.39-.149-.17a6.1,6.1,0,0,1-.542-.887c-.037-.071-.071-.142-.1-.215.05.121.054.129.012.023-.064-.173-.122-.347-.169-.524-.041-.151-.073-.3-.1-.457.051.285-.006-.1-.009-.182-.007-.155,0-.307,0-.462.007-.38-.071.164.022-.163.04-.142.079-.285.117-.427q.1-.266,0-.021c.03-.067.064-.133.1-.2a4.23,4.23,0,0,1,.225-.378c.04-.062.082-.122.126-.181-.1.137-.094.133.025-.011.106-.1.212-.207.313-.311.286-.3-.213.116.131-.11.123-.081.245-.16.374-.232.081-.045.405-.188.141-.084a4.278,4.278,0,0,1,.99-.247,1.631,1.631,0,0,0,1.137-2,1.68,1.68,0,0,0-2-1.137h0Z" transform="translate(-27.536 -20.19)" fill="#333"/>
      <path id="パス_90880" data-name="パス 90880" d="M180.179,109.979A2.672,2.672,0,0,0,181.2,111.9a1.775,1.775,0,0,0,1.383.26,2.075,2.075,0,0,0,1.486-1.242,2.768,2.768,0,0,0-.677-3.013,1.849,1.849,0,0,0-2.637.193,2.4,2.4,0,0,0-.582,1.879Z" transform="translate(-33.555 -20.009)" fill="#333"/>
      <path id="パス_90881" data-name="パス 90881" d="M167.893,113.275a2.577,2.577,0,0,0,1.086,1.918,2.006,2.006,0,0,0,1.479.251,2.246,2.246,0,0,0,1.6-1.252,2.628,2.628,0,0,0-.706-3.01,2.079,2.079,0,0,0-2.823.208,2.319,2.319,0,0,0-.634,1.884Z" transform="translate(-31.267 -20.621)" fill="#333"/>
      <path id="パス_90882" data-name="パス 90882" d="M176.4,166.926a8.128,8.128,0,0,0-7.976-3.267c-3.244.506-5.064,3.511-5.939,6.429A14.2,14.2,0,0,0,162,172.7a4.13,4.13,0,0,0,.256,2.494c.659,1.183,2.4,1.908,3.6,2.383a9.541,9.541,0,0,0,5.164.621,8.572,8.572,0,0,0,4.377-2.615,7.008,7.008,0,0,0,1.014-8.654,1.664,1.664,0,0,0-2.226-.584,1.645,1.645,0,0,0-.584,2.226c.129.2.238.4.351.6.047.087.138.357.015.015.043.119.087.237.125.357.062.2.091.411.146.614-.087-.321-.015-.163-.008-.055.01.171.024.339.022.51,0,.107-.011.215-.014.322s-.066.387,0,.021a6.6,6.6,0,0,1-.151.65c-.039.132-.086.26-.133.389.106-.29.03-.064,0,0a7.762,7.762,0,0,1-.433.759c-.012.018-.31.409-.111.164-.084.1-.171.2-.261.3-.208.227-.435.431-.661.639a7.192,7.192,0,0,1-1.524.968c.2-.091-.124.048-.172.064-.131.045-.263.084-.4.116-.02,0-.538.081-.215.05-.111.011-.224.016-.336.02a5.989,5.989,0,0,1-1.837-.225,7.841,7.841,0,0,1-2.833-1.273,4.853,4.853,0,0,0-.409-.286l.306.256c.091.486.13.6.115.33a.951.951,0,0,0,.008-.2,8.758,8.758,0,0,1,.214-1.842,9.6,9.6,0,0,1,1.394-3.4q.1-.153.2-.3c.015-.024.367-.5.122-.2a5.362,5.362,0,0,1,.483-.5c.3-.286-.256.128.1-.075.079-.044.153-.1.232-.142.118-.068.24-.128.363-.186-.328.155.041-.008.121-.034a5.851,5.851,0,0,1,.807-.194c-.392.069.062,0,.125,0,.142-.009.283-.014.425-.014s.285,0,.427.015c.122.008.43.047.137,0a7.058,7.058,0,0,1,.841.179q.206.057.409.127c.09.031.179.063.267.1-.148-.066-.169-.074-.063-.027a6.686,6.686,0,0,1,.739.393c.1.06.19.126.286.189.259.169-.145-.152.146.123a5.22,5.22,0,0,1,.63.679,1.672,1.672,0,0,0,2.226.584,1.642,1.642,0,0,0,.584-2.226Z" transform="translate(-30.157 -30.459)" fill="#333"/>
      <path id="パス_90883" data-name="パス 90883" d="M190.938,122.27c5.392,4.155,9.391,10.039,12.168,16.191a1.64,1.64,0,0,0,2.226.584,1.666,1.666,0,0,0,.584-2.226,45.275,45.275,0,0,0-13.336-17.359,1.636,1.636,0,0,0-2.226.584,1.668,1.668,0,0,0,.584,2.226h0Z" transform="translate(-35.41 -22.202)" fill="#333"/>
      <path id="パス_90884" data-name="パス 90884" d="M182.529,96.945c-1.819,1.448-5.167-.167-6.993-.846-2.62-.974-4.621.053-6.672,1.68-.8.636-1.552,1.34-2.409,1.9-1.133.744-2.311,1.428-3.492,2.091a54.688,54.688,0,0,1-7.68,3.613c-1.947.724-1.1,3.871.865,3.139a50.706,50.706,0,0,0,14.536-8.055,6.041,6.041,0,0,1,2.544-1.562,3.507,3.507,0,0,1,1.6.39c.654.245,1.308.476,1.975.683,2.771.859,5.626,1.175,8.024-.735a1.637,1.637,0,0,0,0-2.3,1.667,1.667,0,0,0-2.3,0h0Z" transform="translate(-28.714 -17.826)" fill="#333"/>
    </g>
  </g>
</svg>
