<svg xmlns="http://www.w3.org/2000/svg" xmlns:xlink="http://www.w3.org/1999/xlink" width="190.479" height="41.726" viewBox="0 0 190.479 41.726">
  <defs>
    <clipPath id="clip-path">
      <rect id="長方形_14911" data-name="長方形 14911" width="190.479" height="17.815" fill="#333"/>
    </clipPath>
  </defs>
  <g id="グループ_9988" data-name="グループ 9988" transform="translate(-75 -79.189)">
    <text id="経験者採用キャンペーンサイト" transform="translate(170.24 117.915)" fill="#333" font-size="12" font-family="YuGothicUI-Regular, Yu Gothic UI"><tspan x="-69.422" y="0">経験者採用キャンペーンサイト</tspan></text>
    <g id="グループ_9797" data-name="グループ 9797" transform="translate(75 79.189)">
      <path id="パス_90953" data-name="パス 90953" d="M2.051,13.356H32.072v2.5H2.051Zm0-4.547H32.072v2.5H2.051ZM0,6.757V17.9H34.123V6.757Z" transform="translate(0 -3.423)" fill="#333"/>
      <path id="パス_90954" data-name="パス 90954" d="M88.065.551v17.3h13.787V14.586H91.673V10.608h8.821V7.445H91.673V3.813h10.006V.551Z" transform="translate(-44.612 -0.279)" fill="#333"/>
      <path id="パス_90955" data-name="パス 90955" d="M124.575.551V3.837h3.854V14.561h-3.854v3.286H135.99V14.561h-3.854V3.837h3.854V.551Z" transform="translate(-63.107 -0.279)" fill="#333"/>
      <g id="グループ_9796" data-name="グループ 9796" transform="translate(0 0)">
        <g id="グループ_9795" data-name="グループ 9795" clip-path="url(#clip-path)">
          <path id="パス_90956" data-name="パス 90956" d="M173.513,8.969q-.024-.371-.049-.692h-9.242v3.039h5.621a2.287,2.287,0,0,1-.382,1.075,3.881,3.881,0,0,1-1.149,1.1,5.694,5.694,0,0,1-1.717.716,8.635,8.635,0,0,1-2.1.247,7.878,7.878,0,0,1-2.409-.359,6.127,6.127,0,0,1-2-1.062A5,5,0,0,1,158.7,11.28a5.481,5.481,0,0,1-.507-2.409A5.1,5.1,0,0,1,160,4.917a6.477,6.477,0,0,1,2.014-1.162,7.179,7.179,0,0,1,2.483-.42,7.616,7.616,0,0,1,2.014.26,8.273,8.273,0,0,1,1.791.716,9.752,9.752,0,0,1,1.557,1.05l2.3-2.5a7.3,7.3,0,0,0-1.865-1.433A11.439,11.439,0,0,0,167.67.4a12.718,12.718,0,0,0-7.214.272,9.954,9.954,0,0,0-3.237,1.865,8.443,8.443,0,0,0-2.125,2.817,8.239,8.239,0,0,0-.753,3.521,9.091,9.091,0,0,0,.741,3.755,8.053,8.053,0,0,0,2.051,2.8,9.151,9.151,0,0,0,3.113,1.767,11.906,11.906,0,0,0,3.879.618,13.319,13.319,0,0,0,3.83-.519,8.97,8.97,0,0,0,2.989-1.507A6.821,6.821,0,0,0,172.9,13.38a7.333,7.333,0,0,0,.692-3.249c0-.1-.009-.256-.025-.47s-.034-.445-.05-.692" transform="translate(-78.185 0)" fill="#333"/>
          <path id="パス_90957" data-name="パス 90957" d="M215.035,7.593h-9.117V.551h-3.707v17.3h3.707V10.953h9.117v6.894h3.706V.551h-3.706Z" transform="translate(-102.436 -0.279)" fill="#333"/>
          <path id="パス_90958" data-name="パス 90958" d="M243.249,3.887h6.029v13.96h3.706V3.887h6.152V.551H243.249Z" transform="translate(-123.225 -0.279)" fill="#333"/>
          <path id="パス_90959" data-name="パス 90959" d="M296.794,9.013a6.51,6.51,0,0,0-1.3-.611,4.03,4.03,0,0,0,1.6-1.13,3.715,3.715,0,0,0,.816-2.446,3.794,3.794,0,0,0-.7-2.3,4.359,4.359,0,0,0-2.088-1.47A9.993,9.993,0,0,0,291.7.551h-8.747v17.3h9.216a10.55,10.55,0,0,0,2.472-.284,7.172,7.172,0,0,0,2.138-.877,4.223,4.223,0,0,0,1.494-1.594,5.039,5.039,0,0,0,.544-2.434,4.132,4.132,0,0,0-.544-2.15,4.365,4.365,0,0,0-1.482-1.5m-10.279-5.25h4.917a4.016,4.016,0,0,1,2.026.445,1.488,1.488,0,0,1,.766,1.384A1.621,1.621,0,0,1,293.9,6.6a2.072,2.072,0,0,1-.927.655,3.687,3.687,0,0,1-1.347.235h-5.115Zm8.253,9.92a2.185,2.185,0,0,1-1.038.716,4.7,4.7,0,0,1-1.557.234h-5.658v-4.2h5.535a5.132,5.132,0,0,1,1.47.21,2.705,2.705,0,0,1,1.162.667,1.623,1.623,0,0,1,.456,1.2,1.87,1.87,0,0,1-.37,1.174" transform="translate(-143.34 -0.279)" fill="#333"/>
          <path id="パス_90960" data-name="パス 90960" d="M322.938,3.837h3.854V14.561h-3.854v3.286h11.415V14.561H330.5V3.837h3.854V.551H322.938Z" transform="translate(-163.593 -0.279)" fill="#333"/>
          <path id="パス_90961" data-name="パス 90961" d="M353.839.551V3.887h6.029v13.96h3.706V3.887h6.152V.551Z" transform="translate(-179.247 -0.279)" fill="#333"/>
        </g>
      </g>
    </g>
  </g>
</svg>
